<svg width="35" height="35" fill="none" xmlns="http://www.w3.org/2000/svg"><circle cx="17.5" cy="17.5" r="17.5" fill="#1432AF"/><path d="M3.495 11.466l-.487 4.918a1.627 1.627 0 001.615 1.792h6.353a.258.258 0 00.253-.215l.136-.75a.258.258 0 00-.253-.305H4.804a.263.263 0 01-.26-.287l.17-1.531a.26.26 0 01.259-.234h4.842a.257.257 0 00.253-.209l.182-.886a.257.257 0 00-.253-.313l-4.707-.058a.257.257 0 01-.252-.293l.155-1.212a.259.259 0 01.253-.228l6.38-.059a.26.26 0 00.252-.234l.11-1.075A.26.26 0 0011.93 10H5.102a1.61 1.61 0 00-1.607 1.466zm17.95-1.016l-.783.221a.332.332 0 00-.24.222l-.48 2.749c-.071.058-3.468 2.847-3.507 2.801l-2.036-2.567v-.006l.169-3.231a.27.27 0 00-.163-.261l-.635-.274a.326.326 0 00-.454.267l-.44 4.072a.66.66 0 00.174.521l2.71 2.854a.89.89 0 001.18.097l4.072-3.068a.691.691 0 00.324-.456l.538-3.68c.026-.196-.188-.327-.428-.261zm8.195-.326h-5.62c-.642 0-1.193.45-1.33 1.075l-1.043 4.88a1.36 1.36 0 001.329 1.647h5.62c.642 0 1.193-.45 1.33-1.074l1.043-4.88a1.364 1.364 0 00-1.329-1.648zm-.11 1.81l-.823 3.845a.652.652 0 01-.635.514h-4.357a.653.653 0 01-.635-.788l.823-3.844c.065-.3.33-.514.635-.514h4.357c.415 0 .72.384.635.788zm-19.008 7.473l-2.917-.085a.598.598 0 00-.61.515l-.862 5.818a.3.3 0 00.299.345h.291c.208 0 .383-.15.409-.352l.33-2.13 2.535-.072a1.268 1.268 0 001.303-1.062l.285-1.667a1.118 1.118 0 00-1.063-1.31zm-.168 1.74l-.136.899a.645.645 0 01-.642.553h-1.22a.653.653 0 01-.64-.755l.155-.965a.65.65 0 01.674-.547l1.2.065a.65.65 0 01.609.75zm2.418-1.434l-.603 5.681a.321.321 0 00.318.358l2.956.066a.323.323 0 00.33-.326v-.117a.323.323 0 00-.31-.326l-1.784-.072c-.188-.006-.324-.17-.44-.352l.427-4.807c.143-.176.013-.34-.162-.352l-.382-.04a.32.32 0 00-.35.287zm9.698 6.046l-1.335-6.417-1.316.078s-2.956 6.033-3.326 6.339h1.426l.344-.9a.325.325 0 01.305-.208h2.34c.181 0 .324.144.324.326v.782h1.238zm-2.003-2.117H19.06c-.103 0-.162-.118-.11-.202l1.277-1.994c.065-.104.234-.065.24.065l.13 1.994c.006.078-.052.137-.13.137zm2.431-4.3l1.388 3.342-.292 3.199 1.167-.046.272-3.01 2.664-3.485h-1.231l-1.705 2.124-1.063-2.124h-1.2z" fill="#fff"/></svg>