<svg width="35" height="35" fill="none" xmlns="http://www.w3.org/2000/svg"><circle cx="17.5" cy="17.5" r="17.5" fill="#D7302A"/><path fill-rule="evenodd" clip-rule="evenodd" d="M17.622 6c-1.105 0-2 .904-2 2.02v6.445l-1.58-4.97a1.997 1.997 0 00-2.518-1.306 2.025 2.025 0 00-1.293 2.542l2.062 6.484a6.736 6.736 0 00-1.277 3.125l-3.051-1.693a1.99 1.99 0 00-2.717.797 2.03 2.03 0 00.79 2.744l6.81 3.78A6.617 6.617 0 0017.622 28c3.27 0 5.99-2.375 6.56-5.51l4.51-7.24a2.032 2.032 0 00-.628-2.786 1.99 1.99 0 00-2.759.634l-2.312 3.712 2.349-5.847A2.027 2.027 0 0024.24 8.33a1.994 1.994 0 00-2.606 1.113l-2.01 5.005V8.02A2.01 2.01 0 0017.621 6zm0 20.429c2.824 0 5.113-2.312 5.113-5.164 0-2.851-2.289-5.163-5.113-5.163-2.823 0-5.113 2.312-5.113 5.163 0 2.852 2.29 5.164 5.113 5.164z" fill="#fff"/><path fill-rule="evenodd" clip-rule="evenodd" d="M18.067 24.633c1.964 0 3.557-1.608 3.557-3.592s-1.593-3.592-3.557-3.592-3.557 1.608-3.557 3.592c0 .075.002.15.007.224h-.007v5.164h1.334v-2.584a3.52 3.52 0 002.223.788zm0-1.347a2.234 2.234 0 002.223-2.245c0-1.24-.995-2.245-2.223-2.245a2.234 2.234 0 00-2.223 2.245c0 1.24.995 2.245 2.223 2.245z" fill="#fff"/></svg>