<svg width="35" height="35" fill="none" xmlns="http://www.w3.org/2000/svg"><circle cx="17.5" cy="17.5" r="17.5" fill="#2C4C95"/><path d="M11 26.05c.66 0 1.117-.038 1.37-.115.272-.077.447-.211.525-.403.077-.211.334-.576.334-1.094l2.776-13.818c0-.518-.049-.883-.146-1.094-.097-.23-.281-.384-.554-.46-.252-.078-.69-.116-1.311-.116V8H23v.95c-.622 0-.85.038-1.123.115a.786.786 0 00-.524.46c-.078.212-.335.576-.335 1.095l-2.776 13.818c0 .518-.179.883-.101 1.094.097.21.272.355.524.432.253.057.7.086 1.341.086V27H11v-.95z" fill="#fff"/></svg>