<svg width="35" height="35" fill="none" xmlns="http://www.w3.org/2000/svg"><circle cx="17.5" cy="17.5" r="17.5" fill="#2E3676"/><path d="M25.216 9.806c-2.475-.085-5.427.41-8.295 1.332l2.39 1.468c1.177-.325 2.321-.512 3.328-.495 3.294.017 3.806 3.106 1.16 6.264-2.628 3.157-7.424 5.308-10.701 5.154-1.707-.085-4.796-2.014-1.553-6.196a8.16 8.16 0 01.734-.819l.068-3.482c-2.048 1.059-3.823 2.339-5.07 3.755-3.993 4.575-2.543 8.62 2.851 9.012 5.394.393 13.125-2.492 17.29-6.895 4.165-4.421 3.192-8.893-2.202-9.098zM8.763 24.621c-.837-.58-1.263-1.792-.888-3.14.615.75 1.314 1.468 2.219 1.895 2.902 1.348 8.244-.274 8.176-.222-2.526 2.133-8.005 2.509-9.507 1.467zM27.23 13.118c.035.102-2.44-1.656-4.966-1.758-1.707-.086-3.824.392-3.619.204.939-.819 3.226-1.143 5.24-.938 2.082.204 2.919 1.075 3.345 2.492z" fill="#fff"/><path d="M13.49 11.462c.017-.495.564-.803.99-.546l1.093.665c.443-.17.87-.324 1.314-.46l-3.294-2.015a.745.745 0 00-1.144.632l-.102 3.294c.358-.188.734-.376 1.126-.546l.017-1.024zm7.937 3.72a.65.65 0 01-.034 1.127l-7.152 3.874a.646.646 0 01-.955-.597l.102-4.08c-.41.308-.785.65-1.127.99l-.12 4.575c-.033.973 1.008 1.604 1.861 1.144l9.234-5.001c.854-.461.888-1.673.051-2.168l-3.976-2.44a13.61 13.61 0 00-1.349.443l3.465 2.134z" fill="#fff"/><path d="M17.945 13.032c.444-.17.905-.307 1.349-.444l-2.39-1.468c-.444.137-.887.29-1.314.461l2.355 1.45zm-4.557 2.475l.086-3.038c-.376.17-.751.358-1.127.546l-.085 3.482c.341-.342.717-.666 1.126-.99z" fill="#fff"/></svg>