<svg xmlns="http://www.w3.org/2000/svg" viewBox="0 0 35 35"><radialGradient id="a" cx="-476.429" cy="1267.143" r="1" gradientTransform="matrix(0 17.5 17.5 0 -22157.5 8355)" gradientUnits="userSpaceOnUse"><stop offset="0" stop-color="#000b27"/><stop offset="1" stop-color="#000b27"/></radialGradient><circle cx="17.5" cy="17.5" r="17.5" fill="url(#a)"/><radialGradient id="b" cx="-476.429" cy="1267.143" r="1" gradientTransform="matrix(0 17.5 17.5 0 -22157.5 8355)" gradientUnits="userSpaceOnUse"><stop offset="0" stop-color="#011e67"/><stop offset="1" stop-color="#000b27"/></radialGradient><circle cx="17.5" cy="17.5" r="17.5" fill="url(#b)"/><linearGradient id="c" gradientUnits="userSpaceOnUse" x1="18.117" y1="18.911" x2="18.117" y2="31.125" gradientTransform="matrix(1 0 0 -1 0 36)"><stop offset=".135" stop-color="#232157"/><stop offset=".595" stop-color="#28aae2"/></linearGradient><path d="M27.6 8.6c.2.1.5-.2.3-.4-1.5-1.4-4.5-3.4-9.2-3.4-6 0-10.5 3.3-10.5 5.3 0 2.2 4.3 3.4 4.5 6.7 0 .1.1.2.2.2h7.2c.2 0 .3-.2.2-.3-.6-1.9-6.7-3-6.7-7.2.1-3.6 8.7-3.7 14-.9z" fill="url(#c)"/><linearGradient id="d" gradientUnits="userSpaceOnUse" x1="18.116" y1="18.719" x2="18.116" y2="6.346" gradientTransform="matrix(1 0 0 -1 0 36)"><stop offset="0" stop-color="#572614"/><stop offset="1" stop-color="#faa31d"/></linearGradient><path d="M27.6 25.6c.2-.1.5.2.3.4-1.5 1.4-4.5 3.4-9.2 3.4-6 0-10.5-3.3-10.5-5.3 0-2.2 4.3-3.5 4.5-6.7 0-.1.1-.2.2-.2h7.2c.2 0 .3.2.2.3-.6 1.9-6.7 3-6.7 7.2.1 3.6 8.7 3.7 14 .9z" fill="url(#d)"/><linearGradient id="e" gradientUnits="userSpaceOnUse" x1="14.328" y1="11.391" x2="14.328" y2="26.526" gradientTransform="matrix(1 0 0 -1 0 36)"><stop offset="0" stop-color="#908f8f"/><stop offset=".07" stop-color="#6a1c24"/><stop offset=".25" stop-color="#dd1f26"/><stop offset=".75" stop-color="#dd1f26"/><stop offset=".93" stop-color="#6a1c24"/></linearGradient><path d="M8.3 9.5c-.1.3-.1.5-.1.7 0 2.3 4.5 3.4 4.5 6.9 0 3.4-4.5 4.7-4.5 6.9 0 .2 0 .4.1.6-.6-2.1 7.2-4 10.8-6 .8-.5 1.3-1 1.3-1.6 0-.6-.5-1.1-1.3-1.6-3.6-1.8-11.4-3.7-10.8-5.9z" fill="url(#e)"/><linearGradient id="f" gradientUnits="userSpaceOnUse" x1="19.125" y1="17.465" x2="19.125" y2="20.561" gradientTransform="matrix(1 0 0 -1 0 36)"><stop offset="0" stop-color="#dd1f26"/><stop offset="1" stop-color="#f9b8b8"/></linearGradient><path d="M18.5 18.3c-.4.5.4.1.8-.2.5-.3.8-.6.8-1s-.3-.6-.8-1c-.4-.3-1.4-1.1-1.2-.4.2.8 1.5 1 .4 2.6z" fill="url(#f)"/></svg>