<svg width="35" height="35" fill="none" xmlns="http://www.w3.org/2000/svg"><circle cx="17.5" cy="17.5" r="17.5" fill="#fff"/><path d="M17.488 0C7.827 0 0 7.85 0 17.512c0 1.672.232 3.298.673 4.83.047.186.117.395.186.581.023-.046 2.555-4.204 6.109-10.056 3.553-5.9 4.436-7.595 5.016-8.663.627-1.161 3.043-1.696 2.973 2.23-.07 3.25-.07 13.61 0 16.257.07 2.694.882 2.926 1.556 2.856.464-.046 2.16-1.323 5.272-7.826 3.089-6.503 3.414-6.991 3.948-7.363.511-.348 1.487-.325 1.696.93.255 1.463 1.695 8.57 2.95 10.38 1.16 1.696 1.927 2.927.487 2.463-.372-.116-.395-.023-1.161-.72-.767-.697-2.834-4.366-3.229-5.133-.394-.766-.534-1.695-.929-1.23-.394.464-4.482 8.894-5.643 10.218-1.161 1.324-2.717 1.788-3.646 1.858-1.58.14-4.413-1.58-4.344-4.83 0-.465.813-15.05-2.717-6.806-1.556 3.693-6.317 9.616-6.317 9.616C6.015 31.864 11.38 35 17.512 35 27.173 35 35 27.173 35 17.512 35 7.85 27.15 0 17.488 0z" fill="url(#paint0_linear)"/><defs><linearGradient id="paint0_linear" x1="27" y1="3.5" x2="8" y2="32.5" gradientUnits="userSpaceOnUse"><stop stop-color="#3ABBE1"/><stop offset=".448" stop-color="#2AC990"/><stop offset=".724" stop-color="#27D558"/><stop offset="1" stop-color="#21E128"/></linearGradient></defs></svg>