<svg width="35" height="35" fill="none" xmlns="http://www.w3.org/2000/svg"><circle cx="17.5" cy="17.5" r="17.5" fill="#000"/><path d="M7.44 15H7v14h.44v-1.886h5.547v-1.748H8.72v-2.012h3.649v-1.76h-3.65v-1.947h4.27v-1.76H7.438V15zm11.775 8.56l-1.576-2.513-2.021-3.113-.02-.033h-1.675v9.228h1.857v-5.672l1.386 2.21 2.231 3.462h1.689V17.9h-1.87v5.659zm2.636-5.66v1.775h2.146v7.454h1.87v-7.454H28V17.9h-6.15z" fill="#77BF1E"/><path d="M10.672 10.067l1.558 2.452V7h1.849v9H12.41l-2.203-3.377-1.37-2.155V16H7V7h1.655l.02.03 1.997 3.037zM21.18 16h-6.067V7h6.067v1.717h-4.22v1.899h3.606v1.717H16.96v1.963h4.219V16zm2.865-7.27h-2.12V7H28v1.73h-2.108V16h-1.848V8.73z" fill="#fff"/></svg>