<svg width="35" height="35" fill="none" xmlns="http://www.w3.org/2000/svg"><circle cx="17.5" cy="17.5" r="17.5" fill="#000"/><path d="M15.424 21.292l-2.64.74v.95l.21 1.373 1.48.423 2.007-.423.422-1.373-1.479-1.69z" fill="#CC5700"/><path d="M27.993 8.618l-2.43.739-.95 5.598 2.746-.845.634-5.492z" fill="#F36A00"/><path d="M27.993 8.618S18.487 2.386 9.826 7.35l15.632 2.007 2.535-.74zM30 21.714c0-4.964-4.964-6.548-4.964-6.548l-8.027-3.486-2.852 1.373 7.71 16.055c.634-.106 8.133-1.056 8.133-7.394zM9.826 19.286l-3.59 1.584 6.231 1.479 2.746-.95-5.386-2.113z" fill="#E56100"/><path d="M13.84 12.315h10.773v2.957H13.84v-2.957z" fill="url(#paint0_linear)"/><path d="M10.664 22.797l10.216-3.42.94 2.804-10.217 3.42-.939-2.804z" fill="url(#paint1_linear)"/><g filter="url(#filter0_i)"><path d="M6.024 13.477c0-7.606 10.14-8.556 19.329-4.014l-.845 5.281-5.704-.422c-.211-1.268-1.584-1.796-1.584-1.796s-2.535-1.056-2.324 1.267c.211 2.324 13.837 2.007 10.985 10.985-2.113 6.126-11.83 6.654-19.857 1.479l.422-5.176 6.443 1.057v1.584c.212 1.267 3.646 1.373 4.014 0 .317-4.12-10.5-2.113-10.879-10.245z" fill="url(#paint2_linear)"/></g><path fill-rule="evenodd" clip-rule="evenodd" d="M12.207 6.706c3.74-.63 8.617.283 13.24 2.567l.14.07-.901 5.626-6.063-.45-.027-.163c-.094-.562-.446-.969-.794-1.242a3.062 3.062 0 00-.462-.299 2.586 2.586 0 00-.147-.071 1.734 1.734 0 00-.038-.017l-.01-.003v-.001h-.001l-.003-.001-.002-.001-.005-.002-.019-.007a3.629 3.629 0 00-.342-.11 2.7 2.7 0 00-.785-.103c-.274.012-.507.088-.662.258-.153.169-.27.47-.22 1.017.017.182.171.384.548.609.367.219.888.426 1.518.645.361.125.757.253 1.175.388 1.023.33 2.176.704 3.274 1.18 1.55.672 3.037 1.566 3.95 2.884.923 1.331 1.24 3.065.511 5.362v.002l-.001.003c-1.094 3.172-4.15 4.865-7.896 5.119-3.748.254-8.23-.923-12.275-3.532l-.107-.068.452-5.53 6.846 1.122v1.745c.042.212.222.405.542.555.324.15.754.236 1.198.243.443.006.882-.067 1.226-.216.337-.146.553-.351.627-.6a1.616 1.616 0 00-.32-1.126c-.24-.32-.608-.594-1.083-.846-.474-.252-1.04-.474-1.663-.7a82.605 82.605 0 00-.702-.25 51.939 51.939 0 01-1.276-.462c-1.362-.517-2.773-1.17-3.868-2.22-1.101-1.057-1.872-2.508-1.969-4.595v-.01c0-1.952.652-3.493 1.79-4.624 1.134-1.127 2.733-1.83 4.604-2.146zM17.3 12.33l.003.001.014.006.05.021c.041.018.1.046.17.083a3.482 3.482 0 01.527.341c.361.284.763.722.916 1.34l5.351.397.79-4.935c-4.525-2.207-9.252-3.066-12.842-2.461-1.813.305-3.322.98-4.377 2.029-1.05 1.043-1.665 2.472-1.666 4.32.094 1.976.817 3.323 1.84 4.304 1.03.99 2.375 1.618 3.725 2.13.426.162.847.31 1.258.455l.714.254c.627.227 1.216.459 1.717.725.501.266.93.575 1.222.966.297.396.446.866.403 1.432l-.002.02-.005.018c-.115.43-.464.72-.873.897-.41.178-.912.257-1.4.25-.487-.007-.978-.1-1.37-.282-.386-.18-.714-.469-.783-.884l-.003-.018v-1.422l-6.04-.99-.393 4.82c3.953 2.519 8.298 3.643 11.911 3.397 3.646-.247 6.505-1.88 7.524-4.832.696-2.191.38-3.784-.456-4.991-.846-1.22-2.244-2.075-3.77-2.737-1.08-.468-2.2-.83-3.215-1.159-.423-.137-.829-.268-1.205-.398-.633-.22-1.189-.438-1.596-.682-.398-.237-.716-.534-.752-.933-.056-.614.066-1.052.328-1.34.26-.285.623-.38.956-.395.334-.014.667.05.912.116.123.033.227.067.3.093a3.222 3.222 0 01.086.032l.024.009.006.003z" fill="#C78B3A"/><path d="M24.19 10.624a.845.845 0 11-1.689 0 .845.845 0 111.69 0zm-2.534-1.267a.845.845 0 11-1.69 0 .845.845 0 011.69 0zm-2.746-.845a.845.845 0 01-.845.844.845.845 0 110-1.69.845.845 0 01.845.846zm-2.746-.423a.845.845 0 01-.845.845.845.845 0 110-1.69.845.845 0 01.845.845zm-2.747.422a.845.845 0 11-1.69 0 .845.845 0 011.69 0zm-2.535.846a.845.845 0 11-1.69 0 .845.845 0 011.69 0zm-2.112 1.69a.845.845 0 11-1.69 0 .845.845 0 011.69 0zm-.422 2.746a.845.845 0 11-1.69 0 .845.845 0 011.69 0zm1.055 2.746a.845.845 0 11-1.69 0 .845.845 0 111.69 0zm2.747 1.584a.74.74 0 11-1.479 0 .74.74 0 011.48 0zm2.958 1.268a.74.74 0 11-1.48 0 .74.74 0 011.48 0zm3.168 1.69a.74.74 0 11-1.479 0 .74.74 0 011.48 0zm1.268 2.746a.74.74 0 11-1.479 0 .74.74 0 011.479 0zm-2.958 2.112a.74.74 0 11-1.479 0 .74.74 0 011.48 0zm-3.168-.422a.74.74 0 11-1.479 0 .74.74 0 011.479 0zm-1.69-2.323a.74.74 0 11-1.48 0 .74.74 0 011.48 0zm-3.17-.635a.74.74 0 11-1.478 0 .74.74 0 011.479 0zm-.21 3.064a.845.845 0 11-1.69 0 .845.845 0 111.69 0zm2.746 1.478a.845.845 0 11-1.69 0 .845.845 0 011.69 0zm4.013 1.267a.845.845 0 11-1.69 0 .845.845 0 111.69 0zm4.226 0a.845.845 0 11-1.69 0 .845.845 0 111.69 0zm4.013-1.478a.845.845 0 11-1.69 0 .845.845 0 011.69 0zm1.901-2.958a.845.845 0 11-1.69 0 .845.845 0 011.69 0zm0-3.59a.845.845 0 01-.845.844.845.845 0 110-1.69.845.845 0 01.845.845zm-2.746-2.113a.845.845 0 01-.845.845.845.845 0 110-1.69.845.845 0 01.845.845zm-3.38-1.056a.845.845 0 11-1.69 0 .845.845 0 111.69 0zm-2.957-1.056a.845.845 0 01-.845.845.845.845 0 110-1.69.845.845 0 01.845.845zm-2.114-2.43a.74.74 0 11-1.478 0 .74.74 0 011.479 0zm1.268-2.535a.74.74 0 11-1.478 0 .74.74 0 011.479 0zm3.169.212a.74.74 0 11-.74-.74.74.74 0 01.74.74zm2.324 1.69a.74.74 0 11-1.479 0 .74.74 0 011.48 0zm3.169.422a.74.74 0 01-1.479 0 .74.74 0 111.479 0z" fill="#F1F986"/><defs><linearGradient id="paint0_linear" x1="19.227" y1="12.315" x2="19.227" y2="15.272" gradientUnits="userSpaceOnUse"><stop/><stop offset="1" stop-opacity="0"/></linearGradient><linearGradient id="paint1_linear" x1="15.772" y1="21.087" x2="16.711" y2="23.892" gradientUnits="userSpaceOnUse"><stop/><stop offset="1" stop-opacity="0"/></linearGradient><linearGradient id="paint2_linear" x1="8.242" y1="8.406" x2="22.501" y2="28.158" gradientUnits="userSpaceOnUse"><stop stop-color="#DA4700"/><stop offset="1" stop-color="#FFBE00"/></linearGradient><filter id="filter0_i" x="6.024" y="6.723" width="20.749" height="23.566" filterUnits="userSpaceOnUse" color-interpolation-filters="sRGB"><feFlood flood-opacity="0" result="BackgroundImageFix"/><feBlend in="SourceGraphic" in2="BackgroundImageFix" result="shape"/><feColorMatrix in="SourceAlpha" values="0 0 0 0 0 0 0 0 0 0 0 0 0 0 0 0 0 0 127 0" result="hardAlpha"/><feOffset dx=".5" dy=".5"/><feGaussianBlur stdDeviation=".5"/><feComposite in2="hardAlpha" operator="arithmetic" k2="-1" k3="1"/><feColorMatrix values="0 0 0 0 0 0 0 0 0 0 0 0 0 0 0 0 0 0 0.46 0"/><feBlend in2="shape" result="effect1_innerShadow"/></filter></defs></svg>