<svg width="35" height="35" fill="none" xmlns="http://www.w3.org/2000/svg"><circle cx="17.5" cy="17.5" r="17.5" fill="#161616"/><path fill-rule="evenodd" clip-rule="evenodd" d="M14.066 9.94a27.695 27.695 0 01-.618-1.879 16.89 16.89 0 01-.416-1.971c-.056-.37-.048-.38.312-.505.728-.25 1.47-.446 2.232-.56.353-.054.37-.043.418.314a14.566 14.566 0 001.278 4.314c.073.156.113.41.282.417.215.01.242-.258.32-.42a14.167 14.167 0 001.265-4.271c.053-.402.065-.412.475-.352.763.112 1.501.325 2.23.57.331.112.325.126.273.481a17.486 17.486 0 01-.9 3.475c-.047.127-.188.278-.05.398.11.095.25-.028.367-.076a9.866 9.866 0 003.147-2.087l.126-.124c.336-.328.335-.327.71-.018.557.459 1.092.94 1.56 1.49.235.278.233.283-.011.535-1.785 1.845-3.939 3.056-6.445 3.664-.115.028-.232.049-.345.083-.27.08-.29.138-.083.347.686.69 1.443 1.297 2.258 1.833.255.167.264.16.56-.114a15.587 15.587 0 014.23-2.776c.457-.205.928-.381 1.4-.554.319-.116.372-.09.504.224.294.703.547 1.42.708 2.165.073.335.068.351-.277.472a12.889 12.889 0 00-3.469 1.829c-.115.084-.3.153-.28.31.023.195.246.181.39.226a14.59 14.59 0 003.258.624c.836.064.674.038.607.738-.061.654-.19 1.3-.378 1.932-.1.337-.11.35-.464.324a17.25 17.25 0 01-3.572-.64c-2.956-.856-5.513-2.375-7.692-4.522-.426-.42-.348-.466-.806-.01-2.314 2.302-5.062 3.864-8.24 4.683a16.807 16.807 0 01-2.926.486c-.457.034-.45.022-.578-.4-.206-.674-.308-1.367-.388-2.063-.054-.465-.044-.48.453-.514a14.804 14.804 0 003.182-.56c.184-.054.367-.113.548-.176.157-.055.174-.157.053-.259a6.529 6.529 0 00-.529-.398 13.34 13.34 0 00-3.146-1.6c-.39-.134-.394-.14-.302-.528.17-.712.387-1.409.69-2.078.168-.373.173-.383.558-.251a15.933 15.933 0 013.605 1.769c.716.47 1.383 1 2.02 1.57.282.252.282.248.596.041a13.365 13.365 0 002.023-1.633c.073-.072.149-.143.214-.221.105-.125.058-.215-.083-.265-.083-.03-.17-.047-.257-.066a13.094 13.094 0 01-6.552-3.648c-.041-.042-.081-.085-.123-.126-.11-.11-.131-.22-.02-.345A14.5 14.5 0 019.86 7.462c.142-.11.239-.046.341.058.35.357.714.699 1.11 1.008a9.741 9.741 0 002.445 1.405c.078.03.16.08.31.007z" fill="#E6642B"/><path fill-rule="evenodd" clip-rule="evenodd" d="M17.532 29.716c-.37 0-.74.015-1.108-.005-.326-.017-.372-.078-.374-.407-.003-1.11-.013-2.22.005-3.328a1.358 1.358 0 00-.32-.919c-1.224-1.554-2.434-3.12-3.646-4.684-.31-.4-.304-.403.168-.627a18.237 18.237 0 001.791-.962c.437-.27.44-.265.742.124a5796.932 5796.932 0 002.454 3.16c.327.422.336.421.653.011a3925.454 3925.454 0 012.508-3.231c.255-.33.26-.334.601-.122.652.405 1.33.757 2.026 1.082.302.142.311.187.109.45-1.256 1.623-2.509 3.248-3.777 4.862-.194.247-.28.491-.277.8.012 1.109.006 2.218.004 3.328 0 .4-.014.433-.407.46-.383.025-.768.005-1.152.005v.003z" fill="#E6642B"/></svg>