<svg width="35" height="35" fill="none" xmlns="http://www.w3.org/2000/svg"><circle cx="17.5" cy="17.5" r="17.5" fill="#1F1F1F"/><path d="M24.608 15.77l5.748 5.8-5.748 5.799-5.747-5.8 5.747-5.799z" fill="#13FF74"/><path d="M24.608 21.57h5.748l-5.748 5.8-5.747-5.8h5.747z" fill="#00BB75"/><path d="M24.608 15.77v11.599l-5.747-5.8 5.747-5.799z" fill="#00C178"/><path d="M21.916 21.57h2.692v5.8l-5.747-5.8h3.055z" fill="#009169"/><path d="M23.159 21.57s.414-.156.88-.57c.414-.414.57-.88.57-.88s.155.414.57.88c.362.414.828.57.828.57s-.415.103-.88.57c-.415.465-.57.88-.57.88s-.052-.311-.518-.777a1.835 1.835 0 00-.88-.673z" fill="#fff"/><path d="M24.609 17.738l3.831 3.832-3.83 3.83-3.832-3.831 3.832-3.832zm0 1.398l-2.434 2.434 2.434 2.433 2.433-2.434-2.433-2.433z" fill="#000"/><path d="M17.36 23.175l4.298 4.35h-8.596l4.298-4.35z" fill="#13FF74"/><path d="M17.36 23.175v4.35h-4.298l4.298-4.35z" fill="#00C178"/><path d="M17.256 5l7.508 7.612-7.508 7.611-7.508-7.611L17.256 5z" fill="#13FF74"/><path d="M17.256 12.612h7.508l-7.508 7.612-7.508-7.612h7.508z" fill="#00BB75"/><path d="M17.256 5v15.223l-7.508-7.611L17.256 5z" fill="#00C178"/><path d="M13.735 12.612h3.521v7.612l-7.508-7.612h3.987z" fill="#009169"/><path d="M15.392 12.612s.57-.207 1.087-.725c.57-.57.725-1.087.725-1.087s.207.57.725 1.087c.518.518 1.088.725 1.088.725s-.57.155-1.088.725c-.57.621-.725 1.087-.725 1.087s-.103-.362-.673-1.035a2.187 2.187 0 00-1.139-.777z" fill="#fff"/><path d="M17.256 7.796l4.816 4.815-4.816 4.816-4.815-4.816 4.815-4.815zm0 1.45l-3.365 3.365 3.365 3.366 3.366-3.366-3.366-3.365z" fill="#000"/><path d="M9.748 15.77l5.747 5.8-5.747 5.799L4 21.569l5.748-5.799z" fill="#13FF74"/><path d="M9.748 21.57h5.747l-5.747 5.8L4 21.57h5.748z" fill="#00BB75"/><path d="M9.748 15.77v11.599L4 21.569l5.748-5.799z" fill="#00C178"/><path d="M7.055 21.57h2.693v5.8L4 21.57h3.055z" fill="#009169"/><path d="M8.35 21.57s.414-.156.88-.57c.414-.414.57-.88.57-.88s.155.414.569.88c.414.414.88.57.88.57s-.414.103-.88.57c-.414.465-.57.88-.57.88s-.051-.311-.517-.777c-.466-.518-.932-.673-.932-.673z" fill="#fff"/><path d="M9.748 17.738l3.832 3.832-3.833 3.83-3.831-3.83 3.832-3.832zm0 1.398L7.314 21.57l2.434 2.433 2.433-2.434-2.433-2.433z" fill="#000"/></svg>