<svg width="35" height="36" fill="none" xmlns="http://www.w3.org/2000/svg"><circle cx="17.5" cy="17.502" r="17.5" fill="#1F1F1F"/><path fill-rule="evenodd" clip-rule="evenodd" d="M12.16 11.413L6.958 6v12.423c1.081 1.96 2.45 3.6 3.728 5.129l.295.353.483.585c1.036 1.259 1.985 2.412 2.985 2.955 0 0 1.143.555 3.033.555s3.07-.555 3.07-.555c.854-.367 1.995-1.706 3.27-3.203l.406-.475.188-.22c1.465-1.71 3.011-3.517 3.626-5.055V6.07l-5.202 5.344s-1.664-.971-5.201-.971-5.479.971-5.479.971zm3.7 9.857l-5.718-4.487 2.099 3.546 3.618.941zm9.986-4.487l-5.717 4.487 3.618-.94 2.099-3.547z" fill="#FCD405"/></svg>