<svg width="35" height="35" fill="none" xmlns="http://www.w3.org/2000/svg"><circle cx="17.5" cy="17.5" r="17.5" fill="#00AEFF"/><path fill-rule="evenodd" clip-rule="evenodd" d="M24.95 18.907l-4.522.118-.163 4.912-.244 2.909-3.94-.04v-2.79l-.327-4.874-4.726.197-.163-4.717 6.961-.039 7.206-.196.122.629-.203 3.89zm3.453 2.923l.78-5.266-3.266-6.608-2.22.734-2.896-2.998L15.685 5l-1.12 3.993-.79-2.096-3.93 3.706-2.2 3.709-.096 3.843L6 17.443 7.056 23.6l2.394 3.965 5.649 1.87 4.627.162 7.978-2.815L30 21.302l-1.597.528z" fill="#fff"/></svg>