<svg width="35" height="35" fill="none" xmlns="http://www.w3.org/2000/svg"><circle cx="17.5" cy="17.5" r="17.5" fill="#FF7800"/><path fill-rule="evenodd" clip-rule="evenodd" d="M16.758 5A5.758 5.758 0 0011 10.758v.429c.204.507.674 1.161 1.742 1.161s1.539-.654 1.743-1.161v-.278a2.424 2.424 0 014.848 0v.278c.204.507.675 1.161 1.743 1.161s1.538-.654 1.742-1.161v-.43A5.758 5.758 0 0017.061 5h-.303zm6.06 7.822c-.346.246-.967.587-1.742.587-.776 0-1.396-.341-1.743-.587v7.235c.347-.246.967-.587 1.743-.587.775 0 1.396.34 1.742.587v-7.235zM11 20.057v-7.235c.346.246.967.587 1.742.587s1.396-.341 1.743-.587v7.235c-.346-.246-.967-.587-1.743-.587s-1.396.34-1.742.587zm11.818 1.635c-.204-.507-.674-1.162-1.742-1.162s-1.539.655-1.743 1.162v.43a2.424 2.424 0 11-4.848 0v-.43c-.204-.507-.675-1.162-1.743-1.162s-1.538.655-1.742 1.162v.58a5.758 5.758 0 005.758 5.758h.303a5.779 5.779 0 001.173-.12l1.37 2.168a1.716 1.716 0 002.902-1.833l-1.27-2.009a5.738 5.738 0 001.582-3.963v-.581z" fill="#fff"/><circle cx="24.258" cy="26.288" r="1.742" fill="#fff"/></svg>