<svg width="317" height="60" viewBox="0 0 317 60" xmlns="http://www.w3.org/2000/svg"><path d="M8.694 48.512V19.327c0-2.296-.133-4.237-.4-5.825A22.813 22.813 0 007 8.74h8.042L17 1.5l6.116 7.24a23.577 23.577 0 00-1.325 4.73c-.247 1.588-.37 3.54-.37 5.857v29.185c0 2.317.123 4.27.37 5.857a23.577 23.577 0 001.325 4.73H7L.5 56c.247-1.587 8.194-5.17 8.194-7.488z" fill="url(#paint0_linear)"/><path d="M45.487 48.512c0 2.317.123 4.27.37 5.857a23.577 23.577 0 001.325 4.73H31.59L26 56c.267-1.587 7.284-5.17 7.284-7.488v-31.92L26.906 8.74h8.751L39 1.5l5.408 7.24c.576 1.266 1.325 2.692 2.25 4.28.924 1.587 2.24 3.69 3.944 6.307l11.956 18.438V19.327c0-2.317-.133-4.27-.4-5.857a22.194 22.194 0 00-1.294-4.73h7.795L72.5 1.5l3.957 7.24a23.576 23.576 0 00-1.325 4.73c-.247 1.588-.37 3.54-.37 5.857v24.648c0 2.188.154 4.741.462 7.659.308 2.917.678 5.406 1.11 7.465H62.033S58 56 57.5 56c-.575-1.201 2.173-2.114 1.516-3.144L45.487 32.005v16.507z" fill="url(#paint1_linear)"/><path d="M110.444 21.708c-1.602-1.394-3.03-2.381-4.283-2.96a8.884 8.884 0 00-3.883-.902c-1.273 0-2.321.355-3.143 1.062-.801.708-1.202 1.61-1.202 2.703 0 1.159.288 2.2.863 3.122.575.9 1.603 1.952 3.082 3.153 3.574 2.896 6.173 5.61 7.796 8.141 1.623 2.51 2.434 5.106 2.434 7.787 0 4.741-1.52 8.624-4.56 11.649-3.02 3.025-6.913 4.537-11.68 4.537-2.341 0-4.313-.172-5.916-.515-1.581-.322-3.523-.954-5.823-1.898l-3.13-3.218 3.13-9.59c1.13 1.588 2.598 2.886 4.406 3.894 1.828.987 3.615 1.48 5.362 1.48 1.417 0 2.568-.44 3.45-1.319.905-.9 1.357-2.06 1.357-3.475 0-1.416-.319-2.66-.955-3.733-.617-1.05-1.747-2.241-3.39-3.572-3.472-2.81-5.999-5.406-7.58-7.787-1.582-2.36-2.373-4.74-2.373-7.143 0-4.44 1.458-8.066 4.375-10.876C91.7 9.416 95.448 8 100.03 8c1.684 0 6.019-5.386 7.971-5l2.444 6.995v11.713z" fill="url(#paint2_linear)"/><path d="M120.49 48.512V19.327c0-2.296-.134-4.237-.401-5.825a22.799 22.799 0 00-1.294-4.762h8.043l6.748-7.24 1.325 7.24a23.59 23.59 0 00-1.325 4.73c-.247 1.588-.37 3.54-.37 5.857v29.185c0 2.317.123 4.27.37 5.857a23.59 23.59 0 001.325 4.73h-16.116L117.5 56c.246-1.587 2.99-5.17 2.99-7.488z" fill="url(#paint3_linear)"/><path d="M168.376 60c-7.766 0-14.134-2.274-19.105-6.822-4.951-4.57-7.427-10.436-7.427-17.601 0-8.088 2.558-14.706 7.673-19.854C154.632 10.574 161.196 8 169.208 8c2.814 0 5.084.15 6.81.45 1.746.3 3.831.901 6.255 1.803L183.5 20.5l-1.227 2.785c-1.746-1.652-3.831-2.971-6.255-3.958-2.404-.987-4.766-1.48-7.088-1.48-3.923 0-7.128 1.512-9.614 4.537-2.486 3.024-3.728 6.907-3.728 11.648 0 4.72 1.16 8.592 3.482 11.617 2.342 3.003 5.341 4.505 8.998 4.505a16.499 16.499 0 003.605-.483V43.01c0-2.317-.134-4.27-.401-5.856a22.176 22.176 0 00-1.294-4.73l.522-6.924 7.521 6.923L187 25.5l-.906 6.923a24.283 24.283 0 00-1.325 4.763c-.247 1.587-.37 3.529-.37 5.824v8.785c0 .922 2.354 1.433 2.601 2.205 0 0-.937 3.136-.937 2.879v.257c-5.115 1.866-11.011 2.821-17.687 2.864z" fill="url(#paint4_linear)"/><path d="M193.582 48.512V19.327c0-2.317-.134-4.27-.401-5.857a22.176 22.176 0 00-1.294-4.73L193.582 2l6.348 6.74h8.073a23.59 23.59 0 00-1.325 4.73c-.246 1.588-.37 3.54-.37 5.857V28.4h14.144v-9.074c0-2.317-.133-4.27-.4-5.857a22.234 22.234 0 00-1.294-4.73L222 1.5l4.8 7.24h8.074a23.524 23.524 0 00-1.325 4.73c-.247 1.588-.37 3.54-.37 5.857v29.185c0 2.317 4.574 5.9 4.821 7.488l-3.126 3.099h-16.116a22.234 22.234 0 001.294-4.73c.267-1.588.4-3.54.4-5.857v-10.04h-14.144v10.04c0 2.317 3.445 5.9 3.692 7.488l-1.997 3.099h-16.116a23.59 23.59 0 001.325-4.73c.247-1.588.37-3.54.37-5.857z" fill="url(#paint5_linear)"/><path d="M252.9 48.512v-30.89c-2.609.085-4.817.224-6.625.418-3.184.364-5.783.986-7.796 1.866l1.725-5.567 1.726-5.599L246 1.5l13.248 7.24h20.307L282.02 16l-5.3 3.552c-1.253-.536-3.369-1.008-6.348-1.416a45.412 45.412 0 00-4.745-.45v30.826c0 2.146 6.106 5.9 6.373 7.488l-4.494 3.099H251.02c.699-1.738 1.192-3.4 1.48-4.988.267-1.587.4-3.453.4-5.599z" fill="url(#paint6_linear)"/><path d="M308.336 21.708c-1.603-1.394-3.031-2.381-4.284-2.96a8.883 8.883 0 00-3.882-.902c-1.274 0-2.322.355-3.143 1.062-.802.708-1.202 1.61-1.202 2.703 0 1.159.287 2.2.863 3.122.575.9 1.602 1.952 3.081 3.153 3.575 2.896 6.173 5.61 7.796 8.141 1.623 2.51 2.435 5.106 2.435 7.787 0 4.741-1.521 8.624-4.561 11.649-3.02 3.025-6.913 4.537-11.679 4.537-2.342 0-4.314-.172-5.916-.515-1.582-.322-3.523-.954-5.824-1.898V44.78l5.824-6.726c1.828.987 2.198 12.1 3.944 12.1 1.418 0 2.568-.44 3.451-1.32.904-.9 1.356-2.06 1.356-3.475 0-1.416-.318-2.66-.955-3.733-.616-1.05-1.746-2.241-3.39-3.572-3.471-2.81-5.998-5.406-7.58-7.787-1.582-2.36-2.373-4.74-2.373-7.143 0-4.44 1.459-8.066 4.376-10.876C289.59 9.416 293.339 8 297.92 8c1.685 0 3.503.193 5.454.58 1.973.364 3.626.836 4.962 1.415L315 18.747l-6.664 2.96z" fill="url(#paint7_linear)"/><path d="M4.74 45.512V16.327c0-2.296-.138-4.237-.412-5.825A22.351 22.351 0 003 5.74L16.5 2l3.041 3.74a23.109 23.109 0 00-1.36 4.73c-.253 1.588-.379 3.54-.379 5.857v29.185c0 2.317.127 4.27.38 5.857a23.108 23.108 0 001.36 4.73H3a23.105 23.105 0 001.36-4.73c.253-1.588.38-3.54.38-5.857zM42.504 45.512c0 2.317.126 4.27.38 5.857a23.108 23.108 0 001.36 4.73H28.238a21.739 21.739 0 001.329-4.73c.274-1.588.41-3.54.41-5.857v-31.92L23.433 5.74h17.965c.59 1.266 1.36 2.692 2.309 4.28.948 1.587 2.298 3.69 4.048 6.307l12.272 18.438V16.327c0-2.317-.137-4.27-.412-5.857a21.75 21.75 0 00-1.328-4.73L72.55 2l1.74 3.74a23.109 23.109 0 00-1.36 4.73c-.253 1.588-.38 3.54-.38 5.857v24.648c0 2.188.159 4.741.475 7.659.316 2.917.696 5.406 1.138 7.465H59.488c-.19-.73-.59-1.695-1.202-2.896a31.246 31.246 0 00-1.898-3.347L42.504 29.005v16.507zM109.176 18.708c-1.645-1.394-3.11-2.381-4.396-2.96a9.324 9.324 0 00-3.986-.901c-1.307 0-2.382.354-3.226 1.061-.822.708-1.233 1.61-1.233 2.703 0 1.159.295 2.2.885 3.122.59.9 1.645 1.952 3.163 3.153 3.669 2.896 6.336 5.61 8.002 8.141 1.666 2.51 2.499 5.106 2.499 7.787 0 4.741-1.561 8.624-4.681 11.649-3.1 3.025-7.096 4.537-11.987 4.537-2.404 0-4.428-.172-6.073-.515-1.624-.322-3.616-.954-5.978-1.898V41.78c1.16 1.587 2.668 2.885 4.523 3.893 1.877.987 3.711 1.48 5.504 1.48 1.454 0 2.635-.44 3.542-1.319.928-.9 1.392-2.06 1.392-3.475 0-1.416-.327-2.66-.981-3.733-.632-1.05-1.792-2.241-3.48-3.572-3.563-2.81-6.156-5.406-7.78-7.787-1.623-2.36-2.435-4.74-2.435-7.143 0-4.44 1.497-8.066 4.491-10.876C89.935 6.416 93.783 5 98.485 5c1.73 0 7.512-2.386 9.515-2l1.176 3.995v11.713zM119.487 45.512V16.327c0-2.296-.137-4.237-.412-5.825a22.323 22.323 0 00-1.328-4.762h8.255L133.5 1.5l.789 4.24a23.07 23.07 0 00-1.36 4.73c-.253 1.588-.38 3.54-.38 5.857v29.185c0 2.317.127 4.27.38 5.857a23.07 23.07 0 001.36 4.73h-16.542a23.07 23.07 0 001.36-4.73c.253-1.588.38-3.54.38-5.857zM168.637 57c-7.97 0-14.507-2.274-19.61-6.822-5.081-4.57-7.622-10.436-7.622-17.601 0-8.088 2.625-14.706 7.875-19.854C154.531 7.574 161.267 5 169.491 5c2.889 0 5.218.15 6.99.45 1.792.3 3.932.901 6.42 1.802v13.033c-1.792-1.652-3.932-2.971-6.42-3.958-2.467-.987-4.892-1.48-7.275-1.48-4.027 0-7.317 1.512-9.868 4.537-2.551 3.024-3.827 6.907-3.827 11.648 0 4.72 1.191 8.592 3.574 11.616 2.404 3.004 5.482 4.505 9.236 4.505a17.35 17.35 0 003.7-.482V40.01c0-2.317-.137-4.27-.411-5.856a21.718 21.718 0 00-1.329-4.73h16.542a23.745 23.745 0 00-1.36 4.762c-.253 1.587-.38 3.529-.38 5.824v8.785c0 .922.127 1.77.38 2.542.253.772.696 1.62 1.328 2.542v.257c-5.25 1.866-11.301 2.821-18.154 2.864zM194.509 45.512V16.327c0-2.317-.137-4.27-.411-5.857a21.775 21.775 0 00-1.329-4.73L193.5 2l7.524 3.74h8.287a23.07 23.07 0 00-1.36 4.73c-.253 1.588-.38 3.54-.38 5.857V25.4h14.517v-9.074c0-2.317-.137-4.27-.411-5.857a21.772 21.772 0 00-1.328-4.73L221.677 2l6.927 3.74h8.286a23.197 23.197 0 00-1.36 4.73c-.253 1.588-.379 3.54-.379 5.857v29.185c0 2.317.126 4.27.379 5.857a23.196 23.196 0 001.36 4.73h-16.541a21.771 21.771 0 001.328-4.73c.274-1.588.411-3.54.411-5.857v-10.04h-14.517v10.04c0 2.317.127 4.27.38 5.857a23.07 23.07 0 001.36 4.73h-16.542a23.07 23.07 0 001.36-4.73c.253-1.588.38-3.54.38-5.857zM255.393 45.512v-30.89c-2.678.085-4.945.225-6.8.418-3.268.364-5.936.986-8.002 1.866l1.771-5.567 1.771-5.599H282.751L282.5 11l-.5 5.327-2.158.225c-1.287-.536-3.458-1.008-6.516-1.416a47.819 47.819 0 00-4.871-.45v30.826c0 2.146.137 4.012.412 5.6.295 1.587.801 3.25 1.518 4.987h-16.921c.717-1.738 1.223-3.4 1.518-4.988.274-1.587.411-3.453.411-5.599zM312.292 18.708c-1.645-1.394-3.11-2.381-4.396-2.96a9.32 9.32 0 00-3.985-.901c-1.308 0-2.383.354-3.226 1.061-.823.708-1.234 1.61-1.234 2.703 0 1.159.295 2.2.886 3.122.59.9 1.644 1.952 3.162 3.153 3.669 2.896 6.337 5.61 8.002 8.141 1.666 2.51 2.499 5.106 2.499 7.787 0 4.741-1.56 8.624-4.681 11.649-3.1 3.025-7.095 4.537-11.987 4.537-2.404 0-4.428-.172-6.073-.515-1.623-.322-3.616-.954-5.977-1.898V41.78l2.72-3.78s5.513 9.154 7.306 9.154c1.455 0 2.635-.44 3.542-1.32.928-.9 1.392-2.06 1.392-3.475 0-1.416-.327-2.66-.981-3.733-.632-1.05-1.792-2.241-3.479-3.572-3.563-2.81-6.157-5.406-7.78-7.787-1.624-2.36-2.436-4.74-2.436-7.143 0-4.44 1.497-8.066 4.491-10.876C293.052 6.416 296.9 5 301.602 5c1.729 0 3.595.193 5.598.58 2.024.364 3.722.836 5.092 1.415L315 18.611l-2.708.097z" fill="#B11414"/><path d="M1.846 41.398v-29.23c0-2.299-.14-4.243-.42-5.833a22.088 22.088 0 00-1.353-4.77h16.855a22.84 22.84 0 00-1.386 4.738c-.258 1.59-.387 3.545-.387 5.865v29.23c0 2.32.13 4.275.387 5.865.28 1.59.741 3.169 1.386 4.737H.073a22.839 22.839 0 001.386-4.737c.258-1.59.387-3.545.387-5.865zM40.324 41.398c0 2.32.13 4.275.387 5.865.28 1.59.741 3.169 1.386 4.737H25.79a21.49 21.49 0 001.354-4.737c.279-1.59.419-3.545.419-5.865V9.428l-6.671-7.863h18.304c.602 1.268 1.386 2.697 2.353 4.287.967 1.59 2.342 3.695 4.125 6.316l12.504 18.466V12.168c0-2.32-.14-4.275-.42-5.865a21.489 21.489 0 00-1.353-4.738H72.712a22.84 22.84 0 00-1.386 4.738c-.258 1.59-.386 3.545-.386 5.865v24.685c0 2.192.16 4.749.483 7.67.322 2.922.709 5.414 1.16 7.477H57.63c-.194-.73-.602-1.697-1.225-2.9a31.159 31.159 0 00-1.933-3.352L40.324 24.865v16.533zM108.258 14.553c-1.676-1.397-3.169-2.385-4.48-2.965a9.63 9.63 0 00-4.06-.902c-1.332 0-2.428.354-3.287 1.063-.838.709-1.257 1.611-1.257 2.707 0 1.16.3 2.202.902 3.126.602.902 1.676 1.955 3.223 3.158 3.738 2.9 6.456 5.618 8.153 8.154 1.697 2.513 2.546 5.113 2.546 7.798 0 4.748-1.59 8.637-4.769 11.666-3.159 3.03-7.23 4.544-12.214 4.544-2.45 0-4.512-.172-6.188-.515-1.654-.322-3.684-.956-6.09-1.902V37.66c1.181 1.59 2.717 2.89 4.608 3.9 1.912.988 3.781 1.482 5.607 1.482 1.483 0 2.686-.44 3.61-1.321.945-.903 1.418-2.063 1.418-3.48 0-1.419-.334-2.665-1-3.739-.644-1.053-1.826-2.245-3.544-3.577-3.631-2.815-6.274-5.414-7.928-7.799-1.654-2.363-2.482-4.748-2.482-7.154 0-4.448 1.526-8.078 4.577-10.893C88.653 2.242 92.574.824 97.365.824c1.762 0 3.663.194 5.704.58 2.063.366 3.792.838 5.189 1.418v11.73zM118.764 41.398v-29.23c0-2.299-.14-4.243-.419-5.833a22.074 22.074 0 00-1.354-4.77h16.855a22.792 22.792 0 00-1.386 4.738c-.258 1.59-.387 3.545-.387 5.865v29.23c0 2.32.129 4.275.387 5.865.279 1.59.741 3.169 1.386 4.737h-16.855a22.793 22.793 0 001.386-4.737c.258-1.59.387-3.545.387-5.865zM168.844 52.902c-8.121 0-14.782-2.277-19.981-6.832-5.177-4.576-7.766-10.452-7.766-17.628 0-8.1 2.674-14.727 8.024-19.883 5.35-5.157 12.214-7.735 20.593-7.735 2.943 0 5.317.15 7.122.451 1.826.301 4.007.903 6.542 1.805v13.052c-1.826-1.655-4.007-2.976-6.542-3.964-2.514-.988-4.984-1.482-7.412-1.482-4.104 0-7.455 1.514-10.055 4.543-2.599 3.03-3.899 6.919-3.899 11.666 0 4.727 1.214 8.605 3.641 11.634 2.45 3.008 5.586 4.512 9.41 4.512a17.962 17.962 0 003.771-.483v-6.671c0-2.32-.14-4.276-.419-5.866a21.523 21.523 0 00-1.353-4.737h16.854a23.521 23.521 0 00-1.386 4.77c-.258 1.59-.386 3.534-.386 5.833v8.798c0 .923.128 1.772.386 2.545.258.774.709 1.623 1.354 2.546v.258c-5.35 1.87-11.516 2.825-18.498 2.868zM195.205 41.398v-29.23c0-2.32-.14-4.275-.419-5.865a21.525 21.525 0 00-1.353-4.738h16.854a22.914 22.914 0 00-1.386 4.738c-.257 1.59-.386 3.545-.386 5.865v9.088h14.792v-9.088c0-2.32-.14-4.275-.419-5.865a21.474 21.474 0 00-1.354-4.738h16.855a22.792 22.792 0 00-1.386 4.738c-.258 1.59-.387 3.545-.387 5.865v29.23c0 2.32.129 4.275.387 5.865.279 1.59.741 3.169 1.386 4.737h-16.855a21.475 21.475 0 001.354-4.737c.279-1.59.419-3.545.419-5.865V31.343h-14.792v10.055c0 2.32.129 4.275.386 5.865.28 1.59.742 3.169 1.386 4.737h-16.854a22.85 22.85 0 001.385-4.737c.258-1.59.387-3.545.387-5.865zM257.241 41.398V10.46c-2.728.086-5.038.225-6.929.419-3.33.365-6.047.988-8.153 1.869l1.805-5.575 1.805-5.608h39.348l-1.482 5.414-1.483 5.415c-1.31-.538-3.523-1.01-6.638-1.418a49.539 49.539 0 00-4.963-.452v30.873c0 2.149.139 4.018.419 5.608.301 1.59.816 3.255 1.547 4.995h-17.242c.731-1.74 1.246-3.405 1.547-4.995.28-1.59.419-3.46.419-5.608zM315.217 14.553c-1.676-1.397-3.169-2.385-4.48-2.965a9.629 9.629 0 00-4.06-.902c-1.332 0-2.428.354-3.287 1.063-.838.709-1.257 1.611-1.257 2.707 0 1.16.301 2.202.902 3.126.602.902 1.676 1.955 3.223 3.158 3.738 2.9 6.456 5.618 8.153 8.154 1.697 2.513 2.546 5.113 2.546 7.798 0 4.748-1.59 8.637-4.769 11.666-3.159 3.03-7.23 4.544-12.214 4.544-2.45 0-4.512-.172-6.188-.515-1.654-.322-3.684-.956-6.091-1.902V37.66c1.182 1.59 2.718 2.89 4.609 3.9 1.912.988 3.781 1.482 5.607 1.482 1.483 0 2.686-.44 3.61-1.321.945-.903 1.417-2.063 1.417-3.48 0-1.419-.333-2.665-.999-3.739-.644-1.053-1.826-2.245-3.544-3.577-3.631-2.815-6.274-5.414-7.928-7.799-1.655-2.363-2.482-4.748-2.482-7.154 0-4.448 1.526-8.078 4.577-10.893 3.05-2.836 6.971-4.254 11.762-4.254 1.762 0 3.663.194 5.704.58 2.063.366 3.792.838 5.189 1.418v11.73z" fill="#fff"/><path d="M1.846 45.398v-29.23c0-2.299-.14-4.243-.42-5.833a22.088 22.088 0 00-1.353-4.77h16.855a22.84 22.84 0 00-1.386 4.738c-.258 1.59-.387 3.545-.387 5.865v29.23c0 2.32.13 4.275.387 5.865.28 1.59.741 3.169 1.386 4.737H.073a22.839 22.839 0 001.386-4.737c.258-1.59.387-3.545.387-5.865zM40.324 45.398c0 2.32.13 4.275.387 5.865.28 1.59.741 3.169 1.386 4.737H25.79a21.49 21.49 0 001.354-4.737c.279-1.59.419-3.545.419-5.865v-31.97l-6.671-7.863h18.304c.602 1.268 1.386 2.697 2.353 4.287.967 1.59 2.342 3.695 4.125 6.316l12.504 18.466V16.168c0-2.32-.14-4.275-.42-5.865a21.489 21.489 0 00-1.353-4.738H72.712a22.84 22.84 0 00-1.386 4.738c-.258 1.59-.386 3.545-.386 5.865v24.685c0 2.192.16 4.749.483 7.67.322 2.922.709 5.414 1.16 7.477H57.63c-.194-.73-.602-1.697-1.225-2.9a31.159 31.159 0 00-1.933-3.352L40.324 28.865v16.533zM108.258 18.553c-1.676-1.397-3.169-2.385-4.48-2.965a9.63 9.63 0 00-4.06-.902c-1.332 0-2.428.354-3.287 1.063-.838.709-1.257 1.611-1.257 2.707 0 1.16.3 2.202.902 3.126.602.902 1.676 1.955 3.223 3.158 3.738 2.9 6.456 5.618 8.153 8.154 1.697 2.513 2.546 5.113 2.546 7.798 0 4.748-1.59 8.637-4.769 11.666-3.159 3.03-7.23 4.544-12.214 4.544-2.45 0-4.512-.172-6.188-.515-1.654-.322-3.684-.956-6.09-1.902V41.66c1.181 1.59 2.717 2.89 4.608 3.9 1.912.988 3.781 1.482 5.607 1.482 1.483 0 2.686-.44 3.61-1.321.945-.903 1.418-2.063 1.418-3.48 0-1.419-.334-2.665-1-3.739-.644-1.053-1.826-2.245-3.544-3.577-3.631-2.815-6.274-5.414-7.928-7.799-1.654-2.363-2.482-4.748-2.482-7.154 0-4.448 1.526-8.078 4.577-10.893 3.05-2.836 6.971-4.254 11.762-4.254 1.762 0 3.663.194 5.704.58 2.063.366 3.792.838 5.189 1.418v11.73zM118.764 45.398v-29.23c0-2.299-.14-4.243-.419-5.833a22.073 22.073 0 00-1.354-4.77h16.855a22.792 22.792 0 00-1.386 4.738c-.258 1.59-.387 3.545-.387 5.865v29.23c0 2.32.129 4.275.387 5.865.279 1.59.741 3.169 1.386 4.737h-16.855a22.793 22.793 0 001.386-4.737c.258-1.59.387-3.545.387-5.865zM168.844 56.902c-8.121 0-14.782-2.277-19.981-6.832-5.177-4.576-7.766-10.452-7.766-17.628 0-8.1 2.674-14.727 8.024-19.883 5.35-5.157 12.214-7.735 20.593-7.735 2.943 0 5.317.15 7.122.451 1.826.301 4.007.903 6.542 1.805v13.052c-1.826-1.655-4.007-2.976-6.542-3.964-2.514-.988-4.984-1.482-7.412-1.482-4.104 0-7.455 1.514-10.055 4.544-2.599 3.029-3.899 6.918-3.899 11.665 0 4.727 1.214 8.605 3.641 11.634 2.45 3.008 5.586 4.512 9.41 4.512a17.962 17.962 0 003.771-.483v-6.671c0-2.32-.14-4.276-.419-5.865a21.523 21.523 0 00-1.353-4.738h16.854a23.521 23.521 0 00-1.386 4.77c-.258 1.59-.386 3.534-.386 5.833v8.798c0 .923.128 1.772.386 2.545.258.774.709 1.623 1.354 2.546v.258c-5.35 1.87-11.516 2.825-18.498 2.868zM195.205 45.398v-29.23c0-2.32-.14-4.275-.419-5.865a21.525 21.525 0 00-1.353-4.738h16.854a22.915 22.915 0 00-1.386 4.738c-.257 1.59-.386 3.545-.386 5.865v9.088h14.792v-9.088c0-2.32-.14-4.275-.419-5.865a21.474 21.474 0 00-1.354-4.738h16.855a22.792 22.792 0 00-1.386 4.738c-.258 1.59-.387 3.545-.387 5.865v29.23c0 2.32.129 4.275.387 5.865.279 1.59.741 3.169 1.386 4.737h-16.855a21.475 21.475 0 001.354-4.737c.279-1.59.419-3.545.419-5.865V35.343h-14.792v10.054c0 2.32.129 4.276.386 5.866.28 1.59.742 3.169 1.386 4.737h-16.854a22.85 22.85 0 001.385-4.737c.258-1.59.387-3.545.387-5.865zM257.241 45.398V14.46c-2.728.086-5.038.225-6.929.419-3.33.365-6.047.988-8.153 1.869l1.805-5.575 1.805-5.608h39.348l-1.482 5.414-1.483 5.415c-1.31-.538-3.523-1.01-6.638-1.418a49.539 49.539 0 00-4.963-.452v30.873c0 2.149.139 4.018.419 5.608.301 1.59.816 3.255 1.547 4.995h-17.242c.731-1.74 1.246-3.405 1.547-4.995.28-1.59.419-3.46.419-5.608zM315.217 18.553c-1.676-1.397-3.169-2.385-4.48-2.965a9.629 9.629 0 00-4.06-.902c-1.332 0-2.428.354-3.287 1.063-.838.709-1.257 1.611-1.257 2.707 0 1.16.301 2.202.902 3.126.602.902 1.676 1.955 3.223 3.158 3.738 2.9 6.456 5.618 8.153 8.154 1.697 2.513 2.546 5.113 2.546 7.798 0 4.748-1.59 8.637-4.769 11.666-3.159 3.03-7.23 4.544-12.214 4.544-2.45 0-4.512-.172-6.188-.515-1.654-.322-3.684-.956-6.091-1.902V41.66c1.182 1.59 2.718 2.89 4.609 3.9 1.912.988 3.781 1.482 5.607 1.482 1.483 0 2.686-.44 3.61-1.321.945-.903 1.417-2.063 1.417-3.48 0-1.419-.333-2.665-.999-3.739-.644-1.053-1.826-2.245-3.544-3.577-3.631-2.815-6.274-5.414-7.928-7.799-1.655-2.363-2.482-4.748-2.482-7.154 0-4.448 1.526-8.078 4.577-10.893 3.05-2.836 6.971-4.254 11.762-4.254 1.762 0 3.663.194 5.704.58 2.063.366 3.792.838 5.189 1.418v11.73z" fill="#6E3D21"/><path d="M1.846 43.398v-29.23c0-2.299-.14-4.243-.42-5.833a22.088 22.088 0 00-1.353-4.77h16.855a22.84 22.84 0 00-1.386 4.738c-.258 1.59-.387 3.545-.387 5.865v29.23c0 2.32.13 4.275.387 5.865.28 1.59.741 3.169 1.386 4.737H.073a22.839 22.839 0 001.386-4.737c.258-1.59.387-3.545.387-5.865z" fill="url(#paint8_linear)"/><path d="M40.324 43.398c0 2.32.13 4.275.387 5.865.28 1.59.741 3.169 1.386 4.737H25.79a21.49 21.49 0 001.354-4.737c.279-1.59.419-3.545.419-5.865v-31.97l-6.671-7.863h18.304c.602 1.268 1.386 2.697 2.353 4.287.967 1.59 2.342 3.695 4.125 6.316l12.504 18.466V14.168c0-2.32-.14-4.275-.42-5.865a21.489 21.489 0 00-1.353-4.738H72.712a22.84 22.84 0 00-1.386 4.738c-.258 1.59-.386 3.545-.386 5.865v24.685c0 2.192.16 4.749.483 7.67.322 2.922.709 5.414 1.16 7.477H57.63c-.194-.73-.602-1.697-1.225-2.9a31.159 31.159 0 00-1.933-3.352L40.324 26.865v16.533z" fill="url(#paint9_linear)"/><path d="M108.258 16.553c-1.676-1.397-3.169-2.385-4.48-2.965a9.63 9.63 0 00-4.06-.902c-1.332 0-2.428.354-3.287 1.063-.838.709-1.257 1.611-1.257 2.707 0 1.16.3 2.202.902 3.126.602.902 1.676 1.955 3.223 3.158 3.738 2.9 6.456 5.618 8.153 8.154 1.697 2.513 2.546 5.113 2.546 7.798 0 4.748-1.59 8.637-4.769 11.666-3.159 3.03-7.23 4.544-12.214 4.544-2.45 0-4.512-.172-6.188-.515-1.654-.322-3.684-.956-6.09-1.902V39.66c1.181 1.59 2.717 2.89 4.608 3.9 1.912.988 3.781 1.482 5.607 1.482 1.483 0 2.686-.44 3.61-1.321.945-.903 1.418-2.063 1.418-3.48 0-1.419-.334-2.665-1-3.739-.644-1.053-1.826-2.245-3.544-3.577-3.631-2.815-6.274-5.414-7.928-7.799-1.654-2.363-2.482-4.748-2.482-7.154 0-4.448 1.526-8.078 4.577-10.893 3.05-2.836 6.971-4.254 11.762-4.254 1.762 0 3.663.194 5.704.58 2.063.366 3.792.838 5.189 1.418v11.73z" fill="url(#paint10_linear)"/><path d="M118.764 43.398v-29.23c0-2.299-.14-4.243-.419-5.833a22.074 22.074 0 00-1.354-4.77h16.855a22.792 22.792 0 00-1.386 4.738c-.258 1.59-.387 3.545-.387 5.865v29.23c0 2.32.129 4.275.387 5.865.279 1.59.741 3.169 1.386 4.737h-16.855a22.793 22.793 0 001.386-4.737c.258-1.59.387-3.545.387-5.865z" fill="url(#paint11_linear)"/><path d="M168.844 54.902c-8.121 0-14.782-2.277-19.981-6.832-5.177-4.576-7.766-10.452-7.766-17.628 0-8.1 2.674-14.727 8.024-19.883 5.35-5.157 12.214-7.735 20.593-7.735 2.943 0 5.317.15 7.122.451 1.826.301 4.007.903 6.542 1.805v13.052c-1.826-1.655-4.007-2.976-6.542-3.964-2.514-.988-4.984-1.482-7.412-1.482-4.104 0-7.455 1.514-10.055 4.544-2.599 3.029-3.899 6.918-3.899 11.665 0 4.727 1.214 8.605 3.641 11.634 2.45 3.008 5.586 4.512 9.41 4.512a17.962 17.962 0 003.771-.483v-6.671c0-2.32-.14-4.276-.419-5.865a21.523 21.523 0 00-1.353-4.738h16.854a23.521 23.521 0 00-1.386 4.77c-.258 1.59-.386 3.534-.386 5.833v8.798c0 .923.128 1.772.386 2.545.258.774.709 1.623 1.354 2.546v.258c-5.35 1.87-11.516 2.825-18.498 2.868z" fill="url(#paint12_linear)"/><path d="M195.205 43.398v-29.23c0-2.32-.14-4.275-.419-5.865a21.525 21.525 0 00-1.353-4.738h16.854a22.914 22.914 0 00-1.386 4.738c-.257 1.59-.386 3.545-.386 5.865v9.088h14.792v-9.088c0-2.32-.14-4.275-.419-5.865a21.474 21.474 0 00-1.354-4.738h16.855a22.792 22.792 0 00-1.386 4.738c-.258 1.59-.387 3.545-.387 5.865v29.23c0 2.32.129 4.275.387 5.865.279 1.59.741 3.169 1.386 4.737h-16.855a21.475 21.475 0 001.354-4.737c.279-1.59.419-3.545.419-5.865V33.343h-14.792v10.054c0 2.32.129 4.276.386 5.866.28 1.59.742 3.169 1.386 4.737h-16.854a22.85 22.85 0 001.385-4.737c.258-1.59.387-3.545.387-5.865z" fill="url(#paint13_linear)"/><path d="M257.241 43.398V12.46c-2.728.086-5.038.225-6.929.419-3.33.365-6.047.988-8.153 1.869l1.805-5.575 1.805-5.608h39.348l-1.482 5.414-1.483 5.415c-1.31-.538-3.523-1.01-6.638-1.418a49.539 49.539 0 00-4.963-.452v30.873c0 2.149.139 4.018.419 5.608.301 1.59.816 3.255 1.547 4.995h-17.242c.731-1.74 1.246-3.405 1.547-4.995.28-1.59.419-3.46.419-5.608z" fill="url(#paint14_linear)"/><path d="M315.217 16.553c-1.676-1.397-3.169-2.385-4.48-2.965a9.629 9.629 0 00-4.06-.902c-1.332 0-2.428.354-3.287 1.063-.838.709-1.257 1.611-1.257 2.707 0 1.16.301 2.202.902 3.126.602.902 1.676 1.955 3.223 3.158 3.738 2.9 6.456 5.618 8.153 8.154 1.697 2.513 2.546 5.113 2.546 7.798 0 4.748-1.59 8.637-4.769 11.666-3.159 3.03-7.23 4.544-12.214 4.544-2.45 0-4.512-.172-6.188-.515-1.654-.322-3.684-.956-6.091-1.902V39.66c1.182 1.59 2.718 2.89 4.609 3.9 1.912.988 3.781 1.482 5.607 1.482 1.483 0 2.686-.44 3.61-1.321.945-.903 1.417-2.063 1.417-3.48 0-1.419-.333-2.665-.999-3.739-.644-1.053-1.826-2.245-3.544-3.577-3.631-2.815-6.274-5.414-7.928-7.799-1.655-2.363-2.482-4.748-2.482-7.154 0-4.448 1.526-8.078 4.577-10.893 3.05-2.836 6.971-4.254 11.762-4.254 1.762 0 3.663.194 5.704.58 2.063.366 3.792.838 5.189 1.418v11.73z" fill="url(#paint15_linear)"/><defs><linearGradient id="paint0_linear" x1="157.954" y1="1.1" x2="157.954" y2="59.125" gradientUnits="userSpaceOnUse"><stop stop-color="#6B0A8D"/><stop offset=".903" stop-color="#C91360"/><stop offset="1" stop-color="#830076"/></linearGradient><linearGradient id="paint1_linear" x1="157.954" y1="1.1" x2="157.954" y2="59.125" gradientUnits="userSpaceOnUse"><stop stop-color="#6B0A8D"/><stop offset=".903" stop-color="#C91360"/><stop offset="1" stop-color="#830076"/></linearGradient><linearGradient id="paint2_linear" x1="157.954" y1="1.1" x2="157.954" y2="59.125" gradientUnits="userSpaceOnUse"><stop stop-color="#6B0A8D"/><stop offset=".903" stop-color="#C91360"/><stop offset="1" stop-color="#830076"/></linearGradient><linearGradient id="paint3_linear" x1="157.954" y1="1.1" x2="157.954" y2="59.125" gradientUnits="userSpaceOnUse"><stop stop-color="#6B0A8D"/><stop offset=".903" stop-color="#C91360"/><stop offset="1" stop-color="#830076"/></linearGradient><linearGradient id="paint4_linear" x1="157.954" y1="1.1" x2="157.954" y2="59.125" gradientUnits="userSpaceOnUse"><stop stop-color="#6B0A8D"/><stop offset=".903" stop-color="#C91360"/><stop offset="1" stop-color="#830076"/></linearGradient><linearGradient id="paint5_linear" x1="157.954" y1="1.1" x2="157.954" y2="59.125" gradientUnits="userSpaceOnUse"><stop stop-color="#6B0A8D"/><stop offset=".903" stop-color="#C91360"/><stop offset="1" stop-color="#830076"/></linearGradient><linearGradient id="paint6_linear" x1="157.954" y1="1.1" x2="157.954" y2="59.125" gradientUnits="userSpaceOnUse"><stop stop-color="#6B0A8D"/><stop offset=".903" stop-color="#C91360"/><stop offset="1" stop-color="#830076"/></linearGradient><linearGradient id="paint7_linear" x1="157.954" y1="1.1" x2="157.954" y2="59.125" gradientUnits="userSpaceOnUse"><stop stop-color="#6B0A8D"/><stop offset=".903" stop-color="#C91360"/><stop offset="1" stop-color="#830076"/></linearGradient><linearGradient id="paint8_linear" x1="159.091" y1="3.447" x2="159.091" y2="54" gradientUnits="userSpaceOnUse"><stop stop-color="#F0CD5A"/><stop offset="1" stop-color="#DA7741"/></linearGradient><linearGradient id="paint9_linear" x1="159.091" y1="3.447" x2="159.091" y2="54" gradientUnits="userSpaceOnUse"><stop stop-color="#F0CD5A"/><stop offset="1" stop-color="#DA7741"/></linearGradient><linearGradient id="paint10_linear" x1="159.091" y1="3.447" x2="159.091" y2="54" gradientUnits="userSpaceOnUse"><stop stop-color="#F0CD5A"/><stop offset="1" stop-color="#DA7741"/></linearGradient><linearGradient id="paint11_linear" x1="159.091" y1="3.447" x2="159.091" y2="54" gradientUnits="userSpaceOnUse"><stop stop-color="#F0CD5A"/><stop offset="1" stop-color="#DA7741"/></linearGradient><linearGradient id="paint12_linear" x1="159.091" y1="3.447" x2="159.091" y2="54" gradientUnits="userSpaceOnUse"><stop stop-color="#F0CD5A"/><stop offset="1" stop-color="#DA7741"/></linearGradient><linearGradient id="paint13_linear" x1="159.091" y1="3.447" x2="159.091" y2="54" gradientUnits="userSpaceOnUse"><stop stop-color="#F0CD5A"/><stop offset="1" stop-color="#DA7741"/></linearGradient><linearGradient id="paint14_linear" x1="159.091" y1="3.447" x2="159.091" y2="54" gradientUnits="userSpaceOnUse"><stop stop-color="#F0CD5A"/><stop offset="1" stop-color="#DA7741"/></linearGradient><linearGradient id="paint15_linear" x1="159.091" y1="3.447" x2="159.091" y2="54" gradientUnits="userSpaceOnUse"><stop stop-color="#F0CD5A"/><stop offset="1" stop-color="#DA7741"/></linearGradient></defs></svg>