<svg width="288" height="180" viewBox="0 0 288 180" fill="none" xmlns="http://www.w3.org/2000/svg"><path fill="#000" d="M0 0h288v180H0z"/><path d="M110.647 148.768v-10.672h-1.872v7.392l-5.456-7.392h-1.92v10.672h1.872v-7.632l5.568 7.632h1.808zm8.7.192c3.184 0 5.456-2.336 5.456-5.52 0-3.184-2.272-5.52-5.456-5.52-3.2 0-5.456 2.336-5.456 5.52 0 3.184 2.256 5.52 5.456 5.52zm0-1.664c-2.16 0-3.536-1.664-3.536-3.856 0-2.208 1.376-3.856 3.536-3.856 2.144 0 3.536 1.648 3.536 3.856 0 2.192-1.392 3.856-3.536 3.856zm11.866-1.68v-1.44h-3.84v1.44h3.84zm4.925 3.152v-10.672h-1.872v10.672h1.872zm14.797 0v-10.672h-2.64l-2.896 7.328-2.912-7.328h-2.64v10.672h1.872v-8.24l3.28 8.24h.8l3.264-8.24v8.24h1.872zm13.327 0l-4.192-10.672h-2.336l-4.192 10.672h2.128l.784-2.064h4.896l.784 2.064h2.128zm-3.44-3.712h-3.84l1.92-5.088 1.92 5.088zm10.603 3.92c1.84 0 3.344-.784 4.384-1.952v-3.984h-5.056v1.648h3.2v1.648c-.48.464-1.44.96-2.528.96-2.112 0-3.68-1.632-3.68-3.856 0-2.256 1.568-3.856 3.68-3.856 1.184 0 2.192.624 2.768 1.424l1.52-.88c-.848-1.216-2.208-2.208-4.288-2.208-3.104 0-5.6 2.16-5.6 5.52 0 3.344 2.496 5.536 5.6 5.536zm15.085-.208v-1.648h-5.44v-2.976h5.328v-1.648h-5.328v-2.752h5.44v-1.648h-7.312v10.672h7.312z" fill="#fff"/><path d="M143.831 26l44.83 45.384-44.83 45.384L99 71.384 143.831 26z" fill="#13FF74"/><path d="M143.83 71.384h44.831l-44.831 45.384L99 71.384h44.83z" fill="#00BB75"/><path d="M143.831 26v90.768L99 71.384 143.831 26z" fill="#00C178"/><path d="M122.799 71.384h21.031v45.384L99 71.384h23.799z" fill="#009169"/><path d="M132.761 71.384s3.321-1.107 6.642-4.428c3.321-3.32 4.427-6.642 4.427-6.642s1.246 3.46 4.428 6.642c3.182 3.182 6.642 4.428 6.642 4.428s-3.321.838-6.642 4.427c-3.321 3.59-4.428 6.642-4.428 6.642s-.553-2.214-3.874-6.088-7.195-4.981-7.195-4.981z" fill="#fff"/><path fill-rule="evenodd" clip-rule="evenodd" d="M143.83 42.79l28.594 28.593-28.594 28.593-28.594-28.593 28.594-28.594zm0 8.484l-20.108 20.109L143.83 91.49l20.108-20.108-20.108-20.109z" fill="#000"/></svg>