<svg width="349" height="44" fill="none" xmlns="http://www.w3.org/2000/svg"><mask id="a" maskUnits="userSpaceOnUse" x="41.356" y="0" width="307" height="44" fill="#000"><path fill="#fff" d="M41.356 0h307v44h-307z"/><path d="M57.097 11.078v12.898c0 3.014.436 5.263 1.308 6.747.887 1.468 2.218 2.203 3.993 2.203 1.744 0 3.044-.628 3.901-1.882.872-1.27 1.308-3.19 1.308-5.76V11.078c0-1.652-.099-3.044-.298-4.177a15.301 15.301 0 00-.964-3.373h12.003A16.263 16.263 0 0077.36 6.9c-.184 1.133-.276 2.525-.276 4.177v20.815c0 1.652.092 3.045.276 4.177.199 1.132.528 2.257.987 3.373h-9.8l.207-2.639c-2.433 2.111-5.6 3.167-9.501 3.167-3.917 0-6.839-1.155-8.767-3.465-1.927-2.31-2.884-5.806-2.868-10.488v-14.94c0-1.652-.1-3.044-.299-4.177a15.301 15.301 0 00-.964-3.373H58.36a16.263 16.263 0 00-.987 3.373c-.184 1.133-.275 2.525-.275 4.177zm28.64 20.815V11.078c0-1.652-.1-3.044-.298-4.177a15.301 15.301 0 00-.964-3.373h12.462c4.421 0 7.833.925 10.235 2.777 2.402 1.85 3.603 4.482 3.603 7.894 0 3.259-1.331 5.852-3.993 7.78a12.079 12.079 0 01-3.144 1.652l5.737 8.262c1.163 1.668 2.257 3.068 3.282 4.2a33.987 33.987 0 003.534 3.35h-9.845c-.628 0-1.699-.849-3.213-2.547-1.5-1.698-3.029-3.771-4.59-6.22l-3.328-5.392v6.61c0 1.651.092 3.044.276 4.176a16.27 16.27 0 00.987 3.373H84.475c.46-1.116.788-2.241.987-3.373.183-1.132.275-2.525.275-4.177zm9.478-12.3h.299c1.744 0 3.174-.483 4.291-1.447 1.117-.963 1.675-2.203 1.675-3.717 0-1.347-.527-2.448-1.583-3.305-1.056-.857-2.41-1.285-4.062-1.285h-.62v9.753zm50.282 12.3c0 1.652.092 3.045.275 4.177a16.27 16.27 0 00.987 3.373h-12.048c.459-1.116.78-2.241.964-3.373.199-1.132.298-2.525.298-4.177V8.806l-4.498-5.278h13.632c.031.795.122 1.446.275 1.95.153.49.398.941.735 1.355l8.973 11.336 9.065-11.336c.474-.582.811-1.117 1.01-1.607a4.948 4.948 0 00.367-1.698h10.671c-1.025 2.463-1.744 4.605-2.157 6.426a25.242 25.242 0 00-.62 5.645v16.294c0 1.652.092 3.045.276 4.177.199 1.132.527 2.257.986 3.373h-12.002c.459-1.116.78-2.241.964-3.373.199-1.132.298-2.525.298-4.177V18.674l-9.225 11.796-9.226-12.002v13.425zm36.857 0V11.078c0-1.637-.1-3.022-.299-4.154a15.695 15.695 0 00-.964-3.396h12.003a16.27 16.27 0 00-.987 3.373c-.184 1.133-.275 2.525-.275 4.177v20.815c0 1.652.091 3.045.275 4.177a16.27 16.27 0 00.987 3.373h-12.003a16.27 16.27 0 00.987-3.373c.184-1.132.276-2.525.276-4.177zm35.892-19.117c-1.193-.994-2.257-1.698-3.19-2.111a6.858 6.858 0 00-2.891-.642c-.949 0-1.729.252-2.341.757a2.413 2.413 0 00-.895 1.928c0 .826.214 1.568.642 2.226.429.642 1.194 1.392 2.295 2.249 2.662 2.065 4.598 4 5.806 5.806 1.209 1.79 1.813 3.641 1.813 5.553 0 3.382-1.132 6.15-3.396 8.308-2.249 2.157-5.148 3.236-8.698 3.236-1.744 0-3.213-.122-4.406-.367-1.178-.23-2.624-.681-4.338-1.354V29.23c.842 1.132 1.936 2.058 3.282 2.777 1.362.704 2.693 1.055 3.993 1.055 1.056 0 1.913-.313 2.571-.94.673-.643 1.009-1.47 1.009-2.479 0-1.01-.237-1.897-.711-2.662-.459-.75-1.3-1.599-2.524-2.547-2.586-2.005-4.468-3.856-5.646-5.554-1.178-1.683-1.767-3.381-1.767-5.095 0-3.167 1.086-5.752 3.259-7.757C204.285 4.01 207.077 3 210.489 3c1.255 0 2.609.138 4.062.413 1.469.26 2.701.597 3.695 1.01v8.353zm25.152 0c-1.193-.994-2.256-1.698-3.19-2.111a6.858 6.858 0 00-2.891-.642c-.949 0-1.729.252-2.341.757a2.413 2.413 0 00-.895 1.928c0 .826.214 1.568.643 2.226.428.642 1.193 1.392 2.295 2.249 2.662 2.065 4.597 4 5.806 5.806 1.208 1.79 1.813 3.641 1.813 5.553 0 3.382-1.132 6.15-3.397 8.308-2.249 2.157-5.148 3.236-8.698 3.236-1.744 0-3.212-.122-4.406-.367-1.178-.23-2.624-.681-4.337-1.354V29.23c.841 1.132 1.935 2.058 3.282 2.777 1.361.704 2.692 1.055 3.993 1.055 1.055 0 1.912-.313 2.57-.94.673-.643 1.01-1.47 1.01-2.479 0-1.01-.237-1.897-.712-2.662-.459-.75-1.3-1.599-2.524-2.547-2.586-2.005-4.468-3.856-5.646-5.554-1.178-1.683-1.767-3.381-1.767-5.095 0-3.167 1.087-5.752 3.259-7.757C229.438 4.01 232.23 3 235.642 3c1.254 0 2.608.138 4.062.413 1.468.26 2.7.597 3.694 1.01v8.353zm7.482 19.117V11.078c0-1.637-.1-3.022-.298-4.154a15.752 15.752 0 00-.964-3.396h12.002a16.27 16.27 0 00-.987 3.373c-.183 1.133-.275 2.525-.275 4.177v20.815c0 1.652.092 3.045.275 4.177a16.27 16.27 0 00.987 3.373h-12.002c.459-1.116.788-2.241.986-3.373.184-1.132.276-2.525.276-4.177zm69.857 0c0 1.652.092 3.045.276 4.177a16.27 16.27 0 00.987 3.373h-11.613c.459-1.116.78-2.241.964-3.373.199-1.132.298-2.525.298-4.177V9.127l-4.75-5.6h13.035c.428.904.987 1.92 1.675 3.053.689 1.132 1.668 2.632 2.938 4.498l8.904 13.15v-13.15c0-1.652-.099-3.044-.298-4.177a15.323 15.323 0 00-.964-3.373h11.612a16.27 16.27 0 00-.987 3.373c-.183 1.133-.275 2.525-.275 4.177v17.58c0 1.56.115 3.38.344 5.461.23 2.08.505 3.856.826 5.324h-10.648c-.138-.52-.428-1.208-.872-2.065a22.054 22.054 0 00-1.377-2.387l-10.075-14.87v11.772z"/></mask><path d="M57.097 11.078v12.898c0 3.014.436 5.263 1.308 6.747.887 1.468 2.218 2.203 3.993 2.203 1.744 0 3.044-.628 3.901-1.882.872-1.27 1.308-3.19 1.308-5.76V11.078c0-1.652-.099-3.044-.298-4.177a15.301 15.301 0 00-.964-3.373h12.003A16.263 16.263 0 0077.36 6.9c-.184 1.133-.276 2.525-.276 4.177v20.815c0 1.652.092 3.045.276 4.177.199 1.132.528 2.257.987 3.373h-9.8l.207-2.639c-2.433 2.111-5.6 3.167-9.501 3.167-3.917 0-6.839-1.155-8.767-3.465-1.927-2.31-2.884-5.806-2.868-10.488v-14.94c0-1.652-.1-3.044-.299-4.177a15.301 15.301 0 00-.964-3.373H58.36a16.263 16.263 0 00-.987 3.373c-.184 1.133-.275 2.525-.275 4.177z" fill="url(#paint0_linear)"/><path d="M85.737 31.893V11.078c0-1.652-.1-3.044-.298-4.177a15.301 15.301 0 00-.964-3.373h12.462c4.421 0 7.833.925 10.235 2.777 2.402 1.85 3.603 4.482 3.603 7.894 0 3.259-1.331 5.852-3.993 7.78a12.079 12.079 0 01-3.144 1.652l5.737 8.262c1.163 1.668 2.257 3.068 3.282 4.2a33.987 33.987 0 003.534 3.35h-9.845c-.628 0-1.699-.849-3.213-2.547-1.5-1.698-3.029-3.771-4.59-6.22l-3.328-5.392v6.61c0 1.651.092 3.044.276 4.176a16.27 16.27 0 00.987 3.373H84.475c.46-1.116.788-2.241.987-3.373.183-1.132.275-2.525.275-4.177zm9.478-12.3h.299c1.744 0 3.174-.483 4.291-1.447 1.117-.963 1.675-2.203 1.675-3.717 0-1.347-.527-2.448-1.583-3.305-1.056-.857-2.41-1.285-4.062-1.285h-.62v9.753z" fill="url(#paint1_linear)"/><path d="M145.497 31.893c0 1.652.092 3.045.275 4.177a16.27 16.27 0 00.987 3.373h-12.048c.459-1.116.78-2.241.964-3.373.199-1.132.298-2.525.298-4.177V8.806l-4.498-5.278h13.632c.031.795.122 1.446.275 1.95.153.49.398.941.735 1.355l8.973 11.336 9.065-11.336c.474-.582.811-1.117 1.01-1.607a4.948 4.948 0 00.367-1.698h10.671c-1.025 2.463-1.744 4.605-2.157 6.426a25.242 25.242 0 00-.62 5.645v16.294c0 1.652.092 3.045.276 4.177.199 1.132.527 2.257.986 3.373h-12.002c.459-1.116.78-2.241.964-3.373.199-1.132.298-2.525.298-4.177V18.674l-9.225 11.796-9.226-12.002v13.425z" fill="url(#paint2_linear)"/><path d="M182.354 31.893V11.078c0-1.637-.1-3.022-.299-4.154a15.695 15.695 0 00-.964-3.396h12.003a16.27 16.27 0 00-.987 3.373c-.184 1.133-.275 2.525-.275 4.177v20.815c0 1.652.091 3.045.275 4.177a16.27 16.27 0 00.987 3.373h-12.003a16.27 16.27 0 00.987-3.373c.184-1.132.276-2.525.276-4.177z" fill="url(#paint3_linear)"/><path d="M218.246 12.776c-1.193-.994-2.257-1.698-3.19-2.111a6.858 6.858 0 00-2.891-.642c-.949 0-1.729.252-2.341.757a2.413 2.413 0 00-.895 1.928c0 .826.214 1.568.642 2.226.429.642 1.194 1.392 2.295 2.249 2.662 2.065 4.598 4 5.806 5.806 1.209 1.79 1.813 3.641 1.813 5.553 0 3.382-1.132 6.15-3.396 8.308-2.249 2.157-5.148 3.236-8.698 3.236-1.744 0-3.213-.122-4.406-.367-1.178-.23-2.624-.681-4.338-1.354V29.23c.842 1.132 1.936 2.058 3.282 2.777 1.362.704 2.693 1.055 3.993 1.055 1.056 0 1.913-.313 2.571-.94.673-.643 1.009-1.47 1.009-2.479 0-1.01-.237-1.897-.711-2.662-.459-.75-1.3-1.599-2.524-2.547-2.586-2.005-4.468-3.856-5.646-5.554-1.178-1.683-1.767-3.381-1.767-5.095 0-3.167 1.086-5.752 3.259-7.757C204.285 4.01 207.077 3 210.489 3c1.255 0 2.609.138 4.062.413 1.469.26 2.701.597 3.695 1.01v8.353z" fill="url(#paint4_linear)"/><path d="M243.398 12.776c-1.193-.994-2.256-1.698-3.19-2.111a6.858 6.858 0 00-2.891-.642c-.949 0-1.729.252-2.341.757a2.413 2.413 0 00-.895 1.928c0 .826.214 1.568.643 2.226.428.642 1.193 1.392 2.295 2.249 2.662 2.065 4.597 4 5.806 5.806 1.208 1.79 1.813 3.641 1.813 5.553 0 3.382-1.132 6.15-3.397 8.308-2.249 2.157-5.148 3.236-8.698 3.236-1.744 0-3.212-.122-4.406-.367-1.178-.23-2.624-.681-4.337-1.354V29.23c.841 1.132 1.935 2.058 3.282 2.777 1.361.704 2.692 1.055 3.993 1.055 1.055 0 1.912-.313 2.57-.94.673-.643 1.01-1.47 1.01-2.479 0-1.01-.237-1.897-.712-2.662-.459-.75-1.3-1.599-2.524-2.547-2.586-2.005-4.468-3.856-5.646-5.554-1.178-1.683-1.767-3.381-1.767-5.095 0-3.167 1.087-5.752 3.259-7.757C229.438 4.01 232.23 3 235.642 3c1.254 0 2.608.138 4.062.413 1.468.26 2.7.597 3.694 1.01v8.353z" fill="url(#paint5_linear)"/><path d="M250.88 31.893V11.078c0-1.637-.1-3.022-.298-4.154a15.752 15.752 0 00-.964-3.396h12.002a16.27 16.27 0 00-.987 3.373c-.183 1.133-.275 2.525-.275 4.177v20.815c0 1.652.092 3.045.275 4.177a16.27 16.27 0 00.987 3.373h-12.002c.459-1.116.788-2.241.986-3.373.184-1.132.276-2.525.276-4.177z" fill="url(#paint6_linear)"/><path d="M320.737 31.893c0 1.652.092 3.045.276 4.177a16.27 16.27 0 00.987 3.373h-11.613c.459-1.116.78-2.241.964-3.373.199-1.132.298-2.525.298-4.177V9.127l-4.75-5.6h13.035c.428.904.987 1.92 1.675 3.053.689 1.132 1.668 2.632 2.938 4.498l8.904 13.15v-13.15c0-1.652-.099-3.044-.298-4.177a15.323 15.323 0 00-.964-3.373h11.612a16.27 16.27 0 00-.987 3.373c-.183 1.133-.275 2.525-.275 4.177v17.58c0 1.56.115 3.38.344 5.461.23 2.08.505 3.856.826 5.324h-10.648c-.138-.52-.428-1.208-.872-2.065a22.054 22.054 0 00-1.377-2.387l-10.075-14.87v11.772z" fill="url(#paint7_linear)"/><path d="M57.097 11.078v12.898c0 3.014.436 5.263 1.308 6.747.887 1.468 2.218 2.203 3.993 2.203 1.744 0 3.044-.628 3.901-1.882.872-1.27 1.308-3.19 1.308-5.76V11.078c0-1.652-.099-3.044-.298-4.177a15.301 15.301 0 00-.964-3.373h12.003A16.263 16.263 0 0077.36 6.9c-.184 1.133-.276 2.525-.276 4.177v20.815c0 1.652.092 3.045.276 4.177.199 1.132.528 2.257.987 3.373h-9.8l.207-2.639c-2.433 2.111-5.6 3.167-9.501 3.167-3.917 0-6.839-1.155-8.767-3.465-1.927-2.31-2.884-5.806-2.868-10.488v-14.94c0-1.652-.1-3.044-.299-4.177a15.301 15.301 0 00-.964-3.373H58.36a16.263 16.263 0 00-.987 3.373c-.184 1.133-.275 2.525-.275 4.177zm28.64 20.815V11.078c0-1.652-.1-3.044-.298-4.177a15.301 15.301 0 00-.964-3.373h12.462c4.421 0 7.833.925 10.235 2.777 2.402 1.85 3.603 4.482 3.603 7.894 0 3.259-1.331 5.852-3.993 7.78a12.079 12.079 0 01-3.144 1.652l5.737 8.262c1.163 1.668 2.257 3.068 3.282 4.2a33.987 33.987 0 003.534 3.35h-9.845c-.628 0-1.699-.849-3.213-2.547-1.5-1.698-3.029-3.771-4.59-6.22l-3.328-5.392v6.61c0 1.651.092 3.044.276 4.176a16.27 16.27 0 00.987 3.373H84.475c.46-1.116.788-2.241.987-3.373.183-1.132.275-2.525.275-4.177zm9.478-12.3h.299c1.744 0 3.174-.483 4.291-1.447 1.117-.963 1.675-2.203 1.675-3.717 0-1.347-.527-2.448-1.583-3.305-1.056-.857-2.41-1.285-4.062-1.285h-.62v9.753zm50.282 12.3c0 1.652.092 3.045.275 4.177a16.27 16.27 0 00.987 3.373h-12.048c.459-1.116.78-2.241.964-3.373.199-1.132.298-2.525.298-4.177V8.806l-4.498-5.278h13.632c.031.795.122 1.446.275 1.95.153.49.398.941.735 1.355l8.973 11.336 9.065-11.336c.474-.582.811-1.117 1.01-1.607a4.948 4.948 0 00.367-1.698h10.671c-1.025 2.463-1.744 4.605-2.157 6.426a25.242 25.242 0 00-.62 5.645v16.294c0 1.652.092 3.045.276 4.177.199 1.132.527 2.257.986 3.373h-12.002c.459-1.116.78-2.241.964-3.373.199-1.132.298-2.525.298-4.177V18.674l-9.225 11.796-9.226-12.002v13.425zm36.857 0V11.078c0-1.637-.1-3.022-.299-4.154a15.695 15.695 0 00-.964-3.396h12.003a16.27 16.27 0 00-.987 3.373c-.184 1.133-.275 2.525-.275 4.177v20.815c0 1.652.091 3.045.275 4.177a16.27 16.27 0 00.987 3.373h-12.003a16.27 16.27 0 00.987-3.373c.184-1.132.276-2.525.276-4.177zm35.892-19.117c-1.193-.994-2.257-1.698-3.19-2.111a6.858 6.858 0 00-2.891-.642c-.949 0-1.729.252-2.341.757a2.413 2.413 0 00-.895 1.928c0 .826.214 1.568.642 2.226.429.642 1.194 1.392 2.295 2.249 2.662 2.065 4.598 4 5.806 5.806 1.209 1.79 1.813 3.641 1.813 5.553 0 3.382-1.132 6.15-3.396 8.308-2.249 2.157-5.148 3.236-8.698 3.236-1.744 0-3.213-.122-4.406-.367-1.178-.23-2.624-.681-4.338-1.354V29.23c.842 1.132 1.936 2.058 3.282 2.777 1.362.704 2.693 1.055 3.993 1.055 1.056 0 1.913-.313 2.571-.94.673-.643 1.009-1.47 1.009-2.479 0-1.01-.237-1.897-.711-2.662-.459-.75-1.3-1.599-2.524-2.547-2.586-2.005-4.468-3.856-5.646-5.554-1.178-1.683-1.767-3.381-1.767-5.095 0-3.167 1.086-5.752 3.259-7.757C204.285 4.01 207.077 3 210.489 3c1.255 0 2.609.138 4.062.413 1.469.26 2.701.597 3.695 1.01v8.353zm25.152 0c-1.193-.994-2.256-1.698-3.19-2.111a6.858 6.858 0 00-2.891-.642c-.949 0-1.729.252-2.341.757a2.413 2.413 0 00-.895 1.928c0 .826.214 1.568.643 2.226.428.642 1.193 1.392 2.295 2.249 2.662 2.065 4.597 4 5.806 5.806 1.208 1.79 1.813 3.641 1.813 5.553 0 3.382-1.132 6.15-3.397 8.308-2.249 2.157-5.148 3.236-8.698 3.236-1.744 0-3.212-.122-4.406-.367-1.178-.23-2.624-.681-4.337-1.354V29.23c.841 1.132 1.935 2.058 3.282 2.777 1.361.704 2.692 1.055 3.993 1.055 1.055 0 1.912-.313 2.57-.94.673-.643 1.01-1.47 1.01-2.479 0-1.01-.237-1.897-.712-2.662-.459-.75-1.3-1.599-2.524-2.547-2.586-2.005-4.468-3.856-5.646-5.554-1.178-1.683-1.767-3.381-1.767-5.095 0-3.167 1.087-5.752 3.259-7.757C229.438 4.01 232.23 3 235.642 3c1.254 0 2.608.138 4.062.413 1.468.26 2.7.597 3.694 1.01v8.353zm7.482 19.117V11.078c0-1.637-.1-3.022-.298-4.154a15.752 15.752 0 00-.964-3.396h12.002a16.27 16.27 0 00-.987 3.373c-.183 1.133-.275 2.525-.275 4.177v20.815c0 1.652.092 3.045.275 4.177a16.27 16.27 0 00.987 3.373h-12.002c.459-1.116.788-2.241.986-3.373.184-1.132.276-2.525.276-4.177zm69.857 0c0 1.652.092 3.045.276 4.177a16.27 16.27 0 00.987 3.373h-11.613c.459-1.116.78-2.241.964-3.373.199-1.132.298-2.525.298-4.177V9.127l-4.75-5.6h13.035c.428.904.987 1.92 1.675 3.053.689 1.132 1.668 2.632 2.938 4.498l8.904 13.15v-13.15c0-1.652-.099-3.044-.298-4.177a15.323 15.323 0 00-.964-3.373h11.612a16.27 16.27 0 00-.987 3.373c-.183 1.133-.275 2.525-.275 4.177v17.58c0 1.56.115 3.38.344 5.461.23 2.08.505 3.856.826 5.324h-10.648c-.138-.52-.428-1.208-.872-2.065a22.054 22.054 0 00-1.377-2.387l-10.075-14.87v11.772z" stroke="#A51414" stroke-width="6" mask="url(#a)"/><path d="M22.3 40.086c-5.66 0-10.296-1.729-13.907-5.187C4.798 31.442 3 26.997 3 21.566c0-5.447 1.798-9.899 5.393-13.357C12.003 4.736 16.64 3 22.3 3c5.676 0 10.312 1.736 13.908 5.21 3.595 3.457 5.393 7.91 5.393 13.356 0 5.431-1.798 9.876-5.393 13.333-3.596 3.458-8.232 5.187-13.908 5.187zm5.37-7.023c1.087-1.01 1.974-2.547 2.662-4.612a20.257 20.257 0 001.033-6.449c0-3.84-1.346-6.877-4.039-9.11-2.692-2.25-6.158-3.206-10.396-2.87-1.086 1.01-1.973 2.556-2.662 4.636a20.329 20.329 0 00-1.033 6.472c0 3.825 1.347 6.854 4.04 9.088 2.707 2.234 6.173 3.182 10.395 2.845z" fill="#A81414"/><path fill-rule="evenodd" clip-rule="evenodd" d="M7.701 35.622L7.7 35.62C3.89 31.956 2 27.242 2 21.566c0-5.691 1.89-10.413 5.7-14.077C11.52 3.813 16.417 2 22.3 2c5.897 0 10.794 1.812 14.602 5.49 3.81 3.664 5.699 8.386 5.699 14.076 0 5.676-1.89 10.39-5.7 14.054-3.808 3.662-8.705 5.466-14.6 5.466-5.882 0-10.778-1.804-14.6-5.464zM36.208 8.209C32.612 4.736 27.976 3 22.3 3 16.64 3 12.004 4.736 8.393 8.21 4.798 11.666 3 16.12 3 21.565c0 5.431 1.798 9.876 5.393 13.333 3.61 3.458 8.247 5.187 13.907 5.187 5.676 0 10.312-1.729 13.908-5.187 3.595-3.457 5.393-7.902 5.393-13.333 0-5.447-1.798-9.899-5.393-13.357zm-9.52 5.452l-.003-.002c-2.377-1.986-5.45-2.905-9.315-2.665-.82.862-1.552 2.163-2.153 3.978v.002a19.33 19.33 0 00-.982 6.156c0 3.558 1.237 6.293 3.677 8.317 2.393 1.974 5.468 2.885 9.32 2.645.82-.862 1.552-2.157 2.152-3.957.653-1.961.981-4.004.981-6.133 0-3.576-1.238-6.318-3.677-8.341zm.982 19.402c1.087-1.01 1.974-2.547 2.662-4.612a20.257 20.257 0 001.033-6.449c0-3.84-1.346-6.877-4.039-9.11-2.692-2.25-6.158-3.206-10.396-2.87-1.086 1.01-1.973 2.556-2.662 4.636a20.329 20.329 0 00-1.033 6.472c0 3.825 1.347 6.854 4.04 9.088 2.707 2.234 6.173 3.182 10.395 2.845z" fill="#A81414"/><path fill-rule="evenodd" clip-rule="evenodd" d="M7.701 35.622L7.7 35.62C3.89 31.956 2 27.242 2 21.566c0-5.691 1.89-10.413 5.7-14.077C11.52 3.813 16.417 2 22.3 2c5.897 0 10.794 1.812 14.602 5.49 3.81 3.664 5.699 8.386 5.699 14.076 0 5.676-1.89 10.39-5.7 14.054-3.808 3.662-8.705 5.466-14.6 5.466-5.882 0-10.778-1.804-14.6-5.464zM37.596 6.77C33.576 2.888 28.418 1 22.3 1 16.195 1 11.04 2.89 7.007 6.768 2.98 10.64 1 15.631 1 21.566 1 27.488 2.982 32.47 7.007 36.34l.002.002c4.034 3.863 9.189 5.743 15.291 5.743 6.116 0 11.274-1.879 15.294-5.745 4.024-3.87 6.007-8.854 6.007-14.775 0-5.934-1.98-10.924-6.005-14.796zm-10.908 6.89l-.003-.001c-2.377-1.986-5.45-2.905-9.315-2.665-.82.862-1.552 2.163-2.153 3.978v.002a19.33 19.33 0 00-.982 6.156c0 3.558 1.237 6.293 3.677 8.317 2.393 1.974 5.468 2.885 9.32 2.645.82-.862 1.552-2.157 2.152-3.957.653-1.961.981-4.004.981-6.133 0-3.576-1.238-6.318-3.677-8.341zm.073 17.455c-3.451.14-6.132-.724-8.212-2.438-2.187-1.816-3.314-4.256-3.314-7.547 0-2.041.312-3.985.93-5.84l.002-.003c.502-1.517 1.078-2.59 1.673-3.316 3.465-.14 6.14.732 8.204 2.455l.005.004c2.187 1.814 3.316 4.261 3.316 7.572 0 2.024-.311 3.96-.93 5.816-.501 1.504-1.078 2.571-1.674 3.297z" fill="#A81414"/><path fill-rule="evenodd" clip-rule="evenodd" d="M7.01 36.343l-.003-.002C2.982 32.471 1 27.487 1 21.566 1 15.63 2.981 10.64 7.007 6.768 11.039 2.889 16.195 1 22.3 1c6.118 0 11.277 1.888 15.296 5.77 4.024 3.872 6.005 8.862 6.005 14.796 0 5.922-1.983 10.905-6.007 14.775-4.02 3.866-9.178 5.745-15.294 5.745-6.102 0-11.258-1.88-15.29-5.742zM38.29 6.05C34.058 1.963 28.639 0 22.3 0 15.973 0 10.557 1.965 6.313 6.047 2.073 10.126 0 15.387 0 21.566c0 6.167 2.074 11.419 6.314 15.496l.004.004c4.244 4.064 9.66 6.02 15.982 6.02 6.336 0 11.754-1.954 15.987-6.024 4.24-4.077 6.314-9.33 6.314-15.496 0-6.178-2.072-11.438-6.311-15.516zm-12.246 8.376c-2.063-1.723-4.74-2.594-8.204-2.455-.595.726-1.171 1.799-1.673 3.316l-.002.004a18.331 18.331 0 00-.93 5.839c0 3.291 1.127 5.731 3.314 7.547 2.08 1.714 4.76 2.578 8.212 2.438.596-.726 1.173-1.793 1.674-3.297a18.25 18.25 0 00.93-5.816c0-3.31-1.13-5.758-3.316-7.572l-.005-.004zm.209 15.702c.415-.6.841-1.45 1.233-2.626a17.26 17.26 0 00.88-5.5c0-3.046-1.022-5.198-2.955-6.802l-.008-.006c-1.75-1.463-4.026-2.274-7.053-2.236-.415.601-.841 1.456-1.234 2.642l-.002.007a17.332 17.332 0 00-.879 5.523c0 3.024 1.017 5.17 2.952 6.776 1.767 1.457 4.05 2.261 7.066 2.223z" fill="#A81414"/><path d="M286.3 40.086c-5.661 0-10.296-1.729-13.907-5.187-3.595-3.457-5.393-7.902-5.393-13.333 0-5.447 1.798-9.899 5.393-13.357C276.004 4.736 280.639 3 286.3 3c5.676 0 10.312 1.736 13.908 5.21 3.595 3.457 5.393 7.91 5.393 13.356 0 5.431-1.798 9.876-5.393 13.333-3.596 3.458-8.232 5.187-13.908 5.187zm5.37-7.023c1.087-1.01 1.974-2.547 2.663-4.612a20.27 20.27 0 001.032-6.449c0-3.84-1.346-6.877-4.039-9.11-2.693-2.25-6.158-3.206-10.396-2.87-1.086 1.01-1.973 2.556-2.662 4.636a20.343 20.343 0 00-1.033 6.472c0 3.825 1.347 6.854 4.039 9.088 2.708 2.234 6.174 3.182 10.396 2.845z" fill="#A81414"/><path fill-rule="evenodd" clip-rule="evenodd" d="M271.701 35.622l-.001-.002c-3.81-3.664-5.7-8.378-5.7-14.054 0-5.691 1.889-10.413 5.7-14.077C275.522 3.813 280.417 2 286.3 2c5.897 0 10.795 1.812 14.602 5.49 3.81 3.664 5.699 8.386 5.699 14.076 0 5.676-1.89 10.39-5.7 14.054-3.808 3.662-8.705 5.466-14.601 5.466-5.881 0-10.777-1.804-14.599-5.464zm28.507-27.413C296.612 4.736 291.976 3 286.3 3c-5.661 0-10.296 1.736-13.907 5.21-3.595 3.457-5.393 7.91-5.393 13.356 0 5.431 1.798 9.876 5.393 13.333 3.611 3.458 8.246 5.187 13.907 5.187 5.676 0 10.312-1.729 13.908-5.187 3.595-3.457 5.393-7.902 5.393-13.333 0-5.447-1.798-9.899-5.393-13.357zm-9.52 5.452l-.003-.002c-2.377-1.986-5.449-2.905-9.315-2.665-.82.862-1.552 2.163-2.153 3.978v.002a19.313 19.313 0 00-.982 6.156c0 3.558 1.237 6.293 3.677 8.317 2.393 1.974 5.468 2.885 9.319 2.645.821-.862 1.553-2.157 2.153-3.957.653-1.961.981-4.004.981-6.133 0-3.576-1.238-6.318-3.677-8.341zm.982 19.402c1.087-1.01 1.974-2.547 2.663-4.612a20.27 20.27 0 001.032-6.449c0-3.84-1.346-6.877-4.039-9.11-2.693-2.25-6.158-3.206-10.396-2.87-1.086 1.01-1.973 2.556-2.662 4.636a20.343 20.343 0 00-1.033 6.472c0 3.825 1.347 6.854 4.039 9.088 2.708 2.234 6.174 3.182 10.396 2.845z" fill="#A81414"/><path fill-rule="evenodd" clip-rule="evenodd" d="M271.701 35.622l-.001-.002c-3.81-3.664-5.7-8.378-5.7-14.054 0-5.691 1.889-10.413 5.7-14.077C275.522 3.813 280.417 2 286.3 2c5.897 0 10.795 1.812 14.602 5.49 3.81 3.664 5.699 8.386 5.699 14.076 0 5.676-1.89 10.39-5.7 14.054-3.808 3.662-8.705 5.466-14.601 5.466-5.881 0-10.777-1.804-14.599-5.464zM301.596 6.77C297.577 2.888 292.418 1 286.3 1c-6.105 0-11.261 1.89-15.293 5.768C266.981 10.64 265 15.631 265 21.566c0 5.922 1.982 10.905 6.007 14.775l.002.002c4.034 3.863 9.189 5.743 15.291 5.743 6.116 0 11.274-1.879 15.294-5.745 4.024-3.87 6.007-8.854 6.007-14.775 0-5.934-1.981-10.924-6.005-14.796zm-10.908 6.89l-.003-.001c-2.377-1.986-5.449-2.905-9.315-2.665-.82.862-1.552 2.163-2.153 3.978v.002a19.313 19.313 0 00-.982 6.156c0 3.558 1.237 6.293 3.677 8.317 2.393 1.974 5.468 2.885 9.319 2.645.821-.862 1.553-2.157 2.153-3.957.653-1.961.981-4.004.981-6.133 0-3.576-1.238-6.318-3.677-8.341zm.073 17.455c-3.451.14-6.132-.724-8.212-2.438-2.187-1.816-3.314-4.256-3.314-7.547 0-2.041.312-3.985.93-5.84l.002-.003c.502-1.517 1.078-2.59 1.673-3.316 3.465-.14 6.141.732 8.204 2.455l.005.004c2.187 1.814 3.316 4.261 3.316 7.572 0 2.024-.311 3.96-.93 5.816-.501 1.504-1.078 2.571-1.674 3.297z" fill="#A81414"/><path fill-rule="evenodd" clip-rule="evenodd" d="M271.009 36.343l-.002-.002c-4.025-3.87-6.007-8.854-6.007-14.775 0-5.935 1.981-10.926 6.007-14.798C275.039 2.889 280.195 1 286.3 1c6.118 0 11.277 1.888 15.296 5.77 4.024 3.872 6.005 8.862 6.005 14.796 0 5.922-1.983 10.905-6.007 14.775-4.02 3.866-9.178 5.745-15.294 5.745-6.102 0-11.257-1.88-15.291-5.742zM302.29 6.05C298.058 1.963 292.639 0 286.3 0c-6.326 0-11.743 1.965-15.987 6.047-4.241 4.079-6.313 9.34-6.313 15.519 0 6.167 2.074 11.419 6.314 15.496l.004.004c4.244 4.064 9.659 6.02 15.982 6.02 6.336 0 11.754-1.954 15.987-6.024 4.239-4.077 6.314-9.33 6.314-15.496 0-6.178-2.072-11.438-6.311-15.516zm-12.246 8.376c-2.063-1.723-4.739-2.594-8.204-2.455-.595.726-1.171 1.799-1.673 3.316l-.002.004a18.337 18.337 0 00-.93 5.839c0 3.291 1.127 5.731 3.314 7.547 2.08 1.714 4.761 2.578 8.212 2.438.596-.726 1.173-1.793 1.674-3.297a18.25 18.25 0 00.93-5.816c0-3.31-1.129-5.758-3.316-7.572l-.005-.004zm.209 15.702c.415-.6.841-1.45 1.233-2.626.584-1.752.879-3.58.879-5.5 0-3.046-1.021-5.198-2.954-6.802l-.008-.006c-1.751-1.463-4.026-2.274-7.054-2.236-.414.601-.84 1.456-1.233 2.642l-.002.007a17.335 17.335 0 00-.879 5.523c0 3.024 1.017 5.17 2.952 6.776 1.768 1.457 4.05 2.261 7.066 2.223z" fill="#A81414"/><path d="M22.26 40.086c-5.661 0-10.297-1.729-13.907-5.187-3.596-3.457-5.394-7.902-5.394-13.333 0-5.447 1.798-9.899 5.394-13.357C11.963 4.736 16.599 3 22.26 3c5.676 0 10.312 1.736 13.907 5.21 3.595 3.457 5.393 7.91 5.393 13.356 0 5.431-1.798 9.876-5.393 13.333-3.595 3.458-8.231 5.187-13.907 5.187zm5.37-7.023c1.086-1.01 1.974-2.547 2.662-4.612a20.257 20.257 0 001.033-6.449c0-3.84-1.347-6.877-4.04-9.11-2.692-2.25-6.157-3.206-10.395-2.87-1.087 1.01-1.974 2.556-2.663 4.636a20.332 20.332 0 00-1.032 6.472c0 3.825 1.346 6.854 4.039 9.088 2.708 2.234 6.173 3.182 10.396 2.845z" fill="url(#paint8_linear)"/><path d="M57.097 11.078v12.898c0 3.014.436 5.263 1.308 6.747.887 1.468 2.218 2.203 3.993 2.203 1.744 0 3.044-.628 3.901-1.882.872-1.27 1.308-3.19 1.308-5.76V11.078c0-1.652-.099-3.044-.298-4.177a15.301 15.301 0 00-.964-3.373h12.003A16.263 16.263 0 0077.36 6.9c-.184 1.133-.276 2.525-.276 4.177v20.815c0 1.652.092 3.045.276 4.177.199 1.132.528 2.257.987 3.373h-9.8l.207-2.639c-2.433 2.111-5.6 3.167-9.501 3.167-3.917 0-6.839-1.155-8.767-3.465-1.927-2.31-2.884-5.806-2.868-10.488v-14.94c0-1.652-.1-3.044-.299-4.177a15.301 15.301 0 00-.964-3.373H58.36a16.263 16.263 0 00-.987 3.373c-.184 1.133-.275 2.525-.275 4.177z" fill="url(#paint9_linear)"/><path d="M85.737 31.893V11.078c0-1.652-.1-3.044-.298-4.177a15.301 15.301 0 00-.964-3.373h12.461c4.422 0 7.834.925 10.236 2.777 2.402 1.85 3.603 4.482 3.603 7.894 0 3.259-1.331 5.852-3.993 7.78a12.079 12.079 0 01-3.144 1.652l5.737 8.262c1.163 1.668 2.257 3.068 3.282 4.2a33.987 33.987 0 003.534 3.35h-9.845c-.628 0-1.699-.849-3.213-2.547-1.5-1.698-3.029-3.771-4.59-6.22l-3.328-5.392v6.61c0 1.651.092 3.044.276 4.176a16.27 16.27 0 00.987 3.373H84.475c.46-1.116.788-2.241.987-3.373.183-1.132.275-2.525.275-4.177zm9.478-12.3h.299c1.744 0 3.174-.483 4.291-1.447 1.117-.963 1.675-2.203 1.675-3.717 0-1.347-.527-2.448-1.583-3.305-1.056-.857-2.41-1.285-4.062-1.285h-.62v9.753z" fill="url(#paint10_linear)"/><path d="M145.497 31.893c0 1.652.092 3.045.275 4.177a16.27 16.27 0 00.987 3.373h-12.048c.459-1.116.78-2.241.964-3.373.199-1.132.298-2.525.298-4.177V8.806l-4.498-5.278h13.632c.031.795.122 1.446.275 1.95.153.49.398.941.735 1.355l8.973 11.336 9.065-11.336c.474-.582.811-1.117 1.01-1.607a4.948 4.948 0 00.367-1.698h10.671c-1.025 2.463-1.744 4.605-2.157 6.426a25.242 25.242 0 00-.62 5.645v16.294c0 1.652.092 3.045.276 4.177.199 1.132.527 2.257.986 3.373h-12.002c.459-1.116.78-2.241.964-3.373.199-1.132.298-2.525.298-4.177V18.674l-9.225 11.796-9.226-12.002v13.425z" fill="url(#paint11_linear)"/><path d="M182.354 31.893V11.078c0-1.637-.1-3.022-.299-4.154a15.695 15.695 0 00-.964-3.396h12.003a16.27 16.27 0 00-.987 3.373c-.184 1.133-.275 2.525-.275 4.177v20.815c0 1.652.091 3.045.275 4.177a16.27 16.27 0 00.987 3.373h-12.003a16.27 16.27 0 00.987-3.373c.184-1.132.276-2.525.276-4.177z" fill="url(#paint12_linear)"/><path d="M218.246 12.776c-1.193-.994-2.257-1.698-3.19-2.111a6.858 6.858 0 00-2.891-.642c-.949 0-1.729.252-2.341.757a2.413 2.413 0 00-.895 1.928c0 .826.214 1.568.642 2.226.429.642 1.194 1.392 2.295 2.249 2.662 2.065 4.598 4 5.806 5.806 1.209 1.79 1.813 3.641 1.813 5.553 0 3.382-1.132 6.15-3.396 8.308-2.249 2.157-5.148 3.236-8.698 3.236-1.744 0-3.213-.122-4.406-.367-1.178-.23-2.624-.681-4.338-1.354V29.23c.842 1.132 1.936 2.058 3.282 2.777 1.362.704 2.693 1.055 3.993 1.055 1.056 0 1.913-.313 2.571-.94.673-.643 1.009-1.47 1.009-2.479 0-1.01-.237-1.897-.711-2.662-.459-.75-1.3-1.599-2.524-2.547-2.586-2.005-4.468-3.856-5.646-5.554-1.178-1.683-1.767-3.381-1.767-5.095 0-3.167 1.086-5.752 3.259-7.757C204.285 4.01 207.077 3 210.489 3c1.255 0 2.609.138 4.062.413 1.469.26 2.701.597 3.695 1.01v8.353z" fill="url(#paint13_linear)"/><path d="M243.398 12.776c-1.193-.994-2.256-1.698-3.19-2.111a6.858 6.858 0 00-2.891-.642c-.949 0-1.729.252-2.341.757a2.413 2.413 0 00-.895 1.928c0 .826.214 1.568.643 2.226.428.642 1.193 1.392 2.295 2.249 2.662 2.065 4.597 4 5.806 5.806 1.208 1.79 1.813 3.641 1.813 5.553 0 3.382-1.132 6.15-3.397 8.308-2.249 2.157-5.148 3.236-8.698 3.236-1.744 0-3.212-.122-4.406-.367-1.178-.23-2.624-.681-4.337-1.354V29.23c.841 1.132 1.935 2.058 3.282 2.777 1.361.704 2.692 1.055 3.993 1.055 1.055 0 1.912-.313 2.57-.94.673-.643 1.01-1.47 1.01-2.479 0-1.01-.237-1.897-.712-2.662-.459-.75-1.3-1.599-2.524-2.547-2.586-2.005-4.468-3.856-5.646-5.554-1.178-1.683-1.767-3.381-1.767-5.095 0-3.167 1.087-5.752 3.259-7.757C229.438 4.01 232.23 3 235.642 3c1.254 0 2.608.138 4.062.413 1.468.26 2.7.597 3.694 1.01v8.353z" fill="url(#paint14_linear)"/><path d="M250.88 31.893V11.078c0-1.637-.1-3.022-.298-4.154a15.752 15.752 0 00-.964-3.396h12.002a16.27 16.27 0 00-.987 3.373c-.183 1.133-.275 2.525-.275 4.177v20.815c0 1.652.092 3.045.275 4.177a16.27 16.27 0 00.987 3.373h-12.002c.459-1.116.788-2.241.986-3.373.184-1.132.276-2.525.276-4.177z" fill="url(#paint15_linear)"/><path d="M285.854 40.086c-5.66 0-10.296-1.729-13.907-5.187-3.595-3.457-5.393-7.902-5.393-13.333 0-5.447 1.798-9.899 5.393-13.357C275.558 4.736 280.194 3 285.854 3c5.677 0 10.312 1.736 13.908 5.21 3.595 3.457 5.393 7.91 5.393 13.356 0 5.431-1.798 9.876-5.393 13.333-3.596 3.458-8.231 5.187-13.908 5.187zm5.371-7.023c1.086-1.01 1.973-2.547 2.662-4.612a20.27 20.27 0 001.032-6.449c0-3.84-1.346-6.877-4.039-9.11-2.692-2.25-6.158-3.206-10.396-2.87-1.086 1.01-1.973 2.556-2.662 4.636a20.342 20.342 0 00-1.032 6.472c0 3.825 1.346 6.854 4.039 9.088 2.708 2.234 6.173 3.182 10.396 2.845z" fill="url(#paint16_linear)"/><path d="M320.737 31.893c0 1.652.092 3.045.276 4.177a16.27 16.27 0 00.987 3.373h-11.613c.459-1.116.78-2.241.964-3.373.199-1.132.298-2.525.298-4.177V9.127l-4.75-5.6h13.035c.428.904.987 1.92 1.675 3.053.689 1.132 1.668 2.632 2.938 4.498l8.904 13.15v-13.15c0-1.652-.099-3.044-.298-4.177a15.323 15.323 0 00-.964-3.373h11.612a16.27 16.27 0 00-.987 3.373c-.183 1.133-.275 2.525-.275 4.177v17.58c0 1.56.115 3.38.344 5.461.23 2.08.505 3.856.826 5.324h-10.648c-.138-.52-.428-1.208-.872-2.065a22.054 22.054 0 00-1.377-2.387l-10.075-14.87v11.772z" fill="url(#paint17_linear)"/><path opacity=".5" fill-rule="evenodd" clip-rule="evenodd" d="M8.353 33.372c3.61 3.457 8.246 5.186 13.907 5.186 5.676 0 10.312-1.729 13.907-5.186 3.372-3.244 5.163-7.355 5.372-12.335.014.33.021.664.021 1.001 0 5.431-1.798 9.876-5.393 13.334-3.595 3.457-8.231 5.186-13.907 5.186-5.661 0-10.297-1.729-13.907-5.186-3.596-3.458-5.394-7.903-5.394-13.334 0-.337.007-.671.021-1.001.21 4.98 2 9.091 5.373 12.335zM31.298 21.55c.018-.357.027-.715.027-1.076 0-3.84-1.347-6.877-4.04-9.11-2.692-2.25-6.157-3.206-10.395-2.87-1.087 1.01-1.974 2.556-2.663 4.636a20.331 20.331 0 00-1.032 6.472c0 .312.009.618.027.92a20.152 20.152 0 011.005-5.392c.689-2.08 1.576-3.626 2.663-4.635 4.238-.337 7.703.62 10.396 2.868 2.473 2.052 3.81 4.78 4.012 8.187zm25.799-10v-2c0-1.652.091-3.044.275-4.176.08-.46.183-.917.306-1.374h.68a16.262 16.262 0 00-.986 3.374c-.184 1.132-.275 2.524-.275 4.176zm10.51 0v-2c0-1.652-.099-3.044-.298-4.176A14.42 14.42 0 0067.018 4h-.673c.46 1.117.78 2.241.964 3.374.199 1.132.298 2.524.298 4.176zM77.667 4c-.124.457-.225.914-.306 1.374-.184 1.132-.276 2.524-.276 4.176v2c0-1.652.092-3.044.276-4.176A16.26 16.26 0 0178.348 4h-.681zm0 33.916h-8.962l-.157 2h9.8a16.79 16.79 0 01-.681-2zm-9.08-.497l.168-2.143c-2.433 2.112-5.6 3.167-9.501 3.167-3.917 0-6.839-1.155-8.767-3.465-1.897-2.274-2.853-5.696-2.868-10.267v1.78c-.016 4.68.94 8.177 2.868 10.487 1.928 2.31 4.85 3.465 8.767 3.465 3.812 0 6.923-1.008 9.333-3.024zM47.62 11.55c0-1.652-.1-3.044-.299-4.176A15.301 15.301 0 0046.356 4h.673c.12.457.217.914.291 1.374.2 1.132.299 2.524.299 4.176v2zm38.118 0v-2c0-1.652-.1-3.044-.298-4.176-.074-.46-.172-.917-.291-1.374h-.673c.46 1.117.78 2.241.964 3.374.199 1.132.298 2.524.298 4.176zm-.581 26.366a16.963 16.963 0 01-.68 2h12a16.79 16.79 0 01-.681-2h-10.64zm10.06-12.16l3.327 5.393c1.561 2.448 3.09 4.52 4.59 6.22 1.514 1.697 2.585 2.547 3.213 2.547h9.845a36.337 36.337 0 01-2.231-2h-7.614c-.628 0-1.699-.85-3.213-2.548-1.5-1.698-3.029-3.771-4.59-6.22l-3.328-5.392v2zm9.505-2.092a11.71 11.71 0 002.061-1.213c2.662-1.928 3.993-4.52 3.993-7.78 0-.357-.013-.706-.04-1.046-.238 2.815-1.556 5.09-3.953 6.826a12.085 12.085 0 01-3.144 1.652l1.083 1.56zm-3.338-9.718c-.196-.922-.692-1.705-1.486-2.35-1.056-.857-2.41-1.285-4.062-1.285h-.62v-2h.62c1.652 0 3.006.428 4.062 1.285 1.056.857 1.583 1.959 1.583 3.305 0 .364-.032.713-.097 1.045zm39.364 23.97h5.332c.181.669.407 1.336.68 2h-12.049c.273-.664.497-1.331.673-2h5.363zm-4.774-30.638v2L131.475 4h1.704l2.794 3.278zm38.073 1.148c.297-1.31.752-2.785 1.366-4.426h.791c-1.025 2.463-1.744 4.605-2.157 6.426a25.242 25.242 0 00-.62 5.645v-2c0-1.958.207-3.84.62-5.645zm-.038 29.49h-10.65c-.176.669-.4 1.336-.673 2h12.002a16.932 16.932 0 01-.68-2zm-10.06-18.77v-2l-9.225 11.796-9.226-12.002v2l9.226 12.002 9.225-11.796zm18.406-7.596v-2c0-1.637-.1-3.021-.299-4.154A14.782 14.782 0 00181.759 4h-.668c.459 1.132.781 2.264.964 3.396.199 1.133.299 2.517.299 4.154zm-.582 26.366a16.76 16.76 0 01-.681 2h12.003a16.76 16.76 0 01-.681-2h-10.641zm10.06-26.366c0-1.652.091-3.044.275-4.176A16.27 16.27 0 01193.094 4h-.681c-.123.457-.225.914-.306 1.374-.184 1.132-.275 2.524-.275 4.176v2zm23.224-2.413c.933.413 1.997 1.117 3.19 2.111v2c-1.193-.994-2.257-1.698-3.19-2.11a6.857 6.857 0 00-2.891-.643c-.949 0-1.729.252-2.341.757a2.461 2.461 0 00-.75 1.05 4.245 4.245 0 01-.145-1.122c0-.78.298-1.423.895-1.928.612-.505 1.392-.757 2.341-.757.994 0 1.958.214 2.891.642zm4.386 18.997c-.226 2.878-1.344 5.274-3.353 7.188-2.249 2.157-5.148 3.236-8.698 3.236-1.744 0-3.213-.122-4.406-.367-1.178-.23-2.624-.68-4.338-1.354v2c1.714.673 3.16 1.124 4.338 1.354 1.193.245 2.662.367 4.406.367 3.55 0 6.449-1.078 8.698-3.236 2.264-2.157 3.396-4.926 3.396-8.307 0-.295-.014-.589-.043-.88zm-10.041.889c.067-.284.101-.586.101-.907 0-1.01-.237-1.897-.711-2.662-.459-.75-1.3-1.599-2.524-2.547-2.586-2.005-4.468-3.856-5.646-5.554-.981-1.402-1.554-2.814-1.718-4.237a12.93 12.93 0 00-.049 1.142c0 1.714.589 3.412 1.767 5.095 1.178 1.698 3.06 3.55 5.646 5.554 1.224.948 2.065 1.797 2.524 2.547.295.476.498.998.61 1.569zm33.997-17.774c-1.193-.995-2.256-1.699-3.19-2.112a6.857 6.857 0 00-2.891-.642c-.949 0-1.729.252-2.341.757a2.414 2.414 0 00-.895 1.928c0 .393.049.767.146 1.123.143-.4.393-.75.749-1.051.612-.505 1.392-.757 2.341-.757.994 0 1.958.214 2.891.642.934.413 1.997 1.117 3.19 2.111v-2zm-19.342 1.867c-.033.372-.05.753-.05 1.142 0 1.714.589 3.412 1.767 5.095 1.178 1.698 3.06 3.55 5.646 5.554 1.224.948 2.065 1.797 2.524 2.547.295.476.498.998.61 1.569a3.88 3.88 0 00.102-.907c0-1.01-.237-1.897-.712-2.662-.459-.75-1.3-1.599-2.524-2.547-2.586-2.005-4.468-3.856-5.646-5.554-.981-1.402-1.553-2.814-1.717-4.237zm-.256 23.72v2c1.713.674 3.159 1.125 4.337 1.355 1.194.245 2.662.367 4.406.367 3.55 0 6.449-1.078 8.698-3.236 2.265-2.157 3.397-4.926 3.397-8.307a9.22 9.22 0 00-.043-.88c-.227 2.877-1.345 5.273-3.354 7.187-2.249 2.157-5.148 3.236-8.698 3.236-1.744 0-3.212-.122-4.406-.367-1.178-.23-2.624-.68-4.337-1.354zM250.88 9.55v2c0-1.637-.1-3.021-.298-4.154A15.752 15.752 0 00249.618 4h.667c.122.465.221.931.297 1.396.198 1.133.298 2.517.298 4.154zM260.939 4c-.123.457-.225.914-.306 1.374-.183 1.132-.275 2.524-.275 4.176v2c0-1.652.092-3.044.275-4.176A16.27 16.27 0 01261.62 4h-.681zm0 33.916h-10.641a16.783 16.783 0 01-.68 2h12.002a16.76 16.76 0 01-.681-2zm24.915.642c-5.66 0-10.296-1.729-13.907-5.186-3.372-3.244-5.163-7.355-5.372-12.335-.014.33-.021.664-.021 1.001 0 5.431 1.798 9.876 5.393 13.334 3.611 3.457 8.247 5.186 13.907 5.186 5.677 0 10.312-1.729 13.908-5.186 3.595-3.458 5.393-7.903 5.393-13.334 0-.337-.007-.671-.021-1.001-.209 4.98-2 9.091-5.372 12.335-3.596 3.457-8.231 5.186-13.908 5.186zm-9.038-18.036a20.342 20.342 0 011.006-7.391c.689-2.081 1.576-3.627 2.662-4.636 4.238-.337 7.704.62 10.396 2.868 2.693 2.234 4.039 5.271 4.039 9.111 0 .36-.009.72-.026 1.076-.202-3.407-1.54-6.135-4.013-8.187-2.692-2.249-6.158-3.205-10.396-2.868-1.086 1.01-1.973 2.555-2.662 4.635a20.164 20.164 0 00-1.006 5.392zm39.377 17.394h5.126c.181.669.408 1.336.681 2h-11.613c.273-.664.497-1.331.673-2h5.133zM311.649 7.6v2l-4.75-5.6h1.697l3.053 3.6zm21.802 1.95v2c0-1.652-.099-3.044-.298-4.176A15.323 15.323 0 00332.189 4h.673c.119.457.216.914.291 1.374.199 1.132.298 2.524.298 4.176zm9.67-5.55a15.51 15.51 0 00-.307 1.374c-.183 1.132-.275 2.524-.275 4.176v2c0-1.652.092-3.044.275-4.176A16.27 16.27 0 01343.801 4h-.68zm.21 33.916h-10.27c-.138-.52-.428-1.21-.872-2.066a22.044 22.044 0 00-1.377-2.387l-10.075-14.87v2l10.075 14.87c.49.735.949 1.53 1.377 2.387.444.857.734 1.545.872 2.066h10.648c-.134-.614-.26-1.28-.378-2z" fill="#000"/><path opacity=".65" fill-rule="evenodd" clip-rule="evenodd" d="M41.54 21.564c-.21-4.993-2-9.111-5.373-12.355C32.572 5.736 27.936 4 22.26 4 16.599 4 11.963 5.736 8.353 9.21 4.98 12.452 3.189 16.57 2.98 21.563c-.014-.329-.02-.661-.02-.998 0-5.447 1.797-9.899 5.393-13.357C11.963 3.736 16.599 2 22.26 2c5.676 0 10.312 1.736 13.907 5.21 3.595 3.457 5.393 7.91 5.393 13.356 0 .337-.007.67-.02.998zm-11.248 5.887c-.689 2.065-1.576 3.603-2.662 4.612-4.223.337-7.688-.612-10.396-2.845-2.473-2.052-3.81-4.775-4.012-8.169-.018.358-.027.718-.027 1.08 0 3.826 1.346 6.855 4.039 9.089 2.708 2.234 6.173 3.182 10.396 2.845 1.086-1.01 1.974-2.547 2.662-4.612a20.257 20.257 0 001.033-6.449c0-.314-.01-.622-.027-.925a20.111 20.111 0 01-1.006 5.374zM57.678 4.528H47.03c-.176-.67-.4-1.336-.673-2H58.36c-.273.664-.5 1.33-.68 2zm.727 25.195c-.872-1.484-1.308-3.733-1.308-6.747v2c0 3.014.436 5.263 1.308 6.747.887 1.468 2.218 2.203 3.993 2.203 1.744 0 3.044-.628 3.901-1.882.872-1.27 1.308-3.19 1.308-5.76v-2c0 2.57-.436 4.49-1.308 5.76-.857 1.255-2.157 1.882-3.901 1.882-1.775 0-3.106-.735-3.993-2.203zm8.613-25.195h10.649c.18-.67.408-1.336.68-2H66.346c.273.664.497 1.33.673 2zm10.067 26.365v2c0 1.652.092 3.045.276 4.177.08.459.182.917.306 1.373h.68a16.263 16.263 0 01-.986-3.373c-.184-1.132-.276-2.525-.276-4.177zm-8.38 7.55l.05-.639c-.056.048-.111.096-.168.143l-.039.496h.157zM47.619 25.238v-.22.22zm37.529-20.71h11.788c4.422 0 7.834.925 10.236 2.777 2.15 1.657 3.338 3.94 3.563 6.848.027-.312.04-.63.04-.954 0-3.412-1.201-6.043-3.603-7.894-2.402-1.852-5.814-2.777-10.236-2.777H84.475c.273.664.497 1.33.673 2zM104.72 24.19c-.349.161-.71.308-1.083.44l5.737 8.262c1.163 1.668 2.257 3.068 3.282 4.2.41.452.844.903 1.303 1.35h2.231a33.987 33.987 0 01-3.534-3.35c-1.025-1.132-2.119-2.532-3.282-4.2l-4.654-6.702zm-9.506 6.702v2c0 1.652.092 3.045.276 4.177.08.459.182.917.306 1.373h.68a16.27 16.27 0 01-.986-3.373c-.184-1.132-.276-2.525-.276-4.177zm-10.06 7.55c.124-.456.226-.914.307-1.373.183-1.132.275-2.525.275-4.177v-2c0 1.652-.091 3.045-.275 4.177a16.263 16.263 0 01-.987 3.373h.68zm10.06-19.85h.299c1.744 0 3.174-.483 4.291-1.447.848-.732 1.374-1.622 1.578-2.672.065.303.097.621.097.955 0 1.514-.558 2.754-1.675 3.717-1.117.964-2.547 1.446-4.291 1.446h-.299v-2zm50.557 16.477c-.183-1.132-.275-2.525-.275-4.177v2c0 1.652.092 3.045.275 4.177.081.459.183.917.307 1.373h.68a16.27 16.27 0 01-.987-3.373zm-10.388 3.373h-.673c.459-1.116.78-2.241.964-3.373.199-1.132.298-2.525.298-4.177v2c0 1.652-.099 3.045-.298 4.177-.075.459-.172.917-.291 1.373zm-2.205-33.915h11.928c.031.795.122 1.446.275 1.95.153.49.398.941.735 1.355l8.973 11.336 9.065-11.336c.474-.582.811-1.117 1.01-1.607a4.948 4.948 0 00.367-1.698h9.881a57.27 57.27 0 01.791-2h-10.671a4.948 4.948 0 01-.367 1.698c-.199.49-.536 1.025-1.01 1.607l-9.065 11.336-8.973-11.336a4.029 4.029 0 01-.735-1.354c-.153-.505-.244-1.156-.275-1.951h-13.632l1.704 2zm40.247 26.365v2c0 1.652.092 3.045.276 4.177.08.459.182.917.306 1.373h.68a16.266 16.266 0 01-.986-3.373c-.184-1.132-.276-2.525-.276-4.177zm-10.067 7.55c.119-.456.216-.914.291-1.373.199-1.132.298-2.525.298-4.177v-2c0 1.652-.099 3.045-.298 4.177a15.324 15.324 0 01-.964 3.373h.673zm18.4-33.915h10.654c.181-.67.408-1.336.681-2H181.09c.271.667.493 1.333.668 2zm10.073 26.365v2c0 1.652.091 3.045.275 4.177.081.459.183.917.306 1.373h.681a16.27 16.27 0 01-.987-3.373c-.184-1.132-.275-2.525-.275-4.177zm-10.06 7.55a15.9 15.9 0 00.306-1.373c.184-1.132.276-2.525.276-4.177v-2c0 1.652-.092 3.045-.276 4.177a16.27 16.27 0 01-.987 3.373h.681zm27.799-24.51a3.907 3.907 0 01-.497-1.103c-.097.27-.145.563-.145.877 0 .827.214 1.569.642 2.227.429.642 1.194 1.392 2.295 2.249 2.662 2.065 4.598 4 5.806 5.806 1.023 1.514 1.613 3.072 1.77 4.673.029-.365.043-.739.043-1.12 0-1.912-.604-3.763-1.813-5.553-1.208-1.806-3.144-3.741-5.806-5.806-1.101-.857-1.866-1.607-2.295-2.25zM198.646 30.23c.842 1.132 1.936 2.058 3.282 2.777 1.362.704 2.693 1.055 3.993 1.055 1.056 0 1.913-.313 2.571-.94.673-.643 1.009-1.47 1.009-2.479 0-.382-.034-.746-.101-1.093a3.148 3.148 0 01-.908 1.572c-.658.627-1.515.94-2.571.94-1.3 0-2.631-.351-3.993-1.055-1.346-.72-2.44-1.645-3.282-2.777v2zm.256-16.587a7.46 7.46 0 01-.049-.858c0-3.167 1.086-5.752 3.259-7.757C204.285 3.01 207.077 2 210.489 2c1.255 0 2.609.138 4.062.413 1.469.26 2.701.597 3.695 1.01v2c-.994-.413-2.226-.75-3.695-1.01-1.453-.275-2.807-.413-4.062-.413-3.412 0-6.204 1.01-8.376 3.03-1.905 1.757-2.975 3.962-3.21 6.614zm35.324-.814c-.097.27-.146.563-.146.877 0 .827.214 1.569.643 2.227.428.642 1.193 1.392 2.295 2.249 2.662 2.065 4.597 4 5.806 5.806 1.022 1.514 1.612 3.072 1.77 4.673.028-.365.043-.739.043-1.12 0-1.912-.605-3.763-1.813-5.553-1.209-1.806-3.144-3.741-5.806-5.806-1.102-.857-1.867-1.607-2.295-2.25a3.88 3.88 0 01-.497-1.103zM223.8 30.231c.841 1.132 1.935 2.058 3.282 2.777 1.361.704 2.692 1.055 3.993 1.055 1.055 0 1.912-.313 2.57-.94.673-.643 1.01-1.47 1.01-2.479 0-.382-.034-.746-.102-1.093a3.148 3.148 0 01-.908 1.572c-.658.627-1.515.94-2.57.94-1.301 0-2.632-.351-3.993-1.055-1.347-.72-2.441-1.645-3.282-2.777v2zm.256-16.587a7.461 7.461 0 01-.05-.858c0-3.167 1.087-5.752 3.259-7.757C229.438 3.01 232.23 2 235.642 2c1.254 0 2.608.138 4.062.413 1.468.26 2.7.597 3.694 1.01v2c-.994-.413-2.226-.75-3.694-1.01-1.454-.275-2.808-.413-4.062-.413-3.412 0-6.204 1.01-8.377 3.03-1.905 1.757-2.975 3.962-3.209 6.614zm26.229-9.116h10.654c.181-.67.408-1.336.681-2h-12.002c.27.667.492 1.333.667 2zm10.073 26.365v2c0 1.652.092 3.045.275 4.177.081.459.183.917.306 1.373h.681a16.27 16.27 0 01-.987-3.373c-.183-1.132-.275-2.525-.275-4.177zm-10.06 7.55c.124-.456.226-.914.306-1.373.184-1.132.276-2.525.276-4.177v-2c0 1.652-.092 3.045-.276 4.177a16.205 16.205 0 01-.986 3.373h.68zm16.277-16.878c.209-4.994 2-9.112 5.372-12.356C275.558 5.736 280.194 4 285.854 4c5.677 0 10.312 1.736 13.908 5.21 3.372 3.243 5.163 7.361 5.372 12.355.014-.33.021-.662.021-1 0-5.446-1.798-9.898-5.393-13.356C296.166 3.736 291.531 2 285.854 2c-5.66 0-10.296 1.736-13.907 5.21-3.595 3.457-5.393 7.91-5.393 13.356 0 .337.007.67.021.998zm24.65 10.498c1.086-1.01 1.973-2.547 2.662-4.612a20.155 20.155 0 001.006-5.374 20.27 20.27 0 01-1.006 7.373c-.689 2.066-1.576 3.604-2.662 4.613-4.223.337-7.688-.611-10.396-2.845-2.693-2.234-4.039-5.263-4.039-9.088 0-.363.008-.723.026-1.08.202 3.393 1.539 6.116 4.013 8.168 2.708 2.233 6.173 3.182 10.396 2.845zm29.788 3.007c-.184-1.132-.276-2.525-.276-4.177v2c0 1.652.092 3.045.276 4.177.08.459.182.917.306 1.373H322a16.27 16.27 0 01-.987-3.373zm-9.953 3.373h-.673c.459-1.116.78-2.241.964-3.373.199-1.132.298-2.525.298-4.177v2c0 1.652-.099 3.045-.298 4.177a14.4 14.4 0 01-.291 1.373zm-2.464-33.915h11.338c.428.903.987 1.92 1.675 3.052.689 1.132 1.668 2.632 2.938 4.498l8.904 13.15v-2l-8.904-13.15c-1.27-1.866-2.249-3.366-2.938-4.498a34.233 34.233 0 01-1.675-3.052h-13.035l1.697 2zm24.266 0h10.259c.181-.67.407-1.336.68-2h-11.612c.273.664.497 1.33.673 2zm9.677 23.13v2c0 1.56.115 3.38.344 5.461.134 1.212.283 2.32.448 3.324h.378c-.321-1.468-.596-3.243-.826-5.324-.229-2.08-.344-3.901-.344-5.462z" fill="#fff"/><defs><linearGradient id="paint1_linear" x1="174" y1="3.443" x2="174" y2="39.443" gradientUnits="userSpaceOnUse"><stop stop-color="#A51414"/><stop offset="1" stop-color="#AB1414"/></linearGradient><linearGradient id="paint9_linear" x1="174" y1="3.443" x2="174" y2="39.443" gradientUnits="userSpaceOnUse"><stop stop-color="#F0CD5A"/><stop offset="1" stop-color="#DA7741"/></linearGradient><linearGradient id="paint2_linear" x1="174" y1="3.443" x2="174" y2="39.443" gradientUnits="userSpaceOnUse"><stop stop-color="#A51414"/><stop offset="1" stop-color="#AB1414"/></linearGradient><linearGradient id="paint3_linear" x1="174" y1="3.443" x2="174" y2="39.443" gradientUnits="userSpaceOnUse"><stop stop-color="#A51414"/><stop offset="1" stop-color="#AB1414"/></linearGradient><linearGradient id="paint4_linear" x1="174" y1="3.443" x2="174" y2="39.443" gradientUnits="userSpaceOnUse"><stop stop-color="#A51414"/><stop offset="1" stop-color="#AB1414"/></linearGradient><linearGradient id="paint5_linear" x1="174" y1="3.443" x2="174" y2="39.443" gradientUnits="userSpaceOnUse"><stop stop-color="#A51414"/><stop offset="1" stop-color="#AB1414"/></linearGradient><linearGradient id="paint6_linear" x1="174" y1="3.443" x2="174" y2="39.443" gradientUnits="userSpaceOnUse"><stop stop-color="#A51414"/><stop offset="1" stop-color="#AB1414"/></linearGradient><linearGradient id="paint7_linear" x1="174" y1="3.443" x2="174" y2="39.443" gradientUnits="userSpaceOnUse"><stop stop-color="#A51414"/><stop offset="1" stop-color="#AB1414"/></linearGradient><linearGradient id="paint8_linear" x1="174" y1="3.443" x2="174" y2="39.443" gradientUnits="userSpaceOnUse"><stop stop-color="#F0CD5A"/><stop offset="1" stop-color="#DA7741"/></linearGradient><linearGradient id="paint0_linear" x1="174" y1="3.443" x2="174" y2="39.443" gradientUnits="userSpaceOnUse"><stop stop-color="#A51414"/><stop offset="1" stop-color="#AB1414"/></linearGradient><linearGradient id="paint10_linear" x1="174" y1="3.443" x2="174" y2="39.443" gradientUnits="userSpaceOnUse"><stop stop-color="#F0CD5A"/><stop offset="1" stop-color="#DA7741"/></linearGradient><linearGradient id="paint11_linear" x1="174" y1="3.443" x2="174" y2="39.443" gradientUnits="userSpaceOnUse"><stop stop-color="#F0CD5A"/><stop offset="1" stop-color="#DA7741"/></linearGradient><linearGradient id="paint12_linear" x1="174" y1="3.443" x2="174" y2="39.443" gradientUnits="userSpaceOnUse"><stop stop-color="#F0CD5A"/><stop offset="1" stop-color="#DA7741"/></linearGradient><linearGradient id="paint13_linear" x1="174" y1="3.443" x2="174" y2="39.443" gradientUnits="userSpaceOnUse"><stop stop-color="#F0CD5A"/><stop offset="1" stop-color="#DA7741"/></linearGradient><linearGradient id="paint14_linear" x1="174" y1="3.443" x2="174" y2="39.443" gradientUnits="userSpaceOnUse"><stop stop-color="#F0CD5A"/><stop offset="1" stop-color="#DA7741"/></linearGradient><linearGradient id="paint15_linear" x1="174" y1="3.443" x2="174" y2="39.443" gradientUnits="userSpaceOnUse"><stop stop-color="#F0CD5A"/><stop offset="1" stop-color="#DA7741"/></linearGradient><linearGradient id="paint16_linear" x1="174" y1="3.443" x2="174" y2="39.443" gradientUnits="userSpaceOnUse"><stop stop-color="#F0CD5A"/><stop offset="1" stop-color="#DA7741"/></linearGradient><linearGradient id="paint17_linear" x1="174" y1="3.443" x2="174" y2="39.443" gradientUnits="userSpaceOnUse"><stop stop-color="#F0CD5A"/><stop offset="1" stop-color="#DA7741"/></linearGradient></defs></svg>