<svg width="22" height="21" viewBox="0 0 22 21" fill="none" xmlns="http://www.w3.org/2000/svg"><path d="M14.8 10.4c-.126-2.42-1.932-3.875-4.111-3.875h-.083c-2.516 0-3.912 1.968-3.912 4.204 0 2.504 1.689 4.087 3.902 4.087 2.468 0 4.092-1.799 4.209-3.927l-.005-.49zm-4.181-6.04c1.68 0 3.262.74 4.422 1.896v.005c0-.556.376-.974.898-.974l.132-.002c.816 0 .984.769.984 1.012l.005 8.642c-.059.566.586.857.944.495 1.393-1.426 3.062-7.331-.868-10.752-3.663-3.19-8.578-2.664-11.192-.872C3.167 5.717 1.39 9.936 3.116 13.9c1.883 4.324 7.27 5.613 10.471 4.326 1.622-.65 2.37 1.53.687 2.242-2.544 1.08-9.626.97-12.935-4.731C-.896 11.887-.777 5.114 5.151 1.604c4.535-2.685 10.514-1.942 14.12 1.804 3.768 3.916 3.548 11.25-.127 14.102-1.667 1.294-4.14.033-4.124-1.855l-.017-.616a6.203 6.203 0 01-4.384 1.813c-3.322 0-6.246-2.908-6.246-6.213 0-3.337 2.924-6.279 6.246-6.279z" fill="#fff"/></svg>