<svg width="38" height="38" viewBox="0 0 38 38" fill="none" xmlns="http://www.w3.org/2000/svg"><path d="M28.644 19.276c0-.826-.067-1.43-.213-2.055h-9.438v3.73h5.54c-.112.928-.715 2.324-2.055 3.262l-.019.125 2.984 2.312.207.02c1.899-1.753 2.994-4.333 2.994-7.394z" fill="#fff"/><path d="M18.993 29.106c2.714 0 4.993-.894 6.657-2.435l-3.172-2.458c-.849.592-1.988 1.006-3.485 1.006-2.659 0-4.915-1.754-5.72-4.178l-.117.01-3.103 2.402-.04.113a10.046 10.046 0 008.98 5.54z" fill="#fff"/><path d="M13.274 21.041a6.19 6.19 0 01-.335-1.988c0-.693.123-1.363.324-1.988l-.006-.134-3.142-2.44-.103.05a10.063 10.063 0 00-1.072 4.512c0 1.62.39 3.15 1.072 4.512l3.262-2.524z" fill="#fff"/><path d="M18.993 12.887c1.888 0 3.16.816 3.887 1.497l2.837-2.77C23.975 9.994 21.707 9 18.993 9a10.046 10.046 0 00-8.98 5.54l3.25 2.525c.815-2.424 3.071-4.178 5.73-4.178z" fill="#fff"/></svg>