<svg width="38" height="38" viewBox="0 0 38 38" fill="none" xmlns="http://www.w3.org/2000/svg"><path fill-rule="evenodd" clip-rule="evenodd" d="M19.474 19.537a5.774 5.774 0 005.769-5.767A5.775 5.775 0 0019.473 8a5.776 5.776 0 00-5.769 5.77 5.774 5.774 0 005.77 5.767zm2.334 4.705a10.803 10.803 0 003.35-1.387 1.69 1.69 0 00-1.8-2.861 7.326 7.326 0 01-7.768 0 1.69 1.69 0 10-1.8 2.861 10.812 10.812 0 003.349 1.387l-3.225 3.226a1.69 1.69 0 102.39 2.39l3.169-3.169 3.17 3.17a1.688 1.688 0 002.885-1.196 1.688 1.688 0 00-.496-1.194l-3.224-3.227zM19.5 11c1.378 0 2.5 1.122 2.5 2.5S20.878 16 19.5 16a2.503 2.503 0 01-2.5-2.5c0-1.379 1.122-2.5 2.5-2.5z" fill="#fff"/></svg>