<svg width="38" height="38" viewBox="0 0 38 38" fill="none" xmlns="http://www.w3.org/2000/svg"><path d="M22.7 11.004V11h1.031l.377.072c.252.046.48.107.685.183.205.075.403.163.595.264.191.1.365.203.521.307.155.104.294.213.417.329.122.117.311.147.57.09a7.77 7.77 0 00.833-.236c.297-.1.591-.213.882-.34.291-.125.469-.205.532-.239l.1-.056.003-.006.02-.01.02-.009.02-.01.02-.009.003-.005.006-.004.006-.004.004-.006.02-.005.02-.004-.004.028-.006.028-.01.029-.01.028-.01.019-.01.019-.01.028a.632.632 0 00-.02.076c-.006.031-.069.157-.188.377s-.268.443-.446.67a3.362 3.362 0 01-.48.513 4.486 4.486 0 00-.284.245.842.842 0 01-.169.132l-.099.063-.02.009-.02.01-.003.005-.006.004-.006.004-.004.005-.02.01-.02.01-.004.005-.006.004-.006.003-.004.006-.004.006-.006.004-.006.003-.004.006h.1l.555-.113c.37-.076.724-.167 1.061-.274l.536-.17.06-.018.03-.01.02-.01.019-.009.02-.01.02-.009.04-.005.039-.004v.038l-.01.003-.01.006-.004.006-.006.004-.006.003-.004.006-.004.006-.006.003-.005.004-.005.006-.004.005-.005.004-.01.02-.01.018-.006.004-.252.32c-.165.212-.255.319-.268.321-.013.004-.032.023-.056.057-.022.035-.162.175-.42.42-.258.246-.51.464-.758.655-.248.193-.374.43-.377.71-.004.279-.019.595-.045.947-.027.352-.076.733-.15 1.141-.072.41-.184.872-.336 1.387a12.204 12.204 0 01-.556 1.51c-.218.49-.446.93-.684 1.32-.238.39-.457.72-.655.991-.198.27-.4.525-.605.764a11.51 11.51 0 01-.778.808c-.314.298-.486.461-.515.49-.03.028-.16.131-.39.31-.227.18-.471.36-.733.54-.26.178-.5.327-.718.447-.219.119-.482.255-.79.409a9.649 9.649 0 01-.996.43c-.357.132-.734.255-1.13.368-.397.113-.78.201-1.151.264-.37.063-.79.117-1.26.16l-.704.067V28h-1.29v-.01l-.168-.009a9.889 9.889 0 01-.278-.019 28.75 28.75 0 01-.823-.104 12.04 12.04 0 01-1.12-.188 15.443 15.443 0 01-1.211-.359 12.14 12.14 0 01-1.375-.534 56.67 56.67 0 01-.714-.34 5.161 5.161 0 01-.321-.173l-.179-.104-.004-.005-.006-.004-.006-.004-.004-.005-.02-.01-.02-.01-.003-.005-.006-.004-.006-.004-.004-.005-.004-.006-.006-.004H8v-.037l.02.003.02.006.089.01c.06.006.221.015.486.028a9.399 9.399 0 002.857-.311 8.432 8.432 0 001.166-.382c.353-.148.604-.259.754-.332.148-.072.374-.205.678-.4l.457-.292.004-.006.005-.004.007-.003.003-.006.004-.006.006-.003.006-.004.004-.006.02-.006.02-.003.004-.02.006-.018.006-.004.004-.005-.159-.01-.307-.019a3.115 3.115 0 01-.467-.085 4.62 4.62 0 01-.684-.226c-.245-.1-.483-.22-.714-.359a3.502 3.502 0 01-.502-.345 8.496 8.496 0 01-.397-.385 3.85 3.85 0 01-.762-1.124l-.164-.344-.01-.028-.01-.028-.006-.02-.004-.018.03.004.03.005.218.029c.145.018.373.025.684.018.311-.006.526-.018.645-.037.119-.02.192-.032.218-.038l.04-.01.05-.009.049-.01.004-.005.006-.004.006-.004.004-.005-.04-.01-.04-.009-.04-.01-.039-.009-.04-.01a3.81 3.81 0 01-.138-.037 7.768 7.768 0 01-.536-.208 4.175 4.175 0 01-.694-.349 4.757 4.757 0 01-.492-.371 5.445 5.445 0 01-.51-.525 3.754 3.754 0 01-.496-.745 4.397 4.397 0 01-.327-.811 4.185 4.185 0 01-.143-.784l-.036-.396.02.004.02.006.02.01.02.009.02.009.02.01.307.131c.205.089.46.164.763.227.305.063.486.097.546.104l.09.01h.178l-.004-.006-.006-.004-.006-.004-.004-.006-.004-.005-.006-.004-.006-.004-.004-.006-.02-.009-.02-.01-.004-.005-.006-.004-.006-.004-.004-.005-.02-.01-.02-.01-.003-.005-.17-.12a2.552 2.552 0 01-.342-.308 11.261 11.261 0 01-.357-.396 3.056 3.056 0 01-.318-.444 5.253 5.253 0 01-.293-.6 4.106 4.106 0 01-.302-2.07c.02-.17.06-.361.12-.575a4.36 4.36 0 01.257-.68l.169-.358.01-.028.01-.028.006-.004.004-.006.004-.005.006-.004.006.003.004.006.003.006.006.004.006.003.004.006.004.006.006.004.01.018.01.02.006.003.004.006.268.283c.178.188.39.399.635.632.244.232.38.353.406.362.027.01.06.039.1.087.04.046.171.158.396.334.225.176.52.38.883.613.364.233.767.462 1.21.689.443.226.92.43 1.428.613.51.182.867.302 1.072.358.205.057.555.13 1.051.217.496.088.87.145 1.12.17.252.025.424.04.517.043l.139.004-.004-.028-.006-.028-.04-.236a4.226 4.226 0 01-.04-.66 4.068 4.068 0 01.278-1.51c.093-.245.183-.442.272-.59.09-.148.207-.316.353-.504.145-.189.334-.384.565-.585.232-.201.496-.38.794-.538.297-.157.572-.277.823-.359.251-.081.463-.135.635-.16.172-.025.258-.04.258-.043v0z" fill="#fff" stroke="#fff" stroke-width="1.126"/></svg>