<svg width="38" height="38" viewBox="0 0 38 38" fill="none" xmlns="http://www.w3.org/2000/svg"><path d="M18.253 26.941h1.375s.415-.049.627-.292c.196-.224.19-.645.19-.645s-.028-1.968.828-2.258c.845-.285 1.928 1.903 3.077 2.744.868.636 1.529.497 1.529.497l3.071-.046s1.607-.105.845-1.453c-.062-.11-.444-.997-2.284-2.82-1.926-1.907-1.668-1.598.652-4.898 1.413-2.009 1.978-3.235 1.801-3.76-.168-.501-1.207-.369-1.207-.369l-3.458.023s-.257-.037-.447.084c-.186.119-.305.396-.305.396s-.548 1.554-1.277 2.877c-1.54 2.79-2.156 2.937-2.408 2.764-.586-.404-.44-1.622-.44-2.488 0-2.704.385-3.83-.748-4.123-.376-.096-.652-.16-1.614-.17-1.234-.014-2.278.003-2.87.312-.393.206-.697.664-.512.69.229.033.746.15 1.02.548.355.514.343 1.67.343 1.67s.204 3.182-.476 3.578c-.466.27-1.105-.283-2.478-2.814-.704-1.297-1.235-2.73-1.235-2.73s-.102-.268-.285-.411a1.376 1.376 0 00-.53-.229l-3.287.023s-.494.015-.675.244c-.161.203-.013.624-.013.624s2.573 6.423 5.486 9.66c2.672 2.967 5.705 2.772 5.705 2.772" fill="#fff"/></svg>