<svg xmlns="http://www.w3.org/2000/svg" viewBox="0 0 238 116"><path d="M10.2 48.3l.9-.3c1.9-.5 8.9-1.2 10.3.6.1.2.2.3.2.6V65c0 1.4-.1 2.7-.4 4.1-.6 3.1-3.6 4.1-6.5 4.3-2.2.2-6 .6-6-2.1 0-1.7 8.8.1 9.5-2.7.2-.6.2-1.3.2-1.9-.5.1-1.1.1-1.7.1-2.1.1-4.5.2-6.5-.4-5.9-2-5.5-15.9 0-18.1zM16.6 64c.6-.1 1.3-.1 1.9-.2V50.7H14c-.9 0-1.7.1-2.5.3-.6.2-1 .5-1.3.9-.2.4-.5 1.1-.6 2-.2 1.2-.2 2.3-.2 3.5 0 1.2 0 2.1.1 2.9.1.6.2 1.3.3 1.9.2.7.7 1.2 1.4 1.5.7.3 1.7.4 3 .4.9 0 1.7 0 2.4-.1zm10.8-15.9c.7-.1 1.5-.1 2.3-.1 2.5 0 4.3.4 5.6 1.2 1.3.9 2 2.2 2 4.2V65c0 .2-.1.5-.2.7s-.4.3-.6.3c-.6.2-1.5.4-2.7.5-1.2.1-2.6.2-4.4.2-1 0-1.9-.1-2.9-.3-.7-.1-1.4-.5-2-.9-.5-.5-.9-1-1.1-1.7-.3-.8-.4-1.6-.4-2.6 0-1.8.5-3.1 1.4-4 1-.9 2.4-1.2 4.4-1.2h5.5v-2.3c0-1.1-.3-1.8-1-2.3-.7-.5-1.9-.7-3.5-.7h-4.5c-.3.1-.7-.2-.7-.6v-1c0-.2.1-.3.2-.5s.3-.2.5-.2h.1c.5-.2 1.2-.2 2-.3zM32.6 64c.6-.1 1.1-.1 1.7-.2v-5h-5.5c-1 0-1.8.2-2.2.6-.5.4-.6 1-.6 1.9 0 1.1.2 1.8.8 2.2.6.5 1.6.6 3.1.6 1 0 1.9 0 2.7-.1zm21.6-15.3c2.4-.4 4.9-1.1 7-.2 2.8 1.3 3.2 4.7 3.2 7.3l-.1 10.1c0 .2-.1.4-.2.5-.2.1-.3.2-.6.2H62c-.2 0-.4-.1-.5-.2-.1-.1-.2-.3-.2-.5v-10c0-1.7.2-3.9-1.6-4.7-.9-.5-1.9-.5-2.9-.4-.2 0-3.9.3-3.9.3.4 1.1.6 2.7.6 4.7V66c0 .2-.1.3-.2.5-.1.1-.3.2-.5.2h-1.5c-.3.1-.7-.2-.7-.6V55.7c0-.9-.1-1.7-.2-2.5-.2-1.4-.7-2.3-2.3-2.4-1.8-.1-3.6-.2-5.4-.1v14.7c0 .2 0 .5-.1.6-.3.7-1.2.7-1.9.6-.2-.1-.5-.1-.7-.3-.2-.2-.2-.6-.2-.9V50.1c0-3.5 8.6-2.1 10.4-1.5.4.1.8.3 1.3.3.9 0 1.8 0 2.7-.2zm13.3-6.9c3.3-3 2.5 4.9 2.5 6.3.5-.1 1.1-.1 1.7-.1 2.3-.1 5.1-.3 7.3.6 4.6 2.2 4.5 13 1.5 16.4-1.6 1.8-4.1 2.1-6.5 2-1.5-.1-5.3 0-6.6-1-.9-.6-.3-4.5-.3-5.4V45.7c-.1-1.7-.4-3.1.4-3.9zm9.4 9.2c-.7-.2-1.5-.3-2.6-.3H70v13.1c.7.1 1.4.2 2.1.2.8.1 1.5.1 2.3.1.9 0 1.7-.1 2.5-.3.6-.2 1-.5 1.3-.9.2-.4.5-1.1.6-2 .2-1.2.2-2.3.2-3.5s-.1-2.3-.2-3.5c-.1-.9-.3-1.5-.6-1.9-.2-.5-.7-.7-1.3-1zm7.5-9.5c.2-.1.3-.2.5-.2h1.5c.2 0 .4.1.6.2.1.1.2.3.2.5v23.9c.1.3-.2.7-.6.7h-1.7c-.3.1-.7-.2-.7-.6V42c0-.2.1-.3.2-.5zm8.8 7c1-.3 2.3-.5 3.8-.5 1.4 0 2.6.2 3.6.5s1.7.7 2.2 1.4c.5.6.9 1.5 1.1 2.7.3 1.4.4 2.9.4 4.3v1c0 .4-.1.7-.3.9-.2.2-.5.2-1 .2H92.5c.1 2.1.3 3.5.9 4.2.3.4.8.6 1.3.7.7.2 1.5.3 2.3.3h5.2c.3-.1.7.2.7.6v1.1c0 .2-.1.3-.2.5-.1.1-.3.2-.5.2-.7.1-1.5.1-2.4.2s-1.8.1-2.8.1c-1.5 0-2.8-.1-3.8-.4-.9-.2-1.8-.8-2.3-1.6-.6-.7-.9-1.7-1.1-2.9s-.3-2.6-.3-4.6c0-1.5.1-3.1.3-4.6.2-1.3.6-2.2 1.1-2.9.4-.6 1.2-1.1 2.3-1.4zm6 2.5c-.7-.2-1.5-.3-2.2-.3-.8 0-1.6.1-2.3.3-.6.2-1 .5-1.3.8-.3.3-.5.9-.6 1.7-.2.9-.2 1.8-.2 2.7h8.8c0-.9-.1-1.8-.2-2.7-.2-.8-.3-1.4-.6-1.7-.5-.4-.9-.6-1.4-.8zm9.6-2.7c.1-.1.2-.1.4-.1 1-.2 6.2-.9 6.2.9v1c0 .2-.1.4-.2.6-.2.1-.3.2-.6.2h-2.9c-1 0-1.7.1-2.1.3-.3.2-.5.6-.5 1.3V66c0 .2-.1.4-.2.5-.2.1-.3.2-.6.2h-1.5c-.3.1-.7-.2-.7-.6V51.8c-.1-1.9 1-3.1 2.7-3.5zm11.3-.5c-2 .5-3.8 1.4-4.2 2.5-.2.6-.4 1.2-.4 1.8v.7c0 4.4 4.9 5.4 8.2 6.8.7.3 1.1.6 1.4 1 .2.3.4.8.4 1.3v.4c0 .7-.2 1.1-.7 1.4-.6.3-1.5.4-3.1.4h-5.8c-.2 0-.4.1-.5.2s-.2.3-.2.5v1c0 .2.1.3.2.5 1.6 1.6 5.7.7 7.7.5 2.9-.3 5.4-1.1 5.4-4.5v-.4c0-4.3-4.8-5.3-8-6.6-.8-.3-1.3-.7-1.6-1-.3-.4-.4-.9-.4-1.4v-.5c0-.6.2-1 .6-1.3.4-.3 1.1-.5 2-.5h6c.3.1.7-.2.7-.6v-1c0-.2-.1-.4-.2-.5-1.3-1.3-4.7-1.4-7.5-.7zm96.8-5.7c0-.5.2-.7.7-.7h1.5c.2 0 .4.1.6.2.1.2.2.3.2.6v12.1l5.4-5.6c.1-.1.2-.2.4-.3.2-.1.3-.1.5-.1h2.1c.2 0 .3 0 .4.1.1.1.2.1.3.2.1.1.1.2 0 .3-.1.1-.1.3-.2.4l-6.2 6.3 8.2 9.9c.2.3.3.7.1.9-.1.2-.4.3-.9.3h-1.7c-.2 0-.3-.1-.5-.1-.2-.1-.3-.2-.4-.3l-7.6-9.3v9c0 .2-.1.4-.2.6-.1.2-.3.2-.6.2h-1.5c-.5 0-.7-.3-.7-.7l.1-24zm-33.1 6c2.6.2 5.3-.5 7.7.6 3.3 1.5 3.2 5.6 3.2 8.7 0 2.9.1 7.5-3.3 8.7-.7.2-8.7 1-8.7.4 0 1.2.7 5.9-.6 6.5-3 1.2-2.5-2.3-2.5-4.2V53.4c.2-3.4.2-5.6 4.2-5.3zm13.3-6c.3-.3.8-.5 1.4-.5.6 0 1 .2 1.4.5s.5.7.5 1.4-.2 1.1-.5 1.4c-.3.3-.7.5-1.4.5-1.3 0-1.9-.6-1.9-1.9 0-.6.2-1.1.5-1.4zm0 6.2c.2-.1.3-.2.6-.2h1.5c.3-.1.7.2.7.6v17.1c.1.3-.2.7-.6.7h-1.7c-.3.1-.7-.2-.7-.6v-17c.1-.2.1-.4.2-.6zm8.9.3c1.9-.7 4.4-.6 6.6-.5.6.1 1.9-.2 2.4.3s.9 2.3-.2 2.4h-5c-.9 0-1.7.1-2.5.3-.6.2-1.1.5-1.4.9-1.6 2.3-1.7 8.6 0 10.9.3.4.7.7 1.4.9.8.2 1.7.3 2.5.3h4.9c.3-.1.7.2.7.6v1.1c0 .2-.1.3-.2.5-.1.1-.3.2-.5.2-.7.1-1.5.1-2.3.2s-1.7.1-2.6.1c-5.4 0-7.8-2.9-8.1-8.1-.2-3.3.5-8.7 4.3-10.1zm-23.3 2.1v13.2c1.4.1 2.8.2 4.2.2 1.1 0 3.3-.1 3.9-1.1.8-1.2.9-4.1.9-5.5s-.1-4.3-.8-5.5c-.7-1.1-2.6-1.2-3.8-1.2l-4.4-.1zm-32.3 6.2c.5.7.7 1.7.1 2.1-.7.5-1.6-.1-2.3-.5-1.7-1.3-3.5-2.6-5.2-3.8-.4-.3-.9-.7-.9-1.2-.3-3.3 7.8-.2 8.2-1.4l1.9-6c.2-.6.5-1.2 1-1.4.9-.3 1.7.9 1.9 1.8l1.8 5.6c.7 1.5 8.1-1.8 8.2 1.2 0 .6-.5 1-1 1.4-1.7 1.3-3.4 2.5-5.1 3.7l2 6.2c.1.4.3.9.1 1.3-.5 1-1.9.5-2.8-.2l-4.5-3.3c-3.9 4.9-7.9 9.8-11.8 14.7-.7.9-1.9 1.7-2.7.9-.4-.5-.3-1.1-.2-1.7.7-3.4 1.5-6.8 2.2-10.2-3.8-1.1-7.3-3.8-8.9-7.5-4.3-9.9 7.5-17.4 15.7-19.1 10.3-2.2 26.1 2.6 27.3 15 .5 5-2.3 9.9-6.2 13-3.9 3.1-9 4.5-14 5-.7.1-1.4.1-1.9-.2-.6-.3-1-1-.8-1.6.3-.7 1.1-.8 1.9-.9 5.2-.4 10.6-1.8 14.5-5.4 6.7-6.3 4.2-15.6-3.3-19.9-.7-.4-1.4-.7-2.1-1.1-7.8-3.4-17.7-2.3-24.6 2.9-2.7 2-4.7 5.1-4.6 8.4.1 4.2 3.8 7.8 7.9 8.8.7.2 1.6.4 1.8 1.1.1.3.1.7-.1 1.1-.5 2-.9 4.1-1.3 6.1 3.2-3.9 6.3-7.9 9.5-11.8.3-.4.7-.9 1.3-.9.3 0 .7.2 1 .4l3 2c-1-1.1-1.4-2.8-.9-4.2.5-1.4 1.7-2.6 3.1-3-2.8 1-6.3-1.5-6.2-4.5 0 1.5-.7 3-1.9 3.9-1.2.9-2.9 1.1-4.2.5.5.9 1.6 1.3 2.5 1.9.3.5.4.6.6.8z" fill="#319f37"/></svg>