<svg id="Layer_1" xmlns="http://www.w3.org/2000/svg" viewBox="0 0 238 116"><style>.st2{enable-background:new}.st3{fill:#fff}</style><path id="Layer_2" d="M0 0h238v116H0V0z" fill="#313b4b"/><path id="Layer_4" d="M214 95H26.7c-5 0-9-4-9-9V36c0-5 4-9 9-9H214c5 0 9 4 9 9v50c0 5-4 9-9 9z" fill="#f1585a"/><g id="Text"><g class="st2"><path class="st3" d="M101.6 52.4c0-1.2-6.5-1.2-6.5-6.5 0-2.8 2.6-5.4 6.8-5.4 4.3 0 6.5 2.6 6.5 2.6l-2.3 3.6s-1.4-1.3-3.1-1.3c-.6 0-1 .4-1 .7 0 1.2 6.5 1.2 6.5 6.5 0 2.8-2.6 5.4-6.8 5.4-5.3 0-7.4-2.9-7.4-2.9l2.3-3.6s1.7 1.6 4.1 1.6c.5 0 .9-.4.9-.7zm8.6-12.5h5.8v17.8h-5.8V39.9zm15 4.7c4.3 0 7.3 3 7.3 6.7s-3 6.7-7.3 6.7-7.3-3-7.3-6.7 3-6.7 7.3-6.7zm0 4.9c-.8 0-1.6.7-1.6 1.8s.7 1.8 1.6 1.8c.8 0 1.6-.7 1.6-1.8s-.8-1.8-1.6-1.8zm8.5.2v-4.8h1.7v-4.1h5.8v4.1h2.2v4.8h-2.2v2c0 1 .5 1.4 1.2 1.4.5 0 1-.1 1-.1v4.8s-1 .2-2.2.2c-3.6 0-5.8-2.2-5.8-6.4v-2l-1.7.1zm18.9-5.1c4.3 0 7.3 3 7.3 6.7s-3 6.7-7.3 6.7-7.3-3-7.3-6.7c-.1-3.7 2.9-6.7 7.3-6.7zm0 4.9c-.8 0-1.6.7-1.6 1.8s.7 1.8 1.6 1.8c.8 0 1.6-.7 1.6-1.8s-.8-1.8-1.6-1.8zm15.7 3.6h4.6v4.6h-11.5v-4.6l4.3-3.6h-4.1v-4.6h11v4.6l-4.3 3.6zm6.7-14.2h5.8v4.6H175v-4.6zm5.8 6v12.7H175V44.9h5.8zm2.4-5h5.8v17.8h-5.8V39.9zm8.1 0h5.8v17.8h-5.8V39.9zm20.9 11.4v6.4h-5.5l-.5-1.4s-1 1.8-3.1 1.8c-2.6 0-4.3-1.7-4.3-4s1.7-4 5.8-4h1.9s-.2-1.3-2.2-1.3c-1.2 0-2.2 1-2.2 1l-2-3.2s1.8-1.9 5-1.9c4.1-.1 7.1 2.9 7.1 6.6zm-5.8.8c-1.3 0-1.9.6-1.9 1.3 0 .4.4.7.7.7.6.1 1.2-.5 1.2-2z"/></g><g class="st2"><path class="st3" d="M97.8 75.9c-2.4 0-3.6-1.4-3.6-1.4l1.1-1.7s.7.7 1.8.7c.2 0 .4-.1.4-.3 0-.4-2.8-.6-2.8-2.9 0-1.4 1.2-2.5 3.4-2.5 2 0 3.2 1.2 3.2 1.2l-1.1 1.7s-.6-.6-1.4-.6c-.2 0-.4.1-.4.3 0 .4 2.8.6 2.8 2.9 0 1.4-1.2 2.6-3.4 2.6zm12.2-4.1v.7h-4.6s.1.8 1.3.8c.7 0 1.3-.6 1.3-.6l1.2 2s-1.1 1.2-3 1.2c-2.5 0-4.3-1.8-4.3-4.1 0-2.2 1.8-4.1 4.1-4.1 2.2.1 4 1.9 4 4.1zm-3.4-.6c0-.6-.3-.9-.7-.9s-.7.3-.7.9h1.4zm12.1.6v3.8h-3.3l-.3-.9s-.6 1.1-1.9 1.1c-1.6 0-2.6-1-2.6-2.4s1-2.4 3.5-2.4h1.2s-.1-.8-1.3-.8c-.7 0-1.3.6-1.3.6l-1.2-2s1.1-1.2 3-1.2c2.4.2 4.2 2 4.2 4.2zm-3.5.5c-.8 0-1.2.4-1.2.8 0 .2.2.4.4.4.5.1.8-.3.8-1.2zm4.8-7.4h3.5v10.7H120V64.9zm12 2.9c2.6 0 4.4 1.8 4.4 4.1 0 2.2-1.8 4.1-4.4 4.1-2.6 0-4.4-1.8-4.4-4.1s1.8-4.1 4.4-4.1zm0 2.9c-.5 0-.9.4-.9 1.1s.4 1.1.9 1.1.9-.4.9-1.1-.4-1.1-.9-1.1zm6.2-2.3v-.2c0-2.5 1.3-3.8 3.5-3.8.7 0 1.3.1 1.3.1v2.9s-.3-.1-.6-.1c-.4 0-.7.3-.7.9v.2h1.3v2.9h-1.3v4.3h-3.5v-4.3h-1v-2.9h1zm16.5 3.4v3.8h-3.3l-.3-.9s-.6 1.1-1.9 1.1c-1.6 0-2.6-1-2.6-2.4s1-2.4 3.5-2.4h1.2s-.1-.8-1.3-.8c-.7 0-1.3.6-1.3.6l-1.2-2s1.1-1.2 3-1.2c2.4.2 4.2 2 4.2 4.2zm-3.5.5c-.8 0-1.2.4-1.2.8 0 .2.2.4.4.4.4.1.8-.3.8-1.2zm10.3 3.6c-1.5 0-2-1.1-2-1.1v4.5H156V68h3.2l.3.9s.6-1.1 2-1.1c1.6 0 3 1.5 3 4.1 0 2.5-1.4 4-3 4zm-1.4-5.2c-.4 0-.8.4-.8 1.1s.4 1.1.8 1.1.8-.4.8-1.1-.3-1.1-.8-1.1zm11.1 5.2c-1.5 0-2-1.1-2-1.1v4.5h-3.5V68h3.2l.3.9s.6-1.1 2-1.1c1.6 0 3 1.5 3 4.1.1 2.5-1.4 4-3 4zm-1.4-5.2c-.4 0-.8.4-.8 1.1s.4 1.1.8 1.1.8-.4.8-1.1-.3-1.1-.8-1.1zm11-2.9c.6 0 1 .2 1 .2l-.6 3.2s-.6-.3-1-.3c-.7 0-1.3.6-1.3 1.6v3.2h-3.5V68h3.3l.3.9s.6-1.1 1.8-1.1zm5.7 0c2.6 0 4.4 1.8 4.4 4.1 0 2.2-1.8 4.1-4.4 4.1s-4.4-1.8-4.4-4.1 1.8-4.1 4.4-4.1zm0 2.9c-.5 0-.9.4-.9 1.1s.4 1.1.9 1.1.9-.4.9-1.1-.4-1.1-.9-1.1zm7.1 5l-2.2-7.7h3.6l.7 4.1.7-4.1h3.6l-2.2 7.7h-4.2zm14.4-3.9v3.8h-3.3l-.3-.9s-.6 1.1-1.9 1.1c-1.6 0-2.6-1-2.6-2.4s1-2.4 3.5-2.4h1.2s-.1-.8-1.3-.8c-.7 0-1.3.6-1.3.6l-1.2-2s1.1-1.2 3-1.2c2.4.2 4.2 2 4.2 4.2zm-3.4.5c-.8 0-1.2.4-1.2.8 0 .2.2.4.4.4.4.1.8-.3.8-1.2zm4.7-7.4h3.5v10.7h-3.5V64.9z"/></g></g><path class="st3" d="M82.1 69.5l.6-.7-2.1-.5h-.2s-2.2-.2-.3-.4c1.8-.2 2.5-.7 2.2-.8-.3-.1 0 0-1.1-.2s-1.8-.7-1.4-.7h.2c.2 0 .7-.2 2.2-.5s-.4-.9-1.6-.9-1.9-.5-1.1-.7c0 0 2.7-1.8 2.2-1.6s-2.9 0-2.9 0L80 62l2.2-2.8-3.1 1.1-.5-.5 1.6-1.1-1.3.1-1.5-.2s1.2-1.7 1.7-2.3l.3-1.6-3.9 1.3.7-1c.7-1 1.4-2.2 1.2-3.6-.2-1.4-1-1.6-1-1.6l-1.4 1-.2 1.9s-.4-1-.8-1.5-.6 0-.6 0V53s-.7.5-1.2 1c0-.1.1-.1.1-.1l.5-4.9-.6-1c-.6-1-1.3-.6-1.3-.6s-.3-.3-.2 1.4c.1 1.8-1.1 4-1.1 4l-.6.4s.2-.7.8-2.3c0 0-.2-1.9-.4-2.1-.2-.2-.1.4-.4.5-.3.1-.5 1.6-.5 1.6l-1.1 1.3s0-.4.6-1.1c.5-.7 0-2.6 0-2.6l-1.4-.5s0 1.3-1 3.1c-.9 1.8-.9.5-1.5.1s.5-.8.5-.8l-1.2.2-.5-.9-.4.8h-.9l-.6-1S59.7 51 59.5 51s-.6-.7-.6-.7l-.3.7-1.4.4c-.7.1-1.5.1-1.5.1s-.4.6-1.2 1-.6.8-.9.8l-1.1.4s-1.5 1.6-2.4 2.4c-1 .9.6 2.3.6 2.3l1.1-.1c1.1-.1 3.2-2.6 3.2-2.6s.5.4.3 1.4c-.1 1-.9 1.1-1.5 1.6-.6.4-.9.9-.9.9s-.4.5.1 1.4.9.6.9.6l.4-.4s4.2-3.4 4.9-3.7c.7-.2 1 .1 1 .1s0 .4-.3.4c0 0-1.2.4-.8 1 .3.6.4.3 1 .3.6-.1.8.2 1.7.5.8.3 1 .4 1.1.4s.4-1.1 1.6-1.7c1.2-.6.2.4.2.4s-.3.8-.5.8-.8 1-.5 1.1.4.7.6 1c.2.4-.2 1.7-.5 1.8-.3.1-.9.2-2.1.2-1.1 0-1.2-.2-1.7-1-.4-.7-1.2-.2-1.6 0-.4.1-.6.6-.6.6l-1 .3c-1 .3-1.2-.4-2.1-1-.9-.5-1.9.5-1.9.5l-.5.1c-.5.1-.4 1.6 0 1.3.4-.3 1.1-.6 2.4-.6 1.3 0 1 .7 1 .7s-.4.2-.7.4c-.3.1-1.7.2-2.3 1.5s.8 2.2.8 2.2.2-1.6.9-2.4c.7-.9 1.5-.2 1.5-.2s-.5 2.2.4 2.7 1.6 0 1.6 0l-.2-.1s-.5-1.1-.9-1.9 0-1.1 0-1.1 1.6.4 1.8 0c.2-.3-.1-.8-.1-.8l1.5-.1.2.1.2.4c.2.4 1.3.9 1.5 1.3s1.9 1 1.9 1H65c1.2 0 .8-.2 2-1.8l.3-2.9s.2-3.2 1.1-4.2c0 0 .5.4.5.5v.3s-.4.9-.6 1.7c-.2.9-.2 2.8-.1 3.4.1.6.9.6 1.5.2.6-.4 1.8-1.3 1.8-1.3s0 .2-.1.5c0 .3-1.5 1.6-1.5 1.6l-6.4 4.6-1.2 1.4c-1.2 1.4 0 1.4 0 1.4l5.7-2.6 1.5-1-.9.8-5.8 3.1-2.6 1.1c-2.6 1.1-5.9.1-7.8-.3-1.9-.4-2.8-1.4-6.8-4.3-1.5-1.1-2.5-3.5-3.4-6-.8-2.4-1.3-4.9-1.4-7.4-.1-4 .7-8.4 3.8-10.9l1.7-1.5c1.8-1.6 3.9-2.9 6.2-3.9 5.5-2.3 9.7-2.3 13.8-2l1.5.5c3 1 5.9 2.2 8.4 4.1l1.1.8c.5.3.4.3 1 .2l.7-.1s-.5-.6-.8-1.5c-.2-.9.2-.7.2-.7s-.9-.4-1.5-.6c-.6-.2-1.2-.8-1.5-1.3s.1-.9-.4-.9-.5 0-1-.1-1.1-.7-1.6-1c-.4-.3 0-1-.3-.8-.3.1-1.2.1-3.1-.5 0 0-.2-1.3-.3-1-.1.3-1.1.3-1.1.3s-2.2-.3-2.6-.6c-.4-.3-.3-1.2-.3-1.2s-1.2.9-1.4 1.1c-.2.2-2 .1-2.4-.6-.5-.7-.8-.3-.8-.3s-.5.4-.8.6c-.3.2-1.9 0-3.1-.1-1.2-.2-1.1-.6-1.1-.3s-.3 1.1-1.6 1.3c-1.2.2-2.6.9-2.6.9l-.9-.8s.1 1.5-.2 1.5c-.4 0-3.6 2.1-3.6 2.1l-.8-.4-.3 1.3s-.7.8-1.9 1.8-2 .9-2 .9 0 1.1-.3 1.9c-.3.7-1.2.1-1.2.1s.4 2.3 0 2.4c-.8.2-1.3-.8-1.6-.6s.3 2.9.3 2.9l-1.3.5.5 1.3s-.3.9-.6.9-1.2.3-1.2.3l.8 2-.9 1.5-1 1.3s-1.1.7-.5 1.1c.6.5 1 .5 1 .5v3.9s-2 .7-1.4.8c.6.1.3 0 .6.2.2.1 1.1.7 1.1.7s0 1.3.8 2.3c.8 1.1.3 1.1.3 1.1s-1.8.9-1.4 1c.4 0 1.8.7 1.8.7s.6.5.7.7c0 .2 1.1 1.6 1.1 1.6l.1.6c.1.6-1.8 1.3-1.3 1.3s2.3.2 2.6.2.3 1 1.1 1.4l.6.3.2.5s-1.8.5-.7 1.1 1.8-.1 1.8-.1.4.6 1.5 1.1.6.2.4.9c-.1.5-.6.7-.8.7.2 0 .7.4 1.1.3.3-.1.6-.4 1-.5.3-.1.7.4 1.7.4s1 .4 1 .8-1.3.7-1.3.7.8.5 1.9.1c1.1-.3 1-.6 1.5-.6s.9.6.9.6 0 .2.1.6c0 .4.4.3 1.1-.1.8-.4.8-.3 1.3-.4s2 .1 2 .1l.4 2 1.7-1.6 2.1-.3.4 1.4.5.7.7-2 1.5-.5s.5 1.5 1.2 1.2l.7-1.2 1.1-1.1s.8 3 1 1.9c.2-1.1 1.7-2.8 1.7-2.8l1 .7s.5.5.8-.3.1-1.1.1-1.1l.6-.1.8-.4-.1 1.7c-.1 1.7.7-.3.7-.3l.7-1.1c.3-.5.2-1 0-1.3.2.2.4.4.6.7.3.4.5.6.6.8l.4-1.2-.8-1.9 2.3 1.9V77c0-.7-.8-2.2-.8-2.2s.7.8.9 1l2.6-.5-.2-.6c-.2-.6-.1-.3-.1-.5s-1.9-1-1.9-1 .6-.1 2.5-.9-1.1-1.6-1.3-1.6c-.2 0-.3-.5-.3-.5l3-.6c3.1-.6.4-.1.4-.1zM54 54.3c-.3 0-.7.5-1 .8-.1.1-.3 0-.3-.2l.1-.3c.1-.3.3-.5.6-.4.5.1.9 0 .6.1zm15.3 1.9c-.6-.5-3-1.1-3-1.1s1.1-.3 2 0c1 .3 1.6 1.7 1 1.1zm-7.1 23.9c-3.9.5-3.5.5-5.5.4-1.9-.1-4.6-.9-6.3-1.3-.4-.1-.7-.2-1-.4-2-1-5.5-3.6-7.3-5.2-1-.9-2-2.3-2.6-3.4-1.7-3-2.4-5.9-2.5-6.5-.1-.8 0-5.1.1-6 0-.9 1.6-7.5 2.3-8.8s1.2-2.7 3.1-4.4c1.7-1.6 5.2-4.2 5.2-4.2.7-.4 2.2-1.1 3.8-1.8 2.3-1.2 4-1.9 4.1-1.8 0 0-2.1.9-4.1 1.8-4.8 2.6-10.7 7.5-12 11.9-1.6 4.9-1.8 8.6-1.9 10.3-.1 1.7.8 6.4 2.6 9.1 1.8 2.7 5.2 6 7.9 7.2s4.2 1.9 7.3 2.6c3 .6 7.6.1 10.4-.6 2.8-.7 5.3-1.4 5.3-1.4s-5 2-8.9 2.5zm15.6-14c-.2 1.7-.3 2.2-.8 3.7-.4 1.4-2.8 3.4-2.3 2.7.6-.8 2-4.7 2-8.1s-3.4-6.1-3.4-6.1 2.2.6 3.2 2.2c1.1 1.5 1.6 2.9 1.3 5.6z"/></svg>