<?xml version="1.0" encoding="utf-8"?>
<!-- Generator: Adobe Illustrator 19.2.1, SVG Export Plug-In . SVG Version: 6.00 Build 0)  -->
<svg version="1.1" id="Layer_1" xmlns="http://www.w3.org/2000/svg" xmlns:xlink="http://www.w3.org/1999/xlink" x="0px" y="0px" viewBox="0 0 40 40" style="enable-background:new 0 0 40 40;" xml:space="preserve">
<style type="text/css">.st0{fill:#00E676;stroke:#000000;}</style>
<path d="M10,12.5h20c0.6,0,1,0.4,1,1l0,0c0,0.6-0.4,1-1,1H10c-0.6,0-1-0.4-1-1l0,0C9,12.9,9.4,12.5,10,12.5z"/>
<path d="M10,19.5h20c0.6,0,1,0.4,1,1l0,0c0,0.6-0.4,1-1,1H10c-0.6,0-1-0.4-1-1l0,0C9,19.9,9.4,19.5,10,19.5z"/>
<path d="M10,26.5h20c0.6,0,1,0.4,1,1l0,0c0,0.6-0.4,1-1,1H10c-0.6,0-1-0.4-1-1l0,0C9,26.9,9.4,26.5,10,26.5z"/>
<circle class="st0" cx="24.5" cy="13" r="2"/>
<circle class="st0" cx="14.5" cy="20" r="2"/>
<circle class="st0" cx="24.5" cy="27" r="2"/>
</svg>
