<?xml version="1.0" encoding="utf-8"?>
<!-- Generator: Adobe Illustrator 26.1.0, SVG Export Plug-In . SVG Version: 6.00 Build 0)  -->
<!DOCTYPE svg PUBLIC "-//W3C//DTD SVG 1.1//EN" "http://www.w3.org/Graphics/SVG/1.1/DTD/svg11.dtd" [
	<!ENTITY ns_extend "http://ns.adobe.com/Extensibility/1.0/">
	<!ENTITY ns_ai "http://ns.adobe.com/AdobeIllustrator/10.0/">
	<!ENTITY ns_graphs "http://ns.adobe.com/Graphs/1.0/">
	<!ENTITY ns_vars "http://ns.adobe.com/Variables/1.0/">
	<!ENTITY ns_imrep "http://ns.adobe.com/ImageReplacement/1.0/">
	<!ENTITY ns_sfw "http://ns.adobe.com/SaveForWeb/1.0/">
	<!ENTITY ns_custom "http://ns.adobe.com/GenericCustomNamespace/1.0/">
	<!ENTITY ns_adobe_xpath "http://ns.adobe.com/XPath/1.0/">
]>
<svg version="1.1" id="Layer_1" xmlns:x="&ns_extend;" xmlns:i="&ns_ai;" xmlns:graph="&ns_graphs;"
	 xmlns="http://www.w3.org/2000/svg" xmlns:xlink="http://www.w3.org/1999/xlink" x="0px" y="0px" viewBox="0 0 673 797"
	 style="enable-background:new 0 0 673 797;" xml:space="preserve">
<style type="text/css">
	.st0{clip-path:url(#SVGID_00000041273190685276764800000004564473181296277892_);}
</style>
<metadata>
	<sfw  xmlns="&ns_sfw;">
		<slices></slices>
		<sliceSourceBounds  bottomLeftOrigin="true" height="481" width="363" x="135.9" y="24"></sliceSourceBounds>
	</sfw>
</metadata>
<g>
	<defs>
		<rect id="SVGID_1_" x="135.9" y="292" width="363" height="481"/>
	</defs>
	<clipPath id="SVGID_00000059306679878546979520000000866778511411739582_">
		<use xlink:href="#SVGID_1_"  style="overflow:visible;"/>
	</clipPath>
	<g style="clip-path:url(#SVGID_00000059306679878546979520000000866778511411739582_);">
		<path d="M418.6,485.5c0-2.6,0.3-5.3-0.5-8c-0.5-1.6-0.7-1.9-2.4-1.9c-0.3,0-0.7,0-1,0c-6.9,0.5-13.7,1.7-20.5,2.7
			c-2.3,0.4-4.6,0.8-6.8,1.2c-1,0.2-2,0.2-3.2,0.3c-0.3,5.7,1.1,11.3,1.4,17c-6.7,1.9-13.1,3.6-19.7,5.5c-0.7-1.8-0.6-3.6-0.5-5.6
			c0.6-0.1,1,0,1.5-0.2c1-0.3,2.1-0.5,3.1-0.9c1.3-0.6,1.9-2.8,1.3-4.6c-0.6-2-1.2-2.3-3.4-2c-0.2,0-0.4,0-0.7,0
			c-1.4-2.3-3.5-3.8-6.5-3.8c-0.2-1.8-0.5-3.3-0.6-4.9c0-0.7,0.6-1.4,0.6-2.1c0-0.5-0.2-1.4-0.6-1.5c-0.6-0.2-1.5-0.2-2.1,0.1
			c-0.3,0.1-0.4,1.2-0.2,1.6c1.2,2.3,0.8,4.8,1.5,7.3c-2.9,0.6-3.6,2.7-3.6,5c-2.5,1.1-3.1,1.8-3,3.9c0.2,2.9,2,4.3,4.7,3.7
			c1-0.2,2.1-0.3,3.2-0.5c0.2,1.5,0.3,2.9,0.6,4.1c0.5,2.3-0.4,4.1-1.8,5.8c-3.5,4.4-7.2,8.8-9.7,13.9c-1.7,3.5-4.3,6.1-6.9,8.8
			c-1.6,1.7-3.3,3.4-4.3,5.4c-1.9,3.7-4.3,7-6.9,10.1c-2.9,3.4-5.8,6.9-8.6,10.4c-1.8,2.2-3.4,4.6-5.2,7.1c-0.6-0.6-1.2-1.1-1.6-1.4
			c3.5-10.4,7-20.5,10.4-30.6c1.7,0.3,3.2,0.6,4.6,0.7c0.8,0.1,1.7,0,2.3-0.3c2.6-1.4,4.3-3.5,4.8-6.5c0.1-0.9,0.4-1.7,0.5-2.6
			c0.3-3.3,0.7-6.5-0.3-9.7c-0.8-2.8-2.1-5.3-4-7.6c1.1-1.7,2.1-3.2,4.1-3.5c0.2-0.9,0-1.5-0.7-1.8c-1.1-0.4-2.2-1.2-3.5-0.3
			c0.3,0.6,0.6,1.2,1,1.8c-0.7,1-1.5,1.9-2.2,2.8c-0.8-0.5-1.3-0.9-2-1.2c-3.1-1.4-7.1-2.1-10,2c-2.2,3.1-3.4,6.8-3,10.6
			c0.4,4.1,1.5,8.1,4,11.4c0.5,0.7,0.6,1.3,0.3,2.1c-1.9,5.3-3.7,10.7-5.7,16c-1.7,4.3-3.7,8.3-5.6,12.5c-0.3,0.6-0.7,1-1.3,1.1
			c-0.5,0.1-1.1,0.2-1.7,0.3c0-3.5-0.1-6.9,0-10.3c0.2-8.1,0.5-16.3,0.7-24.4c0.1-4.6,0.1-9.2,0.2-13.7c0.2-7.2,0.5-14.5,0.7-21.7
			c0.2-5.9,0.4-11.8,0.7-17.6c0.3-5.4,0.8-10.9,0.9-16.3c0.1-4.8,0.3-9.6,0.4-14.3c0.3-9.1,0.6-18.2,0.7-27.3
			c0.1-12.3,0.1-24.6,0.1-36.9c0-6.2-0.2-12.4-0.3-18.6c-0.1-4.7-0.2-9.4-0.3-14.1c-0.1-3.4-0.3-6.8-0.3-10.2
			c0.1-6.3,0.4-12.6,0.4-18.9c0-5.9,0-11.9-0.2-17.8c-0.1-2.3-0.1-5.2-1.3-5.1c-0.3,0.2-0.6,0.3-0.9,0.5c0.1-0.2,0.1-0.3,0.2-0.5
			c-1.6,0-15,1.6-15.5,1.8c-0.8,0.4,2.7,1,1.8,2c0.8-0.1,1.7-0.1,2.7-0.2c0.1,1.3,0.3,2.4,0.4,3.5c0.1,2.8,0.7,5.6,0.1,8.4
			c-0.1,0.7,0,1.4,0,2c0,3.9,0,7.8,0,11.7c0,0.5-0.1,1.1,0,1.6c0.4,2.2-0.1,4.3-0.5,6.5c-0.2,0.9-0.2,1.9-0.2,2.8c0,0.3,0,0.7,0,1
			c-0.8,5.9-0.4,12-1.4,17.9c-0.4,2.6-0.8,5.1-1.2,7.7c-0.2,1.6-0.3,3.3-0.5,4.9c-0.3,2.2-0.6,4.4-1,6.6c-0.2,1.5-0.6,2.9-0.8,4.4
			c-0.5,3.2-0.9,6.3-1.3,9.5c-0.6,5-1.1,10.1-1.5,15.1c-0.3,3.2-0.5,6.4-0.7,9.6c-0.3,4.4-0.6,8.7-0.8,13.1
			c-0.2,4.4-0.3,8.7-0.3,13.1c0,7.5,0.1,14.9,0,22.4c-0.1,7.4-1,14.7-2.5,21.9c-0.5,2.3-0.8,4.6-1.1,6.9c-0.5,4.4-1,8.8-1.4,13.2
			c-0.4,4-0.5,8-0.9,12c-0.4,3.3-0.5,6.7,0,10c1.1,6.6,1.9,13.2,4.7,19.4c1.1,2.5,1.8,5.3,2.5,8c1.1,3.7,3,7,4.9,10.3
			c0.4,0.7,0.8,1.4,1.4,2.2c-0.6,0-0.9,0.2-1.2,0.1c-4.3-1.1-8.6-1.3-13-1.5c-2.5-0.1-5-0.8-7.5-1.1c-2.4-0.3-4.9-0.4-7.3-0.7
			c-1.5-0.2-2.9-0.5-4.5-0.8c0.4-2.8,0.8-5.4,1.2-7.9c2-12.8,4-25.6,6.1-38.4c1.6-9.6,3.4-19.1,4.9-28.7c2-12.5,4-25,5.9-37.4
			c1.4-8.8,2.8-17.7,4-26.5c0.6-4.5,0.9-9,1.4-13.5c0.9-9.5,1.8-19.1,2.6-28.6c0.3-3.5,0.5-7.1,0.7-10.6c0.5-5.9,1-11.7,1.5-17.6
			c0.4-4.8,0.7-9.5,1-14.3c0.4-5.8,0.7-11.7,1.2-17.5c0.3-4,0.8-8,1.1-12c0.2-2.2,1-6.2,1.2-8.5c0-0.4,1.3-1.3,1.4-1.7
			c-0.7,0.8-2.4-1.4-3.2-0.2c0,1.2-0.9,7.5-1.1,8.4c-0.2,1.5-0.6,7.9-0.7,8.6c-0.7,8.2-1.3,16.5-2,24.7c-0.4,4.7-0.7,9.4-1.2,14.1
			c-0.5,5.7-1.2,11.4-1.7,17.1c-0.7,7.8-1.2,15.5-1.9,23.3c-0.6,6.9-1.2,13.8-1.9,20.6c-0.6,5.4-1.4,10.8-2.2,16.2
			c-0.5,3.2-1.2,6.3-1.8,9.4c-0.2,0.9-0.2,1.8-0.3,2.6c-0.1,1.1-0.3,2.3-0.5,3.4c-0.2,0.9-0.4,1.9-0.5,2.8c-0.5,4-0.8,8.1-1.7,12.1
			c-1,4.8-1.7,9.7-2.5,14.5c-0.6,3.6-0.9,7.2-1.5,10.7c-0.8,4.6-1.7,9.1-2.5,13.7c-0.8,4.4-1.5,8.8-2.2,13.1
			c-1.5,8.8-3,17.5-4.4,26.3c-1.5,9.5-3,19-4.3,28.6c-0.3,2.1-1.1,3.1-3.1,3.5c-3.6,0.7-6.8,2.3-10,4c-2.8,1.4-5.7,2.6-8.6,3.8
			c-1.4,0.6-2.8,1.3-4.2,2c-2.1,1.1-4.3,2.1-6.4,3.2c-1,0.5-2,1.1-3,1.6c0,1.4,0.7,2.2,1.5,3c0.6,0.7,1.3,1.4,1.7,2.3
			c2.6,5.9,6.4,11,10.2,16.4c-2.7,3.1-5.4,6.3-8.2,9.5c-1,1.2-2.1,2.4-3.1,3.5c-0.7,0.8-0.8,1.6-0.3,2.4c0.3,0.5,0.6,1.1,1,1.5
			c4.4,4.9,8.6,10.1,14.1,13.8c0.3,0.2,0.6,0.5,0.9,0.8c2.2,2.1,4.4,4.2,6.7,6.4c-0.1,1.1-0.2,2.2-0.4,3.4
			c-0.6,4.5-1.2,8.9-1.8,13.4c-0.7,5.3-1.3,10.6-1.9,15.9c-0.6,4.9-1.2,9.7-1.7,14.6c-0.3,2.6-0.6,5.1-0.9,7.7
			c-0.4,4.1-0.9,8.3-1.3,12.4c-0.4,4.6-0.7,9.2-1,13.9c-0.2,2-0.4,4.1-0.6,6.1c-0.3,3.2-0.4,6.4-0.9,9.6c-0.7,4.5-0.7,9.1-0.9,13.7
			c-0.1,2.3-0.1,4.7-0.6,6.9c-0.6,2.5-0.5,4.9,0.1,7.3c0.1,0.3,0.4,0.6,0.6,0.9c1-0.4,0.8-1.2,0.8-1.8c0.1-1.4,0.2-2.9,0.3-4.3
			c0.2-1.4,0.6-2.8,0.7-4.2c0.5-6.3,0.8-12.5,1.3-18.8c0.3-4.4,0.8-8.7,1.2-13.1c0.5-5.9,0.9-11.7,1.4-17.6c0.6-6.1,1.3-12.1,2-18.1
			c0.8-7.3,1.6-14.5,2.5-21.8c1-8.1,2.1-16.1,3.2-24.2c0.6-4.7,1.2-9.4,1.8-14c0.1-0.7,0.1-1.6,0.5-1.9c1.5-1.2,1-2.6,0.7-4.1
			c-0.1-0.7-0.2-1.4-0.1-2c1.1-7.9,2.1-15.7,3.2-23.6c0.1-0.9,0.3-1.7,0.5-2.6c1.1,0.2,2,0.3,2.9,0.5c4.8,0.8,9.5,1.7,14.3,2.5
			c1.4,0.3,2.8,0.5,4.2,1c4.1,1.5,8.5,2.1,12.7,2.9c2.9,0.6,5.9,1.1,8.9,1.5c2.3,0.3,4.5,1.2,6.9,0.9c0-0.7,0.1-1.3,0.1-1.9
			c-0.7,0-1.2-0.1-1.7-0.1c-2,0.1-3.9-0.2-5.9-0.6c-1.9-0.4-3.8-0.7-5.6-1c-5.6-0.9-11.4-1.2-16.8-3.3c-0.5-0.2-1.1-0.3-1.6-0.4
			c-4.1-0.7-8.2-1.4-12.3-2.1c-1.6-0.3-3.2-0.6-4.8-0.9c-1-0.2-1.2-0.7-0.8-1.5c3.8,0.5,7.6,1.1,11.4,1.6c2,0.3,4.1,0.4,6.1,0.9
			c5.2,1.2,10.4,2.5,15.8,3c4.9,0.4,9.7,1.9,14.6,3.1c2.6,0.6,2.6,0.8,2.6,3.5c0,2.4,0,4.8,0.1,7.2c0.3,7,0.7,14.1,0.9,21.1
			c0.1,4.4-0.2,8.7-0.2,13.1c0,3.7,0.2,7.4,0.3,11.1c0.1,4.1,0,8.2,0.2,12.3c0.5,8.9,1.1,17.9,1.5,26.8c0.3,5.3,0.4,10.5,0.7,15.8
			c0.3,6.6,0.6,13.2,1,19.9c0.5,11.1,1.1,22.1,1.6,33.2c0,0.7,0.1,1.3,0.1,2c0.8,0,1.4,0.1,2.1,0.1c0.1-0.6,0.2-1,0.2-1.5
			c0-1.6-0.1-3.3-0.2-4.9c-0.6-7.2-1.2-14.4-1.3-21.7c-0.1-4.9-0.3-9.8-0.5-14.8c-0.4-8.4-0.9-16.8-1.3-25.2
			c-0.2-3.8-0.4-7.5-0.6-11.3c-0.4-7-1.1-14-1.3-21.1c-0.3-11.1-0.3-22.3-0.6-33.4c-0.2-6.7-0.7-13.4-1-20.1c0-0.7,0-1.4,0-2
			c0.4,0.2,0.6,0.5,0.6,0.7c2.6,9.4,5.2,18.8,7.7,28.3c1.4,5.1,2.8,10.3,4.2,15.4c0.6,2.2,1,4.5,1.6,6.8c1,3.8,2,7.5,2.9,11.3
			c1,4.1,1.9,8.2,2.8,12.4c1.1,4.8,2.3,9.6,3.4,14.4c2.5,11.2,4.9,22.4,7.4,33.6c0.4,2,1,3.9,1.5,6c-0.7,0.3-1.2,0.4-1.6,0.7
			c-0.3,0.3-0.7,0.7-0.8,1.1c-0.1,1.7,0,3.5,1.5,4.7c0.8,0.6,1.9,1,3.1,1.5c-0.1-0.2,0,0,0,0.1c1.8,6.9,4.7,13.4,5.7,20.5
			c0.2,1.3,0.5,2.7,1.8,3.6c0.6-0.3,1.1-0.7,1.5-0.9c-0.5-1.9-0.9-3.6-1.3-5.4c-0.2-0.9-0.4-1.7-0.6-2.6c-1.2-4.2-2.5-8.4-3.7-12.6
			c-0.4-1.3-0.5-2.6-0.9-3.9c-0.6-2-1.5-4-2-6c-1.5-5.7-2.9-11.4-4.3-17.1c-1.1-4.8-2.4-9.5-3.3-14.4c-2.1-12.1-5.5-23.8-8.1-35.8
			c-0.7-3.3-1.7-6.5-2.5-9.7c-0.4-1.5-0.2-1.7,1.5-1.7c0.4,1.4,0.7,2.8,1.1,4.1c1,2.9,1.5,5.9,2.5,8.8c1.2,3.4,1.7,7,2.5,10.5
			c0.3,1.1,0.6,2.2,0.8,3.4c1.4,5.8,2.8,11.6,4.2,17.3c0.3,1.4,1,2.7,1.4,4.1c0.9,3.7,1.7,7.4,2.5,11.2c1.5,7,2.9,14,4.3,21.1
			c0.4,1.9,1,3.8,1.6,5.7c0.5,1.6,1.1,3.1,1.6,4.6c0.4,1.2,0.6,2.4,0.9,3.6c0.6,2.5,1.3,5,1.9,7.5c0.4,1.9,0.7,3.8,1.1,5.6
			c0.1,0.6,0.6,0.9,1.2,0.8c0.7-0.2,0.8-0.6,0.6-1.2c-0.7-2.9-1.3-5.7-1.9-8.6c-0.5-2-1-3.9-1.5-6c1.5-0.9,2.9-1.7,4.3-2.5
			c0.5-0.3,1.1-0.4,1.7-0.6c1.3-0.4,2.8-0.7,4-1.3c3.1-1.5,6.1-3.1,9.1-4.6c0.6-0.3,1.2-0.5,2.1-0.8c0.3,1.6,0.6,2.9,0.8,4.2
			c0.5,3,0.9,5.9,1.3,8.9c0.2,1.3,0.8,2.1,1.9,2.2c0.8-0.9,1.5-1.7,2-2.4c0.9,0.4,1.5,0.7,2.3,1.1c0.1-1.1,0.5-1.9,0-2.8
			c-0.4-0.8-0.7-1.6-0.9-2.4c-0.8-3.3-1.5-6.5-2.2-9.8c-1-4.9-1.9-9.8-2.9-14.7c1.6-0.5,1.8-1.9,2.3-3.2c1.6-4.8,1.4-9.9,1.5-14.8
			c0.2-5.8,1.4-11.2,2.9-16.7c0.1-0.5,0.5-1.2,0.9-1.3c1.5-0.5,3.1-1,4.5-0.5c0.6,1.7,1.2,3.1,1.8,4.5c0.2,0.5,0.4,1.1,0.3,1.6
			c-0.2,2.6-0.6,5.1-0.8,7.7c-0.2,1.7-0.3,3.4-0.3,5.1c0,0.4,0.2,0.8,0.4,1.1c1,1,2.2,1.4,3.5,1.2c1.3-0.2,1.9-1,2.4-2.2
			c0.8-2.2,1.7-4.3,2.7-6.4c1.4-3,2.1-6.1,2-9.3c0-1,0.3-1.6,1.1-2.2c0.5-0.4,1.1-1.1,1.2-1.8c0.3-2,0.3-3.9,0.4-5.9
			c0-0.2-0.1-0.6-0.3-0.7c-1.6-1.8-3.5-3.1-5.9-2.8c-1.1,0.1-2.2,0.1-3.2-0.4c-1.4-0.7-2.7-0.5-3.7,0.7c-1,1.2-2.1,0.8-3.3,0.4
			c0.2-1,0.4-1.9,0.5-2.9c0.3-2.7,0.5-5.4,0.8-8.1c0.2-2.3,0.5-4.6,0.9-6.9c0.2-1.2,0.4-2.4,0.7-3.6c0.7-2.4,1.6-4.8,2.4-7.2
			c0.4-1.2,0.5-2.5,0.8-3.8c0-0.2,0.1-0.4,0-0.6c-0.7-0.9-0.3-1.8-0.1-2.8c0.6-2.4,1.1-4.8,1.8-7.1c1.4-5,1.5-10.3,1.8-15.4
			c0.3-4.1,0.1-8.2,0.3-12.3c0.2-3.1-0.7-5.6-2.5-8c-1.7-2.3-3.2-4.7-4.9-7.1c-0.7-1-1.4-2-2.3-2.8c-1.6-1.4-2.6-3.3-3.7-5.1
			c-0.6-1.1-1.2-2.2-1.2-3.6c0-2-0.3-4-0.5-5.9c-0.4-4-1.1-7.8-2.7-11.5c-0.3-0.7-0.6-1.4-1-2c-1.4-2.1-3-4.2-4.4-6.4
			c-1.5-2.4-3.8-3.6-6.3-4.1c-1.9-0.4-3.8-0.3-5.7-0.2c-2.9,0.1-5.8,0.3-8.7,0.6c-1.2,0.1-2.3,0.5-3.6,0.8c-0.1-0.2-0.3-0.5-0.6-0.8
			c-1-1.2-2.2-2.1-3.9-1.8c-1.7,0.3-3,1.2-3.3,3.1c0,0.3-0.2,0.7-0.3,1c-0.5,1.1-2,1.8-3.2,1.4c-2.2-0.7-2.6-0.4-2.4,2
			c0,0.1,0,0.3-0.1,0.5c-4.4,3.1-9.4,5.2-14.4,7.7c-0.7-1.4-1.3-2.6-1.9-3.8c0.4-0.5,0.7-1,1.1-1.4c3.5-4.3,7.1-8.6,10.6-13
			c3.7-4.6,7.4-9.3,10.9-14.1c4.6-6.2,9.2-12.4,13.7-18.6c1.2-1.6,2.1-3.5,3.3-5.2c1.8-2.4,3.7-4.8,5.4-7.2c0.6-0.8,1.2-1.1,2.2-1.3
			c1.9-0.3,3.9-0.6,5.8-1.3c2.8-0.9,5.4-2.2,8.2-3.2c1.2-0.5,2.3-1.1,3.7-0.7c0.6,5.9,1.2,11.7,1.8,17.8c10.8-1.4,21.5-1.2,32.2-3.3
			c0-2.4,0-4.7,0-7C418.9,501,418.8,493.3,418.6,485.5L418.6,485.5z M367.9,491.3c0.4-0.7,1.3-0.6,1.5,0.2c0.1,0.7,0.2,1.5-0.1,2.2
			c-0.2,0.4-0.9,0.8-1.4,0.8c-0.2,0-0.5-0.8-0.8-1.2C367.5,492.5,367.6,491.8,367.9,491.3L367.9,491.3z M356.9,496.8
			c-0.6,0.3-1.3,0.7-2.1,0c-0.7-0.6-1.1-2.6-0.7-3.5c0.3-0.7,0.7-0.8,2.7-0.8L356.9,496.8L356.9,496.8z M344.2,746
			c-1.9,0-2.4-0.4-2.5-1.7c-0.2-1.5-0.1-1.8,1.5-2.3C343.5,743.4,343.8,744.6,344.2,746L344.2,746z M391.5,693.6
			c0.3-0.1,0.8-0.4,1.3-0.5c1.2-0.2,1.8-0.6,1.5-1.7c-0.3-1.6-0.3-3.3-1.7-4.4c-0.8-0.6-0.9-1.6-0.5-2.4c0.5-0.8,1.4-1.1,2.4-0.8
			c2.4,0.6,4.8,1.3,7.3,1.9c0.5,1.9,0.6,3.7,0,5.5c-0.2,0.6-0.6,1.3-1.1,1.6c-1.1,0.7-1.2,1.7-1.3,2.8c0,3.3-0.1,6.5-1.7,9.5
			c-1,1.8-1.3,4-2,6c-0.3,0.8-0.6,1.5-0.9,2.2c-2.8-0.9-2.9-0.9-2.8-3.6c0-1.3,0.3-2.7,0.5-4c0.8-0.2,1.3-0.3,2.2-0.4
			c-0.9-1-2.6-1.5-1.4-3.3c0.8-0.2,1.8-0.4,2.8-0.6c-0.3-1.5-1.5-1.7-2.8-1.6c0-0.2,0-0.3,0.1-0.5c0.4-0.1,0.9-0.3,1.3-0.4
			c0.5-0.2,1-0.3,1.7-0.5c-1-1.2-2.1-0.7-3.3-0.6C392.2,696.5,390.7,695.6,391.5,693.6L391.5,693.6z M357.2,490.6
			c0.2-2.4,0.6-2.9,2.8-3.3c2.2-0.5,3.8,0.3,4.9,2.3C362.4,489.9,359.9,490.3,357.2,490.6L357.2,490.6z M360.9,496
			c-1.7,0.5-2.4,0.3-2.7-0.8c-0.4-1.3,0.4-2.8,1.7-3.2c0.5-0.2,1-0.2,1.7-0.4c-0.1,1.5-0.2,2.7-0.3,4.1
			C361.4,495.7,361.2,495.9,360.9,496L360.9,496z M321.6,522.7c-1.6-3.4-2.3-7-1.7-10.8c0.5-3.3,2-6,5.3-7.4
			c1.8-0.7,3.5-0.7,5.1,0.1c3.1,1.5,5,4,6.1,7.3c1.6,4.6,1.2,9.2,0.3,13.8c-0.4,2.2-1.8,3.8-3.8,4.8c-0.6,0.3-1.3,0.4-2,0.3
			c-2.4-0.2-4.3-1.3-6-3.2c1.2-2.8,2.4-5.7,3.6-8.5c-1.6-1-1.9-0.9-2.2,0.7c-0.5,2.2-1.5,4.2-2.7,6.6
			C322.8,524.9,322.1,523.8,321.6,522.7L321.6,522.7z M314.8,554.6c3.3-6.8,6-13.9,8.3-21.1c0.4-1.2,0.8-2.3,1.2-3.4
			c0.2-0.1,0.3-0.2,0.4-0.2c0.3,0.1,0.6,0.3,0.9,0.5c-2.2,7-4.4,13.7-6.6,20.5c-0.9,2.7-1.8,5.4-2.8,8.1c-0.2,0.6-0.8,1.2-1.3,1.8
			c-0.7-0.5-1.2-0.9-2-1.4C313.6,557.7,314.1,556.1,314.8,554.6L314.8,554.6z M292.9,551.7c-2.3-6.3-4.3-12.7-6-19.1
			c-1.5-5.7-2.7-11.6-2.3-17.6c0.4-6.1,0.4-12.3,1.5-18.3c0.6-3.5,0.8-7.1,1.2-10.6c0.2-1.6,0.4-3.1,0.7-4.7
			c2-10.5,3.1-21.1,2.8-31.8c-0.2-9.9-0.3-19.8-0.1-29.7c0.1-5,0.7-10.1,1.1-15.1c0.3-3.8,0.8-7.6,1.3-11.4c0.2-1.4,0.6-2.8,0.7-4.2
			c0.7-5.6,1-11.3,1.9-16.9c0.7-4.4,0.7-8.8,1.2-13.2c0.1-1.2,0.2-2.3,0.4-3.5c0.7-6,1.3-12.1,2-18.1c0.4-3.7,0.8-7.5,1.1-11.2
			c0.2-2.1,0.3-4.2,0.4-6.3c0.1-2.1,0.3-4.3,0.1-6.3c-0.4-3.9,0.4-7.8,0-11.6c-0.1-1.2-0.2-2.3-0.3-3.5c0-0.9,0-1.9,0-3
			c3.3,1.3,6-0.9,9.2-0.7c0.1,2.5,0.2,5,0.3,7.4c0,6.4,0,12.8,0,19.3c0,3.3-0.3,6.7-0.3,10c0.1,5.2,0.4,10.4,0.5,15.6
			c0,1.4-0.1,2.9-0.1,4.3c0,1.2,0.2,2.3,0.2,3.5c0.1,5,0.2,10.1,0.3,15.2c0.1,6.8,0.3,13.5,0.2,20.3c0,8.7-0.2,17.4-0.4,26
			c-0.1,7.7-0.3,15.4-0.5,23.2c-0.1,4.9-0.4,9.8-0.5,14.8c-0.2,4.6-0.2,9.2-0.6,13.7c-0.6,7.2-0.8,14.5-1,21.7
			c-0.2,10.2-0.7,20.3-1,30.5c-0.2,8.7-0.2,17.5-0.7,26.2c-0.2,4.6-0.3,9.3-0.2,13.9c0,1.7-1,2.7-2.7,2.4c-1.3-0.2-2.7-0.5-4-0.9
			c-0.5-0.2-1.1-0.6-1.4-1.1C296.2,557.7,294.1,554.9,292.9,551.7L292.9,551.7z M303.6,564.7c-0.5,0.2-0.7,0.4-0.8,0.3
			c-0.2-0.1-0.4-0.3-0.6-0.4c0.1-0.1,0.2-0.3,0.3-0.3C302.7,564.3,302.9,564.4,303.6,564.7L303.6,564.7z M263.1,559.1
			c5.3,0.7,10.4,1.4,15.6,2c2.3,0.3,4.6,0.5,6.9,0.7c2.8,0.3,5.5,0.6,8.3,1c0.9,0.1,1.7,0.4,2.6,0.4c1.8,0.1,3.2,0.7,4.2,2.1
			c0.3,0.4,0.7,0.8,1.1,1.2c-1.2,2.3-1.2,2.4-3.6,2c-3.8-0.6-7.6-1.4-11.5-1.9c-2.9-0.4-5.8-0.6-8.7-0.9c-0.3,0-0.6,0-0.8-0.1
			c-4-1.3-8.1-1.2-12.2-1.1c-0.5,0-1,0-1.4-0.1c-0.3-0.1-0.6-0.2-1.2-0.4C262.6,562.3,262.9,560.7,263.1,559.1L263.1,559.1z
			 M270.4,574.8c-1,0-1-0.7-1.1-1.4c-0.3-2.2-0.6-4.4-0.9-6.7c0.8-0.4,1.3-0.4,1.4,0.4c0.3,2.4,0.6,4.8,0.9,7.3
			C270.7,574.4,270.5,574.6,270.4,574.8L270.4,574.8z M271,578.1c-0.1,0.4-0.9,0.6-1.3,0.8c-0.2-0.1-0.3-0.2-0.5-0.3
			c0.1-1,0.1-2.1,0.2-3.3C270.6,576.1,271.3,577,271,578.1L271,578.1z M273.3,579.6c2.3-0.6,4.7-0.8,7.4-1.3
			c-0.2,1.1-0.3,1.9-0.4,2.6c-0.4,3-0.9,5.9-1.4,8.9c-0.2,1.4-0.4,1.5-1.7,1.4c-0.1,0-0.3,0-0.4,0c-3.8-0.6-7.6-1.3-11.4-1.9
			c-0.1,0-0.2-0.1-0.5-0.4c0.4-0.7,0.8-1.5,1.2-2.2c0.5-0.8,0.9-1.7,1.4-2.5C269.8,579.8,268.7,580.8,273.3,579.6L273.3,579.6z
			 M273,577.8c-0.5-3.8-1.1-7.5-1.6-11.6c1.5,0.2,2.6,0.4,3.7,0.6c3.3,0.5,6.6,0.9,9.9,1.4c2,0.3,4,0.7,5.9,1
			c0.1,1.1,0.1,1.9,0.2,2.7c0.1,0.7,0.3,1.4,0.4,2.1C285.3,575.9,279.2,577.4,273,577.8L273,577.8z M292,577.3
			c0.3,2.3,0.7,4.6,1,7.1c-3.7,0.8-7.4,1.6-11.4,2.5c0.1-0.9,0.1-1.5,0.2-2.2c0.2-1.8,0.5-3.5,0.7-5.3c0.1-0.7,0.3-1.3,1.1-1.5
			c1.9-0.5,3.8-1.1,5.7-1.6c0.4-0.1,0.8-0.1,1.2-0.2C291.4,576.1,291.9,576.4,292,577.3L292,577.3z M281.3,588.9
			c3.1-1.3,9.9-2.8,12.2-2.7c0.4,2.3,0.9,4.7,1.4,7.2c-4.8-0.6-9.3-1.3-14-1.9C281,590.5,281.1,589.6,281.3,588.9z M294.7,585.6
			c3-0.6,5.7-1.1,8.8-1.8c1.3,3.8,2.5,7.4,3.8,11.2c-0.8,0.2-1.4,0.4-1.9,0.3c-2.3-0.3-4.7-0.8-7-1.1c-1.2-0.2-2-0.7-2.2-2
			C295.7,590.2,295.2,588,294.7,585.6L294.7,585.6z M294.5,584.1c-0.4-2.6-0.9-5-1.2-7.5c0-0.3,0.4-0.6,0.4-0.9c0-1-0.1-2-0.2-2.9
			c-0.1-0.9-0.4-1.7-0.6-2.7c1.5-0.3,2.8,0.1,4.1,0.4c3.1,0.8,3,0.8,3.7,3.8c0.5,2.2,1.3,4.3,1.9,6.5c0.1,0.4,0.2,0.9,0.3,1.5
			C300.1,582.9,297.4,583.5,294.5,584.1L294.5,584.1z M261.9,566.4c1.4,0,2.6,0,3.8,0c0.8,0,1.3,0.4,1.3,1.2c0,2.1,0,4.2,0,6.5
			c-1.9,0.2-3.9,0.3-6.4,0.5C261.1,571.6,261.5,569,261.9,566.4z M260.5,576h6.6c0.4,2.7,0.7,5.5-1.2,8c-1.1,1.5-2.1,3.2-3.2,5
			c-1.3-0.4-2.4-0.8-3.6-1.1C259.2,583.8,259.8,580,260.5,576L260.5,576z M236.6,599.8c-1.1-1.7-2.3-3.4-3.3-5.1
			c-1.3-2.2-2.5-4.5-3.7-6.8c-0.5-0.9-1-1.8-1.6-2.9c0.8-0.4,1.6-0.8,2.5-1.2c1,1.8,1.9,3.4,2.8,5.1c1.7,3.2,3.4,6.3,5.1,9.5
			c0.5,1.1,0.9,2.3,1.2,3.4c0,0.1-0.2,0.3-0.3,0.6C238.1,601.8,237.2,600.8,236.6,599.8L236.6,599.8z M230.2,621.8
			c0.2-0.2,0.3-0.3,0.5-0.5c1.4,1.3,2.9,2.4,4,3.9c2.2,2.8,4.5,5.2,7.6,7c0.6,0.3,0.9,1,1.3,1.6C238,630.9,234.1,626.4,230.2,621.8
			L230.2,621.8z M245.6,636.1c-0.3-0.2-0.5-0.5-0.8-0.7c0-0.1,0.1-0.1,0.1-0.2c0.3,0.2,0.6,0.4,0.9,0.7
			C245.8,635.9,245.7,636,245.6,636.1L245.6,636.1z M248.9,639.6c-0.6-0.7-1.3-1.3-1.9-2c0.1-0.1,0.2-0.2,0.3-0.3
			c0.7,0.6,1.3,1.3,2,1.9C249.2,639.3,249,639.5,248.9,639.6L248.9,639.6z M251.2,626.8c-0.6,2.9-0.9,5.9-1.3,8.9
			c0,0.2-0.1,0.5-0.2,1c-0.7-0.5-1.3-0.8-1.7-1.3c-1.2-1.1-2.2-2.4-3.4-3.5c-1.1-1-2.4-1.7-3.5-2.7c-1.2-1.1-2.6-2.1-3.5-3.4
			c-1.8-2.4-4.1-4.2-6.4-5.9c-0.4-0.3-0.8-0.4-1.5-0.8c3.9-3.8,7.4-7.1,11-10.5c1.2,0.9,1.8,2.3,2.5,3.5c2.1,3.4,3.9,7,6.7,10
			C251.1,623.5,251.6,624.9,251.2,626.8L251.2,626.8z M241.6,607.7c0.6-0.6,1.1-1.2,1.9-2c1,2,1.8,3.8,2.7,5.6
			c0.9,1.6,1.8,3.2,2.7,4.8c0.7,1.2,1.4,2.4,1.2,4C247,616.2,244.7,611.7,241.6,607.7L241.6,607.7z M252,619
			c-2.6-4.8-5.1-9.4-7.6-13.9c2.9-4.2,7-7.1,10.6-10.8C255.4,596.3,253.2,614.1,252,619z M254.3,593.1c-2.4,2-4.6,4.3-6.8,6.5
			c-3.1,3.2-6.2,6.6-9.3,9.8c-2.5,2.6-5.2,5-7.8,7.5c-0.6,0.5-1.2,0.7-1.7-0.1c2.4-3.9,21.7-24.4,27.6-29.2
			C256.2,589.8,256,591.6,254.3,593.1L254.3,593.1z M258.1,574.4c-0.4,3.1-0.8,6.2-1.4,9.3c-0.1,0.8-0.5,1.5-1,2.2
			c-0.9,1.2-1.9,2.3-3,3.4c-3.4,3.4-6.8,6.8-10.3,10.2c-0.4,0.4-0.8,0.7-1.5,1.2c-3.1-5.9-6-11.5-9-17.2c8.4-4.2,17.3-7,26.1-10.5
			C258.1,573.5,258.2,574,258.1,574.4L258.1,574.4z M257.5,571.3c-3.4,1.5-6.9,2.9-10.3,4.3c-4.5,1.8-9.1,3.7-13.6,5.5
			c-1.9,0.8-3.8,1.5-5.7,2.1c-0.5,0.2-1,0.1-1.5,0.1c0-0.1-0.1-0.3-0.1-0.4c3.8-2,7.6-4.3,11.6-5.9c4-1.6,8-3.3,11.9-5.5
			c2.8-1.5,5.8-2.2,8.8-3C259,570.4,259,570.7,257.5,571.3L257.5,571.3z M305.9,599.1c-3.3-1.4-6.8-0.9-10.2-1.4
			c-3.9-0.6-7.8-0.9-11.7-1.3c-0.9-0.1-1.9-0.3-2.8-0.6c-4.5-1.7-9.4-1.6-14.1-2.2c-2.6-0.4-5.1-0.9-7.6-1.3c-0.3-0.1-0.6-0.3-1-0.4
			c0.1-0.7,0.3-1.3,0.4-2c2.1,0.4,4,0.8,5.9,1.1c1.5,0.3,3.1,0.4,4.7,0.6c2.6,0.4,5.2,1,7.8,1.4c3.2,0.5,6.3,1,9.5,1.1
			c4,0.2,7.7,1.4,11.6,2.3c1.2,0.3,2.5,0.4,3.8,0.7c0.7,0.1,1.3,0.3,2,0.4c0.9,0.1,1.8,0.2,3.1,0.4c0.1,0.2,0.3,0.8,0.6,1.7
			C306.9,599.4,306.4,599.4,305.9,599.1L305.9,599.1z M309.6,595.5c-2-5.7-3.8-11.4-5.6-17.1c-0.7-2.2-1.4-4.4-2.1-6.6
			c-0.3-0.9-0.5-1.9,1.2-2.6c1.1,2.7,2.2,5.3,3.2,8c1.3,3.7,2.6,7.5,3.8,11.2c0.9,2.7,1.6,5.5,2.4,8.2c0.2,0.6,0.6,1.2,0.8,1.9
			c0.4,1.2,0.3,1.2-1.2,1.8C310.8,598.9,310.2,597.2,309.6,595.5L309.6,595.5z M304.7,568.8c0.6,0,1.1-0.1,1.5,0.1
			c2.2,0.9,7.2,5.8,8.4,8.2c-1.9,1.1-3.6,2.1-5.5,3.2C307.6,576.5,306.2,572.7,304.7,568.8L304.7,568.8z M326.6,661.6
			c-0.7-2.4-1.3-4.7-1.9-7c-2.2-8.4-4.4-16.8-6.7-25.1c-1.5-5.4-3.2-10.7-4.6-16.1c-0.9-3.6-1.6-7.3-2.4-11.1h2.2
			c1,4.1,2.3,8.2,2.7,12.5c0.2,2.5,1,4.9,1.6,7.4c1.4,4.9,2.9,9.8,4.4,14.7c0.6,2,1,4.1,1.5,6.2c1.4,5.6,3.4,11.1,4.5,16.8
			C328,660.7,328.1,661.4,326.6,661.6L326.6,661.6z M327.1,591.6c-0.8-3.7-1.5-7.3-2.2-11c-0.4-1.8-0.9-3.5-1.4-5.5
			c1.4-0.5,2.5-0.9,3.8-1.4c2.9,9.1,6.1,18.1,8,27.7c-3.1,1.2-6.2,2.4-9.3,3.6c-3.1,1.2-6.2,2.4-9.5,3.7c-0.6-2.1-1.3-4.1-1.9-6.2
			c-0.3-1.1,0.5-1.6,1.2-2.1c2-1.2,4-2.4,5.9-3.6c1.5-0.9,3-1.9,4.5-2.8C327.1,593.3,327.3,592.6,327.1,591.6L327.1,591.6z
			 M339.3,627.5c-0.2,0-0.4,0-0.7-0.1c0.8-1.9,2.1-2.9,4.1-2.7c2.2,0.2,3.5,1.5,4.3,3.7c-0.9,0.9-1.8,1.7-3,2.8
			c-0.5-0.8-1-1.4-1.4-2.1C341.7,627.2,341.4,627.1,339.3,627.5L339.3,627.5z M341.5,630.1c-6.1,1.8-11.5,5-17.1,8.1
			c-0.2-0.4-0.4-0.7-0.5-1c-0.1-0.3-0.1-0.7-0.2-1.1c0.8-0.4,1.5-0.8,2.2-1.2c4.5-2.1,9-4.3,13.7-5.8
			C340.4,628.8,341.2,628.5,341.5,630.1L341.5,630.1z M342.4,622.8c0.5-0.6,0.8-1,1.1-1.4c0.2,0.5,0.4,1,0.7,1.8
			C343.5,623,343.1,623,342.4,622.8L342.4,622.8z M342,617.6c-0.3-1.4-1.4-2.6-0.9-4.3c0.4,1.4,0.8,2.8,1.3,4.2
			C342.2,617.5,342.1,617.5,342,617.6L342,617.6z M341.5,622.7c-2.3,0.8-4.3,3-4.2,5.5c-4.6,2.1-9.2,4.2-14.1,6.4
			c-2.1-7-4.2-13.9-5.7-21c0.4-0.3,0.6-0.5,0.9-0.6c3.8-1.1,7-3.4,10.5-5.1c1.8-0.9,3.6-1.7,5.4-2.5c0.6-0.3,1.3-0.4,2.1-0.6
			C338,610.8,339.7,616.7,341.5,622.7L341.5,622.7z M316.9,611.4c0.1-0.4,0-0.9,0.2-1.2c0.3-0.4,0.7-0.6,1.2-0.8
			c3.9-1.5,7.7-3,11.6-4.5c0.2-0.1,0.5,0,0.9,0.3c-4.5,2.2-8.9,4.4-13.4,6.6C317.3,611.7,317.1,611.5,316.9,611.4L316.9,611.4z
			 M340,610.6c-0.4-1.2-0.9-2.4-1.2-3.6c-1.1-4.1-2.1-8.3-3.1-12.5c-0.4-1.6-0.9-3.1-1.4-4.7c-1.3-4.1-2.7-8.2-3.9-12.3
			c-0.4-1.3-0.7-2.6-1-4c-0.2-0.7,0-1.4,0.8-1.4c4.1,12.7,6.9,25.6,10.3,38.3C340.3,610.6,340.2,610.6,340,610.6L340,610.6z
			 M329.7,658.6c-0.3-1-0.5-1.8-0.7-2.6c-1.3-4.6-2.6-9.2-3.8-13.8c-0.7-2.4-0.7-2.5,1.4-3.5c3.9-1.9,7.3-4.5,11.4-5.8
			c1.4-0.4,2.7-0.9,4-1.4c0.7,1.3-0.1,2-0.7,2.6c1,1.4,1.8,2.8,2.8,4.1c0.8,1,1.9,1.9,2.8,2.9c0.4,0.4,0.8,0.9,1.2,1.3
			c0.8,0.8,0.9,1.7,0.6,2.8c-0.2,0.9-0.2,2-0.3,3.1c-2.8,1.6-5.8,3.5-9.3,4.4c-2.9,0.8-5.1,2.9-7.5,4.4
			C331.1,657.7,330.5,658.1,329.7,658.6L329.7,658.6z M330,660.1c1.9-1.2,3.6-2.5,5.4-3.6c1.5-0.9,3.1-1.7,4.7-2.4
			c2.3-1.1,4.7-2.2,7-3.3c1.5-0.7,2.9-1.4,4.5-2c0.3-0.1,1,0.2,1.1,0.5c0.1,0.3-0.2,1-0.5,1.2c-6.3,3.4-12.3,7.2-19,9.8
			c-0.8,0.3-1.6,0.8-2.7,1.3C330.3,661,330.1,660.5,330,660.1L330,660.1z M349.9,646.7c0-0.2,0.1-0.4,0.3-0.8
			c0.3,0.3,0.5,0.5,0.7,0.7c-0.2,0.2-0.3,0.4-0.5,0.5C350.2,647,349.9,646.8,349.9,646.7L349.9,646.7z M330.8,663.5
			c7.2-3.8,14.2-7.4,21.6-11.3c-0.5,2-0.9,3.6-1.3,5.1c-0.3,1.3-0.7,2.6-1,3.9c-1.4,5.5-2.9,11.1-4.3,16.6c-0.7,2.8-0.5,5.7,0,8.7
			c-2.5,1.4-5,2.9-7.7,4.5C335.7,682,333.3,672.9,330.8,663.5L330.8,663.5z M338.5,692.7c0.5-0.3,0.8-0.6,1.2-0.8c1.8-1,3.7-2,5.6-3
			c0.4-0.2,1-0.3,1.4-0.4c0.5,1.3-0.2,1.8-0.9,2.2c-2.2,1.2-4.4,2.4-6.8,3.7C338.9,694,338.7,693.4,338.5,692.7L338.5,692.7z
			 M339.1,695.9c1-0.3,1.8-0.5,2.4-0.9c2.1-1.2,4.3-2.4,6.3-3.7c1-0.7,1.9-0.7,2.9-0.4c3.5,0.8,7,1.6,10.5,2.4
			c1.1,0.2,2.2,0.1,3.3,0.2c0.8,0,1.6,0,2.7,0c-0.6,2.8-1.2,5.1-1.8,7.5c-0.1,0.3-0.3,0.6-0.4,1c-0.6,2.2-2,3.5-4,4.6
			c-1.5,0.9-2.7,2.2-4.2,3.2c-2.7,1.7-5.5,3.3-8.2,4.9c-0.6,0.3-1.1,0.7-1.7,1.1c-0.6,0.4-1.1,0.7-1.9,1.2
			C343,709.7,341,702.8,339.1,695.9L339.1,695.9z M363.2,706.7v1.8c-1.5,0.8-2.8,1.5-4.1,2.2c-0.7,0.4-1.5,0.6-2.3,0.9
			c0.9-0.9,1.7-1.8,2.6-2.5C360.5,708.3,361.8,707.6,363.2,706.7L363.2,706.7z M356.6,711.7c-2,2-4.4,3.2-6.9,4.2
			C351.9,714.3,353.9,712.5,356.6,711.7z M345.6,720.5c2.8-1.4,5.6-2.8,8.3-4.3s5.1-3.6,8.4-4.6c-0.1,0.7-0.1,1.3-0.3,1.9
			c-0.3,1.6-0.6,3.2-1.1,4.8c-0.2,0.8-0.4,1.6-0.9,2.3c-0.9,1.3-1.1,2.6-0.7,4c0.6,2.2-0.5,5.7-2.1,7.5c-1.1,1.2-1.8,2.6-3.1,3.7
			c-2,1.8-1.9,1.9-5,2.8C348,732.6,346.9,726.6,345.6,720.5L345.6,720.5z M353.4,753.2c-0.2-0.6-0.4-1.3-0.7-2.2
			c1.9-0.8,3.6-1.7,5.5-2.3c0.6-0.2,1.5,0.2,2.5,0.5C358.1,750.5,355.8,751.8,353.4,753.2z M364.1,746.5c-0.5,1.1-2.8,1.4-4,0.4
			c-0.9-0.9-1.7-0.7-2.8-0.5c-2,0.4-4,0.7-6.2,1c-0.7-2.3-1.3-4.7-1.5-7.2c1.5-0.5,1.1,1.4,2.4,1.2c0-0.6-0.1-1.2-0.1-1.8
			c0.9-0.8,1.7-0.7,2.4,0.3c0.3,0.4,0.7,0.7,1.2,1.1c0.5-1.4-0.7-1.5-1-2.4c1.3-1.2,2.7-2.5,4.2-4c0.4,0.3,0.9,0.7,1.2,1.2
			c0.8,1.3,1.3,1.7,2.7,1.2c1-0.3,1.9-0.9,3.1,0C366.2,740.2,365.5,743.4,364.1,746.5L364.1,746.5z M380.9,755.7
			c-0.2,0.2-0.3,0.4-0.4,0.5c-0.5,0.4-1,0.7-1.6,1.2c-0.8-4.2-1.5-8.2-2.2-12.5c0.4-0.2,1-0.5,1.8-0.9
			C380,747.9,380,751.9,380.9,755.7L380.9,755.7z M378.4,741.5c-3.9,1.9-7.8,3.8-11.8,5.7c0.5-1.2,1-1.6,3.1-2.7
			c1.3-0.7,2.6-1.4,3.9-2.2c1.2-0.7,2.4-1.5,3.6-2.4c-0.2-0.4-0.3-1-0.5-1c-1.3-0.2-1.3-1.3-1.5-2.1c-0.4-2.1-0.6-4.3-1-6.6
			c0.6-0.2,1.2-0.3,2-0.5C377,733.6,377.7,737.4,378.4,741.5L378.4,741.5z M367.8,735.3c-0.3-1.8,0-3.6,0.8-5.5
			c1.2,0.3,2.4,0.5,3.5,0.7c0.6,3.1,1.2,5.9,1.8,9c-1.5,1.6-3.7,2.7-6.1,3.7c0-0.7,0-1.2,0-1.7C367.9,739.5,368.1,737.4,367.8,735.3
			L367.8,735.3z M382,695.6c-1.4,5.4-2.3,10.9-2.6,16.6c-0.2,4.1-0.8,8.1-1.2,12.2c0,0.4-0.2,0.8-0.2,1.2c-0.3,1.4-0.8,2.4-2.6,2.3
			c-0.9,0-1.7,0.3-2.6,0.5c-1.4,0.3-2.8,0.1-4.2-0.5c-1.1-0.5-2.5-0.7-3.8-0.9c-1.1-0.2-2.3-0.3-3.7-0.5c0.2-1.1,0.4-2.1,0.7-3.1
			c1.1-5.1,2.2-10.2,3.4-15.4c0.4-1.8,1-3.5,1.5-5.2c0.6-2.3,1.1-4.6,1.5-7c0.3-1.8,0.3-1.9,2.2-2.4c1.2-0.3,2.3-0.8,3.5-1
			c0.6-0.1,1.2,0,2,0c-0.4,1.6-0.8,2.9-1,4.3c-1.1,6.1-3,12-4.9,18c-0.7,2.2-0.9,4.5-1.2,6.8c-0.2,1.1-0.1,1.2,1.3,2.1
			c0.1-0.4,0.4-0.7,0.4-1.1c0-3.1,0.4-6.1,1.5-9c2.1-5.6,3.4-11.5,4.8-17.3c0.3-1,0.6-2.1,0.9-3.4c1.6,0.5,3,0.9,4.6,1.3
			C382.2,694.6,382.1,695.1,382,695.6L382,695.6z M387.3,664.5c-0.4,1.1-0.6,2.1,0.8,2.7c-1.3,5.5-0.9,11.2-2.4,16.9
			c-1.1-1.3-0.4-2.5-0.4-3.9c-2-0.9-4.2-1.8-6.8-2.3c0.9-4.8,2.6-9.4,2.2-14.1c1.4-0.9,3.3,0,4.3-1.8c-0.5-0.2-0.9-0.4-1.3-0.6
			c-0.2-0.1-0.6-0.2-0.6-0.4c0-1.7-1-1-1.7-0.6c-1.1,0.5-2.1,1.3-3.2,1.7c-2.6,1-5.3,2-8.5,3.1c-0.8,2.4-1.7,5.4-2.7,8.3
			c-0.4,1.2-0.9,2.3-1.4,3.4c-0.3,0.7-0.8,0.9-1.5,0.8c-1.6-0.2-2.9,0.3-4.2,1.2c-1,0.7-2.2,1-3.3,1.5c-0.8,0.4-1.6,0.8-2.1,2.1
			c0.8-0.2,1.3-0.2,1.7-0.4c1.7-0.8,3.3-1.8,5.1-2.6c0.7-0.3,1.6-0.5,2.4-0.3c0.7,0.2,1.3,0.8,2,1.4c1.1-1.8,3-1.2,4.7-1.5
			c4.2-0.8,8.1,0.1,11.9,1.7c0.7,0.3,1,0.7,0.9,1.6c-0.3,3.2-0.6,6.4-0.9,9.9c-0.6-0.1-1.3-0.1-1.8-0.4c-3.3-1.5-6.6-1.4-9.9-0.1
			c-0.5,0.2-1.1,0.4-1.6,0.4c-2.9-0.2-5.8-0.4-8.7-0.8c-2.3-0.3-4.6-0.8-6.8-1.2c-1.7-0.3-3.4-0.5-4.2-2.4c-0.1-0.2-0.3-0.3-0.5-0.4
			c-1.3-0.7-1.6-1.9-1.6-3.3c0-2.9,0.4-5.7,1.1-8.5c1.1-4.9,2.3-9.8,3.4-14.7c0.2-0.7,0.5-1.4,0.7-2.2c0.7-2.5,1.4-5,2.1-7.6
			c0.9,0.6,2,1.3,3.2,2.1c-0.7,2.5-1.5,5.2-2.2,7.9c-0.5,1.7-0.8,3.4-1.1,5.2c-0.7,4.1-2,8.1-2.1,12.3c-0.1,2.2,0,2.4,1.8,4.9
			c0.1-0.7,0.3-1,0.2-1.2c-0.9-2.1-0.7-4.3-0.4-6.5c0.6-4,1.4-7.9,2.3-11.8c0.1-0.5,0.5-1.2,1-1.4c3.3-1.7,4.5-4.8,5.8-7.9
			c0.4-0.8,0.6-1.6,1-2.5c1.9,0.2,3.8,0.3,6,0.5c-0.3,1.2-0.6,2.2-0.9,3.1c-0.6,1.9,0.1,3.7,2.1,5.2c1.4,1,3.4,0.9,4.9-0.1
			c1.7-1.1,2.9-2.6,3.4-4.6c0.4-1.4,1-2.7,1.5-4.1c1.6,0.1,3.1,0.2,4.8,0.3c0.2,2.9,1.8,5,3.7,7.1
			C388.6,661.1,388,662.8,387.3,664.5L387.3,664.5z M373.4,673.5c0.5-2.1,1.2-4.2,1.6-6.3c0.3-1.9,1.3-2.9,3.2-3.1
			c0.6,2.1-0.4,10-1.7,13h-3.7C373,675.9,373.1,674.7,373.4,673.5L373.4,673.5z M371.2,677.2c-1.2,0.2-2.3,0.4-3.8,0.6
			c0.5-1.6,0.9-2.8,1.4-4.1c0.8-2.2,1.6-4.5,2.4-6.7c0.3-0.8,0.8-1.4,2.1-1.1C372.6,669.7,371.9,673.4,371.2,677.2L371.2,677.2z
			 M360.6,650.4c0.6,0.4,1.1,0.7,1.6,1.1c-0.6,3.3-2.3,6-4.9,8.1C358,656.4,358.2,653.1,360.6,650.4L360.6,650.4z M370.2,656.4
			c0.3-1.3,0.8-2.6,1.3-3.9c2.6-0.2,5.1-0.4,7.8-0.6c-0.7,2.1-1.3,4.1-2,6c-1.1,0.5-2.2,1-3.4,1.4
			C371.4,660.3,369.7,658.9,370.2,656.4z M383.6,649.8c0.7-2.4,1.5-4.7,2.2-7.1c0.2,0,0.3,0,0.5-0.1c0.3,2.2,0.6,4.4,0.9,6.6
			C386.1,649.9,384.9,650.1,383.6,649.8L383.6,649.8z M389.8,657.9c-1.9-1.2-2.6-3.4-2-6.5c1.1-0.1,2.2-0.2,3.4-0.3
			C391.2,653.6,390.8,655.8,389.8,657.9L389.8,657.9z M352,558.7c0.6-0.2,1.1-0.3,1.5-0.4c4.8-0.6,9.6-1.1,14.4-0.4
			c2.3,0.3,4.3,1.3,5.6,3.6c1.2,2.1,2.3,4.3,3.5,6.4c1.2,2,1.9,4,2.7,6.1c0.6,1.5,0.9,3.2,1,4.8c0.4,3.5,0.5,7.1,0.8,10.6
			c0.1,0.9,0,1.8,1.3,2.2c0.6,0.2,0.9,1.3,1.3,2c0.5,0.9,1.1,1.7,1.9,2.3c0.9,0.6,1.5,1.6,2.1,2.4c1.6,2.2,2.9,4.6,4.6,6.7
			c2.8,3.5,3.2,7.4,2.8,11.6c-0.2,3-0.4,6-0.6,9c-0.3,5.2-0.7,10.3-2,15.4c-0.5,2-1,4.1-1.5,6.2c-0.4,1.6-0.8,2.1-2.8,1.8
			c-0.4-2.5-0.9-5.1-1.4-7.9c1.1,0,1.8,0.1,2.5,0c0.7-0.1,1.3-0.4,2-0.6c-0.2-0.4-0.3-0.6-0.4-0.6c-2.5,0-5-0.1-7.5,0
			c-1.2,0-2.4,0.1-3.4,1.3c1.4,0.8,2.7-0.7,4.2,0.1c-0.9,2.8-1.7,5.7-2.6,8.6c-6.8,1.1-13.5,1-20.1,0.2c-0.1-0.2-0.1-0.3-0.2-0.5
			c0.5-0.4,1-0.8,1.5-1.2c1.6-1.1,2.7-2.6,3.5-4.4c0.6-1.5,1.3-3,2.2-4.4c1.6-2.6,2.7-5.4,3.7-8.2c1-2.6,2.2-5.1,2.6-7.9
			c0.2-1.5,0.2-1.5-1.5-2.4c-0.8,2.2-1.7,4.3-1.9,6.6c-0.2,2.5-0.9,4.8-2.1,7c-1.5,2.7-2.7,5.6-4.3,8.4c-0.8,1.4-1.9,2.6-3.1,3.8
			c-1.2,1.2-2.7,2.3-4,3.5c-0.7,0.7-1.3,0.6-1.9-0.1c-1.4-1.4-2.9-2.7-4.2-4.2c-0.8-0.8-1.3-1.9-2-2.8c-1.1-1.3-2-2.9-3.3-3.9
			c-1.8-1.3-2.6-3.2-3.8-5c1.5-2.4,3.9-3.9,5.9-5.9c0.5,0.3,1,0.5,1.4,0.8c0.8,0.6,1.5,1.4,2.4,1.9c1.6,1,2.7,2.2,2.3,4.3
			c-0.1,0.4,0.3,0.9,0.9,1.4c0.2-0.4,0.4-0.7,0.5-1.1c0.2-2.4,0.3-4.8,0.6-7.1c0.1-1.1,0.4-2.1,0.8-3.2c0.7-2.1,1-4.2,1-6.4
			c0-0.9,0.2-1.8,0.4-2.6c0.4-1.7,0.9-3.3,1.3-4.9c0.5-2,2.1-3,3.5-4c1-0.7,2.2-1.1,3.3-1.6c-1.1-1.2-2.4,0.1-3.7-0.2
			c2.6-3.1,5.4-5.7,8.8-7.9c1.1,0.9-0.1,2.7,1.4,3.4c1.7-2.2,0.5-5.1-2.3-5.7c0.8-2.7,1.6-5.3,2.4-8.2c-0.1-0.4-0.4-1-0.4-1.6
			c0.2-4.6-2.1-8.1-6.3-9.8c-1.2-0.5-1.8-1.2-1.9-2.3c-0.2-1-0.3-2-0.4-3c-0.1-1.8-0.4-2.5-2.2-2.8c-2.3-0.4-4.6-0.6-6.9-0.8
			c-1.4-0.1-2.9,0.1-4.4-0.8C351.8,563.7,351.9,561.2,352,558.7L352,558.7z M354.8,630.2c0.4-3.2,0.8-6.4,1.2-9.6
			c0.1-0.9,0.2-1.7,1.6-2.2c-0.1,2.1-0.2,3.8-0.7,5.5c-0.5,1.8-0.9,3.5-1.3,5.3c-0.1,0.4-0.2,0.9-0.3,1.3
			C355,630.3,354.8,630.2,354.8,630.2L354.8,630.2z M355,596.9c-1.3-1.2-2.7-2.3-4.1-3.3c-0.6-0.4-1.5-0.5-2.5-0.8
			c0.9-0.6,1.6-1.3,2.4-1.7c1.2-0.6,1.6-1.5,1.8-2.7c0.2-1.3,0.6-2.5,0.9-4c2.2,0.5,4.2,0.9,6.4,1.4c-0.2,1.4-0.4,2.7-0.5,4
			c-0.3,2.5,0.9,3.6,3.3,3c0.7-0.2,1.5-0.3,2.2-0.3c0.3,0,0.5,0.3,0.9,0.6c-0.9,1.1-2.1,1-3.1,1.4c-0.9,0.3-1.5,0.7-1.1,1.7
			c-1.1,1-1.2,1.3-0.4,1.8c1.5,0.9,2.2,2.3,2.5,3.9c0.1,0.3,0.2,0.6,0.4,1.1c-0.7,0.7-1.3,1.4-2.2,2.2c-1.4-1.6-3-1.4-4.7-1.1
			c-0.5,0.1-1.1,0.1-1.6,0.2c-3.3,0.2-5.3-2.3-4.3-5.6c1.2,0.3,2.3,0.6,3.5,1C356.2,598.3,356.3,598,355,596.9L355,596.9z
			 M357.9,582.7c-1-0.3-2.2-0.6-3.5-0.9c0.1-1.5,0.7-2.6,1.8-3.2c2-1,4-2,6.4-2.3C361,578.4,359.6,580.4,357.9,582.7L357.9,582.7z
			 M365.6,577.2c-0.3,2.3-0.7,4.5-1,6.9c-1.4-0.4-2.8-0.7-4.3-1C361.4,580.1,364,577.2,365.6,577.2z M365.1,595.2
			c-0.2,1.8-1.2,2.4-2.5,1.7c-0.4-0.2-0.7-0.6-1-0.9C362.8,595.7,363.9,595.5,365.1,595.2L365.1,595.2z M367,584.3
			c-0.7-1.2,0-2.4,0-3.5c0-1.1,0.1-2.3,0.2-3.7c0.9,0.5,1.6,0.9,2.3,1.3C368.6,580.4,367.8,582.3,367,584.3L367,584.3z M370.7,580.5
			c0.6,1.9,1.9,3.2,1.1,5c-2.5,0.2-3.2-0.6-2.3-2.7C369.7,582.1,370.1,581.5,370.7,580.5L370.7,580.5z M349.9,562.9
			c0.1,0.3,0.2,0.5,0.2,0.6c0,0.5,0,1.1,0,1.5c-2.3,1.7-2.8,2.4-4.5,1.3c0.5-0.3,0.9-0.6,1.2-0.9c0.3-0.3,0.6-0.7,0.8-1
			c-1-1.2-2.1-0.3-3.3-0.4c0.6-1.5,0.2-3.1,1.9-4c1.6,0.6,2,1.8,1.6,3.6C348.7,563.3,349.3,563.1,349.9,562.9L349.9,562.9z
			 M348,557.8c0.5,0.6,0.9,1.3,1.3,2c-0.1,0.1-0.2,0.2-0.3,0.3c-0.8-0.6-1.5-1.4-2.3-1.6c-0.9-0.2-1.9,0.1-3.2,0.2
			C344.9,556.2,346.5,555.9,348,557.8L348,557.8z M339.3,564c0.4,0.4,0.6,1,0.5,1.7C339.5,565.1,339.3,564.6,339.3,564z
			 M339.2,567.8c0.5,0.5,0.8,0.9,1.2,1.3c1.4,1.4,2,1.3,3-0.6c-0.3-0.3-0.6-0.6-1.2-1.3c0.8-0.1,1.2-0.2,1.7-0.1
			c1,0.2,1.9,0.6,2.9,0.8c0.4,0.1,0.9,0.1,1.2-0.1c1.5-1.1,3.1-0.2,4.7-0.2c1.4,0,2.8,0.2,4.3,0.4c1.9,0.2,3.8,0.5,5.7,0.8
			c0.9,0.1,1.2,0.7,1.2,1.6c0.1,1.4,0.2,2.8,0.3,4.5c-2.6-0.6-4.9,0.2-7.2,1.3c-1.5,0.7-2.8,1.4-3.4,3c-0.3,0.8-0.9,0.9-1.6,0.8
			c-2.5-0.3-5-0.6-7.5-0.8c-0.3,0-0.5,0.1-0.8,0.1c-0.5,2.1-0.2,2.7,1.7,3.2c2.2,0.5,4.4,0.9,6.7,1.4c0.1,1.9-0.5,3.6-1.3,5.1
			c-0.5,0.9-1.7,1.3-2.6,1.9c-0.8,0.5-1.7,0.9-2,2.2c0.9,0.5,1.8,1,2.8,1.5c-0.2,0.5-0.5,1.1-0.7,1.5c0.1,0.2,0.1,0.4,0.2,0.5
			c0.9,0.5,1.2,1.2,1,2.4c-0.5,4,2.7,7.1,6.7,6.8c0.5,0,1.1-0.1,1.6-0.1c1.6-0.1,2.6,0.4,3.2,1.6c-0.9,2.6-1.7,5-2.6,7.3
			c-0.4,0.9-1,1.8-1.8,2.4c-1.2,0.9-1.7,2.1-1.8,3.5c-0.3,2.3-0.5,4.6-0.8,6.9c-0.1,0.6-0.3,1.2-0.5,1.9c-2-0.6-3-2.6-4.9-2.2
			c-0.8-1-1.5-1.9-2.1-2.6c-0.2-0.9-0.2-1.7-0.4-2.4c-1.2-4.1-2.5-8.2-3.7-12.3c-0.5-1.7-1-3.4-1.5-5.1c-0.7-2.6-1.2-5.2-1.9-7.8
			c-1.6-5.9-3.2-11.7-4.8-17.5c-0.5-2-1.1-3.9-1.7-5.9c-0.2-0.6-0.4-1.2-0.6-1.9C334,569.9,336.7,569,339.2,567.8L339.2,567.8z
			 M351.4,581.7c0,0.1,0,0.3,0,0.4c-1.1-0.2-2.2-0.4-3.4-0.7C349.3,581.2,350.5,581.3,351.4,581.7z M337.5,564.4
			c0.4,0.9,0.6,1.4,0.9,2.1c-1.6,0.7-3.1,1.4-4.5,2.1c-3,1.4-5.9,2.8-8.9,4.1c-0.7,0.3-1.5,0.8-2.2-0.5
			C327.6,569.6,332.4,567.1,337.5,564.4L337.5,564.4z M323.5,580.2c0.6,3.3,1.1,6.6,1.6,9.9c0.2,1.2,0,2-1.1,2.8
			c-2.8,2.1-5.9,3.6-8.8,5.5c-0.2-0.4-0.5-0.6-0.5-0.9c-0.3-3.9-2.2-7.3-3.5-10.9c-0.5-1.5-1-3-1.6-4.7c4-2.2,7.9-4.5,11.9-6.7
			C322.8,576.7,323.2,578.5,323.5,580.2L323.5,580.2z M320.7,573.5c-1.6,1-3.1,1.9-4.8,2.9c-0.4-0.5-0.7-0.8-0.9-1.2
			c-1.7-2.7-4-4.8-6.6-6.7c-0.4-0.3-1-0.5-1.5-0.7c-0.8-0.4-1.6-0.7-2.5-1.2c1.4-2.4,2.7-4.2,4.9-5.2c1-0.5,2-0.7,2.9,0.1
			c1.4,1.2,2.9,2.3,3.9,3.8C317.9,567.8,319.2,570.6,320.7,573.5L320.7,573.5z M362.6,507.9c-1.3,1.7-2.7,3.5-3.9,5.2
			c-0.7,0.9-1.2,2-1.8,2.9c-1.5,2.3-3.1,4.6-4.7,6.9c-2.2,3-4.4,5.9-6.6,8.8c-3.9,5.1-7.9,10.1-11.8,15.2
			c-3.6,4.6-7.2,9.1-10.8,13.6c-1,1.3-2,2.5-3.1,3.8c-0.1-0.1-0.3-0.2-0.4-0.4c0.6-0.9,1.2-1.9,1.9-2.8c1.7-2.2,3.5-4.4,5.2-6.5
			c1.5-1.8,2.9-3.6,4.4-5.4c3-3.9,6.4-7.4,8.7-11.9c1.3-2.5,3.4-4.6,5.2-6.8c1.8-2.1,3.6-4.1,4.9-6.5c2.6-4.7,5.6-9.2,9.1-13.4
			c1.1-1.4,2.5-2.7,2.9-4.9c0.5,0.7,0.8,1.1,1.2,1.5C362.8,507.5,362.8,507.7,362.6,507.9L362.6,507.9z M363.4,503
			c-0.2-0.1-0.3-0.1-0.5-0.2c-0.2-1.8-0.4-3.5-0.6-5.3c0.1-0.1,0.3-0.2,0.4-0.2c0.3,0.2,0.8,0.4,0.8,0.7c0.2,1.4,0.4,2.8,0.4,4.2
			C364,502.5,363.6,502.8,363.4,503L363.4,503z M363.2,495c-0.6-0.5-0.4-1.8,0.3-2.8c0.5-0.8,0.5-0.8,2.4-0.3c0.1,1,0.2,1.9,0.2,3
			C365.1,495.3,364.2,495.8,363.2,495L363.2,495z M365.4,504.9c0.6-0.4,1.2-1,1.8-1.2c4.6-1.4,9.3-2.7,13.9-4c0.2-0.1,0.4,0,0.6,0
			C376.8,502.8,371.3,504.2,365.4,504.9L365.4,504.9z M417.3,481.2c-0.7,4.5-0.1,9.1-0.3,13.7c-0.2,4.9,0,9.8-0.1,14.7
			c0,1.5-0.3,3-0.4,4.7c-0.9,0.2-1.9,0.3-2.9,0.5c-3,0.5-5.9,0.9-8.9,1.3c-0.8,0.1-1.6,0.2-2.4,0.2c-4.4,0.2-8.7,0.2-13,1.1
			c-1.3,0.3-1.6,0.1-1.7-1.3c-0.4-3.1-0.6-6.1-0.9-9.2c-0.2-1.7-0.4-3.4-0.5-5.1c-0.1-1,0.4-1.6,1.7-1.4c0.4,2.6,0.8,5.3,1.2,8
			c0.1,0,0.1,0,0.2,0c-0.1-2.7-0.3-5.4-0.4-8.4c2.3-1.2,5-1,7.6-1.6c2.6-0.6,5.2-1.1,7.8-1.6c0.3-0.6,0-2.1-0.9-4.3
			c-4.6,1.2-9.2,2.3-13.9,3.5c-0.2-4.1-0.3-8-0.5-12.1c0.5-0.1,1-0.2,1.6-0.3c2.7-0.2,5.4-0.5,8.1-0.7c0.7-0.1,1.5,0,2.2-0.1
			c0.7,0,1.4,0,2-0.2c2.5-1.1,5.1-0.8,7.6-1c0.7-0.1,1.5-0.1,2.4-0.2c0.1,1.4,0.4,2.9,0.4,4.4c0.1,4.6,0,9.3,0.2,13.9
			c0.1,1.9,0,3.9,0.5,5.9c0.4,1.4-0.2,3.1-0.4,4.8c-2.8,0.6-5.4,1.6-8.2,1.8c-1.4,0.1-2.9,0.2-4.2,0.7c-2.1,0.8-4.3,0.6-6.4,0.6
			c-1.7,0-3.4,0.2-5.1,0.8c0.5,0.9,1.2,0.6,1.8,0.6c2.2-0.1,4.4-0.2,6.5-0.3c0.5,0,1,0,1.4-0.1c3-1,6.1-1.4,9.2-1.4
			c1.9,0,3.9-0.4,5.8-0.6c0.8-0.1,0.9-0.7,0.8-1.4c-0.1-3.1-0.4-6.1-0.4-9.2c0-4.5,0.1-9,0.1-13.5c0-2.4-0.3-4.8-0.5-7.1
			c-0.1-1-1.1-1.7-2.1-1.3c-2.2,0.8-4.6,0.6-6.9,0.8c-1.2,0.1-2.3,0.7-3.5,0.8c-4.2,0.4-8.4,0.7-12.6,1.1c-0.7,0.1-1.3,0.1-2.1,0.2
			v13.5c-0.9-0.2-0.8-0.9-0.8-1.4c-0.4-3.5-0.7-7.1-1-10.6c-0.1-0.9-0.2-1.9-0.3-2.9c10.6-1.3,20.8-4,31.4-4.3
			C417.3,478.4,417.5,479.8,417.3,481.2L417.3,481.2z M392.5,497.1c3.1-0.8,6.2-1.7,9.7-2.6C401.1,496.1,396.6,497.3,392.5,497.1z
			 M353.5,586.8c0.9-0.4,1.6-1,2-0.8c0.9,0.3,1.8,0.9,2.6,1.5c0.1,0.1,0,0.7-0.1,0.9c-0.3,0.2-0.8,0.3-1.1,0.2
			C355.9,588.1,355,587.6,353.5,586.8L353.5,586.8z M354.4,589.2c0.5,0.7,0.9,1.1,0.9,1.5c0,0.6-0.2,1.3-1,1.2
			c-0.6-0.1-1.2-0.5-1-1.2C353.3,590.3,353.8,589.9,354.4,589.2L354.4,589.2z"/>
		<path d="M253.8,768.3c-2.3,0.1-3.1-0.8-3.7-2.3c-0.5-1.1-1-2.2-1-3.5c0-0.6,0.2-1.2,0.8-1.2c0.3,0,0.6,0.5,0.9,0.8
			c0.1,0.1,0.1,0.4,0.2,0.6C251.6,764.8,251.9,766.7,253.8,768.3L253.8,768.3z"/>
		<path d="M259.2,756.6c0.3,2.5-0.5,4.7-0.8,7c-1.3-0.6-1.8-2.4-1.5-4.4C257.2,757.1,257.4,756.9,259.2,756.6L259.2,756.6z"/>
		<path d="M246.5,761.4c0.1,0.2,0.3,0.4,0.3,0.6c0.4,2.2,0.7,4.4,1.1,6.8c-0.4-0.2-0.8-0.2-1-0.4c-1.1-1.8-1.7-3.7-1.8-5.8
			C245.1,761.7,245.6,761.3,246.5,761.4L246.5,761.4z"/>
		<path d="M139.5,765.4c-0.5,0-0.7,0.2-0.8,0.1c-1.3-1-2.2-2.4-2.7-4c-0.2-0.7-0.1-1.4,0.7-1.6c1-0.2,1,0.4,1.1,1.2
			c0.1,0.9,0.6,1.8,0.9,2.7C139,764.2,139.2,764.7,139.5,765.4L139.5,765.4z"/>
		<path d="M455.2,762.4c-0.8,2-1.5,3.8-2.3,5.7C451.4,765.3,452.4,762.7,455.2,762.4z"/>
		<path d="M292.3,761.7c-0.3,1.5-0.6,3.1-1,4.8c-1.3-1.3-1.7-3.5-0.8-4.5c0.3-0.4,1-0.5,1.5-0.7
			C292.1,761.4,292.2,761.6,292.3,761.7L292.3,761.7z"/>
		<path d="M226.7,760.7c0.5,0.1,1,0.1,1,0.3c0.6,1.4,1.1,2.8,1.1,4.5C227.3,764.7,226.6,763.1,226.7,760.7z"/>
		<path d="M424.8,761.3c-1.1-0.4-1.3-1-0.9-1.7c0.3-0.6,0.7-1.3,1.3-1.7c0.2-0.2,1,0.1,1.2,0.4c0.2,0.2,0.2,0.9,0,1.2
			C425.9,760.1,425.3,760.7,424.8,761.3L424.8,761.3z"/>
		<path d="M282.2,762.2c-0.3,1.7-0.6,3.1-0.9,4.8c-1.4-0.9-0.9-2.1-0.8-3C280.6,762.6,280.6,762.6,282.2,762.2L282.2,762.2z"/>
		<path d="M208.6,768.9c-1.1,0.1-1.3-0.6-1.4-1.2c-0.1-0.7-0.2-1.5-0.1-2.2c0-0.2,0.8-0.2,1.3-0.4
			C208.5,766.5,208.5,767.7,208.6,768.9L208.6,768.9z"/>
		<path d="M458.4,768.3c-0.1-0.7-0.4-1.4-0.4-2.1c0-0.3,0.5-0.8,0.8-1c0.3-0.1,0.9,0.1,1,0.3c0.2,0.3,0.1,0.8,0,1.2
			c-0.2,0.6-0.6,1.1-0.9,1.6L458.4,768.3L458.4,768.3z"/>
		<path d="M274.9,760.8c0.3,1.6,0.6,2.8,0.9,4.1c-1.2-0.1-1.5-0.8-1.6-1.7C274,762.4,273.7,761.7,274.9,760.8L274.9,760.8z"/>
		<path d="M171.4,764.5c0.7-1,1.2-1.8,1.8-2.7c1,0.3,1.1,0.9,0.8,1.7C173.6,764.6,172.9,764.9,171.4,764.5z"/>
		<path d="M420.1,758.5c-0.8,0.6-1.2,1.1-1.8,1.2c-0.7,0.1-0.8-0.5-0.8-1.1c0.1-0.6,0.2-1.3,1-1.1C419,757.6,419.4,758,420.1,758.5
			L420.1,758.5z"/>
		<path d="M467.6,767.4c-0.4-1.4-0.3-2,0.5-2c0.4,0,1,0.4,1.2,0.7C469.6,766.7,468.8,767.3,467.6,767.4L467.6,767.4z"/>
		<path d="M198.7,764.8c0.4,1.4,0.7,2.4,1.1,3.6C197.9,767.2,197.6,766.5,198.7,764.8z"/>
		<path d="M161.9,766.1c0.1-0.2,0.1-0.4,0.3-0.5c0.6-0.6,1.3-0.7,2-0.2c0.1,0.1,0,0.8-0.2,1C163.3,767.2,162.8,767,161.9,766.1
			L161.9,766.1z"/>
		<path d="M153.6,765.6c-0.9,0.6-1.5,1.1-2.2,1.6C151.3,765.1,151.7,764.8,153.6,765.6z"/>
		<path d="M484.3,769.7c-0.1-0.6-0.1-1.1-0.2-1.9c0.7,0.3,1.2,0.5,2,0.9C485.3,769.1,484.9,769.4,484.3,769.7L484.3,769.7z"/>
		<path d="M438.8,747.5c0.8,0,1.5-0.2,1.6,0.8c0,0.2-0.3,0.5-0.4,0.6C439.2,748.9,438.7,748.6,438.8,747.5L438.8,747.5z"/>
		<path d="M498.9,772.3c-0.4,0.3-0.6,0.6-0.8,0.6c-0.2,0-0.6-0.3-0.6-0.5c0-0.3,0.3-0.7,0.5-0.7
			C498.2,771.8,498.5,772.1,498.9,772.3L498.9,772.3z"/>
	</g>
</g>
</svg>
