<?xml version="1.0" encoding="utf-8"?>
<!-- Generator: Adobe Illustrator 26.1.0, SVG Export Plug-In . SVG Version: 6.00 Build 0)  -->
<!DOCTYPE svg PUBLIC "-//W3C//DTD SVG 1.1//EN" "http://www.w3.org/Graphics/SVG/1.1/DTD/svg11.dtd" [
	<!ENTITY ns_extend "http://ns.adobe.com/Extensibility/1.0/">
	<!ENTITY ns_ai "http://ns.adobe.com/AdobeIllustrator/10.0/">
	<!ENTITY ns_graphs "http://ns.adobe.com/Graphs/1.0/">
	<!ENTITY ns_vars "http://ns.adobe.com/Variables/1.0/">
	<!ENTITY ns_imrep "http://ns.adobe.com/ImageReplacement/1.0/">
	<!ENTITY ns_sfw "http://ns.adobe.com/SaveForWeb/1.0/">
	<!ENTITY ns_custom "http://ns.adobe.com/GenericCustomNamespace/1.0/">
	<!ENTITY ns_adobe_xpath "http://ns.adobe.com/XPath/1.0/">
]>
<svg version="1.1" id="Layer_2" xmlns:x="&ns_extend;" xmlns:i="&ns_ai;" xmlns:graph="&ns_graphs;"
	 xmlns="http://www.w3.org/2000/svg" xmlns:xlink="http://www.w3.org/1999/xlink" x="0px" y="0px" viewBox="0 0 195 481"
	 style="enable-background:new 0 0 195 481;" xml:space="preserve">
<metadata>
	<sfw  xmlns="&ns_sfw;">
		<slices></slices>
		<sliceSourceBounds  bottomLeftOrigin="true" height="480.8" width="194.4" x="0.6" y="0.2"></sliceSourceBounds>
	</sfw>
</metadata>
<path id="_x31_1" d="M194.6,193.5c0-2.6,0.3-5.3-0.5-8c-0.5-1.6-0.7-1.9-2.4-1.9c-0.3,0-0.7,0-1,0c-6.9,0.5-13.7,1.7-20.5,2.7
	c-2.3,0.4-4.6,0.8-6.8,1.2c-1,0.2-2,0.2-3.2,0.3c-0.3,5.7,1.1,11.3,1.4,17c-6.7,1.9-13.1,3.6-19.7,5.5c-0.7-1.8-0.6-3.6-0.5-5.6
	c0.6-0.1,1,0,1.5-0.2c1-0.3,2.1-0.5,3.1-0.9c1.3-0.6,1.9-2.8,1.3-4.6c-0.6-2-1.2-2.3-3.4-2c-0.2,0-0.4,0-0.7,0
	c-1.4-2.3-3.5-3.8-6.5-3.8c-0.2-1.8-0.5-3.3-0.6-4.9c0-0.7,0.6-1.4,0.6-2.1c0-0.5-0.2-1.4-0.6-1.5c-0.6-0.2-1.5-0.2-2.1,0.1
	c-0.3,0.1-0.4,1.2-0.2,1.6c1.2,2.3,0.8,4.8,1.5,7.3c-2.9,0.6-3.6,2.7-3.6,5c-2.5,1.1-3.1,1.8-3,3.9c0.2,2.9,2,4.3,4.7,3.7
	c1-0.2,2.1-0.3,3.2-0.5c0.2,1.6,0.3,2.9,0.6,4.1c0.5,2.3-0.4,4.1-1.8,5.8c-3.5,4.4-7.2,8.8-9.7,13.9c-1.7,3.5-4.3,6.1-6.9,8.8
	c-1.6,1.7-3.3,3.4-4.3,5.4c-1.9,3.7-4.3,7-6.9,10.1c-2.9,3.4-5.8,6.9-8.6,10.4c-1.8,2.2-3.4,4.6-5.2,7.1c-0.6-0.6-1.2-1.1-1.6-1.4
	c3.5-10.4,7-20.5,10.4-30.6c1.7,0.3,3.2,0.6,4.6,0.7c0.8,0.1,1.7,0,2.3-0.3c2.6-1.4,4.3-3.5,4.8-6.5c0.1-0.9,0.4-1.7,0.5-2.6
	c0.3-3.3,0.7-6.5-0.3-9.7c-0.8-2.8-2.1-5.3-4-7.6c1.1-1.7,2.1-3.2,4.1-3.5c0.2-0.9,0-1.5-0.7-1.8c-1.1-0.4-2.2-1.2-3.5-0.3
	c0.3,0.6,0.6,1.2,1,1.8c-0.7,1-1.5,1.9-2.2,2.8c-0.8-0.5-1.3-0.9-2-1.2c-3.1-1.4-7.1-2.1-10,2c-2.2,3.1-3.4,6.8-3,10.6
	c0.4,4.1,1.5,8.1,4,11.4c0.5,0.7,0.6,1.3,0.3,2.1c-1.9,5.3-3.7,10.7-5.7,16c-1.7,4.3-3.7,8.3-5.6,12.5c-0.3,0.6-0.7,1-1.3,1.1
	c-0.5,0.1-1.1,0.2-1.7,0.3c0-3.5-0.1-6.9,0-10.3c0.2-8.1,0.5-16.3,0.7-24.4c0.1-4.6,0.1-9.2,0.2-13.7c0.2-7.2,0.5-14.5,0.7-21.7
	c0.2-5.9,0.4-11.8,0.7-17.6c0.3-5.4,0.8-10.9,0.9-16.3c0.1-4.8,0.3-9.6,0.4-14.3c0.3-9.1,0.6-18.2,0.7-27.3
	c0.1-12.3,0.1-24.6,0.1-36.9c0-6.2-0.2-12.4-0.3-18.6c-0.1-4.7-0.2-9.4-0.3-14.1c-0.1-3.4-0.3-6.8-0.3-10.2
	c0.1-6.3,0.4-12.6,0.4-18.9c0-5.9,0-11.9-0.2-17.8C88,2.8,88,0,86.8,0c-0.3,0.2-0.6,0.3-0.9,0.5C85.9,0.4,86,0.2,86,0
	c-1.6,0-15,1.6-15.5,1.8c-0.8,0.4,2.7,1,1.8,2C73.2,3.8,74,3.7,75,3.6c0.1,1.3,0.3,2.4,0.4,3.5c0.1,2.8,0.7,5.6,0.1,8.4
	c-0.1,0.7,0,1.4,0,2c0,3.9,0,7.8,0,11.7c0,0.5-0.1,1.1,0,1.6c0.4,2.2-0.1,4.3-0.5,6.5c-0.2,0.9-0.2,1.9-0.2,2.8c0,0.3,0,0.7,0,1
	c-0.8,5.9-0.4,12-1.4,17.9c-0.4,2.6-0.8,5.1-1.2,7.7c-0.2,1.6-0.3,3.3-0.5,4.9c-0.3,2.2-0.6,4.4-1,6.6c-0.2,1.5-0.6,2.9-0.8,4.4
	c-0.5,3.2-0.9,6.3-1.3,9.5c-0.6,5-1.1,10.1-1.5,15.1c-0.3,3.2-0.5,6.4-0.7,9.6c-0.3,4.4-0.6,8.7-0.8,13.1c-0.2,4.4-0.3,8.7-0.3,13.1
	c0,7.5,0.1,14.9,0,22.4c-0.1,7.4-1,14.7-2.5,21.9c-0.5,2.3-0.8,4.6-1.1,6.9c-0.5,4.4-1,8.8-1.4,13.2c-0.4,4-0.5,8-0.9,12
	c-0.4,3.3-0.5,6.7,0,10c1.1,6.6,1.9,13.2,4.7,19.4c1.1,2.5,1.8,5.3,2.5,8c1.1,3.7,3,7,4.9,10.3c0.4,0.7,0.8,1.4,1.4,2.2
	c-0.6,0-0.9,0.2-1.2,0.1c-4.3-1.1-8.6-1.3-13-1.5c-2.5-0.1-5-0.8-7.5-1.1c-2.4-0.3-4.9-0.4-7.3-0.7c-1.5-0.2-2.9-0.5-4.5-0.8
	c0.4-2.8,0.8-5.4,1.2-7.9c2-12.8,4-25.6,6.1-38.4c1.6-9.6,3.4-19.1,4.9-28.7c2-12.5,4-25,5.9-37.4c1.4-8.8,2.8-17.7,4-26.5
	c0.6-4.5,0.9-9,1.4-13.5c0.9-9.5,1.8-19.1,2.6-28.6c0.3-3.5,0.5-7.1,0.7-10.6c0.5-5.9,1-11.7,1.5-17.6c0.4-4.8,0.7-9.5,1-14.3
	c0.4-5.8,0.7-11.7,1.2-17.5c0.3-4,0.8-8,1.1-12c0.2-2.2,1-6.2,1.2-8.5c0-0.4,1.3-1.3,1.4-1.7c-0.7,0.8-2.4-1.4-3.2-0.2
	c0,1.2-0.9,7.5-1.1,8.4c-0.2,1.5-0.6,7.9-0.7,8.6c-0.7,8.2-1.3,16.5-2,24.7c-0.4,4.7-0.7,9.4-1.2,14.1C65.1,63.3,64.5,69,64,74.7
	c-0.7,7.8-1.2,15.5-1.9,23.3c-0.6,6.9-1.2,13.8-1.9,20.6c-0.6,5.4-1.4,10.8-2.2,16.2c-0.5,3.2-1.2,6.3-1.8,9.4
	c-0.2,0.9-0.2,1.8-0.3,2.6c-0.2,1.1-0.3,2.3-0.5,3.4c-0.2,0.9-0.4,1.9-0.5,2.8c-0.5,4-0.8,8.1-1.7,12.1c-1,4.8-1.7,9.7-2.5,14.5
	c-0.6,3.6-0.9,7.2-1.5,10.7c-0.8,4.6-1.7,9.1-2.5,13.7c-0.8,4.4-1.5,8.8-2.2,13.1c-1.5,8.8-3,17.5-4.4,26.3c-1.5,9.5-3,19-4.3,28.6
	c-0.3,2.1-1.1,3.1-3.1,3.5c-3.6,0.7-6.8,2.3-10,4c-2.8,1.4-5.7,2.6-8.6,3.8c-1.4,0.6-2.8,1.3-4.2,2c-2.1,1.1-4.3,2.1-6.4,3.2
	c-1,0.5-2,1.1-3,1.6c0,1.4,0.7,2.2,1.5,3c0.6,0.7,1.3,1.4,1.7,2.3c2.6,5.9,6.4,11,10.2,16.4c-2.7,3.1-5.4,6.3-8.2,9.5
	c-1,1.2-2.1,2.4-3.1,3.5c-0.7,0.8-0.8,1.6-0.3,2.4c0.3,0.5,0.6,1.1,1,1.5c4.4,4.9,8.6,10.1,14.1,13.8c0.3,0.2,0.6,0.5,0.9,0.8
	c2.2,2.1,4.4,4.2,6.7,6.4c-0.1,1.1-0.2,2.2-0.4,3.4c-0.6,4.5-1.2,8.9-1.8,13.4c-0.7,5.3-1.3,10.6-1.9,15.9
	c-0.6,4.9-1.2,9.7-1.7,14.6c-0.3,2.6-0.6,5.1-0.9,7.7c-0.4,4.1-0.9,8.3-1.3,12.4c-0.4,4.6-0.7,9.2-1,13.9c-0.2,2-0.4,4.1-0.6,6.1
	c-0.3,3.2-0.4,6.4-0.8,9.6c-0.7,4.5-0.7,9.1-0.9,13.7c-0.1,2.3-0.1,4.7-0.6,6.9c-0.6,2.5-0.5,4.9,0.1,7.3c0.1,0.3,0.4,0.6,0.6,0.9
	c1-0.4,0.8-1.2,0.8-1.8c0.1-1.4,0.2-2.9,0.3-4.3c0.2-1.4,0.6-2.8,0.7-4.2c0.5-6.3,0.8-12.5,1.3-18.8c0.3-4.4,0.8-8.7,1.2-13.1
	c0.5-5.9,0.9-11.7,1.4-17.6c0.6-6,1.3-12.1,2-18.1c0.8-7.3,1.6-14.5,2.5-21.8c1-8.1,2.1-16.1,3.2-24.2c0.6-4.7,1.2-9.4,1.8-14
	c0.1-0.7,0.1-1.6,0.5-1.9c1.5-1.2,1-2.6,0.7-4.1c-0.1-0.7-0.2-1.4-0.1-2c1.1-7.9,2.1-15.7,3.2-23.6c0.1-0.9,0.3-1.7,0.5-2.6
	c1.1,0.2,2,0.3,2.9,0.5c4.8,0.8,9.5,1.7,14.3,2.5c1.4,0.3,2.8,0.5,4.2,1c4.1,1.5,8.5,2.1,12.7,2.9c2.9,0.6,5.9,1.1,8.9,1.5
	c2.3,0.3,4.5,1.2,6.9,0.9c0-0.7,0.1-1.3,0.1-1.9c-0.7,0-1.2-0.1-1.7-0.1c-2,0.1-3.9-0.2-5.9-0.6c-1.9-0.4-3.8-0.7-5.6-1
	c-5.6-0.9-11.4-1.2-16.8-3.3c-0.5-0.2-1.1-0.3-1.6-0.4c-4.1-0.7-8.2-1.4-12.3-2.1c-1.6-0.3-3.2-0.6-4.8-0.9c-1-0.2-1.2-0.7-0.8-1.5
	c3.8,0.5,7.6,1.1,11.4,1.6c2,0.3,4.1,0.4,6.1,0.9c5.2,1.2,10.4,2.5,15.8,3c4.9,0.4,9.7,1.9,14.6,3.1c2.6,0.6,2.6,0.8,2.6,3.5
	c0,2.4,0,4.8,0.1,7.2c0.3,7,0.7,14.1,0.9,21.1c0.1,4.4-0.2,8.7-0.2,13.1c0,3.7,0.2,7.4,0.3,11.1c0.1,4.1,0,8.2,0.2,12.3
	c0.5,8.9,1.1,17.9,1.5,26.8c0.3,5.3,0.4,10.5,0.7,15.8c0.3,6.6,0.6,13.2,1,19.9c0.5,11.1,1.1,22.1,1.6,33.2c0,0.7,0.1,1.3,0.1,2
	c0.8,0,1.4,0.1,2.1,0.1c0.1-0.6,0.2-1,0.2-1.5c0-1.6-0.1-3.3-0.2-4.9c-0.6-7.2-1.2-14.4-1.3-21.7c-0.1-4.9-0.3-9.8-0.5-14.8
	c-0.4-8.4-0.9-16.8-1.3-25.2c-0.2-3.8-0.4-7.5-0.6-11.3c-0.4-7-1.1-14-1.3-21.1c-0.3-11.1-0.3-22.3-0.6-33.4
	c-0.2-6.7-0.7-13.4-1-20.1c0-0.7,0-1.4,0-2c0.4,0.2,0.6,0.5,0.6,0.7c2.6,9.4,5.2,18.8,7.7,28.3c1.4,5.1,2.8,10.3,4.2,15.4
	c0.6,2.2,1,4.5,1.6,6.8c1,3.8,2,7.5,2.9,11.3c1,4.1,1.9,8.2,2.8,12.4c1.1,4.8,2.3,9.6,3.4,14.4c2.5,11.2,4.9,22.4,7.4,33.6
	c0.4,2,1,3.9,1.5,6c-0.7,0.3-1.2,0.4-1.6,0.7c-0.3,0.3-0.7,0.7-0.8,1.1c-0.1,1.7,0,3.5,1.5,4.7c0.8,0.6,1.9,1,3.1,1.5
	c-0.1-0.1,0,0,0,0.1c1.8,6.9,4.7,13.4,5.7,20.5c0.2,1.3,0.5,2.7,1.8,3.6c0.6-0.3,1.1-0.7,1.5-0.9c-0.5-1.9-0.9-3.6-1.3-5.4
	c-0.2-0.9-0.4-1.7-0.6-2.6c-1.2-4.2-2.5-8.4-3.7-12.6c-0.4-1.3-0.5-2.6-0.9-3.9c-0.6-2-1.5-4-2-6c-1.5-5.7-2.9-11.4-4.3-17.1
	c-1.2-4.8-2.4-9.5-3.3-14.4c-2.1-12.1-5.5-23.8-8.1-35.8c-0.7-3.3-1.7-6.5-2.5-9.7c-0.4-1.5-0.2-1.7,1.5-1.7
	c0.4,1.4,0.7,2.8,1.1,4.1c1,2.9,1.5,5.9,2.5,8.8c1.2,3.4,1.7,7,2.5,10.5c0.3,1.1,0.6,2.2,0.8,3.4c1.4,5.8,2.8,11.6,4.2,17.3
	c0.3,1.4,1,2.7,1.4,4.1c0.9,3.7,1.7,7.4,2.5,11.2c1.5,7,2.9,14,4.3,21.1c0.4,1.9,1,3.8,1.6,5.7c0.5,1.6,1.1,3.1,1.6,4.6
	c0.4,1.2,0.6,2.4,0.9,3.6c0.6,2.5,1.3,5,1.9,7.5c0.4,1.9,0.7,3.8,1.1,5.6c0.1,0.6,0.6,0.9,1.2,0.8c0.7-0.2,0.8-0.6,0.6-1.2
	c-0.7-2.9-1.3-5.7-1.9-8.6c-0.5-2-1-3.9-1.5-6c1.5-0.9,2.9-1.7,4.3-2.5c0.5-0.3,1.1-0.4,1.7-0.6c1.3-0.4,2.8-0.7,4-1.3
	c3.1-1.5,6.1-3.1,9.1-4.6c0.6-0.3,1.2-0.5,2.1-0.8c0.3,1.6,0.6,2.9,0.8,4.2c0.5,3,0.9,5.9,1.3,8.9c0.2,1.3,0.8,2.1,1.9,2.2
	c0.8-0.9,1.4-1.7,2-2.4c0.9,0.4,1.5,0.7,2.3,1.1c0.1-1.1,0.5-1.9,0-2.8c-0.4-0.8-0.7-1.6-0.9-2.4c-0.8-3.3-1.5-6.5-2.2-9.8
	c-1-4.9-1.9-9.8-2.9-14.7c1.6-0.6,1.8-1.9,2.3-3.2c1.6-4.8,1.4-9.9,1.5-14.8c0.2-5.8,1.4-11.2,2.9-16.7c0.1-0.5,0.5-1.2,0.9-1.3
	c1.5-0.5,3.1-1,4.5-0.5c0.6,1.7,1.2,3.1,1.8,4.5c0.2,0.5,0.4,1.1,0.3,1.6c-0.2,2.6-0.6,5.1-0.8,7.7c-0.2,1.7-0.3,3.4-0.3,5.1
	c0,0.4,0.2,0.8,0.4,1.1c1,1,2.2,1.4,3.5,1.2c1.3-0.2,1.9-1,2.4-2.2c0.8-2.2,1.7-4.3,2.7-6.4c1.4-3,2.1-6.1,2-9.3
	c0-1,0.3-1.6,1.1-2.2c0.5-0.4,1.1-1.1,1.2-1.8c0.3-2,0.3-3.9,0.4-5.9c0-0.2-0.1-0.6-0.3-0.7c-1.6-1.8-3.5-3.1-5.9-2.8
	c-1.1,0.1-2.2,0.1-3.2-0.4c-1.4-0.7-2.7-0.5-3.7,0.7c-1,1.2-2.1,0.8-3.3,0.4c0.2-1,0.4-1.9,0.5-2.9c0.3-2.7,0.5-5.4,0.8-8.1
	c0.2-2.3,0.5-4.6,0.9-6.9c0.2-1.2,0.4-2.4,0.7-3.6c0.7-2.4,1.6-4.8,2.4-7.2c0.4-1.2,0.5-2.5,0.8-3.8c0-0.2,0.1-0.4,0-0.6
	c-0.7-0.9-0.3-1.8-0.1-2.8c0.6-2.4,1.1-4.8,1.8-7.1c1.4-5,1.5-10.3,1.8-15.4c0.3-4.1,0.1-8.2,0.3-12.3c0.2-3.1-0.7-5.6-2.5-8
	c-1.7-2.3-3.2-4.7-4.9-7.1c-0.7-1-1.4-2-2.3-2.8c-1.6-1.4-2.6-3.3-3.7-5.1c-0.6-1.1-1.2-2.2-1.2-3.6c0-2-0.3-4-0.5-5.9
	c-0.4-4-1.1-7.8-2.7-11.5c-0.3-0.7-0.6-1.4-1-2c-1.4-2.1-3-4.2-4.4-6.4c-1.5-2.4-3.8-3.6-6.3-4.1c-1.9-0.4-3.8-0.3-5.7-0.2
	c-2.9,0.1-5.8,0.3-8.7,0.6c-1.2,0.1-2.3,0.5-3.6,0.8c-0.1-0.2-0.3-0.5-0.6-0.8c-1-1.2-2.2-2.1-3.9-1.8c-1.7,0.3-3,1.2-3.3,3.1
	c0,0.3-0.2,0.7-0.3,1c-0.5,1.1-2,1.8-3.2,1.4c-2.2-0.7-2.6-0.4-2.4,2c0,0.1,0,0.3-0.1,0.5c-4.4,3.1-9.4,5.2-14.4,7.7
	c-0.7-1.4-1.3-2.6-1.9-3.8c0.4-0.5,0.7-1,1.1-1.4c3.5-4.3,7.1-8.6,10.6-13c3.7-4.6,7.4-9.3,10.9-14.1c4.6-6.2,9.2-12.4,13.7-18.6
	c1.2-1.6,2.1-3.5,3.3-5.2c1.8-2.4,3.7-4.8,5.4-7.2c0.6-0.8,1.2-1.1,2.2-1.3c1.9-0.3,3.9-0.6,5.8-1.3c2.8-0.9,5.4-2.2,8.2-3.2
	c1.2-0.5,2.3-1.1,3.7-0.7c0.6,5.9,1.2,11.7,1.8,17.8c10.8-1.4,21.5-1.2,32.2-3.3c0-2.4,0-4.7,0-7C194.9,209,194.8,201.3,194.6,193.5
	L194.6,193.5z M143.9,199.3c0.4-0.7,1.3-0.6,1.5,0.2c0.2,0.7,0.2,1.5-0.1,2.2c-0.2,0.4-0.9,0.8-1.4,0.8c-0.2,0-0.5-0.8-0.8-1.2
	C143.5,200.5,143.6,199.8,143.9,199.3L143.9,199.3z M132.9,204.8c-0.6,0.3-1.3,0.7-2.1,0c-0.7-0.6-1.1-2.6-0.7-3.5
	c0.3-0.7,0.7-0.8,2.7-0.8L132.9,204.8L132.9,204.8z M120.2,454c-1.9,0-2.4-0.4-2.5-1.7c-0.2-1.5-0.1-1.8,1.5-2.3
	C119.5,451.4,119.8,452.6,120.2,454z M167.5,401.6c0.3-0.1,0.8-0.4,1.3-0.5c1.2-0.2,1.8-0.6,1.5-1.7c-0.3-1.6-0.3-3.3-1.7-4.4
	c-0.8-0.6-0.9-1.6-0.5-2.4c0.5-0.8,1.4-1.1,2.4-0.8c2.4,0.6,4.8,1.3,7.3,1.9c0.5,1.9,0.6,3.7,0,5.5c-0.2,0.6-0.6,1.3-1.1,1.6
	c-1.1,0.7-1.2,1.7-1.3,2.8c0,3.3-0.1,6.5-1.7,9.5c-1,1.8-1.3,4-2,6c-0.3,0.8-0.6,1.5-0.9,2.2c-2.8-0.9-2.9-0.9-2.8-3.6
	c0-1.3,0.3-2.7,0.5-4c0.8-0.2,1.3-0.3,2.2-0.4c-0.9-1-2.6-1.5-1.4-3.3c0.8-0.2,1.8-0.4,2.8-0.6c-0.3-1.5-1.5-1.7-2.8-1.6
	c0-0.1,0-0.3,0.1-0.5c0.4-0.1,0.9-0.3,1.3-0.4c0.5-0.2,1-0.3,1.7-0.5c-1-1.2-2.1-0.7-3.3-0.6C168.2,404.5,166.7,403.6,167.5,401.6
	L167.5,401.6z M133.2,198.6c0.2-2.4,0.6-2.9,2.8-3.3c2.2-0.5,3.8,0.3,4.9,2.3C138.4,197.9,135.9,198.3,133.2,198.6L133.2,198.6z
	 M136.9,204c-1.7,0.5-2.4,0.3-2.7-0.8c-0.4-1.3,0.4-2.8,1.7-3.2c0.5-0.1,1-0.2,1.7-0.4c-0.1,1.5-0.2,2.7-0.3,4.1
	C137.4,203.7,137.2,203.9,136.9,204L136.9,204z M97.6,230.7c-1.6-3.4-2.3-7-1.7-10.8c0.5-3.3,2-6,5.3-7.4c1.8-0.7,3.5-0.7,5.1,0.1
	c3.1,1.5,5,4,6.1,7.3c1.6,4.6,1.2,9.2,0.3,13.8c-0.4,2.2-1.8,3.8-3.8,4.8c-0.6,0.3-1.3,0.4-2,0.3c-2.4-0.2-4.3-1.3-6-3.2
	c1.2-2.8,2.4-5.7,3.6-8.5c-1.6-1-1.9-0.9-2.2,0.7c-0.5,2.2-1.5,4.2-2.7,6.6C98.8,232.9,98.1,231.8,97.6,230.7L97.6,230.7z
	 M90.8,262.6c3.3-6.8,6-13.9,8.3-21.1c0.4-1.2,0.8-2.3,1.2-3.4c0.2-0.1,0.3-0.2,0.4-0.2c0.3,0.1,0.6,0.3,0.9,0.5
	c-2.2,7-4.4,13.7-6.6,20.5c-0.9,2.7-1.8,5.4-2.8,8.1c-0.2,0.6-0.8,1.2-1.3,1.8c-0.7-0.5-1.2-0.9-2-1.4
	C89.6,265.7,90.1,264.1,90.8,262.6L90.8,262.6z M68.9,259.7c-2.3-6.3-4.3-12.7-6-19.1c-1.5-5.7-2.7-11.6-2.3-17.6
	c0.4-6.1,0.4-12.3,1.5-18.3c0.6-3.5,0.8-7.1,1.2-10.6c0.2-1.6,0.4-3.1,0.7-4.7c2-10.5,3.1-21.1,2.8-31.8c-0.2-9.9-0.3-19.8-0.1-29.7
	c0.1-5,0.7-10.1,1.1-15.1c0.3-3.8,0.8-7.6,1.3-11.4c0.2-1.4,0.6-2.8,0.7-4.2c0.7-5.6,1-11.3,1.9-16.9c0.7-4.4,0.7-8.8,1.2-13.2
	c0.1-1.2,0.2-2.3,0.4-3.5c0.7-6,1.3-12.1,2-18.1c0.4-3.7,0.8-7.5,1.1-11.2c0.2-2.1,0.3-4.2,0.4-6.3c0.1-2.1,0.3-4.3,0.1-6.3
	c-0.4-3.9,0.4-7.8,0-11.6c-0.1-1.2-0.2-2.3-0.3-3.5c0-0.9,0-1.9,0-3c3.3,1.3,6-0.9,9.2-0.7c0.1,2.5,0.2,5,0.3,7.4
	c0,6.4,0,12.8,0,19.3c0,3.3-0.3,6.7-0.3,10c0.1,5.2,0.4,10.4,0.5,15.6c0,1.4-0.1,2.9-0.1,4.3c0,1.2,0.2,2.3,0.2,3.5
	c0.1,5,0.2,10.1,0.3,15.2c0.1,6.8,0.3,13.5,0.2,20.3c0,8.7-0.2,17.4-0.4,26c-0.1,7.7-0.3,15.4-0.5,23.2c-0.1,4.9-0.4,9.8-0.5,14.8
	c-0.2,4.6-0.2,9.2-0.6,13.7c-0.6,7.2-0.8,14.5-1,21.7c-0.2,10.2-0.7,20.3-1,30.5c-0.2,8.7-0.2,17.5-0.7,26.2
	c-0.2,4.6-0.3,9.3-0.2,13.9c0,1.7-1,2.7-2.7,2.4c-1.3-0.2-2.7-0.5-4-0.9c-0.5-0.2-1.1-0.6-1.4-1.1C72.2,265.7,70.1,262.9,68.9,259.7
	L68.9,259.7z M79.6,272.7c-0.5,0.2-0.7,0.4-0.8,0.3c-0.2-0.1-0.4-0.3-0.6-0.4c0.1-0.1,0.2-0.3,0.3-0.3
	C78.7,272.3,78.9,272.4,79.6,272.7L79.6,272.7z M39.1,267.1c5.3,0.7,10.4,1.4,15.5,2c2.3,0.3,4.6,0.5,6.9,0.7c2.8,0.3,5.5,0.6,8.3,1
	c0.9,0.1,1.7,0.4,2.6,0.4c1.8,0.1,3.2,0.7,4.2,2.1c0.3,0.4,0.7,0.8,1.1,1.2c-1.2,2.3-1.2,2.4-3.6,2c-3.8-0.6-7.6-1.4-11.5-1.9
	c-2.9-0.4-5.8-0.6-8.7-0.9c-0.3,0-0.6,0-0.8-0.1c-4-1.3-8.1-1.2-12.2-1.1c-0.5,0-1,0-1.4-0.1c-0.3-0.1-0.6-0.2-1.2-0.4
	C38.6,270.3,38.9,268.7,39.1,267.1L39.1,267.1z M46.4,282.8c-1,0-1-0.7-1.1-1.4c-0.3-2.2-0.6-4.4-0.9-6.7c0.8-0.4,1.3-0.4,1.4,0.4
	c0.3,2.4,0.6,4.8,0.9,7.3C46.7,282.4,46.5,282.6,46.4,282.8z M47,286.1c-0.1,0.4-0.9,0.6-1.3,0.8c-0.2-0.1-0.3-0.2-0.5-0.3
	c0.1-1,0.1-2.1,0.2-3.3C46.6,284.1,47.3,285,47,286.1L47,286.1z M49.3,287.6c2.3-0.6,4.7-0.8,7.4-1.3c-0.2,1.1-0.3,1.9-0.4,2.6
	c-0.5,3-0.9,5.9-1.4,8.9c-0.2,1.4-0.4,1.5-1.7,1.4c-0.1,0-0.3,0-0.4,0c-3.8-0.6-7.6-1.3-11.4-1.9c-0.1,0-0.2-0.1-0.5-0.4
	c0.4-0.7,0.8-1.5,1.2-2.2c0.5-0.8,0.9-1.7,1.4-2.5C45.8,287.8,44.7,288.8,49.3,287.6L49.3,287.6z M49,285.8
	c-0.5-3.8-1.1-7.5-1.6-11.6c1.5,0.2,2.6,0.4,3.7,0.6c3.3,0.5,6.6,0.9,9.9,1.4c2,0.3,4,0.7,5.9,1c0.1,1.1,0.1,1.9,0.2,2.7
	c0.1,0.7,0.3,1.4,0.4,2.1C61.3,283.9,55.2,285.4,49,285.8L49,285.8z M68,285.3c0.3,2.3,0.7,4.6,1,7.1c-3.7,0.8-7.4,1.6-11.4,2.5
	c0.1-0.9,0.1-1.5,0.2-2.2c0.2-1.8,0.5-3.5,0.7-5.3c0.1-0.7,0.3-1.3,1.1-1.5c1.9-0.5,3.8-1.1,5.7-1.6c0.4-0.1,0.8-0.1,1.2-0.2
	C67.4,284.1,67.9,284.4,68,285.3z M57.3,296.9c3.1-1.3,9.9-2.8,12.2-2.7c0.5,2.3,0.9,4.7,1.4,7.2c-4.8-0.6-9.3-1.3-14-1.9
	C57,298.5,57.1,297.6,57.3,296.9z M70.7,293.6c3-0.6,5.7-1.1,8.8-1.8c1.3,3.8,2.5,7.4,3.8,11.2c-0.8,0.2-1.4,0.4-1.9,0.3
	c-2.3-0.3-4.7-0.8-7-1.1c-1.2-0.2-2-0.7-2.2-2C71.7,298.2,71.2,296,70.7,293.6L70.7,293.6z M70.5,292.1c-0.4-2.6-0.8-5-1.2-7.4
	c0-0.3,0.4-0.6,0.4-0.9c0-1-0.1-2-0.2-3c-0.1-0.9-0.4-1.7-0.6-2.7c1.5-0.3,2.8,0.1,4.1,0.4c3.1,0.8,3,0.8,3.7,3.8
	c0.5,2.2,1.3,4.3,1.9,6.5c0.1,0.4,0.2,0.9,0.3,1.5C76.1,290.9,73.4,291.5,70.5,292.1L70.5,292.1z M37.9,274.4c1.4,0,2.6,0,3.8,0
	c0.8,0,1.3,0.4,1.3,1.2c0,2.1,0,4.2,0,6.5c-1.9,0.2-3.9,0.3-6.4,0.5C37.1,279.6,37.5,277,37.9,274.4z M36.5,284H43
	c0.4,2.7,0.7,5.5-1.2,8c-1.1,1.5-2.1,3.2-3.2,5c-1.3-0.4-2.4-0.8-3.6-1.1C35.2,291.8,35.8,288,36.5,284L36.5,284z M12.6,307.8
	c-1.1-1.7-2.3-3.4-3.3-5.1c-1.3-2.2-2.5-4.5-3.7-6.8c-0.5-0.9-1-1.8-1.6-2.9c0.8-0.4,1.6-0.8,2.5-1.2c1,1.8,1.9,3.4,2.8,5.1
	c1.7,3.2,3.4,6.3,5.1,9.5c0.5,1.1,0.9,2.3,1.2,3.4c0,0.1-0.2,0.3-0.3,0.6C14.1,309.8,13.2,308.8,12.6,307.8L12.6,307.8z M6.2,329.8
	c0.2-0.1,0.3-0.3,0.5-0.5c1.4,1.3,2.9,2.4,4,3.9c2.2,2.8,4.5,5.2,7.6,7c0.6,0.3,0.9,1,1.3,1.6C14,338.9,10.1,334.4,6.2,329.8z
	 M21.6,344.1c-0.3-0.2-0.5-0.5-0.8-0.7c0-0.1,0.1-0.1,0.1-0.2c0.3,0.2,0.6,0.4,0.9,0.7C21.8,343.9,21.7,344,21.6,344.1L21.6,344.1z
	 M24.9,347.6c-0.6-0.7-1.3-1.3-1.9-2c0.1-0.1,0.2-0.2,0.3-0.3c0.7,0.6,1.3,1.3,2,1.9C25.2,347.3,25,347.5,24.9,347.6L24.9,347.6z
	 M27.2,334.9c-0.6,2.9-0.9,5.9-1.3,8.9c0,0.2-0.1,0.5-0.2,1c-0.7-0.5-1.3-0.8-1.7-1.3c-1.2-1.1-2.2-2.4-3.4-3.5
	c-1.1-1-2.4-1.7-3.5-2.7c-1.2-1.1-2.6-2.1-3.5-3.4c-1.8-2.4-4.1-4.2-6.4-5.9c-0.4-0.3-0.8-0.4-1.5-0.8c3.9-3.8,7.4-7.1,11-10.5
	c1.2,0.9,1.8,2.3,2.5,3.5c2.1,3.4,3.9,7,6.7,10C27.1,331.5,27.6,332.9,27.2,334.9L27.2,334.9z M17.6,315.7c0.6-0.6,1.1-1.2,1.9-2
	c1,2,1.8,3.8,2.7,5.6c0.8,1.6,1.8,3.2,2.7,4.8c0.7,1.2,1.4,2.4,1.2,4C23,324.2,20.7,319.7,17.6,315.7L17.6,315.7z M28,327
	c-2.6-4.8-5.1-9.4-7.6-13.9c2.9-4.2,7-7.1,10.6-10.8C31.4,304.3,29.2,322.1,28,327z M30.3,301.1c-2.4,2-4.6,4.3-6.8,6.5
	c-3.1,3.2-6.2,6.6-9.3,9.8c-2.5,2.6-5.2,5-7.8,7.5c-0.6,0.5-1.2,0.7-1.7-0.1c2.4-3.9,21.7-24.4,27.6-29.2
	C32.2,297.8,32,299.6,30.3,301.1z M34.1,282.4c-0.4,3.1-0.8,6.2-1.4,9.3c-0.1,0.8-0.5,1.5-1,2.2c-0.9,1.2-1.9,2.3-3,3.4
	c-3.4,3.4-6.8,6.8-10.3,10.2c-0.4,0.4-0.8,0.7-1.5,1.2c-3.1-5.9-6-11.5-9-17.2c8.4-4.2,17.3-7,26.1-10.5
	C34.1,281.5,34.2,282,34.1,282.4L34.1,282.4z M33.5,279.3c-3.4,1.5-6.9,2.9-10.3,4.3c-4.5,1.8-9.1,3.7-13.6,5.5
	c-1.9,0.8-3.8,1.5-5.7,2.1c-0.5,0.2-1,0.1-1.5,0.1c0-0.1-0.1-0.3-0.1-0.4c3.8-2,7.6-4.3,11.6-5.9c4-1.6,8-3.3,11.9-5.5
	c2.8-1.5,5.8-2.2,8.8-3C35,278.4,35,278.7,33.5,279.3z M81.9,307.1c-3.3-1.4-6.8-0.9-10.2-1.4c-3.9-0.6-7.8-0.9-11.7-1.3
	c-0.9-0.1-1.9-0.3-2.8-0.6c-4.5-1.7-9.4-1.6-14.1-2.2c-2.6-0.4-5.1-0.9-7.6-1.3c-0.3-0.1-0.6-0.3-1-0.4c0.1-0.7,0.3-1.3,0.4-2
	c2.1,0.4,4,0.8,5.9,1.1c1.5,0.3,3.1,0.4,4.7,0.6c2.6,0.4,5.2,1,7.8,1.4c3.2,0.5,6.3,1,9.5,1.1c4,0.2,7.7,1.4,11.6,2.3
	c1.2,0.3,2.5,0.4,3.8,0.7c0.7,0.1,1.3,0.3,2,0.4c0.9,0.1,1.8,0.2,3.1,0.4c0.1,0.2,0.3,0.8,0.6,1.7C82.9,307.4,82.4,307.4,81.9,307.1
	L81.9,307.1z M85.6,303.5c-2-5.7-3.8-11.4-5.6-17.1c-0.7-2.2-1.4-4.4-2.1-6.6c-0.3-0.9-0.5-1.9,1.2-2.6c1.1,2.7,2.2,5.3,3.2,8
	c1.3,3.7,2.6,7.4,3.8,11.2c0.9,2.7,1.6,5.5,2.4,8.2c0.2,0.6,0.6,1.2,0.8,1.9c0.4,1.2,0.3,1.2-1.2,1.8
	C86.8,306.9,86.2,305.2,85.6,303.5L85.6,303.5z M80.7,276.8c0.6,0,1.1-0.1,1.5,0.1c2.2,0.9,7.2,5.8,8.4,8.2
	c-1.9,1.1-3.6,2.1-5.5,3.2C83.6,284.5,82.2,280.7,80.7,276.8L80.7,276.8z M102.6,369.6c-0.7-2.4-1.3-4.7-1.9-7
	c-2.2-8.4-4.4-16.8-6.7-25.1c-1.5-5.4-3.2-10.7-4.6-16.1c-0.9-3.6-1.6-7.3-2.4-11.1h2.2c1,4.1,2.3,8.1,2.7,12.5
	c0.2,2.5,1,4.9,1.6,7.4c1.4,4.9,2.9,9.8,4.4,14.7c0.6,2,1,4.1,1.5,6.2c1.4,5.6,3.4,11.1,4.5,16.8C104,368.7,104.1,369.4,102.6,369.6
	L102.6,369.6z M103.1,299.6c-0.8-3.7-1.5-7.3-2.2-11c-0.4-1.8-0.9-3.5-1.4-5.5c1.4-0.5,2.5-0.9,3.8-1.4c2.9,9.1,6.1,18.1,8,27.7
	c-3.1,1.2-6.2,2.4-9.3,3.6c-3.1,1.2-6.2,2.4-9.5,3.7c-0.6-2.1-1.3-4.1-1.9-6.2c-0.3-1.1,0.5-1.6,1.2-2.1c2-1.2,4-2.4,5.9-3.6
	c1.5-0.9,3-1.9,4.5-2.8C103.1,301.3,103.3,300.6,103.1,299.6L103.1,299.6z M115.3,335.5c-0.2,0-0.4,0-0.7-0.1
	c0.8-1.9,2.1-2.9,4.1-2.7c2.2,0.2,3.5,1.5,4.3,3.7c-0.9,0.9-1.8,1.7-3,2.8c-0.5-0.8-1-1.4-1.4-2.1
	C117.7,335.2,117.4,335.1,115.3,335.5L115.3,335.5z M117.5,338.1c-6.1,1.8-11.5,5-17.1,8.1c-0.2-0.4-0.4-0.7-0.5-1
	c-0.1-0.3-0.1-0.7-0.2-1.1c0.8-0.4,1.5-0.8,2.2-1.2c4.5-2.1,9-4.3,13.7-5.8C116.4,336.8,117.2,336.5,117.5,338.1L117.5,338.1z
	 M118.4,330.8c0.5-0.6,0.8-1,1.1-1.4c0.2,0.5,0.4,1,0.7,1.8C119.5,331,119.1,331,118.4,330.8z M118,325.6c-0.3-1.4-1.4-2.6-0.8-4.3
	c0.4,1.4,0.8,2.8,1.3,4.2C118.2,325.5,118.1,325.5,118,325.6L118,325.6z M117.5,330.7c-2.3,0.8-4.3,3-4.2,5.5
	c-4.6,2.1-9.2,4.2-14.1,6.4c-2.1-7-4.2-13.9-5.7-21c0.4-0.3,0.6-0.5,0.9-0.6c3.8-1.1,7-3.4,10.5-5.1c1.8-0.9,3.6-1.7,5.4-2.5
	c0.6-0.3,1.3-0.4,2.1-0.6C114,318.8,115.7,324.7,117.5,330.7L117.5,330.7z M92.9,319.4c0.1-0.4,0-0.9,0.2-1.2
	c0.3-0.4,0.7-0.6,1.2-0.8c3.9-1.5,7.7-3,11.6-4.5c0.2-0.1,0.5,0,0.9,0.3c-4.5,2.2-8.9,4.4-13.4,6.6
	C93.3,319.7,93.1,319.5,92.9,319.4L92.9,319.4z M116,318.6c-0.4-1.2-0.9-2.4-1.2-3.6c-1.1-4.1-2.1-8.3-3.1-12.5
	c-0.4-1.6-0.9-3.1-1.4-4.7c-1.3-4.1-2.7-8.2-3.9-12.3c-0.4-1.3-0.7-2.6-1-4c-0.2-0.7,0-1.4,0.8-1.4c4.1,12.7,6.9,25.6,10.3,38.3
	C116.3,318.6,116.2,318.6,116,318.6z M105.7,366.6c-0.3-1-0.5-1.8-0.7-2.6c-1.3-4.6-2.6-9.2-3.8-13.8c-0.7-2.4-0.7-2.5,1.4-3.5
	c3.9-1.9,7.3-4.5,11.4-5.8c1.4-0.4,2.7-0.9,4-1.4c0.7,1.3-0.1,2-0.7,2.6c1,1.4,1.8,2.8,2.8,4.1c0.8,1,1.9,1.9,2.8,2.9
	c0.4,0.4,0.8,0.9,1.2,1.3c0.8,0.8,0.9,1.7,0.6,2.8c-0.2,0.9-0.2,1.9-0.3,3.1c-2.8,1.6-5.8,3.5-9.3,4.4c-2.9,0.8-5.1,2.9-7.5,4.4
	C107.1,365.7,106.5,366.1,105.7,366.6L105.7,366.6z M106,368.1c1.9-1.2,3.6-2.5,5.4-3.6c1.5-0.9,3.1-1.7,4.7-2.4
	c2.3-1.1,4.7-2.2,7-3.3c1.5-0.7,2.9-1.4,4.5-2c0.3-0.1,1,0.2,1.1,0.5c0.1,0.3-0.1,1-0.4,1.2c-6.3,3.4-12.3,7.2-19,9.8
	c-0.8,0.3-1.6,0.8-2.7,1.3C106.3,369,106.1,368.5,106,368.1L106,368.1z M125.9,354.7c0-0.2,0.1-0.4,0.3-0.8c0.3,0.3,0.5,0.5,0.7,0.7
	c-0.2,0.2-0.3,0.4-0.5,0.5C126.2,355,125.9,354.8,125.9,354.7L125.9,354.7z M106.8,371.5c7.2-3.8,14.2-7.4,21.6-11.3
	c-0.5,2-0.9,3.6-1.3,5.1c-0.3,1.3-0.7,2.6-1,3.9c-1.4,5.5-2.9,11.1-4.3,16.6c-0.7,2.8-0.5,5.7,0,8.7c-2.5,1.4-5,2.9-7.7,4.5
	C111.7,390,109.3,380.9,106.8,371.5L106.8,371.5z M114.5,400.7c0.5-0.3,0.8-0.6,1.2-0.8c1.8-1,3.7-2,5.6-3c0.4-0.2,1-0.3,1.4-0.4
	c0.5,1.3-0.2,1.8-0.9,2.2c-2.2,1.2-4.4,2.4-6.8,3.7C114.9,402,114.7,401.4,114.5,400.7L114.5,400.7z M115.1,403.9
	c1-0.3,1.8-0.5,2.4-0.9c2.1-1.2,4.3-2.4,6.3-3.7c1-0.7,1.9-0.7,2.9-0.4c3.5,0.8,7,1.6,10.5,2.4c1.1,0.2,2.2,0.1,3.3,0.2
	c0.8,0,1.6,0,2.7,0c-0.6,2.8-1.2,5.1-1.8,7.5c-0.1,0.3-0.3,0.6-0.4,1c-0.6,2.2-2,3.5-4,4.6c-1.5,0.9-2.7,2.2-4.2,3.2
	c-2.7,1.7-5.5,3.3-8.2,4.9c-0.6,0.3-1.1,0.7-1.7,1.1c-0.6,0.4-1.1,0.7-1.9,1.2C119,417.7,117,410.8,115.1,403.9L115.1,403.9z
	 M139.2,414.7v1.8c-1.5,0.8-2.8,1.5-4.1,2.2c-0.7,0.4-1.5,0.6-2.3,0.9c0.9-0.9,1.7-1.8,2.6-2.5C136.5,416.3,137.8,415.6,139.2,414.7
	L139.2,414.7z M132.6,419.7c-2,2-4.4,3.2-6.9,4.2C127.9,422.3,129.9,420.5,132.6,419.7z M121.6,428.5c2.8-1.4,5.6-2.8,8.3-4.3
	c2.7-1.5,5.1-3.6,8.4-4.6c-0.1,0.7-0.1,1.3-0.3,1.9c-0.3,1.6-0.6,3.2-1.1,4.8c-0.2,0.8-0.4,1.6-0.9,2.3c-0.9,1.3-1.1,2.6-0.7,4
	c0.6,2.2-0.5,5.7-2.1,7.5c-1.1,1.2-1.8,2.6-3.1,3.7c-2,1.8-1.9,1.9-5,2.8C124,440.6,122.9,434.6,121.6,428.5L121.6,428.5z
	 M129.4,461.2c-0.2-0.6-0.4-1.3-0.7-2.2c1.9-0.8,3.6-1.7,5.5-2.3c0.6-0.2,1.5,0.2,2.5,0.5C134.1,458.5,131.8,459.8,129.4,461.2z
	 M140.1,454.5c-0.5,1.1-2.8,1.4-4,0.4c-0.9-0.9-1.7-0.7-2.8-0.5c-2,0.4-4,0.7-6.2,1c-0.7-2.3-1.3-4.7-1.5-7.2
	c1.5-0.5,1.1,1.4,2.4,1.2c0-0.6-0.1-1.2-0.1-1.8c0.9-0.8,1.7-0.7,2.4,0.3c0.3,0.4,0.7,0.7,1.2,1.1c0.5-1.4-0.7-1.5-1-2.4
	c1.3-1.2,2.7-2.5,4.2-4c0.4,0.3,0.9,0.7,1.2,1.2c0.8,1.3,1.3,1.7,2.7,1.2c1-0.3,1.9-0.9,3.1,0C142.2,448.2,141.5,451.4,140.1,454.5
	L140.1,454.5z M156.9,463.7c-0.2,0.2-0.3,0.4-0.4,0.5c-0.5,0.4-1,0.7-1.6,1.2c-0.8-4.2-1.5-8.2-2.2-12.5c0.4-0.2,1-0.5,1.8-0.9
	C156,455.9,156,459.9,156.9,463.7L156.9,463.7z M154.4,449.5c-3.9,1.9-7.8,3.8-11.8,5.7c0.5-1.2,1-1.6,3.1-2.7
	c1.3-0.7,2.6-1.4,3.9-2.2c1.2-0.7,2.4-1.5,3.6-2.4c-0.2-0.4-0.3-1-0.5-1c-1.3-0.2-1.3-1.3-1.5-2.1c-0.4-2.1-0.6-4.3-1-6.6
	c0.6-0.2,1.2-0.3,2-0.5C153,441.6,153.7,445.4,154.4,449.5L154.4,449.5z M143.8,443.3c-0.3-1.8,0-3.6,0.8-5.5
	c1.2,0.3,2.4,0.5,3.5,0.7c0.6,3.1,1.2,5.9,1.8,9c-1.5,1.6-3.7,2.7-6.1,3.7c0-0.7,0-1.2,0-1.7C143.9,447.5,144.1,445.4,143.8,443.3
	L143.8,443.3z M158,403.6c-1.4,5.4-2.3,10.9-2.6,16.6c-0.2,4.1-0.8,8.1-1.2,12.2c0,0.4-0.2,0.8-0.2,1.2c-0.3,1.4-0.8,2.4-2.6,2.3
	c-0.9,0-1.7,0.3-2.6,0.5c-1.4,0.3-2.8,0.1-4.2-0.5c-1.1-0.5-2.5-0.7-3.8-0.9c-1.1-0.2-2.3-0.3-3.7-0.5c0.2-1.1,0.4-2.1,0.7-3.1
	c1.1-5.1,2.2-10.2,3.4-15.4c0.4-1.8,1-3.5,1.5-5.2c0.6-2.3,1.1-4.6,1.5-7c0.3-1.8,0.3-1.9,2.2-2.4c1.2-0.3,2.3-0.8,3.5-1
	c0.6-0.1,1.2,0,2,0c-0.4,1.6-0.8,2.9-1,4.3c-1.1,6.1-3,12-4.9,18c-0.7,2.2-0.9,4.5-1.2,6.8c-0.2,1.1-0.1,1.2,1.3,2.1
	c0.1-0.4,0.4-0.7,0.4-1.1c0-3.1,0.4-6.1,1.5-9c2.1-5.6,3.4-11.5,4.8-17.3c0.3-1,0.6-2.1,0.9-3.4c1.6,0.5,3,0.9,4.6,1.3
	C158.2,402.6,158.1,403.1,158,403.6L158,403.6z M163.3,372.5c-0.4,1.1-0.6,2.1,0.8,2.7c-1.3,5.5-0.9,11.2-2.4,16.9
	c-1.1-1.3-0.4-2.5-0.4-3.9c-2-0.9-4.2-1.8-6.8-2.3c0.9-4.8,2.6-9.4,2.2-14.1c1.4-0.9,3.3,0,4.3-1.8c-0.5-0.2-0.9-0.4-1.3-0.6
	c-0.2-0.1-0.6-0.2-0.6-0.4c0-1.7-1-1-1.7-0.6c-1.1,0.5-2.1,1.3-3.2,1.7c-2.6,1-5.3,2-8.5,3.1c-0.8,2.4-1.7,5.4-2.7,8.3
	c-0.4,1.2-0.9,2.3-1.4,3.4c-0.3,0.7-0.8,0.9-1.5,0.8c-1.6-0.2-2.9,0.3-4.2,1.2c-1,0.7-2.2,1-3.3,1.5c-0.8,0.4-1.6,0.8-2.1,2.1
	c0.8-0.2,1.3-0.2,1.7-0.4c1.7-0.8,3.3-1.8,5.1-2.6c0.7-0.3,1.6-0.5,2.4-0.3c0.7,0.1,1.3,0.8,2,1.4c1.1-1.8,3-1.2,4.7-1.5
	c4.2-0.8,8.1,0.1,11.9,1.7c0.7,0.3,1,0.7,0.9,1.6c-0.3,3.2-0.6,6.4-0.9,9.9c-0.6-0.1-1.3-0.2-1.8-0.4c-3.3-1.6-6.6-1.4-9.9-0.1
	c-0.5,0.2-1.1,0.4-1.6,0.4c-2.9-0.2-5.8-0.4-8.7-0.8c-2.3-0.3-4.6-0.8-6.8-1.2c-1.7-0.3-3.4-0.5-4.2-2.4c-0.1-0.2-0.3-0.3-0.5-0.4
	c-1.3-0.7-1.6-1.9-1.6-3.3c0-2.9,0.4-5.7,1.1-8.5c1.1-4.9,2.3-9.8,3.4-14.7c0.2-0.7,0.5-1.4,0.7-2.2c0.7-2.5,1.4-5,2.1-7.6
	c0.9,0.6,2,1.3,3.2,2.1c-0.7,2.5-1.5,5.2-2.2,7.9c-0.5,1.7-0.8,3.4-1.1,5.2c-0.7,4.1-2,8.1-2.1,12.3c-0.1,2.2,0,2.4,1.8,4.9
	c0.1-0.7,0.3-1,0.2-1.2c-0.9-2.1-0.7-4.3-0.4-6.5c0.6-4,1.4-7.9,2.3-11.8c0.1-0.5,0.5-1.2,1-1.4c3.3-1.7,4.5-4.8,5.8-7.9
	c0.4-0.8,0.6-1.6,1-2.5c1.9,0.2,3.8,0.3,6,0.5c-0.3,1.2-0.6,2.2-0.9,3.1c-0.6,1.9,0.1,3.7,2.1,5.2c1.4,1,3.4,0.9,4.9-0.1
	c1.7-1.1,2.9-2.6,3.4-4.6c0.4-1.4,1-2.7,1.5-4.1c1.6,0.1,3.1,0.2,4.8,0.3c0.2,2.9,1.8,5,3.7,7.1C164.6,369.1,164,370.8,163.3,372.5
	L163.3,372.5z M149.4,381.5c0.5-2.1,1.2-4.2,1.6-6.3c0.3-1.9,1.3-2.9,3.2-3.1c0.6,2.1-0.4,10-1.7,13h-3.7
	C149,383.9,149.1,382.7,149.4,381.5z M147.2,385.2c-1.2,0.2-2.3,0.4-3.8,0.6c0.5-1.6,0.9-2.8,1.4-4.1c0.8-2.2,1.6-4.5,2.4-6.7
	c0.3-0.8,0.8-1.4,2.1-1.1C148.6,377.7,147.9,381.4,147.2,385.2z M136.6,358.4c0.6,0.4,1.1,0.7,1.6,1.1c-0.6,3.3-2.3,6-4.9,8.1
	C134,364.4,134.2,361.1,136.6,358.4L136.6,358.4z M146.2,364.4c0.3-1.3,0.8-2.6,1.3-3.9c2.6-0.2,5.1-0.4,7.8-0.6
	c-0.7,2.1-1.3,4.1-2,6c-1.1,0.5-2.2,1-3.4,1.4C147.4,368.3,145.7,366.9,146.2,364.4z M159.6,357.8c0.7-2.4,1.5-4.7,2.2-7.1
	c0.2,0,0.3,0,0.5-0.1c0.3,2.2,0.6,4.4,0.9,6.6C162.1,357.9,160.9,358.1,159.6,357.8L159.6,357.8z M165.8,365.9
	c-1.9-1.2-2.6-3.4-2-6.5c1.1-0.1,2.2-0.2,3.4-0.3C167.2,361.6,166.8,363.8,165.8,365.9L165.8,365.9z M128,266.7
	c0.6-0.2,1.1-0.3,1.5-0.4c4.8-0.6,9.6-1.1,14.4-0.4c2.3,0.3,4.3,1.3,5.6,3.6c1.2,2.1,2.3,4.4,3.5,6.4c1.2,2,1.9,4,2.7,6.1
	c0.6,1.5,0.9,3.2,1,4.8c0.4,3.5,0.5,7.1,0.8,10.6c0.1,0.9,0,1.8,1.3,2.2c0.6,0.2,0.9,1.3,1.3,2c0.5,0.9,1.1,1.7,1.9,2.3
	c0.9,0.6,1.5,1.6,2.1,2.4c1.6,2.2,2.9,4.6,4.6,6.7c2.8,3.5,3.2,7.4,2.8,11.6c-0.2,3-0.4,6-0.6,9c-0.3,5.2-0.7,10.3-2,15.4
	c-0.5,2-1,4.1-1.5,6.2c-0.4,1.6-0.8,2.1-2.8,1.8c-0.4-2.5-0.9-5.1-1.4-7.9c1.1,0,1.8,0.1,2.5,0c0.7-0.1,1.3-0.4,2-0.6
	c-0.2-0.4-0.3-0.6-0.4-0.6c-2.5,0-5-0.1-7.5,0c-1.2,0-2.4,0.1-3.4,1.3c1.4,0.8,2.7-0.7,4.2,0.1c-0.9,2.8-1.7,5.7-2.6,8.6
	c-6.8,1.1-13.5,1-20.1,0.2c-0.1-0.2-0.1-0.3-0.2-0.5c0.5-0.4,1-0.8,1.5-1.2c1.6-1.1,2.7-2.6,3.5-4.4c0.6-1.5,1.3-3,2.2-4.4
	c1.6-2.6,2.7-5.4,3.7-8.2c1-2.6,2.2-5.1,2.6-7.9c0.2-1.5,0.2-1.5-1.5-2.4c-0.8,2.2-1.7,4.3-1.9,6.6c-0.2,2.5-0.9,4.8-2.1,7
	c-1.5,2.7-2.7,5.6-4.3,8.4c-0.8,1.4-1.9,2.6-3.1,3.8c-1.2,1.2-2.7,2.3-4,3.5c-0.7,0.7-1.3,0.6-1.9-0.1c-1.4-1.4-2.9-2.7-4.2-4.2
	c-0.8-0.8-1.3-1.9-2-2.8c-1.1-1.3-2-2.9-3.3-3.9c-1.8-1.3-2.6-3.2-3.8-5c1.5-2.4,3.9-3.9,5.9-5.9c0.5,0.3,1,0.5,1.4,0.8
	c0.8,0.6,1.5,1.4,2.4,1.9c1.6,1,2.7,2.2,2.3,4.3c-0.1,0.4,0.3,0.9,0.9,1.4c0.2-0.4,0.4-0.7,0.5-1.1c0.2-2.4,0.3-4.8,0.6-7.1
	c0.1-1.1,0.4-2.1,0.8-3.2c0.7-2.1,1-4.2,1-6.4c0-0.9,0.2-1.8,0.4-2.6c0.4-1.7,0.9-3.3,1.3-4.9c0.5-2,2.1-3,3.5-4
	c1-0.7,2.2-1.1,3.3-1.6c-1.1-1.2-2.4,0.1-3.7-0.2c2.6-3.1,5.4-5.7,8.8-7.9c1.1,0.9-0.1,2.7,1.4,3.4c1.7-2.2,0.5-5.1-2.3-5.7
	c0.8-2.7,1.6-5.3,2.4-8.2c-0.1-0.4-0.4-1-0.4-1.6c0.2-4.6-2.1-8.1-6.3-9.8c-1.2-0.5-1.8-1.2-1.9-2.3c-0.2-1-0.3-2-0.4-3
	c-0.1-1.8-0.4-2.5-2.2-2.8c-2.3-0.4-4.6-0.6-6.9-0.8c-1.4-0.1-2.9,0.1-4.4-0.8C127.8,271.7,127.9,269.2,128,266.7L128,266.7z
	 M130.8,338.2c0.4-3.2,0.8-6.4,1.2-9.6c0.1-0.9,0.2-1.7,1.6-2.2c-0.1,2.1-0.2,3.8-0.7,5.5c-0.5,1.8-0.9,3.5-1.3,5.3
	c-0.1,0.4-0.2,0.9-0.3,1.3C131,338.3,130.8,338.2,130.8,338.2L130.8,338.2z M131,302.8c-1.3-1-2.7-1.9-4.1-2.8
	c-0.6-0.4-1.5-0.4-2.5-0.7c0.9-0.5,1.6-1.1,2.4-1.4c1.2-0.5,1.6-1.3,1.8-2.3c0.2-1.1,0.6-2.1,0.9-3.4c2.2,0.4,4.2,0.8,6.4,1.2
	c-0.2,1.2-0.4,2.3-0.5,3.3c-0.3,2.1,0.9,3,3.3,2.5c0.7-0.1,1.5-0.2,2.2-0.2c0.3,0,0.5,0.3,0.9,0.5c-0.9,0.9-2.1,0.9-3.1,1.2
	c-0.9,0.3-1.5,0.6-1.1,1.4c-1.1,0.8-1.2,1.1-0.4,1.5c1.5,0.8,2.2,1.9,2.5,3.3c0.1,0.3,0.2,0.5,0.4,1c-0.7,0.6-1.3,1.2-2.2,1.9
	c-1.4-1.4-3-1.2-4.7-0.9c-0.5,0.1-1.1,0.1-1.6,0.2c-3.3,0.2-5.3-1.9-4.3-4.7c1.2,0.3,2.3,0.5,3.5,0.8
	C132.2,304,132.3,303.8,131,302.8L131,302.8z M133.9,290.7c-1-0.3-2.2-0.6-3.5-0.9c0.1-1.5,0.7-2.6,1.8-3.2c2-1,4-2,6.4-2.3
	C137,286.4,135.6,288.4,133.9,290.7L133.9,290.7z M141.6,285.2c-0.3,2.3-0.7,4.5-1,6.9c-1.4-0.4-2.8-0.7-4.3-1
	C137.4,288.1,140,285.2,141.6,285.2z M141.1,303.2c-0.2,1.8-1.2,2.4-2.5,1.7c-0.4-0.2-0.7-0.6-1-0.9
	C138.8,303.7,139.9,303.5,141.1,303.2z M143,292.3c-0.7-1.2,0-2.4,0-3.5c0-1.1,0.1-2.3,0.2-3.7c0.9,0.5,1.6,0.9,2.3,1.3
	C144.6,288.4,143.8,290.3,143,292.3L143,292.3z M146.7,288.5c0.6,1.9,1.9,3.2,1.1,5c-2.5,0.2-3.2-0.6-2.3-2.7
	C145.7,290.1,146.1,289.5,146.7,288.5L146.7,288.5z M125.9,270.9c0.1,0.3,0.2,0.5,0.2,0.6c0,0.5,0,1.1,0,1.5
	c-2.3,1.7-2.8,2.4-4.5,1.3c0.5-0.3,0.9-0.6,1.2-0.9c0.3-0.3,0.6-0.7,0.8-1c-1-1.2-2.1-0.3-3.3-0.4c0.6-1.5,0.2-3.1,1.9-4
	c1.6,0.6,2,1.8,1.6,3.6C124.7,271.3,125.3,271.1,125.9,270.9L125.9,270.9z M124,265.8c0.5,0.6,0.9,1.3,1.3,2
	c-0.1,0.1-0.2,0.2-0.3,0.3c-0.8-0.6-1.5-1.4-2.3-1.6c-0.9-0.2-1.9,0.1-3.2,0.2C120.9,264.2,122.6,263.9,124,265.8L124,265.8z
	 M115.3,272c0.4,0.4,0.6,1,0.5,1.7C115.5,273.1,115.3,272.6,115.3,272z M115.2,275.8c0.5,0.5,0.8,0.9,1.2,1.3c1.4,1.4,2,1.3,3-0.6
	c-0.3-0.3-0.6-0.6-1.2-1.3c0.8-0.1,1.2-0.2,1.7-0.1c1,0.2,1.9,0.6,2.9,0.8c0.4,0.1,0.9,0.1,1.2-0.1c1.5-1.1,3.1-0.2,4.7-0.2
	c1.4,0,2.8,0.2,4.3,0.4c1.9,0.2,3.8,0.5,5.7,0.8c0.9,0.1,1.2,0.7,1.2,1.6c0.1,1.4,0.2,2.8,0.3,4.5c-2.6-0.6-4.9,0.2-7.2,1.3
	c-1.5,0.7-2.8,1.4-3.4,3c-0.3,0.8-0.9,0.9-1.6,0.8c-2.5-0.3-5-0.6-7.5-0.8c-0.3,0-0.5,0.1-0.8,0.1c-0.5,2.1-0.2,2.7,1.7,3.2
	c2.2,0.5,4.4,0.9,6.7,1.4c0.1,1.9-0.5,3.6-1.3,5.1c-0.5,0.9-1.7,1.3-2.6,1.9c-0.8,0.5-1.7,0.9-2,2.2c0.9,0.5,1.8,1,2.8,1.5
	c-0.2,0.5-0.5,1.1-0.7,1.5c0.1,0.2,0.1,0.4,0.2,0.5c0.9,0.5,1.2,1.2,1,2.4c-0.5,4,2.7,7.1,6.7,6.8c0.5,0,1.1-0.1,1.6-0.1
	c1.6-0.1,2.6,0.4,3.2,1.6c-0.9,2.6-1.7,5-2.6,7.3c-0.4,0.9-1,1.8-1.8,2.4c-1.2,0.9-1.7,2.1-1.8,3.5c-0.3,2.3-0.5,4.6-0.8,6.9
	c-0.1,0.6-0.3,1.2-0.5,1.9c-2-0.6-3-2.6-4.9-2.2c-0.8-1-1.5-1.9-2.1-2.6c-0.2-0.9-0.2-1.7-0.4-2.4c-1.2-4.1-2.5-8.2-3.7-12.3
	c-0.5-1.7-1-3.4-1.5-5.1c-0.7-2.6-1.2-5.2-1.9-7.8c-1.6-5.9-3.2-11.7-4.8-17.5c-0.5-2-1.1-3.9-1.7-5.9c-0.2-0.6-0.4-1.2-0.6-1.9
	C110,277.9,112.7,277,115.2,275.8L115.2,275.8z M127.4,289.7c0,0.1,0,0.3,0,0.4c-1.1-0.2-2.2-0.4-3.4-0.7
	C125.3,289.2,126.5,289.3,127.4,289.7z M113.5,272.4c0.4,0.9,0.6,1.4,0.9,2.1c-1.6,0.7-3.1,1.4-4.5,2.1c-3,1.4-5.9,2.8-8.9,4.1
	c-0.7,0.3-1.5,0.8-2.2-0.5C103.6,277.6,108.4,275.1,113.5,272.4z M99.5,288.2c0.6,3.3,1.1,6.6,1.6,9.9c0.2,1.2,0,2-1.1,2.8
	c-2.8,2.1-5.9,3.6-8.8,5.5c-0.2-0.4-0.5-0.6-0.5-0.9c-0.3-3.9-2.2-7.3-3.5-10.9c-0.5-1.5-1-3-1.6-4.7c4-2.2,7.9-4.5,11.9-6.7
	C98.8,284.7,99.2,286.5,99.5,288.2L99.5,288.2z M96.7,281.5c-1.6,1-3.1,1.9-4.8,2.9c-0.4-0.5-0.7-0.8-0.9-1.2
	c-1.7-2.7-4-4.8-6.6-6.7c-0.4-0.3-1-0.5-1.5-0.7c-0.8-0.4-1.6-0.7-2.5-1.2c1.4-2.4,2.7-4.2,4.9-5.2c1-0.5,2-0.7,2.9,0.1
	c1.4,1.2,2.9,2.3,3.9,3.8C93.9,275.8,95.2,278.6,96.7,281.5L96.7,281.5z M138.6,215.9c-1.3,1.7-2.7,3.5-3.9,5.2
	c-0.7,0.9-1.2,2-1.8,2.9c-1.5,2.3-3.1,4.6-4.7,6.9c-2.2,3-4.4,5.9-6.6,8.8c-3.9,5.1-7.9,10.1-11.8,15.2c-3.6,4.6-7.2,9.1-10.8,13.6
	c-1,1.3-2,2.5-3.1,3.8c-0.1-0.1-0.3-0.2-0.4-0.4c0.6-0.9,1.2-1.9,1.9-2.8c1.7-2.2,3.5-4.4,5.2-6.5c1.5-1.8,2.9-3.6,4.4-5.4
	c3-3.9,6.4-7.5,8.7-11.9c1.3-2.5,3.4-4.6,5.2-6.8c1.8-2.1,3.6-4.1,4.9-6.5c2.6-4.7,5.6-9.2,9.1-13.4c1.1-1.4,2.5-2.7,2.9-4.9
	c0.5,0.7,0.8,1.1,1.2,1.5C138.8,215.5,138.8,215.7,138.6,215.9L138.6,215.9z M139.4,211c-0.2-0.1-0.3-0.1-0.5-0.2
	c-0.2-1.8-0.4-3.5-0.6-5.3c0.2-0.1,0.3-0.2,0.4-0.2c0.3,0.2,0.8,0.4,0.8,0.7c0.2,1.4,0.4,2.8,0.4,4.2
	C140,210.5,139.6,210.8,139.4,211L139.4,211z M139.2,203c-0.6-0.5-0.4-1.8,0.3-2.8c0.5-0.8,0.5-0.8,2.4-0.3c0.1,1,0.2,1.9,0.2,3
	C141.1,203.3,140.2,203.8,139.2,203L139.2,203z M141.4,212.9c0.6-0.4,1.2-1,1.8-1.2c4.6-1.4,9.3-2.7,13.9-4c0.2-0.1,0.4,0,0.6,0
	C152.8,210.8,147.3,212.2,141.4,212.9L141.4,212.9z M193.3,189.2c-0.7,4.5-0.1,9.1-0.3,13.7c-0.2,4.9,0,9.8-0.1,14.7
	c0,1.5-0.3,3-0.4,4.7c-0.9,0.1-1.9,0.3-2.9,0.5c-3,0.5-5.9,0.9-8.9,1.3c-0.8,0.1-1.6,0.2-2.4,0.2c-4.4,0.2-8.7,0.2-13,1.1
	c-1.3,0.3-1.6,0.1-1.7-1.3c-0.4-3.1-0.6-6.1-0.9-9.2c-0.2-1.7-0.4-3.4-0.5-5.1c-0.1-1,0.4-1.6,1.7-1.4c0.4,2.6,0.8,5.3,1.2,8
	c0.1,0,0.1,0,0.2,0c-0.1-2.7-0.3-5.4-0.4-8.4c2.3-1.2,5-1,7.6-1.6c2.6-0.6,5.2-1.1,7.8-1.6c0.3-0.6,0-2.1-0.9-4.3
	c-4.6,1.2-9.2,2.3-13.9,3.5c-0.2-4.1-0.3-8-0.5-12.1c0.5-0.1,1-0.2,1.6-0.3c2.7-0.2,5.4-0.5,8.1-0.7c0.7-0.1,1.5,0,2.2-0.1
	c0.7,0,1.4,0,2-0.2c2.5-1.1,5.1-0.8,7.6-1c0.7-0.1,1.5-0.1,2.4-0.2c0.2,1.4,0.4,2.9,0.4,4.4c0.1,4.6,0,9.3,0.2,13.9
	c0.1,1.9,0,3.9,0.5,5.9c0.4,1.4-0.2,3.1-0.4,4.8c-2.8,0.6-5.4,1.6-8.2,1.8c-1.4,0.1-2.9,0.2-4.2,0.7c-2.1,0.8-4.3,0.6-6.4,0.6
	c-1.7,0-3.4,0.2-5.1,0.8c0.5,0.9,1.2,0.6,1.8,0.6c2.2-0.1,4.4-0.2,6.5-0.3c0.5,0,1,0,1.4-0.1c3-1,6.1-1.4,9.2-1.4
	c1.9,0,3.9-0.4,5.8-0.6c0.8-0.1,0.9-0.7,0.8-1.4c-0.1-3.1-0.4-6.1-0.4-9.2c0-4.5,0.1-9,0.1-13.5c0-2.4-0.3-4.8-0.5-7.1
	c-0.1-1-1.1-1.7-2.1-1.3c-2.2,0.8-4.6,0.6-6.9,0.8c-1.2,0.1-2.3,0.7-3.5,0.8c-4.2,0.4-8.4,0.7-12.6,1.1c-0.7,0.1-1.3,0.1-2.2,0.2
	v13.5c-0.9-0.2-0.8-0.9-0.8-1.4c-0.4-3.5-0.7-7.1-1-10.6c-0.1-0.9-0.2-1.9-0.3-2.9c10.6-1.3,20.8-4,31.4-4.3
	C193.3,186.4,193.5,187.8,193.3,189.2L193.3,189.2z M168.5,205.1c3.1-0.8,6.2-1.7,9.7-2.6C177.1,204.1,172.6,205.3,168.5,205.1z
	 M129.5,294.8c0.9-0.4,1.6-1,2-0.8c0.9,0.3,1.8,0.9,2.6,1.5c0.1,0.1,0,0.7-0.1,0.9c-0.3,0.2-0.8,0.3-1.1,0.2
	C131.9,296.1,131,295.6,129.5,294.8z M130.4,297.2c0.5,0.7,0.9,1.1,0.9,1.5c0,0.6-0.2,1.3-1,1.2c-0.6-0.1-1.2-0.5-1-1.2
	C129.3,298.3,129.8,297.9,130.4,297.2L130.4,297.2z"/>
</svg>
