<svg width="400" height="523" viewBox="0 0 400 523" fill="none" xmlns="http://www.w3.org/2000/svg">
<path d="M145.696 229.644C148.243 234.709 151.79 242.461 153.245 245.703L147.517 247.621L143.404 250.772L125.023 220.487L94.9955 176.004L80.5778 155.031L52.7592 96.2954L35.6479 62.0998L12.9327 19.5091C12.9465 18.3631 13.2217 15.8048 14.2125 14.7392C15.2034 13.6736 16.7996 14.2191 17.474 14.6251L38.7188 43.951L70.377 88.3767L100.012 131.585L114.007 153.862L128.254 189.016C133.007 200.448 143.148 224.578 145.696 229.644Z" fill="#FF97B3"/>
<path d="M139.176 297.312L149.142 281.929L156.072 281.687L140.404 330.775L130.707 357.746L122.656 383.372L116.345 399.915L107.99 416.96L93.447 440.235L81.01 457.853L66.8958 479.395L56.9049 496.926L48.5601 513.112L43.188 519.313L39.0957 520.745L39.1526 516.018L67.3869 438.57L79.2205 403.362L96.359 367.539L105.932 350.881L139.176 297.312Z" fill="#FF97B3"/>
<path d="M216.578 265.395L173.38 265.617L171.827 259.228L174.697 257.839L217.265 242.175L238.908 238.411L280.057 239.12L383.56 239.366L389.226 242.604L363.073 248.674L287.158 258.631L216.578 265.395Z" fill="#FF97B3"/>
<path d="M146.291 278.503L153.029 280.193L160.091 279.405L170.282 273.984L174.419 264.744L169.706 254.545L161.481 246.506L150.867 245.921L143.496 250.602L135.84 261.297L138.066 270.464L146.291 278.503Z" fill="#FF97B3" stroke="black"/>
<path d="M134.462 263.464C135.52 272.422 145.608 279.498 145.608 279.498L145.961 279.732C147.154 280.518 147.32 281.669 146.459 283.183C145.481 284.9 144.516 286.629 143.55 288.358C140.941 293.018 138.257 297.836 135.38 302.428C133.553 305.352 131.811 308.39 130.119 311.322C127.362 316.143 124.504 321.122 121.197 325.716C116.068 332.845 111.216 340.379 106.514 347.662C104.564 350.694 102.601 353.727 100.625 356.747C100.326 357.197 100.026 357.648 99.7134 358.099C98.739 359.531 97.7396 361.002 96.9719 362.595C93.3487 370.009 89.5092 378.064 84.8746 387.946L84.5849 388.564C82.8093 392.341 80.9831 396.236 79.4752 400.197C78.0433 403.962 76.7326 407.851 75.4726 411.61C74.8618 413.417 74.2633 415.224 73.6403 417.032C72.1018 421.5 70.5633 425.967 69.0246 430.447C65.2477 441.451 61.3315 452.822 57.3812 463.961C54.8788 471.025 52.2159 478.172 49.6541 485.082C47.9294 489.724 46.2047 494.366 44.5169 499.007C43.5777 501.589 42.7236 504.247 41.8951 506.812C41.5129 507.99 41.1304 509.182 40.7481 510.36C38.9726 513.101 38.6033 516.259 38.2752 519.053C38.1516 520.145 38.3511 520.901 38.874 521.297C39.4211 521.718 40.2317 521.664 41.2808 521.161C44.86 519.444 47.4541 516.998 49.212 513.675C50.7312 510.813 52.3242 507.936 53.8671 505.151C55.7987 501.667 57.7931 498.064 59.6527 494.452C64.4142 485.239 69.76 476.419 75.5521 468.244C78.5355 464.037 81.4715 459.689 84.3075 455.487C85.8816 453.167 87.4435 450.834 89.0297 448.527C90.6535 446.153 92.3139 443.792 93.9621 441.43C97.3333 436.601 100.829 431.612 104.056 426.556C109.496 418.043 113.413 410.749 116.382 403.578C119.403 396.29 122.178 388.958 124.645 381.805C125.904 378.137 127.017 374.358 128.092 370.709C129.013 367.57 129.96 364.328 131.004 361.185C132.863 355.58 134.821 349.895 136.716 344.406C138.559 339.074 140.454 333.571 142.262 328.124C146.846 314.283 151.384 300.173 155.769 286.533L156.216 285.12C157.07 282.462 158.386 281.135 160.762 280.547C164.934 279.508 168.423 277.186 170.856 273.813C172.029 272.193 173.02 270.424 174.061 268.563C174.512 267.771 174.963 266.953 175.464 266.107L176.667 266.065C177.871 266.023 179.221 265.975 180.571 265.928C182.314 265.893 184.057 265.845 185.8 265.797C190.207 265.682 194.761 265.561 199.227 265.586C201.644 265.605 204.109 265.726 206.489 265.85C209.8 266.019 213.209 266.197 216.585 266.079C222.404 265.876 228.312 265.358 234.037 264.861C236.174 264.669 238.311 264.491 240.436 264.313C242.917 264.11 245.411 263.867 247.893 263.625L250.105 263.406C253.164 263.104 256.223 262.816 259.281 262.541C266.406 261.878 273.777 261.18 281.015 260.357C292.455 259.064 303.799 257.554 314.455 256.133C330.335 254.012 344.187 252.078 356.824 250.251C364.224 249.177 371.724 247.97 378.978 246.81L385.998 245.684C386.957 245.534 387.879 245.36 388.646 244.854C389.19 244.511 390.553 243.402 390.442 242.449C390.319 241.443 389.413 240.271 388.545 239.991L387.958 239.805C385.709 239.068 383.387 238.308 381.008 238.21C373.404 237.867 365.614 237.713 357.846 237.752C350.937 237.786 343.917 237.876 337.13 237.971C329.029 238.086 320.659 238.198 312.425 238.214C303.664 238.223 294.769 238.055 286.169 237.903C282.697 237.843 279.237 237.77 275.765 237.723C273.189 237.684 270.612 237.657 268.036 237.618C261.398 237.54 254.527 237.456 247.794 237.2C237.626 236.805 227.462 238.144 217.572 241.156L215.872 241.682C211.795 242.924 207.596 244.197 203.516 245.712C196.453 248.327 189.303 251.088 182.386 253.776L176.173 256.181C175.347 256.494 174.557 256.872 173.718 257.276C173.434 257.416 173.138 257.555 172.829 257.696C172.636 257.392 172.456 257.1 172.288 256.809C171.794 255.997 171.325 255.224 170.769 254.532C170.055 253.664 169.429 252.676 168.815 251.74C167.381 249.525 165.899 247.234 163.301 245.953C161.142 244.89 158.768 244.3 156.058 244.175C154.108 244.088 152.915 243.301 152.162 241.645C150.787 238.587 149.376 235.543 147.964 232.512C145.524 227.252 142.988 221.814 140.71 216.354C137.394 208.433 134.203 200.287 131.12 192.409C129.906 189.307 128.691 186.204 127.465 183.102C126.572 180.842 125.703 178.556 124.847 176.269C123.123 171.683 121.328 166.931 119.271 162.422C110.806 143.873 99.3351 127.384 88.2374 111.452C81.8083 102.203 75.0475 92.9782 68.5285 84.0557C66.3071 81.0272 64.0979 77.9983 61.8889 74.9564C50.4693 59.2681 40.7463 45.3454 32.165 32.4052C29.4291 28.2816 26.2115 24.4208 23.1151 20.6851C21.8934 19.2136 20.6716 17.755 19.4869 16.2692L19.2935 16.0301C18.6166 15.1736 17.8429 14.2041 16.7009 14.2699L15.7553 14.3289L16.3354 15.0722C17.6405 16.7479 18.9704 18.4098 20.3002 20.0718C23.2137 23.7103 26.2239 27.4748 28.9626 31.3654C33.9697 38.464 38.9497 45.7706 43.7606 52.8502C46.7149 57.1862 49.657 61.5097 52.6361 65.8189C59.0283 75.0822 64.7222 83.2311 70.0315 90.7074C71.3106 92.5005 72.6884 94.2514 74.0178 95.9521C75.3835 97.6904 76.8098 99.4913 78.1006 101.336C84.2056 109.988 90.1533 118.464 95.9394 127.102C101.135 134.893 105.301 141.477 109.016 147.857C116.375 160.439 121.637 173.884 125.39 184.197C132.672 204.146 138.837 219.06 145.374 232.589C146.5 234.919 147.527 237.251 148.614 239.724C149.056 240.718 149.498 241.725 149.952 242.732L147.62 243.797L147.235 243.163C146.838 242.504 146.453 241.896 146.104 241.261C143.906 237.352 141.707 233.429 139.509 229.52C135.857 223.021 132.217 216.509 128.552 210.023C117.811 191.011 105.639 169.46 93.5868 148.242C83.3849 130.272 73.1583 112.316 62.9317 94.3596L42.6111 58.6499C38.5976 51.5812 34.5719 44.5 30.5337 37.4452C30.4616 37.3183 30.402 37.178 30.3301 37.0381C29.9474 36.2103 29.4211 35.0768 27.3338 35.1757L26.5236 35.204L41.411 61.5004C75.5112 121.759 110.777 184.074 145.764 245.104L143.289 246.822C142.591 245.668 141.918 244.514 141.256 243.385C139.645 240.646 138.118 238.059 136.443 235.516C132.272 229.242 128.065 222.983 123.858 216.737C119.433 210.148 114.997 203.56 110.61 196.945C106.657 190.974 102.693 184.861 98.8745 178.938C96.5494 175.343 94.2245 171.736 91.8747 168.156C90.6097 166.207 89.2953 164.285 87.9809 162.364C85.4002 158.597 82.7353 154.691 80.4525 150.643C77.4368 145.299 74.7443 139.608 72.1478 134.095C71.4058 132.529 70.6639 130.963 69.9217 129.41C67.4318 124.216 64.9668 118.996 62.5139 113.788C60.0846 108.657 57.6678 103.513 55.2138 98.3959L54.0049 95.8625C49.9109 87.3212 45.6856 78.4869 41.3466 69.9153C34.4189 56.2055 27.3547 42.617 20.5182 29.4864C19.0189 26.6138 17.4689 23.8723 15.8105 20.9665C15.0655 19.6465 14.3083 18.327 13.5637 16.9811L13.1313 16.2067L12.753 17.0483C11.9339 18.8371 12.7163 20.104 13.3544 21.1171C13.4629 21.2816 13.559 21.4594 13.6551 21.6243C14.256 22.6775 14.8695 23.7044 15.4952 24.7309C16.4939 26.3785 17.5286 28.0896 18.4157 29.8317C23.8471 40.4229 30.2606 53.0117 36.7309 65.9869C41.3797 75.3242 45.9046 84.7564 50.2862 93.87C53.7935 101.189 57.3008 108.522 60.7834 115.855C64.0151 122.627 67.2347 129.387 70.4788 136.146C71.1731 137.597 71.8549 139.062 72.5366 140.539C74.4264 144.615 76.3758 148.831 78.7097 152.71C83.0646 159.96 87.8009 167.12 92.393 174.039L95.2131 178.302C99.4311 184.691 103.771 191.166 107.966 197.413C110.196 200.738 112.426 204.064 114.656 207.39L119.068 213.979C124.227 221.694 129.567 229.687 134.774 237.568C136.533 240.25 138.23 243.025 139.866 245.712C140.564 246.852 141.25 247.993 141.948 249.107C141.062 250.381 140.069 251.257 138.848 251.791C136.536 254.254 133.862 258.295 134.485 263.554L134.462 263.464ZM153.585 285.522C153.468 286.018 153.365 286.475 153.224 286.933C152.409 289.42 151.606 291.92 150.803 294.408C148.764 300.717 146.661 307.223 144.498 313.602C142.221 320.295 139.907 326.977 137.593 333.658C134.682 342.044 131.682 350.729 128.806 359.281C127.623 362.792 126.585 366.4 125.574 369.904C124.55 373.421 123.5 377.056 122.316 380.579C119.669 388.437 117.241 395.498 114.213 402.334C109.079 413.955 102.412 425.487 93.2352 438.608L88.99 444.684C82.6971 453.692 76.1797 462.993 69.8719 472.222C67.1239 476.24 64.6931 480.415 62.011 485.077C57.9502 492.143 53.9869 499.271 50.2986 505.975C49.2448 507.888 48.276 509.877 47.3448 511.799L46.6023 513.339C45.2688 516.065 43.3077 517.919 40.4705 519.158C40.1386 517.163 40.6277 515.269 41.1038 513.428C41.3486 512.461 41.6184 511.455 41.7533 510.441L41.7538 510.402C42.0433 509.797 42.3328 509.191 42.6345 508.598C43.3767 507.084 44.144 505.517 44.7524 503.904L47.1735 497.477C52.2694 483.929 57.5427 469.922 62.5685 456.079C66.0841 446.392 69.504 436.5 72.8096 426.924C73.9539 423.609 75.0983 420.282 76.2548 416.967C76.9414 414.976 77.6035 412.985 78.2657 410.982C79.3737 407.617 80.5198 404.147 81.7994 400.802C83.8012 395.568 86.1455 390.425 88.1734 386.083C91.3601 379.254 94.5081 372.582 97.8991 366.109C99.4314 363.182 101.281 360.361 103.057 357.619C103.732 356.599 104.395 355.567 105.057 354.534C105.72 353.475 106.432 352.454 107.144 351.419C107.656 350.677 108.168 349.921 108.668 349.166L110.393 346.556C116.08 337.931 121.767 329.307 127.43 320.657C128.667 318.776 129.783 316.796 130.786 315.065C135.524 306.758 140.263 298.439 144.977 290.107C145.804 288.642 146.466 287.7 148.024 287.697L138.833 307.083C132.06 321.362 125.324 335.602 118.575 349.842C115.402 356.553 112.241 363.265 109.093 369.989C102.506 384.003 95.7056 398.503 88.8231 412.657C77.1593 436.647 60.4461 472.357 59.8543 476.675L59.5992 478.496L60.6724 477.009C60.9844 476.571 61.2585 476.225 61.4955 475.906C61.9319 475.334 62.2808 474.895 62.5201 474.382C70.2527 457.907 77.973 441.433 85.7057 424.945C93.5393 408.234 101.373 391.536 109.206 374.825C113.828 364.969 118.475 355.139 123.109 345.296C127.629 335.715 132.137 326.148 136.646 316.556C140.751 307.818 144.858 298.925 148.854 290.127C149.9 287.825 151.004 285.871 153.672 285.441C153.671 285.467 153.659 285.507 153.646 285.533L153.585 285.522ZM178.81 257.305C182.607 255.813 186.528 254.266 190.422 252.9C199.554 249.681 209.917 246.044 220.19 242.812C230.377 239.608 240.921 239.356 250.796 239.554C266.757 239.876 287.81 240.253 309.013 240.327C318.142 240.357 327.433 240.213 336.417 240.093C343.057 239.99 349.917 239.893 356.654 239.864C363.134 239.832 369.722 239.989 376.088 240.142L380.75 240.251C383.167 240.309 385.715 240.673 387.984 242.793C387.922 242.809 387.861 242.837 387.811 242.851C387.134 243.082 386.505 243.298 385.854 243.399C380.149 244.271 374.433 245.157 368.728 246.042C354.185 248.311 339.137 250.65 324.326 252.656C308.323 254.808 292.031 256.568 276.254 258.272L269.361 259.018C253.401 260.741 240.415 261.984 228.501 262.932C222.053 263.442 215.474 263.556 208.937 263.241C198.194 262.736 188.179 262.853 178.317 263.587C177.47 263.655 176.623 263.672 175.702 263.691C175.358 263.703 175.015 263.715 174.646 263.728L174.202 260.857L175.884 260.837C183.579 260.723 191.145 260.135 197.532 259.588C206.463 258.81 215.406 258.018 224.336 257.214C230.638 256.657 236.94 256.088 243.242 255.531C248.585 255.059 253.929 254.6 259.272 254.142C264.124 253.726 268.976 253.31 273.816 252.882C284.859 251.914 295.89 250.933 306.934 249.964L331.035 247.84C346.181 246.507 361.34 245.162 376.486 243.791C377.235 243.726 377.951 243.416 378.642 243.12C378.876 243.021 379.123 242.922 379.357 242.823C379.406 242.822 379.455 242.82 379.504 242.805L380.881 242.589L380.443 242.332C382.222 242.374 384 242.428 385.779 242.469C385.78 242.353 385.782 242.223 385.783 242.107L380.37 242.296L379.48 241.771L379.283 241.842C379.283 241.842 379.197 241.871 379.16 241.885C378.914 241.933 378.656 241.968 378.41 242.015C377.696 242.144 376.971 242.273 376.258 242.323C374.932 242.409 373.594 242.481 372.268 242.541C370.512 242.628 368.695 242.704 366.914 242.857C358.23 243.575 349.533 244.319 340.848 245.076L248.45 252.993C242.444 253.501 236.425 254.009 230.418 254.53C219.264 255.502 208.098 256.475 196.944 257.486C191.207 258.011 185.371 258.603 179.732 259.175L177.312 259.415C176.919 259.455 176.549 259.597 176.191 259.739C176.043 259.796 175.895 259.853 175.748 259.897L174.109 260.446L173.927 259.262C175.554 258.636 177.169 257.997 178.785 257.358L178.81 257.305ZM149.538 247.574C154.079 245.435 160.947 245.751 165.271 250.466C168.408 253.877 170.148 258.242 171.887 262.556C172.257 263.475 172.442 264.413 172.43 265.372C172.402 267.728 171.218 270.203 168.867 272.873C165.346 276.866 160.777 278.23 156.337 279.11C149.549 279.257 139.386 275.406 137.961 266.37C137.482 263.358 137.777 260.229 138.917 256.241C139.135 255.496 139.759 254.62 140.465 254.065C141.208 253.495 141.939 252.9 142.671 252.305C144.852 250.533 147.107 248.707 149.55 247.56L149.538 247.574Z" fill="black"/>
</svg>
