<svg id="Слой_1" xmlns="http://www.w3.org/2000/svg" viewBox="-387 264.5 66.9 66.8"><style>.st0,.st1{fill:#6a7ca2}.st1{stroke:#6a7ca2;stroke-miterlimit:10}</style><path id="round" class="st0" d="M-353.6 331.3c-18.4 0-33.4-15-33.4-33.4s15-33.4 33.4-33.4c3.6 0 7.2.6 10.6 1.7 1.5.5 2.3 2.1 1.8 3.6s-2.1 2.3-3.6 1.8c-2.8-1-5.8-1.4-8.8-1.4-15.3-.1-27.8 12.4-27.8 27.7 0 15.3 12.5 27.8 27.8 27.8s27.8-12.5 27.8-27.8c0-2.4-.3-4.8-.9-7.1-.4-1.5.5-3 2-3.4s3 .5 3.4 2c.7 2.8 1.1 5.7 1.1 8.6 0 18.3-15 33.3-33.4 33.3z"/><path id="_x31_" class="st1" d="M-359.2 312.4h-5.5v-20.8c-2 1.9-4.4 3.3-7.1 4.2v-5c1.4-.5 3-1.4 4.7-2.7 1.7-1.3 2.8-2.8 3.5-4.6h4.5v28.9h-.1z"/><path id="_x38_" class="st1" d="M-350.9 296.8c-1.4-.6-2.5-1.4-3.1-2.5-.6-1.1-1-2.2-1-3.5 0-2.1.7-3.9 2.2-5.3s3.6-2.1 6.4-2.1c2.7 0 4.9.7 6.4 2.1s2.3 3.2 2.3 5.3c0 1.3-.3 2.5-1 3.6-.7 1-1.7 1.8-2.9 2.4 1.6.6 2.8 1.6 3.6 2.8.8 1.2 1.2 2.6 1.2 4.3 0 2.7-.8 4.8-2.5 6.5-1.7 1.7-3.9 2.5-6.8 2.5-2.6 0-4.8-.7-6.5-2.1-2.1-1.6-3.1-3.8-3.1-6.7 0-1.6.4-3 1.2-4.3.7-1.2 1.9-2.2 3.6-3zm.6 6.8c0 1.5.4 2.7 1.2 3.6.8.9 1.7 1.3 2.9 1.3 1.1 0 2.1-.4 2.8-1.2.7-.8 1.1-2 1.1-3.5 0-1.3-.4-2.4-1.1-3.2-.8-.8-1.7-1.2-2.9-1.2-1.3 0-2.4.5-3 1.4-.7.7-1 1.7-1 2.8zm.5-12.3c0 1.1.3 2 .9 2.6s1.4.9 2.5.9c1 0 1.9-.3 2.5-.9s.9-1.5.9-2.6c0-1-.3-1.9-.9-2.5-.6-.6-1.4-.9-2.5-.9s-1.9.3-2.5.9c-.6.6-.9 1.5-.9 2.5z"/><path id="plus" class="st0" d="M-322.9 272.5h-3.5V269c0-1.6-1.3-2.8-2.8-2.8-1.6 0-2.8 1.3-2.8 2.8v3.5h-3.5c-1.6 0-2.8 1.3-2.8 2.8s1.3 2.8 2.8 2.8h3.5v3.5c0 1.6 1.3 2.8 2.8 2.8 1.6 0 2.8-1.3 2.8-2.8v-3.5h3.5c1.6 0 2.8-1.3 2.8-2.8s-1.3-2.8-2.8-2.8z"/></svg>