<svg version="1.2" baseProfile="tiny" xmlns="http://www.w3.org/2000/svg" viewBox="0 0 300 300"><path fill="#405672" d="M292.4 62.4c-8-18.4-20.5-33.9-36.8-44.8S219.6 0 198.3 0h-95.8C88.6 0 74.8 2.9 62.7 8c-18.4 8-33.9 20.5-44.8 36.8S.3 81.2.3 102.1V198c0 13.8 2.9 27.6 8 39.8 8 18.4 20.5 33.9 36.8 44.8s36 17.6 56.9 17.6h95.8c13.8 0 27.6-2.9 39.8-8 18.4-8 33.9-20.5 44.8-36.8 10.9-16.3 17.6-36 17.6-56.9v-96.3c.4-14.3-2.6-27.7-7.6-39.8zm-92.9 136.8h-97.9v-97.9h97.9v97.9z"/><ellipse fill="#323C4A" cx="150.1" cy="49" rx="28" ry="27.6"/><ellipse fill="#374354" cx="150.1" cy="51.5" rx="28" ry="27.6"/><circle fill="#F6DB46" cx="150.5" cy="50.2" r="23"/><circle fill="#FFF" cx="160.2" cy="38.5" r="5.4"/><ellipse fill="#323C4A" cx="150.1" cy="248.2" rx="28" ry="27.6"/><ellipse fill="#374354" cx="150.1" cy="250.7" rx="28" ry="27.6"/><circle fill="#F6DB46" cx="150.5" cy="249.4" r="23"/><circle fill="#FFF" cx="160.2" cy="237.7" r="5.4"/><ellipse fill="#323C4A" cx="51.4" cy="148.6" rx="28" ry="27.6"/><ellipse fill="#374354" cx="51.4" cy="151.5" rx="28" ry="27.6"/><circle fill="#F6DB46" cx="51.4" cy="150.3" r="23"/><circle fill="#FFF" cx="61.4" cy="138.5" r="5.4"/><ellipse fill="#323C4A" cx="250.2" cy="148.6" rx="28" ry="27.6"/><ellipse fill="#374354" cx="250.2" cy="151.5" rx="28" ry="27.6"/><circle fill="#F6DB46" cx="250.2" cy="150.3" r="23"/><circle fill="#FFF" cx="259.8" cy="138.5" r="5.4"/></svg>