<svg id="gambleware" xmlns="http://www.w3.org/2000/svg" viewBox="-295 279.6 250.2 37.7"><style>.st0{fill:#6a7ca2}.st1{fill:#5a6787}</style><path id="g" class="st0" d="M-289.4 298.2c0 3.9 1.7 6.1 4.8 6.1 2.9 0 5.1-2.6 5.1-6.3 0-3.5-2-6.1-4.7-6.1-3.2.1-5.2 2.5-5.2 6.3m9.8 7.4c-.9 1-2.7 3.2-6.6 3.2-5.1 0-8.8-4.4-8.8-10.7s3.8-10.7 9.2-10.7c2.1 0 3.8.8 6.3 2.8v-2.3h7.4v4.2h-2v16.8c0 5.2-3.9 8.3-10.5 8.3-3.2 0-5.7-.7-7.5-2.2-1.4-1.1-2-2.2-2.6-4.8h5.3c.7 2 2.2 2.9 4.7 2.9 3.1 0 5.2-1.6 5.2-4.1-.1 0-.1-3.4-.1-3.4z"/><path id="a_2_" class="st0" d="M-257 299.4c-5.1.5-8.5.9-8.5 4 0 1.8 1.4 3 3.6 3 2.8 0 4.9-2.1 4.9-4.8v-2.2zm5.1 6.1h1.9v4.2h-6.8v-2.6c-2.2 2.3-3.9 3-6.6 3-4.4 0-7.7-2.9-7.7-6.8 0-6.4 7.2-7.1 14.2-7.8 0-3.4-.9-4.2-4-4.2-2.2 0-3.8 1.3-3.9 3.3l-5.3-.2c.3-4.4 3.8-7.2 9-7.2 6 0 9.3 2.7 9.3 7.7l-.1 10.6z"/><path id="m" class="st0" d="M-241.3 290.5c2.3-2.5 3.8-3.1 6.3-3.1s3.8.9 5.2 3.4c1.1-1.1 3.1-3.4 6.6-3.4s5.9 2.5 5.9 6.2v12h2v4.2h-7.4V295c0-1.9-.9-3.1-2.3-3.1-2.2 0-4.3 2.9-4.3 5.9v7.6h2.1v4.2h-7.5v-14.4c0-2.2-.7-3.3-2.3-3.3-2.4 0-4.5 2.9-4.4 6.4v7.1h2.1v4.2h-9.3v-4.2h1.8v-13.3h-1.9v-4.2h7.2v2.6h.2z"/><path id="b" class="st0" d="M-206.7 298.9c0 4.5 1.8 6.9 5.3 6.9 3 0 4.9-2.7 4.9-7s-1.9-7-4.9-7c-3.4 0-5.3 2.6-5.3 7.1m-7.3-19.3h7.4v10.7c2.2-2.2 3.9-3.1 6.2-3.1 5.5 0 9.4 4.7 9.4 11.3 0 7-3.7 11.7-9.1 11.7-2.7 0-4.2-.7-6.7-2.9v2.4h-7.4v-4.2h2.3v-21.7h-2.1v-4.2z"/><path id="l" class="st0" d="M-189.7 279.6h7.4v25.9h2.1v4.2h-9.5v-4.2h2.1v-21.7h-2.1z"/><path id="e_1_" class="st0" d="M-164.2 296.1c-.4-2.8-2-4.3-4.6-4.3-2.4 0-4.2 1.6-4.9 4.3h9.5zm5.6 6.5c-1 4.7-4.9 7.7-10.3 7.7-6.1 0-10.6-4.8-10.6-11.5 0-6.6 4.5-11.5 10.7-11.5 3.5 0 6.5 1.6 8.4 4.5 2 3.1 2.1 6 2.2 8.2H-174c.5 5.7 4.2 6 5.3 6 2.2 0 3.6-1 4.5-3.3l5.6-.1z"/><path id="a_1_" class="st1" d="M-142.4 298.6l-1.9.3c-4 .6-5.7 1.2-6.8 2.3-.6.6-.9 1.4-.9 2.1 0 2 1.7 3.7 3.8 3.7 3 0 5.8-2.7 5.8-5.4v-3zm0 8.2c-2 1.8-3.8 3.4-7.4 3.4-4.1 0-7.1-2.8-7.1-6.6 0-1.7.6-3.1 1.6-4.3 1.7-1.7 4.1-2.5 9.9-3.1l2.9-.3v-1.4c0-2.5-1.6-3.9-4.6-3.9-2.7 0-4 1-4.5 3.6h-4.5c.3-2.3.9-3.5 2.1-4.7 1.7-1.5 4.1-2.3 7.2-2.3 5.4 0 8.6 2.7 8.6 7.3v11.7h2.6v3.5h-6.9l.1-2.9z"/><path id="w" class="st1" d="M-135.9 287.8h8.4v3.5h-2.4l3.6 14.8 4.2-18.3h4.1l4.2 18.3 3.6-14.8h-2.4v-3.5h8.3v3.5h-2.2l-5 18.4h-4.6l-4-16.4-3.9 16.4h-4.7l-5.1-18.4h-2.1z"/><path id="a" class="st1" d="M-89 298.6l-1.9.3c-4 .6-5.7 1.2-6.8 2.3-.6.6-.9 1.4-.9 2.1 0 2 1.7 3.7 3.8 3.7 3 0 5.8-2.7 5.8-5.4v-3zm0 8.2c-2 1.8-3.8 3.4-7.3 3.4-4.1 0-7.1-2.8-7.1-6.6 0-1.7.6-3.1 1.6-4.3 1.7-1.7 4.1-2.5 9.9-3.1l2.9-.3v-1.4c0-2.5-1.6-3.9-4.6-3.9-2.7 0-4 1-4.5 3.6h-4.5c.3-2.3.9-3.5 2.1-4.7 1.7-1.5 4.1-2.3 7.2-2.3 5.4 0 8.6 2.7 8.6 7.3v11.7h2.6v3.5H-89v-2.9z"/><path id="r" class="st1" d="M-73.9 292.7c1.2-2.6 2.5-5.4 6.4-5.4.8 0 1.2.1 2.1.3v4.1c-1.1-.2-1.5-.3-2.1-.3-4.9 0-6.3 4.9-6.3 6.5v8.3h2.5v3.5h-9.3v-3.5h2.5v-15h-2.5v-3.4h6.7v4.9z"/><path id="e" class="st1" d="M-49.6 296.6c-.2-3.6-1.9-5.6-4.9-5.6-4.5 0-5.8 5-5.8 5.6h10.7zm4.5 6.4c-.9 2.2-3.1 7.2-9.4 7.2-6.2 0-10.4-4.7-10.4-11.7 0-6.5 4.5-11.2 10.5-11.2 3.5 0 9.7 2 9.7 12.3h-15.8c.2 4.9 3.3 6.9 6.2 6.9 2.3 0 3.7-1.1 4.5-3.6h4.7v.1z"/></svg>