<svg width="77" height="24" fill="none" xmlns="http://www.w3.org/2000/svg"><path d="M73.944 0H3.056C1.368 0 0 1.393 0 3.113v17.774C0 22.607 1.368 24 3.056 24h70.888C75.632 24 77 22.607 77 20.887V3.113C77 1.393 75.631 0 73.944 0zM8.954 7.407v4.154h5.421v1.3H8.953v5.067H7.628V6.107h7.377v1.3H8.953zm17.491 5.657c0 3.074-1.823 4.932-4.858 4.932-3.05 0-4.89-1.858-4.89-4.932V6.107h1.326v6.957c0 2.297 1.359 3.631 3.564 3.631 2.206 0 3.532-1.334 3.532-3.63V6.106h1.326v6.957zm9.667 4.864h-6.416V6.107h1.326v10.538h5.09v1.283zm8.572 0h-6.416V6.107h1.326v10.538h5.09v1.283zm12.269 0h-2.951v-4.593h-4.808v4.593h-2.951V6.107h2.951v4.863h4.808V6.107h2.951v11.82zm7.197 0h-4.875v-6.81h2.951v4.413h2.106c1.807 0 3.1-1.42 3.1-3.496 0-2.096-1.36-3.53-3.233-3.53h-4.924V6.107h4.99c3.648 0 6.168 2.398 6.168 5.91 0 3.496-2.554 5.91-6.283 5.91z" fill="url(#paint0_linear)"/><defs><linearGradient id="paint0_linear" x1="30.5" x2="39" y2="53" gradientUnits="userSpaceOnUse"><stop stop-color="#FFDA44"/><stop offset="1" stop-color="#F8832E"/></linearGradient></defs></svg>