<svg width="63" height="51" fill="none" xmlns="http://www.w3.org/2000/svg"><path fill-rule="evenodd" clip-rule="evenodd" d="M26.124.052V0l.003.052h-.003zM12.64 8.48v32.978c0 3.667 2.664 6.805 6.136 7.498l-2.682.883a4.172 4.172 0 01-1.287.204c-1.768 0-3.425-1.13-3.998-2.896L.614 15.784c-.713-2.193.49-4.57 2.682-5.283l9.454-3.077-.024.167a6.144 6.144 0 00-.086.889zm6.863 28.058L29.693 5.18l.007-.02c.101-.313.222-.685.36-.89h-9.804c-2.306 0-4.262 1.903-4.262 4.209v32.978c0 2.305 1.956 4.314 4.262 4.314h3.347c-3.479-1.676-5.302-5.533-4.1-9.234zM38.165 3.506l21.53 6.995a4.204 4.204 0 012.691 5.282l-10.19 31.364a4.209 4.209 0 01-3.996 2.896 4.15 4.15 0 01-1.287-.205l-21.529-6.995a4.205 4.205 0 01-2.692-5.282l10.19-31.364a4.208 4.208 0 013.997-2.895c.427 0 .86.065 1.286.204zm.91 13.078c-3.742-.016-9.657 6.11.496 18.439 15.458-4.014 14.27-12.446 11.231-14.631-2.56-1.841-5.053-1.056-6.74.797-.548-2.328-1.832-4.59-4.986-4.605z" fill="#00E676"/></svg>