<svg width="21" height="15" viewBox="0 0 21 15" fill="none" xmlns="http://www.w3.org/2000/svg">
<path d="M20.8625 1.44409L14.8962 7.41034L20.7153 13.2337C20.8915 12.9308 20.9999 12.5836 20.9999 12.2086V2.16494C20.9999 1.9104 20.9475 1.66919 20.8625 1.44409Z" fill="black"/>
<path d="M18.9457 0.110596H2.05438C1.71284 0.110596 1.39542 0.202307 1.11176 0.350414L10.08 9.31859C10.3402 9.5788 10.7922 9.5788 11.0478 9.31859L19.9739 0.396885C19.6703 0.219574 19.322 0.110596 18.9457 0.110596Z" fill="black"/>
<path d="M0.172306 1.34668C0.0626308 1.59778 0 1.87389 0 2.16502V12.2087C0 12.5777 0.105533 12.9194 0.276568 13.219L6.15849 7.33286L0.172306 1.34668Z" fill="black"/>
<path d="M13.9239 8.38302L12.0202 10.2913C11.2206 11.0818 9.92495 11.0948 9.11215 10.2913L7.13085 8.30542L1.31274 14.1194C1.54346 14.2093 1.79222 14.2632 2.05435 14.2632H18.9456C19.2014 14.2632 19.4438 14.2106 19.6698 14.1248L13.9239 8.38302Z" fill="black"/>
</svg>
