<svg width="14" height="14" fill="none" xmlns="http://www.w3.org/2000/svg"><path d="M7 0l7 7-7 7-7-7 7-7z" fill="#13FF74"/><path d="M7 7h7l-7 7-7-7h7z" fill="#00BB75"/><path d="M7 0v14L0 7l7-7z" fill="#00C178"/><path d="M3.716 7H7v7L0 7h3.716z" fill="#009169"/><path d="M5.271 7s.519-.171 1.038-.684c.518-.512.69-1.024.69-1.024s.195.534.692 1.024C8.188 6.807 8.728 7 8.728 7s-.518.13-1.037.683C7.173 8.236 7 8.707 7 8.707s-.087-.342-.605-.94C5.876 7.17 5.27 7 5.27 7z" fill="#fff"/><path fill-rule="evenodd" clip-rule="evenodd" d="M6.999 2.59L11.464 7l-4.465 4.41L2.534 7 7 2.59zm0 1.308L3.859 7 7 10.1 10.139 7l-3.14-3.102z" fill="#000"/></svg>