<svg width="61" height="62" fill="none" xmlns="http://www.w3.org/2000/svg"><path d="M30.189.89C13.736.89.34 14.401.34 31s13.395 30.11 29.848 30.11S60.037 47.599 60.037 31 46.642.89 30.189.89zm0 51.064c-11.462 0-20.771-9.403-20.771-20.966s9.321-20.954 20.77-20.954c11.463 0 20.784 9.403 20.784 20.954-.012 11.575-9.321 20.966-20.783 20.966zm12-22.57c.074.53.123 1.06.123 1.616 0 6.75-5.432 12.23-12.123 12.23-6.692 0-12.123-5.48-12.123-12.23s5.431-12.23 12.123-12.23c.538 0 1.076.05 1.602.124a7.471 7.471 0 0 0-1.884 4.949c0 4.109 3.303 7.44 7.377 7.44a7.25 7.25 0 0 0 4.905-1.9z" fill="#47FF7F"/></svg>