<svg width="63" height="51" viewBox="0 0 63 51" fill="none" xmlns="http://www.w3.org/2000/svg">
<path fill-rule="evenodd" clip-rule="evenodd" d="M26.1244 0.052401V0L26.1269 0.052401H26.1244ZM12.6399 8.48002V41.4579C12.6399 45.1247 15.3042 48.2627 18.7765 48.956L16.0944 49.8387C15.668 49.977 15.2333 50.043 14.8068 50.043C13.0386 50.043 11.3825 48.9137 10.8086 47.1472L0.613657 15.7835C-0.0987875 13.5908 1.1035 11.2135 3.29638 10.5012L12.7502 7.42383C12.7423 7.47927 12.7342 7.53489 12.726 7.5907L12.726 7.59085C12.6833 7.88268 12.6399 8.17936 12.6399 8.48002ZM19.5031 36.5378L29.6934 5.18061L29.6996 5.1613C29.8013 4.84824 29.9222 4.47587 30.0593 4.27051H20.2555C17.9499 4.27051 15.9937 6.17413 15.9937 8.47978V41.4576C15.9937 43.7633 17.9499 45.7721 20.2555 45.7721H23.6027C20.1241 44.0955 18.3006 40.2388 19.5031 36.5378ZM38.1653 3.50588L59.6945 10.501C61.8874 11.2132 63.0985 13.5906 62.3861 15.7832L52.1955 47.1469C51.6216 48.9132 49.9678 50.0428 48.1996 50.0428C47.7729 50.0428 47.3394 49.9768 46.9131 49.8384L25.384 42.8433C23.1911 42.1307 21.9801 39.7538 22.6925 37.5607L32.8828 6.19698C33.4567 4.43065 35.1105 3.30151 36.8787 3.30151C37.3055 3.30151 37.7389 3.36712 38.1653 3.50588ZM39.0758 16.5843C35.3325 16.5676 29.4179 22.6945 39.5707 35.023C55.0292 31.0089 53.8411 22.5769 50.8021 20.392C48.2411 18.5506 45.7492 19.3358 44.062 21.1887C43.5144 18.8613 42.2301 16.5994 39.0758 16.5843Z" fill="#00E676"/>
</svg>
