<svg width="56" height="43" fill="none" xmlns="http://www.w3.org/2000/svg"><path d="M1.736 4.159c7.477 6.39 20.598 17.631 24.454 21.136.517.473 1.073.714 1.65.714.574 0 1.129-.239 1.645-.71 3.86-3.508 16.98-14.75 24.458-21.14a1.152 1.152 0 00.16-1.58C53.23 1.456 51.931.812 50.54.812H5.139c-1.392 0-2.692.644-3.563 1.765a1.152 1.152 0 00.16 1.58zM54.421 7.621a1.122 1.122 0 00-1.21.166 3263.485 3263.485 0 00-16.215 13.946 1.149 1.149 0 00.03 1.761c4.522 3.654 11.336 8.68 16.256 12.253a1.124 1.124 0 001.18.09c.38-.196.618-.59.618-1.02V8.66c0-.446-.258-.852-.659-1.039zM2.397 35.747c4.92-3.572 11.736-8.599 16.256-12.253a1.149 1.149 0 00.031-1.762A3282.413 3282.413 0 002.467 7.788a1.128 1.128 0 00-1.21-.166A1.145 1.145 0 00.6 8.661v26.157c0 .43.238.823.617 1.019a1.123 1.123 0 001.18-.09z" fill="#00E676"/><path d="M53.689 38.863c-4.752-3.43-13.505-9.825-18.73-14.104a1.13 1.13 0 00-1.461.025A240.498 240.498 0 0031.006 27c-1.869 1.702-4.463 1.702-6.336-.002a197.014 197.014 0 00-2.49-2.214 1.123 1.123 0 00-1.46-.026C15.514 29.023 6.75 35.426 1.99 38.863a1.151 1.151 0 00-.17 1.711 4.53 4.53 0 003.319 1.47h45.4c1.25 0 2.46-.536 3.32-1.47a1.153 1.153 0 00-.17-1.71z" fill="#00E676"/></svg>