<?xml version="1.0" encoding="utf-8"?>
<!-- Generator: Adobe Illustrator 19.2.1, SVG Export Plug-In . SVG Version: 6.00 Build 0)  -->
<svg version="1.1" xmlns="http://www.w3.org/2000/svg" xmlns:xlink="http://www.w3.org/1999/xlink" x="0px" y="0px"
	 viewBox="0 0 290 250" style="enable-background:new 0 0 290 250;" xml:space="preserve">
<style type="text/css">
	.st0{fill:#C40E0E;stroke:#000000;stroke-miterlimit:10;}
	.st1{fill:url(#Entertainment-text_1_);}
	.st2{fill:#FFFFFF;}
	.st3{fill:#13FF74;}
	.st4{fill:#00BB75;}
	.st5{fill:#00C178;}
	.st6{fill:#009169;}
</style>
<g id="Layer_2">
	<rect x="-195.5" y="-98.3" class="st0" width="860" height="660"/>
</g>
<g id="Layer_1">
	<g id="Logo">
		
			<radialGradient id="Entertainment-text_1_" cx="-79.3667" cy="150.2083" r="0.9979" gradientTransform="matrix(9.828098e-016 -16.0505 -113.045 -6.922010e-015 17125.0117 -1036.894)" gradientUnits="userSpaceOnUse">
			<stop  offset="0" style="stop-color:#994C4F"/>
			<stop  offset="1" style="stop-color:#BC7F6E"/>
		</radialGradient>
		<path id="Entertainment-text" class="st1" d="M60.7,237h2v-11.8l11.9,12.5v-16.5h-2v11.7l-11.9-12.5C60.7,220.4,60.7,237,60.7,237
			z M46,237h8.5v-1.8H48v-6h6.4v-1.8H48V223h6.5v-1.8H46V237z M87.4,222.9h-3.8v14h-2v-14h-3.8v-1.8h9.5v1.8H87.4z M91.9,237h8.5
			v-1.8h-6.5v-6h6.4v-1.8h-6.4V223h6.5v-1.8h-8.5V237z M115.3,225.6c0,2.3-1.5,4.2-3.8,4.4l5,6.9h-2.4l-4.7-6.7h-0.8v6.7h-2V221h2.4
			c1.4,0,2.9,0,4.2,0.7C114.6,222.6,115.3,224.1,115.3,225.6z M109.2,222.9h-0.5v5.7h0.6c2,0,4.2-0.4,4.2-2.9
			C113.5,223.2,111.1,222.9,109.2,222.9z M125.3,222.9h3.8v-1.8h-9.5v1.8h3.8v14h2v-14H125.3z M144.5,237l-1.8-4h-7.3l-1.8,4h-2.1
			l7.6-16.5l7.6,16.5H144.5z M139.1,224.8l-2.8,6.4h5.6L139.1,224.8z M152.8,221.1h-2V237h2V221.1z M159.9,237h-2v-16.6l11.9,12.5
			v-11.7h2v16.5l-11.9-12.5V237z M186.2,237.3l4.8-10.8l0,0l1.9,10.5h2l-3.2-16.5l-5.4,12.5l-5.4-12.5l-3.2,16.5h2l1.9-10.5l0,0
			L186.2,237.3z M209.2,237h-8.5v-15.9h8.5v1.8h-6.5v4.4h6.4v1.8h-6.4v6h6.5V237z M213.6,237h2v-11.8l11.9,12.5v-16.5h-2v11.7
			l-11.9-12.5V237z M241.3,222.9h-3.8v14h-2v-14h-3.8v-1.8h9.5v1.8H241.3z"/>
		<path id="NetGame-text" class="st2" d="M20.6,201.6h4.9v-29.2L55,203.3v-40.8h-4.9v29l-29.5-30.9V201.6z M61.6,201.6h21.1v-4.5
			H66.5v-14.8h15.8v-4.5H66.5v-11h16.2v-4.5H61.6V201.6z M112.9,166.9h-9.3v34.8h-4.9v-34.8h-9.3v-4.5H113L112.9,166.9L112.9,166.9z
			 M137.4,181.8v4.5h10.2c-0.2,6.4-6.8,11.7-12.9,11.7c-8.5,0-15.3-7.8-15.3-16c0-8.8,6.9-15.9,15.7-15.9c4.8,0,9.5,2.5,12.4,6.4
			l3.4-3.3c-3.9-4.8-9.9-7.6-16-7.6c-11.3,0-20.4,9.3-20.4,20.5c0,10.9,8.9,20.3,19.9,20.3s18.6-8.3,18.6-19v-1.6L137.4,181.8
			L137.4,181.8z M188.2,201.6l-4.5-9.8h-18l-4.5,9.8h-5.3l18.8-40.9l18.8,40.9H188.2z M175.6,171.4l-7,15.9h14L175.6,171.4z
			 M219.4,202.4l11.8-26.7h0.1l4.6,25.9h5.1l-8-40.9l-13.5,30.9L206,160.7l-8,40.9h5.1l4.6-25.9h0.1L219.4,202.4z M268.6,201.6
			h-21.1v-39.2h21.1v4.5h-16.2v11h15.8v4.5h-15.8v14.8h16.2V201.6z"/>
		<g id="rightElement">
			<path class="st3" d="M188.9,73.2l34.3,34.7l-34.3,34.7l-34.3-34.7L188.9,73.2z"/>
			<path class="st4" d="M188.9,107.9h34.3l-34.3,34.7l-34.3-34.7C154.6,107.9,188.9,107.9,188.9,107.9z"/>
			<path class="st5" d="M188.9,73.2v34.7v34.7l-34.3-34.7L188.9,73.2z"/>
			<path class="st6" d="M172.8,107.9h16.1v34.7l-34.3-34.7C154.6,107.9,172.8,107.9,172.8,107.9z"/>
			<path class="st2" d="M180.4,107.9c0,0,2.5-0.8,5.1-3.4c2.5-2.5,3.4-5.1,3.4-5.1s1,2.6,3.4,5.1c2.4,2.4,5.1,3.4,5.1,3.4
				s-2.5,0.6-5.1,3.4c-2.5,2.7-3.4,5.1-3.4,5.1s-0.4-1.7-3-4.7C183.4,108.8,180.4,107.9,180.4,107.9z"/>
			<path d="M188.9,85.1l22.9,22.9l-22.9,22.9l-22.9-23L188.9,85.1z M188.9,93.5l-14.4,14.4l14.4,14.4l14.4-14.4L188.9,93.5z"/>
		</g>
		<g id="bottomElement">
			<path class="st3" d="M145.7,117.5l25.6,25.9h-25.6h-25.6L145.7,117.5z"/>
			<path class="st5" d="M145.7,117.5v25.9h-25.6L145.7,117.5z"/>
		</g>
		<g id="topElement">
			<path class="st3" d="M145.1,9L190,54.4l-44.8,45.4l-44.9-45.4L145.1,9z"/>
			<path class="st4" d="M145.1,54.4H190l-44.8,45.4l-44.9-45.4H145.1z"/>
			<path class="st5" d="M145.1,9v45.4v45.4l-44.8-45.4L145.1,9z"/>
			<path class="st6" d="M124.1,54.4h21v45.4l-44.8-45.4H124.1z"/>
			<path class="st2" d="M134.1,54.4c0,0,3.3-1.1,6.6-4.4c3.3-3.3,4.4-6.6,4.4-6.6s1.2,3.5,4.4,6.6c3.2,3.2,6.6,4.4,6.6,4.4
				s-3.3,0.8-6.6,4.4c-3.3,3.6-4.4,6.6-4.4,6.6s-0.6-2.2-3.9-6.1C137.9,55.5,134.1,54.4,134.1,54.4z"/>
			<path d="M145.1,25.8l28.6,28.6L145.1,83l-28.6-28.6L145.1,25.8z M145.1,34.3L125,54.4l20.1,20.1l20.1-20.1L145.1,34.3z"/>
		</g>
		<g id="leftElement">
			<path class="st3" d="M100.3,73.2l34.3,34.7l-34.3,34.7L66,107.9L100.3,73.2z"/>
			<path class="st4" d="M100.3,107.9h34.3l-34.3,34.7L66,107.9H100.3z"/>
			<path class="st5" d="M100.3,73.2v34.7v34.7L66,107.9L100.3,73.2z"/>
			<path class="st6" d="M84.2,107.9h16.1v34.7L66,107.9H84.2z"/>
			<path class="st2" d="M91.8,107.9c0,0,2.5-0.8,5.1-3.4c2.5-2.5,3.4-5.1,3.4-5.1s1,2.6,3.4,5.1c2.4,2.4,5.1,3.4,5.1,3.4
				s-2.5,0.6-5.1,3.4c-2.5,2.7-3.4,5.1-3.4,5.1s-0.4-1.7-3-4.7C94.8,108.8,91.8,107.9,91.8,107.9z"/>
			<path d="M100.3,85.1l22.9,22.9l-22.9,22.9l-22.9-23L100.3,85.1z M100.3,93.5l-14.4,14.4l14.4,14.4l14.4-14.4L100.3,93.5z"/>
		</g>
	</g>
</g>
</svg>
