<svg xmlns="http://www.w3.org/2000/svg" viewBox="0 0 290 250"><style>.st2{fill:#fff}.st3{fill:#13ff74}.st4{fill:#00bb75}.st5{fill:#00c178}.st6{fill:#009169}</style><path fill="#c40e0e" stroke="#000" stroke-miterlimit="10" d="M-195.5-98.3h860v660h-860z" id="Layer_2"/><g id="Layer_1"><g id="Logo"><radialGradient id="Entertainment-text_1_" cx="-79.367" cy="150.208" r=".998" gradientTransform="matrix(0 -16.0505 -113.045 0 17125.012 -1036.894)" gradientUnits="userSpaceOnUse"><stop offset="0" stop-color="#994c4f"/><stop offset="1" stop-color="#bc7f6e"/></radialGradient><path id="Entertainment-text" d="M60.7 237h2v-11.8l11.9 12.5v-16.5h-2v11.7l-11.9-12.5V237zM46 237h8.5v-1.8H48v-6h6.4v-1.8H48V223h6.5v-1.8H46V237zm41.4-14.1h-3.8v14h-2v-14h-3.8v-1.8h9.5v1.8h.1zm4.5 14.1h8.5v-1.8h-6.5v-6h6.4v-1.8h-6.4V223h6.5v-1.8h-8.5V237zm23.4-11.4c0 2.3-1.5 4.2-3.8 4.4l5 6.9h-2.4l-4.7-6.7h-.8v6.7h-2V221h2.4c1.4 0 2.9 0 4.2.7 1.4.9 2.1 2.4 2.1 3.9zm-6.1-2.7h-.5v5.7h.6c2 0 4.2-.4 4.2-2.9s-2.4-2.8-4.3-2.8zm16.1 0h3.8v-1.8h-9.5v1.8h3.8v14h2v-14h-.1zm19.2 14.1l-1.8-4h-7.3l-1.8 4h-2.1l7.6-16.5 7.6 16.5h-2.2zm-5.4-12.2l-2.8 6.4h5.6l-2.8-6.4zm13.7-3.7h-2V237h2v-15.9zm7.1 15.9h-2v-16.6l11.9 12.5v-11.7h2v16.5l-11.9-12.5V237zm26.3.3l4.8-10.8 1.9 10.5h2l-3.2-16.5-5.4 12.5-5.4-12.5-3.2 16.5h2l1.9-10.5 4.6 10.8zm23-.3h-8.5v-15.9h8.5v1.8h-6.5v4.4h6.4v1.8h-6.4v6h6.5v1.9zm4.4 0h2v-11.8l11.9 12.5v-16.5h-2v11.7l-11.9-12.5V237zm27.7-14.1h-3.8v14h-2v-14h-3.8v-1.8h9.5v1.8h.1z" fill="url(#Entertainment-text_1_)"/><path id="NetGame-text" class="st2" d="M20.6 201.6h4.9v-29.2L55 203.3v-40.8h-4.9v29l-29.5-30.9v41zm41 0h21.1v-4.5H66.5v-14.8h15.8v-4.5H66.5v-11h16.2v-4.5H61.6v39.3zm51.3-34.7h-9.3v34.8h-4.9v-34.8h-9.3v-4.5H113l-.1 4.5zm24.5 14.9v4.5h10.2c-.2 6.4-6.8 11.7-12.9 11.7-8.5 0-15.3-7.8-15.3-16 0-8.8 6.9-15.9 15.7-15.9 4.8 0 9.5 2.5 12.4 6.4l3.4-3.3c-3.9-4.8-9.9-7.6-16-7.6-11.3 0-20.4 9.3-20.4 20.5 0 10.9 8.9 20.3 19.9 20.3s18.6-8.3 18.6-19v-1.6h-15.6zm50.8 19.8l-4.5-9.8h-18l-4.5 9.8h-5.3l18.8-40.9 18.8 40.9h-5.3zm-12.6-30.2l-7 15.9h14l-7-15.9zm43.8 31l11.8-26.7h.1l4.6 25.9h5.1l-8-40.9-13.5 30.9-13.5-30.9-8 40.9h5.1l4.6-25.9h.1l11.6 26.7zm49.2-.8h-21.1v-39.2h21.1v4.5h-16.2v11h15.8v4.5h-15.8v14.8h16.2v4.4z"/><g id="rightElement"><path class="st3" d="M188.9 73.2l34.3 34.7-34.3 34.7-34.3-34.7 34.3-34.7z"/><path class="st4" d="M188.9 107.9h34.3l-34.3 34.7-34.3-34.7h34.3z"/><path class="st5" d="M188.9 73.2v69.4l-34.3-34.7 34.3-34.7z"/><path class="st6" d="M172.8 107.9h16.1v34.7l-34.3-34.7h18.2z"/><path class="st2" d="M180.4 107.9s2.5-.8 5.1-3.4c2.5-2.5 3.4-5.1 3.4-5.1s1 2.6 3.4 5.1c2.4 2.4 5.1 3.4 5.1 3.4s-2.5.6-5.1 3.4c-2.5 2.7-3.4 5.1-3.4 5.1s-.4-1.7-3-4.7c-2.5-2.9-5.5-3.8-5.5-3.8z"/><path d="M188.9 85.1l22.9 22.9-22.9 22.9-22.9-23 22.9-22.8zm0 8.4l-14.4 14.4 14.4 14.4 14.4-14.4-14.4-14.4z"/></g><g id="bottomElement"><path class="st3" d="M145.7 117.5l25.6 25.9h-51.2l25.6-25.9z"/><path class="st5" d="M145.7 117.5v25.9h-25.6l25.6-25.9z"/></g><g id="topElement"><path class="st3" d="M145.1 9L190 54.4l-44.8 45.4-44.9-45.4L145.1 9z"/><path class="st4" d="M145.1 54.4H190l-44.8 45.4-44.9-45.4h44.8z"/><path class="st5" d="M145.1 9v90.8l-44.8-45.4L145.1 9z"/><path class="st6" d="M124.1 54.4h21v45.4l-44.8-45.4h23.8z"/><path class="st2" d="M134.1 54.4s3.3-1.1 6.6-4.4c3.3-3.3 4.4-6.6 4.4-6.6s1.2 3.5 4.4 6.6c3.2 3.2 6.6 4.4 6.6 4.4s-3.3.8-6.6 4.4c-3.3 3.6-4.4 6.6-4.4 6.6s-.6-2.2-3.9-6.1c-3.3-3.8-7.1-4.9-7.1-4.9z"/><path d="M145.1 25.8l28.6 28.6L145.1 83l-28.6-28.6 28.6-28.6zm0 8.5L125 54.4l20.1 20.1 20.1-20.1-20.1-20.1z"/></g><g id="leftElement"><path class="st3" d="M100.3 73.2l34.3 34.7-34.3 34.7L66 107.9l34.3-34.7z"/><path class="st4" d="M100.3 107.9h34.3l-34.3 34.7L66 107.9h34.3z"/><path class="st5" d="M100.3 73.2v69.4L66 107.9l34.3-34.7z"/><path class="st6" d="M84.2 107.9h16.1v34.7L66 107.9h18.2z"/><path class="st2" d="M91.8 107.9s2.5-.8 5.1-3.4c2.5-2.5 3.4-5.1 3.4-5.1s1 2.6 3.4 5.1c2.4 2.4 5.1 3.4 5.1 3.4s-2.5.6-5.1 3.4c-2.5 2.7-3.4 5.1-3.4 5.1s-.4-1.7-3-4.7c-2.5-2.9-5.5-3.8-5.5-3.8z"/><path d="M100.3 85.1l22.9 22.9-22.9 22.9-22.9-23 22.9-22.8zm0 8.4l-14.4 14.4 14.4 14.4 14.4-14.4-14.4-14.4z"/></g></g></g></svg>