<svg xmlns="http://www.w3.org/2000/svg" viewBox="0 0 490 660"><path fill="#07070a" stroke="#00e676" d="M0 0h490v660H0z"/><path d="M245.7 240.1l89.3 89.7-89.3 89.7-89.3-89.7 89.3-89.7z" fill="#13ff74"/><path d="M245.7 329.8H335l-89.3 89.7-89.3-89.7h89.3z" fill="#00bb75"/><path d="M245.7 240.1v179.4l-89.3-89.7 89.3-89.7z" fill="#00c178"/><path d="M203.8 329.8h41.9v89.7l-89.3-89.7h47.4z" fill="#009169"/><path d="M223.6 329.8s6.6-2.2 13.2-8.7c6.6-6.6 8.8-13.1 8.8-13.1s2.5 6.8 8.8 13.1c6.3 6.3 13.2 8.7 13.2 8.7s-6.6 1.7-13.2 8.7c-6.6 7.1-8.8 13.1-8.8 13.1s-1.1-4.4-7.7-12-14.3-9.8-14.3-9.8z" fill="#fff"/><path d="M245.7 273.3l57 56.5-57 56.5-57-56.5 57-56.5zm0 16.7l-40.1 39.7 40.1 39.7 40.1-39.7-40.1-39.7z"/></svg>