<svg width="83" height="43" viewBox="0 0 83 43" fill="none" xmlns="http://www.w3.org/2000/svg">
<path d="M17.049 21.3645C17.7593 23.166 18.1339 25.0371 18.1728 26.9779C18.2104 28.913 17.9771 30.8093 17.473 32.6667C17.1764 33.7654 16.7852 34.8321 16.2991 35.8669C15.8131 36.9016 15.192 37.8477 14.4358 38.705C13.8328 39.3941 13.1238 39.9515 12.3087 40.3773C11.4937 40.8031 10.6226 40.9893 9.69538 40.9359C8.57303 40.8199 7.64622 40.4594 6.91496 39.8545C6.18369 39.2496 5.61817 38.4915 5.21839 37.5802C4.82431 36.6676 4.56685 35.6958 4.44599 34.6649C4.32647 33.6397 4.31376 32.6467 4.40785 31.6858C4.5084 30.1095 4.83416 28.5827 5.38513 27.1054C5.43526 26.9853 5.48606 26.8681 5.53753 26.7537C5.33148 25.4359 5.33243 24.1026 5.54039 22.7539C5.75272 21.3982 6.20008 20.1468 6.88249 18.9998C7.42871 18.1194 8.16924 17.4523 9.10408 16.9984C9.75927 16.7124 10.4474 16.5541 11.1683 16.5235C11.888 16.4871 12.5839 16.6068 13.2562 16.8825C14.192 17.3071 14.9657 17.9261 15.5773 18.7396C16.1888 19.5531 16.6794 20.4281 17.049 21.3645ZM17.3135 26.0058C17.2665 24.9817 17.0853 23.8987 16.77 22.757C16.4591 21.6082 15.9989 20.5545 15.3895 19.5961C14.7858 18.6363 14.0213 17.9278 13.096 17.4707C12.175 17.0066 11.0838 16.9465 9.82231 17.2904C8.987 17.5525 8.28732 18.0084 7.72327 18.6582C7.16359 19.301 6.72722 20.0593 6.41416 20.9331C6.09978 21.8013 5.8922 22.7015 5.79142 23.6339C5.69502 24.5593 5.68893 25.4333 5.77313 26.2562C5.99708 25.8245 6.26194 25.4133 6.56769 25.0227C6.62414 24.9553 6.69362 24.9179 6.77616 24.9106C6.85736 24.8976 6.93164 24.9193 6.999 24.9757C7.06636 25.0321 7.10368 25.1016 7.11096 25.1842C7.12395 25.2654 7.10222 25.3397 7.04578 25.4071C6.60056 25.999 6.23562 26.6382 5.95097 27.3248C6.12598 27.9699 6.4107 28.5952 6.80515 29.2009C7.20397 29.7994 7.65492 30.2865 8.15801 30.6621C8.77907 31.1303 9.47157 31.3381 10.2355 31.2853C10.9901 31.1927 11.6505 30.8904 12.2167 30.3785C12.7887 29.8652 13.1435 29.2343 13.2813 28.4859C13.3191 28.3386 13.3957 28.2544 13.5111 28.2334C13.6265 28.2123 13.727 28.243 13.8124 28.3252C13.9022 28.4005 13.9247 28.5095 13.8799 28.6524C13.5573 29.4082 13.078 30.0471 12.4419 30.5694C11.8059 31.0917 11.0799 31.4093 10.2639 31.5224C9.65193 31.5816 9.07522 31.4701 8.53377 31.1878C7.9967 30.8985 7.53336 30.5257 7.14376 30.0693C6.5488 29.3783 6.09501 28.6091 5.78237 27.7616C5.42052 28.7612 5.17537 29.7966 5.04692 30.8679C4.92418 31.9378 4.88281 32.9827 4.92284 34.0024C4.95777 34.7947 5.08075 35.5903 5.2918 36.3894C5.50988 37.1929 5.84631 37.9235 6.30108 38.5812C6.75719 39.2446 7.36478 39.7581 8.12385 40.1218C8.96241 40.4909 9.75632 40.6177 10.5056 40.5022C11.2605 40.3854 11.9521 40.0878 12.5804 39.6095C13.2143 39.1298 13.7663 38.531 14.2361 37.813C15.3506 36.0953 16.17 34.209 16.6942 32.1543C17.2183 30.0995 17.4248 28.05 17.3135 26.0058ZM21.5107 28.5514C21.5072 28.4078 21.5558 28.2941 21.6566 28.2103C21.763 28.1252 21.8729 28.0934 21.9863 28.1149C22.0983 28.1308 22.1708 28.2221 22.2038 28.3889C22.2074 28.5325 22.1559 28.6469 22.0494 28.732C21.9487 28.8159 21.8388 28.8476 21.7197 28.8274C21.6077 28.8115 21.538 28.7196 21.5107 28.5514ZM48.2959 8.89265C48.4197 8.88168 48.5265 8.91381 48.6163 8.98904C48.7061 9.06428 48.7593 9.16314 48.7759 9.28562C48.7869 9.40945 48.7554 9.51914 48.6814 9.61471C48.6062 9.70458 48.5067 9.75499 48.3829 9.76597C46.2189 9.93031 44.0798 10.2784 41.9657 10.8102C39.8559 11.3349 37.7801 11.9661 35.7382 12.7036C35.4666 12.8034 35.1436 12.9273 34.769 13.0753C33.8401 18.0295 33.4007 23.0313 33.451 28.0809C34.0352 29.0092 34.4112 30.0886 34.5787 31.3192C34.752 32.5484 34.6082 33.9783 34.1473 35.609C34.0683 35.76 33.9568 35.8493 33.8128 35.877C33.6689 35.9048 33.5335 35.8793 33.4068 35.8007C33.2801 35.7221 33.206 35.598 33.1844 35.4286C33.1847 35.4044 33.1802 35.3724 33.1709 35.3324C33.1686 35.2969 33.1656 35.2584 33.162 35.2172C33.1477 35.1302 33.1387 35.0662 33.135 35.0249C32.9766 33.7561 32.853 32.4821 32.7643 31.2029C32.6848 30.0661 32.6317 28.926 32.6049 27.7828C31.8859 26.7417 30.9726 25.7702 29.865 24.8684C29.5074 24.549 29.1363 24.2358 28.7515 23.9288C28.1449 23.4452 27.565 22.9342 27.0118 22.3959C26.4643 21.8562 26.0081 21.244 25.6433 20.5592C25.4442 20.0943 25.4123 19.6233 25.5474 19.1463C25.6811 18.6636 25.9029 18.2354 26.2127 17.8619C27.0025 16.9425 28.0586 16.081 29.381 15.2774C30.7091 14.4725 32.1505 13.7404 33.7052 13.081C33.8252 12.3848 33.955 11.6924 34.0947 11.0036C34.1564 10.7785 34.2785 10.6446 34.4611 10.6018C34.6423 10.5532 34.8059 10.5841 34.9521 10.6943C35.1039 10.8031 35.1659 10.9781 35.1381 11.2194C35.0403 11.6756 34.9466 12.1369 34.8572 12.6032C37.4989 11.5746 39.8202 10.7836 41.8209 10.2302C42.8827 9.93314 43.949 9.66809 45.0198 9.43508C46.0963 9.20074 47.1883 9.01993 48.2959 8.89265ZM33.8145 34.0711C34.1535 32.3306 34.0404 30.7803 33.4755 29.4203C33.5222 31.0343 33.625 32.6441 33.7841 34.2498C33.7936 34.1874 33.8037 34.1278 33.8145 34.0711ZM32.7047 21.8826C32.8621 19.0833 33.1713 16.3026 33.6322 13.5404C32.7985 13.8864 31.9197 14.297 30.9959 14.7724C30.0708 15.2421 29.204 15.7553 28.3955 16.3119C27.587 16.8686 26.9421 17.4561 26.461 18.0745C25.9785 18.6871 25.763 19.3094 25.8146 19.9412C26.0271 20.6437 26.4435 21.3044 27.0637 21.9233C27.6882 22.5351 28.4114 23.157 29.2332 23.7888C29.809 24.2436 30.3851 24.7254 30.9615 25.2342C31.5423 25.736 32.0861 26.2855 32.5929 26.8829C32.5755 25.2139 32.6128 23.5471 32.7047 21.8826ZM38.5181 21.5757C38.5239 21.5744 38.526 21.5709 38.5247 21.5652C38.526 21.5709 38.5239 21.5744 38.5181 21.5757ZM37.6855 24.3438C37.6798 24.3451 37.6763 24.3429 37.6749 24.3372L37.6855 24.3438ZM40.7401 20.5402C40.6714 20.4781 40.6263 20.4014 40.605 20.3101C40.6579 20.3819 40.7029 20.4586 40.7401 20.5402ZM40.1665 23.3739C39.9947 23.36 39.8796 23.2666 39.8211 23.0938C39.7569 22.9222 39.714 22.7518 39.6924 22.5823L39.685 22.5118C39.6606 22.1504 39.7107 21.7987 39.8352 21.4565C39.9527 21.11 40.1518 20.8165 40.4326 20.5762C40.5397 20.7256 40.6931 20.8281 40.8926 20.8836C41.046 21.3592 41.0686 21.8414 40.9603 22.3302C40.8463 22.8203 40.5817 23.1682 40.1665 23.3739ZM39.0401 22.3019C39.0572 22.5808 39.1162 22.8588 39.2172 23.1361C39.3932 23.5281 39.6365 23.7449 39.9471 23.7864C40.2577 23.8279 40.5554 23.6859 40.8403 23.3603C41.0818 23.081 41.2373 22.7166 41.3066 22.267C41.3702 21.8188 41.3456 21.3792 41.2327 20.9483C41.5266 20.9697 41.8273 20.9563 42.135 20.9082C42.4427 20.8602 42.7085 20.8129 42.9323 20.7665L43.0179 20.7464C43.6041 20.6029 44.1651 20.3901 44.7009 20.108C44.7368 20.0816 44.7949 20.0469 44.8751 20.004C44.9781 19.9558 45.0735 19.9003 45.1611 19.8376C45.2431 19.7763 45.2674 19.7134 45.2343 19.649C45.2176 19.6288 45.1964 19.6157 45.171 19.6096C45.1455 19.6036 45.1227 19.6089 45.1025 19.6257C44.4522 20.061 43.7413 20.3661 42.9698 20.541C42.7872 20.5838 42.5151 20.6296 42.1534 20.6782C41.7931 20.7326 41.4569 20.7362 41.145 20.689C41.0162 20.3701 40.8288 20.1222 40.5828 19.9452C40.4936 19.9239 40.4293 19.945 40.39 20.0084C40.2676 19.9228 40.1339 19.93 39.9889 20.0302C39.6867 20.2817 39.454 20.586 39.2908 20.9432C39.1583 21.2511 39.0791 21.5555 39.0532 21.8565C38.9863 21.9564 38.9273 22.0515 38.8762 22.1417C38.7613 22.3191 38.6929 22.4255 38.6711 22.4607C38.592 22.6116 38.5073 22.7639 38.4169 22.9175C38.2797 23.1543 38.1496 23.3954 38.0265 23.6409C38.0799 23.3034 38.1138 23.0367 38.1281 22.8407C38.1944 22.4039 38.2429 21.9683 38.2736 21.5338C38.2802 21.3818 38.2285 21.2765 38.1185 21.218C38.0086 21.1596 37.8957 21.1529 37.7799 21.1981C37.6641 21.2433 37.5966 21.3404 37.5773 21.4894C37.5626 21.7095 37.538 21.9259 37.5035 22.1386L37.5055 22.1472L37.4328 22.7239C37.3487 23.2131 37.2909 23.699 37.2595 24.1819C37.2519 24.304 37.2889 24.3976 37.3703 24.4628C37.4531 24.5337 37.5472 24.5628 37.6525 24.5501C37.7579 24.5374 37.8411 24.4818 37.9023 24.3832C37.9696 24.2591 38.0889 24.0235 38.2605 23.6763C38.5023 23.1923 38.7621 22.7342 39.0401 22.3019ZM45.7999 21.2947L45.8039 21.3119C45.8026 21.3061 45.7991 21.304 45.7934 21.3053C45.7977 21.2983 45.7999 21.2947 45.7999 21.2947ZM51.5585 18.1301C51.5847 18.0878 51.6163 18.0684 51.6532 18.0717C51.6901 18.0751 51.7182 18.0926 51.7376 18.1242C51.7628 18.1544 51.7622 18.1906 51.736 18.2329C51.4043 18.744 51.0157 19.2052 50.5704 19.6165C50.1251 20.0279 49.6462 20.3989 49.1339 20.7297C48.0719 21.412 46.9089 21.8291 45.6446 21.9811L45.6512 21.9706C45.6512 21.9706 45.6483 21.9712 45.6426 21.9726C45.6426 21.9726 45.6419 21.9697 45.6406 21.964C45.6623 22.8797 45.6429 23.787 45.5824 24.6859C45.5176 25.5918 45.3337 26.4775 45.0307 27.3429C45.0172 27.3882 44.989 27.4219 44.946 27.444C44.8974 27.4675 44.8504 27.4725 44.8051 27.459C44.7471 27.4425 44.6986 27.3636 44.6595 27.2223C44.6204 27.081 44.5916 26.9193 44.573 26.7371C44.5488 26.5562 44.5298 26.3981 44.5162 26.2629C44.5116 26.1918 44.5082 26.1384 44.5059 26.1028C44.4241 24.6475 44.5991 23.2223 45.0309 21.8271C44.9972 21.1429 44.9755 20.4589 44.966 19.7751C44.9782 19.6217 45.0416 19.5196 45.156 19.4687C45.2705 19.4178 45.382 19.4187 45.4907 19.4715C45.605 19.5229 45.6659 19.629 45.6734 19.7897C45.6656 19.936 45.6577 20.0823 45.6498 20.2286C45.8788 19.7416 46.1594 19.3207 46.4917 18.966C46.8282 18.6042 47.2119 18.4691 47.6425 18.5607C48.2155 18.8236 48.4936 19.1375 48.4767 19.5026C48.4655 19.8663 48.2931 20.2227 47.9596 20.5717C47.6247 20.915 47.2688 21.1941 46.8918 21.4089C47.6984 21.2558 48.4655 20.9466 49.1931 20.4811C49.9206 20.0156 50.5462 19.4748 51.07 18.8585C51.2568 18.6281 51.4196 18.3853 51.5585 18.1301ZM44.9026 26.3709C45.0771 25.4453 45.1439 24.5089 45.1027 23.5616C45.0975 23.4364 45.0923 23.3113 45.0871 23.1861C44.8651 24.2432 44.8036 25.3048 44.9026 26.3709ZM45.7934 21.3053C45.7846 21.3194 45.7845 21.3315 45.7928 21.3415L45.8039 21.3119C45.8646 21.3398 45.931 21.3663 46.0031 21.3915C46.184 21.3672 46.3612 21.3016 46.5347 21.1947C46.5878 21.1642 46.6443 21.1359 46.7044 21.1098C46.9666 20.97 47.2433 20.7637 47.5345 20.4908C47.8314 20.2166 48.0097 19.9371 48.0694 19.6523C48.1291 19.3674 47.9387 19.1322 47.4981 18.9467C47.2868 18.918 47.0861 18.9861 46.896 19.151C46.7116 19.3146 46.5474 19.5126 46.4032 19.745C46.2576 19.9717 46.141 20.1676 46.0532 20.3326C45.9123 20.6305 45.7819 20.9349 45.6621 21.2458C45.6806 21.2475 45.6997 21.252 45.7195 21.2594C45.7419 21.2783 45.7666 21.2935 45.7934 21.3053ZM57.183 16.7842C57.2561 16.8393 57.2655 16.9183 57.2114 17.0213C57.163 17.1229 57.0996 17.2251 57.0213 17.3277C56.9662 17.4008 56.9284 17.4578 56.9079 17.4987C56.7365 17.7435 56.4372 18.0845 56.0099 18.5217C55.5827 18.9589 55.1016 19.3847 54.5667 19.799C54.0317 20.2133 53.5228 20.5071 53.0399 20.6805C52.5569 20.8539 52.1775 20.8015 51.9018 20.5231C51.6014 20.088 51.4447 19.5981 51.4316 19.0535C51.4114 18.5046 51.508 17.9914 51.7213 17.5141C51.8531 17.2545 52.0447 17.0832 52.2961 17.0002C52.5474 16.9172 52.7432 17.0338 52.8834 17.35C52.962 17.5061 52.9563 17.7 52.8661 17.9318C52.7745 18.1579 52.6455 18.3777 52.4788 18.5913C52.3179 18.8036 52.1706 18.9585 52.0369 19.056C52.0526 19.4315 52.104 19.7414 52.1913 19.9858C52.3224 20.3402 52.5805 20.4662 52.9658 20.3639C53.3567 20.2602 53.7871 20.0419 54.2568 19.7091C54.7309 19.3693 55.1632 19.0181 55.5538 18.6557C55.9444 18.2933 56.2099 18.0265 56.3504 17.8551C56.6222 17.5507 56.8475 17.215 57.0264 16.848C57.0426 16.8141 57.0649 16.7939 57.0934 16.7872C57.1263 16.7734 57.1562 16.7725 57.183 16.7842ZM52.3949 17.6541C52.1796 17.8911 52.0623 18.2256 52.0429 18.6574C52.1549 18.4928 52.252 18.3165 52.3344 18.1287C52.4155 17.9351 52.4357 17.7769 52.3949 17.6541ZM58.0795 16.9893C58.0852 16.988 58.0874 16.9844 58.086 16.9787C58.0874 16.9844 58.0852 16.988 58.0795 16.9893ZM57.2468 19.7573C57.2411 19.7587 57.2376 19.7565 57.2362 19.7508L57.2468 19.7573ZM59.2744 16.348C59.1282 16.5207 58.9817 16.7176 58.8348 16.9386C58.6779 17.168 58.5455 17.3735 58.4376 17.5553C58.3226 17.7327 58.2542 17.839 58.2324 17.8742C58.1533 18.0252 58.0686 18.1774 57.9782 18.331C57.841 18.5678 57.7109 18.809 57.5878 19.0545C57.6412 18.717 57.6751 18.4503 57.6894 18.2543C57.7557 17.8175 57.8042 17.3818 57.835 16.9473C57.8415 16.7953 57.7898 16.6901 57.6798 16.6316C57.5699 16.5732 57.457 16.5665 57.3412 16.6117C57.2254 16.6569 57.1579 16.754 57.1386 16.903C57.1239 17.1231 57.0993 17.3395 57.0648 17.5522L57.0668 17.5607L56.9942 18.1375C56.91 18.6266 56.8522 19.1126 56.8208 19.5954C56.8133 19.7176 56.8502 19.8112 56.9316 19.8764C57.0144 19.9472 57.1085 19.9763 57.2138 19.9637C57.3192 19.951 57.4025 19.8954 57.4636 19.7968C57.5309 19.6727 57.6503 19.4371 57.8218 19.0899C58.1369 18.4563 58.4883 17.8624 58.8762 17.308C59.0149 17.1551 59.1442 17.0135 59.2641 16.8831C59.2975 17.3085 59.4148 17.6813 59.616 18.0012C59.8729 18.4044 60.3012 18.5507 60.9012 18.4401C61.4235 18.2033 61.875 17.8567 62.2556 17.4004C62.6362 16.944 62.9839 16.4623 63.2985 15.9552L63.5909 15.5075C63.6259 15.4511 63.6294 15.4022 63.6017 15.3605C63.5752 15.3246 63.5378 15.3063 63.4895 15.3056C63.4412 15.3049 63.3996 15.3327 63.3646 15.389C63.2223 15.6812 63.0632 15.9652 62.887 16.2412C62.5375 16.8047 62.1234 17.311 61.6448 17.7602C61.3462 18.0529 61.0197 18.2137 60.6654 18.2426C60.3168 18.2702 60.0395 18.1005 59.8332 17.7336C59.6877 17.3946 59.6484 17.0337 59.7153 16.6509C59.7386 16.519 59.769 16.3916 59.8063 16.2684C59.9135 16.135 60.0069 16.0198 60.0866 15.9229C60.2119 15.713 60.2073 15.5004 60.0727 15.2852C60.0701 15.2738 60.0645 15.263 60.0562 15.253C59.9949 15.171 59.9089 15.125 59.7982 15.1149C59.6932 15.1034 59.6034 15.1696 59.5287 15.3134C59.4174 15.5321 59.3326 15.877 59.2744 16.348ZM69.1346 14.0091C69.2093 14.0457 69.2171 14.1432 69.1579 14.3015C69.1043 14.4585 69.0164 14.6356 68.894 14.8328C68.7774 15.0287 68.6609 15.2125 68.5447 15.3842C68.427 15.5502 68.345 15.6627 68.2987 15.7217C67.9277 16.1938 67.4982 16.5955 67.01 16.9266C66.5148 17.2533 65.9945 17.4987 65.4492 17.6627C64.9038 17.8266 64.3508 17.9322 63.7902 17.9794C63.7617 17.9861 63.7362 17.98 63.7137 17.9612C63.686 18.1001 63.6619 18.2412 63.6412 18.3845C63.6323 18.6032 63.6204 18.8227 63.6057 19.0428C63.6077 19.1025 63.5892 19.152 63.5502 19.1912C63.5055 19.2318 63.4569 19.2552 63.4042 19.2615C63.2908 19.24 63.2265 19.1708 63.2112 19.054C63.1959 18.9372 63.1992 18.8101 63.2212 18.6725C63.2328 18.5675 63.2355 18.4766 63.2296 18.3997C63.2307 18.3273 63.2346 18.2541 63.2414 18.1803L63.3848 15.3211C63.4191 15.0302 63.4828 14.8528 63.5762 14.7887C63.6752 14.7234 63.7718 14.7248 63.866 14.793C63.9646 14.8542 64.0035 14.9564 63.9829 15.0996L63.7813 16.167C63.9414 15.8225 64.1233 15.494 64.327 15.1814C64.5145 14.9028 64.7019 14.6362 64.8891 14.3816C64.9616 14.2804 65.032 14.1826 65.1003 14.0884C65.1772 13.9801 65.2668 13.9259 65.3692 13.926C65.4772 13.9248 65.5669 13.9609 65.6382 14.0344C65.7096 14.108 65.733 14.2078 65.7083 14.334C65.5288 14.9297 65.2928 15.5027 65.0002 16.0527C64.7077 16.6028 64.3941 17.1397 64.0593 17.6636C65.1225 17.5527 66.0893 17.1966 66.9596 16.5954C67.8299 15.9941 68.4891 15.1595 68.9372 14.0915C68.9577 14.0506 68.9844 14.0232 69.0173 14.0095C69.0559 13.9944 69.095 13.9943 69.1346 14.0091ZM64.5828 15.8888C64.2742 16.3704 64.0327 16.8814 63.8583 17.4218C63.9447 17.2511 64.0333 17.0768 64.1241 16.8991C64.2882 16.5717 64.4411 16.235 64.5828 15.8888ZM74.8501 12.7051C74.8832 12.7696 74.856 12.8331 74.7684 12.8958C74.6864 12.9571 74.5939 13.0119 74.4909 13.0602C74.4107 13.103 74.3526 13.1377 74.3166 13.1642C73.7809 13.4463 73.2199 13.6591 72.6336 13.8026C72.6051 13.8092 72.5766 13.8159 72.5481 13.8226C72.3243 13.8691 72.0585 13.9163 71.7508 13.9644C71.4431 14.0125 71.1424 14.0258 70.8485 14.0044C70.9614 14.4354 70.9832 14.8756 70.9138 15.3252C70.8502 15.7734 70.6976 16.1372 70.4561 16.4165C70.1712 16.7421 69.8735 16.8841 69.5629 16.8426C69.2523 16.8011 69.009 16.5843 68.833 16.1922C68.5712 15.4592 68.5958 14.7282 68.9066 13.9993C69.0698 13.6421 69.3025 13.3378 69.6047 13.0864C69.7497 12.9862 69.8834 12.9789 70.0058 13.0646C70.0451 13.0012 70.1094 12.9801 70.1986 13.0013C70.4446 13.1784 70.632 13.4263 70.7608 13.7452C71.0727 13.7924 71.4095 13.7917 71.7712 13.743C72.1316 13.6886 72.403 13.64 72.5856 13.5972C73.3571 13.4223 74.068 13.1172 74.7183 12.6819C74.7384 12.6651 74.7613 12.6597 74.7868 12.6658C74.8122 12.6719 74.8334 12.685 74.8501 12.7051ZM70.3559 13.5964C70.3187 13.5148 70.2737 13.4381 70.2208 13.3662C70.2421 13.4575 70.2872 13.5342 70.3559 13.5964ZM69.7823 16.43C70.1975 16.2244 70.4593 15.8771 70.5675 15.3883C70.6815 14.8982 70.6618 14.4153 70.5084 13.9397C70.3089 13.8842 70.1555 13.7818 70.0484 13.6324C69.7676 13.8727 69.5656 14.1668 69.4424 14.5147C69.3236 14.8555 69.2764 15.2066 69.3007 15.568C69.3061 15.5908 69.3086 15.6143 69.3082 15.6385C69.3298 15.8079 69.3699 15.9791 69.4284 16.1519C69.4926 16.3234 69.6105 16.4161 69.7823 16.43ZM79.4951 11.5709C79.517 11.5357 79.5435 11.5204 79.5747 11.5252C79.6059 11.5299 79.6276 11.5458 79.64 11.573C79.6581 11.5989 79.6556 11.6266 79.6324 11.6561C79.2054 12.1714 78.7378 12.6422 78.2297 13.0682C77.7216 13.4943 77.1976 13.891 76.6578 14.2583C76.5372 14.3347 76.4123 14.4181 76.2831 14.5086C76.2774 14.51 76.2745 14.5106 76.2745 14.5106C76.4286 14.6551 76.5455 14.8202 76.6251 15.0062C76.7209 15.4411 76.7043 15.8844 76.5752 16.3359C76.4519 16.7861 76.2771 17.2092 76.0508 17.6053C76.0465 17.6124 76.0399 17.6229 76.0312 17.637C75.9569 17.7567 75.8537 17.9073 75.7217 18.0887C75.5839 18.2715 75.4416 18.4222 75.2949 18.5409C75.1424 18.6609 75.0057 18.6809 74.8847 18.6009C74.5973 18.247 74.4446 17.5817 74.4267 16.6049C74.4088 15.6282 74.4743 14.5325 74.6234 13.318C74.7668 12.1048 74.9368 10.9666 75.1333 9.90341C75.3355 8.83891 75.5046 8.04398 75.6404 7.51863C75.6717 7.42101 75.7002 7.32407 75.7258 7.22779C75.7922 6.97149 75.872 6.72107 75.9653 6.47654C76.0571 6.2263 76.1899 5.99656 76.3636 5.78732C76.4533 5.68204 76.5562 5.64588 76.6722 5.67886C76.7883 5.71183 76.8553 5.79242 76.8732 5.92061C76.8946 6.57762 76.8755 7.22905 76.816 7.87492C76.6709 9.10658 76.3778 10.3098 75.9365 11.4845C75.9335 11.4972 75.9239 11.5205 75.9077 11.5544C75.8664 11.6604 75.7984 11.8328 75.7038 12.0716C75.6136 12.3034 75.5142 12.5344 75.4056 12.7645C75.3335 13.305 75.2677 13.847 75.2084 14.3905C75.2241 14.3808 75.2399 14.3711 75.2557 14.3613C75.4578 14.2478 75.6557 14.2194 75.8496 14.2763C76.4875 14.0966 77.1754 13.7187 77.9131 13.1425C78.6495 12.5606 79.1768 12.0367 79.4951 11.5709ZM76.5378 6.95615C76.3708 7.47678 76.2392 8.00716 76.1429 8.5473C76.097 8.76268 76.0483 8.97873 75.9967 9.19545C75.8086 10.1664 75.6447 11.1376 75.505 12.1092C76.1182 10.7437 76.4678 9.33173 76.5538 7.8732C76.5546 7.82488 76.5546 7.77371 76.554 7.71969C76.5721 7.46268 76.5667 7.20817 76.5378 6.95615ZM75.6007 14.9485L75.5901 14.9419C75.5472 14.964 75.5013 14.9868 75.4527 15.0103C75.3245 15.0283 75.2262 14.9941 75.1579 14.9079C75.1396 15.0867 75.1248 15.2677 75.1135 15.4509C75.0984 15.6952 75.0805 15.9401 75.0597 16.1857C75.0261 16.5306 75.0067 16.8722 75.0016 17.2104C74.9978 17.5543 75.0312 17.8895 75.1015 18.2161C75.4136 17.8781 75.6546 17.4936 75.8245 17.0626C75.9945 16.6315 76.0906 16.1937 76.113 15.7492C76.1195 15.5972 76.1039 15.4534 76.0662 15.3178C76.0277 15.2305 75.9601 15.1471 75.8632 15.0675C75.7721 14.9865 75.6846 14.9469 75.6007 14.9485Z" fill="white"/>
</svg>
