<svg width="30" height="30" viewBox="0 0 30 30" fill="none" xmlns="http://www.w3.org/2000/svg">
<circle cx="15" cy="15" r="15" fill="#817DDB"/>
<path d="M16.3828 3.17969V11H14.4976V3.17969H16.3828ZM18.7354 3.17969V4.63525H12.1987V3.17969H18.7354Z" fill="white"/>
<path d="M16.9599 17.54C18.0727 17.54 18.9749 16.6379 18.9749 15.525C18.9749 14.4122 18.0727 13.51 16.9599 13.51C15.847 13.51 14.9449 14.4122 14.9449 15.525C14.9449 16.6379 15.847 17.54 16.9599 17.54Z" stroke="#25216D" stroke-linecap="round" stroke-linejoin="round"/>
<path d="M14.6101 19.555H15.2151C15.1025 19.0772 14.8319 18.6513 14.4471 18.3464C14.0624 18.0415 13.586 17.8754 13.0951 17.875H10.1851C9.60556 17.875 9.0498 18.1052 8.64003 18.515C8.23027 18.9247 8.00006 19.4805 8.00006 20.06C8.00006 20.6395 8.23027 21.1953 8.64003 21.605C9.0498 22.0148 9.60556 22.245 10.1851 22.245H11.9201C11.9201 21.5316 12.2035 20.8474 12.7079 20.3429C13.2124 19.8384 13.8966 19.555 14.6101 19.555V19.555Z" stroke="#3A369A" stroke-linecap="round" stroke-linejoin="round"/>
<path d="M11.6401 16.42C11.9293 16.421 12.2122 16.3361 12.4531 16.176C12.6939 16.016 12.8818 15.788 12.993 15.521C13.1041 15.254 13.1334 14.9601 13.0772 14.6764C13.0211 14.3927 12.8819 14.1321 12.6774 13.9276C12.4729 13.7231 12.2123 13.584 11.9287 13.5278C11.645 13.4716 11.351 13.501 11.084 13.6121C10.8171 13.7232 10.5891 13.9111 10.429 14.152C10.269 14.3928 10.1841 14.6758 10.1851 14.965C10.1851 15.3509 10.3384 15.721 10.6112 15.9938C10.8841 16.2667 11.2542 16.42 11.6401 16.42V16.42Z" stroke="#3A369A" stroke-linecap="round" stroke-linejoin="round"/>
<path d="M19.31 19.5549H14.61C13.1243 19.5549 11.92 20.7593 11.92 22.2449V22.9149C11.92 24.4006 13.1243 25.6049 14.61 25.6049H19.31C20.7956 25.6049 22 24.4006 22 22.9149V22.2449C22 20.7593 20.7956 19.5549 19.31 19.5549Z" stroke="#25216D" stroke-linecap="round" stroke-linejoin="round"/>
</svg>
