<svg width="62" height="59" fill="none" xmlns="http://www.w3.org/2000/svg"><path d="M31.814 40.6H15.225v-5.075c4.571-3.694 7.38-6.053 8.428-7.076 1.07-1.047 1.606-2.026 1.606-2.938 0-.556-.223-1.013-.67-1.369-.445-.378-1.014-.567-1.705-.567-1.806 0-3.422.734-4.85 2.203l-3.612-4.04C16.585 19.247 19.44 18 22.985 18c2.608 0 4.704.679 6.287 2.036 1.583 1.358 2.375 3.16 2.375 5.408 0 1.536-.524 3.016-1.572 4.44-1.026 1.402-2.832 3.138-5.418 5.207h7.157V40.6zm15.206-1.236C45.66 40.454 44.032 41 42.137 41s-3.534-.545-4.917-1.636c-1.36-1.09-2.363-2.481-3.01-4.172-.624-1.714-.936-3.617-.936-5.709 0-2.114.312-4.017.936-5.708.647-1.691 1.65-3.071 3.01-4.14C38.603 18.546 40.242 18 42.137 18s3.523.545 4.883 1.636c1.382 1.068 2.386 2.448 3.01 4.139.647 1.691.97 3.594.97 5.708 0 2.092-.323 3.995-.97 5.709-.624 1.69-1.628 3.082-3.01 4.172zm-6.79-5.307c.38.912 1.015 1.368 1.907 1.368.892 0 1.516-.456 1.873-1.368.379-.913.49-2.437.49-4.574 0-2.136-.111-3.65-.49-4.54-.357-.912-.981-1.368-1.873-1.368s-1.528.456-1.907 1.368c-.356.89-.535 2.404-.535 4.54 0 2.137.179 3.661.535 4.574zm-27.153-3.511H8.361v5.508H4.716v-5.508H0V27.24h4.716V22H8.36v5.24h4.716v3.306z" fill="#00E676"/><path fill-rule="evenodd" clip-rule="evenodd" d="M58 29.5C58 43.583 46.583 55 32.5 55c-9.946 0-18.562-5.694-22.766-14H5.326C9.808 51.579 20.287 59 32.5 59 48.792 59 62 45.792 62 29.5S48.792 0 32.5 0C20.676 0 10.477 6.956 5.771 17h4.498C14.64 9.24 22.959 4 32.5 4 46.583 4 58 15.417 58 29.5z" fill="#00E676"/></svg>