<svg width="62" height="59" viewBox="0 0 62 59" fill="none" xmlns="http://www.w3.org/2000/svg">
<path d="M31.8141 40.5994H15.2251V35.5254C19.796 31.8312 22.6054 29.4722 23.6534 28.4485C24.7236 27.4025 25.2588 26.4233 25.2588 25.5109C25.2588 24.9545 25.0358 24.4983 24.5899 24.1422C24.1439 23.7639 23.5753 23.5747 22.8841 23.5747C21.0781 23.5747 19.4615 24.3091 18.0345 25.7779L14.4224 21.7388C16.5852 19.2463 19.4392 18 22.9845 18C25.5932 18 27.6892 18.6788 29.2723 20.0363C30.8554 21.3938 31.6469 23.1964 31.6469 25.4441C31.6469 26.9797 31.1229 28.4596 30.075 29.8839C29.0493 31.2859 27.2432 33.0218 24.6567 35.0914H31.8141V40.5994Z" fill="#00E676"/>
<path d="M47.0199 39.3643C45.6598 40.4548 44.0321 41 42.1368 41C40.2416 41 38.6027 40.4548 37.2203 39.3643C35.8602 38.2738 34.8568 36.8829 34.2102 35.1916C33.5859 33.478 33.2737 31.5752 33.2737 29.4833C33.2737 27.3691 33.5859 25.4664 34.2102 23.775C34.8568 22.0837 35.8602 20.7039 37.2203 19.6357C38.6027 18.5452 40.2416 18 42.1368 18C44.0321 18 45.6598 18.5452 47.0199 19.6357C48.4023 20.7039 49.4057 22.0837 50.03 23.775C50.6766 25.4664 50.9999 27.3691 50.9999 29.4833C50.9999 31.5752 50.6766 33.478 50.03 35.1916C49.4057 36.8829 48.4023 38.2738 47.0199 39.3643ZM40.2304 34.0566C40.6095 34.969 41.245 35.4253 42.1368 35.4253C43.0287 35.4253 43.653 34.969 44.0098 34.0566C44.3888 33.1442 44.4999 31.6197 44.4999 29.4833C44.4999 27.3469 44.3888 25.8336 44.0098 24.9434C43.653 24.031 43.0287 23.5747 42.1368 23.5747C41.245 23.5747 40.6095 24.031 40.2304 24.9434C39.8737 25.8336 39.6953 27.3469 39.6953 29.4833C39.6953 31.6197 39.8737 33.1442 40.2304 34.0566Z" fill="#00E676"/>
<path d="M13.0773 30.5457H8.36143V36.0537H4.71585V30.5457H0V27.2409H4.71585V22H8.36143V27.2409H13.0773V30.5457Z" fill="#00E676"/>
<path fill-rule="evenodd" clip-rule="evenodd" d="M58 29.5C58 43.5833 46.5833 55 32.5 55C22.5542 55 13.9382 49.306 9.73422 41H5.32556C9.808 51.5788 20.2873 59 32.5 59C48.7924 59 62 45.7924 62 29.5C62 13.2076 48.7924 0 32.5 0C20.6759 0 10.4766 6.95648 5.77148 17H10.2687C14.6411 9.24038 22.9586 4 32.5 4C46.5833 4 58 15.4167 58 29.5Z" fill="#00E676"/>
</svg>
