<svg width="59" height="60" viewBox="0 0 59 60" fill="none" xmlns="http://www.w3.org/2000/svg">
<path d="M22.3594 42.4242C22.3594 40.388 22.667 38.3868 23.2589 36.4804L23.1795 36.3119C18.4509 34.5735 14.5553 31.096 12.2721 26.6587C5.68089 28.8665 0.917969 35.0994 0.917969 42.4242C0.917969 51.5893 8.3743 59.0455 17.5393 59.0455C21.1713 59.0455 24.6343 57.8669 27.4625 55.7607C24.2912 52.2175 22.3594 47.5425 22.3594 42.4242ZM16.1476 40.6017H16.666C18.8835 40.6017 20.6876 42.4059 20.6876 44.6233C20.6876 46.3656 19.5737 47.8521 18.0209 48.4094V50.8445H14.7929V48.4094C13.2399 47.8522 12.1261 46.3657 12.1261 44.6233H15.354C15.354 45.0609 15.71 45.417 16.1478 45.417H16.6661C17.1038 45.417 17.4599 45.0609 17.4599 44.6233C17.4599 44.1857 17.1039 43.8295 16.6661 43.8295H16.1478C13.9302 43.8297 12.1262 42.0255 12.1262 39.8081C12.1262 38.0658 13.2402 36.5791 14.793 36.0219V33.5838H18.021V36.0219C19.5739 36.5793 20.6877 38.0658 20.6877 39.8081H17.4598C17.4598 39.3705 17.1038 39.0143 16.666 39.0143H16.1476C15.71 39.0143 15.3539 39.3704 15.3539 39.8081C15.3539 40.2458 15.71 40.6017 16.1476 40.6017Z" fill="#00E676"/>
<path d="M47.8126 26.7158C45.9697 30.2691 43.0918 33.2029 39.5799 35.1138L42.4242 38.6442L45.7099 34.5661L48.2234 36.5912L45.7628 39.6452H47.3509V42.8731H44.0381V44.279H47.3509V47.5069H44.0381V50.6078H40.8102V47.5069H37.5738V44.279H40.8102V42.8731H37.5738V39.6452H39.0854L36.5182 36.4588C36.5182 36.4588 33.4718 37.5542 30.0574 37.5313C28.8743 37.5234 27.715 37.4274 26.5877 37.2292C26.5578 37.3203 26.5279 37.4113 26.4996 37.5029C26.3868 37.8672 26.2865 38.2357 26.1991 38.6077C25.9075 39.8479 25.7573 41.1274 25.7573 42.4243C25.7573 42.5675 25.7591 42.7103 25.7628 42.8526C25.8661 46.9184 27.4375 50.6251 29.9644 53.4637C33.0111 56.886 37.4472 59.0455 42.3787 59.0455C51.4004 59.0455 58.7667 51.8206 58.9946 42.8526C58.9982 42.7102 59.0001 42.5674 59.0001 42.4243C59.0001 35.1612 54.3172 28.9723 47.8126 26.7158Z" fill="#00E676"/>
<path d="M30.0574 0.954346C20.9098 0.954346 13.4678 8.39638 13.4678 17.5441C13.4678 26.6917 20.9098 34.1338 30.0574 34.1338C39.2049 34.1338 46.6471 26.6917 46.6471 17.5441C46.6471 8.39638 39.2049 0.954346 30.0574 0.954346ZM31.9113 15.8776V19.1055H29.4093V19.4632C29.4093 20.0885 29.294 20.6875 29.0835 21.2398H35.721V24.4677H24.4047V21.2398H24.4048C25.3844 21.2398 26.1815 20.4427 26.1815 19.4632V19.1055H24.4048V15.8776H26.1814V14.2138C26.1814 11.4542 28.4264 9.20921 31.1859 9.20921C33.9455 9.20921 36.1905 11.4542 36.1905 14.2138H32.9626C32.9626 13.2342 32.1656 12.4371 31.1859 12.4371C30.2063 12.4371 29.4093 13.2342 29.4093 14.2138V15.8776H31.9113Z" fill="#00E676"/>
</svg>
