<svg width="59" height="60" fill="none" xmlns="http://www.w3.org/2000/svg"><path d="M22.36 42.424c0-2.036.307-4.037.899-5.944l-.08-.168a20.102 20.102 0 01-10.907-9.653C5.681 28.866.918 35.099.918 42.424c0 9.165 7.456 16.621 16.621 16.621 3.632 0 7.095-1.178 9.923-3.284a19.938 19.938 0 01-5.103-13.337zm-6.212-1.822h.518a4.026 4.026 0 014.022 4.021 4.028 4.028 0 01-2.667 3.786v2.435h-3.228V48.41a4.028 4.028 0 01-2.667-3.786h3.228c0 .438.356.794.794.794h.518a.795.795 0 000-1.587h-.518a4.026 4.026 0 01-4.022-4.022 4.028 4.028 0 012.667-3.786v-2.438h3.228v2.438a4.028 4.028 0 012.667 3.786H17.46a.795.795 0 00-.794-.794h-.518a.795.795 0 000 1.588zm31.665-13.886a20.127 20.127 0 01-8.233 8.398l2.844 3.53 3.286-4.078 2.513 2.025-2.46 3.054h1.588v3.228h-3.313v1.406h3.313v3.228h-3.313v3.1H40.81v-3.1h-3.236v-3.228h3.236v-1.406h-3.236v-3.228h1.511l-2.567-3.186s-3.046 1.095-6.46 1.072a20.832 20.832 0 01-3.47-.302c-.03.091-.06.182-.088.274a16.668 16.668 0 00-.737 5.35 16.553 16.553 0 004.201 10.61c3.047 3.423 7.483 5.582 12.415 5.582 9.021 0 16.388-7.224 16.616-16.192.003-.143.005-.286.005-.429 0-7.263-4.683-13.452-11.187-15.708z" fill="#00E676"/><path d="M30.057.954c-9.147 0-16.59 7.442-16.59 16.59s7.443 16.59 16.59 16.59c9.148 0 16.59-7.442 16.59-16.59S39.205.954 30.057.954zm1.854 14.924v3.227H29.41v.358c0 .625-.115 1.224-.325 1.777h6.637v3.228H24.405V21.24c.98 0 1.776-.797 1.776-1.777v-.358h-1.776v-3.227h1.776v-1.664a5.01 5.01 0 015.005-5.005 5.01 5.01 0 015.005 5.005h-3.228c0-.98-.797-1.777-1.777-1.777-.98 0-1.777.797-1.777 1.777v1.664h2.502z" fill="#00E676"/></svg>