<?xml version="1.0" encoding="utf-8"?>
<!-- Generator: Adobe Illustrator 19.2.1, SVG Export Plug-In . SVG Version: 6.00 Build 0)  -->
<svg version="1.1" id="Layer_1" xmlns="http://www.w3.org/2000/svg" xmlns:xlink="http://www.w3.org/1999/xlink" x="0px" y="0px"
	 viewBox="0 0 63 53" style="enable-background:new 0 0 63 53;" xml:space="preserve">
<style type="text/css">
	.st0{fill:#00E676;}
</style>
<path class="st0" d="M60.6,24.5L33.1,5.7c-1.3-0.9-3.1,0-3.1,1.7v37.5c0,1.6,1.8,2.6,3.1,1.7l27.5-18.7C61.7,27,61.7,25.2,60.6,24.5
	z M37.3,34.8V17.4L50,26.1L37.3,34.8z"/>
<path class="st0" d="M10.5,16.1h15c0.8,0,1.5,0.7,1.5,1.5l0,0c0,0.8-0.7,1.5-1.5,1.5h-15c-0.8,0-1.5-0.7-1.5-1.5l0,0
	C9,16.8,9.7,16.1,10.5,16.1z"/>
<path class="st0" d="M2.5,24.1h18c0.8,0,1.5,0.7,1.5,1.5l0,0c0,0.8-0.7,1.5-1.5,1.5h-18c-0.8,0-1.5-0.7-1.5-1.5l0,0
	C1,24.8,1.7,24.1,2.5,24.1z"/>
<path class="st0" d="M11.5,32.1h14c0.8,0,1.5,0.7,1.5,1.5l0,0c0,0.8-0.7,1.5-1.5,1.5h-14c-0.8,0-1.5-0.7-1.5-1.5l0,0
	C10,32.8,10.7,32.1,11.5,32.1z"/>
</svg>
