<svg width="54" height="53" viewBox="0 0 54 53" fill="none" xmlns="http://www.w3.org/2000/svg">
<path d="M28.0592 25.4595L27.0415 22.9038L26.0238 25.4595C25.799 26.0245 25.2694 26.4094 24.6613 26.4494L21.9163 26.6265L24.0316 28.3847C24.4996 28.7742 24.7029 29.3978 24.552 29.9874L23.873 32.6524L26.1993 31.1821C26.7136 30.8588 27.3694 30.8588 27.8836 31.1821L30.2083 32.6509L29.5294 29.9874C29.3784 29.3978 29.5817 28.7742 30.0497 28.3847L32.1651 26.6265L29.4215 26.4494C28.8136 26.4094 28.284 26.0245 28.0592 25.4595Z" fill="#00E676"/>
<path d="M52.5252 18.4667L35.0042 17.332L28.5056 1.00645C28.0284 -0.191279 26.0547 -0.191279 25.5774 1.00645L19.0789 17.332L1.65964 18.4667C1.01453 18.5083 0.461912 18.9393 0.261694 19.5537C0.063053 20.1664 0.25707 20.8407 0.754409 21.2534L14.1569 32.4784L9.81833 49.5043C9.65826 50.1294 9.89684 50.7898 10.4188 51.1686C10.9422 51.5474 11.6428 51.569 12.1877 51.2272L27.0415 41.8389L41.8936 51.2272C42.4411 51.5713 43.1392 51.5488 43.6626 51.1686C44.1845 50.7898 44.4231 50.131 44.263 49.5043L39.9246 32.4783L53.4305 21.2533C53.9277 20.8406 54.1217 20.1663 53.9232 19.5536C53.723 18.9393 53.1704 18.5082 52.5252 18.4667ZM37.2258 26.5232L32.8303 30.1735L34.2406 35.7098C34.4007 36.3364 34.1621 36.9953 33.6401 37.3741C33.1168 37.754 32.4189 37.7768 31.8712 37.4326L27.0416 34.3797L22.2104 37.4326C21.6623 37.7744 20.9648 37.7545 20.4414 37.3741C19.9195 36.9953 19.6809 36.3349 19.841 35.7098L21.2512 30.1735L16.8558 26.5232C16.3586 26.1106 16.1646 25.4363 16.3631 24.8235C16.5632 24.2092 17.1159 23.7782 17.761 23.7366L23.4636 23.367L25.5774 18.0586C26.0547 16.8609 28.0284 16.8609 28.5056 18.0586L30.6194 23.367L36.3204 23.7366C36.9655 23.7782 37.5182 24.2092 37.7184 24.8235C37.917 25.4363 37.723 26.1106 37.2258 26.5232Z" fill="#00E676"/>
<path d="M27.0907 52.0385C27.9614 52.0385 28.6672 51.3327 28.6672 50.462C28.6672 49.5913 27.9614 48.8855 27.0907 48.8855C26.22 48.8855 25.5142 49.5913 25.5142 50.462C25.5142 51.3327 26.22 52.0385 27.0907 52.0385Z" fill="#00E676"/>
<path d="M49.5819 35.695C49.8509 34.8669 49.3977 33.9775 48.5696 33.7085C47.7415 33.4395 46.8521 33.8927 46.583 34.7208C46.3139 35.5489 46.7671 36.4383 47.5953 36.7073C48.4234 36.9764 49.3128 36.5231 49.5819 35.695Z" fill="#00E676"/>
<path d="M41.3402 11.4627C41.852 10.7583 41.6959 9.77242 40.9915 9.26064C40.2871 8.74886 39.3012 8.905 38.7894 9.60937C38.2776 10.3138 38.4337 11.2996 39.1381 11.8114C39.8425 12.3232 40.8284 12.1671 41.3402 11.4627Z" fill="#00E676"/>
<path d="M15.0442 11.8094C15.7486 11.2976 15.9047 10.3117 15.393 9.60733C14.8812 8.90294 13.8953 8.74681 13.1909 9.25861C12.4865 9.77041 12.3304 10.7563 12.8422 11.4607C13.354 12.1651 14.3399 12.3212 15.0442 11.8094Z" fill="#00E676"/>
<path d="M6.58639 36.7121C7.4145 36.4431 7.86771 35.5537 7.59867 34.7256C7.32963 33.8975 6.44021 33.4443 5.6121 33.7133C4.78399 33.9823 4.33077 34.8718 4.59981 35.6999C4.86886 36.528 5.75827 36.9812 6.58639 36.7121Z" fill="#00E676"/>
</svg>
