<svg width="54" height="53" fill="none" xmlns="http://www.w3.org/2000/svg"><path d="M28.06 25.46l-1.018-2.556-1.018 2.555c-.225.566-.755.95-1.363.99l-2.745.177 2.116 1.759c.468.39.67 1.013.52 1.602l-.679 2.665 2.326-1.47a1.584 1.584 0 011.685 0l2.324 1.469-.679-2.664a1.577 1.577 0 01.52-1.602l2.116-1.759-2.743-.177a1.576 1.576 0 01-1.363-.99z" fill="#00E676"/><path d="M52.525 18.467l-17.52-1.135-6.5-16.326c-.477-1.197-2.45-1.197-2.928 0L19.08 17.332 1.66 18.467a1.577 1.577 0 00-.905 2.786l13.403 11.225-4.339 17.026a1.575 1.575 0 002.37 1.723L27.04 41.84l14.853 9.388a1.577 1.577 0 002.369-1.723l-4.338-17.026L53.43 21.253a1.578 1.578 0 00-.906-2.786zm-15.3 8.056l-4.395 3.65 1.41 5.537a1.577 1.577 0 01-2.37 1.723l-4.828-3.053-4.832 3.053a1.575 1.575 0 01-2.37-1.723l1.411-5.537-4.395-3.65a1.578 1.578 0 01.905-2.786l5.703-.37 2.113-5.308c.478-1.198 2.451-1.198 2.929 0l2.113 5.308 5.701.37a1.577 1.577 0 01.906 2.786z" fill="#00E676"/><path d="M27.09 52.038a1.576 1.576 0 100-3.152 1.576 1.576 0 000 3.152zm22.492-16.343a1.577 1.577 0 10-2.999-.974 1.577 1.577 0 002.999.974zM41.34 11.463a1.576 1.576 0 10-2.55-1.854 1.576 1.576 0 002.55 1.854zm-26.296.347a1.577 1.577 0 10-1.853-2.552 1.577 1.577 0 001.853 2.551zM6.586 36.712a1.576 1.576 0 10-.974-2.999 1.576 1.576 0 00.974 3z" fill="#00E676"/></svg>