<?xml version="1.0" encoding="utf-8"?>
<!-- Generator: Adobe Illustrator 19.2.1, SVG Export Plug-In . SVG Version: 6.00 Build 0)  -->
<svg version="1.1" id="Layer_1" xmlns="http://www.w3.org/2000/svg" xmlns:xlink="http://www.w3.org/1999/xlink" x="0px" y="0px"
	 viewBox="0 0 64 62" style="enable-background:new 0 0 64 62;" xml:space="preserve">
<style type="text/css">
	.st0{fill:#00E676;}
</style>
<g>
	<path class="st0" d="M51,50.9v-6.6h3.5c2.6,0,4.4-1.8,4.4-4.4V22.5c0-2.6-1.8-4.4-4.4-4.4H41.4c-2.6,0-4.4,1.8-4.4,4.4V40
		c0,2.6,1.8,4.4,4.4,4.4h3.1v6.6H51z M43.6,37.8V24.7h8.8v13.1H43.6z"/>
	<polygon class="st0" points="28.2,44.3 28.2,18.1 21.7,18.1 21.7,29 12.9,29 12.9,18.1 6.4,18.1 6.4,44.3 12.9,44.3 12.9,35.6 
		21.7,35.6 21.7,44.3 	"/>
</g>
</svg>
