<svg width="46" height="47" viewBox="0 0 46 47" fill="none" xmlns="http://www.w3.org/2000/svg">
<path fill-rule="evenodd" clip-rule="evenodd" d="M18.4369 46.1023C19.2196 42.1453 19.263 38.9711 18.9152 36.1446C17.6977 36.7099 15.1756 38.0579 13.7407 36.623L11.61 34.4923L9.47933 32.3616C8.04439 30.9267 9.39236 28.3612 9.95765 27.1871C7.13124 26.8827 3.95697 26.8827 0 27.6654C1.69584 22.8823 4.56573 18.7514 6.39203 17.5773C9.69675 15.4901 12.9145 15.1423 15.567 15.3597C22.2199 6.09778 32.7428 -1.85964 45.5704 0.531931C47.9619 13.403 40.0045 23.9259 30.7426 30.5353C30.9165 33.1878 30.6122 36.4055 28.525 39.7103C27.3509 41.58 23.22 44.4499 18.4369 46.1023ZM35.4388 10.6635C37.3086 12.5333 37.3086 15.5771 35.4388 17.4469C33.569 19.3167 30.5252 19.3167 28.6554 17.4469C26.7856 15.5771 26.7856 12.5333 28.6554 10.6635C30.5252 8.79373 33.569 8.79373 35.4388 10.6635ZM7.34866 33.84C0.82618 35.275 2.17416 41.1017 1.00011 45.1457C5.04405 43.9716 10.8708 45.3196 12.3057 38.7971C10.262 40.6234 8.5227 41.9714 5.21798 40.9278C4.17438 37.6231 5.52236 35.8837 7.34866 33.84Z" fill="#00E676"/>
</svg>
