<svg width="46" height="47" fill="none" xmlns="http://www.w3.org/2000/svg"><path fill-rule="evenodd" clip-rule="evenodd" d="M18.437 46.102c.783-3.957.826-7.13.478-9.957-1.217.565-3.74 1.913-5.174.478l-2.131-2.13-2.13-2.131c-1.436-1.435-.088-4 .478-5.175-2.827-.304-6.001-.304-9.958.478 1.696-4.783 4.566-8.914 6.392-10.088 3.305-2.087 6.522-2.435 9.175-2.217C22.22 6.098 32.743-1.86 45.57.532c2.392 12.871-5.566 23.394-14.827 30.003.174 2.653-.13 5.87-2.218 9.175-1.174 1.87-5.305 4.74-10.088 6.392zm17.002-35.438a4.803 4.803 0 010 6.783 4.803 4.803 0 01-6.784 0 4.803 4.803 0 010-6.783 4.803 4.803 0 016.784 0zM7.349 33.84C.826 35.275 2.174 41.102 1 45.146c4.044-1.174 9.87.174 11.306-6.349-2.044 1.826-3.783 3.174-7.088 2.13-1.044-3.304.304-5.043 2.13-7.087z" fill="#00E676"/></svg>