<svg width="45" height="45" viewBox="0 0 45 45" fill="none" xmlns="http://www.w3.org/2000/svg">
<path d="M17.5969 27.4575H27.4031C27.8544 27.4575 28.2203 27.8145 28.2203 28.2549V44.2025C28.2203 44.6429 27.8544 44.9999 27.4031 44.9999H17.5969C17.1456 44.9999 16.7797 44.6429 16.7797 44.2025V28.2549C16.7797 27.8145 17.1456 27.4575 17.5969 27.4575Z" fill="#00E676"/>
<path d="M34.3765 19.0679H44.1828C44.6341 19.0679 45 19.4307 45 19.8783V44.1897C45 44.6372 44.6341 45.0001 44.1828 45.0001H34.3765C33.9252 45.0001 33.5593 44.6372 33.5593 44.1897V19.8783C33.5593 19.4307 33.9252 19.0679 34.3765 19.0679Z" fill="#00E676"/>
<path d="M0.817191 22.8813H10.6235C11.0748 22.8813 11.4407 23.2482 11.4407 23.7006V44.1808C11.4407 44.6332 11.0748 45 10.6235 45H0.817191C0.365901 45 0 44.6332 0 44.1808V23.7006C0 23.2482 0.365901 22.8813 0.817191 22.8813Z" fill="#00E676"/>
<path d="M19.0677 3.05083C19.0677 4.31444 17.8725 5.33897 16.3983 5.33897C14.924 5.33897 13.7288 4.31444 13.7288 3.05083C13.7288 1.78722 14.924 0.762695 16.3983 0.762695C17.8725 0.762695 19.0677 1.78722 19.0677 3.05083Z" fill="#00E676"/>
<path d="M4.57629 13.3779L13.4094 5.33887L14.4915 6.4527L5.65849 14.4914L4.57629 13.3779Z" fill="#00E676"/>
<path d="M32.7966 11.0976L39.3176 4.57617L40.4237 5.68229L33.9024 12.2033L32.7966 11.0976Z" fill="#00E676"/>
<path d="M18.3051 5.81881L19.2601 4.57617L29.7457 10.9606L28.7911 12.2033L18.3051 5.81881Z" fill="#00E676"/>
<path d="M33.5593 13.7288C33.5593 14.9924 32.5348 16.0169 31.2712 16.0169C30.0076 16.0169 28.983 14.9924 28.983 13.7288C28.983 12.4652 30.0076 11.4407 31.2712 11.4407C32.5348 11.4407 33.5593 12.4652 33.5593 13.7288Z" fill="#00E676"/>
<path d="M45 2.66949C45 4.14371 43.8047 5.33898 42.3305 5.33898C40.8563 5.33898 39.661 4.14371 39.661 2.66949C39.661 1.19528 40.8563 0 42.3305 0C43.8047 0 45 1.19528 45 2.66949Z" fill="#00E676"/>
<path d="M5.33898 16.3983C5.33898 17.8725 4.14371 19.0677 2.66949 19.0677C1.19528 19.0677 0 17.8725 0 16.3983C0 14.924 1.19528 13.7288 2.66949 13.7288C4.14371 13.7288 5.33898 14.924 5.33898 16.3983Z" fill="#00E676"/>
</svg>
