<svg width="45" height="45" fill="none" xmlns="http://www.w3.org/2000/svg"><path d="M17.597 27.457h9.806c.451 0 .817.357.817.798v15.948c0 .44-.366.797-.817.797h-9.806a.807.807 0 01-.817-.797V28.255c0-.44.366-.797.817-.797zm16.78-8.389h9.806c.451 0 .817.363.817.81V44.19c0 .447-.366.81-.817.81h-9.806a.814.814 0 01-.818-.81V19.878c0-.447.366-.81.818-.81zM.817 22.881h9.806c.452 0 .818.367.818.82v20.48a.819.819 0 01-.818.819H.818A.818.818 0 010 44.18V23.7c0-.452.366-.819.817-.819zM19.068 3.05c0 1.264-1.196 2.289-2.67 2.289s-2.67-1.025-2.67-2.288c0-1.264 1.196-2.288 2.67-2.288s2.67 1.024 2.67 2.288zM4.576 13.378l8.833-8.04 1.082 1.115-8.833 8.038-1.082-1.113zm28.221-2.28l6.52-6.522 1.107 1.106-6.522 6.521-1.105-1.105zM18.305 5.819l.955-1.243 10.486 6.385-.955 1.242L18.305 5.82zm15.255 7.91a2.288 2.288 0 11-4.577 0 2.288 2.288 0 014.576 0zM45 2.67a2.67 2.67 0 11-5.34 0 2.67 2.67 0 015.34 0zM5.339 16.398a2.67 2.67 0 11-5.34 0 2.67 2.67 0 015.34 0z" fill="#00E676"/></svg>