<svg width="12" height="12" viewBox="0 0 12 12" fill="none" xmlns="http://www.w3.org/2000/svg"><path d="M8.07 5.942C8.002 4.561 7.02 3.73 5.83 3.73h-.048c-1.374 0-2.13 1.125-2.13 2.4 0 1.433.918 2.34 2.124 2.34 1.35 0 2.232-1.032 2.298-2.245l-.006-.282zM5.79 2.491c.917 0 1.781.425 2.411 1.088 0-.319.198-.557.498-.557h.066c.444 0 .534.438.534.576v4.94c-.024.324.324.487.522.274.762-.806 1.668-4.183-.474-6.133-1.998-1.826-4.68-1.526-6.108-.5C1.727 3.265.755 5.685 1.697 7.942c1.026 2.47 3.966 3.208 5.712 2.47.888-.369 1.29.875.39 1.282-1.404.619-5.262.556-7.068-2.701C-.487 6.793-.427 2.922 2.807.915 5.285-.617 8.543-.19 10.5 1.935c2.07 2.25 1.95 6.44-.06 8.072-.906.737-2.256.018-2.244-1.063l-.012-.35A3.3 3.3 0 0 1 5.79 9.63c-1.812 0-3.39-1.663-3.39-3.551 0-1.907 1.578-3.59 3.39-3.59z" fill="#fff"/></svg>