<svg width="8" height="13" fill="none" xmlns="http://www.w3.org/2000/svg"><path d="M7.88 6.982c-.187-.37-.713-.683-1.412-.156C5.517 7.567 4 7.567 4 7.567s-1.517 0-2.468-.741C.832 6.299.307 6.61.12 6.982c-.333.65.04.968.885 1.495.725.455 1.717.624 2.355.69l-.532.52a271.33 271.33 0 0 0-1.99 1.937.73.73 0 0 0 0 1.053l.094.104c.3.292.791.292 1.09 0L4 10.843c.765.735 1.49 1.444 1.996 1.938.3.292.785.292 1.091 0l.087-.104a.719.719 0 0 0 0-1.053L5.19 9.685l-.526-.526c.632-.059 1.61-.234 2.33-.683.844-.527 1.217-.845.884-1.495zM4 1.67c.918 0 1.663.728 1.663 1.618 0 .898-.745 1.62-1.663 1.62s-1.663-.722-1.663-1.62c0-.89.745-1.618 1.663-1.618zm0 4.908c1.863 0 3.367-1.47 3.367-3.29C7.367 1.476 5.863 0 4 0S.633 1.476.633 3.29C.633 5.11 2.137 6.578 4 6.578z" fill="#fff"/></svg>