<svg width="12" height="10" fill="none" xmlns="http://www.w3.org/2000/svg"><path d="M12 1.147a4.91 4.91 0 0 1-1.411.396A2.466 2.466 0 0 0 11.667.178a4.956 4.956 0 0 1-1.56.602A2.423 2.423 0 0 0 8.294 0a2.458 2.458 0 0 0-2.449 2.46c0 .196.023.385.063.563A6.995 6.995 0 0 1 .838.453a2.435 2.435 0 0 0-.333 1.233c0 .855.43 1.612 1.095 2.042-.407 0-.785-.114-1.118-.286v.017c0 1.193.849 2.191 1.973 2.415a2.421 2.421 0 0 1-1.107.04c.31.97 1.21 1.692 2.294 1.71A4.888 4.888 0 0 1 .585 8.678 4.99 4.99 0 0 1 0 8.643 6.966 6.966 0 0 0 3.774 9.75c4.52 0 7.004-3.751 7.004-7.003 0-.11 0-.213-.005-.322A4.93 4.93 0 0 0 12 1.146z" fill="#fff"/></svg>