<svg width="12" height="8" viewBox="0 0 12 8" fill="none" xmlns="http://www.w3.org/2000/svg"><path d="M11.726.48c.084-.273 0-.48-.402-.48h-1.309c-.337 0-.486.175-.57.37 0 0-.667 1.625-1.613 2.688-.31.304-.447.401-.615.401-.084 0-.22-.097-.22-.375V.479C6.996.15 6.918 0 6.64 0H4.574c-.208 0-.33.155-.33.304 0 .311.485.39.517 1.277v1.93c0 .428-.077.505-.24.505-.44 0-1.528-1.638-2.17-3.504C2.223.149 2.1 0 1.763 0H.447C.077 0 0 .175 0 .37c0 .35.447 2.072 2.073 4.353 1.082 1.56 2.61 2.403 4.004 2.403.835 0 .939-.188.939-.512V5.435c0-.369.078-.447.343-.447.195 0 .525.097 1.302.842.894.894 1.037 1.296 1.542 1.296h1.309c.375 0 .563-.188.46-.557-.117-.37-.544-.907-1.108-1.542-.305-.356-.764-.745-.907-.946-.194-.246-.136-.356 0-.583 0 0 1.6-2.248 1.769-3.019z" fill="#fff"/></svg>