<svg xmlns="http://www.w3.org/2000/svg" viewBox="0 0 80 80"><style>.st0{display:none}.st1{fill:#650c16}.st2{fill:#f7a9ab}.st3{fill:#d3333f}.st4{fill:none}.st5{fill:#fdcea1}</style><g id="bra1"><path class="st1" d="M46.3 46.8c-.2.2-.4.4-.7.6-1.8 2.1-2.9 4.1-3.7 6 0 .1 0 .1-.1.2-1.2 3.2-.9 6.2.2 8.6.1-.6 2.7-6.1 9.1-10.2-4.1 2.6-8.3 3.8-8.5 4.1 1-6.2 2.2-7.4 3.7-9.3z"/><path class="st2" d="M35.9 67.6c-.1.1-.2.1-.3.2-.1 0-.1.1-.2.1-.1.1-.2.1-.3.2-.1.1-.2.1-.2.2-.1.1-.2.1-.3.2-.1.1-.2.1-.3.2-.1.1-.2.1-.3.2-.1.1-.2.1-.3.2-.1.1-.2.1-.3.2-.1.1-.2.1-.3.2-.1.1-.2.1-.3.2-.1.1-.2.1-.4.2-.1 0-.2.1-.2.1-.1.1-.3.2-.5.2-.1 0-.1.1-.2.1-.2.1-.4.2-.7.3-.2.1-.4.2-.7.3-.1 0-.1.1-.2.1-.2.1-.3.1-.5.2-.1 0-.2.1-.3.1-.2.1-.3.1-.5.2-.1 0-.2.1-.3.1-.2.1-.3.1-.5.1-.1 0-.2.1-.3.1-.2 0-.3.1-.5.1-.1 0-.2 0-.3.1-.2 0-.3.1-.5.1-.1 0-.2 0-.3.1-.2 0-.4.1-.5.1h-.3c-.2 0-.4 0-.6.1h-.2c-.6 0-1.2.1-1.8 0h-1.2c-.2 0-.4 0-.6-.1-.1 0-.2 0-.4-.1-.2 0-.4-.1-.6-.1-.1 0-.3-.1-.4-.1-.2 0-.4-.1-.6-.1-.1 0-.3-.1-.4-.1-.2-.1-.4-.1-.6-.2-.1 0-.3-.1-.4-.1-.2-.1-.4-.2-.6-.2.5-.3.3-.3.2-.4l-.6-.3c-.1-.1-.2-.1-.3-.2-.3-.2-.6-.3-1-.5-.5-.3-1-.6-1.4-1-.1-.1-.3-.2-.4-.4-.3-.2-.6-.5-.8-.7-.1-.1-.3-.3-.4-.5-.2-.2-.5-.5-.7-.8-.1-.2-.3-.3-.4-.5-.2-.3-.4-.5-.5-.8-.1-.2-.2-.4-.3-.5-.2-.3-.3-.5-.5-.8l-.3-.6c-.1-.3-.3-.6-.4-.9-.1-.2-.2-.4-.2-.6l-.3-.9c-.1-.2-.1-.4-.2-.6-.2-.1-.2-.4-.3-.7 0-.2-.1-.4-.1-.6-.1-.3-.1-.6-.2-.9 0-.2-.1-.4-.1-.5-.1-.3-.1-.6-.2-.9 0-.2-.1-.3-.1-.5 0-.3-.1-.6-.1-.9 0-.2 0-.3-.1-.5 0-.3 0-.5-.1-.8 0-.5-.1-1-.1-1.4v-2.1c-.7.9-1 1.5-1 1.5s-4.3 6.5-.5 15.3c3 7 11 9.3 16.3 9.8 2.3.2 8.1-1 10.1-2.3 1.7-1.2 4.5-2.8 5.3-8.1-.3.2-.6.5-1.1.9.1-.1 0-.1 0 0z"/><path class="st3" d="M71.8 47.1c-.4 0-1.1 0-2 .1-2.3.1-5.8.4-8.9.9-2.9 1.1-5.6 2.5-7.8 4.1-.6.5-1.2 1-1.9 1.5-5.1 4.3-7.8 9.4-7.6 12.4 0 .2.4 2.2.6 2.5.2.1.4.2.6.4 3.8 2.4 12.6 6 21.3 2.4.4-.2.8-.3 1.1-.5.3-.2.6-.3.9-.5 2.3-1.4 4-3.3 5.1-5.4 3.2-6.4.6-14.6-1.2-17.8 0-.1 0-.1-.2-.1z"/><path class="st2" d="M73.3 65c-1 2.1-2.7 3.9-5.1 5.4-.3.2-.6.3-.9.5-.4.2-.7.4-1.1.5-8.7 3.6-17.5 0-21.3-2.4-.2-.1-.4-.3-.6-.4 1.5 4.1 5.4 6.7 6.5 7.2 2.1 1 6.1.9 8.4 1.2 5.7 0 13.2-4 15.9-8.8.2-.3.3-.6.5-1 3.2-8 .6-14.6.6-14.6s-.9-2.6-3.9-5.5c1.6 3.3 4.2 11.5 1 17.9z"/><path class="st3" d="M9.8 47c-1.3 1.4-2.3 2.5-2.9 3.4v2.1c0 .4 0 .9.1 1.4 0 .3 0 .5.1.8 0 .2 0 .3.1.5 0 .3.1.6.1.9 0 .2.1.3.1.5 0 .3.1.6.2.9 0 .2.1.4.1.5.1.3.1.6.2.9 0 .2.1.4.1.6 0 .4 0 .7.1 1 .1.2.1.4.2.6l.3.9c.1.2.2.4.2.6.1.3.3.6.4.9l.3.6c.1.3.3.6.5.8.1.2.2.4.3.5.2.3.4.5.5.8.1.2.2.3.4.5.2.3.4.5.7.8.1.2.3.3.4.5.3.3.5.5.8.7.1.1.3.2.4.4.4.3.9.7 1.4 1 .3.2.6.4 1 .5.1.1.2.1.3.2l.6.3c.1.1.3.1.4.2.2.1.4.2.6.2.1 0 .3.1.4.1.2.1.4.1.6.2.1 0 .3.1.4.1.2.1.4.1.6.1.1 0 .3.1.4.1.2 0 .4.1.6.1.1 0 .2 0 .4.1.2 0 .4.1.6.1H25c.2 0 .4 0 .6-.1h.3c.2 0 .4-.1.5-.1.1 0 .2 0 .3-.1.2 0 .3-.1.5-.1.1 0 .2 0 .3-.1.2 0 .3-.1.5-.1.1 0 .2-.1.3-.1.2 0 .3-.1.5-.1.1 0 .2-.1.3-.1.2-.1.3-.1.5-.2.1 0 .2-.1.3-.1.2-.1.3-.1.5-.2.1 0 .1-.1.2-.1.2-.1.5-.2.7-.3.2-.1.5-.2.7-.3.1 0 .1-.1.2-.1.2-.1.3-.2.5-.2.1 0 .2-.1.2-.1.1-.1.2-.1.4-.2.1-.1.2-.1.3-.2.1-.1.2-.1.3-.2.1-.1.2-.1.3-.2.1-.1.2-.1.3-.2.1-.1.2-.1.3-.2.1-.1.2-.1.3-.2.1-.1.2-.1.3-.2.1-.1.2-.1.2-.2.1-.1.2-.1.3-.2.1 0 .1-.1.2-.1.1-.1.2-.1.3-.2 0 0 .1 0 .1-.1.4-.3.7-.6 1-.8 0-.2.1-.4.1-.6C38 61.6 31.3 51.9 20 48h.3c-4.1-.6-8.6-.9-10.5-1z"/><path class="st4" d="M46.3 46.8l-.6.6c-1.8 2.1-2.9 4.1-3.7 6 0 .1 0 .1-.1.2-1.2 3.2-.9 6.2.2 8.6.1-.6 2.7-6.1 9.1-10.2-4.1 2.6-8.3 3.8-8.5 4.1.9-6.2 2.1-7.4 3.6-9.3zm25.5.3c-.4 0-1.1 0-2 .1-2.3.1-5.8.4-8.9.9-2.9 1.1-5.6 2.5-7.8 4.1-.6.5-1.3 1-1.9 1.5-5.1 4.3-7.8 9.4-7.6 12.4 0 .2.4 2.2.6 2.5 1.5 4.1 5.4 6.7 6.5 7.2 2.1 1 6.1 1.2 8.4 1.2 5.7 0 13.2-4 15.9-8.8.2-.3.3-.6.5-1 3.2-8 .6-14.6.6-14.6s-.9-2.6-3.9-5.5h-.4zM61 40.3c-1.2-.5-2.5-.9-3.8-1.2l.2.1 3.6 1.1zm-42.7 4.3c-.1.1-.1.1 0 0zM6.8 50.4c-.7.9-1 1.5-1 1.5s-4.3 6.5-.5 15.3c3 7 11 9.3 16.3 9.8 2.3.2 8.1-1 10.1-2.3 1.7-1.2 4.5-2.8 5.3-8.1 0-.2.1-.4.1-.6.4-4.5-6.3-14.2-17.6-18.1h.3c-3.7-.6-8.1-.9-10-1-1.4 1.5-2.3 2.6-3 3.5z"/><path class="st5" d="M30.3 28.3c.2 4.2-3.4 10.5-12 16.3l-.1.1c-2.1 1.3 7.7-1.2 17.6 11.7v.1l.2.2c2.3 3 2.6 5.6 2.6 5.6.1-.3 1.9-8.3-5.4-15.6 3.3 2.6 5.4 5.1 6.8 7.8 1.4-2.6 3-4.9 6-7.4l.3-.3c-1.6 2-2.7 3.1-3.6 9.3.2-.3 4.3-1.6 8.5-4.1 1.4-.9 3-1.7 4.7-2.4 1.2-.5 2.4-.9 3.7-1.2.5-.1 1-.2 1.6-.3-.1 0-.2.1-.3.1 3-.5 6.6-.8 8.9-.9 1-.1 1.7-.1 2-.1h.3c-.1 0-.1-.1-.2-.1-.1-.1-.3-.2-.4-.4-2.1-1.8-5.8-4.5-10.4-6.3l-3.5-1.1-.2-.1c-.6-.1-1.1-.3-1.7-.4.3 0 .6 0 1 .1l-.2-.1C51.6 35.5 50.7 27 50.7 27c-5.3 4.1-18.3 3.7-20.5.5.1.2.1.5.1.8z"/><path class="st1" d="M35.8 56.3C25.9 43.4 16.1 46 18.2 44.6l.1-.1c8.5-5.8 12.8-12.6 12-16.3-.3 2.8-4.4 8.1-10.5 11.4-4.7 2.5-8 5.3-10 7.3 1.9.1 6.4.4 10 1 6.8.4 12.9 4.4 16 8.4.1.1.1 0 0 0z"/><path d="M68.7 43.2c-.6-.3-1.1-.7-1.7-1-4.1-2.1-8.1-3.2-10.4-3.5-.4 0-.7-.1-1-.1.6.1 1.1.3 1.7.4 1.3.3 2.6.8 3.8 1.2 4.6 1.8 8.3 4.4 10.4 6.3.1.1.3.2.4.4.1 0 .1.1.2.1 3.1 2.9 3.9 5.5 3.9 5.5s2.6 6.6-.6 14.6c-.1.3-.3.7-.5 1-2.6 4.9-10.2 9-15.8 8.9-2.3 0-6.3-.2-8.4-1.2-1.1-.5-5-3.1-6.5-7.2-.1-.3-.5-2.3-.6-2.5-.2-2.9 2.5-8.1 7.6-12.4.6-.5 1.2-1 1.9-1.5 2.3-1.6 4.9-3.1 7.8-4.1.1 0 .2-.1.3-.1-.5.1-1.1.2-1.6.3-1.3.3-2.6.7-3.7 1.2-1.8.7-3.3 1.5-4.7 2.4-6.3 4.1-9 9.6-9.1 10.2-1.1-2.4-1.3-5.4-.2-8.6 0-.1 0-.1.1-.2.7-1.9 1.9-3.9 3.7-6l.6-.6-.3.3c-3 2.5-4.6 4.9-6 7.4-1.5-2.6-3.6-5.2-6.8-7.8 7.4 7.3 5.5 15.3 5.4 15.6 0 0-.3-2.6-2.6-5.6l-.2-.2c-3.1-4-9.2-8-16-8.4h-.3c11.3 3.9 17.9 13.6 17.6 18.1 0 .2-.1.4-.1.6-.7 5.3-3.5 6.9-5.3 8.1-1.9 1.3-7.7 2.5-10.1 2.3-5.3-.5-13.3-2.8-16.3-9.8-3.8-8.9.5-15.3.5-15.3s.3-.6 1-1.5c.6-.9 1.6-2 2.9-3.4 1.9-2 5.3-4.8 10-7.3 6.2-3.3 10.2-8.6 10.5-11.4 0-.3 0-.6-.1-.9-.1-.2-.1-.3-.2-.5 0 0 0 .4-.3 1-.3.7-1 1.9-2.4 3.4-2.3 2.4-6.6 5.7-14.6 9.8C-4.8 50.3 2 66.1 2 66.1c-.1.6 5 12.5 18 13.5 7.3.6 12.5-2.9 15.9-6 1.8-1.7 3.1-4.1 4.1-6.4 1 2.3 2.8 5.4 4.6 7.1 3.4 3.1 9.2 6.3 17 5.2 10.2-1.2 13.6-7.2 15.8-11.1.6-1 1.1-2.2 1.3-3.3 2.7-11-3.3-17.9-10-21.9z"/></g></svg>