<svg xmlns="http://www.w3.org/2000/svg" viewBox="0 0 150 150"><path d="M128.4 91c-2.1.1-4.2-.3-6.1-1.2-7.6-3.7-11.8 1.9-12 8-.2 6.8-3.2 11.7-9.3 14.5-3.9 1.7-7.8 1.5-11.7-.2-7.5-3.1-10.9-1.2-12.4 6.6-1.9 10.3-11.7 16.1-21.7 12.8-1.5-.5-3-1-4.5-1.3-4.1-.9-6.8.4-8.3 4.4-.7 1.7-1 3.5-1.4 5.2-1.5 5.8-5.2 9.6-11 10.8-6 1.3-11.4-.5-15.3-5.5-3.7-4.7-4.2-9.9-1.8-15.4 1.1-2.5 3.1-4.5 4.8-6.6 4.1-5 3.9-8.3-.6-12.9-.9-.9-2-1.7-2.9-2.6-6.9-6.4-7-16.6-.3-23.2.6-.6 1.4-1.2 2-1.8 5-4.7 5.3-9.2-.1-13.5-9.2-7.2-8.4-19.5-.5-26.1 6-4.9 5.9-8.8 1.4-15.2-3.3-4.6-6.1-9.4-4.7-15.4 1.5-6.6 7.5-11.2 14.5-11.3 7.1-.1 12.7 4.1 14.4 10.7.2.6.2 1.3.4 1.9 1.9 8.2 4.8 9.8 12.8 7.1C65.4 17 74.6 22.3 77 34.1c1.4 6.9 5 8.8 11.5 6.2 11.2-4.4 21.1 1.7 21.7 13.6.4 7.6 5.4 11.7 12.4 8.4 5.9-2.8 11.8-1.4 16.4 3.5 4.4 4.7 5.2 10.4 2.7 16.3-2.3 5.8-7 8.6-13.3 8.9z" fill="#fefefe"/><path d="M34.3 121.5V99.2c.1-21.8.2-43.6.2-65.4 0-3.3.8-3.3 3.3-1.8 23.9 14.1 47.8 28.2 71.7 42.2 1.6.9 3.8 1.4.5 3.3-24.6 14.4-49.2 28.8-73.8 43.3-.2.2-.6.3-1.9.7z" fill="#b216a7"/></svg>