<svg id="Layer_1" xmlns="http://www.w3.org/2000/svg" viewBox="0 0 50 50"><style>.st0{fill:none}.st2{fill:#efef04}</style><path class="st0" d="M19.6 2.1c-.2 0-.4.1-.4.3 0 .3.1.6.5.6.2 0 .5-.2.5-.4 0-.3-.3-.5-.6-.5zm-9.7 15c.2.2.4.1.6-.1l-.9-.5c-.1.2.1.4.3.6zm35-5.1c-.1-.2-.2-.2-.4-.2-.3 0-.4.2-.3.4.1.2.2.3.5.3.1 0 .3-.2.2-.5zM7.5 24.6c.4-.3.4-.7.3-1.1-1 .2-.8.6-.3 1.1zm-4.1 2.2c-.3 0-.6.1-.6.5s.3.5.6.5c.4 0 .5-.2.5-.6 0-.3-.3-.4-.5-.4z"/><path class="st0" d="M7.5 24.6c.4-.3.4-.7.3-1.1-1 .2-.8.6-.3 1.1zm2.4-7.5c.2.2.4.1.6-.1l-.9-.5c-.1.2.1.4.3.6zm9.7-15c-.2 0-.4.1-.4.3 0 .3.1.6.5.6.2 0 .5-.2.5-.4 0-.3-.3-.5-.6-.5zm24.5 13.3c.1-.4.1-.9.2-1.3 0-.1.1-.4-.1-.4s-.3.1-.4.2c-.3.5-.6 1.1-.8 1.6-.6 1.2-1.6 2-2.8 2.5-.4.1-.7.2-1.1.1-1.1-.3-1.8-1-2.4-1.9-.9-1.4-1.4-3-1.8-4.6 0-.2.1-.5-.3-.5-.3 0-.2.3-.4.5-.1.5-.2.9-.3 1.4-.5 1.8-1.6 3.4-3.4 4.2-.6.3-1.2.4-1.9.2-.5-.1-.9-.3-1.2-.6-.3-.1-1.1-.7-1.1-.7-.2-.1-.4-.3-.6-.5-1.5-1.8-2.5-3.9-3.5-6-.3-.6-.5-1.3-.9-2-.1-.2-.2-.2-.4-.2-.2.1-.1.2-.1.4 0 .6.1 1.2.2 1.8.3 2.3.5 4.6.1 7-.4 2.2-1.6 3.8-3.5 4.9-.3.1-.5.3-.9.3-.9 0-1.7-.3-2.3-.8-.9-.6-1.6-1.2-2.4-1.9-.2-.2-.4-.4-.6-.2-.2.1 0 .4 0 .6.3.8.6 1.5.8 2.3.4 1.5.5 3 0 4.5-.3.8-.9 1.4-1.5 2-.9.9-2 1.6-3.4 1.3-.2 0-.4-.1-.5.1-.1.2 0 .4.2.5l.3.3c.5.5 1 1 1.4 1.5 1.3 1.3 2.4 2.9 3.3 4.6 1 1.4 2.7 4.8 2.2 5.3-.2.4-.2.6-.2.8-.2.8.4 1.8 1.2 2.1 1.4.4 2.9.2 4.3-.1 2.1-.5 4.1-1 6.1-1.7 1.5-.5 3-1 4.5-1.7 1.2-.5 6.5-2.8 8.1-3.5 1.4-.6 2.8-1.4 4.1-2.3l1.8-11.1c-.1-1.1-.1-2.3-.2-3.5-.2-1.8-.2-3.7.2-5.5zM3.4 26.8c-.3 0-.6.1-.6.5s.3.5.6.5c.4 0 .5-.2.5-.6 0-.3-.3-.4-.5-.4zm41.2-14.2c.2-.1.3-.3.2-.6-.1-.2-.2-.2-.4-.2-.3 0-.4.2-.3.4.1.3.3.4.5.4z"/><path d="M16.2 16.1c.2-.3.2-1.2-.1-1.4-.3-.1-.7.1-.8.4-.1.4.2.7.5 1.1.9 1.1 1.3 2.6 1 3.9-.1.3-.2.7-.5.9-.4.2-.8.1-1.2 0-2-.8-3.7-2.4-4.4-4.4-.1-.4-.3-.8-.7-.8-.4 0-.6.4-.6.8s.3.7.5 1c1.5 2.1 2.2 4.6 2.2 7.1 0 .3 0 .7-.3.9-.2.1-.4.2-.6.2-.9.1-1.9-.4-2.5-1.1-.3-.4-.5-.8-.9-1-.4-.2-1-.1-1.1.3-.1.4.3.7.7.9 1.3 1 1.9 2.8 1.4 4.4-1.6.5-3.5-.3-4.4-1.7-.3-.5-.8-1.3-1.3-1-.4.2-.4.8-.2 1.1.2.4.7.5 1.1.7 4 2 6.5 6 8.8 9.9.6 1 1.2 2.1 1.1 3.2 0 .6-.3 1.3-.2 1.9.1 1 1.1 1.8 2.1 2s2 0 3.1-.2c6.4-1.4 12.6-3.7 18.6-6.6 2.2-1.1 4.4-2.2 6.4-3.6 1.4-1 2.8-2.5 2.5-4.1-.2-.7-.6-1.4-1-2-.6-1.2-.7-2.6-.8-3.9-.3-4-.7-8.1.6-11.8.1-.4.3-.7.1-1.1-.1-.4-.6-.6-.9-.2-.1.1-.1.2-.1.4-.3 1.7-1.2 3.3-2.5 4.5-.2.2-.4.3-.7.3-.3 0-.6-.4-.7-.7-.4-1.1-.5-2.4 0-3.5.1-.4.3-.9 0-1.1-.3-.2-.7 0-.8.3-.1.3-.1.7-.1 1 0 1.2-.5 2.3-1.4 3-.2.2-.5.3-.7.2-.2-.1-.3-.2-.4-.4-1.2-2.3-1.8-4.9-1.7-7.5 0-.5-.1-1.2-.6-1.2-.6 0-.6.9-.5 1.4.5 2.3-.2 4.8-1.7 6.6-.1.2-.3.4-.5.4-.3.1-.6-.1-.9-.3-.9-.8-1.3-1.9-1.3-3.1 0-.2 0-.5-.1-.7-.1-.2-.3-.4-.5-.4s-.4.3-.4.5c0 .4.1.7.1 1.1.2 1.3-.2 2.7-1 3.7l-.1.1h-.2c-.3-.1-.5-.3-.8-.4-.1 0-.1-.1-.2-.1 0 0-1.6-2.1-1.8-2.3-.6-.9-1.1-1.7-1.6-2.7-.9-1.8-1.7-3.8-2.2-5.8-.2-.7-.3-1.5-.4-2.2-.1-.4-.1-.7-.3-1-.2-.3-.6-.4-.9-.3-.3.2-.3.6-.2 1s.4.6.6.9c.2.4.3.8.4 1.3.7 3.8.9 7.7.8 11.6 0 .3 0 .7-.2 1-.4.7-1.6.6-2.3.2-.7-.5-1.2-1.2-2-1.6-.2-.1-.5-.2-.7-.4-.2-.2-.2-.6.1-.7m3.8-12c-.4 0-.4-.4-.5-.6 0-.2.1-.3.4-.3.3 0 .6.2.6.5s-.2.4-.5.4zM9.9 17.1c-.2-.2-.4-.4-.3-.6l.9.5c-.2.2-.3.3-.6.1zm-2.4 7.5c-.5-.5-.7-.9.3-1.1.1.5.1.9-.3 1.1zm-4.2 3.2c-.3 0-.6-.1-.6-.5s.3-.5.6-.5.5.1.5.4c0 .3-.1.6-.5.6zm41.2-16c.2 0 .3 0 .4.2.1.3 0 .4-.2.6-.2 0-.4-.1-.5-.3-.1-.3 0-.4.3-.5z"/><path d="M43.8 20.9c-.1-1.8-.1-3.7.3-5.5.1-.4.1-.4.1-.9 0-.1 0-.7-.2-.7s-.1 0-.2.1c-.3.5-.6 1.1-.8 1.6-.6 1.2-1.6 2-2.8 2.5-.4.2-.7.1-1.1 0-1.1-.3-1.9-.9-2.5-1.8-.9-1.4-1.4-3-1.8-4.6 0-.2.1-.8-.2-.9-.3 0-.6 1.7-.7 2.2-.4 1.6-1.3 2.9-2.7 3.8-1.4.9-2.7 1-4.1-.2-.3-.1.1.2-.2 0-.2-.1-1-.8-1.1-1-1.5-1.8-2.5-3.9-3.5-6-.3-.6-.5-1.3-.9-2-.1-.2-.2-.2-.4-.2-.2.1-.1.2-.1.4 0 .7.1 1.3.1 1.9.3 2.3.5 4.6.1 7-.4 2.2-1.6 3.8-3.5 4.9-.3.1-.5.3-.9.3-.9 0-1.7-.3-2.3-.8-.9-.6-1.6-1.2-2.4-1.9-.2-.2-.4-.4-.6-.2-.2.1 0 .4 0 .6.3.8.6 1.5.8 2.3.4 1.5.5 3 0 4.5-.3.8-.9 1.4-1.5 2-.9.9-2 1.6-3.4 1.3-.2 0-.4-.1-.5.1-.1.2 0 .4.2.5l.3.3c.5.5 1 1 1.4 1.5 1.3 1.3 2.4 2.9 3.3 4.6.9 1.3 2.6 4.8 2.2 5.3-.2.2-.3.4-.4.6-.2.8.5 2 1.3 2.3 1.5.4 2.9.2 4.3-.1 2.1-.5 4.1-1.1 6.1-1.7 1.5-.5 3-1 4.5-1.6 1.1-.4 1.4-.5 3.3-1.4 1.8-.7 3-1.4 4.6-2.1 1.4-.6 2.8-1.4 4.1-2.3.9-.6 1.8-1.3 2.6-2.1 1.2-1.1 1.6-2.2.6-3.8-.2-.3-.6-.5-.6-.9-.4-1.4-.6-2.8-.7-4.3-.1-1.2-.1-2.4-.1-3.6zm-12.7 10c.2-.1.5-.2.7-.3 1.2-.6 2.5-1 3.8-1.3 1.5-.4 2.9-.7 4.3-1.3.5-.2.7-.5.6-1-.1-.4-.2-.8-.2-1.3 0-.3-.3-.6-.6-.5h-.9l-2.1.5c.6-.4 1.3-.5 2-.6 1-.4 2.2-.3 3.1-1.1 0 1.5.3 3 .7 4.4.1.3-.2.3-.3.3-1.2-.1-2.4.2-3.6.4-2 .2-4 .8-5.9 1.4-.2.1-.4.1-.6.2-.2.2-.5.3-.7.4-.3.2-.6.3-1 .5.1-.5.5-.5.7-.7zm-16 8.9c-.3-.6-.6-1.3-.9-1.9 1.4.5 1.4.5 2.6.3-.6.6-1.1 1.1-1.7 1.6zm28-9.6c1.1.4 1.3 1.1.5 1.9-1.2 1.3-2.7 2.1-4.2 3-1.5.9-3 1.7-4.6 2.5-1.8.9-3.7 1.6-5.6 2.4-2.7 1.1-5.5 2.1-8.3 2.8-1.1.3-2.1.5-3.2.6-.6 0-1.2 0-1.6-.5-.4-.5-.4-.9 0-1.4.8-1.2 2-2 3.1-2.8 1.5-1.1 3.2-2.1 5-2.9 1.7-.9 3.4-1.8 5.3-2.4 1-.6 2.2-.8 3.3-1.2 1.3-.4 2.6-.9 4-1.1" fill="#f8e91e"/><path class="st2" d="M10.3 15.9c-.4 0-.6.2-.7.5-.1.3.1.5.3.6.2.2.4 0 .6-.1.2-.3.1-.7-.2-1z"/><path d="M3.4 26.8c-.3 0-.6.1-.6.5s.3.5.6.5c.4 0 .5-.2.6-.6-.1-.3-.4-.4-.6-.4zm4.2-3.3c-.4.1-.6.1-.6.5s.3.5.6.5c.4 0 .5-.2.6-.6-.1-.3-.4-.4-.6-.4z" fill="#f4f403"/><path d="M19.6 2.1c-.2 0-.4.1-.4.3.1.3.1.6.5.6.2 0 .5-.2.5-.4 0-.3-.3-.5-.6-.5z" fill="#f5f50d"/><path d="M34.5 7.6c-.1-.1-.3-.2-.5-.1-.3.1-.2.4-.2.6.2.3.5.2.7.1.2-.2.2-.4 0-.6zm5.5 4.3c-.1-.1-.3-.2-.5-.1-.3.1-.2.4-.2.6.2.3.5.2.7.1.2-.2.2-.4 0-.6zm4.7-.1c-.1-.1-.3-.2-.5-.1s-.2.3-.2.5v.1c.2.2.3.6.6.5l.2-.3c.2-.3.2-.5-.1-.7z" fill="#f0f003"/><path d="M29.3 11.7c0-.2-.1-.3-.3-.4-.2 0-.4.1-.3.3 0 .2.1.4.3.3.1.1.2 0 .3-.2z" fill="#d5d51b"/><path d="M14.1 37.9c.3.7.6 1.3.9 1.9.6-.5 1.1-1 1.7-1.6-1.2.2-1.2.2-2.6-.3z" fill="#080804"/><path class="st0" d="M43 30.4c-.4-.1-.8-.1-1.3-.1-2.3.4-4.5.9-6.7 1.5-1.9.5-6.9 2.2-7.6 2.5-1.2.5-2.4 1-3.5 1.7-.3.3-.7.5-1.1.7-2.4 1.2-4.9 2.9-6.8 4.8-.2.4-.4.8-.1 1.2.6.2 1.4.1 2 .1.6 0 1.1-.3 1.6-.4 2.2-.4 4.4-.9 6.5-1.7 1.6-.6 3.3-1.2 4.9-1.9.7-.3 1.4-.6 2-.9 2.3-1.1 4.5-2.3 6.7-3.5 1.3-.7 2.6-1.5 3.5-2.8.6-.5.5-.8-.1-1.2z"/><path d="M42.9 30.1l-.8-.1c-1.9.2-3.8.7-5.7 1.1-1.4.3-2.7.7-4 1.1-1.1.4-2.2.6-3.3 1.2-1.8.6-3.6 1.5-5.3 2.4-1.7.8-3.4 1.7-5 2.9-1.1.8-2.3 1.6-3.1 2.8-.5.5-.5.9 0 1.4.4.5 1.1.6 1.6.5 1.1-.1 2.2-.3 3.2-.6 2.8-.7 5.6-1.7 8.3-2.8 1.9-.8 3.8-1.5 5.6-2.4 1.6-.8 3.1-1.6 4.6-2.4 1.5-.8 3.1-1.7 4.2-3.1.9-.9.8-1.6-.3-2zm.4 1.6c-.9 1.3-2.2 2-3.5 2.8-2.2 1.2-4.4 2.4-6.7 3.5-.7.3-1.3.6-2 .9-1.6.7-3.3 1.3-4.9 1.9-2.1.8-4.3 1.3-6.5 1.7-.6.1-1.1.4-1.6.4-.6 0-1.4.1-2-.1-.3-.4-.2-.8.1-1.2 1.9-2 4.4-3.6 6.8-4.8.4-.2.8-.4 1.1-.7 1.1-.7 2.3-1.2 3.5-1.7.6-.3 5.7-2 7.6-2.5 2.2-.6 4.4-1.1 6.7-1.5.4-.1.9 0 1.3.1.4.3.5.6.1 1.2zm-.8-3.2c-.5-1.5-.7-3-.7-4.5-.9.8-2.1.7-3.1 1.1-.7.1-1.4.2-2 .6.7-.2 2.8-.5 3.1-.5.4 0 .6.2.6.5 0 .5.1.9.2 1.3.1.5-.1.8-.6 1-1.4.5-2.9.9-4.3 1.3-1.3.3-2.6.7-3.8 1.3-.2.1-.5.2-.7.3-.3.2-.6.2-.8.6.4-.2.8-.4 1.1-.5 0-.2 9.5-2.7 10.7-2.3.1.1.3.1.3-.2z"/><path d="M41.7 30.3c-2.2.4-4.5.9-6.7 1.5-1.9.5-3.8 1.1-5.6 1.7-.7.3-1.3.5-2 .8-1.2.5-2.4 1-3.5 1.7-.3.3-.7.5-1.1.7-2.4 1.3-4.8 2.7-6.7 4.7-.3.4-.5.9-.1 1.4.7.2 1.3.1 2 .1.6 0 1.1-.3 1.6-.4 2.2-.4 4.4-.9 6.5-1.7 1.6-.6 3.3-1.2 4.9-1.9.7-.3 1.4-.6 2-.9 2.3-1.1 4.5-2.3 6.7-3.5 1.3-.7 2.6-1.5 3.5-2.8.4-.6.3-.9-.3-1.3-.4-.1-.8-.1-1.2-.1z" fill="#f0b322"/><path class="st2" d="M16.1 14.8c-.4 0-.6.2-.7.5-.1.3.1.5.3.6.2.2.2 0 .4-.2.2-.3.3-.6 0-.9z"/></svg>