<svg width="14" height="23" viewBox="0 0 14 23" fill="none" xmlns="http://www.w3.org/2000/svg"><path d="M.62 1.114v-.002c.394-.397.93-.62 1.49-.62h9.783A2.114 2.114 0 0114 2.6v18a2.1 2.1 0 01-.62 1.49 2.102 2.102 0 01-1.487.62H2.107a2.102 2.102 0 01-1.487-.62A2.102 2.102 0 010 20.6v-18a2.103 2.103 0 01.62-1.487zM7 21.278a.57.57 0 100-1.138.57.57 0 000 1.138zm-5.327-3.573c0 .76.617 1.377 1.377 1.377h7.902c.76 0 1.377-.617 1.377-1.377V4.29c0-.76-.616-1.377-1.377-1.377H3.048c-.76 0-1.377.617-1.377 1.377l.002 13.415z" fill="#B2C3FF"/></svg>