<svg id="Layer_1" xmlns="http://www.w3.org/2000/svg" viewBox="0 0 50 50"><style>.st0{fill:#ef7f0f}.st2{fill:#bc5e0f}.st8{fill:#333}</style><path class="st0" d="M7.7 20.1c-3.3-8.5.8-15.4 1-15.7l1-1.7 7.5 8.7-9.5 8.7z"/><path d="M10.4 19c-1.1-2.9-1.4-6-.7-9.2.2-.8.4-1.4.6-2l4.7 5.5-4.6 5.7z" fill="#d37b93"/><path class="st2" d="M42.4 20.1c3.4-8.5-.8-15.4-.9-15.7l-1-1.7-7.5 8.7 9.4 8.7"/><path d="M39.6 19c1.2-3 1.4-6.1.7-9.2-.2-.8-.4-1.4-.6-2L35 13.3l4.6 5.7" fill="#9d5b6e"/><path class="st0" d="M25 46.8c-2.7 0-4.2-1.9-5.7-3.9-.7-.9-1.4-1.8-2.3-2.7C14.3 37.4 2 29 1.9 28.9L0 27.7l1.8-1.2c2.1-1.4 3.5-3.7 5.1-6.2 1.6-2.7 3.3-5.4 6-7.6C16.1 10.2 20 9 25 9s8.9 1.2 12.1 3.7c2.7 2.2 4.4 4.9 6 7.6 1.5 2.5 3 4.9 5.1 6.2l1.8 1.2-1.8 1.2c-.1.1-12.4 8.5-15.2 11.3-.9.9-1.6 1.8-2.3 2.7-1.5 2-3 3.9-5.7 3.9"/><path d="M19.3 42.9c-.7-.9-1.4-1.8-2.3-2.7C14.3 37.4 2 29 1.9 28.9L0 27.7s8.1-2.5 15.3-2.5c7.6 0 6.7 15.2 6.5 20.5-.9-.7-1.6-1.7-2.5-2.8z" fill="#efc589"/><path id="nose" d="M25 47.3c-1.1 0-2.2-.9-2.5-1.3-.4-.4-1.3-1.4-1.3-2.6 0-.9.5-1.7 1.3-2 .6-.2 1.3-.3 2.5-.3s1.9.1 2.5.3c.9.4 1.3 1.1 1.3 2 0 1.2-.9 2.2-1.3 2.6-.3.4-1.3 1.3-2.5 1.3" fill="#211915"/><path d="M27.9 9.1s.1 0 0 0c.1 0 .1 0 0 0m-.2 0c.1 0 .1 0 0 0 .1 0 .1 0 0 0m-.1 0c.1 0 .1 0 0 0 .1 0 .1 0 0 0m-.3-.1c0 .1 0 0 0 0m-.2 0c.1 0 .1 0 0 0 .1 0 .1 0 0 0M27 9c.1 0 0 0 0 0m-.7 0c.1 0 .1 0 0 0 .1 0 .1 0 0 0m-.2 0s.1 0 0 0c.1 0 0 0 0 0M26 9s.1 0 0 0m-.1 0c.1 0 .1 0 0 0 .1 0 .1 0 0 0m-.2 0c.1 0 .1 0 0 0 .1 0 0 0 0 0m-.1 0s.1 0 0 0m-.1 0c.1 0 .1 0 0 0 .1 0 .1 0 0 0m-.2 0c.1 0 0 0 0 0m-.2 0s.1 0 0 0c.1 0 0 0 0 0M25 9c.1 0 .1 0 0 0 .1 0 .1 0 0 0m15.4-6.3l1 1.7-1-1.7" fill="#bdbdbf"/><path class="st2" d="M28.2 45.3c-.2.3-.4.5-.6.7l-.2.2c.3-.1.6-.3.8-.5v-.4M25 9v32.2c1.2 0 1.9.1 2.5.3.2.1.4.2.5.3-.1-6.6.4-16.5 6.6-16.5 7.2 0 15.3 2.5 15.3 2.5L48.1 29l1.8-1.2-1.8-1.2c-2.1-1.4-3.5-3.7-5.1-6.2-.2-.3-.4-.6-.5-.9-.7-1.1-1.4-2.2-2.1-3.2-.9-1.3-2-2.5-3.3-3.5-.3-.2-.6-.5-.9-.7-.8-.6-1.7-1-2.6-1.4-1.4-.6-3-1.1-4.7-1.3C25.1 9 25.1 9 25 9"/><path d="M34.7 25.2c-6.2 0-6.7 9.9-6.6 16.5.5.4.8 1 .8 1.7s-.3 1.4-.7 1.9v.4c1-.7 1.7-1.8 2.5-2.8.7-.9 1.4-1.8 2.3-2.7 2.8-2.8 15.1-11.2 15.2-11.3l1.8-1.2s-8.1-2.5-15.3-2.5" fill="#b19267"/><path class="st8" d="M16.4 30c0-.9-.8-1.7-1.7-1.7S13 29.1 13 30s.8 1.7 1.7 1.7c.9 0 1.7-.8 1.7-1.7zm21.1 0c0-.9-.8-1.7-1.7-1.7s-1.7.8-1.7 1.7.8 1.7 1.7 1.7 1.7-.8 1.7-1.7z" id="eyes"/></svg>