<svg xmlns="http://www.w3.org/2000/svg" viewBox="0 0 120 120"><path fill="rgba(255,255,255, .7)" d="M86.9 72.9V47.1c0-.9-.6-1.9-1.4-2.4l-24-13.9c-.8-.5-1.9-.5-2.8 0L34.6 44.7c-.8.5-1.5 1.4-1.5 2.4v25.8c0 .9.7 1.9 1.5 2.4l24.1 13.9c.4.2.9.4 1.4.4.5 0 1-.1 1.4-.4l24-13.9c.9-.5 1.4-1.5 1.4-2.4zm-63.2.2V47.2c0-1-.5-1.9-1.3-2.4L6.2 36.1c-.4-.2-.7-.3-1.1-.3-1.3 0-2.2 1-2.2 2.3v44.2c0 1.3 1 2.3 2.3 2.3.4 0 .8-.1 1.1-.3l16.1-8.8c.8-.5 1.3-1.4 1.3-2.4zm42.6-50.5l24.1 13.9c.4.2.9.4 1.4.4.5 0 .9-.1 1.3-.3l16.1-8.7c.8-.4 1.2-1.1 1.2-2 0-.8-.4-1.6-1.2-2L68.3.3c-.4-.2-.8-.3-1.2-.3-1.3 0-2.2 1-2.2 2.3v18c0 .9.5 1.9 1.4 2.3zm-55.2 5.3l16.1 8.7c.4.2.8.3 1.3.3s1-.1 1.4-.4l24-13.9c.8-.5 1.2-1.4 1.2-2.4v-18C55.1 1 54.3 0 53 0c-.4 0-.7.1-1.1.3L11 24c-.7.4-1.2 1.2-1.1 2s.5 1.5 1.2 1.9zM115 35.8c-.4 0-.7.1-1.1.3l-16.2 8.8c-.9.5-1.4 1.4-1.4 2.4v25.9c0 1 .6 1.9 1.5 2.4l16.2 8.7c.4.2.8.3 1.1.3.7 0 1.2-.3 1.6-.8.3-.4.4-.9.4-1.5V38.1c0-1.3-.8-2.3-2.1-2.3zM53.9 97.4L30.1 83.6c-.8-.5-1.9-.5-2.7 0l-16.1 8.7c-.8.4-1.2 1.1-1.2 2 0 .8.4 1.6 1.2 2L52 119.7c.4.2.8.3 1.2.3.7 0 1.2-.3 1.6-.8.3-.4.4-.9.4-1.5v-18c-.1-.9-.5-1.9-1.3-2.3zm55-5.1l-16.1-8.7c-.8-.4-1.9-.4-2.7 0L66.3 97.4c-.8.5-1.4 1.4-1.4 2.4v18c0 1.3 1 2.3 2.2 2.3.4 0 .8-.1 1.2-.3l40.6-23.5c.7-.4 1.2-1.2 1.2-2 0-.9-.5-1.6-1.2-2z"/></svg>