<svg id="Layer_1" xmlns="http://www.w3.org/2000/svg" viewBox="0 0 50 50"><style>.st0{fill:#d19c00}</style><path class="st0" d="M1.2 40.4c-.1 0-.2-.1-.3-.1-.6-.5-1.3-1.8-.2-2.2.6-.2 1.6.2 2.2.4 3.3.8 6.5 1.4 9.9 1.9 5 .7 10.1 1 15.2.8 7.5-.2 14.9-1.4 22.1-3.4 0 .6 0 1.3-.3 1.8s-.9 1-1.5.8c-.5-.2-.9-.7-1.4-.6-.9.1-.6 1.7-1.4 2.1-.9.5-2-1.2-2.9-.7-.6.4-.5 1.5-1.2 1.8-.9.4-1.6-1.3-2.6-1-.9.2-.9 2-1.8 2-.8 0-1.1-1.2-1.8-1.2-1-.1-1.1 1.7-2.1 1.8-.9.1-1.3-1.4-2.2-1.4-.9.1-1.1 1.8-2 1.8-.9 0-1.2-1.6-2.1-1.5-.9 0-1.1 1.5-1.9 1.5-.9 0-1.1-1.5-1.9-1.6-.9 0-1.2 1.4-2 1.4-.7 0-.9-.9-1.5-1.3-.4-.3-1-.2-1.5.1s-.8.7-1.1 1.1l-1.8-2.1c-.6.4-1.2.8-1.8 1.1-.1.1-.3.2-.4.2-.5 0-.6-.7-.8-1.1-.3-.6-1-.7-1.6-.6-.3 0-1.9.8-1.8 1.1-.2-.7-.7-1.7-1.4-2-.8-.4-1.2.3-1.8.6-1.3.6-1.1-2.3-2.9-1.8-.8 0-1 .4-1.4.3z"/><path class="st0" d="M46.6 33.1c1.3.4 2.5 1.1 3.1 2.1.7 1.1-.2 1.8-1.2 2.1-3.5 1.1-7.1 1.9-10.7 2.3-.8.1-1.8.7-2.5.1-.4-.3-.5-1-.5-1.5-.1-1.7-.4-3.3-.8-4.9-.1-.6-.6-1.7.2-2.1.2-.1.5-.1.8-.1 2.5.3 5.2.5 7.8 1 1.1.3 2.5.6 3.8 1zm-38-1.4c2.6-.5 7.6-1.3 7.5.1l-1.2 7.5c0 .1 0 .3-.1.4-.9 1-3.9-.2-5-.4-2.7-.6-5.5-1.3-8.2-2-1.7-.5-2.1-2-.6-3.1 1.8-1.3 4.1-1.7 6.3-2.1.1-.2.6-.3 1.3-.4zM28.9 9.3c3.5 5 3.7 16.3 4.5 23.8-2.3 5-16.7 1.9-16.7 1.8-.4-1.1 0-2.9.2-4.1.8-6.8.8-15.2 3.5-20.5 2.1-4.2 5.9-4.6 8.5-1zM17.6 47.8c-2.4-.2-4.8-.6-7.2-1.2-3.5-.9-6.9-2.4-9.1-5.4l.9-.6c1.2-.5 1.2.7 1.6 1.4.9 1.8 2.7-1 3.4-.4.1.1.1.1.1.2.2.5.3 1.3.7 1.7 1.1.8 1.8-1.1 2.9-.8 1 .3.5 2 1.7 1.9.8 0 1.4-1 2-1.4 0 0 .1-.1.2 0 .1 0 .1.1.1.1.8 1.2 1.2 2.2 2.7 1.3.8-.5 1.6-1.2 2.2.1.1.3.3.6.5.8.8.5 1.4-.8 1.9-1.1.8-.6 1.4.3 2 .8 1.1 1 1.4-.2 2.3-.8.9-.6 1.3.8 2 1.1.8.4 1.1-.4 1.5-.9 1-1.4 1.5-.2 2.4.4 1.6 1 1.4-1.4 2.5-1.6.8-.2 1.2.9 1.9 1.2 1.2.5 1-1.4 1.8-1.8 1.1-.6 2.3 2.1 3.2.5.6-1 .7-2.1 2.1-1.2.6.4 1.3.6 1.8.1.5-.4.7-2 1.6-1.9.2 0 .3.1.4.2.7.7.2 1.8-.4 2.4-2.2 2.4-6 3.4-9.1 4-3.2.7-6.4.8-9.6.9-3.6.2-7.3.3-11 0z"/><path class="st0" d="M15.8 38.4c.1-.4.3-.8.4-1.2-.1.6.8 1.9 1.5 1.9.9 0 1-1.5 1.8-1.7.9-.2.9 2 1.7 2 .7 0 1.3-1 1.7-1.6.1-.1.3-.1.4 0 .4.6 1.4 1.7 1.6 1.8.8 0 1.2-1 1.6-1.7.1-.1.2-.1.3 0 .4.6 1.6 1.6 1.9 1.5.8-.2.7-1.3 1.2-1.8.8-.8 1.6 1.2 2.2 1.4.5.2.8-.3 1-.7.1-.1.7-1 .6-1.1.1.1.1.2.1.4.1.4.6 2.4 0 2.4-2.6.1-5.2.4-7.8.4-1.5 0-3.1-.1-4.6-.1-1.4-.1-2.7 0-4-.2-1-.3-1.9-.6-1.6-1.7zm15 .5c-.1-.1-.1-.3-.3-.3-.1 0-.3.1-.2.3 0 .1.1.2.3.2.1.1.2-.1.2-.2zm-4.2 0c0 .2.1.3.3.3.1 0 .2-.1.2-.3 0-.2-.1-.3-.3-.3-.1 0-.2.1-.2.3zm-3.4-.3c-.1 0-.3.1-.2.3 0 .2.1.3.3.3.1 0 .2-.1.2-.3-.1-.2-.2-.3-.3-.3zm-3.7.4c.2 0 .3-.1.2-.3 0-.2-.1-.2-.2-.2-.2 0-.3.1-.3.3 0 .1.1.2.3.2z"/><path class="st0" d="M31.9 35.8c-.8.1-1.6.1-2.4.2-1.8.1-3.6.2-5.3.2-1.2 0-2.4 0-3.5-.1s-2.2-.3-3.3-.5h-.6c-.1 0-.2.1-.3.1-.1.1-.1.1-.1.2v.4c.1.2 1.2 2.4 1.3 2.3.6-.5 1-1.4 1.7-1.7.4-.1.5.2.7.4.3.5.6.9 1 1.4.1.2.3.2.5 0 .4-.5.9-1 1.3-1.5.6-.8 1.6 1.1 1.9 1.5.5.7 1.5-1.3 1.9-1.5.4-.2.8.1 1.1.4.2.3.5 1.2 1.1 1.1.3-.1.4-.7.6-.9.2-.3.4-.7.8-.9 1.1-.5 1.9 2.6 2.9.9.3-.5.5-.9.7-1.5.1-1-1.5-.6-2-.5zM17.8 37c-.2 0-.3-.1-.3-.3 0-.1 0-.2.1-.2.1-.1.2-.1.3 0 .1 0 .1.1.1.2 0 .2-.1.3-.2.3zm3.9.3c-.1.1-.2.1-.3 0-.1 0-.1-.1-.1-.2 0-.2.1-.3.3-.3.2 0 .3.1.3.3-.1.1-.1.2-.2.2zm3.2.1c-.1 0-.2-.1-.2-.3 0-.2.1-.3.3-.3.2 0 .3.1.3.3-.1.2-.2.3-.4.3zm3.9-.2c0 .1-.1.2-.3.2-.1 0-.2-.1-.3-.2 0-.2.1-.3.3-.3.1 0 .2.1.3.2v.1zm3.4 0c-.3 0-.3-.5 0-.5s.3.5 0 .5z"/></svg>