<svg width="26" height="26" viewBox="0 0 26 26" fill="none" xmlns="http://www.w3.org/2000/svg"><path d="M8.668 13a4.333 4.333 0 118.666 0 4.333 4.333 0 01-8.666 0zm-2.343 0a6.675 6.675 0 1013.35 0 6.675 6.675 0 00-13.35 0zM18.38 6.06a1.56 1.56 0 101.561-1.56 1.56 1.56 0 00-1.56 1.56zM7.748 23.582c-1.267-.058-1.956-.27-2.414-.448a4.04 4.04 0 01-1.495-.972 4.01 4.01 0 01-.973-1.494c-.178-.458-.39-1.147-.447-2.414-.063-1.37-.076-1.782-.076-5.254 0-3.472.014-3.882.076-5.253.058-1.268.27-1.956.447-2.415a4.04 4.04 0 01.973-1.495 4.007 4.007 0 011.495-.972c.458-.179 1.147-.39 2.414-.448 1.37-.063 1.782-.075 5.253-.075 3.47 0 3.882.014 5.253.075 1.268.058 1.956.27 2.415.448.607.235 1.04.517 1.495.972.455.455.736.888.972 1.495.179.458.39 1.147.448 2.415.063 1.371.075 1.781.075 5.253 0 3.472-.012 3.882-.075 5.254-.058 1.267-.27 1.956-.448 2.414a4.028 4.028 0 01-.972 1.494 4.04 4.04 0 01-1.495.973c-.458.178-1.147.39-2.415.447-1.37.063-1.782.075-5.254.075-3.471 0-3.882-.012-5.252-.075zM7.641.079C6.257.142 5.31.36 4.485.683a6.377 6.377 0 00-2.303 1.499 6.352 6.352 0 00-1.5 2.303C.363 5.31.143 6.256.08 7.64.015 9.026 0 9.47 0 13c0 3.53.015 3.974.079 5.36.063 1.384.282 2.329.604 3.155.331.855.776 1.58 1.5 2.303a6.393 6.393 0 002.302 1.5c.828.32 1.772.54 3.156.603C9.028 25.984 9.47 26 13 26c3.53 0 3.973-.015 5.36-.079 1.383-.063 2.328-.282 3.155-.604a6.392 6.392 0 002.303-1.499 6.37 6.37 0 001.5-2.303c.32-.826.541-1.771.603-3.155.063-1.387.078-1.83.078-5.36 0-3.53-.015-3.974-.078-5.36-.063-1.384-.282-2.33-.604-3.155a6.395 6.395 0 00-1.5-2.303 6.361 6.361 0 00-2.301-1.5c-.828-.32-1.773-.541-3.156-.603C16.975.016 16.532 0 13.001 0c-3.53 0-3.973.015-5.36.079z" fill="#B3C3FF"/></svg>