<?xml version="1.0" encoding="utf-8"?>
<!-- Generator: Adobe Illustrator 19.2.1, SVG Export Plug-In . SVG Version: 6.00 Build 0)  -->
<svg version="1.1"
	 id="svg2" xmlns:cc="http://creativecommons.org/ns#" xmlns:dc="http://purl.org/dc/elements/1.1/" xmlns:rdf="http://www.w3.org/1999/02/22-rdf-syntax-ns#" xmlns:svg="http://www.w3.org/2000/svg"
	 xmlns="http://www.w3.org/2000/svg" xmlns:xlink="http://www.w3.org/1999/xlink" x="0px" y="0px" viewBox="0 0 238 116"
	 style="enable-background:new 0 0 238 116;" xml:space="preserve">
<style type="text/css">
	.st0{clip-path:url(#SVGID_2_);}
	.st1{fill:#2B2B2B;}
	.st2{fill:#CA262B;}
	.st3{fill:#89A8A3;}
	.st4{fill:#B51C27;}
	.st5{fill:#FFFFFF;}
	.st6{fill:#B8242A;}
	.st7{fill:#C0DDD8;}
	.st8{clip-path:url(#SVGID_4_);}
	.st9{clip-path:url(#SVGID_6_);}
	.st10{filter:url(#Adobe_OpacityMaskFilter);}
	.st11{clip-path:url(#SVGID_8_);fill:url(#path252_1_);}
	.st12{mask:url(#mask250);}
	.st13{fill:url(#path274_1_);}
	.st14{clip-path:url(#SVGID_10_);}
	.st15{clip-path:url(#SVGID_12_);}
	.st16{filter:url(#Adobe_OpacityMaskFilter_1_);}
	.st17{clip-path:url(#SVGID_14_);fill:url(#path318_1_);}
	.st18{mask:url(#mask316);}
	.st19{fill:url(#path340_1_);}
</style>
<g id="g12">
	<g>
		<defs>
			<rect id="SVGID_1_" x="0" y="35.1" width="238" height="45.8"/>
		</defs>
		<clipPath id="SVGID_2_">
			<use xlink:href="#SVGID_1_"  style="overflow:visible;"/>
		</clipPath>
		<g id="g14" class="st0">
			<g id="g24" transform="translate(113.5273,14.9658)">
				<path id="path26" class="st1" d="M16.3,48.8h6.9l-3.5-17.9L16.3,48.8z M15.8,51.8L14.7,58h-3.2l5.9-31h5l5.9,31h-3.5l-1.2-6.2
					H15.8z"/>
			</g>
			<g id="g28" transform="translate(136.3633,6.9687)">
				<path id="path30" class="st1" d="M19.6,66h-3.3l-5.1-24.7V66h-3V35H13l5.1,24.8L23,35h4.8v31h-3.3V41.1L19.6,66z"/>
			</g>
			<g id="g32" transform="translate(152.8232,9.6729)">
				<path id="path34" class="st1" d="M22,60.2c2.5,0,3.7-1.3,3.7-4.2v-2.7c0-3.5-1.4-4.6-4.3-4.6h-3v11.6H22z M21,45.5
					c2.7,0,4.2-0.9,4.2-4.1v-1.8c0-2.7-0.9-4.1-3.4-4.1h-3.4v10H21z M21.9,32.3c4.8,0,6.7,2.3,6.7,6.9v1.5c0,3.3-0.9,5.3-3.6,6.2
					c3,0.8,4.2,3.2,4.2,6.6V56c0,4.7-2.3,7.3-7.1,7.3h-7.1v-31H21.9z"/>
			</g>
			<g id="g36" transform="translate(161.75,6.9297)">
				<path id="path38" class="st1" d="M23.3,66.1v-31h3.5v27.9h8.9v3.1H23.3z"/>
			</g>
			<g id="g40" transform="translate(184.3926,21.9976)">
				<path id="path42" class="st1" d="M26.7,33.7v3.1h-7.6v11h9.3V51H15.6V20h12.8v3.1h-9.3v10.6H26.7z"/>
			</g>
			<g id="g44" transform="translate(193.9365,21.2246)">
				<path id="path46" class="st1" d="M28,35.4c2.7,0,4.4-0.9,4.4-4.3v-3c0-2.8-1-4.3-3.6-4.3h-3.4v11.5H28z M28.9,20.8
					c4.9,0,6.9,2.5,6.9,7.1v2.5c0,3.4-1.2,5.5-3.9,6.4c2.8,0.8,3.9,3.1,3.9,6.5V48c0,1.4,0,2.7,0.6,3.7H33c-0.4-0.9-0.6-1.7-0.6-3.8
					v-4.9c0-3.5-1.6-4.6-4.5-4.6h-2.4v13.2H22v-31H28.9z"/>
			</g>
		</g>
	</g>
</g>
<g id="g48" transform="translate(11.1177,14.7197)">
	<path id="path50" class="st2" d="M1.6,49.3h6.9L5,31.5L1.6,49.3z M1.2,52.3L0,58.5h-3.2l5.9-30.9h5l5.9,30.9h-3.4L9,52.3H1.2z"/>
</g>
<g id="g52" transform="translate(33.2192,21.1333)">
	<path id="path54" class="st2" d="M4.8,35.6v3.1h-7.1v13.4h-3.4V21.2H6.5v3.1h-8.8v11.3H4.8z"/>
</g>
<g id="g56" transform="translate(46.3569,21.1333)">
	<path id="path58" class="st2" d="M6.7,35.6v3.1h-7.1v13.4h-3.4V21.2H8.4v3.1h-8.8v11.3H6.7z"/>
</g>
<g>
	<g>
		<g>
			<g id="g80" transform="translate(83.7852,20.1668)">
				<path id="path82" class="st3" d="M12.1,37.6c-0.1,0.2-0.2,0.3-0.3,0.5c-0.1,0.2-0.2,0.3-0.3,0.5c-0.1,0.2-0.2,0.3-0.4,0.5
					s-0.2,0.3-0.4,0.5c0,0,0,0.1-0.1,0.1c0,0,0,0-0.1,0.1c0,0,0,0-0.1,0.1c0,0,0,0,0,0c0,0,0,0,0,0c0,0,0,0,0,0c0,0,0,0,0,0
					c0,0,0,0,0,0c0,0,0,0,0,0c0,0,0,0,0,0c0,0,0,0,0,0c0,0,0,0,0,0c0,0,0,0,0,0c0,0,0,0,0,0c0,0,0,0,0,0c0,0,0,0,0,0c0,0,0,0,0,0
					c0,0,0,0,0,0c0,0,0,0,0,0c0,0,0,0,0,0c0,0,0,0,0,0c0,0,0,0,0,0c0,0,0,0,0,0c0,0,0,0,0,0c0,0,0,0,0,0c0,0,0,0,0,0c0,0,0,0,0,0
					c0,0,0,0,0,0c0,0,0,0,0,0c0,0,0,0,0,0c0,0,0,0,0,0c0,0,0,0,0,0c0,0,0,0,0,0c-0.1,0.2-0.3,0.3-0.4,0.5c-0.1,0.2-0.3,0.3-0.4,0.5
					c0,0,0,0,0,0c-0.2,0.2-0.3,0.3-0.5,0.5c0,0,0,0,0,0c-0.2,0.1-0.3,0.3-0.5,0.4v0c0,0,0,0-0.1,0.1c0.6,1.3,1.1,2.6,1.7,4
					c0.1-0.1,0.2-0.2,0.3-0.3c0.1-0.1,0.1-0.1,0.2-0.2c0,0,0,0,0,0c0,0,0,0,0,0c0,0,0.1-0.1,0.1-0.1c0.1-0.1,0.2-0.2,0.3-0.3
					c0,0,0,0,0,0c0,0,0,0,0,0c0,0,0,0,0,0c0.1-0.1,0.2-0.2,0.3-0.3c0,0,0,0,0,0c0-0.1,0.1-0.1,0.1-0.2c0.1-0.1,0.1-0.1,0.2-0.2l0,0
					c0,0,0,0,0,0c0,0,0,0,0,0c0,0,0,0,0,0c0,0,0,0,0,0l0,0c0.1-0.1,0.1-0.1,0.2-0.2c0,0,0,0,0,0s0,0,0,0c0,0,0,0,0,0s0,0,0,0
					c0,0,0,0,0,0c0,0,0,0,0,0c0,0,0,0,0,0c0,0,0,0,0,0c0,0,0,0,0,0c0,0,0,0,0,0c0,0,0,0,0,0c0,0,0,0,0,0c0,0,0,0,0,0c0,0,0,0,0,0
					c0,0,0,0,0,0c0,0,0,0,0,0c0,0,0,0,0,0c0,0,0,0,0,0c0,0,0,0,0,0c0,0,0,0,0,0c0,0,0,0,0,0c0,0,0,0,0,0c0,0,0,0,0,0c0,0,0,0,0,0
					c0,0,0,0,0,0c0,0,0,0,0,0c0,0,0,0,0,0c0,0,0,0,0,0c0,0,0,0,0,0v0c0,0,0,0,0,0c0,0,0,0,0,0c0,0,0,0,0,0l0,0c0,0,0,0,0,0
					c0,0,0,0,0,0c0,0,0,0,0,0c0,0,0,0,0,0c0,0,0,0,0.1-0.1c0,0,0,0,0.1-0.1l0,0c0,0,0,0,0,0c0.1-0.2,0.2-0.3,0.4-0.5
					c0.1-0.2,0.2-0.3,0.3-0.5c0.1-0.2,0.2-0.3,0.3-0.5c0.1-0.2,0.2-0.3,0.3-0.5L12.1,37.6z"/>
			</g>
			<g id="g84" transform="translate(57.8243,11.3858)">
				<path id="path86" class="st3" d="M8.3,56.5c-0.1-0.1-0.3-0.2-0.4-0.2c-0.1-0.1-0.3-0.2-0.4-0.2c-0.1-0.1-0.3-0.2-0.4-0.3
					c-0.1-0.1-0.2-0.2-0.4-0.3c0,0,0,0,0,0c0,0,0,0,0,0c0,0,0,0,0,0c0,0,0,0,0,0c0,0,0,0-0.1,0c0,0,0,0-0.1,0c0,0,0,0-0.1,0
					c0,0,0,0-0.1,0c0,0,0,0,0,0c0,0,0,0,0,0s0,0,0,0s0,0,0,0c0,0,0,0,0,0c0,0,0,0,0,0c0,0,0,0,0,0c0,0,0,0,0,0c0,0,0,0,0,0
					c0,0,0,0,0,0c0,0,0,0,0,0c0,0,0,0,0,0c0,0,0,0,0,0c0,0,0,0,0,0c0,0,0,0,0,0c0,0,0,0,0,0l0,0l0,0c0,0,0,0,0,0c0,0,0,0,0,0
					c0,0,0,0,0,0c0,0,0,0,0,0l0,0c-0.1-0.1-0.2-0.2-0.3-0.3c-0.1-0.1-0.1-0.1-0.2-0.2c0,0-0.1-0.1-0.1-0.1c-0.1-0.1-0.1-0.1-0.2-0.2
					c0,0,0-0.1-0.1-0.1c-0.1-0.1-0.2-0.2-0.2-0.3c0,0-0.1-0.1-0.1-0.1c-0.1-0.1-0.2-0.2-0.2-0.3l2.1,3.3c0.1,0.1,0.2,0.2,0.2,0.4
					c0,0,0.1,0.1,0.1,0.1l0,0c0.1,0.1,0.1,0.1,0.2,0.2c0,0,0.1,0.1,0.1,0.1c0,0,0,0,0,0c0,0,0,0,0,0.1c0,0.1,0.1,0.1,0.1,0.2
					c0,0,0,0,0.1,0.1c0,0,0,0,0,0c0,0,0.1,0.1,0.1,0.1c0,0,0.1,0.1,0.1,0.1c0,0,0,0,0,0c0,0,0,0,0,0c0,0,0,0,0,0c0,0,0,0,0,0
					c0,0,0,0,0,0c0,0,0,0,0,0c0,0,0,0,0,0c0,0,0,0,0,0l0,0c0,0,0,0,0,0c0,0,0,0,0,0h0l0,0h0c0,0,0,0,0,0c0,0,0,0,0,0c0,0,0,0,0,0
					c0,0,0,0,0,0l0,0c0,0,0,0,0,0l0,0c0,0,0,0,0,0c0,0,0,0,0,0c0,0,0,0,0,0c0,0,0,0,0,0v0c0,0,0,0,0,0c0,0,0,0,0,0c0,0,0,0,0,0
					c0,0,0,0,0,0c0,0,0,0,0,0l0,0l0,0c0,0,0,0,0,0c0,0,0,0,0,0c0,0,0,0,0,0c0,0,0,0,0,0c0,0,0,0,0,0c0,0,0,0,0,0s0,0,0,0s0,0,0,0
					c0,0,0,0,0,0c0,0,0,0,0,0c0,0,0,0,0,0c0,0,0,0,0,0c0,0,0,0,0,0c0,0,0,0,0,0c0,0,0,0,0,0c0,0,0,0,0,0c0,0,0,0,0.1,0
					c0,0,0,0,0.1,0c0,0,0,0,0.1,0c0,0,0,0,0.1,0c0,0,0,0,0,0c0,0,0,0,0,0c0,0,0,0,0,0s0,0,0,0c0.1,0.1,0.2,0.2,0.4,0.3
					c0.1,0.1,0.3,0.2,0.4,0.3c0.1,0.1,0.3,0.2,0.4,0.3c0.1,0.1,0.3,0.2,0.4,0.2L8.3,56.5z"/>
			</g>
			<g id="g100" transform="translate(76.6571,20.4735)">
				<path id="path102" class="st4" d="M11.1,37l-0.2-0.1L10.8,37c0,0-0.1,0.1-0.1,0.1c0,0-0.1,0.1-0.1,0.1c0,0-0.1,0.1-0.1,0.1
					c0,0-0.1,0.1-0.1,0.1l-0.1,0.1l0.2,0.1l0.1-0.1c0,0,0.1-0.1,0.1-0.1c0,0,0.1-0.1,0.1-0.1c0,0,0.1-0.1,0.1-0.1
					C10.9,37.2,10.9,37.1,11.1,37L11.1,37 M-6.5,29.8L-6.5,29.8l0.1,0.1l0.1-0.1c0,0,0.1-0.1,0.1-0.1c0,0,0.1-0.1,0.1-0.1
					c0,0,0.1-0.1,0.1-0.1c0,0,0.1-0.1,0.1-0.1l0.1-0.1L-6,29.3l-0.1,0.1c0,0-0.1,0.1-0.1,0.1c0,0-0.1,0.1-0.1,0.1
					C-6.3,29.6-6.3,29.7-6.5,29.8C-6.4,29.7-6.4,29.8-6.5,29.8 M-7.5,40.8L-7.5,40.8l0.2-0.1l-0.1-0.1c0,0-0.1,0-0.1-0.1
					c0,0-0.1,0-0.1-0.1c0,0-0.1-0.1-0.1-0.1c0,0-0.1-0.1-0.1-0.1l-0.1-0.1l-0.2,0.2l0.1,0.1c0,0,0.1,0.1,0.1,0.1s0.1,0.1,0.1,0.1
					C-7.6,40.7-7.6,40.7-7.5,40.8C-7.5,40.8-7.5,40.8-7.5,40.8 M-6.3,41.6L-6.3,41.6l0.2-0.1l-0.1,0c0,0-0.1,0-0.1-0.1
					s-0.1,0-0.1-0.1c0,0-0.1,0-0.1-0.1c0,0-0.1,0-0.1-0.1l-0.1,0l-0.2,0.2l0.1,0c0,0,0.1,0,0.1,0.1c0,0,0.1,0,0.1,0.1
					c0,0,0.1,0,0.1,0.1C-6.4,41.5-6.3,41.5-6.3,41.6 M-5.5,28.9l0.1,0.1l0.1-0.1c0,0,0.1-0.1,0.1-0.1c0,0,0.1-0.1,0.1-0.1
					c0,0,0.1-0.1,0.1-0.1c0,0,0.1-0.1,0.1-0.1l0.1-0.1l-0.1-0.1l-0.1,0.1c0,0-0.1,0.1-0.1,0.1c0,0-0.1,0.1-0.1,0.1
					c0,0-0.1,0.1-0.1,0.1C-5.3,28.7-5.3,28.8-5.5,28.9L-5.5,28.9 M12.1,35.7L12.1,35.7L12,35.5l-0.1,0.1c0,0-0.1,0.1-0.1,0.1
					c0,0-0.1,0.1-0.1,0.1c0,0-0.1,0.1-0.1,0.1c0,0-0.1,0.1-0.1,0.1l-0.1,0.1l0.2,0.1l0.1-0.1c0,0,0.1-0.1,0.1-0.1
					c0,0,0.1-0.1,0.1-0.1c0,0,0.1-0.1,0.1-0.1C12.1,35.8,12.1,35.7,12.1,35.7 M10.4,25.6L10.4,25.6l-0.2,0.1l0.1,0
					c0,0,0.1,0,0.1,0.1c0,0,0.1,0,0.1,0.1c0,0,0.1,0,0.1,0.1c0,0,0.1,0,0.1,0.1l0.1,0l0.2-0.1l-0.1,0c0,0-0.1,0-0.1-0.1
					c0,0-0.1,0-0.1-0.1c0,0-0.1,0-0.1-0.1C10.4,25.6,10.4,25.6,10.4,25.6 M7.1,24.7L7,24.9l0.1,0c0,0,0.1,0,0.1,0c0,0,0.1,0,0.1,0
					c0,0,0.1,0,0.1,0c0,0,0.1,0,0.1,0l0.1,0l0.1-0.1l-0.1,0c0,0-0.1,0-0.1,0c0,0-0.1,0-0.1,0c0,0-0.1,0-0.1,0
					C7.3,24.8,7.2,24.8,7.1,24.7L7.1,24.7 M9.7,38.3l-0.2-0.1l-0.1,0.1c0,0-0.1,0.1-0.1,0.1c0,0-0.1,0.1-0.1,0.1
					c0,0-0.1,0.1-0.1,0.1c0,0-0.1,0.1-0.1,0.1l-0.1,0.1l0.2,0.1L9,38.8c0,0,0.1-0.1,0.1-0.1c0,0,0.1-0.1,0.1-0.1
					c0,0,0.1-0.1,0.1-0.1C9.5,38.5,9.5,38.4,9.7,38.3L9.7,38.3 M-7.4,30.8L-7.4,30.8L-7.4,30.8l0.1,0c0,0,0.1-0.1,0.1-0.1
					c0,0,0.1-0.1,0.1-0.1c0,0,0.1-0.1,0.1-0.1c0,0,0.1-0.1,0.1-0.1l0.1-0.1l-0.1,0l-0.1,0.1c0,0-0.1,0.1-0.1,0.1
					c0,0-0.1,0.1-0.1,0.1c0,0-0.1,0.1-0.1,0.1C-7.4,30.8-7.4,30.8-7.4,30.8 M-8.4,40L-8.4,40l0.2-0.1l-0.1-0.1c0,0,0-0.1-0.1-0.1
					c0,0,0-0.1-0.1-0.1c0,0,0-0.1-0.1-0.1c0,0,0-0.1-0.1-0.1l0-0.1l-0.2,0.1l0,0.1c0,0,0,0.1,0.1,0.1c0,0,0,0.1,0.1,0.1
					C-8.5,39.8-8.5,39.8-8.4,40C-8.5,39.9-8.4,39.9-8.4,40 M-4.7,41.9L-4.7,41.9c-0.1,0-0.2-0.1-0.2-0.1c0,0-0.1,0-0.1,0
					c0,0-0.1,0-0.1,0s-0.1,0-0.1,0l-0.1,0l-0.1,0.2l0.1,0c0,0,0.1,0,0.1,0c0,0,0.1,0,0.1,0c0,0,0.1,0,0.1,0c0,0,0.1,0,0.1,0l0.1,0
					L-4.7,41.9 M-4.3,27.9L-4.3,27.9l0.2,0c0,0,0.1-0.1,0.1-0.1c0,0,0.1-0.1,0.1-0.1c0,0,0.1-0.1,0.1-0.1c0,0,0.1-0.1,0.1-0.1
					l0.1-0.1l-0.1-0.1l-0.1,0.1c0,0-0.1,0.1-0.1,0.1s-0.1,0.1-0.1,0.1c0,0-0.1,0.1-0.1,0.1C-4.1,27.8-4.1,27.9-4.3,27.9L-4.3,27.9
					 M13,34.3L13,34.3l-0.2-0.1l0,0.1c0,0,0,0.1-0.1,0.1c0,0,0,0.1-0.1,0.1c0,0,0,0.1-0.1,0.1s-0.1,0.1-0.1,0.1l-0.1,0.1l0.2,0
					l0.1-0.1c0,0,0.1-0.1,0.1-0.1c0,0,0.1-0.1,0.1-0.1s0-0.1,0.1-0.1C12.9,34.4,13,34.3,13,34.3 M11.4,26.2L11.4,26.2l-0.2,0.1
					l0.1,0c0,0,0.1,0,0.1,0.1c0,0,0.1,0,0.1,0.1c0,0,0.1,0,0.1,0.1c0,0,0.1,0,0.1,0.1l0.1,0l0.2-0.1l-0.1,0c0,0-0.1,0-0.1-0.1
					c0,0-0.1,0-0.1-0.1S11.6,26.3,11.4,26.2C11.5,26.3,11.5,26.2,11.4,26.2 M8.5,25L8.5,25l-0.2,0.1l0.1,0c0,0,0.1,0,0.1,0
					c0,0,0.1,0,0.1,0c0,0,0.1,0,0.1,0c0,0,0.1,0,0.1,0l0.1,0l0,0c0,0,0.1,0,0.1,0c0,0,0.1,0,0.1,0c0,0,0.1,0,0.1,0c0,0,0.1,0,0.1,0
					l0.1,0l0.1-0.1l-0.1,0c0,0-0.1,0-0.1,0c0,0-0.1,0-0.1,0c0,0-0.1,0-0.1,0c0,0-0.1,0-0.1,0l0,0l-0.1,0c0,0-0.1,0-0.1,0
					c0,0-0.1,0-0.1,0c0,0-0.1,0-0.1,0C8.6,25,8.6,25,8.5,25 M5.7,24.7l-0.1,0.1h0.1c0,0,0.1,0,0.1,0c0,0,0.1,0,0.1,0
					c0,0,0.1,0,0.1,0c0,0,0.1,0,0.1,0l0.1,0l0.1-0.1l-0.1,0c0,0-0.1,0-0.1,0c0,0-0.1,0-0.1,0c0,0-0.1,0-0.1,0
					C5.9,24.7,5.8,24.7,5.7,24.7L5.7,24.7 M8.1,39.5l-0.1-0.1l-0.1,0.1c-0.1,0-0.1,0.1-0.2,0.1c-0.1,0-0.1,0.1-0.2,0.1
					c-0.1,0-0.1,0.1-0.2,0.1c-0.1,0-0.1,0.1-0.2,0.1l-0.1,0.1L7.2,40L7.3,40c0.1,0,0.1-0.1,0.2-0.1c0.1,0,0.1-0.1,0.2-0.1
					c0.1,0,0.1-0.1,0.2-0.1s0.1-0.1,0.2-0.1L8.1,39.5 M-8.3,32L-8.3,32l0.1,0.1l0-0.1c0,0,0-0.1,0.1-0.1c0,0,0-0.1,0.1-0.1
					c0,0,0-0.1,0.1-0.1c0,0,0-0.1,0.1-0.1l0-0.1l-0.2,0l0,0.1c0,0-0.1,0.1-0.1,0.1c0,0,0,0.1-0.1,0.1s0,0.1-0.1,0.1
					C-8.2,31.9-8.2,31.9-8.3,32 M-9.1,39L-9.1,39l0.2-0.1l0-0.1c0,0,0-0.1-0.1-0.1c0,0,0-0.1,0-0.1c0,0,0-0.1,0-0.1c0,0,0-0.1,0-0.1
					l0-0.1l-0.2,0.1l0,0.1c0,0,0,0.1,0,0.1c0,0,0,0.1,0,0.1C-9.2,38.8-9.2,38.8-9.1,39C-9.1,38.9-9.1,38.9-9.1,39 M-3.1,42.2l-0.1,0
					c-0.1,0-0.1,0-0.2,0c-0.1,0-0.1,0-0.2,0c-0.1,0-0.1,0-0.2,0c-0.1,0-0.1,0-0.2,0l-0.1,0L-4,42.3l0.1,0c0.1,0,0.1,0,0.2,0
					c0.1,0,0.1,0,0.2,0c0.1,0,0.1,0,0.2,0c0.1,0,0.1,0,0.2,0l0.1,0L-3.1,42.2 M-3,27.1L-3,27.1l0.2,0c0,0,0.1,0,0.1-0.1
					c0,0,0.1,0,0.1-0.1c0,0,0.1,0,0.1-0.1c0,0,0.1,0,0.1-0.1l0.1,0l-0.1-0.1l-0.1,0c0,0-0.1,0-0.1,0.1c0,0-0.1,0-0.1,0.1
					c0,0-0.1,0-0.1,0.1C-2.8,27-2.8,27.1-3,27.1L-3,27.1 M13.6,32.8L13.6,32.8l-0.2-0.1l0,0.1c0,0,0,0.1,0,0.1c0,0,0,0.1,0,0.1
					c0,0,0,0.1,0,0.1c0,0,0,0.1,0,0.1l0,0.1l0.2,0l0-0.1c0,0,0-0.1,0-0.1c0,0,0-0.1,0-0.1c0,0,0-0.1,0-0.1
					C13.5,32.9,13.5,32.9,13.6,32.8 M12.3,27L12.3,27l-0.2,0l0.1,0.1c0,0,0,0.1,0.1,0.1c0,0,0,0.1,0.1,0.1c0,0,0,0.1,0.1,0.1
					c0,0,0,0.1,0.1,0.1l0,0.1l0.2-0.1l0-0.1c0,0,0-0.1-0.1-0.1c0,0,0-0.1-0.1-0.1C12.5,27.1,12.4,27.1,12.3,27
					C12.4,27.1,12.4,27,12.3,27 M4.2,24.8l0,0.1l0.1,0c0,0,0.1,0,0.1,0c0,0,0.1,0,0.1,0c0,0,0.1,0,0.1,0c0,0,0.1,0,0.1,0l0.1,0
					L5,24.7l-0.1,0c0,0-0.1,0-0.1,0s-0.1,0-0.1,0c0,0-0.1,0-0.1,0C4.4,24.7,4.4,24.7,4.2,24.8L4.2,24.8 M6.3,40.5l-0.1-0.2l-0.1,0.1
					c-0.1,0-0.1,0.1-0.2,0.1c-0.1,0-0.1,0.1-0.2,0.1c-0.1,0-0.1,0.1-0.2,0.1c-0.1,0-0.1,0.1-0.2,0.1l-0.1,0.1L5.4,41l0.1-0.1
					c0.1,0,0.1-0.1,0.2-0.1c0.1,0,0.1-0.1,0.2-0.1c0.1,0,0.1-0.1,0.2-0.1c0.1,0,0.1-0.1,0.2-0.1L6.3,40.5 M-8.9,33.1L-8.9,33.1
					l0.1,0.1l0-0.1c0,0,0-0.1,0.1-0.1c0,0,0-0.1,0.1-0.1c0,0,0-0.1,0.1-0.1c0,0,0-0.1,0.1-0.1l0-0.1l-0.2,0l0,0.1c0,0,0,0.1-0.1,0.1
					c0,0,0,0.1-0.1,0.1c0,0,0,0.1-0.1,0.1C-8.9,33.1-8.9,33.1-8.9,33.1 M-9.5,37.9L-9.5,37.9l0.2,0l0-0.1c0,0,0-0.1,0-0.1
					c0,0,0-0.1,0-0.1c0,0,0-0.1,0-0.1c0,0,0-0.1,0-0.1l0-0.1l-0.2,0.1l0,0.1c0,0,0,0.1,0,0.1c0,0,0,0.1,0,0.1c0,0,0,0.1,0,0.1
					C-9.5,37.8-9.5,37.8-9.5,37.9 M-1.3,42.3l-0.1,0c-0.1,0-0.1,0-0.2,0c-0.1,0-0.1,0-0.2,0c-0.1,0-0.1,0-0.2,0c-0.1,0-0.1,0-0.2,0
					l-0.1,0l-0.1,0.2l0.1,0c0.1,0,0.1,0,0.2,0c0.1,0,0.1,0,0.2,0c0.1,0,0.1,0,0.2,0c0.1,0,0.1,0,0.2,0h0.1L-1.3,42.3 M-1.6,26.4
					L-1.6,26.4l0.1,0.1c0,0,0.1,0,0.1-0.1c0,0,0.1,0,0.1-0.1c0,0,0.1,0,0.1-0.1c0,0,0.1,0,0.1-0.1l0.1,0l0-0.1l-0.1,0
					c0,0-0.1,0-0.1,0.1c0,0-0.1,0-0.1,0.1c0,0-0.1,0-0.1,0.1C-1.4,26.3-1.5,26.4-1.6,26.4L-1.6,26.4 M13.8,31.5L13.8,31.5l-0.2-0.1
					l0,0.1c0,0,0,0.1,0,0.1c0,0,0,0.1,0,0.1c0,0,0,0.1,0,0.1c0,0,0,0.1,0,0.1l0,0.1l0.2,0l0-0.1c0,0,0-0.1,0-0.1c0,0,0-0.1,0-0.1
					c0,0,0-0.1,0-0.1C13.8,31.6,13.8,31.5,13.8,31.5 M13,27.9l-0.2,0.1l0,0.1c0,0,0,0.1,0.1,0.1c0,0,0,0.1,0.1,0.1
					c0,0,0,0.1,0.1,0.1c0,0,0,0.1,0.1,0.1l0,0.1l0.2-0.1l0-0.1c0,0,0-0.1-0.1-0.1c0,0,0-0.1-0.1-0.1c0,0,0-0.1-0.1-0.1
					C13.1,28,13.1,28,13,27.9L13,27.9 M2.8,25l0,0.1l0.1,0c0,0,0.1,0,0.1,0c0,0,0.1,0,0.1,0c0,0,0.1,0,0.1,0c0,0,0.1,0,0.1,0l0.1,0
					l0-0.1l-0.1,0c0,0-0.1,0-0.1,0c0,0-0.1,0-0.1,0c0,0-0.1,0-0.1,0C2.9,24.9,2.9,24.9,2.8,25L2.8,25 M4.4,41.4l-0.1-0.2l-0.1,0
					c-0.1,0-0.1,0-0.2,0.1c-0.1,0-0.1,0-0.2,0.1c-0.1,0-0.1,0-0.2,0.1c-0.1,0-0.1,0-0.2,0.1l-0.1,0l0,0.2l0.1,0c0.1,0,0.1,0,0.2-0.1
					c0.1,0,0.1,0,0.2-0.1c0.1,0,0.1,0,0.2-0.1c0.1,0,0.1,0,0.2-0.1L4.4,41.4 M-9.4,34.3L-9.4,34.3l0.2,0l0-0.1c0,0,0-0.1,0-0.1
					c0,0,0-0.1,0-0.1c0,0,0-0.1,0-0.1c0,0,0-0.1,0-0.1l0-0.1l-0.2,0l0,0.1c0,0,0,0.1,0,0.1c0,0,0,0.1,0,0.1c0,0,0,0.1,0,0.1
					C-9.4,34.3-9.4,34.3-9.4,34.3 M-9.7,36.7L-9.7,36.7l0.2,0l0-0.1c0,0,0-0.1,0-0.1c0,0,0-0.1,0-0.1c0,0,0-0.1,0-0.1
					c0,0,0-0.1,0-0.1l0-0.1l-0.2,0.1l0,0.1c0,0,0,0.1,0,0.1c0,0,0,0.1,0,0.1c0,0,0,0.1,0,0.1C-9.7,36.7-9.7,36.7-9.7,36.7 M0.5,42.4
					l0-0.2l-0.1,0c-0.1,0-0.1,0-0.2,0c-0.1,0-0.1,0-0.2,0c-0.1,0-0.1,0-0.2,0c-0.1,0-0.1,0-0.2,0l-0.1,0l0,0.2l0.1,0
					c0.1,0,0.1,0,0.2,0c0.1,0,0.1,0,0.2,0c0.1,0,0.1,0,0.2,0c0.1,0,0.1,0,0.2,0L0.5,42.4 M-0.2,25.8l0,0.1l0.1,0c0,0,0.1,0,0.1,0
					s0.1,0,0.1,0c0,0,0.1,0,0.1,0c0,0,0.1,0,0.1,0l0.1,0l0-0.1l-0.1,0c0,0-0.1,0-0.1,0c0,0-0.1,0-0.1,0c0,0-0.1,0-0.1,0
					C0,25.7,0,25.8-0.2,25.8L-0.2,25.8 M13.8,30.2L13.8,30.2l-0.2,0l0,0.1c0,0,0,0.1,0,0.1c0,0,0,0.1,0,0.1c0,0,0,0.1,0,0.1
					c0,0,0,0.1,0,0.1l0,0.1l0.2,0v-0.1c0,0,0-0.1,0-0.1c0,0,0-0.1,0-0.1c0,0,0-0.1,0-0.1C13.8,30.3,13.8,30.2,13.8,30.2 M1.3,25.3
					l0,0.1L1.3,25.3c0.1,0.1,0.2,0.1,0.2,0.1c0,0,0.1,0,0.1,0c0,0,0.1,0,0.1,0c0,0,0.1,0,0.1,0l0.1,0l0-0.1l-0.1,0c0,0-0.1,0-0.1,0
					c0,0-0.1,0-0.1,0c0,0-0.1,0-0.1,0C1.5,25.3,1.4,25.3,1.3,25.3L1.3,25.3 M2.4,42l0-0.2l-0.1,0c-0.1,0-0.1,0-0.2,0
					c-0.1,0-0.1,0-0.2,0c-0.1,0-0.1,0-0.2,0c-0.1,0-0.1,0-0.2,0l-0.1,0l0,0.2l0.1,0c0.1,0,0.1,0,0.2,0c0.1,0,0.1,0,0.2,0
					c0.1,0,0.1,0,0.2,0c0.1,0,0.1,0,0.2,0L2.4,42 M13.6,29L13.6,29l-0.2,0l0,0.1c0,0,0,0.1,0,0.1c0,0,0,0.1,0,0.1s0,0.1,0,0.1
					c0,0,0,0.1,0,0.1l0,0.1l0.2-0.1l0-0.1c0,0,0-0.1,0-0.1c0,0,0-0.1,0-0.1c0,0,0-0.1,0-0.1S13.6,29,13.6,29 M-9.7,35.5L-9.7,35.5
					l0.2,0l0-0.1c0,0,0-0.1,0-0.1c0,0,0-0.1,0-0.1c0,0,0-0.1,0-0.1c0,0,0-0.1,0-0.1l0-0.1l-0.2,0l0,0.1c0,0,0,0.1,0,0.1
					c0,0,0,0.1,0,0.1c0,0,0,0.1,0,0.1C-9.6,35.5-9.6,35.5-9.7,35.5 M-4.5,29.8c-0.9,0.8-1.6,1.6-2.1,2.5c-0.5,0.9-0.8,1.7-0.9,2.6
					c-0.1,0.9,0,1.7,0.3,2.5c0.3,0.8,0.9,1.5,1.8,2c0.9,0.6,2,0.9,3.2,1c1.2,0.1,2.6,0,3.9-0.3c1.4-0.3,2.7-0.8,4-1.5
					C7,37.9,8.1,37,9.1,36c0.9-1,1.6-2,1.9-3.1c0.4-1,0.4-1.9,0.3-2.8c-0.2-0.8-0.6-1.6-1.2-2.2c-0.6-0.6-1.4-1.1-2.4-1.4
					c-1-0.3-2-0.4-3.1-0.4c-1.1,0-2.2,0.2-3.2,0.5c-1.1,0.3-2.1,0.7-3.2,1.3C-2.7,28.3-3.7,29-4.5,29.8 M-8.9,42.7
					c-0.1-0.1-0.3-0.2-0.4-0.3c-0.1-0.1-0.3-0.2-0.4-0.4c-0.1-0.1-0.2-0.2-0.3-0.4c-0.1-0.1-0.2-0.3-0.3-0.4l-2.8,2.7
					c-0.3-0.4-0.6-0.8-0.8-1.3c-0.2-0.4-0.4-0.9-0.5-1.4c-0.1-0.5-0.2-0.9-0.3-1.4c0-0.5-0.1-0.9,0-1.4l3.1-0.8c0-0.3,0-0.6,0-0.9
					c0-0.3,0.1-0.6,0.1-1c0.1-0.3,0.1-0.6,0.2-1c0.1-0.3,0.2-0.6,0.3-0.9l-3,0.8c0.2-0.5,0.4-0.9,0.7-1.4c0.2-0.5,0.5-0.9,0.8-1.3
					c0.3-0.4,0.6-0.9,1-1.3c0.3-0.4,0.7-0.8,1.1-1.3l1.7,0.9c0.1-0.1,0.2-0.3,0.4-0.4c0.1-0.1,0.3-0.3,0.4-0.4
					c0.1-0.1,0.3-0.3,0.4-0.4s0.3-0.3,0.4-0.4c0.1-0.1,0.3-0.3,0.4-0.4c0.1-0.1,0.3-0.2,0.5-0.4c0.2-0.1,0.3-0.2,0.5-0.4
					c0.2-0.1,0.3-0.2,0.5-0.3l-1.8-0.7c0.5-0.3,1-0.7,1.5-1c0.5-0.3,1-0.6,1.5-0.9c0.5-0.3,1-0.5,1.6-0.8c0.5-0.2,1.1-0.5,1.6-0.7
					l0,1.7c0.4-0.1,0.7-0.3,1.1-0.4c0.4-0.1,0.8-0.2,1.1-0.4c0.4-0.1,0.8-0.2,1.1-0.3c0.4-0.1,0.8-0.2,1.2-0.2L3.6,22
					c0.5-0.1,1.1-0.2,1.6-0.3c0.6-0.1,1.1-0.1,1.7-0.1c0.6,0,1.1,0,1.7,0c0.6,0,1.1,0.1,1.6,0.1l-1.9,1.8c0.2,0,0.4,0,0.5,0.1
					s0.4,0.1,0.5,0.1c0.2,0,0.4,0.1,0.5,0.1c0.2,0,0.3,0.1,0.5,0.1s0.3,0.1,0.5,0.2c0.2,0.1,0.3,0.1,0.5,0.2
					c0.2,0.1,0.3,0.1,0.5,0.2c0.2,0.1,0.3,0.1,0.4,0.2l1.9-1.9c0.5,0.2,0.9,0.4,1.4,0.7c0.4,0.2,0.8,0.5,1.2,0.8
					c0.4,0.3,0.7,0.6,1,1c0.3,0.3,0.6,0.7,0.9,1.1l-3.4,0.9c0.2,0.3,0.3,0.5,0.5,0.8c0.1,0.3,0.2,0.6,0.3,0.9c0.1,0.3,0.2,0.6,0.2,1
					c0,0.3,0.1,0.7,0.1,1L20,30c0,0.5,0.1,1,0,1.6c0,0.6-0.1,1.1-0.3,1.7c-0.1,0.6-0.3,1.2-0.6,1.8c-0.3,0.6-0.6,1.2-0.9,1.8
					l-3.3-1.4c-0.1,0.2-0.2,0.4-0.4,0.6c-0.1,0.2-0.3,0.4-0.4,0.6c-0.1,0.2-0.3,0.4-0.4,0.6c-0.2,0.2-0.3,0.4-0.5,0.6
					c-0.2,0.2-0.3,0.4-0.5,0.6c-0.2,0.2-0.4,0.4-0.6,0.5c-0.2,0.2-0.4,0.4-0.6,0.5c-0.2,0.2-0.4,0.3-0.6,0.5l3.3,1.6
					c-0.6,0.6-1.3,1.1-2,1.6c-0.7,0.5-1.5,1-2.2,1.4c-0.8,0.4-1.6,0.8-2.4,1.2c-0.8,0.4-1.6,0.7-2.4,1L5,43.3
					c-0.5,0.2-1.1,0.4-1.6,0.5c-0.5,0.2-1.1,0.3-1.6,0.4c-0.5,0.1-1.1,0.2-1.6,0.3c-0.5,0.1-1,0.1-1.6,0.1l-0.1,3.5
					c-0.8,0-1.6,0.1-2.3,0c-0.8,0-1.5-0.1-2.2-0.3c-0.7-0.1-1.4-0.3-2-0.5c-0.6-0.2-1.2-0.4-1.8-0.7l2.9-2.9
					c-0.2-0.1-0.4-0.2-0.5-0.2c-0.2-0.1-0.3-0.2-0.5-0.3c-0.2-0.1-0.3-0.2-0.5-0.3C-8.6,42.9-8.8,42.8-8.9,42.7"/>
			</g>
			<g id="g104" transform="translate(66.296,32.4769)">
				<path id="path106" class="st5" d="M9.6,11.2c0.4-0.1,0.7-0.3,1.1-0.4c0.4-0.1,0.7-0.2,1.1-0.3c0.4-0.1,0.7-0.2,1.1-0.3
					c0.4-0.1,0.7-0.2,1.1-0.2l0.1,1.6c-0.4,0.1-0.8,0.1-1.2,0.2c-0.4,0.1-0.8,0.2-1.1,0.3c-0.4,0.1-0.8,0.2-1.1,0.4
					c-0.4,0.1-0.8,0.3-1.1,0.4L9.6,11.2z"/>
			</g>
			<g id="g128" transform="translate(57.9056,16.7067)">
				<path id="path130" class="st5" d="M8.4,45.1c0.1,0.1,0.2,0.3,0.3,0.4c0.1,0.1,0.2,0.2,0.3,0.4c0.1,0.1,0.3,0.2,0.4,0.4
					c0.1,0.1,0.3,0.2,0.4,0.3c0.1,0.1,0.3,0.2,0.5,0.3c0.2,0.1,0.3,0.2,0.5,0.3c0.2,0.1,0.3,0.2,0.5,0.3c0.2,0.1,0.4,0.2,0.5,0.2
					l-2.9,2.9c-0.2-0.1-0.4-0.2-0.5-0.3c-0.2-0.1-0.3-0.2-0.5-0.3c-0.2-0.1-0.3-0.2-0.5-0.3c-0.2-0.1-0.3-0.2-0.5-0.4
					c-0.1-0.1-0.3-0.2-0.4-0.3c-0.1-0.1-0.3-0.2-0.4-0.4c-0.1-0.1-0.2-0.2-0.3-0.4c-0.1-0.1-0.2-0.3-0.3-0.4L8.4,45.1z"/>
			</g>
			<g id="g136" transform="translate(65.7821,13.7611)">
				<path id="path138" class="st5" d="M9.5,51.4c0.5,0,1-0.1,1.6-0.1c0.5-0.1,1.1-0.2,1.6-0.3c0.5-0.1,1.1-0.2,1.6-0.4
					c0.5-0.2,1.1-0.3,1.6-0.5l0.2,3.5c-0.6,0.2-1.1,0.4-1.7,0.5c-0.6,0.2-1.1,0.3-1.7,0.4c-0.6,0.1-1.1,0.2-1.7,0.3
					c-0.6,0.1-1.1,0.1-1.6,0.2L9.5,51.4z"/>
			</g>
			<g id="g140" transform="translate(74.6279,29.6587)">
				<path id="path142" class="st6" d="M10.8,17.3l-5.9,3.2l-5.7-1.6L0,23.8L-4.8,28l6.4-0.1l2.7,4.2l3.1-5l6.5-1.6l-4.6-2.9
					L10.8,17.3z"/>
			</g>
			<g id="g144" transform="translate(74.6279,29.6587)">
				<path id="path146" class="st2" d="M10.8,17.3l-5.9,3.2L-0.2,19c-0.2,0.1-0.3,0.2-0.5,0.3L0,23.8L-4.8,28l4.5-0.1
					c1.3-0.9,2.7-1.9,3.8-2.5c2.7-1.3,4.6-2.3,6.1-2.8l-0.1-0.1L10.8,17.3 M13.5,25.1c0.1,0.1,0,0.2,0.1,0.3l0.4-0.1L13.5,25.1"/>
			</g>
			<g id="g192" transform="translate(66.3059,32.8293)">
				<path id="path194" class="st7" d="M9.6,10.5c0.4-0.1,0.7-0.3,1.1-0.4c0.4-0.1,0.7-0.2,1.1-0.3c0.4-0.1,0.7-0.2,1.1-0.3
					c0.4-0.1,0.7-0.2,1.1-0.2l0,0.4c-0.4,0.1-0.7,0.1-1.1,0.2c-0.4,0.1-0.7,0.2-1.1,0.3c-0.4,0.1-0.7,0.2-1.1,0.3
					c-0.4,0.1-0.7,0.2-1.1,0.4L9.6,10.5z"/>
			</g>
			<g id="g200" transform="translate(76.3665,34.2335)">
				<path id="path202" class="st7" d="M11,7.5c0.1,0,0.3,0,0.4,0.1c0.1,0,0.3,0,0.4,0.1c0.1,0,0.3,0,0.4,0.1c0.1,0,0.3,0.1,0.4,0.1
					c0,0,0,0,0.1,0c0,0,0,0,0.1,0c0,0,0,0,0.1,0c0,0,0,0,0.1,0c0,0,0,0,0,0c0,0,0,0,0,0c0,0,0,0,0,0c0,0,0,0,0,0c0,0,0,0,0,0
					c0,0,0,0,0,0c0,0,0,0,0,0c0,0,0,0,0,0c0,0,0,0,0,0c0,0,0,0,0,0c0,0,0,0,0,0c0,0,0,0,0,0c0,0,0,0,0,0c0,0,0,0,0,0c0,0,0,0,0,0
					c0,0,0,0,0,0c0,0,0,0,0,0c0,0,0,0,0,0c0,0,0,0,0,0c0,0,0,0,0,0c0,0,0,0,0,0c0,0,0,0,0,0c0,0,0,0,0,0c0,0,0,0,0,0c0,0,0,0,0,0
					c0,0,0,0,0,0c0,0,0,0,0,0s0,0,0,0c0.1,0,0.3,0.1,0.4,0.1c0.1,0,0.3,0.1,0.4,0.1c0.1,0,0.3,0.1,0.4,0.1c0.1,0,0.3,0.1,0.4,0.1
					L14.5,9c-0.2-0.1-0.3-0.1-0.5-0.2c-0.2-0.1-0.3-0.1-0.5-0.2c-0.2-0.1-0.3-0.1-0.5-0.2c-0.2-0.1-0.3-0.1-0.5-0.1
					c-0.2,0-0.3-0.1-0.5-0.1c-0.2,0-0.3-0.1-0.5-0.1c-0.2,0-0.3-0.1-0.5-0.1c-0.2,0-0.3,0-0.5-0.1L11,7.5z"/>
			</g>
			<g id="g212" transform="translate(55.4625,14.3872)">
				<path id="path214" class="st7" d="M8,50c0.1,0.1,0.2,0.3,0.3,0.4c0.1,0.1,0.2,0.2,0.3,0.4C8.8,50.9,8.9,51,9,51.1
					c0.1,0.1,0.3,0.2,0.4,0.4c0.1,0.1,0.3,0.2,0.5,0.4c0.2,0.1,0.3,0.2,0.5,0.3c0.2,0.1,0.3,0.2,0.5,0.3c0.2,0.1,0.4,0.2,0.5,0.3
					l-0.7,0.7c-0.1-0.1-0.3-0.2-0.4-0.2c-0.1-0.1-0.3-0.2-0.4-0.2c-0.1-0.1-0.3-0.2-0.4-0.3c-0.1-0.1-0.2-0.2-0.4-0.3c0,0,0,0,0,0
					c0,0,0,0,0,0c0,0,0,0,0,0c0,0,0,0,0,0c0,0,0,0-0.1,0c0,0,0,0-0.1,0c0,0,0,0-0.1,0c0,0,0,0-0.1,0c0,0,0,0,0,0c0,0,0,0,0,0
					c0,0,0,0,0,0c0,0,0,0,0,0c0,0,0,0,0,0c0,0,0,0,0,0s0,0,0,0c0,0,0,0,0,0c0,0,0,0,0,0c0,0,0,0,0,0c0,0,0,0,0,0c0,0,0,0,0,0
					c0,0,0,0,0,0c0,0,0,0,0,0c0,0,0,0,0,0c0,0,0,0,0,0c0,0,0,0,0,0c0,0,0,0,0,0c0,0,0,0,0,0c0,0,0,0,0,0c-0.1-0.1-0.2-0.2-0.3-0.3
					c-0.1-0.1-0.2-0.2-0.3-0.3c-0.1-0.1-0.2-0.2-0.3-0.3c-0.1-0.1-0.2-0.2-0.3-0.3L8,50z"/>
			</g>
			<g id="g220" transform="translate(65.698,10.6991)">
				<path id="path222" class="st7" d="M9.5,57.9c0.5,0,1.1-0.1,1.6-0.2c0.6-0.1,1.1-0.2,1.7-0.3c0.6-0.1,1.1-0.2,1.7-0.4
					c0.6-0.2,1.1-0.3,1.7-0.5l0.1,1c-0.6,0.2-1.1,0.4-1.7,0.5c-0.6,0.1-1.1,0.3-1.7,0.4c-0.6,0.1-1.1,0.2-1.7,0.3
					c-0.6,0.1-1.1,0.1-1.7,0.1L9.5,57.9z"/>
			</g>
			<g>
				<g id="g226">
				</g>
				<g id="g10" transform="matrix(1.3333333,0,0,-1.3333333,0,53.333333)">
					<g id="g224">
						<defs>
							<rect id="SVGID_3_" x="61.1" y="41.6" width="36.7" height="28"/>
						</defs>
						<clipPath id="SVGID_4_">
							<use xlink:href="#SVGID_3_"  style="overflow:visible;"/>
						</clipPath>
						<g id="g288" class="st8">
							<g id="g286">
								<g id="g284">
									<defs>
										<path id="SVGID_5_" d="M67.9,48.4c0.1-0.1,0.1-0.1,0.2-0.2C68,48.3,68,48.3,67.9,48.4c-0.1,0-0.1,0.1-0.2,0.1
											C67.8,48.5,67.8,48.4,67.9,48.4 M75.9,43.7l0,0.1l0,0L75.9,43.7z M80.3,42.5c0.2,0,0.5-0.1,0.7-0.1
											C80.8,42.4,80.5,42.4,80.3,42.5z M97.6,49.3C97.6,49.3,97.6,49.2,97.6,49.3c0-0.1,0-0.1,0-0.2c0-0.1,0-0.2-0.1-0.2
											c0,0,0-0.1,0-0.1c0,0,0,0,0,0c0,0,0-0.1,0-0.1c0-0.1-0.1-0.2-0.1-0.4c0,0,0,0,0,0c0,0,0,0,0-0.1c-0.2-0.4-0.3-0.8-0.6-1.2
											c0,0,0,0,0-0.1c0,0,0,0,0,0c-0.1-0.1-0.1-0.2-0.2-0.3c0,0,0-0.1-0.1-0.1h0c-0.3-0.5-0.7-1-1.1-1.4c-1-1-2.3-1.8-3.8-2.4
											L91.1,43h0l0.3-0.3c-0.1,0-0.3-0.1-0.4-0.1c-0.1,0-0.3-0.1-0.4-0.1c-0.1,0-0.3-0.1-0.4-0.1c-0.1,0-0.3-0.1-0.4-0.1
											c0,0,0,0,0,0c0,0,0,0,0,0c0,0,0,0,0,0c0,0,0,0,0,0c0,0,0,0,0,0c0,0,0,0,0,0c0,0,0,0,0,0c0,0,0,0,0,0c0,0,0,0,0,0
											c0,0,0,0,0,0c0,0,0,0,0,0c0,0,0,0,0,0c0,0,0,0,0,0c0,0,0,0,0,0c0,0,0,0,0,0c0,0,0,0,0,0c0,0,0,0,0,0c0,0,0,0,0,0
											c0,0,0,0,0,0c0,0,0,0,0,0c0,0,0,0,0,0c0,0,0,0,0,0c0,0,0,0,0,0c0,0,0,0,0,0c0,0,0,0,0,0c0,0,0,0,0,0c0,0,0,0,0,0
											c0,0,0,0,0,0c0,0,0,0-0.1,0c0,0,0,0-0.1,0c0,0,0,0-0.1,0c0,0,0,0-0.1,0c-0.1,0-0.3-0.1-0.4-0.1c-0.1,0-0.1,0-0.2,0
											c0,0-0.1,0-0.1,0c0,0-0.1,0-0.1,0c-0.1,0-0.3,0-0.4-0.1c0,0,0,0,0,0c0,0-0.1,0-0.1,0c-0.1,0-0.2,0-0.3,0l0,0
											c-1.3-0.1-2.5-0.2-3.8-0.1c-1.1,0.1-2.2,0.2-3.3,0.4v0c-0.2,0-0.4,0.1-0.5,0.1c-0.1,0-0.3,0.1-0.4,0.1c0,0-0.1,0-0.1,0
											c-0.3,0.1-0.6,0.2-0.9,0.3c-0.1,0-0.1,0-0.2,0c-0.1,0-0.1,0-0.2,0c-0.3,0.1-0.6,0.2-0.9,0.3c0,0-0.1,0-0.1,0
											c-0.1,0-0.3,0.1-0.4,0.1c-0.2,0.1-0.4,0.1-0.5,0.2v0c-1.1,0.4-2.1,0.9-3.1,1.4c-1.2,0.6-2.3,1.3-3.4,2.1l0,0
											c-0.1,0.1-0.2,0.1-0.3,0.2l0,0c0,0,0,0,0,0l0,0c0,0,0,0-0.1,0c-0.1,0.1-0.2,0.2-0.4,0.3s-0.2,0.2-0.4,0.3
											c-0.1,0.1-0.2,0.2-0.4,0.3c0,0,0,0,0,0c0,0,0,0,0,0c0,0,0,0-0.1,0c0,0,0,0-0.1,0c0,0,0,0-0.1,0c0,0,0,0-0.1,0c0,0,0,0,0,0
											c0,0,0,0,0,0c0,0,0,0,0,0c0,0,0,0,0,0c0,0,0,0,0,0c0,0,0,0,0,0c0,0,0,0,0,0c0,0,0,0,0,0c0,0,0,0,0,0s0,0,0,0c0,0,0,0,0,0
											c0,0,0,0,0,0c0,0,0,0,0,0c0,0,0,0,0,0c0,0,0,0,0,0c0,0,0,0,0,0c0,0,0,0,0,0c0,0,0,0,0,0c0,0,0,0,0,0c0,0,0,0,0,0
											c0,0,0,0,0,0c0,0,0,0,0,0c0,0,0,0,0,0c0,0,0,0,0,0c0,0,0,0,0,0s0,0,0,0s0,0,0,0c0,0,0,0,0,0c-0.1,0.1-0.2,0.2-0.3,0.3
											c-0.1,0.1-0.2,0.2-0.3,0.3c-0.1,0.1-0.2,0.2-0.3,0.3c-0.1,0.1-0.2,0.2-0.3,0.3l0,0c-1.2,1.2-2.2,2.5-3,3.9
											c-0.3,0.6-0.6,1.2-0.9,1.8l0,0c0,0,0,0,0,0.1c-0.1,0.3-0.2,0.6-0.3,0.9c0,0,0,0,0,0c0,0,0,0,0,0c-0.2,0.5-0.3,0.9-0.4,1.4
											c0,0,0,0,0,0c0,0,0,0,0,0c0,0,0,0,0,0v0c0,0.1,0,0.2-0.1,0.3c0,0,0,0,0,0c0,0,0,0.1,0,0.1c0,0,0,0,0,0c0,0,0,0,0,0
											c0,0.1,0,0.2,0,0.3c0,0.1,0,0.1,0,0.2v0c0,0.1,0,0.2,0,0.3l0,0c0,0,0,0.1,0,0.1h0c-0.1,1,0,2,0.2,2.9
											c0.3,1.1,0.8,2.2,1.5,3.1c0,0,0,0,0.1,0.1c0,0,0,0,0,0c0,0,0.1,0.1,0.1,0.1c0,0,0,0,0,0c0,0,0,0,0,0c0,0,0,0,0,0.1
											c0,0,0.1,0.1,0.1,0.1c0,0,0,0,0-0.1c0,0.1,0.1,0.1,0.1,0.2c0,0,0,0,0,0c0,0,0,0,0,0c0,0,0,0,0,0.1c0,0,0,0,0,0
											c0,0,0,0,0,0c0.1,0.1,0.1,0.2,0.2,0.2c0,0,0,0,0,0c0,0,0,0,0,0c0.1,0.1,0.2,0.2,0.3,0.3c0,0,0,0,0,0c0,0,0,0,0,0
											c0,0,0,0,0,0c0,0,0,0,0,0c0,0,0,0,0,0c0,0,0,0,0,0c0,0,0,0,0,0c0,0,0,0,0,0c0,0,0,0,0,0c0,0,0,0,0,0c0,0,0,0,0,0s0,0,0,0
											c0,0,0,0,0,0s0,0,0,0c0,0,0,0,0,0c0,0,0,0,0,0c0,0,0,0,0,0c0,0,0,0,0,0c0,0,0,0,0,0c0,0,0,0,0,0c0,0,0,0,0.1,0
											c0,0,0,0,0.1,0c0,0,0,0,0.1,0c0,0,0,0,0.1,0c0,0,0,0,0,0c0,0,0,0,0,0c0,0,0,0,0,0c0,0,0,0,0,0c0.1,0.1,0.2,0.2,0.4,0.3
											c0,0,0,0,0,0c0,0,0,0,0,0c0.1,0.1,0.2,0.1,0.3,0.2c0,0,0,0,0.1,0c0,0,0,0,0,0c0,0,0,0,0.1,0c0,0,0.1,0.1,0.1,0.1
											c0,0,0,0,0,0c0,0,0,0-0.1,0c0.1,0,0.1,0.1,0.2,0.1c0,0,0,0,0,0c0,0,0,0,0,0c0,0,0,0,0.1,0c0,0,0,0,0,0c0,0,0,0,0.1,0
											c0.1,0.1,0.2,0.1,0.3,0.2l0,0h0c1.4,0.7,3,1.3,4.7,1.5c1.4,0.2,2.8,0.3,4.3,0.2l0,0l0,0v0c0,0,0,0,0.1,0
											c0.2,0,0.4,0,0.6,0c0.1,0,0.2,0,0.3,0c0.2,0,0.4,0,0.6-0.1c0,0,0.1,0,0.1,0c0.1,0,0.2,0,0.2,0c0.2,0,0.4-0.1,0.6-0.1
											c0,0,0,0,0,0c0.1,0,0.2,0,0.3-0.1c0.2,0,0.4-0.1,0.5-0.1c0.2,0,0.3-0.1,0.5-0.1c0.1,0,0.2,0,0.4-0.1c0,0,0,0,0,0
											c0.2,0,0.4-0.1,0.6-0.1c0.1,0,0.2,0,0.3-0.1c0,0,0.1,0,0.1,0c0.2-0.1,0.4-0.1,0.6-0.2c0.1,0,0.2-0.1,0.3-0.1
											c0.2-0.1,0.4-0.1,0.7-0.2c0,0,0,0,0.1,0v0c1.6-0.5,3.1-1.2,4.6-2c2-1,3.8-2.3,5.4-3.7l0,0l0,0c0,0,0,0,0,0
											c0.1-0.1,0.2-0.2,0.4-0.3c0,0,0,0,0.1-0.1c0,0,0,0,0.1,0c0,0,0.1-0.1,0.1-0.1c0,0,0,0,0,0c0,0,0,0,0,0
											c0.1-0.1,0.1-0.1,0.2-0.2c0,0,0,0-0.1,0.1c0,0,0,0,0,0c0.1-0.1,0.1-0.1,0.2-0.2c0,0,0.1-0.1,0.1-0.1c0,0,0,0,0,0
											c0,0,0,0,0.1-0.1c0.1-0.1,0.2-0.2,0.3-0.4c0,0,0,0,0,0c0,0,0,0,0,0c0.1-0.2,0.3-0.3,0.4-0.5c0,0,0,0,0,0c0,0,0,0,0,0
											c0,0,0,0,0,0c0,0,0,0,0,0c0,0,0,0,0,0c0,0,0,0,0,0c0,0,0,0,0,0c0,0,0,0,0,0c0,0,0,0,0,0c0,0,0,0,0,0c0,0,0,0,0,0s0,0,0,0
											c0,0,0,0,0,0c0,0,0,0,0,0c0,0,0,0,0,0c0,0,0,0,0,0c0,0,0,0,0,0c0,0,0,0,0,0c0,0,0,0,0,0c0,0,0,0,0,0c0,0,0,0,0,0
											c0,0,0,0,0,0c0,0,0,0,0,0c0,0,0,0,0,0c0,0,0,0,0,0c0,0,0,0,0,0c0,0,0,0,0,0c0,0,0,0,0,0c0,0,0,0,0.1-0.1c0,0,0,0,0.1-0.1
											c0,0,0,0,0.1-0.1c0,0,0,0,0.1-0.1c0.1-0.1,0.2-0.2,0.3-0.4c0,0,0,0,0,0.1c0,0,0.1-0.1,0.1-0.1c0,0,0-0.1,0.1-0.1
											c0,0,0-0.1,0.1-0.1c0,0,0.1-0.1,0.1-0.1c0-0.1,0.1-0.1,0.1-0.2c0,0,0.1-0.1,0.1-0.1c0,0,0,0,0,0c0,0,0-0.1,0.1-0.1
											c0,0,0,0,0,0c0,0,0-0.1,0.1-0.1c0,0,0,0,0,0.1c0,0,0,0,0-0.1c0.1-0.1,0.1-0.1,0.1-0.2c0,0,0.1-0.1,0.1-0.1c0,0,0,0,0,0
											c0,0,0,0,0,0c0,0,0,0,0-0.1c0,0,0,0,0,0c0.1-0.1,0.1-0.2,0.2-0.3c0,0,0,0,0,0c0,0,0-0.1,0-0.1h0c0.8-1.4,1.4-2.7,1.7-4
											c0.3-1.2,0.3-2.4,0.2-3.6l0,0c0,0,0,0,0-0.1c0-0.1,0-0.2-0.1-0.4c0-0.1,0-0.1,0-0.2C97.6,49.5,97.6,49.4,97.6,49.3"/>
									</defs>
									<clipPath id="SVGID_6_">
										<use xlink:href="#SVGID_5_"  style="overflow:visible;"/>
									</clipPath>
									<g id="g282" class="st9">
										<g id="g280">
											<g id="g272">
											</g>
											<defs>
												<filter id="Adobe_OpacityMaskFilter" filterUnits="userSpaceOnUse" x="61.1" y="41.6" width="36.7" height="28">
													<feColorMatrix  type="matrix" values="1 0 0 0 0  0 1 0 0 0  0 0 1 0 0  0 0 0 1 0"/>
												</filter>
											</defs>
											<mask maskUnits="userSpaceOnUse" x="61.1" y="41.6" width="36.7" height="28" id="mask250">
												<g id="g260" class="st10">
													<g>
														<defs>
															<rect id="SVGID_7_" x="-28120.6" y="-28085.5" width="56240.4" height="56240.4"/>
														</defs>
														<clipPath id="SVGID_8_">
															<use xlink:href="#SVGID_7_"  style="overflow:visible;"/>
														</clipPath>
														<g id="g258">
															<g id="g256">
																<g id="g254">
																	
																		<linearGradient id="path252_1_" gradientUnits="userSpaceOnUse" x1="-1947.6289" y1="96.2896" x2="2096.2954" y2="96.2896" gradientTransform="matrix(-13.6605 14.1766 -10.8884 -11.8778 2063.4419 124.601)">
																		<stop  offset="0" style="stop-color:#FFFFFF;stop-opacity:0.7"/>
																		<stop  offset="0.4007" style="stop-color:#FFFFFF;stop-opacity:0.7"/>
																		<stop  offset="0.9962" style="stop-color:#FFFFFF;stop-opacity:0"/>
																		<stop  offset="1" style="stop-color:#FFFFFF;stop-opacity:0"/>
																	</linearGradient>
																	<path id="path252" class="st11" d="M-28120.6,28154.9h56240.4v-56240.4h-56240.4V28154.9z"/>
																</g>
															</g>
														</g>
													</g>
												</g>
											</mask>
											<g id="g278" class="st12">
												<g id="g276">
													
														<linearGradient id="path274_1_" gradientUnits="userSpaceOnUse" x1="71.6419" y1="92.1803" x2="72.5001" y2="92.1803" gradientTransform="matrix(-18.214 -18.9022 -14.5179 15.8371 2728.1445 -44.3569)">
														<stop  offset="0" style="stop-color:#FEFFD0"/>
														<stop  offset="0.4007" style="stop-color:#FEFFD0"/>
														<stop  offset="0.9962" style="stop-color:#B3C3B9"/>
														<stop  offset="1" style="stop-color:#B3C3B9"/>
													</linearGradient>
													<path id="path274" class="st13" d="M67.9,48.4c0.1-0.1,0.1-0.1,0.2-0.2C68,48.3,68,48.3,67.9,48.4
														c-0.1,0-0.1,0.1-0.2,0.1C67.8,48.5,67.8,48.4,67.9,48.4 M75.9,43.7l0,0.1l0,0L75.9,43.7z M80.3,42.5
														c0.2,0,0.5-0.1,0.7-0.1C80.8,42.4,80.5,42.4,80.3,42.5z M97.6,49.3C97.6,49.3,97.6,49.2,97.6,49.3c0-0.1,0-0.1,0-0.2
														c0-0.1,0-0.2-0.1-0.2c0,0,0-0.1,0-0.1c0,0,0,0,0,0c0,0,0-0.1,0-0.1c0-0.1-0.1-0.2-0.1-0.4c0,0,0,0,0,0c0,0,0,0,0-0.1
														c-0.2-0.4-0.3-0.8-0.6-1.2c0,0,0,0,0-0.1c0,0,0,0,0,0c-0.1-0.1-0.1-0.2-0.2-0.3c0,0,0-0.1-0.1-0.1h0
														c-0.3-0.5-0.7-1-1.1-1.4c-1-1-2.3-1.8-3.8-2.4L91.1,43h0l0.3-0.3c-0.1,0-0.3-0.1-0.4-0.1c-0.1,0-0.3-0.1-0.4-0.1
														c-0.1,0-0.3-0.1-0.4-0.1c-0.1,0-0.3-0.1-0.4-0.1c0,0,0,0,0,0c0,0,0,0,0,0c0,0,0,0,0,0c0,0,0,0,0,0c0,0,0,0,0,0
														c0,0,0,0,0,0c0,0,0,0,0,0c0,0,0,0,0,0c0,0,0,0,0,0c0,0,0,0,0,0c0,0,0,0,0,0c0,0,0,0,0,0c0,0,0,0,0,0c0,0,0,0,0,0
														c0,0,0,0,0,0c0,0,0,0,0,0c0,0,0,0,0,0c0,0,0,0,0,0c0,0,0,0,0,0c0,0,0,0,0,0c0,0,0,0,0,0c0,0,0,0,0,0c0,0,0,0,0,0
														c0,0,0,0,0,0c0,0,0,0,0,0c0,0,0,0,0,0c0,0,0,0,0,0c0,0,0,0,0,0c0,0,0,0-0.1,0c0,0,0,0-0.1,0c0,0,0,0-0.1,0
														c0,0,0,0-0.1,0c-0.1,0-0.3-0.1-0.4-0.1c-0.1,0-0.1,0-0.2,0c0,0-0.1,0-0.1,0c0,0-0.1,0-0.1,0c-0.1,0-0.3,0-0.4-0.1
														c0,0,0,0,0,0c0,0-0.1,0-0.1,0c-0.1,0-0.2,0-0.3,0l0,0c-1.3-0.1-2.5-0.2-3.8-0.1c-1.1,0.1-2.2,0.2-3.3,0.4v0
														c-0.2,0-0.4,0.1-0.5,0.1c-0.1,0-0.3,0.1-0.4,0.1c0,0-0.1,0-0.1,0c-0.3,0.1-0.6,0.2-0.9,0.3c-0.1,0-0.1,0-0.2,0
														c-0.1,0-0.1,0-0.2,0c-0.3,0.1-0.6,0.2-0.9,0.3c0,0-0.1,0-0.1,0c-0.1,0-0.3,0.1-0.4,0.1c-0.2,0.1-0.4,0.1-0.5,0.2v0
														c-1.1,0.4-2.1,0.9-3.1,1.4c-1.2,0.6-2.3,1.3-3.4,2.1l0,0c-0.1,0.1-0.2,0.1-0.3,0.2l0,0c0,0,0,0,0,0l0,0c0,0,0,0-0.1,0
														c-0.1,0.1-0.2,0.2-0.4,0.3s-0.2,0.2-0.4,0.3c-0.1,0.1-0.2,0.2-0.4,0.3c0,0,0,0,0,0c0,0,0,0,0,0c0,0,0,0-0.1,0
														c0,0,0,0-0.1,0c0,0,0,0-0.1,0c0,0,0,0-0.1,0c0,0,0,0,0,0c0,0,0,0,0,0c0,0,0,0,0,0c0,0,0,0,0,0c0,0,0,0,0,0c0,0,0,0,0,0
														c0,0,0,0,0,0c0,0,0,0,0,0c0,0,0,0,0,0s0,0,0,0c0,0,0,0,0,0c0,0,0,0,0,0c0,0,0,0,0,0c0,0,0,0,0,0c0,0,0,0,0,0
														c0,0,0,0,0,0c0,0,0,0,0,0c0,0,0,0,0,0c0,0,0,0,0,0c0,0,0,0,0,0c0,0,0,0,0,0c0,0,0,0,0,0c0,0,0,0,0,0c0,0,0,0,0,0
														c0,0,0,0,0,0s0,0,0,0s0,0,0,0c0,0,0,0,0,0c-0.1,0.1-0.2,0.2-0.3,0.3c-0.1,0.1-0.2,0.2-0.3,0.3
														c-0.1,0.1-0.2,0.2-0.3,0.3c-0.1,0.1-0.2,0.2-0.3,0.3l0,0c-1.2,1.2-2.2,2.5-3,3.9c-0.3,0.6-0.6,1.2-0.9,1.8l0,0
														c0,0,0,0,0,0.1c-0.1,0.3-0.2,0.6-0.3,0.9c0,0,0,0,0,0c0,0,0,0,0,0c-0.2,0.5-0.3,0.9-0.4,1.4c0,0,0,0,0,0c0,0,0,0,0,0
														c0,0,0,0,0,0v0c0,0.1,0,0.2-0.1,0.3c0,0,0,0,0,0c0,0,0,0.1,0,0.1c0,0,0,0,0,0c0,0,0,0,0,0c0,0.1,0,0.2,0,0.3
														c0,0.1,0,0.1,0,0.2v0c0,0.1,0,0.2,0,0.3l0,0c0,0,0,0.1,0,0.1h0c-0.1,1,0,2,0.2,2.9c0.3,1.1,0.8,2.2,1.5,3.1
														c0,0,0,0,0.1,0.1c0,0,0,0,0,0c0,0,0.1,0.1,0.1,0.1c0,0,0,0,0,0c0,0,0,0,0,0c0,0,0,0,0,0.1c0,0,0.1,0.1,0.1,0.1
														c0,0,0,0,0-0.1c0,0.1,0.1,0.1,0.1,0.2c0,0,0,0,0,0c0,0,0,0,0,0c0,0,0,0,0,0.1c0,0,0,0,0,0c0,0,0,0,0,0
														c0.1,0.1,0.1,0.2,0.2,0.2c0,0,0,0,0,0c0,0,0,0,0,0c0.1,0.1,0.2,0.2,0.3,0.3c0,0,0,0,0,0c0,0,0,0,0,0c0,0,0,0,0,0
														c0,0,0,0,0,0c0,0,0,0,0,0c0,0,0,0,0,0c0,0,0,0,0,0c0,0,0,0,0,0c0,0,0,0,0,0c0,0,0,0,0,0c0,0,0,0,0,0s0,0,0,0
														c0,0,0,0,0,0s0,0,0,0c0,0,0,0,0,0c0,0,0,0,0,0c0,0,0,0,0,0c0,0,0,0,0,0c0,0,0,0,0,0c0,0,0,0,0,0c0,0,0,0,0.1,0
														c0,0,0,0,0.1,0c0,0,0,0,0.1,0c0,0,0,0,0.1,0c0,0,0,0,0,0c0,0,0,0,0,0c0,0,0,0,0,0c0,0,0,0,0,0c0.1,0.1,0.2,0.2,0.4,0.3
														c0,0,0,0,0,0c0,0,0,0,0,0c0.1,0.1,0.2,0.1,0.3,0.2c0,0,0,0,0.1,0c0,0,0,0,0,0c0,0,0,0,0.1,0c0,0,0.1,0.1,0.1,0.1
														c0,0,0,0,0,0c0,0,0,0-0.1,0c0.1,0,0.1,0.1,0.2,0.1c0,0,0,0,0,0c0,0,0,0,0,0c0,0,0,0,0.1,0c0,0,0,0,0,0c0,0,0,0,0.1,0
														c0.1,0.1,0.2,0.1,0.3,0.2l0,0h0c1.4,0.7,3,1.3,4.7,1.5c1.4,0.2,2.8,0.3,4.3,0.2l0,0l0,0v0c0,0,0,0,0.1,0
														c0.2,0,0.4,0,0.6,0c0.1,0,0.2,0,0.3,0c0.2,0,0.4,0,0.6-0.1c0,0,0.1,0,0.1,0c0.1,0,0.2,0,0.2,0c0.2,0,0.4-0.1,0.6-0.1
														c0,0,0,0,0,0c0.1,0,0.2,0,0.3-0.1c0.2,0,0.4-0.1,0.5-0.1c0.2,0,0.3-0.1,0.5-0.1c0.1,0,0.2,0,0.4-0.1c0,0,0,0,0,0
														c0.2,0,0.4-0.1,0.6-0.1c0.1,0,0.2,0,0.3-0.1c0,0,0.1,0,0.1,0c0.2-0.1,0.4-0.1,0.6-0.2c0.1,0,0.2-0.1,0.3-0.1
														c0.2-0.1,0.4-0.1,0.7-0.2c0,0,0,0,0.1,0v0c1.6-0.5,3.1-1.2,4.6-2c2-1,3.8-2.3,5.4-3.7l0,0l0,0c0,0,0,0,0,0
														c0.1-0.1,0.2-0.2,0.4-0.3c0,0,0,0,0.1-0.1c0,0,0,0,0.1,0c0,0,0.1-0.1,0.1-0.1c0,0,0,0,0,0c0,0,0,0,0,0
														c0.1-0.1,0.1-0.1,0.2-0.2c0,0,0,0-0.1,0.1c0,0,0,0,0,0c0.1-0.1,0.1-0.1,0.2-0.2c0,0,0.1-0.1,0.1-0.1c0,0,0,0,0,0
														c0,0,0,0,0.1-0.1c0.1-0.1,0.2-0.2,0.3-0.4c0,0,0,0,0,0c0,0,0,0,0,0c0.1-0.2,0.3-0.3,0.4-0.5c0,0,0,0,0,0c0,0,0,0,0,0
														c0,0,0,0,0,0c0,0,0,0,0,0c0,0,0,0,0,0c0,0,0,0,0,0c0,0,0,0,0,0c0,0,0,0,0,0c0,0,0,0,0,0c0,0,0,0,0,0c0,0,0,0,0,0
														s0,0,0,0c0,0,0,0,0,0c0,0,0,0,0,0c0,0,0,0,0,0c0,0,0,0,0,0c0,0,0,0,0,0c0,0,0,0,0,0c0,0,0,0,0,0c0,0,0,0,0,0
														c0,0,0,0,0,0c0,0,0,0,0,0c0,0,0,0,0,0c0,0,0,0,0,0c0,0,0,0,0,0c0,0,0,0,0,0c0,0,0,0,0,0c0,0,0,0,0,0c0,0,0,0,0.1-0.1
														c0,0,0,0,0.1-0.1c0,0,0,0,0.1-0.1c0,0,0,0,0.1-0.1c0.1-0.1,0.2-0.2,0.3-0.4c0,0,0,0,0,0.1c0,0,0.1-0.1,0.1-0.1
														c0,0,0-0.1,0.1-0.1c0,0,0-0.1,0.1-0.1c0,0,0.1-0.1,0.1-0.1c0-0.1,0.1-0.1,0.1-0.2c0,0,0.1-0.1,0.1-0.1c0,0,0,0,0,0
														c0,0,0-0.1,0.1-0.1c0,0,0,0,0,0c0,0,0-0.1,0.1-0.1c0,0,0,0,0,0.1c0,0,0,0,0-0.1c0.1-0.1,0.1-0.1,0.1-0.2
														c0,0,0.1-0.1,0.1-0.1c0,0,0,0,0,0c0,0,0,0,0,0c0,0,0,0,0-0.1c0,0,0,0,0,0c0.1-0.1,0.1-0.2,0.2-0.3c0,0,0,0,0,0
														c0,0,0-0.1,0-0.1h0c0.8-1.4,1.4-2.7,1.7-4c0.3-1.2,0.3-2.4,0.2-3.6l0,0c0,0,0,0,0-0.1c0-0.1,0-0.2-0.1-0.4
														c0-0.1,0-0.1,0-0.2C97.6,49.5,97.6,49.4,97.6,49.3"/>
												</g>
											</g>
										</g>
									</g>
								</g>
							</g>
						</g>
					</g>
					<g id="g60">
						<g id="g292">
						</g>
						<g id="g62">
							<g id="g290">
								<defs>
									<rect id="SVGID_9_" x="62.5" y="50.2" width="36.7" height="23.1"/>
								</defs>
								<clipPath id="SVGID_10_">
									<use xlink:href="#SVGID_9_"  style="overflow:visible;"/>
								</clipPath>
								<g id="g354" class="st14">
									<g id="g352">
										<g id="g350">
											<defs>
												<path id="SVGID_11_" d="M97.8,50.2c0.1,0.7,0.1,1.4,0,2.1c-0.1,0.7-0.2,1.5-0.4,2.2c-0.2,0.8-0.6,1.6-1,2.4
													c-0.2,0.3-0.4,0.6-0.5,1c-0.1,0.1-0.1,0.2-0.2,0.4c-0.1,0.1-0.1,0.2-0.2,0.3c-0.1,0.1-0.1,0.2-0.2,0.2
													c-0.1,0.2-0.3,0.4-0.4,0.5c-0.1,0.2-0.2,0.3-0.3,0.5c0,0,0,0.1-0.1,0.1c0,0,0,0-0.1,0.1c0,0,0,0-0.1,0.1c0,0,0,0,0,0
													c0,0,0,0,0,0c0,0,0,0,0,0s0,0,0,0c0,0,0,0,0,0c0,0,0,0,0,0c0,0,0,0,0,0s0,0,0,0c0,0,0,0,0,0c0,0,0,0,0,0c0,0,0,0,0,0
													c0,0,0,0,0,0c0,0,0,0,0,0c0,0,0,0,0,0c0,0,0,0,0,0c0,0,0,0,0,0c0,0,0,0,0,0c0,0,0,0,0,0c0,0,0,0,0,0c0,0,0,0,0,0
													c0,0,0,0,0,0c0,0,0,0,0,0c0,0,0,0,0,0c0,0,0,0,0,0c0,0,0,0,0,0c0,0,0,0,0,0c0,0,0,0,0,0c0,0,0,0,0,0c0,0,0,0,0,0
													c0,0,0,0,0,0c-0.1,0.2-0.3,0.3-0.4,0.5c-0.1,0.2-0.3,0.3-0.4,0.5c0,0,0,0,0,0c-0.2,0.2-0.3,0.3-0.5,0.5c0,0,0,0,0,0
													c-0.2,0.1-0.3,0.3-0.5,0.4l0,0c0,0,0,0-0.1,0.1c-0.7,0.6-1.4,1.2-2.2,1.8c-0.8,0.6-1.6,1.1-2.4,1.5
													c-0.8,0.5-1.7,0.9-2.6,1.3c-0.9,0.4-1.8,0.7-2.7,1c-0.3,0.1-0.6,0.2-0.9,0.3s-0.6,0.2-0.9,0.2c-0.3,0.1-0.6,0.1-0.9,0.2
													c-0.3,0.1-0.6,0.1-0.8,0.2c0,0,0,0,0,0c-1.1,0.2-2.3,0.4-3.4,0.4c-0.1,0-0.1,0-0.2,0c-1.1,0.1-2.2,0-3.3-0.1
													c-1-0.1-2-0.3-2.9-0.6c-0.9-0.3-1.8-0.6-2.5-1l0,0c0,0,0,0-0.1,0l0,0c-0.1-0.1-0.3-0.2-0.4-0.2c0,0,0,0,0,0
													c-0.1-0.1-0.3-0.2-0.4-0.2c-0.1-0.1-0.3-0.2-0.4-0.3c-0.1-0.1-0.2-0.2-0.4-0.3c0,0,0,0,0,0c0,0,0,0,0,0c0,0,0,0,0,0
													c0,0,0,0,0,0c0,0,0,0-0.1,0c0,0,0,0-0.1,0c0,0,0,0-0.1,0c0,0,0,0-0.1,0c0,0,0,0,0,0c0,0,0,0,0,0c0,0,0,0,0,0
													c0,0,0,0,0,0c0,0,0,0,0,0c0,0,0,0,0,0c0,0,0,0,0,0s0,0,0,0c0,0,0,0,0,0s0,0,0,0c0,0,0,0,0,0c0,0,0,0,0,0c0,0,0,0,0,0
													c0,0,0,0,0,0c0,0,0,0,0,0c0,0,0,0,0,0l0,0l0,0c0,0,0,0,0,0c0,0,0,0,0,0c0,0,0,0,0,0c0,0,0,0,0,0l0,0
													c-0.1-0.1-0.2-0.2-0.3-0.3c-0.1-0.1-0.1-0.1-0.2-0.2c0,0-0.1-0.1-0.1-0.1c-0.1-0.1-0.1-0.1-0.2-0.2c0,0,0-0.1-0.1-0.1
													c-0.1-0.1-0.2-0.2-0.2-0.3c0,0-0.1-0.1-0.1-0.1c-0.1-0.1-0.2-0.2-0.2-0.3l2.1,3.3c0.1,0.1,0.2,0.2,0.2,0.4
													c0,0,0.1,0.1,0.1,0.1l0,0c0.1,0.1,0.1,0.1,0.2,0.2c0,0,0.1,0.1,0.1,0.1c0,0,0,0,0,0c0,0,0,0,0,0.1
													c0,0.1,0.1,0.1,0.1,0.2c0,0,0,0,0.1,0.1c0,0,0,0,0,0c0,0,0.1,0.1,0.1,0.1c0,0,0.1,0.1,0.1,0.1c0,0,0,0,0,0c0,0,0,0,0,0
													c0,0,0,0,0,0c0,0,0,0,0,0c0,0,0,0,0,0c0,0,0,0,0,0c0,0,0,0,0,0c0,0,0,0,0,0l0,0c0,0,0,0,0,0c0,0,0,0,0,0v0l0,0v0
													c0,0,0,0,0,0c0,0,0,0,0,0c0,0,0,0,0,0c0,0,0,0,0,0l0,0c0,0,0,0,0,0l0,0c0,0,0,0,0,0c0,0,0,0,0,0c0,0,0,0,0,0
													c0,0,0,0,0,0h0c0,0,0,0,0,0c0,0,0,0,0,0c0,0,0,0,0,0c0,0,0,0,0,0c0,0,0,0,0.1,0l0,0l0,0c0,0,0,0,0,0c0,0,0,0,0,0
													c0,0,0,0,0,0c0,0,0,0,0,0c0,0,0,0,0,0c0,0,0,0,0,0s0,0,0,0c0,0,0,0,0,0c0,0,0,0,0,0s0,0,0,0c0,0,0,0,0,0s0,0,0,0
													c0,0,0,0,0,0c0,0,0,0,0,0c0,0,0,0,0,0c0,0,0,0,0,0c0,0,0,0,0.1,0c0,0,0,0,0.1,0c0,0,0,0,0.1,0c0,0,0,0,0.1,0
													c0,0,0,0,0,0c0,0,0,0,0,0c0,0,0,0,0,0c0,0,0,0,0,0c0.1,0.1,0.2,0.2,0.4,0.3c0,0,0.1,0.1,0.1,0.1c0,0,0,0,0,0
													c0.1,0.1,0.2,0.1,0.3,0.2c0.1,0.1,0.2,0.1,0.3,0.2c0,0,0.1,0,0.1,0.1c0,0,0,0,0,0l0,0c0.1,0,0.1,0.1,0.2,0.1
													c0.1,0.1,0.2,0.1,0.3,0.2c0.8,0.4,1.6,0.8,2.5,1.1c0.9,0.3,1.9,0.5,2.9,0.7c1,0.1,2.1,0.2,3.2,0.2
													c0.9,0,1.7-0.1,2.6-0.2c0.3,0,0.6-0.1,0.9-0.1c0,0,0,0,0,0c0.3,0,0.6-0.1,0.8-0.2c0.3-0.1,0.6-0.1,0.8-0.2
													c0.3-0.1,0.6-0.1,0.8-0.2c0.3-0.1,0.6-0.2,0.8-0.3c0.9-0.3,1.7-0.6,2.6-1s1.7-0.8,2.5-1.3c0.8-0.5,1.6-1,2.3-1.5
													c0.7-0.5,1.4-1.1,2.1-1.7c0.1-0.1,0.2-0.2,0.3-0.3c0.1-0.1,0.1-0.1,0.2-0.2c0,0,0,0,0,0c0,0,0,0,0,0
													c0,0,0.1-0.1,0.1-0.1c0.1-0.1,0.2-0.2,0.3-0.3c0,0,0,0,0,0c0,0,0,0,0,0c0,0,0,0,0,0c0.1-0.1,0.2-0.2,0.3-0.3
													c0,0,0,0,0,0c0-0.1,0.1-0.1,0.1-0.2C95,65.1,95,65,95.1,65l0,0c0,0,0,0,0,0c0,0,0,0,0,0c0,0,0,0,0,0c0,0,0,0,0,0l0,0
													c0.1-0.1,0.1-0.1,0.2-0.2c0,0,0,0,0,0c0,0,0,0,0,0c0,0,0,0,0,0c0,0,0,0,0,0c0,0,0,0,0,0c0,0,0,0,0,0c0,0,0,0,0,0
													c0,0,0,0,0,0c0,0,0,0,0,0s0,0,0,0c0,0,0,0,0,0c0,0,0,0,0,0c0,0,0,0,0,0c0,0,0,0,0,0c0,0,0,0,0,0s0,0,0,0c0,0,0,0,0,0
													s0,0,0,0c0,0,0,0,0,0c0,0,0,0,0,0c0,0,0,0,0,0c0,0,0,0,0,0c0,0,0,0,0,0c0,0,0,0,0,0c0,0,0,0,0,0c0,0,0,0,0,0
													c0,0,0,0,0,0c0,0,0,0,0,0c0,0,0,0,0,0l0,0c0,0,0,0,0,0c0,0,0,0,0,0c0,0,0,0,0,0c0,0,0,0,0,0c0,0,0,0,0,0c0,0,0,0,0,0
													c0,0,0,0,0,0c0,0,0,0,0,0c0,0,0,0,0.1-0.1c0,0,0,0,0.1-0.1l0,0c0,0,0,0,0,0c0.1-0.1,0.2-0.3,0.3-0.4v0c0,0,0,0,0,0
													c0,0,0,0,0,0c0.1-0.2,0.2-0.3,0.3-0.5c0,0,0,0,0,0c0.1-0.1,0.1-0.2,0.2-0.2c0.1-0.1,0.1-0.2,0.1-0.2c0,0,0,0,0,0
													c0.1-0.1,0.1-0.2,0.2-0.4c0,0,0-0.1,0-0.1v0c0.2-0.3,0.3-0.6,0.5-0.9c0.4-0.8,0.7-1.6,0.9-2.4c0.2-0.8,0.3-1.5,0.4-2.3
													c0.1-0.7,0-1.4-0.1-2.1l-0.6-1.9C98.2,51.5,98,50.9,97.8,50.2"/>
											</defs>
											<clipPath id="SVGID_12_">
												<use xlink:href="#SVGID_11_"  style="overflow:visible;"/>
											</clipPath>
											<g id="g348" class="st15">
												<g id="g346">
													<g id="g338">
													</g>
													<defs>
														<filter id="Adobe_OpacityMaskFilter_1_" filterUnits="userSpaceOnUse" x="61.1" y="41.6" width="61.6" height="31.7">
															<feColorMatrix  type="matrix" values="1 0 0 0 0  0 1 0 0 0  0 0 1 0 0  0 0 0 1 0"/>
														</filter>
													</defs>
													<mask maskUnits="userSpaceOnUse" x="61.1" y="41.6" width="61.6" height="31.7" id="mask316">
														<g id="g326" class="st16">
															<g>
																<defs>
																	<rect id="SVGID_13_" x="-28120.6" y="-28085.5" width="56240.4" height="56240.4"/>
																</defs>
																<clipPath id="SVGID_14_">
																	<use xlink:href="#SVGID_13_"  style="overflow:visible;"/>
																</clipPath>
																<g id="g324">
																	<g id="g322">
																		<g id="g320">
																			
																				<radialGradient id="path318_1_" cx="60.7466" cy="97.7913" r="4048.5562" gradientTransform="matrix(11.4638 6.7338 -5.2913 6.0867 -179.3782 -969.5958)" gradientUnits="userSpaceOnUse">
																				<stop  offset="0" style="stop-color:#FFFFFF;stop-opacity:0.7"/>
																				<stop  offset="0.4007" style="stop-color:#FFFFFF;stop-opacity:0.7"/>
																				<stop  offset="0.9962" style="stop-color:#FFFFFF;stop-opacity:0"/>
																				<stop  offset="1" style="stop-color:#FFFFFF;stop-opacity:0"/>
																			</radialGradient>
																			<path id="path318" class="st17" d="M-28120.6,28154.9h56240.4v-56240.4h-56240.4V28154.9z"/>
																		</g>
																	</g>
																</g>
															</g>
														</g>
													</mask>
													<g id="g344" class="st18">
														<g id="g342">
															
																<radialGradient id="path340_1_" cx="66.2236" cy="92.3311" r="1.881" gradientTransform="matrix(15.2851 -8.9784 -7.055 -8.1156 -262.282 1414.572)" gradientUnits="userSpaceOnUse">
																<stop  offset="0" style="stop-color:#FEFFD0"/>
																<stop  offset="0.4007" style="stop-color:#FEFFD0"/>
																<stop  offset="0.9962" style="stop-color:#B3C3B9"/>
																<stop  offset="1" style="stop-color:#B3C3B9"/>
															</radialGradient>
															<path id="path340" class="st19" d="M70.9,49.8c-1.1,1-1.9,2-2.5,3c-0.6,1.1-1,2.1-1.2,3.2c-0.1,1.1,0,2.1,0.4,3
																c0.4,1,1.2,1.8,2.2,2.5c1.1,0.7,2.4,1.1,3.9,1.3c1.5,0.2,3.1,0.1,4.8-0.3c1.7-0.4,3.3-1,4.9-1.9
																c1.6-0.9,3-1.9,4.1-3.2c1.1-1.2,1.9-2.5,2.4-3.7c0.4-1.2,0.5-2.4,0.3-3.4c-0.2-1-0.7-1.9-1.4-2.7
																c-0.7-0.7-1.7-1.3-2.9-1.7c-1.2-0.4-2.4-0.5-3.8-0.5c-1.3,0-2.6,0.2-4,0.6c-1.3,0.4-2.6,0.9-3.9,1.5
																C73.1,48,71.9,48.8,70.9,49.8L69,47c0,0,0,0,0,0c0,0,0,0,0,0l-1.1,1.4c-0.1,0.1-0.3,0.2-0.4,0.4s-0.3,0.2-0.4,0.4
																s-0.3,0.2-0.4,0.4c-0.1,0.1-0.3,0.3-0.4,0.4l1.7,0.9c0.1-0.1,0.2-0.3,0.4-0.4c0.1-0.1,0.3-0.3,0.4-0.4
																c0.1-0.1,0.3-0.3,0.4-0.4s0.3-0.3,0.4-0.4s0.3-0.3,0.4-0.4c0.2-0.1,0.3-0.2,0.5-0.4c0.2-0.1,0.3-0.2,0.5-0.4
																c0.2-0.1,0.3-0.2,0.5-0.3L69.7,47c-0.2,0.1-0.3,0.2-0.5,0.3c-0.2,0.1-0.3,0.2-0.5,0.4c-0.2,0.1-0.3,0.2-0.5,0.4
																c-0.2,0.1-0.3,0.2-0.4,0.4l-0.3-0.2c0,0,0,0,0,0s0,0,0,0c0,0,0,0,0,0c0,0,0,0,0,0c0,0,0,0,0,0c0,0,0,0,0,0
																c0,0,0,0,0,0c0,0,0,0,0,0c0,0,0,0,0.1,0c0,0,0,0,0.1,0c0,0,0,0,0.1,0c0,0,0,0,0.1,0c0.1-0.1,0.2-0.2,0.4-0.3
																c0.1-0.1,0.2-0.2,0.4-0.3c0.1-0.1,0.2-0.2,0.4-0.3c0.1-0.1,0.2-0.2,0.4-0.3l0.4,0.2c-0.2,0.1-0.3,0.2-0.5,0.3
																c-0.2,0.1-0.3,0.2-0.5,0.4c-0.2,0.1-0.3,0.2-0.5,0.4c-0.1,0.1-0.3,0.2-0.4,0.4c-0.1,0.1-0.3,0.2-0.4,0.4
																c-0.1,0.1-0.3,0.2-0.4,0.4c-0.1,0.1-0.3,0.2-0.4,0.4c-0.1,0.1-0.3,0.3-0.4,0.4L66,49.7c0.1-0.1,0.2-0.2,0.3-0.3
																c0.1-0.1,0.2-0.2,0.3-0.3s0.2-0.2,0.3-0.3c0.1-0.1,0.2-0.2,0.3-0.3c0,0,0,0,0,0s0,0,0,0s0,0,0,0s0,0,0,0c0,0,0,0,0,0
																c0,0,0,0,0,0c0,0,0,0,0,0c0,0,0,0,0,0c0,0,0,0,0,0c0,0,0,0,0,0s0,0,0,0c0,0,0,0,0,0c0,0,0,0,0,0c0,0,0,0,0,0
																c0,0,0,0,0,0c0,0,0,0,0,0c0,0,0,0,0,0c0,0,0,0,0,0c0,0,0,0,0,0s0,0,0,0l-4.8,7c-0.1,0.3-0.2,0.6-0.4,0.9
																c-0.1,0.3-0.2,0.6-0.3,0.9c-0.1,0.3-0.1,0.6-0.2,1c0,0.3-0.1,0.6-0.1,1l3.1-0.8c0-0.3,0-0.6,0-0.9
																c0-0.3,0.1-0.6,0.1-1c0.1-0.3,0.1-0.6,0.2-1c0.1-0.3,0.2-0.6,0.3-0.9l-3,0.8l-0.6,0.2c-0.1,0.3-0.2,0.6-0.4,0.9
																c-0.1,0.3-0.2,0.6-0.3,0.9c-0.1,0.3-0.1,0.6-0.2,1c-0.1,0.3-0.1,0.6-0.1,1l0.7-0.2c0-0.3,0-0.6,0.1-1
																c0-0.3,0.1-0.6,0.2-1c0.1-0.3,0.2-0.6,0.3-0.9c0.1-0.3,0.2-0.6,0.4-0.9l-0.6,0.2l-0.8,2.4c0,0,0,0,0-0.1
																c0,0.1,0,0.2-0.1,0.3c0-0.1,0-0.2,0-0.3l-0.1,0.8c0-0.1,0-0.2,0-0.3c0,0.1,0,0.2,0,0.3L61.2,59c0-0.1,0-0.2,0-0.3
																c0,0.1,0,0.2,0,0.3l2,6.5c0,0,0,0,0,0c0,0,0,0,0.1,0.1c0,0,0,0-0.1-0.1l2.5,2.1c0,0-0.1,0-0.1-0.1c0,0,0.1,0,0.1,0.1
																l7.2,1.1c-0.8,0-1.5-0.1-2.2-0.3c-0.7-0.1-1.4-0.3-2-0.5c-0.6-0.2-1.2-0.4-1.8-0.7c-0.2-0.1-0.4-0.2-0.5-0.3
																c-0.2-0.1-0.3-0.2-0.5-0.3c-0.2-0.1-0.3-0.2-0.5-0.3c-0.2-0.1-0.3-0.2-0.5-0.4c-0.1-0.1-0.3-0.2-0.4-0.3
																c-0.1-0.1-0.3-0.2-0.4-0.4c-0.1-0.1-0.2-0.2-0.3-0.4c-0.1-0.1-0.2-0.3-0.3-0.4c-0.3-0.4-0.6-0.8-0.8-1.3
																c-0.2-0.4-0.4-0.9-0.5-1.4c-0.1-0.5-0.2-0.9-0.3-1.4c0-0.5-0.1-0.9,0-1.4c0-0.3,0-0.6,0.1-1c0-0.3,0.1-0.6,0.2-1
																c0.1-0.3,0.2-0.6,0.3-0.9c0.1-0.3,0.2-0.6,0.4-0.9c0.2-0.5,0.4-0.9,0.7-1.4c0.2-0.5,0.5-0.9,0.8-1.3
																c0.3-0.4,0.6-0.9,1-1.3c0.3-0.4,0.7-0.8,1.1-1.3l-0.2-0.1l0.2,0.1c0.1-0.1,0.2-0.3,0.4-0.4c0.1-0.1,0.3-0.2,0.4-0.4
																c0.1-0.1,0.3-0.2,0.4-0.4c0.1-0.1,0.3-0.2,0.4-0.4c0.1-0.1,0.3-0.3,0.4-0.4c0.2-0.1,0.3-0.2,0.5-0.4s0.3-0.2,0.5-0.4
																c0.2-0.1,0.3-0.2,0.5-0.3c0.5-0.3,1-0.7,1.5-1c0.5-0.3,1-0.6,1.5-0.9c0.5-0.3,1-0.5,1.6-0.8c0.5-0.2,1.1-0.5,1.6-0.7
																c0.4-0.1,0.7-0.3,1.1-0.4c0.4-0.1,0.7-0.2,1.1-0.3c0.4-0.1,0.7-0.2,1.1-0.3c0.4-0.1,0.7-0.2,1.1-0.2
																c0.6-0.1,1.1-0.2,1.6-0.3c0.6-0.1,1.1-0.1,1.7-0.1c0.6,0,1.1,0,1.7,0c0.6,0,1.1,0.1,1.6,0.1c0.2,0,0.3,0,0.5,0.1
																c0.2,0,0.3,0.1,0.5,0.1c0.2,0,0.3,0.1,0.5,0.1c0.2,0,0.3,0.1,0.5,0.1c0.2,0,0.4,0.1,0.5,0.1c0.2,0,0.3,0.1,0.5,0.2
																c0.2,0.1,0.3,0.1,0.5,0.2c0.2,0.1,0.3,0.1,0.5,0.2l0.5-0.5c-0.1,0-0.3-0.1-0.4-0.1c-0.1,0-0.3-0.1-0.4-0.1
																c-0.1,0-0.3-0.1-0.4-0.1c-0.1,0-0.3-0.1-0.4-0.1c0,0,0,0,0,0c0,0,0,0,0,0c0,0,0,0,0,0c0,0,0,0,0,0c0,0,0,0,0,0
																c0,0,0,0,0,0c0,0,0,0,0,0c0,0,0,0,0,0c0,0,0,0,0,0c0,0,0,0,0,0s0,0,0,0c0,0,0,0,0,0c0,0,0,0,0,0c0,0,0,0,0,0
																c0,0,0,0,0,0c0,0,0,0,0,0c0,0,0,0,0,0c0,0,0,0,0,0c0,0,0,0,0,0c0,0,0,0,0,0c0,0,0,0,0,0c0,0,0,0,0,0c0,0,0,0,0,0
																s0,0,0,0c0,0,0,0,0,0c0,0,0,0,0,0c0,0,0,0,0,0c0,0,0,0,0,0c0,0,0,0-0.1,0c0,0,0,0-0.1,0c0,0,0,0-0.1,0c0,0,0,0-0.1,0
																c-0.1,0-0.3-0.1-0.4-0.1c-0.1,0-0.1,0-0.2,0c0,0-0.1,0-0.1,0c0,0-0.1,0-0.1,0c-0.1,0-0.3,0-0.4-0.1c0,0,0,0-0.1,0
																c0,0-0.1,0-0.1,0c-0.1,0-0.2,0-0.3,0l0,0c-1.3-0.1-2.5-0.2-3.8-0.1c-1.1,0.1-2.2,0.2-3.3,0.4v0
																c-0.2,0-0.4,0.1-0.5,0.1c-0.1,0-0.3,0.1-0.4,0.1c0,0-0.1,0-0.1,0c-0.3,0.1-0.6,0.2-0.9,0.3c-0.1,0-0.1,0-0.2,0
																c-0.1,0-0.1,0-0.2,0c-0.3,0.1-0.6,0.2-0.9,0.3c0,0-0.1,0-0.1,0c-0.1,0-0.3,0.1-0.4,0.1c-0.2,0.1-0.4,0.1-0.5,0.2v0
																c-1.1,0.4-2.1,0.9-3.1,1.4c-1.2,0.6-2.3,1.3-3.4,2.1l0,0c-0.1,0.1-0.2,0.1-0.3,0.2l0,0c0,0,0,0,0,0l0,0
																c0,0,0,0-0.1,0c-0.1,0.1-0.2,0.2-0.4,0.3c-0.1,0.1-0.2,0.2-0.4,0.3c-0.1,0.1-0.2,0.2-0.4,0.3c0,0,0,0,0,0
																c0,0,0,0,0,0c0,0,0,0-0.1,0c0,0,0,0-0.1,0c0,0,0,0-0.1,0c0,0,0,0-0.1,0c0,0,0,0,0,0c0,0,0,0,0,0c0,0,0,0,0,0
																c0,0,0,0,0,0c0,0,0,0,0,0c0,0,0,0,0,0c0,0,0,0,0,0s0,0,0,0c0,0,0,0,0,0c0,0,0,0,0,0c0,0,0,0,0,0s0,0,0,0c0,0,0,0,0,0
																c0,0,0,0,0,0c0,0,0,0,0,0c0,0,0,0,0,0c0,0,0,0,0,0c0,0,0,0,0,0s0,0,0,0c0,0,0,0,0,0c0,0,0,0,0,0c0,0,0,0,0,0
																c0,0,0,0,0,0c0,0,0,0,0,0c0,0,0,0,0,0s0,0,0,0c0,0,0,0,0,0s0,0,0,0c-0.1,0.1-0.2,0.2-0.3,0.3
																c-0.1,0.1-0.2,0.2-0.3,0.3s-0.2,0.2-0.3,0.3c-0.1,0.1-0.2,0.2-0.3,0.3l0,0c-1.2,1.2-2.2,2.5-3,3.9
																c-0.3,0.6-0.6,1.2-0.9,1.8l0,0c0,0,0,0,0,0.1c-0.1,0.3-0.2,0.6-0.3,0.9c0,0,0,0,0,0c0,0,0,0,0,0
																c-0.2,0.5-0.3,0.9-0.4,1.4c0-0.1,0.1-0.3,0.1-0.4c0,0.2-0.1,0.3-0.1,0.5c0,0,0,0,0,0c0,0,0,0,0,0l0,0
																c0,0.1,0,0.2-0.1,0.3c0,0,0,0,0,0c0,0,0,0.1,0,0.1c0,0,0,0,0,0l0,0c0,0.1,0,0.2,0,0.3c0,0,0,0,0,0c0,0.1,0,0.1,0,0.2
																v0c0,0.1,0,0.2,0,0.3v0c0,0,0,0.1,0,0.1h0c-0.1,1,0,2,0.2,2.9c0.3,1.1,0.8,2.2,1.5,3.1c0,0-0.1-0.1-0.1-0.1
																c0,0.1,0.1,0.1,0.1,0.2c0,0,0,0,0,0c0,0,0.1,0.1,0.1,0.1c0,0,0,0,0,0c0,0,0,0,0,0c0,0,0,0,0,0.1c0,0,0.1,0.1,0.1,0.1
																c0,0,0,0,0-0.1c0,0.1,0.1,0.1,0.1,0.2c0,0,0,0,0,0c0,0,0,0,0,0c0,0,0,0,0,0.1c0,0,0,0,0,0c0,0,0,0,0,0
																c0.1,0.1,0.1,0.2,0.2,0.2c0,0,0,0,0,0c0,0,0,0,0,0c0.1,0.1,0.2,0.2,0.3,0.3c0,0,0,0,0,0c0,0,0,0,0,0c0,0,0,0,0,0
																c0,0,0,0,0,0c0,0,0,0,0,0c0,0,0,0,0,0s0,0,0,0c0,0,0,0,0,0c0,0,0,0,0,0c0,0,0,0,0,0c0,0,0,0,0,0c0,0,0,0,0,0
																c0,0,0,0,0,0c0,0,0,0,0,0s0,0,0,0c0,0,0,0,0,0c0,0,0,0,0,0c0,0,0,0,0,0c0,0,0,0,0,0c0,0,0,0,0,0c0,0,0,0,0.1,0
																c0,0,0,0,0.1,0c0,0,0,0,0.1,0c0,0,0,0,0.1,0c0,0,0,0,0,0l0,0c0,0,0,0,0,0c0,0,0,0,0,0c0.1,0.1,0.2,0.2,0.4,0.3
																c0,0,0,0,0,0c0,0,0,0,0,0c0.1,0.1,0.2,0.1,0.3,0.2c0,0,0,0,0.1,0c0,0,0,0,0,0c0,0,0,0,0.1,0c0,0,0.1,0.1,0.1,0.1
																c0,0,0,0,0,0c0,0,0,0-0.1,0c0.1,0,0.1,0.1,0.2,0.1c0,0,0,0,0,0c0,0,0,0,0,0c0,0,0,0,0.1,0c0,0,0,0,0,0c0,0,0,0,0.1,0
																c0.1,0.1,0.2,0.1,0.3,0.2l0,0l0,0c1.4,0.7,3,1.3,4.7,1.5c1.4,0.2,2.8,0.3,4.3,0.2l0-0.9c-0.8,0-1.6,0-2.3,0l9.1-0.4
																c0.7,1.3,1.3,2.6,2,3.9c-0.3,0.1-0.6,0.2-0.8,0.3c-0.3,0.1-0.6,0.2-0.8,0.2c-0.3,0.1-0.6,0.1-0.8,0.2
																c-0.3,0.1-0.6,0.1-0.8,0.2c0,0,0,0,0,0c-1.1,0.2-2.2,0.3-3.3,0.3h0l-2.1-3.7c1.1-0.1,2.3-0.2,3.4-0.4c0,0,0,0,0,0
																c0.3-0.1,0.6-0.1,0.8-0.2c0.3-0.1,0.6-0.1,0.9-0.2c0.3-0.1,0.6-0.2,0.9-0.2c0.3-0.1,0.6-0.2,0.9-0.3l6.9-4.6
																c0.7-0.5,1.4-1,2-1.6l1,0.5c-1.6,1.4-3.4,2.7-5.4,3.7c-1.5,0.8-3,1.4-4.6,2v0c0,0,0,0-0.1,0
																c-0.2,0.1-0.4,0.1-0.7,0.2c-0.1,0-0.2,0.1-0.3,0.1c-0.2,0.1-0.4,0.1-0.6,0.2c0,0-0.1,0-0.1,0c-0.1,0-0.2,0-0.3,0.1
																c-0.2,0-0.4,0.1-0.6,0.1c0,0,0,0,0,0c-0.1,0-0.2,0-0.4,0.1c-0.2,0-0.3,0.1-0.5,0.1c-0.2,0-0.4,0.1-0.5,0.1
																c-0.1,0-0.2,0-0.3,0.1c0,0,0,0,0,0c-0.2,0-0.4,0.1-0.6,0.1c-0.1,0-0.2,0-0.2,0c0,0-0.1,0-0.1,0c-0.2,0-0.4,0-0.6,0.1
																c-0.1,0-0.2,0-0.3,0c-0.2,0-0.4,0-0.6,0c0,0,0,0-0.1,0v0h0l0-0.9c0.5,0,1.1-0.1,1.6-0.2c0.6-0.1,1.1-0.2,1.7-0.3
																c0.6-0.1,1.1-0.2,1.7-0.4c0.6-0.2,1.1-0.3,1.7-0.5c0.8-0.3,1.6-0.6,2.4-1c0.8-0.4,1.6-0.8,2.4-1.2
																c0.7-0.3,1.4-0.9,2.2-1.4l3.7-1.8c0,0-0.1,0.1-0.1,0.1c0,0,0.1-0.1,0.1-0.1l-2.7-3.6c0.2-0.2,0.3-0.4,0.5-0.6
																c0.2-0.2,0.3-0.4,0.4-0.6c0.1-0.2,0.3-0.4,0.4-0.6c0.1-0.2,0.2-0.4,0.4-0.6l3.3,1.4c-0.1,0.2-0.2,0.4-0.4,0.6
																c-0.1,0.2-0.3,0.4-0.4,0.6c-0.1,0.2-0.3,0.4-0.5,0.6c-0.2,0.2-0.3,0.4-0.5,0.6c-0.2,0.2-0.3,0.4-0.5,0.6
																c-0.2,0.2-0.4,0.4-0.5,0.6c-0.2,0.2-0.4,0.4-0.6,0.6c-0.2,0.2-0.4,0.4-0.6,0.5l-3.3-1.6c0.2-0.2,0.4-0.3,0.6-0.5
																c0.2-0.2,0.4-0.3,0.6-0.5c0.2-0.2,0.4-0.4,0.6-0.5c0.2-0.2,0.4-0.4,0.5-0.6l1.1-4.7c-1,11.7-11,11.6-15.1,11.4
																c-4.1-0.2-8.1-3.2-8.9-7.1c-0.8-3.9,1.3-8.9,4.8-10.4c19.6-8.6,19.4,3,19.2,6.1l3.9,3.7c-0.1,0.2-0.2,0.4-0.4,0.6
																c-0.1,0.2-0.3,0.4-0.4,0.6c-0.1,0.2-0.3,0.4-0.5,0.6c-0.2,0.2-0.3,0.4-0.5,0.6c-0.2,0.2-0.3,0.4-0.5,0.6
																c-0.2,0.2-0.4,0.4-0.5,0.6c-0.2,0.2-0.4,0.4-0.6,0.6c-0.2,0.2-0.4,0.4-0.6,0.5l1,0.5c0.2-0.1,0.3-0.3,0.5-0.5
																c0.2-0.2,0.3-0.3,0.5-0.5c0.2-0.2,0.3-0.3,0.5-0.5c0.1-0.2,0.3-0.3,0.4-0.5c0,0,0,0,0,0c0,0,0,0,0,0c0,0,0,0,0,0
																c0,0,0,0,0,0c0,0,0,0,0,0c0,0,0,0,0,0c0,0,0,0,0,0c0,0,0,0,0,0c0,0,0,0,0,0c0,0,0,0,0,0c0,0,0,0,0,0c0,0,0,0,0,0
																c0,0,0,0,0,0c0,0,0,0,0,0c0,0,0,0,0,0c0,0,0,0,0,0c0,0,0,0,0,0c0,0,0,0,0,0c0,0,0,0,0,0c0,0,0,0,0,0c0,0,0,0,0,0
																c0,0,0,0,0,0c0,0,0,0,0,0c0,0,0,0,0,0c0,0,0,0,0,0c0,0,0,0,0,0c0,0,0,0,0,0c0,0,0,0,0,0c0,0,0,0,0.1-0.1
																c0,0,0,0,0.1-0.1c0,0,0,0,0.1-0.1c0,0,0-0.1,0.1-0.1c0.1-0.2,0.3-0.3,0.4-0.5c0.1-0.2,0.2-0.3,0.4-0.5
																c0.1-0.2,0.2-0.3,0.3-0.5c0.1-0.2,0.2-0.3,0.3-0.5l-1-0.4l1,0.5c-0.1,0.1-0.1,0.2-0.2,0.3c0.1-0.1,0.1-0.2,0.2-0.3
																l3.2-4.3c0,0.1,0,0.2,0.1,0.4l0,0c0,0,0,0,0,0c0,0,0,0,0,0c0,0,0,0,0,0c0,0,0,0,0,0c0,0,0,0,0,0c0,0,0,0,0,0
																l-1.3-3.8c0-0.2,0-0.3-0.1-0.5c0-0.1-0.1-0.3-0.1-0.4c0-0.1-0.1-0.3-0.1-0.4c0-0.1-0.1-0.3-0.1-0.4l1.3,3.7
																c0,0.1,0.1,0.3,0.1,0.4c0,0.1,0.1,0.3,0.1,0.5c0,0.2,0.1,0.3,0.1,0.5c0-0.2-0.1-0.3-0.1-0.5c0-0.2-0.1-0.3-0.1-0.5
																c0-0.1-0.1-0.3-0.1-0.4l-1.3-3.7c0,0.1,0.1,0.3,0.1,0.4c0,0.1,0.1,0.3,0.1,0.4c0,0.1,0.1,0.3,0.1,0.4
																c0,0.2,0,0.3,0.1,0.5l1.3,3.8c0,0,0,0,0,0c0,0,0,0,0,0c0,0,0,0,0,0c0,0,0,0,0,0c0,0,0,0,0,0c0,0,0,0,0,0l0,0
																c0-0.1,0-0.2-0.1-0.4l-1.2-3.3c0.2,0.6,0.4,1.3,0.7,1.9l0.6,1.9c0.1,0.7,0.1,1.4,0.1,2.1c-0.1,0.7-0.2,1.5-0.4,2.3
																c-0.2,0.8-0.5,1.6-0.9,2.4c-0.1,0.3-0.3,0.6-0.5,0.9v0c0,0,0,0.1,0,0.1c-0.1,0.1-0.1,0.2-0.2,0.4c0,0,0,0,0,0
																c0,0.1-0.1,0.2-0.1,0.2c-0.1,0.1-0.1,0.2-0.2,0.2c0,0,0,0,0,0c-0.1,0.2-0.2,0.3-0.3,0.5c0,0,0,0,0,0c0,0,0,0,0,0v0
																c-0.1,0.1-0.2,0.3-0.3,0.4c0,0,0,0,0,0l0,0c0,0,0,0-0.1,0.1c0,0,0,0-0.1,0.1c0,0,0,0,0,0c0,0,0,0,0,0c0,0,0,0,0,0
																c0,0,0,0,0,0c0,0,0,0,0,0c0,0,0,0,0,0c0,0,0,0,0,0c0,0,0,0,0,0l0,0c0,0,0,0,0,0c0,0,0,0,0,0c0,0,0,0,0,0c0,0,0,0,0,0
																c0,0,0,0,0,0c0,0,0,0,0,0c0,0,0,0,0,0c0,0,0,0,0,0c0,0,0,0,0,0c0,0,0,0,0,0c0,0,0,0,0,0c0,0,0,0,0,0s0,0,0,0
																c0,0,0,0,0,0s0,0,0,0c0,0,0,0,0,0c0,0,0,0,0,0c0,0,0,0,0,0c0,0,0,0,0,0c0,0,0,0,0,0s0,0,0,0c0,0,0,0,0,0c0,0,0,0,0,0
																c0,0,0,0,0,0c0,0,0,0,0,0c0,0,0,0,0,0c0,0,0,0,0,0c0,0,0,0,0,0c0,0,0,0,0,0c-0.1,0.1-0.1,0.2-0.2,0.2l0,0
																c0,0,0,0,0,0c0,0,0,0,0,0c0,0,0,0,0,0c0,0,0,0,0,0l0,0C95,65,95,65.1,94.9,65.2c0,0.1-0.1,0.1-0.1,0.2c0,0,0,0,0,0
																c-0.1,0.1-0.2,0.2-0.3,0.3c0,0,0,0,0,0c0,0,0,0,0,0c0,0,0,0,0,0c-0.1,0.1-0.2,0.2-0.3,0.3c0,0-0.1,0.1-0.1,0.1
																c0,0,0,0,0,0c0,0,0,0,0,0c-0.1,0.1-0.1,0.1-0.2,0.2c-0.1,0.1-0.2,0.2-0.3,0.3c-0.7,0.6-1.4,1.2-2.1,1.7
																c-0.7,0.5-1.5,1.1-2.3,1.5c-0.8,0.5-1.6,0.9-2.5,1.3s-1.7,0.7-2.6,1c-0.3,0.1-0.6,0.2-0.8,0.3
																c-0.3,0.1-0.6,0.2-0.8,0.2c-0.3,0.1-0.6,0.1-0.8,0.2c-0.3,0.1-0.6,0.1-0.8,0.2c0,0,0,0,0,0c-0.3,0-0.6,0.1-0.9,0.1
																c-0.9,0.1-1.7,0.2-2.6,0.2c-1.1,0-2.2,0-3.2-0.2c-1-0.1-2-0.4-2.9-0.7c-0.9-0.3-1.8-0.7-2.5-1.1
																c-0.1-0.1-0.2-0.1-0.3-0.2c-0.1,0-0.1-0.1-0.2-0.1l0,0c0,0,0,0,0,0c0,0-0.1,0-0.1-0.1c-0.1-0.1-0.2-0.1-0.3-0.2
																c-0.1-0.1-0.2-0.1-0.3-0.2c0,0,0,0,0,0c0,0-0.1-0.1-0.1-0.1c-0.1-0.1-0.3-0.2-0.4-0.3c0,0,0,0,0,0c0,0,0,0,0,0
																c0,0,0,0,0,0c0,0,0,0,0,0c0,0,0,0-0.1,0c0,0,0,0-0.1,0c0,0,0,0-0.1,0c0,0,0,0-0.1,0c0,0,0,0,0,0c0,0,0,0,0,0
																c0,0,0,0,0,0c0,0,0,0,0,0c0,0,0,0,0,0s0,0,0,0c0,0,0,0,0,0s0,0,0,0c0,0,0,0,0,0c0,0,0,0,0,0s0,0,0,0c0,0,0,0,0,0
																c0,0,0,0,0,0c0,0,0,0,0,0c0,0,0,0,0,0c0,0,0,0,0,0l0,0l0,0c0,0,0,0-0.1,0c0,0,0,0,0,0c0,0,0,0,0,0c0,0,0,0,0,0
																c0,0,0,0,0,0h0c0,0,0,0,0,0c0,0,0,0,0,0c0,0,0,0,0,0c0,0,0,0,0,0l0,0c0,0,0,0,0,0l0,0c0,0,0,0,0,0c0,0,0,0,0,0
																c0,0,0,0,0,0c0,0,0,0,0,0v0l0,0v0c0,0,0,0,0,0c0,0,0,0,0,0l0,0c0,0,0,0,0,0c0,0,0,0,0,0c0,0,0,0,0,0c0,0,0,0,0,0
																c0,0,0,0,0,0c0,0,0,0,0,0c0,0,0,0,0,0c0,0,0,0,0,0c0,0-0.1-0.1-0.1-0.1c0,0-0.1-0.1-0.1-0.1c0,0,0,0,0,0
																c0,0,0,0-0.1-0.1c0-0.1-0.1-0.1-0.1-0.2c0,0,0,0,0-0.1c0,0,0,0,0,0c0,0-0.1-0.1-0.1-0.1c-0.1-0.1-0.1-0.1-0.2-0.2
																l0,0c0,0-0.1-0.1-0.1-0.1c-0.1-0.1-0.2-0.2-0.2-0.4l-2.1-3.3c0.1,0.1,0.1,0.2,0.2,0.3c0,0,0.1,0.1,0.1,0.1
																c0.1,0.1,0.2,0.2,0.2,0.3c0,0,0,0.1,0.1,0.1c0.1,0.1,0.1,0.1,0.2,0.2c0,0,0.1,0.1,0.1,0.1c0.1,0.1,0.1,0.2,0.2,0.2
																c0.1,0.1,0.2,0.2,0.3,0.3l0,0c0,0,0,0,0,0c0,0,0,0,0,0c0,0,0,0,0,0c0,0,0,0,0,0l0,0l0,0c0,0,0,0,0,0c0,0,0,0,0,0
																c0,0,0,0,0,0c0,0,0,0,0,0c0,0,0,0,0,0c0,0,0,0,0,0c0,0,0,0,0,0s0,0,0,0c0,0,0,0,0,0s0,0,0,0c0,0,0,0,0,0c0,0,0,0,0,0
																c0,0,0,0,0,0c0,0,0,0,0,0c0,0,0,0,0,0c0,0,0,0,0,0c0,0,0,0,0.1,0c0,0,0,0,0.1,0c0,0,0,0,0.1,0c0,0,0,0,0.1,0
																c0,0,0,0,0,0c0,0,0,0,0,0c0,0,0,0,0,0c0,0,0,0,0,0c0.1,0.1,0.2,0.2,0.4,0.3c0.1,0.1,0.3,0.2,0.4,0.3
																c0.1,0.1,0.3,0.2,0.4,0.2c0,0,0,0,0,0c0.1,0.1,0.3,0.2,0.4,0.2l0,0c0,0,0,0,0.1,0l0,0c0.8,0.4,1.6,0.8,2.5,1
																c0.9,0.3,1.9,0.5,2.9,0.6c1,0.1,2.1,0.1,3.3,0.1c0.1,0,0.1,0,0.2,0c1.1-0.1,2.3-0.2,3.4-0.4c0,0,0,0,0,0
																c0.3-0.1,0.6-0.1,0.8-0.2c0.3-0.1,0.6-0.1,0.9-0.2c0.3-0.1,0.6-0.2,0.9-0.2s0.6-0.2,0.9-0.3c0.9-0.3,1.8-0.6,2.7-1
																c0.9-0.4,1.7-0.8,2.6-1.3c0.8-0.4,1.6-0.9,2.4-1.5c0.8-0.6,1.5-1.1,2.2-1.8c0,0,0,0,0.1-0.1l0,0
																c0.2-0.1,0.3-0.3,0.5-0.4c0,0,0,0,0,0c0.2-0.1,0.3-0.3,0.5-0.5c0,0,0,0,0,0c0.2-0.2,0.3-0.3,0.4-0.5
																c0.1-0.2,0.3-0.3,0.4-0.5c0,0,0,0,0,0c0,0,0,0,0,0c0,0,0,0,0,0c0,0,0,0,0,0c0,0,0,0,0,0c0,0,0,0,0,0c0,0,0,0,0,0
																c0,0,0,0,0,0c0,0,0,0,0,0c0,0,0,0,0,0c0,0,0,0,0,0c0,0,0,0,0,0c0,0,0,0,0,0c0,0,0,0,0,0c0,0,0,0,0,0c0,0,0,0,0,0
																c0,0,0,0,0,0c0,0,0,0,0,0c0,0,0,0,0,0c0,0,0,0,0,0c0,0,0,0,0,0c0,0,0,0,0,0c0,0,0,0,0,0s0,0,0,0c0,0,0,0,0,0
																c0,0,0,0,0,0c0,0,0,0,0,0s0,0,0,0c0,0,0,0,0,0c0,0,0,0,0,0c0,0,0,0,0.1-0.1c0,0,0,0,0.1-0.1c0,0,0,0,0.1-0.1
																c0.1-0.2,0.2-0.3,0.3-0.5c0.1-0.2,0.3-0.4,0.4-0.5c0.1-0.1,0.1-0.2,0.2-0.2c0.1-0.1,0.1-0.2,0.2-0.3
																c0.1-0.1,0.2-0.2,0.2-0.4c0.2-0.3,0.4-0.6,0.5-1c0.4-0.8,0.7-1.6,1-2.4c0.2-0.8,0.4-1.5,0.4-2.2
																c0.1-0.7,0.1-1.4,0-2.1c0.1,0.7,0.1,1.4,0,2.1c-0.1,0.7-0.2,1.5-0.4,2.2c-0.2,0.8-0.6,1.6-1,2.4
																c-0.2,0.3-0.4,0.6-0.5,1c-0.1,0.1-0.1,0.2-0.2,0.4c-0.1,0.1-0.1,0.2-0.2,0.3c-0.1,0.1-0.1,0.2-0.2,0.2
																c-0.1,0.2-0.3,0.4-0.4,0.5c-0.1,0.2-0.2,0.3-0.3,0.5c0,0,0,0.1-0.1,0.1c0,0,0,0-0.1,0.1c0,0,0,0-0.1,0.1c0,0,0,0,0,0
																c0,0,0,0,0,0c0,0,0,0,0,0c0,0,0,0,0,0c0,0,0,0,0,0c0,0,0,0,0,0c0,0,0,0,0,0c0,0,0,0,0,0c0,0,0,0,0,0c0,0,0,0,0,0
																c0,0,0,0,0,0c0,0,0,0,0,0c0,0,0,0,0,0c0,0,0,0,0,0c0,0,0,0,0,0c0,0,0,0,0,0c0,0,0,0,0,0c0,0,0,0,0,0c0,0,0,0,0,0
																c0,0,0,0,0,0c0,0,0,0,0,0c0,0,0,0,0,0c0,0,0,0,0,0c0,0,0,0,0,0c0,0,0,0,0,0c0,0,0,0,0,0c0,0,0,0,0,0s0,0,0,0
																c0,0,0,0,0,0c0,0,0,0,0,0c-0.1,0.2-0.3,0.3-0.4,0.5c-0.1,0.2-0.3,0.3-0.4,0.5c0,0,0,0,0,0c-0.2,0.2-0.3,0.3-0.5,0.5
																c0,0,0,0,0,0c-0.2,0.1-0.3,0.3-0.5,0.4v0c0,0,0,0-0.1,0.1c-0.7,0.6-1.4,1.2-2.2,1.8c-0.8,0.6-1.6,1.1-2.4,1.5
																c-0.8,0.5-1.7,0.9-2.6,1.3c-0.9,0.4-1.8,0.7-2.7,1c-0.3,0.1-0.6,0.2-0.9,0.3c-0.3,0.1-0.6,0.2-0.9,0.2
																c-0.3,0.1-0.6,0.1-0.9,0.2c-0.3,0.1-0.6,0.1-0.8,0.2c0,0,0,0,0,0c-1.1,0.2-2.3,0.4-3.4,0.4c-0.1,0-0.1,0-0.2,0
																c-1.1,0.1-2.2,0-3.3-0.1c-1-0.1-2-0.3-2.9-0.6c-0.9-0.3-1.8-0.6-2.5-1l0,0c0,0,0,0-0.1,0l0,0
																c-0.1-0.1-0.3-0.2-0.4-0.2c0,0,0,0,0,0c-0.1-0.1-0.3-0.2-0.4-0.2c-0.1-0.1-0.3-0.2-0.4-0.3c-0.1-0.1-0.2-0.2-0.4-0.3
																c0,0,0,0,0,0c0,0,0,0,0,0c0,0,0,0,0,0c0,0,0,0,0,0c0,0,0,0-0.1,0c0,0,0,0-0.1,0c0,0,0,0-0.1,0c0,0,0,0-0.1,0
																c0,0,0,0,0,0c0,0,0,0,0,0c0,0,0,0,0,0c0,0,0,0,0,0c0,0,0,0,0,0c0,0,0,0,0,0c0,0,0,0,0,0c0,0,0,0,0,0c0,0,0,0,0,0
																s0,0,0,0c0,0,0,0,0,0s0,0,0,0c0,0,0,0,0,0c0,0,0,0,0,0c0,0,0,0,0,0c0,0,0,0,0,0l0,0l0,0c0,0,0,0,0,0c0,0,0,0,0,0
																c0,0,0,0,0,0c0,0,0,0,0,0l0,0c-0.1-0.1-0.2-0.2-0.3-0.3c-0.1-0.1-0.1-0.1-0.2-0.2c0,0-0.1-0.1-0.1-0.1
																c-0.1-0.1-0.1-0.1-0.2-0.2c0,0,0-0.1-0.1-0.1c-0.1-0.1-0.2-0.2-0.2-0.3c0,0-0.1-0.1-0.1-0.1
																c-0.1-0.1-0.2-0.2-0.2-0.3l2.1,3.3c0.1,0.1,0.2,0.2,0.2,0.4c0,0,0.1,0.1,0.1,0.1l0,0c0.1,0.1,0.1,0.1,0.2,0.2
																c0,0,0.1,0.1,0.1,0.1c0,0,0,0,0,0c0,0,0,0,0,0.1c0,0.1,0.1,0.1,0.1,0.2c0,0,0,0.1,0.1,0.1c0,0,0,0,0,0
																c0,0,0.1,0.1,0.1,0.1c0,0,0.1,0.1,0.1,0.1c0,0,0,0,0,0c0,0,0,0,0,0c0,0,0,0,0,0c0,0,0,0,0,0c0,0,0,0,0,0c0,0,0,0,0,0
																c0,0,0,0,0,0c0,0,0,0,0,0l0,0c0,0,0,0,0,0c0,0,0,0,0,0l0,0l0,0l0,0c0,0,0,0,0,0s0,0,0,0c0,0,0,0,0,0c0,0,0,0,0,0l0,0
																c0,0,0,0,0,0l0,0c0,0,0,0,0,0c0,0,0,0,0,0c0,0,0,0,0,0s0,0,0,0l0,0c0,0,0,0,0,0c0,0,0,0,0,0c0,0,0,0,0,0c0,0,0,0,0,0
																c0,0,0,0,0,0l0,0l0,0c0,0,0,0,0,0c0,0,0,0,0,0c0,0,0,0,0,0c0,0,0,0,0,0c0,0,0,0,0,0c0,0,0,0,0,0c0,0,0,0,0,0
																c0,0,0,0,0,0s0,0,0,0c0,0,0,0,0,0s0,0,0,0c0,0,0,0,0,0c0,0,0,0,0,0c0,0,0,0,0,0c0,0,0,0,0,0c0,0,0,0,0,0
																c0,0,0,0,0.1,0s0,0,0.1,0c0,0,0,0,0.1,0c0,0,0,0,0.1,0c0,0,0,0,0,0c0,0,0,0,0,0c0,0,0,0,0,0c0,0,0,0,0,0
																c0.1,0.1,0.2,0.2,0.4,0.3c0,0,0.1,0.1,0.1,0.1c0,0,0,0,0,0c0.1,0.1,0.2,0.1,0.3,0.2c0.1,0.1,0.2,0.1,0.3,0.2
																c0,0,0.1,0,0.1,0.1c0,0,0,0,0,0l0,0c0.1,0,0.1,0.1,0.2,0.1c0.1,0.1,0.2,0.1,0.3,0.2c0.8,0.4,1.6,0.8,2.5,1.1
																c0.9,0.3,1.9,0.5,2.9,0.7c1,0.1,2.1,0.2,3.2,0.2c0.9,0,1.7-0.1,2.6-0.2c0.3,0,0.6-0.1,0.9-0.1c0,0,0,0,0,0
																c0.3,0,0.6-0.1,0.8-0.2c0.3-0.1,0.6-0.1,0.8-0.2c0.3-0.1,0.6-0.1,0.8-0.2c0.3-0.1,0.6-0.2,0.8-0.3
																c0.9-0.3,1.7-0.6,2.6-1c0.9-0.4,1.7-0.8,2.5-1.3c0.8-0.5,1.6-1,2.3-1.5c0.7-0.5,1.4-1.1,2.1-1.7
																c0.1-0.1,0.2-0.2,0.3-0.3c0.1-0.1,0.1-0.1,0.2-0.2c0,0,0,0,0,0c0,0,0,0,0,0c0,0,0.1-0.1,0.1-0.1
																c0.1-0.1,0.2-0.2,0.3-0.3c0,0,0,0,0,0c0,0,0,0,0,0c0,0,0,0,0,0c0.1-0.1,0.2-0.2,0.3-0.3c0,0,0,0,0,0
																c0-0.1,0.1-0.1,0.1-0.2C95,65.1,95,65,95.1,65v0c0,0,0,0,0,0c0,0,0,0,0,0c0,0,0,0,0,0c0,0,0,0,0,0v0
																c0.1-0.1,0.1-0.1,0.2-0.2c0,0,0,0,0,0c0,0,0,0,0,0c0,0,0,0,0,0c0,0,0,0,0,0c0,0,0,0,0,0c0,0,0,0,0,0c0,0,0,0,0,0
																c0,0,0,0,0,0c0,0,0,0,0,0c0,0,0,0,0,0c0,0,0,0,0,0c0,0,0,0,0,0c0,0,0,0,0,0s0,0,0,0s0,0,0,0c0,0,0,0,0,0c0,0,0,0,0,0
																s0,0,0,0c0,0,0,0,0,0c0,0,0,0,0,0c0,0,0,0,0,0s0,0,0,0c0,0,0,0,0,0c0,0,0,0,0,0c0,0,0,0,0,0c0,0,0,0,0,0c0,0,0,0,0,0
																c0,0,0,0,0,0s0,0,0,0l0,0c0,0,0,0,0,0c0,0,0,0,0,0c0,0,0,0,0,0l0,0c0,0,0,0,0,0c0,0,0,0,0,0c0,0,0,0,0,0c0,0,0,0,0,0
																c0,0,0,0,0.1-0.1c0,0,0,0,0.1-0.1l0,0c0,0,0,0,0,0c0.1-0.1,0.2-0.3,0.3-0.4v0c0,0,0,0,0,0c0,0,0,0,0,0
																c0.1-0.2,0.2-0.3,0.3-0.5c0,0,0,0,0,0c0.1-0.1,0.1-0.2,0.2-0.2c0-0.1,0.1-0.2,0.1-0.2c0,0,0,0,0,0
																c0.1-0.1,0.1-0.2,0.2-0.4c0,0,0-0.1,0-0.1l0,0c0.2-0.3,0.3-0.6,0.5-0.9c0.4-0.8,0.7-1.6,0.9-2.4
																c0.2-0.8,0.3-1.5,0.4-2.3c0.1-0.7,0-1.4-0.1-2.1l-0.6-1.9c-0.2-0.6-0.4-1.3-0.7-1.9l-0.1-0.6c0-0.1,0-0.2-0.1-0.3
																c0,0,0,0,0-0.1c0,0,0-0.1,0-0.1c0-0.1,0-0.2-0.1-0.2c0,0,0-0.1,0-0.1c0,0,0,0,0,0c0,0,0-0.1,0-0.1
																c0-0.1-0.1-0.2-0.1-0.4c0,0,0,0,0,0c0,0,0,0,0-0.1c-0.2-0.4-0.3-0.8-0.6-1.2c0,0,0,0,0-0.1c0,0,0,0,0,0
																c-0.1-0.1-0.1-0.2-0.2-0.3c0,0,0-0.1-0.1-0.1l0,0c-0.3-0.5-0.7-1-1.1-1.4c-1-1-2.3-1.8-3.8-2.4l-0.5,0.5
																c0.5,0.2,0.9,0.4,1.4,0.7c0.4,0.2,0.8,0.5,1.2,0.8c0.4,0.3,0.7,0.6,1,1c0.3,0.3,0.6,0.7,0.9,1.1
																c0.2,0.3,0.3,0.5,0.5,0.8c0.1,0.3,0.3,0.6,0.4,0.9c0.1,0.3,0.2,0.6,0.3,1c0.1,0.3,0.1,0.7,0.2,1c0,0.5,0.1,1,0,1.6
																c0,0.6-0.1,1.1-0.3,1.7c-0.1,0.6-0.3,1.2-0.6,1.8c-0.3,0.6-0.6,1.2-0.9,1.8l0,0c-0.1,0.2-0.2,0.4-0.4,0.6
																c-0.1,0.2-0.3,0.4-0.4,0.6c-0.1,0.2-0.3,0.4-0.5,0.6c-0.2,0.2-0.3,0.4-0.5,0.6c-0.2,0.2-0.3,0.4-0.5,0.6
																c-0.2,0.2-0.4,0.4-0.5,0.6c-0.2,0.2-0.4,0.4-0.6,0.6c-0.2,0.2-0.4,0.4-0.6,0.5l1,0.5l0,0l0,0c0,0,0,0,0,0
																c0.1-0.1,0.2-0.2,0.4-0.3c0,0,0,0,0.1-0.1c0,0,0,0,0.1,0c0,0,0.1-0.1,0.1-0.1c0,0,0,0,0,0c0,0,0,0,0,0
																c0.1-0.1,0.1-0.1,0.2-0.2c0,0,0,0-0.1,0.1c0,0,0,0,0,0c0.1-0.1,0.1-0.1,0.2-0.2c0,0,0.1-0.1,0.1-0.1c0,0,0,0,0,0
																c0,0,0,0,0.1-0.1c0.1-0.1,0.2-0.2,0.3-0.4c0,0,0,0,0,0c0,0,0,0,0,0c0.1-0.2,0.3-0.3,0.4-0.5c0,0,0,0,0,0c0,0,0,0,0,0
																c0,0,0,0,0,0c0,0,0,0,0,0c0,0,0,0,0,0c0,0,0,0,0,0c0,0,0,0,0,0c0,0,0,0,0,0c0,0,0,0,0,0c0,0,0,0,0,0c0,0,0,0,0,0
																c0,0,0,0,0,0c0,0,0,0,0,0c0,0,0,0,0,0c0,0,0,0,0,0c0,0,0,0,0,0c0,0,0,0,0,0c0,0,0,0,0,0c0,0,0,0,0,0c0,0,0,0,0,0
																c0,0,0,0,0,0c0,0,0,0,0,0c0,0,0,0,0,0c0,0,0,0,0,0c0,0,0,0,0,0c0,0,0,0,0,0s0,0,0,0c0,0,0,0,0,0c0,0,0,0,0.1-0.1
																c0,0,0,0,0.1-0.1c0,0,0,0,0.1-0.1c0,0,0-0.1,0.1-0.1c0.1-0.1,0.2-0.2,0.3-0.4c0,0,0,0,0,0.1c0,0,0.1-0.1,0.1-0.1
																c0,0,0-0.1,0.1-0.1c0,0,0-0.1,0.1-0.1c0,0,0.1-0.1,0.1-0.1c0-0.1,0.1-0.1,0.1-0.2c0,0,0.1-0.1,0.1-0.1c0,0,0,0,0,0
																c0,0,0-0.1,0.1-0.1c0,0,0,0,0,0c0,0,0-0.1,0.1-0.1c0,0,0,0,0,0.1c0,0,0,0,0-0.1c0-0.1,0.1-0.1,0.1-0.2
																c0,0,0.1-0.1,0.1-0.1c0,0,0,0,0,0c0,0,0,0,0,0c0,0,0,0,0-0.1c0,0,0,0,0,0c0.1-0.1,0.1-0.2,0.2-0.3c0,0,0,0,0,0
																c0,0,0-0.1,0-0.1l0,0c0.8-1.4,1.4-2.7,1.7-4c0.3-1.2,0.3-2.4,0.2-3.6h0c0,0,0,0,0-0.1c0-0.1,0-0.2-0.1-0.4
																c0-0.1,0-0.1,0-0.2l-2.3-2.8c0.2,0.3,0.3,0.5,0.5,0.8c0.1,0.3,0.3,0.6,0.4,0.9c0.1,0.3,0.2,0.6,0.3,1
																c0.1,0.3,0.1,0.7,0.2,1l1.1-0.3c0-0.3-0.1-0.7-0.2-1c-0.1-0.3-0.2-0.6-0.3-1c-0.1-0.3-0.2-0.6-0.4-0.9
																c-0.1-0.3-0.3-0.6-0.5-0.8l-1,0.3l-3.4,0.9l3.4-0.9c0.2,0.3,0.3,0.5,0.5,0.8c0.1,0.3,0.3,0.6,0.4,0.9
																c0.1,0.3,0.2,0.6,0.3,1c0.1,0.3,0.1,0.7,0.2,1l-3.7,0.9c0-0.4,0-0.7-0.1-1c0-0.3-0.1-0.7-0.2-1
																c-0.1-0.3-0.2-0.6-0.3-0.9c-0.1-0.3-0.3-0.6-0.5-0.8L85,44l1.9-1.8c0.2,0,0.3,0,0.5,0.1c0.2,0,0.3,0.1,0.5,0.1
																c0.2,0,0.3,0.1,0.5,0.1c0.2,0,0.3,0.1,0.5,0.1c0.2,0,0.4,0.1,0.5,0.1c0.2,0.1,0.3,0.1,0.5,0.2
																c0.2,0.1,0.3,0.1,0.5,0.2c0.2,0.1,0.3,0.1,0.5,0.2L89,45.1c-0.1-0.1-0.3-0.1-0.4-0.2c-0.2-0.1-0.3-0.1-0.5-0.2
																c-0.2-0.1-0.3-0.1-0.5-0.2c-0.2-0.1-0.3-0.1-0.5-0.2c-0.2,0-0.3-0.1-0.5-0.1c-0.2,0-0.3-0.1-0.5-0.1
																c-0.2,0-0.4-0.1-0.5-0.1C85.4,44,85.2,44,85,44l-0.1,9.3c0.6,3.1-1.7,5.6-5.1,5.6c-3.4,0-6.7-2.4-7.3-5.5
																c-0.6-3.1,1.7-5.6,5.1-5.6c3.4,0,6.7,2.4,7.3,5.5l37.9-3.8v2.7h-3.3v-2.8c0-2.8-1.1-4.5-3.6-4.5
																c-2.5,0-3.6,1.7-3.6,4.5v16.4c0,2.8,1.1,4.5,3.6,4.5c2.5,0,3.6-1.7,3.6-4.5v-6.2h-3.2v-3.1h6.5v9.1
																c0,4.7-2.2,7.8-7,7.8c-4.7,0-6.9-3.1-6.9-7.8v-16c0-4.7,2.2-7.8,6.9-7.8c4.8,0,7,3.1,7,7.8"/>
														</g>
													</g>
												</g>
											</g>
										</g>
									</g>
								</g>
							</g>
						</g>
					</g>
				</g>
			</g>
		</g>
		<g id="g20" transform="translate(107.2656,27.4448)">
			<path id="path22" class="st1" d="M14.3,22.2v2.6h-3.2V22c0-2.7-1.1-4.4-3.6-4.4C5.1,17.6,4,19.3,4,22v16.1c0,2.7,1.1,4.4,3.6,4.4
				c2.5,0,3.6-1.6,3.6-4.4V32H8v-3h6.3v8.9c0,4.6-2.2,7.6-6.9,7.6c-4.6,0-6.8-3-6.8-7.6V22.2c0-4.6,2.2-7.6,6.8-7.6
				C12.1,14.6,14.3,17.6,14.3,22.2"/>
		</g>
	</g>
</g>
</svg>
