<svg version="1.1" id="svg2" xmlns="http://www.w3.org/2000/svg" xmlns:xlink="http://www.w3.org/1999/xlink" x="0" y="0" viewBox="0 0 238 116" xml:space="preserve" enable-background="new 0 0 238 116"><style>.st1{fill:#2b2b2b}.st2{fill:#ca262b}.st3{fill:#89a8a3}.st5{fill:#fff}.st7{fill:#c0ddd8}</style><g id="g12"><defs><path id="SVGID_1_" d="M0 35.1h238v45.8H0z"/></defs><clipPath id="SVGID_2_"><use xlink:href="#SVGID_1_" overflow="visible"/></clipPath><g id="g14" clip-path="url(#SVGID_2_)"><g id="g24" transform="translate(113.527 14.966)"><path id="path26" class="st1" d="M16.3 48.8h6.9l-3.5-17.9-3.4 17.9zm-.5 3L14.7 58h-3.2l5.9-31h5l5.9 31h-3.5l-1.2-6.2h-7.8z"/></g><g id="g28" transform="translate(136.363 6.969)"><path id="path30" class="st1" d="M19.6 66h-3.3l-5.1-24.7V66h-3V35H13l5.1 24.8L23 35h4.8v31h-3.3V41.1L19.6 66z"/></g><g id="g32" transform="translate(152.823 9.673)"><path id="path34" class="st1" d="M22 60.2c2.5 0 3.7-1.3 3.7-4.2v-2.7c0-3.5-1.4-4.6-4.3-4.6h-3v11.6H22zm-1-14.7c2.7 0 4.2-.9 4.2-4.1v-1.8c0-2.7-.9-4.1-3.4-4.1h-3.4v10H21zm.9-13.2c4.8 0 6.7 2.3 6.7 6.9v1.5c0 3.3-.9 5.3-3.6 6.2 3 .8 4.2 3.2 4.2 6.6V56c0 4.7-2.3 7.3-7.1 7.3H15v-31h6.9z"/></g><g id="g36" transform="translate(161.75 6.93)"><path id="path38" class="st1" d="M23.3 66.1v-31h3.5V63h8.9v3.1H23.3z"/></g><g id="g40" transform="translate(184.393 21.998)"><path id="path42" class="st1" d="M26.7 33.7v3.1h-7.6v11h9.3V51H15.6V20h12.8v3.1h-9.3v10.6h7.6z"/></g><g id="g44" transform="translate(193.936 21.225)"><path id="path46" class="st1" d="M28 35.4c2.7 0 4.4-.9 4.4-4.3v-3c0-2.8-1-4.3-3.6-4.3h-3.4v11.5H28zm.9-14.6c4.9 0 6.9 2.5 6.9 7.1v2.5c0 3.4-1.2 5.5-3.9 6.4 2.8.8 3.9 3.1 3.9 6.5V48c0 1.4 0 2.7.6 3.7H33c-.4-.9-.6-1.7-.6-3.8V43c0-3.5-1.6-4.6-4.5-4.6h-2.4v13.2H22v-31h6.9z"/></g></g></g><g id="g48" transform="translate(11.118 14.72)"><path id="path50" class="st2" d="M1.6 49.3h6.9L5 31.5 1.6 49.3zm-.4 3L0 58.5h-3.2l5.9-30.9h5l5.9 30.9h-3.4L9 52.3H1.2z"/></g><g id="g52" transform="translate(33.22 21.133)"><path id="path54" class="st2" d="M4.8 35.6v3.1h-7.1v13.4h-3.4V21.2H6.5v3.1h-8.8v11.3h7.1z"/></g><g id="g56" transform="translate(46.357 21.133)"><path id="path58" class="st2" d="M6.7 35.6v3.1H-.4v13.4h-3.4V21.2H8.4v3.1H-.4v11.3h7.1z"/></g><g id="g80" transform="translate(83.785 20.167)"><path id="path82" class="st3" d="M12.1 37.6c-.1.2-.2.3-.3.5-.1.2-.2.3-.3.5-.1.2-.2.3-.4.5s-.2.3-.4.5c0 0 0 .1-.1.1l-.1.1-.1.1c-.1.2-.3.3-.4.5-.1.2-.3.3-.4.5l-.5.5c-.2.1-.3.3-.5.4l-.1.1c.6 1.3 1.1 2.6 1.7 4l.3-.3.2-.2.1-.1.3-.3.3-.3c0-.1.1-.1.1-.2l.2-.2.2-.2.1-.1.1-.1c.1-.2.2-.3.4-.5.1-.2.2-.3.3-.5.1-.2.2-.3.3-.5.1-.2.2-.3.3-.5l-1.3-4.3z"/></g><g id="g84" transform="translate(57.824 11.386)"><path id="path86" class="st3" d="M8.3 56.5c-.1-.1-.3-.2-.4-.2-.1-.1-.3-.2-.4-.2-.1-.1-.3-.2-.4-.3-.1-.1-.2-.2-.4-.3h-.4l-.3-.3-.2-.2-.1-.1-.2-.2s0-.1-.1-.1c-.1-.1-.2-.2-.2-.3l-.1-.1c-.1-.1-.2-.2-.2-.3L7 57.2c.1.1.2.2.2.4l.1.1.2.2.1.1v.1c0 .1.1.1.1.2l.1.1.1.1.1.1h.4c.1.1.2.2.4.3.1.1.3.2.4.3.1.1.3.2.4.3.1.1.3.2.4.2l-1.7-3.2z"/></g><g id="g100" transform="translate(76.657 20.474)"><path id="path102" d="M11.1 37l-.2-.1-.1.1-.1.1-.1.1-.1.1-.1.1-.1.1.2.1.1-.1.1-.1.1-.1.1-.1s0-.1.2-.2m-17.6-7.2l.1.1.1-.1.1-.1.1-.1.1-.1.1-.1.1-.1H-6l-.1.1-.1.1-.1.1s0 .1-.2.2c.1-.1.1 0 0 0m-1 11l.2-.1-.1-.1s-.1 0-.1-.1c0 0-.1 0-.1-.1l-.1-.1-.1-.1-.1-.1-.2.2.1.1.1.1.1.1c.2.1.2.1.3.2m1.2.8l.2-.1h-.1s-.1 0-.1-.1-.1 0-.1-.1c0 0-.1 0-.1-.1 0 0-.1 0-.1-.1h-.1l-.2.2h.1s.1 0 .1.1c0 0 .1 0 .1.1 0 0 .1 0 .1.1.1-.1.2-.1.2 0m.8-12.7l.1.1.1-.1.1-.1.1-.1.1-.1.1-.1.1-.1-.1-.1-.1.1-.1.1-.1.1-.1.1s0 .1-.2.2m17.6 6.8l-.1-.2-.1.1-.1.1-.1.1-.1.1-.1.1-.1.1.2.1.1-.1.1-.1.1-.1.1-.1c.1 0 .1-.1.1-.1m-1.7-10.1l-.2.1h.1s.1 0 .1.1c0 0 .1 0 .1.1 0 0 .1 0 .1.1 0 0 .1 0 .1.1h.1l.2-.1h-.1s-.1 0-.1-.1c0 0-.1 0-.1-.1 0 0-.1 0-.1-.1l-.2-.1m-3.3-.9l-.1.2h.6l.1-.1h-.4s-.1 0-.2-.1m2.6 13.6l-.2-.1-.1.1-.1.1-.1.1-.1.1-.1.1-.1.1.2.1-.1-.1.1-.1.1-.1.1-.1c.2 0 .2-.1.4-.2m-17.1-7.5h.1l.1-.1.1-.1.1-.1.1-.1.1-.1h-.1l-.1.1-.1.1-.1.1-.1.1-.1.1m-1 9.2l.2-.1-.1-.1s0-.1-.1-.1c0 0 0-.1-.1-.1 0 0 0-.1-.1-.1 0 0 0-.1-.1-.1v-.1l-.2.1v.1s0 .1.1.1c0 0 0 .1.1.1.2.1.2.1.3.3-.1-.1 0-.1 0 0m3.7 1.9c-.1 0-.2-.1-.2-.1h-.4l-.1.2h.6l.1-.1m.4-14h.2l.1-.1.1-.1.1-.1.1-.1.1-.1-.1-.1-.1.1-.1.1-.1.1-.1.1c0 .1 0 .2-.2.2M13 34.3l-.2-.1v.1s0 .1-.1.1c0 0 0 .1-.1.1 0 0 0 .1-.1.1s-.1.1-.1.1l-.1.1h.2l.1-.1.1-.1.1-.1s0-.1.1-.1l.1-.1m-1.6-8.1l-.2.1h.1s.1 0 .1.1c0 0 .1 0 .1.1 0 0 .1 0 .1.1 0 0 .1 0 .1.1h.1l.2-.1h-.1s-.1 0-.1-.1c0 0-.1 0-.1-.1s-.1-.1-.3-.2c.1.1.1 0 0 0M8.5 25l-.2.1h1.1l.1-.1h-1m-2.8-.3l-.1.1h.6l.1-.1h-.6m2.4 14.8l-.1-.1-.1.1c-.1 0-.1.1-.2.1s-.1.1-.2.1-.1.1-.2.1-.1.1-.2.1L7 40h.3c.1 0 .1-.1.2-.1s.1-.1.2-.1.1-.1.2-.1.1-.1.2-.1v-.1M-8.3 32l.1.1V32s0-.1.1-.1c0 0 0-.1.1-.1 0 0 0-.1.1-.1 0 0 0-.1.1-.1v-.1H-8v.1l-.1.1s0 .1-.1.1 0 .1-.1.1c.1 0 .1 0 0 .1m-.8 7l.2-.1v-.1s0-.1-.1-.1v-.4l-.2.1v.3c0 .1 0 .1.1.3 0-.1 0-.1 0 0m6 3.2h-1l.1.1h1l-.1-.1m.1-15.1h.2s.1 0 .1-.1c0 0 .1 0 .1-.1 0 0 .1 0 .1-.1 0 0 .1 0 .1-.1h.1l-.1-.1h-.1s-.1 0-.1.1c0 0-.1 0-.1.1 0 0-.1 0-.1.1s0 .2-.2.2m16.6 5.7l-.2-.1v.6h.2v-.4c-.1 0-.1 0 0-.1M12.3 27h-.2l.1.1s0 .1.1.1c0 0 0 .1.1.1 0 0 0 .1.1.1 0 0 0 .1.1.1v.1l.2-.1v-.1s0-.1-.1-.1c0 0 0-.1-.1-.1-.1-.1-.2-.1-.3-.2.1.1.1 0 0 0m-8.1-2.2v.1h.6l.2-.2h-.4c-.2 0-.2 0-.4.1m2.1 15.7l-.1-.2-.1.1c-.1 0-.1.1-.2.1s-.1.1-.2.1-.1.1-.2.1-.1.1-.2.1l-.1.1.2.1.1-.1c.1 0 .1-.1.2-.1s.1-.1.2-.1.1-.1.2-.1.1-.1.2-.1m-15.2-7.4l.1.1v-.1s0-.1.1-.1c0 0 0-.1.1-.1 0 0 0-.1.1-.1 0 0 0-.1.1-.1v-.1h-.2v.1s0 .1-.1.1c0 0 0 .1-.1.1 0 0 0 .1-.1.1v.1m-.6 4.8h.2v-.6l-.2.1v.5m8.2 4.4h-1l-.1.2h1l.1-.2m-.3-15.9l.1.1s.1 0 .1-.1c0 0 .1 0 .1-.1 0 0 .1 0 .1-.1 0 0 .1 0 .1-.1h.1V26h-.1s-.1 0-.1.1c0 0-.1 0-.1.1 0 0-.1 0-.1.1 0 0-.1.1-.2.1m15.4 5.1l-.2-.1v.6h.2v-.5m-.8-3.6l-.2.1v.1s0 .1.1.1c0 0 0 .1.1.1 0 0 0 .1.1.1 0 0 0 .1.1.1v.1l.2-.1v-.1s0-.1-.1-.1c0 0 0-.1-.1-.1 0 0 0-.1-.1-.1 0-.1 0-.1-.1-.2M2.8 25v.1h.6V25H3c-.1-.1-.1-.1-.2 0m1.6 16.4l-.1-.2h-.1c-.1 0-.1 0-.2.1-.1 0-.1 0-.2.1-.1 0-.1 0-.2.1-.1 0-.1 0-.2.1h-.1v.2h.1c.1 0 .1 0 .2-.1.1 0 .1 0 .2-.1.1 0 .1 0 .2-.1.1 0 .1 0 .2-.1h.2m-13.8-7.1h.2v-.6h-.2v.6m-.3 2.4h.2v-.6l-.2.1v.5M.5 42.4v-.2h-1v.2h1m-.7-16.6v.1h.6v-.1H0c0-.1 0 0-.2 0m14 4.4h-.2v.6h.2v-.6M1.3 25.3v.1-.1c.1.1.2.1.2.1h.4v-.1h-.6M2.4 42v-.2h-1v.2h1m11.2-13h-.2v.6l.2-.1V29m-23.3 6.5h.2v-.6h-.2v.4c.1.2.1.2 0 .2m5.2-5.7c-.9.8-1.6 1.6-2.1 2.5-.5.9-.8 1.7-.9 2.6-.1.9 0 1.7.3 2.5s.9 1.5 1.8 2c.9.6 2 .9 3.2 1 1.2.1 2.6 0 3.9-.3 1.4-.3 2.7-.8 4-1.5C7 37.9 8.1 37 9.1 36c.9-1 1.6-2 1.9-3.1.4-1 .4-1.9.3-2.8-.2-.8-.6-1.6-1.2-2.2-.6-.6-1.4-1.1-2.4-1.4-1-.3-2-.4-3.1-.4s-2.2.2-3.2.5c-1.1.3-2.1.7-3.2 1.3-.9.4-1.9 1.1-2.7 1.9m-4.4 12.9c-.1-.1-.3-.2-.4-.3-.1-.1-.3-.2-.4-.4-.1-.1-.2-.2-.3-.4-.1-.1-.2-.3-.3-.4l-2.8 2.7c-.3-.4-.6-.8-.8-1.3-.2-.4-.4-.9-.5-1.4-.1-.5-.2-.9-.3-1.4 0-.5-.1-.9 0-1.4l3.1-.8v-.9c0-.3.1-.6.1-1 .1-.3.1-.6.2-1l.3-.9-3 .8c.2-.5.4-.9.7-1.4.2-.5.5-.9.8-1.3.3-.4.6-.9 1-1.3.3-.4.7-.8 1.1-1.3l1.7.9c.1-.1.2-.3.4-.4l.4-.4.4-.4.4-.4.4-.4c.1-.1.3-.2.5-.4.2-.1.3-.2.5-.4.2-.1.3-.2.5-.3l-1.8-.7c.5-.3 1-.7 1.5-1l1.5-.9c.5-.3 1-.5 1.6-.8.5-.2 1.1-.5 1.6-.7v1.7c.4-.1.7-.3 1.1-.4.4-.1.8-.2 1.1-.4.4-.1.8-.2 1.1-.3.4-.1.8-.2 1.2-.2L3.6 22c.5-.1 1.1-.2 1.6-.3.6-.1 1.1-.1 1.7-.1h1.7c.6 0 1.1.1 1.6.1l-1.9 1.8c.2 0 .4 0 .5.1s.4.1.5.1c.2 0 .4.1.5.1.2 0 .3.1.5.1s.3.1.5.2.3.1.5.2.3.1.5.2.3.1.4.2l1.9-1.9c.5.2.9.4 1.4.7.4.2.8.5 1.2.8.4.3.7.6 1 1 .3.3.6.7.9 1.1l-3.4.9c.2.3.3.5.5.8l.3.9c.1.3.2.6.2 1 0 .3.1.7.1 1l3.7-1c0 .5.1 1 0 1.6 0 .6-.1 1.1-.3 1.7-.1.6-.3 1.2-.6 1.8l-.9 1.8-3.3-1.4c-.1.2-.2.4-.4.6-.1.2-.3.4-.4.6-.1.2-.3.4-.4.6-.2.2-.3.4-.5.6-.2.2-.3.4-.5.6-.2.2-.4.4-.6.5-.2.2-.4.4-.6.5-.2.2-.4.3-.6.5l3.3 1.6c-.6.6-1.3 1.1-2 1.6s-1.5 1-2.2 1.4l-2.4 1.2c-.8.4-1.6.7-2.4 1L5 43.3c-.5.2-1.1.4-1.6.5-.5.2-1.1.3-1.6.4-.5.1-1.1.2-1.6.3-.5.1-1 .1-1.6.1l-.1 3.5c-.8 0-1.6.1-2.3 0-.8 0-1.5-.1-2.2-.3-.7-.1-1.4-.3-2-.5-.6-.2-1.2-.4-1.8-.7l2.9-2.9c-.2-.1-.4-.2-.5-.2-.2-.1-.3-.2-.5-.3-.2-.1-.3-.2-.5-.3-.2 0-.4-.1-.5-.2" fill="#b51c27"/></g><g id="g104" transform="translate(66.296 32.477)"><path id="path106" class="st5" d="M9.6 11.2c.4-.1.7-.3 1.1-.4.4-.1.7-.2 1.1-.3.4-.1.7-.2 1.1-.3.4-.1.7-.2 1.1-.2l.1 1.6c-.4.1-.8.1-1.2.2-.4.1-.8.2-1.1.3-.4.1-.8.2-1.1.4-.4.1-.8.3-1.1.4v-1.7z"/></g><g id="g128" transform="translate(57.906 16.707)"><path id="path130" class="st5" d="M8.4 45.1c.1.1.2.3.3.4.1.1.2.2.3.4.1.1.3.2.4.4.1.1.3.2.4.3.1.1.3.2.5.3.2.1.3.2.5.3.2.1.3.2.5.3.2.1.4.2.5.2l-2.9 2.9c-.2-.1-.4-.2-.5-.3-.2-.1-.3-.2-.5-.3-.2-.1-.3-.2-.5-.3-.2-.1-.3-.2-.5-.4-.1-.1-.3-.2-.4-.3-.1-.1-.3-.2-.4-.4-.1-.1-.2-.2-.3-.4-.1-.1-.2-.3-.3-.4l2.9-2.7z"/></g><g id="g136" transform="translate(65.782 13.761)"><path id="path138" class="st5" d="M9.5 51.4c.5 0 1-.1 1.6-.1.5-.1 1.1-.2 1.6-.3.5-.1 1.1-.2 1.6-.4s1.1-.3 1.6-.5l.2 3.5c-.6.2-1.1.4-1.7.5-.6.2-1.1.3-1.7.4-.6.1-1.1.2-1.7.3-.6.1-1.1.1-1.6.2l.1-3.6z"/></g><g id="g140" transform="translate(74.628 29.659)"><path id="path142" d="M10.8 17.3l-5.9 3.2-5.7-1.6.8 4.9-4.8 4.2 6.4-.1 2.7 4.2 3.1-5 6.5-1.6-4.6-2.9 1.5-5.3z" fill="#b8242a"/></g><g id="g144" transform="translate(74.628 29.659)"><path id="path146" class="st2" d="M10.8 17.3l-5.9 3.2L-.2 19c-.2.1-.3.2-.5.3l.7 4.5-4.8 4.2 4.5-.1C1 27 2.4 26 3.5 25.4c2.7-1.3 4.6-2.3 6.1-2.8l-.1-.1 1.3-5.2m2.7 7.8c.1.1 0 .2.1.3l.4-.1-.5-.2"/></g><g id="g192" transform="translate(66.306 32.83)"><path id="path194" class="st7" d="M9.6 10.5c.4-.1.7-.3 1.1-.4.4-.1.7-.2 1.1-.3.4-.1.7-.2 1.1-.3.4-.1.7-.2 1.1-.2v.4c-.4.1-.7.1-1.1.2-.4.1-.7.2-1.1.3-.4.1-.7.2-1.1.3-.4.1-.7.2-1.1.4v-.4z"/></g><g id="g200" transform="translate(76.367 34.233)"><path id="path202" class="st7" d="M11 7.5c.1 0 .3 0 .4.1.1 0 .3 0 .4.1.1 0 .3 0 .4.1.1 0 .3.1.4.1h.4c.1 0 .3.1.4.1.1 0 .3.1.4.1.1 0 .3.1.4.1.1 0 .3.1.4.1l-.1.7c-.2-.1-.3-.1-.5-.2s-.3-.1-.5-.2-.3-.1-.5-.2-.3-.1-.5-.1-.3-.1-.5-.1-.3-.1-.5-.1-.3-.1-.5-.1-.3 0-.5-.1l.5-.4z"/></g><g id="g212" transform="translate(55.462 14.387)"><path id="path214" class="st7" d="M8 50c.1.1.2.3.3.4.1.1.2.2.3.4.2.1.3.2.4.3.1.1.3.2.4.4.1.1.3.2.5.4.2.1.3.2.5.3.2.1.3.2.5.3.2.1.4.2.5.3l-.7.7c-.1-.1-.3-.2-.4-.2-.1-.1-.3-.2-.4-.2-.1-.1-.3-.2-.4-.3-.1-.1-.2-.2-.4-.3h-.4l-.3-.3-.3-.3-.3-.3-.3-.3L8 50z"/></g><g id="g220" transform="translate(65.698 10.7)"><path id="path222" class="st7" d="M9.5 57.9c.5 0 1.1-.1 1.6-.2.6-.1 1.1-.2 1.7-.3.6-.1 1.1-.2 1.7-.4.6-.2 1.1-.3 1.7-.5l.1 1c-.6.2-1.1.4-1.7.5-.6.1-1.1.3-1.7.4-.6.1-1.1.2-1.7.3-.6.1-1.1.1-1.7.1v-.9z"/></g><g id="g10" transform="matrix(1.33333 0 0 -1.33333 0 53.333)"><g id="g224"><defs><path id="SVGID_3_" d="M61.1 41.6h36.7v28H61.1z"/></defs><clipPath id="SVGID_4_"><use xlink:href="#SVGID_3_" overflow="visible"/></clipPath><g id="g288" clip-path="url(#SVGID_4_)"><g id="g286"><g id="g284"><defs><path id="SVGID_5_" d="M67.9 48.4l.2-.2-.2.2c-.1 0-.1.1-.2.1.1 0 .1-.1.2-.1m8-4.7v.1-.1zm4.4-1.2c.2 0 .5-.1.7-.1-.2 0-.5 0-.7.1zm17.3 6.8s0-.1 0 0v-.2c0-.1 0-.2-.1-.2v-.2c0-.1-.1-.2-.1-.4v-.1c-.2-.4-.3-.8-.6-1.2v-.1c-.1-.1-.1-.2-.2-.3 0 0 0-.1-.1-.1-.3-.5-.7-1-1.1-1.4-1-1-2.3-1.8-3.8-2.4l-.5.3.3-.3c-.1 0-.3-.1-.4-.1-.1 0-.3-.1-.4-.1-.1 0-.3-.1-.4-.1-.1 0-.3-.1-.4-.1h-.4c-.1 0-.3-.1-.4-.1h-.4c-.1 0-.3 0-.4-.1h-.4c-1.3-.1-2.5-.2-3.8-.1-1.1.1-2.2.2-3.3.4-.2 0-.4.1-.5.1-.1 0-.3.1-.4.1h-.1l-.9.3h-.4l-.9.3h-.1c-.1 0-.3.1-.4.1-.2.1-.4.1-.5.2-1.1.4-2.1.9-3.1 1.4-1.2.6-2.3 1.3-3.4 2.1-.1.1-.2.1-.3.2h-.1c-.1.1-.2.2-.4.3s-.2.2-.4.3c-.1.1-.2.2-.4.3H68l-.3.3-.3.3-.3.3-.3.3c-1.2 1.2-2.2 2.5-3 3.9l-.9 1.8v.1l-.3.9c-.2.5-.3.9-.4 1.4 0 .1 0 .2-.1.3v1c-.1 1 0 2 .2 2.9.3 1.1.8 2.2 1.5 3.1l.1.1.1.1v.1l.1.1V65c0 .1.1.1.1.2v.1c.1.1.1.2.2.2l.3.3h.4c.1.1.2.2.4.3.1.1.2.1.3.2h.2l.1.1H66c.1 0 .1.1.2.1h.2c.1.1.2.1.3.2 1.4.7 3 1.3 4.7 1.5 1.4.2 2.8.3 4.3.2h1c.2 0 .4 0 .6-.1h.3c.2 0 .4-.1.6-.1.1 0 .2 0 .3-.1.2 0 .4-.1.5-.1.2 0 .3-.1.5-.1.1 0 .2 0 .4-.1.2 0 .4-.1.6-.1.1 0 .2 0 .3-.1h.1c.2-.1.4-.1.6-.2.1 0 .2-.1.3-.1.2-.1.4-.1.7-.2h.1c1.6-.5 3.1-1.2 4.6-2 2-1 3.8-2.3 5.4-3.7.1-.1.2-.2.4-.3l.1-.1h.1l.1-.1.2-.2-.1.1.2-.2.1-.1.1-.1c.1-.1.2-.2.3-.4.1-.2.3-.3.4-.5l.1-.1.1-.1.1-.1.1-.1c.1-.1.2-.2.3-.4v.1l.1-.1s0-.1.1-.1c0 0 0-.1.1-.1l.1-.1c0-.1.1-.1.1-.2l.1-.1s0-.1.1-.1c0 0 0-.1.1-.1.1-.1.1-.1.1-.2l.1-.1v-.1c.1-.1.1-.2.2-.3v-.1c.8-1.4 1.4-2.7 1.7-4 .3-1.2.3-2.4.2-3.6v-.1c0-.1 0-.2-.1-.4v-.2c-.6.7-.6.6-.6.5"/></defs><clipPath id="SVGID_6_"><use xlink:href="#SVGID_5_" overflow="visible"/></clipPath><g id="g282" clip-path="url(#SVGID_6_)"><g id="g280"><defs><filter id="Adobe_OpacityMaskFilter" filterUnits="userSpaceOnUse" x="61.1" y="41.6" width="36.7" height="28"><feColorMatrix values="1 0 0 0 0 0 1 0 0 0 0 0 1 0 0 0 0 0 1 0"/></filter></defs><mask maskUnits="userSpaceOnUse" x="61.1" y="41.6" width="36.7" height="28" id="mask250"><g id="g260" filter="url(#Adobe_OpacityMaskFilter)"><defs><path id="SVGID_7_" d="M-28120.6-28085.5h56240.4v56240.4h-56240.4z"/></defs><clipPath id="SVGID_8_"><use xlink:href="#SVGID_7_" overflow="visible"/></clipPath><g id="g258"><g id="g256"><g id="g254"><linearGradient id="path252_1_" gradientUnits="userSpaceOnUse" x1="-1947.629" y1="96.29" x2="2096.295" y2="96.29" gradientTransform="matrix(-13.6605 14.1766 -10.8884 -11.8778 2063.442 124.601)"><stop offset="0" stop-color="#fff" stop-opacity=".7"/><stop offset=".401" stop-color="#fff" stop-opacity=".7"/><stop offset=".996" stop-color="#fff" stop-opacity="0"/><stop offset="1" stop-color="#fff" stop-opacity="0"/></linearGradient><path id="path252" d="M-28120.6 28154.9h56240.4v-56240.4h-56240.4v56240.4z" clip-path="url(#SVGID_8_)" fill="url(#path252_1_)"/></g></g></g></g></mask><g id="g278" mask="url(#mask250)"><g id="g276"><linearGradient id="path274_1_" gradientUnits="userSpaceOnUse" x1="71.642" y1="92.18" x2="72.5" y2="92.18" gradientTransform="matrix(-18.214 -18.9022 -14.5179 15.8371 2728.144 -44.357)"><stop offset="0" stop-color="#feffd0"/><stop offset=".401" stop-color="#feffd0"/><stop offset=".996" stop-color="#b3c3b9"/><stop offset="1" stop-color="#b3c3b9"/></linearGradient><path id="path274" d="M67.9 48.4l.2-.2-.2.2c-.1 0-.1.1-.2.1.1 0 .1-.1.2-.1m8-4.7v.1-.1zm4.4-1.2c.2 0 .5-.1.7-.1-.2 0-.5 0-.7.1zm17.3 6.8s0-.1 0 0v-.2c0-.1 0-.2-.1-.2v-.2c0-.1-.1-.2-.1-.4v-.1c-.2-.4-.3-.8-.6-1.2v-.1c-.1-.1-.1-.2-.2-.3 0 0 0-.1-.1-.1-.3-.5-.7-1-1.1-1.4-1-1-2.3-1.8-3.8-2.4l-.5.3.3-.3c-.1 0-.3-.1-.4-.1-.1 0-.3-.1-.4-.1-.1 0-.3-.1-.4-.1-.1 0-.3-.1-.4-.1h-.4c-.1 0-.3-.1-.4-.1h-.4c-.1 0-.3 0-.4-.1h-.4c-1.3-.1-2.5-.2-3.8-.1-1.1.1-2.2.2-3.3.4-.2 0-.4.1-.5.1-.1 0-.3.1-.4.1h-.1l-.9.3h-.4l-.9.3h-.1c-.1 0-.3.1-.4.1-.2.1-.4.1-.5.2-1.1.4-2.1.9-3.1 1.4-1.2.6-2.3 1.3-3.4 2.1-.1.1-.2.1-.3.2h-.1c-.1.1-.2.2-.4.3s-.2.2-.4.3c-.1.1-.2.2-.4.3H68l-.3.3-.3.3-.3.3-.3.3c-1.2 1.2-2.2 2.5-3 3.9l-.9 1.8v.1l-.3.9c-.2.5-.3.9-.4 1.4 0 .1 0 .2-.1.3v1c-.1 1 0 2 .2 2.9.3 1.1.8 2.2 1.5 3.1l.1.1.1.1v.1l.1.1V65c0 .1.1.1.1.2v.1c.1.1.1.2.2.2l.3.3h.4c.1.1.2.2.4.3.1.1.2.1.3.2h.2l.1.1H66c.1 0 .1.1.2.1h.2c.1.1.2.1.3.2 1.4.7 3 1.3 4.7 1.5 1.4.2 2.8.3 4.3.2h1c.2 0 .4 0 .6-.1h.3c.2 0 .4-.1.6-.1.1 0 .2 0 .3-.1.2 0 .4-.1.5-.1.2 0 .3-.1.5-.1.1 0 .2 0 .4-.1.2 0 .4-.1.6-.1.1 0 .2 0 .3-.1h.1c.2-.1.4-.1.6-.2.1 0 .2-.1.3-.1.2-.1.4-.1.7-.2h.1c1.6-.5 3.1-1.2 4.6-2 2-1 3.8-2.3 5.4-3.7.1-.1.2-.2.4-.3l.1-.1h.1l.1-.1.2-.2-.1.1.2-.2.1-.1.1-.1c.1-.1.2-.2.3-.4.1-.2.3-.3.4-.5l.1-.1.1-.1.1-.1.1-.1c.1-.1.2-.2.3-.4v.1l.1-.1s0-.1.1-.1c0 0 0-.1.1-.1l.1-.1c0-.1.1-.1.1-.2l.1-.1s0-.1.1-.1c0 0 0-.1.1-.1.1-.1.1-.1.1-.2l.1-.1v-.1c.1-.1.1-.2.2-.3v-.1c.8-1.4 1.4-2.7 1.7-4 .3-1.2.3-2.4.2-3.6v-.1c0-.1 0-.2-.1-.4v-.2c-.6.7-.6.6-.6.5" fill="url(#path274_1_)"/></g></g></g></g></g></g></g></g><g id="g60"><g id="g62"><g id="g290"><defs><path id="SVGID_9_" d="M62.5 50.2h36.7v23.1H62.5z"/></defs><clipPath id="SVGID_10_"><use xlink:href="#SVGID_9_" overflow="visible"/></clipPath><g id="g354" clip-path="url(#SVGID_10_)"><g id="g352"><g id="g350"><defs><path id="SVGID_11_" d="M97.8 50.2c.1.7.1 1.4 0 2.1-.1.7-.2 1.5-.4 2.2-.2.8-.6 1.6-1 2.4-.2.3-.4.6-.5 1-.1.1-.1.2-.2.4-.1.1-.1.2-.2.3-.1.1-.1.2-.2.2-.1.2-.3.4-.4.5-.1.2-.2.3-.3.5 0 0 0 .1-.1.1l-.1.1-.1.1c-.1.2-.3.3-.4.5-.1.2-.3.3-.4.5l-.5.5c-.2.1-.3.3-.5.4l-.1.1c-.7.6-1.4 1.2-2.2 1.8-.8.6-1.6 1.1-2.4 1.5-.8.5-1.7.9-2.6 1.3-.9.4-1.8.7-2.7 1l-.9.3c-.3.1-.6.2-.9.2-.3.1-.6.1-.9.2-.3.1-.6.1-.8.2-1.1.2-2.3.4-3.4.4h-.2c-1.1.1-2.2 0-3.3-.1-1-.1-2-.3-2.9-.6-.9-.3-1.8-.6-2.5-1h-.1c-.1-.1-.3-.2-.4-.2-.1-.1-.3-.2-.4-.2-.1-.1-.3-.2-.4-.3-.1-.1-.2-.2-.4-.3h-.4l-.3-.3-.2-.2-.1-.1-.2-.2s0-.1-.1-.1c-.1-.1-.2-.2-.2-.3l-.1-.1c-.1-.1-.2-.2-.2-.3l2.1 3.3c.1.1.2.2.2.4l.1.1.2.2.1.1v.1c0 .1.1.1.1.2l.1.1.1.1.1.1h.5c.1.1.2.2.4.3l.1.1c.1.1.2.1.3.2.1.1.2.1.3.2 0 0 .1 0 .1.1.1 0 .1.1.2.1.1.1.2.1.3.2.8.4 1.6.8 2.5 1.1.9.3 1.9.5 2.9.7 1 .1 2.1.2 3.2.2.9 0 1.7-.1 2.6-.2.3 0 .6-.1.9-.1.3 0 .6-.1.8-.2.3-.1.6-.1.8-.2.3-.1.6-.1.8-.2.3-.1.6-.2.8-.3.9-.3 1.7-.6 2.6-1s1.7-.8 2.5-1.3 1.6-1 2.3-1.5c.7-.5 1.4-1.1 2.1-1.7l.3-.3.2-.2.1-.1.3-.3.3-.3c0-.1.1-.1.1-.2.4.6.4.5.5.5l.2-.2.1-.1.1-.1c.1-.1.2-.3.3-.4.1-.2.2-.3.3-.5.1-.1.1-.2.2-.2.1-.1.1-.2.1-.2.1-.1.1-.2.2-.4v-.1c.2-.3.3-.6.5-.9.4-.8.7-1.6.9-2.4.2-.8.3-1.5.4-2.3.1-.7 0-1.4-.1-2.1l-.6-1.9c.5-1.7.3-2.3.1-3"/></defs><clipPath id="SVGID_12_"><use xlink:href="#SVGID_11_" overflow="visible"/></clipPath><g id="g348" clip-path="url(#SVGID_12_)"><g id="g346"><defs><filter id="Adobe_OpacityMaskFilter_1_" filterUnits="userSpaceOnUse" x="61.1" y="41.6" width="61.6" height="31.7"><feColorMatrix values="1 0 0 0 0 0 1 0 0 0 0 0 1 0 0 0 0 0 1 0"/></filter></defs><mask maskUnits="userSpaceOnUse" x="61.1" y="41.6" width="61.6" height="31.7" id="mask316"><g id="g326" filter="url(#Adobe_OpacityMaskFilter_1_)"><defs><path id="SVGID_13_" d="M-28120.6-28085.5h56240.4v56240.4h-56240.4z"/></defs><clipPath id="SVGID_14_"><use xlink:href="#SVGID_13_" overflow="visible"/></clipPath><g id="g324"><g id="g322"><g id="g320"><radialGradient id="path318_1_" cx="60.747" cy="97.791" r="4048.556" gradientTransform="matrix(11.4638 6.7338 -5.2913 6.0867 -179.378 -969.596)" gradientUnits="userSpaceOnUse"><stop offset="0" stop-color="#fff" stop-opacity=".7"/><stop offset=".401" stop-color="#fff" stop-opacity=".7"/><stop offset=".996" stop-color="#fff" stop-opacity="0"/><stop offset="1" stop-color="#fff" stop-opacity="0"/></radialGradient><path id="path318" d="M-28120.6 28154.9h56240.4v-56240.4h-56240.4v56240.4z" clip-path="url(#SVGID_14_)" fill="url(#path318_1_)"/></g></g></g></g></mask><g id="g344" mask="url(#mask316)"><g id="g342"><radialGradient id="path340_1_" cx="66.224" cy="92.331" r="1.881" gradientTransform="matrix(15.2851 -8.9784 -7.055 -8.1156 -262.282 1414.572)" gradientUnits="userSpaceOnUse"><stop offset="0" stop-color="#feffd0"/><stop offset=".401" stop-color="#feffd0"/><stop offset=".996" stop-color="#b3c3b9"/><stop offset="1" stop-color="#b3c3b9"/></radialGradient><path id="path340" d="M70.9 49.8c-1.1 1-1.9 2-2.5 3-.6 1.1-1 2.1-1.2 3.2-.1 1.1 0 2.1.4 3 .4 1 1.2 1.8 2.2 2.5 1.1.7 2.4 1.1 3.9 1.3 1.5.2 3.1.1 4.8-.3 1.7-.4 3.3-1 4.9-1.9 1.6-.9 3-1.9 4.1-3.2 1.1-1.2 1.9-2.5 2.4-3.7.4-1.2.5-2.4.3-3.4s-.7-1.9-1.4-2.7c-.7-.7-1.7-1.3-2.9-1.7-1.2-.4-2.4-.5-3.8-.5-1.3 0-2.6.2-4 .6-1.3.4-2.6.9-3.9 1.5-1.1.5-2.3 1.3-3.3 2.3L69 47l-1.1 1.4c-.1.1-.3.2-.4.4s-.3.2-.4.4-.3.2-.4.4l-.4.4 1.7.9c.1-.1.2-.3.4-.4l.4-.4.4-.4.4-.4.4-.4c.2-.1.3-.2.5-.4.2-.1.3-.2.5-.4.2-.1.3-.2.5-.3l-1.8-.8c-.2.1-.3.2-.5.3-.2.1-.3.2-.5.4-.2.1-.3.2-.5.4-.2.1-.3.2-.4.4l-.3-.2h.4c.1-.1.2-.2.4-.3.1-.1.2-.2.4-.3.1-.1.2-.2.4-.3.1-.1.2-.2.4-.3l.4.2c-.2.1-.3.2-.5.3-.2.1-.3.2-.5.4-.2.1-.3.2-.5.4-.1.1-.3.2-.4.4-.1.1-.3.2-.4.4-.1.1-.3.2-.4.4-.1.1-.3.2-.4.4l-.4.4-.4-.7.3-.3.3-.3.3-.3.3-.3-4.8 7c-.1.3-.2.6-.4.9l-.3.9c-.1.3-.1.6-.2 1 0 .3-.1.6-.1 1l3.1-.8v-.9c0-.3.1-.6.1-1 .1-.3.1-.6.2-1l.3-.9-3 .8-.6.2c-.1.3-.2.6-.4.9l-.3.9c-.1.3-.1.6-.2 1-.1.3-.1.6-.1 1l.7-.2c0-.3 0-.6.1-1 0-.3.1-.6.2-1l.3-.9c.1-.3.2-.6.4-.9l-.6.2-.8 2.4V58c0 .1 0 .2-.1.3V58l-.1.8v-.3.3l.6.2v-.3.3l2 6.5.1.1-.1-.1 2.5 2.1s-.1 0-.1-.1c0 0 .1 0 .1.1l7.2 1.1c-.8 0-1.5-.1-2.2-.3-.7-.1-1.4-.3-2-.5-.6-.2-1.2-.4-1.8-.7-.2-.1-.4-.2-.5-.3-.2-.1-.3-.2-.5-.3-.2-.1-.3-.2-.5-.3-.2-.1-.3-.2-.5-.4-.1-.1-.3-.2-.4-.3-.1-.1-.3-.2-.4-.4-.1-.1-.2-.2-.3-.4-.1-.1-.2-.3-.3-.4-.3-.4-.6-.8-.8-1.3-.2-.4-.4-.9-.5-1.4-.1-.5-.2-.9-.3-1.4 0-.5-.1-.9 0-1.4 0-.3 0-.6.1-1 0-.3.1-.6.2-1l.3-.9c.1-.3.2-.6.4-.9.2-.5.4-.9.7-1.4.2-.5.5-.9.8-1.3.3-.4.6-.9 1-1.3.3-.4.7-.8 1.1-1.3l-.2-.1.2.1c.1-.1.2-.3.4-.4.1-.1.3-.2.4-.4.1-.1.3-.2.4-.4.1-.1.3-.2.4-.4l.4-.4c.2-.1.3-.2.5-.4s.3-.2.5-.4c.2-.1.3-.2.5-.3.5-.3 1-.7 1.5-1l1.5-.9c.5-.3 1-.5 1.6-.8.5-.2 1.1-.5 1.6-.7.4-.1.7-.3 1.1-.4.4-.1.7-.2 1.1-.3.4-.1.7-.2 1.1-.3.4-.1.7-.2 1.1-.2.6-.1 1.1-.2 1.6-.3.6-.1 1.1-.1 1.7-.1h1.7c.6 0 1.1.1 1.6.1.2 0 .3 0 .5.1.2 0 .3.1.5.1s.3.1.5.1.3.1.5.1.4.1.5.1c.2 0 .3.1.5.2s.3.1.5.2.3.1.5.2l.5-.5c-.1 0-.3-.1-.4-.1-.1 0-.3-.1-.4-.1-.1 0-.3-.1-.4-.1-.1 0-.3-.1-.4-.1h-.4c-.1 0-.3-.1-.4-.1h-.4c-.1 0-.3 0-.4-.1H88c-1.3-.1-2.5-.2-3.8-.1-1.1.1-2.2.2-3.3.4-.2 0-.4.1-.5.1-.1 0-.3.1-.4.1h-.1l-.9.3h-.4l-.9.3h-.1c-.1 0-.3.1-.4.1-.2.1-.4.1-.5.2-1.1.4-2.1.9-3.1 1.4-1.2.6-2.3 1.3-3.4 2.1-.1.1-.2.1-.3.2h-.1c-.1.1-.2.2-.4.3-.1.1-.2.2-.4.3-.1.1-.2.2-.4.3h-.4l-.3.3-.3.3-.3.3-.3.3c-1.2 1.2-2.2 2.5-3 3.9l-.9 1.8v.1l-.3.9c-.2.5-.3.9-.4 1.4 0-.1.1-.3.1-.4 0 .2-.1.3-.1.5 0 .1 0 .2-.1.3v1c-.1 1 0 2 .2 2.9.3 1.1.8 2.2 1.5 3.1l-.1-.1c0 .1.1.1.1.2l.1.1v.1l.1.1v-.1c0 .1.1.1.1.2v.1c.1.1.1.2.2.2l.3.3h.4c.1.1.2.2.4.3.1.1.2.1.3.2h.2l.1.1h-.1c.1 0 .1.1.2.1h.2c.1.1.2.1.3.2 1.4.7 3 1.3 4.7 1.5 1.4.2 2.8.3 4.3.2v-.9h-2.3l9.1-.4c.7 1.3 1.3 2.6 2 3.9-.3.1-.6.2-.8.3-.3.1-.6.2-.8.2-.3.1-.6.1-.8.2-.3.1-.6.1-.8.2-1.1.2-2.2.3-3.3.3L76 68.3c1.1-.1 2.3-.2 3.4-.4.3-.1.6-.1.8-.2.3-.1.6-.1.9-.2.3-.1.6-.2.9-.2l.9-.3 6.9-4.6c.7-.5 1.4-1 2-1.6l1 .5c-1.6 1.4-3.4 2.7-5.4 3.7-1.5.8-3 1.4-4.6 2h-.1c-.2.1-.4.1-.7.2-.1 0-.2.1-.3.1-.2.1-.4.1-.6.2H81c-.1 0-.2 0-.3.1-.2 0-.4.1-.6.1-.1 0-.2 0-.4.1-.2 0-.3.1-.5.1s-.4.1-.5.1c-.1 0-.2 0-.3.1-.2 0-.4.1-.6.1h-.3c-.2 0-.4 0-.6.1h-1v-.9c.5 0 1.1-.1 1.6-.2.6-.1 1.1-.2 1.7-.3.6-.1 1.1-.2 1.7-.4.6-.2 1.1-.3 1.7-.5.8-.3 1.6-.6 2.4-1l2.4-1.2c.7-.3 1.4-.9 2.2-1.4l3.7-1.8-.1.1.1-.1-2.7-3.6c.2-.2.3-.4.5-.6.2-.2.3-.4.4-.6.1-.2.3-.4.4-.6.1-.2.2-.4.4-.6l3.3 1.4c-.1.2-.2.4-.4.6-.1.2-.3.4-.4.6-.1.2-.3.4-.5.6-.2.2-.3.4-.5.6-.2.2-.3.4-.5.6-.2.2-.4.4-.5.6l-.6.6c-.2.2-.4.4-.6.5l-3.3-1.6c.2-.2.4-.3.6-.5.2-.2.4-.3.6-.5.2-.2.4-.4.6-.5.2-.2.4-.4.5-.6l1.1-4.7c-1 11.7-11 11.6-15.1 11.4-4.1-.2-8.1-3.2-8.9-7.1-.8-3.9 1.3-8.9 4.8-10.4 19.6-8.6 19.4 3 19.2 6.1l3.9 3.7c-.1.2-.2.4-.4.6-.1.2-.3.4-.4.6-.1.2-.3.4-.5.6-.2.2-.3.4-.5.6-.2.2-.3.4-.5.6-.2.2-.4.4-.5.6l-.6.6c-.2.2-.4.4-.6.5l1 .5c.2-.1.3-.3.5-.5l.5-.5.5-.5c.1-.2.3-.3.4-.5l.1-.1.1-.1.1-.1s0-.1.1-.1c.1-.2.3-.3.4-.5.1-.2.2-.3.4-.5.1-.2.2-.3.3-.5.1-.2.2-.3.3-.5l-1-.4 1 .5c-.1.1-.1.2-.2.3.1-.1.1-.2.2-.3l3.2-4.3c0 .1 0 .2.1.4l-1.3-3.8c0-.2 0-.3-.1-.5 0-.1-.1-.3-.1-.4 0-.1-.1-.3-.1-.4 0-.1-.1-.3-.1-.4l1.3 3.7c0 .1.1.3.1.4 0 .1.1.3.1.5s.1.3.1.5c0-.2-.1-.3-.1-.5s-.1-.3-.1-.5c0-.1-.1-.3-.1-.4l-1.3-3.7c0 .1.1.3.1.4 0 .1.1.3.1.4 0 .1.1.3.1.4 0 .2 0 .3.1.5l1.3 3.8c0-.1 0-.2-.1-.4l-1.2-3.3c.2.6.4 1.3.7 1.9l.6 1.9c.1.7.1 1.4.1 2.1-.1.7-.2 1.5-.4 2.3-.2.8-.5 1.6-.9 2.4-.1.3-.3.6-.5.9v.1c-.1.1-.1.2-.2.4 0 .1-.1.2-.1.2-.1.1-.1.2-.2.2-.1.2-.2.3-.3.5-.1.1-.2.3-.3.4l-.1.1-.1.1c-.1.1-.1.2-.2.2-1.4 2-1.4 2.1-1.5 2.2 0 .1-.1.1-.1.2l-.3.3-.3.3-.1.1-.2.2-.3.3c-.7.6-1.4 1.2-2.1 1.7-.7.5-1.5 1.1-2.3 1.5-.8.5-1.6.9-2.5 1.3s-1.7.7-2.6 1c-.3.1-.6.2-.8.3-.3.1-.6.2-.8.2-.3.1-.6.1-.8.2-.3.1-.6.1-.8.2-.3 0-.6.1-.9.1-.9.1-1.7.2-2.6.2-1.1 0-2.2 0-3.2-.2-1-.1-2-.4-2.9-.7-.9-.3-1.8-.7-2.5-1.1-.1-.1-.2-.1-.3-.2-.1 0-.1-.1-.2-.1 0 0-.1 0-.1-.1-.1-.1-.2-.1-.3-.2-.1-.1-.2-.1-.3-.2l-.1-.1c-.1-.1-.3-.2-.4-.3h-.5l-.1-.1-.1-.1-.1-.1c0-.1-.1-.1-.1-.2v-.1l-.1-.1-.2-.2-.1-.1c-.1-.1-.2-.2-.2-.4l-2.1-3.3c.1.1.1.2.2.3l.1.1c.1.1.2.2.2.3 0 0 0 .1.1.1l.2.2.1.1c.1.1.1.2.2.2l.3.3h.4c.1.1.2.2.4.3.1.1.3.2.4.3.1.1.3.2.4.2.1.1.3.2.4.2h.1c.8.4 1.6.8 2.5 1 .9.3 1.9.5 2.9.6 1 .1 2.1.1 3.3.1h.2c1.1-.1 2.3-.2 3.4-.4.3-.1.6-.1.8-.2.3-.1.6-.1.9-.2.3-.1.6-.2.9-.2s.6-.2.9-.3c.9-.3 1.8-.6 2.7-1 .9-.4 1.7-.8 2.6-1.3.8-.4 1.6-.9 2.4-1.5.8-.6 1.5-1.1 2.2-1.8l.1-.1c.2-.1.3-.3.5-.4.2-.1.3-.3.5-.5s.3-.3.4-.5c.1-.2.3-.3.4-.5l.1-.1.1-.1.1-.1c.1-.2.2-.3.3-.5.1-.2.3-.4.4-.5.1-.1.1-.2.2-.2.1-.1.1-.2.2-.3.1-.1.2-.2.2-.4.2-.3.4-.6.5-1 .4-.8.7-1.6 1-2.4.2-.8.4-1.5.4-2.2-.1.7-.2 1.5-.4 2.2-.2.8-.6 1.6-1 2.4-.2.3-.4.6-.5 1-.1.1-.1.2-.2.4-.1.1-.1.2-.2.3-.1.1-.1.2-.2.2-.1.2-.3.4-.4.5-.1.2-.2.3-.3.5 0 0 0 .1-.1.1l-.1.1-.1.1c-.1.2-.3.3-.4.5-.1.2-.3.3-.4.5l-.5.5c-.2.1-.3.3-.5.4l-.1.1c-.7.6-1.4 1.2-2.2 1.8-.8.6-1.6 1.1-2.4 1.5-.8.5-1.7.9-2.6 1.3-.9.4-1.8.7-2.7 1l-.9.3c-.3.1-.6.2-.9.2-.3.1-.6.1-.9.2-.3.1-.6.1-.8.2-1.1.2-2.3.4-3.4.4h-.2c-1.1.1-2.2 0-3.3-.1-1-.1-2-.3-2.9-.6-.9-.3-1.8-.6-2.5-1h-.1c-.1-.1-.3-.2-.4-.2-.1-.1-.3-.2-.4-.2-.1-.1-.3-.2-.4-.3-.1-.1-.2-.2-.4-.3h-.4l-.3-.3-.2-.2-.1-.1-.2-.2s0-.1-.1-.1c-.1-.1-.2-.2-.2-.3l-.1-.1c-.1-.1-.2-.2-.2-.3l2.1 3.3c.1.1.2.2.2.4l.1.1.2.2.1.1v.1c0 .1.1.1.1.2 0 0 0 .1.1.1l.1.1.1.1h.4c.1.1.2.2.4.3l.1.1c.1.1.2.1.3.2.1.1.2.1.3.2 0 0 .1 0 .1.1.1 0 .1.1.2.1.1.1.2.1.3.2.8.4 1.6.8 2.5 1.1.9.3 1.9.5 2.9.7 1 .1 2.1.2 3.2.2.9 0 1.7-.1 2.6-.2.3 0 .6-.1.9-.1.3 0 .6-.1.8-.2.3-.1.6-.1.8-.2.3-.1.6-.1.8-.2.3-.1.6-.2.8-.3.9-.3 1.7-.6 2.6-1 .9-.4 1.7-.8 2.5-1.3s1.6-1 2.3-1.5c.7-.5 1.4-1.1 2.1-1.7l.3-.3.2-.2.1-.1.3-.3.3-.3c0-.1.1-.1.1-.2.2-.1.2-.2.3-.2l.2-.2.1-.1.1-.1c.1-.1.2-.3.3-.4.1-.2.2-.3.3-.5.1-.1.1-.2.2-.2 0-.1.1-.2.1-.2.1-.1.1-.2.2-.4v-.1c.2-.3.3-.6.5-.9.4-.8.7-1.6.9-2.4.2-.8.3-1.5.4-2.3.1-.7 0-1.4-.1-2.1l-.6-1.9c-.2-.6-.4-1.3-.7-1.9l-.1-.6c0-.1 0-.2-.1-.3v-.2c0-.1 0-.2-.1-.2v-.2c0-.1-.1-.2-.1-.4v-.1c-.2-.4-.3-.8-.6-1.2V48c-.1-.1-.1-.2-.2-.3 0 0 0-.1-.1-.1-.3-.5-.7-1-1.1-1.4-1-1-2.3-1.8-3.8-2.4l-.5.5c.5.2.9.4 1.4.7.4.2.8.5 1.2.8.4.3.7.6 1 1 .3.3.6.7.9 1.1.2.3.3.5.5.8.1.3.3.6.4.9.1.3.2.6.3 1 .1.3.1.7.2 1 0 .5.1 1 0 1.6 0 .6-.1 1.1-.3 1.7-.1.6-.3 1.2-.6 1.8l-.9 1.8c-.1.2-.2.4-.4.6-.1.2-.3.4-.4.6-.1.2-.3.4-.5.6-.2.2-.3.4-.5.6-.2.2-.3.4-.5.6-.2.2-.4.4-.5.6l-.6.6c-.2.2-.4.4-.6.5l1 .5c.1-.1.2-.2.4-.3l.1-.1h.1l.1-.1.2-.2-.1.1.2-.2.1-.1.1-.1c.1-.1.2-.2.3-.4.1-.2.3-.3.4-.5l.1-.1.1-.1.1-.1s0-.1.1-.1c.1-.1.2-.2.3-.4v.1l.1-.1s0-.1.1-.1c0 0 0-.1.1-.1l.1-.1c0-.1.1-.1.1-.2l.1-.1s0-.1.1-.1c0 0 0-.1.1-.1 0-.1.1-.1.1-.2l.1-.1v-.1c.1-.1.1-.2.2-.3v-.1c.8-1.4 1.4-2.7 1.7-4 .3-1.2.3-2.4.2-3.6v-.1c0-.1 0-.2-.1-.4v-.2l-2.3-2.8c.2.3.3.5.5.8.1.3.3.6.4.9.1.3.2.6.3 1 .1.3.1.7.2 1l1.1-.3c0-.3-.1-.7-.2-1-.1-.3-.2-.6-.3-1-.1-.3-.2-.6-.4-.9-.1-.3-.3-.6-.5-.8l-1 .3-3.4.9 3.4-.9c.2.3.3.5.5.8.1.3.3.6.4.9.1.3.2.6.3 1 .1.3.1.7.2 1l-3.7.9c0-.4 0-.7-.1-1 0-.3-.1-.7-.2-1l-.3-.9c-.1-.3-.3-.6-.5-.8L85 44l1.9-1.8c.2 0 .3 0 .5.1.2 0 .3.1.5.1s.3.1.5.1.3.1.5.1.4.1.5.1c.2.1.3.1.5.2s.3.1.5.2.3.1.5.2L89 45.1c-.1-.1-.3-.1-.4-.2-.2-.1-.3-.1-.5-.2s-.3-.1-.5-.2-.3-.1-.5-.2c-.2 0-.3-.1-.5-.1s-.3-.1-.5-.1-.4-.1-.5-.1H85l-.1 9.3c.6 3.1-1.7 5.6-5.1 5.6-3.4 0-6.7-2.4-7.3-5.5-.6-3.1 1.7-5.6 5.1-5.6 3.4 0 6.7 2.4 7.3 5.5l37.9-3.8v2.7h-3.3v-2.8c0-2.8-1.1-4.5-3.6-4.5s-3.6 1.7-3.6 4.5v16.4c0 2.8 1.1 4.5 3.6 4.5s3.6-1.7 3.6-4.5v-6.2h-3.2v-3.1h6.5v9.1c0 4.7-2.2 7.8-7 7.8-4.7 0-6.9-3.1-6.9-7.8v-16c0-4.7 2.2-7.8 6.9-7.8 4.8 0 7 3.1 7 7.8" fill="url(#path340_1_)"/></g></g></g></g></g></g></g></g></g></g></g><g id="g20" transform="translate(107.266 27.445)"><path id="path22" class="st1" d="M14.3 22.2v2.6h-3.2V22c0-2.7-1.1-4.4-3.6-4.4C5.1 17.6 4 19.3 4 22v16.1c0 2.7 1.1 4.4 3.6 4.4s3.6-1.6 3.6-4.4V32H8v-3h6.3v8.9c0 4.6-2.2 7.6-6.9 7.6-4.6 0-6.8-3-6.8-7.6V22.2c0-4.6 2.2-7.6 6.8-7.6 4.7 0 6.9 3 6.9 7.6"/></g></svg>