<svg width="270" height="130" fill="none" xmlns="http://www.w3.org/2000/svg"><path fill="#F05354" d="M0 0h270v130H0z"/><path d="M48.31 63.924s.807.877.827.598a6.616 6.616 0 00-.105-.968l.28-.124c.19.198.75.762.765.533a5.493 5.493 0 00-.081-.831l.364-.158c.237.24.65.625.663.427a4.55 4.55 0 00-.061-.693c.145-.063.29-.131.435-.205.237.231.555.512.568.333 0-.196-.016-.39-.046-.584.166-.082.329-.166.485-.248.227.218.493.43.502.27a3.413 3.413 0 00-.038-.53c.235-.135.46-.286.676-.452a.886.886 0 00.315-.58c.026-.205.111-.397.244-.55a.982.982 0 01.5-.311 1.303 1.303 0 01-.243.669 2.094 2.094 0 00-.115 1.673.825.825 0 010 .717l-.006.013c-.25-.14-.504-.25-.482-.109.045.194.104.384.178.568a6.705 6.705 0 01-.35.386c-.282-.168-.648-.358-.621-.19.047.206.11.408.188.603l-.38.344c-.28-.167-.63-.345-.603-.177.043.19.101.378.173.56-.136.12-.272.242-.404.362-.272-.159-.592-.313-.563-.154.04.18.094.358.161.53-.14.135-.272.267-.388.396-.272-.159-.592-.316-.568-.156.05.215.115.424.197.627a1.231 1.231 0 00-.136.283c-.105.348-.21.717.152.803.268.089.515.235.727.428.21.193.38.429.5.694.314.495.615.472.968-.011a16.45 16.45 0 014.16-4.03c.376-.237.839-.511 1.424-.84 2.288-1.283 4.22-1.734 3.989-1.487a24.57 24.57 0 01-3.78 2.19c-.08.046-.15.094-.226.134a14.692 14.692 0 007.003 1.536.543.543 0 01.027-.128c1.02-2.458 4.768-3.837 2.519-2.178a4.397 4.397 0 00-1.764 2.589v.012a.168.168 0 01-.012.032l-.13.472c-.115.93.104 1.872.616 2.645a.336.336 0 01.054.45l-.006.011a3.302 3.302 0 00-.373 1.66c0 .307-.065.39-.38.395-3.018.054-2.948 1.005-5.925-.98a1.42 1.42 0 00-.7-.366 1.39 1.39 0 00-.781.07c-.484.237-.955.502-1.411.793a2.053 2.053 0 01-1.703.294 1.822 1.822 0 01-.848-.302 1.909 1.909 0 01-.614-.678.528.528 0 00-.099-.132.736.736 0 00-.213-.233.706.706 0 00-.596-.1.71.71 0 00-.273.152.901.901 0 01-.79.27 1.292 1.292 0 00-.709.03 1.33 1.33 0 00-.595.4c-.157.1-.29.236-.39.397a1.307 1.307 0 00-.13 1.097c.058.182.155.347.284.484.015-.3.114-.589.285-.832.315-.326.553.018.827.083a.58.58 0 00.424-.02.611.611 0 00.305-.306c.156-.308.34-.422.606-.146.245.038.479.135.682.283.1.317.262.609.477.856.18-.051.367-.076.553-.074h.911l-1.562.538H54.1a1.072 1.072 0 00-.22.19 2.08 2.08 0 01-.839.675c-.33.146-.693.2-1.05.157a.634.634 0 00-.488.128.674.674 0 00-.262.508 1.262 1.262 0 01-.34.679c-.89.99-.768 2.04.435 2.927a1.556 1.556 0 01-.337-.862c0-.26-.08-.703.315-.689a.673.673 0 00.576-.163.725.725 0 00.244-.566.252.252 0 01.028-.134.24.24 0 01.092-.097 7.76 7.76 0 011.778-.788c.063-.003.126-.003.188 0 .128-.095.262-.182.4-.26l1.295-.717-1.044 1.145a1.057 1.057 0 01.073 1.118c-.043.14-.13.267-.175.41a.71.71 0 00.09.783c.21.226.368.498.465.795.073.19.195.356.353.479a1.045 1.045 0 001.115.115 1.09 1.09 0 00.438-.398.764.764 0 01-.425-.052.796.796 0 01-.336-.274c-.262-.513-.14-1.114-.376-1.669a1.47 1.47 0 01.144-.844c.012-.062.029-.124.05-.183a1.88 1.88 0 00.058-.244.281.281 0 01.053-.007 2.3 2.3 0 01.15-.252l.532-.774-.296.99c.409-.033.807-.15 1.171-.346.364-.196.687-.466.948-.793.194-.412.523-.739.928-.922l1.05-.588-.89.98a2.79 2.79 0 011.545.494c.709.625 1.47 1.191 2.204 1.781 2.042 1.634 3.825.727 5.234.427 1.73-.367.63-.12 1.443-1.81.148-.307.431-.937.511-1.038a3.35 3.35 0 00.395-1.449c-.388-3.92 1.69-11.97 1.145-6.043-.189 2.056-1.148 5.964.154 7.397l.354.389c.2.241.332.535.38.85a21.93 21.93 0 002.199-2.8c1.122-1.198 1.456-1.786.95-.661-1.344 2.999-6.014 6.846-6.986 7.24a9.452 9.452 0 00-4.335 3.82 13.27 13.27 0 00-1.87 3.225 78.192 78.192 0 007.693-4.31c2.28-1.557 3.774-2.52 2.432-.904-2.164 2.613-8.359 5.376-11.578 6.565-.099.05-.193.103-.302.145-.31.114-.625.208-.945.282a1.853 1.853 0 01-.735.158c-.519.094-1.04.16-1.562.235-18.664 3.073-31.294-21.64-22.672-38.28 9.111-17.15 32.121-20.214 46.985-9.394.798.582 1.652 1.557 2.459 2.197 1.064.84 1.274-.068-.03-1.724l-.257-.327a.995.995 0 01.19-.396c.181-.153.38-.283.592-.387a2.601 2.601 0 00-1.657-.229 25.271 25.271 0 00-2.37-2.28 1.014 1.014 0 01.018-.707c.135-.2.291-.383.468-.545a2.717 2.717 0 00-1.71.283 27.93 27.93 0 00-2.773-1.826 1.022 1.022 0 01-.061-.633c.099-.222.222-.43.368-.621a2.644 2.644 0 00-1.586.557 31.185 31.185 0 00-3.568-1.558 1.019 1.019 0 01-.13-.588c.067-.234.16-.458.28-.669-.572.092-1.1.37-1.51.795a34.394 34.394 0 00-3.979-1.002 1.004 1.004 0 01-.272-.614c.028-.242.084-.48.167-.708a2.783 2.783 0 00-1.371 1.07 36.274 36.274 0 00-4.358-.372.996.996 0 01-.3-.518 3.16 3.16 0 01.072-.725 2.78 2.78 0 00-1.203 1.244 29.69 29.69 0 00-5.507.603 1.08 1.08 0 01-.275-.378 3.5 3.5 0 01-.099-.811 2.875 2.875 0 00-.987 1.504 30.582 30.582 0 00-5.474 1.96 1.23 1.23 0 01-.283-.319 4.228 4.228 0 01-.235-.946c-.273-.06-.766 1.245-.931 2a33.106 33.106 0 00-5.194 3.455c-.17-.04-.328-.12-.463-.236a3.634 3.634 0 01-.44-.733c-.248.025-.327 1.291-.268 1.96a41.718 41.718 0 00-4.899 4.45 1.028 1.028 0 01-.296-.123 3.66 3.66 0 01-.546-.669c-.231.06-.154 1.212-.016 1.9a37.966 37.966 0 00-2.902 4.564 1.42 1.42 0 01-.807-.012c-.32-.18-.619-.4-.889-.653-.302.17.296 1.914.703 2.633a39.045 39.045 0 00-1.061 2.486 31.653 31.653 0 00-.747 2.16c-.133.2-.31.362-.516.474a1.4 1.4 0 01-.669.17 4.423 4.423 0 01-1.032-.358c-.267.27.965 1.973 1.506 2.43A40.116 40.116 0 0027 62.951a1.46 1.46 0 01-.9.545 4.4 4.4 0 01-1.076-.18c-.21.307 1.196 1.699 1.83 2.101-.045 1.376.114 3.668.23 5.209a1.198 1.198 0 01-.335.392 1.146 1.146 0 01-.464.207 3.61 3.61 0 01-1.27-.282c-.21.352 1.839 2.069 2.344 2.22a34.146 34.146 0 001.266 4.79 1.44 1.44 0 01-.25.556 1.38 1.38 0 01-.454.394 5.171 5.171 0 01-1.248.271c-.105.435 2.084 1.38 2.9 1.511a29.95 29.95 0 002.087 3.688c.009.201-.022.402-.09.59a1.513 1.513 0 01-.305.509 5.737 5.737 0 01-1.185.74c.033.423 2.031.594 3.108.511a27.29 27.29 0 002.567 3.049c.007.319-.084.631-.262.892a5.817 5.817 0 01-1.064.91c.099.43 2.262.27 3.272.011a29.097 29.097 0 003.278 2.402c-.023.12-.058.237-.105.35-.252.4-.55.767-.888 1.093.136.348 1.711-.022 2.765-.41.94.509 1.904.97 2.89 1.383a1.67 1.67 0 01-.056.567 5.98 5.98 0 01-.729 1.213c.21.353 2.003-.394 2.939-.965l.312.105a29.64 29.64 0 002.427.687c.033.155.044.314.032.472a6.07 6.07 0 01-.482 1.34c.255.283 1.668-.653 2.519-1.393 1.164.196 2.331.326 3.485.403.16.21.262.462.296.728a6.133 6.133 0 01-.181 1.415c.323.226 1.591-1.142 2.236-2.069 1.129 0 2.237-.05 3.317-.145.152.184.26.402.315.638.039.478.022.96-.051 1.434.35.199 1.54-1.364 2.084-2.345a35.564 35.564 0 002.573-.481c.136.147.243.321.315.512.1.467.144.944.134 1.423.365.142 1.284-1.45 1.716-2.505a28.177 28.177 0 001.622-.534l.035-.012c.17.16.303.359.386.582.099.467.144.945.134 1.424.42.166 1.593-2.007 1.883-2.96.369-.16.719-.317 1.05-.473l.487-.225c.185.132.339.308.448.512.159.45.264.918.315 1.394.405.094 1.2-1.889 1.446-2.964.44-.218.79-.402 1.017-.535 1.565-1.094.729 2.536.88 2.22a3.965 3.965 0 001-1.207c.253-.468.412-.983.47-1.516-.365-1.448-1.29-2.654-1.118-2.723.091-.035 2.758 2.536 2.198 3.905a3.341 3.341 0 001.338-1.201c.388-.654-.745-2.087-1.123-2.731a3.468 3.468 0 01-.593-1.947c.046-.081.19.604.643 1.22.665.906 3.228 2.165 4.049 1.161a13.84 13.84 0 01-1.898-2.663 5.246 5.246 0 01-.507-1.1c.56.432 1.073.923 1.533 1.466a2.99 2.99 0 002.971-.15c.331-.162.456-.335.05-.637a7.148 7.148 0 01-1.5-1.322 11.619 11.619 0 01-2.013-2.56 7.53 7.53 0 001.778 1.699c.11.02.222.033.334.039a4.822 4.822 0 003.093-1.276c.255-.238-.47-.414-.905-.559a7.889 7.889 0 00-1.137-.148c-.84-.103-1.018-.232-.897-.252.122-.02.484.072.84.068a4.515 4.515 0 001.795-.771 5.306 5.306 0 01-2.653-.85c-.37-.367.082-.062.296 0 1.65.486 4.403-.793 5.611-1.851a.401.401 0 00-.138-.181.378.378 0 00-.21-.073 17.266 17.266 0 01-3.556-.756 6.112 6.112 0 01-2.488-1.416c-.257-.266.182-.062.735.244a4.261 4.261 0 002.48.552 4.008 4.008 0 002.226-.937c.883-.968.036-.218-1.308-.56-1.245-.316-2.95-.833-3.023-1.127 0 0 3.45 1.463 4.88-1.865.168-.392-.156-.031-.676-.062a12.32 12.32 0 01-3.199-.82c1.898.366 3.589-1.493 3.896-2.709-.84.15-1.713.17-2.625.333a6.22 6.22 0 01-2.805.082c-.35-.109.21-.131.84-.144 2.64-.053 4.748-2.526 4.029-5.035a7.46 7.46 0 01-3.293 1.434 4.899 4.899 0 01-2.788.19c-.188-.087.09-.017.715-.085a4.6 4.6 0 002.322-1.049 4.86 4.86 0 001.457-2.148c-.525.132-4.389 1.552-5.372 1.331-.21-.047.232-.265.856-.486l.23-.08a4.636 4.636 0 001.737-1.342 4.863 4.863 0 00.956-2.014 4.82 4.82 0 00-.115-2.389 10.924 10.924 0 01-2.068 1.6l.435-1.96c-.859.627-1.704 1.315-2.58 1.889l-.16.116a.041.041 0 000-.016c-.847.552-2.19 1.416-2.51 1.536-.228.085 6.501-3.92 2.415-9.773a24.284 24.284 0 01-1.828 4.582 14.328 14.328 0 01-2.194 2.332c-.272.19-.024-.078.322-.491a15.6 15.6 0 00.976-1.322c1-1.434 1.133-1.827.713-3.419-.33-1.246-.21-1.038-.828.082a13.35 13.35 0 01-3.555 4.637c-.256.172-.55.274-.854.296-.014 0 2.694-2.298 2.864-4.454a6.831 6.831 0 00-1.02-3.99 5.24 5.24 0 00-2.074-1.999c.066 3.676-.017 6.249-3.414 8.69-.216.175-.013-.088.281-.502.784-1.101 1.918-2.641 1.68-4.029a4.561 4.561 0 00-1.073-2.073c-.063.247-.098.5-.105.756-.329 2.015-1.69 4.302-3.808 4.873-.281.02.056-.035.462-.246 2.272-1.173 2.31-5.302.805-6.49-.734 2.022-1.274 4.737-3.6 4.964-1.556.153-.263-1.107 0-1.757.036-.087.211-.315.227-.368a17.822 17.822 0 00-2.751 1.946.42.42 0 01-.472.017c-.68-.467 1.47-2.644.446-1.959-.173.109-2.111 1.639-2.71 1.92a.794.794 0 01-.473.083c-.24-.047.665-1.373 1.127-1.837.133-.106.26-.22.381-.34a1.161 1.161 0 00-.987.267c-.72.392-1.962 1.576-2.738 1.995-.168.094-.164.307-.21-.077.256-.378 1.33-2.234.329-1.555a24.08 24.08 0 00-2.003 1.785 7.162 7.162 0 00-.334.236c-.16.12-.426.347-.546.077a8.33 8.33 0 01.657-1.434c-.769.556-1.475 1.2-2.105 1.92-.137.172-.42.447-.546.306a9.24 9.24 0 01.4-1.464c-.21.014-1.73 1.821-2.255 2.244-.157.126-.32.244-.488.352a6.47 6.47 0 00-2.03 1.59.528.528 0 01-.288.132 2.573 2.573 0 00-1.04.661 14.335 14.335 0 00-1.52 2.08 1.734 1.734 0 00.029 1.991c.14.19.316.346.518.459.128.107.28.177.443.204l-.012.012h.016zm-.337-1.416c-.1.183-.091.06-.198-.129-.329-.588.15-.706.227-.369.02.084.035.17.043.255a.549.549 0 01-.068.243h-.004zm3.85-3.064c-.394.264-.79.277-.879.031a1.022 1.022 0 01.145-.547.97.97 0 01.41-.375c.395-.262.79-.276.88-.03a1.02 1.02 0 01-.144.546.97.97 0 01-.411.375zm4.938-.014c.069.944-.438-1.936-1.507-1.583-.08.028-.493.131-.573.168-.526.254 1.833-1.985 2.08 1.415zm-1.17 4.507a18.422 18.422 0 00-2.132 2.07l-.967 1.098v-.17a8.967 8.967 0 011.901-2.161c.494-.43.856-.727 1.155-.95 1.35-1.02 1.942-1.359.048.117l-.005-.004zm10.694-7.943a15.982 15.982 0 00-5.326-.224l-3.07.36s6.78-2.374 9.508.134c.79.73-.273-.066-1.112-.27zm7.284 5.224a4.194 4.194 0 00-1.762-1.11 3.604 3.604 0 00-2.271.24c-.54.267-.854.315-.136-.15a2.844 2.844 0 011.889-.636 2.857 2.857 0 011.843.767c.424.327.751.77.945 1.279a1.495 1.495 0 01-.516-.382l.008-.008zm-4.334 33.639a30.897 30.897 0 01-13.841 1.452 37.048 37.048 0 01-5.635-1.12c-7.497-1.926-13.958-6.843-17.979-13.683a29.261 29.261 0 01-3.68-15.353c.192-7.061 2.26-13.93 5.972-19.85 3.307-5.25 8.65-9.281 13.992-11.91a20.605 20.605 0 013.87-1.478c1.45-.411 2.922-.73 4.41-.955a28.02 28.02 0 015.193-.288c-.007.067-1.698.189-3.279.345a34.12 34.12 0 00-6.465 1.262 8.895 8.895 0 00-.565.19 34.756 34.756 0 00-11.925 7.403c-4.03 3.963-7.015 8.93-8.669 14.43-9.46 28.989 18.452 49.839 47.237 35.786a64.137 64.137 0 01-8.631 3.777v-.008h-.005zm11.048-7.888C84.71 78.846 86.52 74.29 81.83 66.22a9.31 9.31 0 00-2.939-3.452l.086-.168c.105.057.198.109.29.17 2.082 1.301 3.845 4.019 4.912 7.068a13.552 13.552 0 011.01 5.053 13.56 13.56 0 01-.946 5.067 32.72 32.72 0 01-3.964 7.015l.003-.004zm37.58-16.355c.346 0 .61-.088.792-.264.201-.195.301-.4.301-.615 0-.254-.182-.469-.547-.645-.364-.195-.819-.4-1.366-.615a38.797 38.797 0 01-1.776-.82 7.348 7.348 0 01-1.776-1.231 6.346 6.346 0 01-1.367-1.876c-.364-.742-.546-1.65-.546-2.725 0-.84.182-1.651.546-2.433a6.356 6.356 0 011.558-2.11c.674-.625 1.485-1.123 2.432-1.494.965-.371 2.049-.557 3.252-.557 1.238 0 2.313.176 3.224.528.911.332 1.676.693 2.295 1.084a9.32 9.32 0 011.859 1.612l-2.596 4.395a7.373 7.373 0 00-1.066-.79 5.378 5.378 0 00-1.148-.558 3.424 3.424 0 00-1.339-.263c-.346 0-.619.097-.819.293-.183.175-.274.37-.274.586 0 .254.183.478.547.674.364.176.82.38 1.366.615.547.215 1.139.489 1.776.82.638.313 1.23.724 1.776 1.232.547.488 1.002 1.103 1.367 1.846.364.742.546 1.65.546 2.725 0 .84-.182 1.66-.546 2.462a6.779 6.779 0 01-1.558 2.11c-.674.605-1.494 1.094-2.459 1.465-.947.371-2.022.557-3.225.557-1.512 0-2.805-.176-3.88-.528-1.056-.37-1.931-.781-2.623-1.23-.802-.508-1.457-1.095-1.967-1.759l2.595-4.396a6.51 6.51 0 001.285.968 9.2 9.2 0 001.475.644 5.744 5.744 0 001.886.293zm10.93-16.118h6.558v21.686h-6.558V54.496zm8.74 13.92c0-1.133.2-2.197.601-3.194a8.242 8.242 0 011.722-2.608 7.95 7.95 0 012.623-1.758c1.02-.43 2.149-.645 3.388-.645 1.221 0 2.341.215 3.361.645 1.038.43 1.922 1.016 2.651 1.758a7.892 7.892 0 011.694 2.608c.419.997.628 2.061.628 3.194a8.155 8.155 0 01-.628 3.195 7.891 7.891 0 01-1.694 2.608c-.729.742-1.613 1.328-2.651 1.758-1.02.43-2.14.645-3.361.645-1.239 0-2.368-.215-3.388-.645a7.95 7.95 0 01-2.623-1.758 8.242 8.242 0 01-1.722-2.608 8.474 8.474 0 01-.601-3.195zm10.11 0c0-.664-.182-1.191-.546-1.582-.346-.41-.756-.615-1.23-.615s-.893.205-1.257.615c-.346.39-.519.918-.519 1.582 0 .665.173 1.202.519 1.612.364.39.783.586 1.257.586.474 0 .884-.195 1.23-.586.364-.41.546-.947.546-1.612zm7.922-1.904V60.65h1.913v-4.982h6.558v4.982h2.46v5.86h-2.46v2.492c0 .586.119 1.025.356 1.318.255.293.592.44 1.011.44h.382c.128-.02.246-.04.355-.059.11-.02.228-.049.356-.088v5.861a6.66 6.66 0 01-.711.147 7.27 7.27 0 01-.792.088 7.258 7.258 0 01-.957.058c-2.058 0-3.67-.644-4.836-1.934-1.148-1.309-1.722-3.253-1.722-5.832v-2.49h-1.913zm13.109 1.904c0-1.133.201-2.197.601-3.194a8.242 8.242 0 011.722-2.608 7.96 7.96 0 012.623-1.758c1.02-.43 2.15-.645 3.388-.645 1.221 0 2.341.215 3.361.645 1.039.43 1.922 1.016 2.651 1.758a7.876 7.876 0 011.694 2.608c.419.997.629 2.061.629 3.194s-.21 2.198-.629 3.195a7.876 7.876 0 01-1.694 2.608c-.729.742-1.612 1.328-2.651 1.758-1.02.43-2.14.645-3.361.645-1.238 0-2.368-.215-3.388-.645a7.96 7.96 0 01-2.623-1.758 8.242 8.242 0 01-1.722-2.608 8.493 8.493 0 01-.601-3.195zm10.111 0c0-.664-.183-1.191-.547-1.582-.346-.41-.756-.615-1.23-.615-.473 0-.892.205-1.257.615-.346.39-.519.918-.519 1.582 0 .665.173 1.202.519 1.612.365.39.784.586 1.257.586.474 0 .884-.195 1.23-.586.364-.41.547-.947.547-1.612zm16.126 2.198h5.192v5.568h-13.116v-5.568l4.918-4.395h-4.645V60.65h12.569v5.568l-4.918 4.395zm14.197-9.964v15.532h-6.558V60.651h6.558zm-6.558-7.326h6.558v5.568h-6.558v-5.568zm9.287 1.172h6.558v21.686h-6.558V54.496zm9.286 0h6.558v21.686h-6.558V54.496zm15.708 5.715c1.166 0 2.241.215 3.224.645a7.798 7.798 0 012.542 1.758 7.892 7.892 0 011.694 2.608c.4.997.601 2.061.601 3.194v7.766h-6.285l-.547-1.758c-.236.41-.519.781-.847 1.113a4.312 4.312 0 01-1.12.733c-.437.235-.965.352-1.585.352-.747 0-1.43-.127-2.049-.381a4.553 4.553 0 01-1.558-.996 4.64 4.64 0 01-.983-1.524 5.486 5.486 0 01-.328-1.934c0-.704.118-1.349.355-1.935a4.018 4.018 0 011.175-1.523c.528-.43 1.202-.762 2.022-.997.838-.254 1.84-.38 3.006-.38h2.186a1.92 1.92 0 00-.41-.792c-.182-.215-.437-.4-.765-.557-.31-.176-.738-.264-1.285-.264a2.75 2.75 0 00-.983.176 3.625 3.625 0 00-.765.41 5.343 5.343 0 00-.711.587l-2.322-3.957c.4-.43.892-.82 1.475-1.172.492-.293 1.093-.557 1.804-.791.71-.254 1.53-.381 2.459-.381zm.136 11.722c.347 0 .656-.195.93-.586.291-.39.437-1.026.437-1.905-.765 0-1.321.156-1.667.469a1.483 1.483 0 00-.519 1.143c0 .215.082.42.246.615.182.176.373.264.573.264z" fill="#fff"/></svg>