<svg width="270" height="130" viewBox="0 0 270 130" fill="none" xmlns="http://www.w3.org/2000/svg">
<rect width="270" height="130" fill="#F05354"/>
<path d="M48.3103 63.9238C48.3103 63.9238 49.1171 64.8006 49.1369 64.522C49.1258 64.197 49.0908 63.8734 49.0322 63.554L49.3127 63.4301C49.5013 63.6278 50.0612 64.1922 50.077 63.9627C50.0711 63.684 50.044 63.4062 49.996 63.132L50.3604 62.9742C50.5974 63.2139 51.0092 63.5991 51.023 63.4014C51.0203 63.1689 50.9999 62.937 50.9618 62.7079C51.1066 62.6451 51.2518 62.5768 51.3973 62.503C51.6343 62.7345 51.9523 63.0152 51.9651 62.8359C51.9644 62.6404 51.9489 62.4451 51.9187 62.2521C52.0846 62.1701 52.2475 62.0861 52.4035 62.0042C52.6307 62.2224 52.8973 62.4334 52.9062 62.2746C52.9072 62.0969 52.8943 61.9195 52.8677 61.744C53.1027 61.6093 53.3286 61.4584 53.5441 61.2923C53.7186 61.1491 53.8318 60.9405 53.8591 60.7115C53.8853 60.5069 53.9703 60.3154 54.1032 60.1618C54.236 60.0083 54.4105 59.9 54.6037 59.851C54.5856 60.0936 54.501 60.3257 54.3598 60.5199C54.2273 60.7743 54.1486 61.0551 54.1288 61.3435C54.1091 61.6319 54.1488 61.9214 54.2452 62.1927C54.2989 62.304 54.3268 62.4267 54.3268 62.5512C54.3268 62.6756 54.2989 62.7984 54.2452 62.9097L54.2393 62.923C53.9895 62.7837 53.7347 62.6731 53.7574 62.8144C53.8018 63.0082 53.8613 63.198 53.9352 63.3819C53.8305 63.5048 53.7169 63.6349 53.5846 63.7681C53.3032 63.6001 52.9368 63.4096 52.9635 63.5786C53.0106 63.7843 53.0737 63.9857 53.1521 64.1809C53.0306 64.2895 52.9022 64.4083 52.7719 64.5251C52.4924 64.3581 52.1419 64.1799 52.1685 64.3479C52.2121 64.5388 52.2703 64.7258 52.3423 64.9072C52.206 65.028 52.0698 65.1499 51.9384 65.2698C51.6659 65.111 51.3459 64.9573 51.3746 65.1161C51.4151 65.2968 51.4692 65.4739 51.5365 65.6457C51.3963 65.7809 51.264 65.9131 51.1484 66.0421C50.8759 65.8833 50.5559 65.7256 50.5796 65.8864C50.6291 66.1005 50.6952 66.3102 50.7771 66.5133C50.72 66.601 50.6741 66.696 50.6408 66.796C50.5362 67.1443 50.4305 67.5131 50.7929 67.5991C51.061 67.688 51.3084 67.8336 51.5195 68.0266C51.7306 68.2197 51.9008 68.456 52.0194 68.7208C52.3344 69.2165 52.6346 69.193 52.9881 68.7095C54.1345 67.1225 55.5427 65.7585 57.1475 64.6808C57.5238 64.4431 57.9869 64.1686 58.5725 63.8408C60.8605 62.5573 62.7921 62.1056 62.561 62.3535C61.3652 63.196 60.1006 63.9284 58.7818 64.5425C58.7019 64.5886 58.6317 64.6367 58.5547 64.6767C60.7373 65.7618 63.1388 66.2886 65.5581 66.2132C65.5618 66.1695 65.5708 66.1265 65.5848 66.0851C66.6058 63.6267 70.3534 62.248 68.1039 63.9074C67.2262 64.5127 66.5974 65.4356 66.3402 66.4959L66.3402 66.5082C66.3373 66.5192 66.3334 66.5298 66.3284 66.5399C66.2829 66.7018 66.2375 66.8667 66.198 67.0122C66.0827 67.9424 66.3021 68.8841 66.8142 69.657C66.8778 69.7102 66.9191 69.7869 66.9292 69.871C66.9393 69.9551 66.9176 70.0399 66.8685 70.1077L66.8616 70.118C66.5954 70.6261 66.4668 71.1995 66.4893 71.7774C66.4893 72.0847 66.4241 72.1677 66.1091 72.1728C63.0913 72.2271 63.1614 73.1777 60.1841 71.1925C59.9878 71.0058 59.7454 70.8792 59.4839 70.827C59.2223 70.7747 58.952 70.7988 58.7028 70.8965C58.2189 71.1343 57.7478 71.3993 57.2917 71.6903C57.0434 71.8602 56.7635 71.9741 56.47 72.0248C56.1766 72.0754 55.8762 72.0616 55.5882 71.9843C55.2862 71.9564 54.9952 71.8525 54.7406 71.6817C54.4859 71.5109 54.2752 71.2783 54.1267 71.004C54.1007 70.9548 54.0674 70.9102 54.028 70.8719C53.974 70.7793 53.9013 70.6999 53.8149 70.6394C53.7284 70.5789 53.6303 70.5386 53.5273 70.5213C53.4243 70.5041 53.319 70.5103 53.2185 70.5395C53.1181 70.5687 53.025 70.6203 52.9457 70.6906C52.8432 70.796 52.7185 70.8753 52.5814 70.9223C52.4443 70.9692 52.2986 70.9824 52.1557 70.961C51.9212 70.9045 51.6764 70.9147 51.447 70.9904C51.2176 71.0661 51.0121 71.2046 50.8522 71.3912C50.6952 71.4917 50.562 71.6274 50.4623 71.7884C50.3627 71.9494 50.2992 72.1316 50.2766 72.3215C50.2539 72.5113 50.2727 72.7041 50.3315 72.8854C50.3902 73.0668 50.4875 73.2321 50.6162 73.3692C50.6312 73.0692 50.7301 72.7802 50.9006 72.5374C51.2156 72.2107 51.4536 72.5549 51.7281 72.6204C51.8671 72.6673 52.0178 72.66 52.152 72.5998C52.2861 72.5397 52.3946 72.4308 52.4569 72.2937C52.6129 71.9863 52.7966 71.8716 53.0632 72.1482C53.3084 72.1864 53.5417 72.2831 53.7446 72.4309C53.8442 72.748 54.0071 73.0397 54.2225 73.2873C54.4026 73.2358 54.5888 73.211 54.7755 73.2135L55.686 73.2135L54.1238 73.7513L54.1011 73.7513C54.0198 73.8039 53.9457 73.8676 53.8809 73.9408C53.6626 74.2375 53.3737 74.4702 53.0424 74.6161C52.7112 74.7619 52.3491 74.8158 51.9918 74.7726C51.9064 74.7597 51.8193 74.7643 51.7357 74.7863C51.652 74.8084 51.5734 74.8472 51.5042 74.9008C51.4351 74.9544 51.3768 75.0215 51.3327 75.0985C51.2886 75.1754 51.2595 75.2607 51.2472 75.3493C51.2472 75.3692 51.2456 75.389 51.2422 75.4087C51.2002 75.6665 51.081 75.9041 50.9015 76.0878C50.0128 77.0773 50.1343 78.1273 51.337 79.0154C51.1409 78.7713 51.0231 78.4697 51.0003 78.1529C51.0003 77.8937 50.9193 77.4502 51.3153 77.4645C51.417 77.483 51.5214 77.4779 51.6209 77.4495C51.7205 77.4212 51.8128 77.3703 51.8912 77.3006C51.9695 77.2309 52.032 77.144 52.0742 77.0462C52.1163 76.9485 52.1371 76.8423 52.1349 76.7352C52.1317 76.6887 52.1413 76.6422 52.1627 76.6012C52.184 76.5602 52.2162 76.5264 52.2554 76.5037C52.8146 76.1667 53.4116 75.9022 54.0329 75.716C54.0958 75.7127 54.1587 75.7127 54.2215 75.716C54.3494 75.6205 54.483 75.5336 54.6215 75.4558L55.9161 74.7388L54.8723 75.884C54.988 76.0429 55.0565 76.2333 55.0695 76.432C55.0824 76.6306 55.0393 76.8289 54.9454 77.0025C54.9019 77.1429 54.815 77.2689 54.7696 77.4123C54.7058 77.5367 54.6803 77.6784 54.6966 77.8184C54.7128 77.9583 54.77 78.0897 54.8605 78.1949C55.0695 78.4213 55.2279 78.6927 55.3246 78.9897C55.3979 79.18 55.5202 79.3458 55.6781 79.469C55.8359 79.5921 56.0234 79.668 56.22 79.6883C56.4165 79.7086 56.6147 79.6725 56.7929 79.584C56.9711 79.4955 57.1224 79.358 57.2305 79.1864C57.087 79.2097 56.9402 79.1915 56.806 79.1339C56.6719 79.0762 56.5556 78.9813 56.4701 78.8597C56.2084 78.3475 56.3309 77.7462 56.0939 77.191C56.0571 76.901 56.1075 76.6062 56.238 76.347C56.2501 76.2846 56.267 76.2233 56.2884 76.1636C56.3128 76.0838 56.3319 76.0023 56.3457 75.9198C56.3632 75.9157 56.381 75.9133 56.399 75.9126C56.4437 75.8254 56.4938 75.7412 56.5491 75.6606L57.0814 74.8873L56.7851 75.8768C57.194 75.8442 57.5923 75.7266 57.9564 75.5309C58.3205 75.3352 58.6429 75.0654 58.9043 74.7377C59.098 74.3259 59.4267 73.9991 59.8316 73.8158L60.8813 73.2278L59.9925 74.2081C60.5424 74.2151 61.0787 74.3866 61.537 74.7019C62.246 75.3267 63.0064 75.8932 63.7411 76.4832C65.7833 78.117 67.5657 77.2095 68.9749 76.9103C70.705 76.5426 69.6049 76.7905 70.4176 75.1003C70.5657 74.793 70.8492 74.1631 70.9291 74.0617C71.168 73.6174 71.3032 73.1214 71.3241 72.6132C70.9361 68.6931 73.0138 60.6439 72.4687 66.5696C72.28 68.6255 71.3212 72.5344 72.6227 73.9674L72.9772 74.3556C73.1775 74.597 73.3091 74.8914 73.3574 75.2058C74.1631 74.3366 74.8983 73.3999 75.5556 72.4053C76.6784 71.2079 77.0122 70.6199 76.5066 71.7446C75.1616 74.7439 70.4917 78.5913 69.52 78.9846C67.7276 79.7601 66.2125 81.0951 65.1848 82.8044C64.4156 83.7811 63.7858 84.8674 63.3145 86.03C65.9537 84.7418 68.5222 83.3032 71.0081 81.7206C73.2873 80.1626 74.7824 79.1997 73.4404 80.8161C71.2758 83.4292 65.0811 86.1919 61.8619 87.3811C61.7631 87.4303 61.6693 87.4836 61.5597 87.5256C61.2505 87.6396 60.9349 87.734 60.6147 87.8083C60.3822 87.9107 60.1325 87.9643 59.8799 87.966C59.3615 88.0603 58.8401 88.1258 58.3177 88.2006C39.6539 91.2736 27.0237 66.5615 35.6456 49.9211C44.7573 32.7716 67.7671 29.7068 82.6311 40.5269C83.429 41.1087 84.2832 42.0839 85.09 42.7241C86.1545 43.564 86.3638 42.6555 85.0593 41.0001L84.8026 40.6734C84.8358 40.528 84.9007 40.3924 84.9922 40.2769C85.174 40.1236 85.3729 39.9936 85.5847 39.8897C85.0698 39.6329 84.4894 39.5528 83.9277 39.6613C83.1862 38.8488 82.3945 38.0871 81.5577 37.3811C81.4789 37.1513 81.4856 36.8993 81.5764 36.6743C81.7106 36.474 81.8674 36.2911 82.0435 36.1294C81.4589 36.0342 80.8603 36.1331 80.3332 36.4121C79.4444 35.7477 78.5188 35.1378 77.5612 34.5857C77.4741 34.3875 77.4526 34.1649 77.5 33.9527C77.5988 33.7315 77.7225 33.5231 77.8683 33.3319C77.2962 33.3391 76.741 33.5342 76.2824 33.8892C75.1244 33.2951 73.9326 32.7748 72.7136 32.3311C72.6125 32.1539 72.5673 31.9484 72.5842 31.7432C72.6511 31.5094 72.7449 31.2848 72.8637 31.0743C72.292 31.1659 71.7633 31.4444 71.3548 31.8692C70.0479 31.456 68.7192 31.1215 67.3751 30.8674C67.2173 30.7022 67.1208 30.4845 67.1026 30.2528C67.1309 30.0107 67.1872 29.773 67.2704 29.5449C66.7155 29.7421 66.2352 30.1169 65.8988 30.6154C64.4544 30.4035 62.9993 30.279 61.5409 30.2425C61.3913 30.1068 61.2863 29.9259 61.2407 29.7252C61.2367 29.4814 61.2609 29.2379 61.3128 29C60.7946 29.2713 60.3733 29.7069 60.11 30.2435C58.2605 30.2724 56.4173 30.4744 54.6027 30.8469C54.4855 30.7434 54.3917 30.6144 54.3282 30.4689C54.2637 30.2036 54.2306 29.9312 54.2294 29.6576C53.7515 30.0347 53.4049 30.5629 53.2419 31.1624C51.363 31.6389 49.5306 32.2949 47.7682 33.1219C47.6565 33.0337 47.5606 32.9259 47.4848 32.8034C47.3704 32.4987 47.2915 32.181 47.2498 31.8569C46.9772 31.7975 46.4844 33.1025 46.3185 33.8564C44.4879 34.8385 42.7493 35.9952 41.1252 37.3115C40.9552 37.2718 40.7965 37.1911 40.6621 37.0759C40.4876 36.8509 40.3397 36.605 40.2217 36.3435C39.9738 36.3681 39.8948 37.6341 39.9541 38.303C38.2105 39.6503 36.5723 41.1385 35.0551 42.7538C34.9508 42.7284 34.8509 42.6866 34.7588 42.6298C34.5518 42.4302 34.3685 42.2056 34.2127 41.961C33.9816 42.0204 34.0587 43.1727 34.1969 43.8611C33.1246 45.3076 32.1546 46.8327 31.2946 48.4245C31.03 48.4989 30.7505 48.495 30.4878 48.4133C30.1675 48.2329 29.8692 48.0135 29.5991 47.7597C29.2969 47.9298 29.8953 49.6742 30.3022 50.3933C29.9204 51.208 29.5665 52.0367 29.2406 52.8794C28.9661 53.5903 28.7173 54.3104 28.4941 55.0397C28.3615 55.2384 28.1844 55.4008 27.978 55.5129C27.7716 55.6249 27.542 55.6833 27.3091 55.683C26.9525 55.6072 26.606 55.4872 26.2771 55.3255C26.0105 55.5959 27.2419 57.2984 27.7831 57.7552C27.409 59.4667 27.1474 61.2025 27 62.9507C26.7743 63.2402 26.4543 63.434 26.1004 63.4956C25.7359 63.4805 25.3745 63.4199 25.024 63.3153C24.8136 63.6226 26.2198 65.0147 26.8548 65.4173C26.8094 66.793 26.9684 69.0854 27.0849 70.626C27.0018 70.7804 26.8872 70.9141 26.749 71.0176C26.6108 71.1212 26.4524 71.192 26.285 71.2253C25.849 71.2089 25.4192 71.1132 25.0151 70.9425C24.8048 71.2949 26.8538 73.0117 27.3594 73.1623C27.6648 74.79 28.088 76.3914 28.6254 77.9531C28.5821 78.1552 28.4966 78.3449 28.375 78.509C28.2533 78.673 28.0985 78.8074 27.9213 78.9027C27.5172 79.0446 27.0981 79.1357 26.6731 79.1741C26.5684 79.6095 28.7567 80.5539 29.5734 80.685C30.1826 81.9647 30.8799 83.1971 31.66 84.3726C31.6686 84.574 31.638 84.775 31.5702 84.9638C31.5023 85.1527 31.3985 85.3254 31.265 85.4718C30.9 85.7666 30.5021 86.015 30.08 86.2113C30.1126 86.6354 32.1113 86.8065 33.1877 86.7235C33.9703 87.8035 34.8285 88.8224 35.7552 89.7719C35.7624 90.0907 35.6707 90.4035 35.4935 90.6641C35.175 91.0104 34.8176 91.3158 34.429 91.5737C34.5277 92.004 36.6914 91.8442 37.7006 91.585C38.7388 92.4631 39.8342 93.2657 40.9791 93.9871C40.9563 94.1071 40.9212 94.2242 40.8744 94.3364C40.6219 94.737 40.3235 95.1043 39.9857 95.4304C40.1219 95.7776 41.697 95.4078 42.7507 95.0206C43.6914 95.5287 44.6546 95.9893 45.6401 96.4025C45.6553 96.5936 45.6365 96.7859 45.5848 96.97C45.3898 97.4032 45.1451 97.8104 44.856 98.1828C45.0664 98.5362 46.8587 97.7894 47.7949 97.2178L48.1069 97.3234C48.9101 97.5876 49.7192 97.8164 50.5342 98.0097C50.5671 98.1646 50.5777 98.3237 50.5658 98.4819C50.4579 98.9474 50.2961 99.3976 50.0839 99.8227C50.3387 100.105 51.7518 99.1692 52.603 98.4286C53.7673 98.6253 54.9345 98.7554 56.0879 98.8322C56.2475 99.0429 56.3498 99.294 56.3842 99.5595C56.3789 100.037 56.3178 100.513 56.2025 100.975C56.5264 101.201 57.7943 99.833 58.4392 98.906C59.5679 98.906 60.6759 98.8558 61.7562 98.7615C61.9085 98.9449 62.0165 99.1633 62.0712 99.3987C62.1099 99.8771 62.0927 100.359 62.0199 100.833C62.3704 101.032 63.5594 99.4693 64.1045 98.488C64.9932 98.3549 65.8524 98.193 66.6769 98.0066C66.8134 98.1542 66.9204 98.3282 66.992 98.5188C67.0913 98.9858 67.1364 99.4634 67.1263 99.9416C67.4906 100.084 68.41 98.4911 68.8425 97.4371C69.4081 97.2691 69.9485 97.0912 70.464 96.9034L70.4986 96.8911C70.6698 97.0507 70.8021 97.25 70.8847 97.4729C70.9839 97.9403 71.029 98.4183 71.019 98.8967C71.4387 99.0627 72.6118 96.8901 72.9022 95.9364C73.2708 95.7773 73.6207 95.6199 73.9519 95.4642L74.4387 95.2388C74.6243 95.3713 74.7778 95.5466 74.8871 95.751C75.0456 96.2009 75.1514 96.669 75.2021 97.1451C75.607 97.2394 76.4019 95.2562 76.6478 94.1807C77.0882 93.9625 77.4378 93.7791 77.6649 93.646C79.2301 92.552 78.3937 96.1822 78.5448 95.8657C78.953 95.5371 79.2934 95.1267 79.5458 94.659C79.7982 94.1913 79.9575 93.6758 80.0142 93.143C79.6498 91.6946 78.7255 90.489 78.8973 90.4203C78.9882 90.3855 81.6554 92.9556 81.0955 94.3251C81.6382 94.0582 82.1005 93.6428 82.4326 93.1236C82.8207 92.47 81.688 91.037 81.3098 90.3927C80.9237 89.8228 80.7168 89.143 80.7173 88.4464C80.7627 88.3645 80.9079 89.0498 81.3602 89.6664C82.0247 90.5719 84.5883 91.8309 85.4089 90.827C84.6759 90.0212 84.0387 89.127 83.5109 88.1637C83.3007 87.8191 83.1307 87.4498 83.0043 87.0636C83.5633 87.4956 84.0769 87.9872 84.537 88.5304C85.0042 88.7675 85.5217 88.878 86.0412 88.8519C86.5607 88.8257 87.0654 88.6637 87.5084 88.3809C87.8392 88.218 87.9636 88.0449 87.5577 87.7427C87.0008 87.3769 86.4959 86.9321 86.0577 86.4213C85.2734 85.6708 84.5958 84.8086 84.0452 83.8605C84.5441 84.5239 85.1446 85.098 85.8227 85.5599C85.933 85.5804 86.0445 85.5934 86.1565 85.5988C87.2993 85.5598 88.3934 85.1088 89.2503 84.3235C89.5051 84.0848 88.7793 83.9086 88.3448 83.7642C87.9697 83.6872 87.5899 83.6375 87.2082 83.6157C86.3688 83.5132 86.19 83.3842 86.3115 83.3637C86.433 83.3432 86.7954 83.4364 87.1509 83.4323C87.7954 83.3106 88.4075 83.0477 88.9462 82.661C88.0057 82.6203 87.0915 82.3274 86.2927 81.8108C85.9234 81.4441 86.3747 81.7493 86.589 81.8108C88.2391 82.2973 90.9923 81.0179 92.2 79.9598C92.1721 79.8868 92.1242 79.8239 92.0623 79.7787C92.0004 79.7336 91.9271 79.7082 91.8514 79.7058C90.6447 79.5799 89.4535 79.3266 88.2964 78.9498C87.3722 78.6848 86.5201 78.2001 85.8079 77.5342C85.5511 77.2678 85.9896 77.4717 86.5426 77.778C87.2992 78.2109 88.162 78.4029 89.0232 78.3301C89.8389 78.256 90.6143 77.9295 91.249 77.3928C92.1319 76.4248 91.2846 77.1746 89.9406 76.8325C88.6963 76.517 86.9909 75.9997 86.9178 75.7057C86.9178 75.7057 90.3682 77.1695 91.7981 73.8414C91.966 73.4491 91.6421 73.8097 91.1216 73.7789C90.0257 73.6511 88.9504 73.3756 87.9231 72.9595C89.8211 73.3252 91.5117 71.466 91.8188 70.2501C90.9794 70.3997 90.1055 70.4201 89.194 70.583C88.2763 70.8236 87.3188 70.8516 86.3895 70.665C86.039 70.5564 86.5999 70.5338 87.2289 70.5215C89.8685 70.4683 91.9768 67.9945 91.2579 65.4859C90.2855 66.2284 89.1566 66.72 87.9646 66.92C87.0708 67.2526 86.1049 67.3183 85.1769 67.1095C84.9892 67.0234 85.2677 67.0931 85.8918 67.0245C86.7441 66.9031 87.5476 66.5405 88.2142 65.9765C88.8809 65.4126 89.3849 64.669 89.671 63.8275C89.1456 63.9596 85.2825 65.3804 84.299 65.1591C84.0886 65.112 84.531 64.8938 85.1551 64.6726L85.3852 64.5927C86.0583 64.2946 86.6535 63.835 87.1217 63.2515C87.5899 62.6681 87.9177 61.9776 88.0781 61.2369C88.2409 60.4438 88.2011 59.6204 87.9626 58.8482C87.3369 59.4643 86.6427 60.0011 85.8948 60.4472L86.3303 58.4876C85.4711 59.1155 84.6258 59.8029 83.7499 60.3765L83.5909 60.4933C83.592 60.4879 83.592 60.4823 83.5909 60.4769C82.7427 61.029 81.3997 61.8925 81.0807 62.0134C80.8516 62.0984 87.5814 58.0933 83.4951 52.2402C83.0414 53.8294 82.4288 55.365 81.6673 56.822C81.0223 57.6823 80.2863 58.4646 79.473 59.1545C79.2005 59.344 79.4493 59.0756 79.795 58.6628C80.1426 58.2406 80.4682 57.7995 80.7706 57.3414C81.7719 55.9073 81.9043 55.514 81.4836 53.9221C81.1538 52.6755 81.2733 52.8835 80.6561 54.0041C79.8189 55.8053 78.6043 57.3896 77.101 58.6413C76.845 58.8132 76.5511 58.9151 76.2469 58.9373C76.233 58.9373 78.9408 56.6387 79.1106 54.4825C79.1875 53.0742 78.8302 51.6772 78.0905 50.4937C77.5925 49.6397 76.8742 48.9471 76.0168 48.4942C76.0829 52.1705 76 54.7426 72.603 57.1847C72.3867 57.3588 72.5901 57.0955 72.8844 56.6817C73.6675 55.5806 74.8021 54.041 74.5632 52.653C74.389 51.8756 74.0189 51.1601 73.4907 50.5797C73.4285 50.8268 73.3934 51.0804 73.3861 51.3357C73.0572 53.3506 71.6964 55.6379 69.5782 56.2085C69.2968 56.229 69.6345 56.1736 70.0404 55.9626C72.3116 54.7898 72.3502 50.6607 70.8452 49.4724C70.1105 51.4945 69.5713 54.21 67.2457 54.4374C65.6894 54.59 66.9821 53.3301 67.2457 52.6796C67.2813 52.5926 67.4561 52.3652 67.4719 52.3119C66.4983 52.8702 65.5773 53.5218 64.7207 54.2581C64.6522 54.3084 64.571 54.3369 64.4872 54.34C64.4033 54.3431 64.3204 54.3207 64.2487 54.2755C63.5683 53.8084 65.7181 51.6307 64.695 52.316C64.5222 52.4246 62.5837 53.9549 61.9853 54.2366C61.839 54.3122 61.6743 54.3408 61.5123 54.3186C61.2723 54.2725 62.1769 52.946 62.639 52.4819C62.7717 52.3758 62.8989 52.2627 63.0202 52.1429C62.8469 52.1095 62.6686 52.1161 62.4979 52.1621C62.3273 52.2082 62.1685 52.2925 62.0327 52.4092C61.3128 52.8015 60.0705 53.9846 59.2953 54.4036C59.1275 54.4978 59.1314 54.7109 59.085 54.3268C59.3408 53.9488 60.4142 52.0927 59.4138 52.7718C58.7149 53.3281 58.0464 53.9241 57.4112 54.5572C57.2986 54.631 57.188 54.7109 57.0774 54.7928C56.9174 54.9137 56.6508 55.1401 56.5313 54.8697C56.7049 54.3707 56.9249 53.8904 57.188 53.4356C56.419 53.9915 55.7128 54.6355 55.0826 55.3552C54.9464 55.5283 54.663 55.8028 54.5366 55.6625C54.6303 55.1635 54.764 54.6735 54.9365 54.1977C54.7262 54.212 53.2064 56.019 52.682 56.442C52.5254 56.5681 52.3626 56.6858 52.1942 56.7944C51.4227 57.1789 50.7329 57.719 50.1649 58.3831C50.0835 58.4567 49.9827 58.5031 49.8755 58.5163C49.4835 58.6476 49.1273 58.8741 48.8367 59.177C48.2703 59.8212 47.7616 60.5176 47.3169 61.2574C47.1832 61.4507 47.0908 61.6714 47.0459 61.9046C47.0009 62.1379 47.0043 62.3784 47.056 62.6101C47.1077 62.8419 47.2064 63.0596 47.3455 63.2486C47.4847 63.4377 47.6611 63.5938 47.863 63.7066C47.9911 63.8138 48.1439 63.8844 48.3064 63.9115L48.2935 63.9228L48.3103 63.9238ZM47.9726 62.5082C47.8739 62.6915 47.8818 62.5676 47.7751 62.3791C47.4463 61.7911 47.9242 61.6733 48.0022 62.0103C48.0228 62.0941 48.037 62.1793 48.0447 62.2654C48.0411 62.3508 48.0177 62.4341 47.9766 62.5082L47.9726 62.5082ZM51.8239 59.4444C51.4289 59.7076 51.0339 59.7209 50.944 59.4751C50.9403 59.2821 50.9908 59.0922 51.0894 58.9285C51.1879 58.7649 51.3302 58.6344 51.499 58.5532C51.894 58.2909 52.289 58.2766 52.3789 58.5224C52.3831 58.7154 52.333 58.9054 52.2346 59.0692C52.1361 59.233 51.9928 59.3634 51.8239 59.4444ZM56.7614 59.43C56.8295 60.3745 56.323 57.494 55.2545 57.8474C55.1735 57.8751 54.7607 57.9785 54.6807 58.0154C54.1554 58.2694 56.5135 56.0302 56.7614 59.43ZM55.5912 63.9371C54.8281 64.5663 54.1151 65.2582 53.4592 66.0063L52.4924 67.1054L52.4924 66.9353C53.0093 66.113 53.6512 65.3831 54.3934 64.774C54.8871 64.3448 55.2495 64.0467 55.5478 63.8234C56.8987 62.8042 57.4902 62.4651 55.5961 63.9412L55.5912 63.9371ZM66.2849 55.9944C64.533 55.622 62.7345 55.5462 60.9593 55.7701L57.8891 56.1306C57.8891 56.1306 64.6684 53.7562 67.3968 56.2638C68.1868 56.9941 67.1243 56.1982 66.2849 55.9944ZM73.5687 61.2185C73.0792 60.7026 72.4739 60.3207 71.807 60.1071C71.0442 59.9392 70.2498 60.0238 69.5358 60.3488C68.9966 60.6152 68.6816 60.6633 69.3995 60.1983C69.9379 59.763 70.6066 59.5377 71.2888 59.5617C71.971 59.5856 72.6235 59.8573 73.1323 60.3294C73.5559 60.6559 73.8832 61.0987 74.0773 61.6078C73.8807 61.5203 73.7046 61.39 73.5608 61.2257L73.5687 61.2185ZM69.2346 94.8568C64.7796 96.3885 60.0542 96.8844 55.3937 96.3093C53.4911 96.0825 51.6076 95.7079 49.759 95.1886C42.2622 93.2629 35.8012 88.3456 31.7805 81.5055C29.1772 76.8525 27.9006 71.5286 28.0991 66.1527C28.2921 59.0919 30.3591 52.2231 34.0725 46.3021C37.3787 41.0534 42.722 37.0216 48.0644 34.3931C49.3048 33.7704 50.601 33.2753 51.9345 32.915C53.384 32.5037 54.8565 32.1849 56.3437 31.9603C58.063 31.7032 59.801 31.6065 61.537 31.6715C61.5301 31.7391 59.8385 31.861 58.2585 32.0167C56.0702 32.2274 53.9057 32.6499 51.7933 33.2787C51.6047 33.336 51.4151 33.3975 51.2284 33.4682C46.816 35.084 42.761 37.6017 39.3033 40.8721C35.2728 44.835 32.2882 49.8029 30.634 55.3019C21.1747 84.2907 49.0855 105.141 77.8713 91.0882C75.0848 92.5595 72.2001 93.8217 69.2395 94.8649L69.2395 94.8568L69.2346 94.8568ZM80.2828 86.9693C84.7108 78.8463 86.5209 74.2901 81.8312 66.2203C81.1424 64.8349 80.1325 63.6487 78.8924 62.7683L78.9783 62.6003C79.083 62.6567 79.1758 62.7089 79.2676 62.7704C81.3503 64.0713 83.113 66.7889 84.1805 69.8383C84.8358 71.4369 85.1788 73.1544 85.1896 74.8915C85.2005 76.6285 84.8789 78.3505 84.2437 79.9578C83.2115 82.4596 81.8797 84.8167 80.2798 86.9734L80.2828 86.9693Z" fill="white"/>
<path d="M117.863 70.6143C118.209 70.6143 118.473 70.5264 118.655 70.3505C118.856 70.1552 118.956 69.95 118.956 69.7351C118.956 69.4811 118.774 69.2662 118.409 69.0904C118.045 68.895 117.59 68.6899 117.043 68.475C116.497 68.2406 115.904 67.9671 115.267 67.6545C114.629 67.3419 114.037 66.9316 113.491 66.4237C112.944 65.9157 112.489 65.2905 112.124 64.5481C111.76 63.8057 111.578 62.8973 111.578 61.8228C111.578 60.9827 111.76 60.1719 112.124 59.3904C112.489 58.5894 113.008 57.8861 113.682 57.2805C114.356 56.6553 115.167 56.1571 116.114 55.7859C117.079 55.4147 118.163 55.2291 119.366 55.2291C120.604 55.2291 121.679 55.405 122.59 55.7566C123.501 56.0888 124.266 56.4502 124.885 56.8409C125.614 57.3293 126.234 57.8666 126.744 58.4527L124.148 62.8484C123.82 62.5554 123.465 62.2916 123.082 62.0572C122.754 61.8423 122.372 61.6567 121.934 61.5004C121.515 61.3246 121.069 61.2367 120.595 61.2367C120.249 61.2367 119.976 61.3343 119.776 61.5297C119.593 61.7055 119.502 61.9009 119.502 62.1158C119.502 62.3698 119.685 62.5945 120.049 62.7898C120.413 62.9657 120.869 63.1708 121.415 63.4052C121.962 63.6201 122.554 63.8937 123.191 64.2258C123.829 64.5384 124.421 64.9486 124.967 65.4566C125.514 65.945 125.969 66.5604 126.334 67.3028C126.698 68.0452 126.88 68.9537 126.88 70.0282C126.88 70.8682 126.698 71.6888 126.334 72.4898C125.969 73.2713 125.45 73.9746 124.776 74.5998C124.102 75.2054 123.282 75.6938 122.317 76.065C121.37 76.4362 120.295 76.6218 119.092 76.6218C117.58 76.6218 116.287 76.446 115.212 76.0943C114.156 75.7231 113.281 75.3128 112.589 74.8635C111.787 74.3555 111.132 73.7694 110.622 73.1052L113.217 68.7094C113.6 69.0806 114.028 69.403 114.502 69.6765C114.921 69.9109 115.413 70.1259 115.977 70.3212C116.542 70.5166 117.171 70.6143 117.863 70.6143Z" fill="white"/>
<path d="M128.793 54.4965H135.351V76.1822H128.793V54.4965Z" fill="white"/>
<path d="M137.533 68.4164C137.533 67.2833 137.733 66.2185 138.134 65.2221C138.553 64.2258 139.127 63.3564 139.856 62.614C140.584 61.8716 141.459 61.2855 142.479 60.8557C143.499 60.4259 144.628 60.211 145.867 60.211C147.088 60.211 148.208 60.4259 149.228 60.8557C150.266 61.2855 151.15 61.8716 151.879 62.614C152.607 63.3564 153.172 64.2258 153.573 65.2221C153.992 66.2185 154.201 67.2833 154.201 68.4164C154.201 69.5495 153.992 70.6143 153.573 71.6106C153.172 72.607 152.607 73.4764 151.879 74.2188C151.15 74.9612 150.266 75.5473 149.228 75.9771C148.208 76.4069 147.088 76.6218 145.867 76.6218C144.628 76.6218 143.499 76.4069 142.479 75.9771C141.459 75.5473 140.584 74.9612 139.856 74.2188C139.127 73.4764 138.553 72.607 138.134 71.6106C137.733 70.6143 137.533 69.5495 137.533 68.4164ZM147.643 68.4164C147.643 67.7521 147.461 67.2247 147.097 66.8339C146.751 66.4237 146.341 66.2185 145.867 66.2185C145.393 66.2185 144.974 66.4237 144.61 66.8339C144.264 67.2247 144.091 67.7521 144.091 68.4164C144.091 69.0806 144.264 69.6179 144.61 70.0282C144.974 70.4189 145.393 70.6143 145.867 70.6143C146.341 70.6143 146.751 70.4189 147.097 70.0282C147.461 69.6179 147.643 69.0806 147.643 68.4164Z" fill="white"/>
<path d="M155.565 66.5116V60.6506H157.478V55.6687H164.036V60.6506H166.496V66.5116H164.036V69.0025C164.036 69.5886 164.155 70.0282 164.392 70.3212C164.647 70.6143 164.984 70.7608 165.403 70.7608C165.548 70.7608 165.676 70.7608 165.785 70.7608C165.913 70.7413 166.031 70.7217 166.14 70.7022C166.25 70.6826 166.368 70.6533 166.496 70.6143V76.4753C166.277 76.5339 166.04 76.5827 165.785 76.6218C165.567 76.6609 165.302 76.6902 164.993 76.7097C164.701 76.7488 164.382 76.7683 164.036 76.7683C161.978 76.7683 160.366 76.1236 159.2 74.8342C158.052 73.5252 157.478 71.5813 157.478 69.0025V66.5116H155.565Z" fill="white"/>
<path d="M168.674 68.4164C168.674 67.2833 168.875 66.2185 169.275 65.2221C169.694 64.2258 170.268 63.3564 170.997 62.614C171.726 61.8716 172.6 61.2855 173.62 60.8557C174.64 60.4259 175.77 60.211 177.008 60.211C178.229 60.211 179.349 60.4259 180.369 60.8557C181.408 61.2855 182.291 61.8716 183.02 62.614C183.749 63.3564 184.313 64.2258 184.714 65.2221C185.133 66.2185 185.343 67.2833 185.343 68.4164C185.343 69.5495 185.133 70.6143 184.714 71.6106C184.313 72.607 183.749 73.4764 183.02 74.2188C182.291 74.9612 181.408 75.5473 180.369 75.9771C179.349 76.4069 178.229 76.6218 177.008 76.6218C175.77 76.6218 174.64 76.4069 173.62 75.9771C172.6 75.5473 171.726 74.9612 170.997 74.2188C170.268 73.4764 169.694 72.607 169.275 71.6106C168.875 70.6143 168.674 69.5495 168.674 68.4164ZM178.785 68.4164C178.785 67.7521 178.602 67.2247 178.238 66.8339C177.892 66.4237 177.482 66.2185 177.008 66.2185C176.535 66.2185 176.116 66.4237 175.751 66.8339C175.405 67.2247 175.232 67.7521 175.232 68.4164C175.232 69.0806 175.405 69.6179 175.751 70.0282C176.116 70.4189 176.535 70.6143 177.008 70.6143C177.482 70.6143 177.892 70.4189 178.238 70.0282C178.602 69.6179 178.785 69.0806 178.785 68.4164Z" fill="white"/>
<path d="M194.911 70.6143H200.103V76.1822H186.987V70.6143L191.905 66.2185H187.26V60.6506H199.829V66.2185L194.911 70.6143Z" fill="white"/>
<path d="M209.108 60.6506V76.1822H202.55V60.6506H209.108ZM202.55 53.3243H209.108V58.8923H202.55V53.3243Z" fill="white"/>
<path d="M211.837 54.4965H218.395V76.1822H211.837V54.4965Z" fill="white"/>
<path d="M221.123 54.4965H227.681V76.1822H221.123V54.4965Z" fill="white"/>
<path d="M236.831 60.211C237.997 60.211 239.072 60.4259 240.055 60.8557C241.039 61.2855 241.886 61.8716 242.597 62.614C243.325 63.3564 243.89 64.2258 244.291 65.2221C244.691 66.2185 244.892 67.2833 244.892 68.4164V76.1822H238.607L238.06 74.4239C237.824 74.8342 237.541 75.2054 237.213 75.5375C236.922 75.811 236.548 76.0552 236.093 76.2701C235.656 76.5046 235.128 76.6218 234.508 76.6218C233.761 76.6218 233.078 76.4948 232.459 76.2408C231.858 76.0064 231.338 75.6743 230.901 75.2445C230.482 74.8147 230.154 74.3067 229.918 73.7206C229.699 73.1345 229.59 72.4898 229.59 71.7865C229.59 71.0832 229.708 70.4384 229.945 69.8523C230.2 69.2662 230.592 68.7583 231.12 68.3285C231.648 67.8987 232.322 67.5665 233.142 67.3321C233.98 67.0781 234.982 66.9511 236.148 66.9511H238.334C238.261 66.6581 238.124 66.3943 237.924 66.1599C237.742 65.945 237.487 65.7594 237.159 65.6031C236.849 65.4273 236.421 65.3394 235.874 65.3394C235.528 65.3394 235.2 65.398 234.891 65.5152C234.599 65.6324 234.344 65.7692 234.126 65.9255C233.871 66.1013 233.634 66.2967 233.415 66.5116L231.093 62.5554C231.493 62.1256 231.985 61.7349 232.568 61.3832C233.06 61.0901 233.661 60.8264 234.372 60.592C235.082 60.338 235.902 60.211 236.831 60.211ZM236.967 71.933C237.314 71.933 237.623 71.7376 237.897 71.3469C238.188 70.9562 238.334 70.3212 238.334 69.4421C237.569 69.4421 237.013 69.5984 236.667 69.911C236.321 70.2235 236.148 70.6045 236.148 71.0538C236.148 71.2688 236.23 71.4739 236.394 71.6693C236.576 71.8451 236.767 71.933 236.967 71.933Z" fill="white"/>
</svg>
