<svg version="1.1" id="Layer_1" xmlns="http://www.w3.org/2000/svg" x="0" y="0" viewBox="0 0 15 15" xml:space="preserve"><style>.st2{fill:#59bf93}</style><path d="M0 5.7l7.5 8.8L15 5.7H0z" fill="#037c4f"/><path d="M15 5.7l-7.5 8.8-.3-.4 7.1-8.4h.7z" fill="#036942"/><path class="st2" d="M4.7 5.7l2.8 8.8 2.8-8.8H4.7z"/><path class="st2" d="M13.1 2.4H1.9L0 5.7h15l-1.9-3.3z"/><path d="M7.5 2.4L4.7 5.7h5.6L7.5 2.4zm-5.6 0l2.8 3.3H0l1.9-3.3zm11.2 0l-2.8 3.3H15l-1.9-3.3z" fill="#99d3b9"/><path d="M15 5.7h-.8L12.6 3l.5-.5L15 5.7z" fill="#7bc9a6"/></svg>