<svg width="44" height="44" fill="none" xmlns="http://www.w3.org/2000/svg"><path d="M40.333 6.6h-2.2v5.133a2.933 2.933 0 01-5.866 0V6.6H11.733v5.133a2.933 2.933 0 01-5.866 0V6.6h-2.2A3.667 3.667 0 000 10.267v30.066A3.667 3.667 0 003.667 44h36.666A3.667 3.667 0 0044 40.333V10.267A3.667 3.667 0 0040.333 6.6zM13.2 35.933a2.2 2.2 0 01-2.2 2.2H6.6a2.2 2.2 0 01-2.2-2.2v-3.666a2.2 2.2 0 012.2-2.2H11a2.2 2.2 0 012.2 2.2v3.666zm0-12.466a2.2 2.2 0 01-2.2 2.2H6.6a2.2 2.2 0 01-2.2-2.2V19.8a2.2 2.2 0 012.2-2.2H11a2.2 2.2 0 012.2 2.2v3.667zm13.2 12.466a2.2 2.2 0 01-2.2 2.2h-4.4a2.2 2.2 0 01-2.2-2.2v-3.666a2.2 2.2 0 012.2-2.2h4.4a2.2 2.2 0 012.2 2.2v3.666zm0-12.466a2.2 2.2 0 01-2.2 2.2h-4.4a2.2 2.2 0 01-2.2-2.2V19.8a2.2 2.2 0 012.2-2.2h4.4a2.2 2.2 0 012.2 2.2v3.667zm13.2 12.466a2.2 2.2 0 01-2.2 2.2H33a2.2 2.2 0 01-2.2-2.2v-3.666a2.2 2.2 0 012.2-2.2h4.4a2.2 2.2 0 012.2 2.2v3.666zm0-12.466a2.2 2.2 0 01-2.2 2.2H33a2.2 2.2 0 01-2.2-2.2V19.8a2.2 2.2 0 012.2-2.2h4.4a2.2 2.2 0 012.2 2.2v3.667z" fill="url(#paint0_linear)"/><path d="M7.333 7.333v4.4a1.467 1.467 0 102.934 0v-4.4c0-.405.328-.733.733-.733h.733V2.933a2.933 2.933 0 00-5.866 0V6.6H6.6c.405 0 .733.328.733.733z" fill="url(#paint1_linear)"/><path d="M33.733 7.333v4.4a1.467 1.467 0 102.934 0v-4.4c0-.405.328-.733.733-.733h.733V2.933a2.933 2.933 0 00-5.866 0V6.6H33c.405 0 .733.328.733.733z" fill="url(#paint2_linear)"/><defs><linearGradient id="paint0_linear" x1="0" y1="6.6" x2="46.868" y2="10.628" gradientUnits="userSpaceOnUse"><stop stop-color="#0084FF"/><stop offset="1" stop-color="#006AD0"/></linearGradient><linearGradient id="paint1_linear" x1="5.867" y1="0" x2="12.155" y2=".204" gradientUnits="userSpaceOnUse"><stop stop-color="#0084FF"/><stop offset="1" stop-color="#006AD0"/></linearGradient><linearGradient id="paint2_linear" x1="32.267" y1="0" x2="38.555" y2=".204" gradientUnits="userSpaceOnUse"><stop stop-color="#0084FF"/><stop offset="1" stop-color="#006AD0"/></linearGradient></defs></svg>