<svg width="16" height="13" fill="none" xmlns="http://www.w3.org/2000/svg"><path d="M1.52 4.076c.2.141.804.56 1.81 1.259 1.008.698 1.78 1.235 2.316 1.612.058.041.184.131.375.27.191.138.35.25.477.335.127.086.28.181.46.287.18.106.348.186.508.239.159.053.306.08.441.08h.018c.135 0 .283-.027.442-.08.159-.053.328-.133.508-.239.18-.106.333-.201.46-.287.126-.085.285-.197.476-.335.192-.139.317-.229.376-.27l4.135-2.871c.43-.3.789-.663 1.077-1.087.289-.424.433-.869.433-1.334 0-.389-.14-.722-.42-.998A1.365 1.365 0 0014.42.24H1.414C.96.241.61.395.367.701.122 1.007 0 1.39 0 1.849c0 .371.162.773.486 1.206.324.433.668.773 1.034 1.02z" fill="#525B5C"/><path d="M14.949 5.021a183.76 183.76 0 00-4.4 3.048c-.336.248-.608.44-.817.579-.21.138-.488.28-.835.424a2.542 2.542 0 01-.972.217h-.018c-.3 0-.624-.072-.972-.217a5.045 5.045 0 01-.834-.424 20.914 20.914 0 01-.818-.579C4.488 7.486 3.025 6.47.893 5.021A4.68 4.68 0 010 4.253v7.014c0 .39.138.722.415.999.277.277.61.415.999.415h13.005c.388 0 .721-.138.998-.415a1.36 1.36 0 00.415-.998V4.253a4.872 4.872 0 01-.883.768z" fill="#525B5C"/></svg>