<svg version="1.1" id="ZirkaAndry_madeIt" xmlns="http://www.w3.org/2000/svg" x="0" y="0" viewBox="0 0 70 70" xml:space="preserve"><style>.st6{fill:#f3ab9c}.st7{fill:#f4cfc7}.st9{fill:#f0ad98}.st10{fill:#f2ab9c}.st15{fill:#fff}.st16{font-family:&apos;ArialMT&apos;}</style><g id="Layer_3"><linearGradient id="SVGID_1_" gradientUnits="userSpaceOnUse" x1="11.699" y1="11.484" x2="58.731" y2="58.516"><stop offset=".339" stop-color="#49d0bd"/><stop offset="1" stop-color="#216a6a"/></linearGradient><circle cx="35.2" cy="35" r="33.3" fill="url(#SVGID_1_)"/></g><g id="Layer_1_1_"><path d="M21.1 39.1l1.4 2.3c.1 0 .1-.1.2-.1.7-.8.9-1.9 1.2-2.9.3-1.1.5-2.3.5-3.4 0-.2 0-.3-.3-.4-.5-.1-.9-.2-1.4-.3.1.2.1.8.1.9-.1.6-.2 1.2-.6 1.6-.2.2-.4.4-.7.5-.1.1-1 .3-1.2.3-.1.1.7 1.4.8 1.5z" fill="#f4ab9c"/><path d="M21.6 37.4c.3-.1.5-.3.7-.5.4-.5.5-1 .6-1.6 0-.1 0-.6-.1-.9-.6-.3-1.2-.5-1.9-.9-.5-.3-.9-.7-1.3-1-.4-.3-.8-.4-1.3-.3-.1.1-.6.1-.7.3-.1.3 2.6 5.1 2.8 5.2.1 0 1-.2 1.2-.3z" fill="#f4cec6"/><path class="st6" d="M25.1 38.8zm29.7-10.9c0-.1-.8-.4-.9-.5l-.1-.1c-.3 0-.7-.1-.9.1-.3.2-.3.8-.5 1.1-.9 2.3-2.6 4.1-4.9 5.1-.6.3-1.2.5-1.9.6-.4.1-.7.2-.6.7.1 1.1.5 2.1.8 3.1.1.5 1.8 3.4 1.6 3.6l7.4-13.7z"/><path class="st7" d="M45.1 58.5c-.1 0-2.1.2-2.9.3l-4.9.7s-1.5.1-1.6.2c-.1 2.2.1 6.9 0 7 .5.2 4.6-.3 5.1-.5 0 0 2.9-.7 3.2-.8h-.1c.1-.1 1-6.1 1.2-6.9-.1 0-.1 0 0 0z"/><path class="st6" d="M51.5 57.6l-6.5.9c-.1.8-1.1 6.7-1.2 6.9 0 .1 0 .1.1 0 2.1-.4 5.8-1.5 6.7-3.7.2-.3 1.2-4.1.9-4.1zm-1.7 2.3z"/><path class="st7" d="M33.4 60.2c-2.2.3-13.5 1.6-13.6 1.7-.3.2.1.8.3 1 .3.3.7.4 1 .6 4 1.8 8 3.3 12.3 3.5h.8c.1 0 .1 0 .1-.1.1-.1 0-6.9 0-7 .1.1-.7.3-.9.3zm-9.3 4.4zm8-4.2zm22.7-40.8c-.1-.3-.1-.5-.3-.7-1-1.9-2.2-4-4.1-5.1-3-1.8-7.1-1-10-2.9-1.6-1-2.5-3-2.5-4.9-1.9.1-4.2.2-6.1.3-.3 0-1-.1-1.2.1-.2.2-.1.6-.1.9-.3 1.9-1.2 3.6-2.9 4.5-1.5.8-3.2.9-4.9 1.2-1.9.3-3.4 1-4.8 2.3-1.4 1.4-2.3 3-2.9 4.9-.3 1.2-.5 2.4-.5 3.6 0 .7.3 1.6 1 1.6.6 0 .9-.8 1.1-1.4.5-1.6 1.2-3.2 2.3-4.5 1.2-1.2 2.7-2.1 4.4-2.3-2.8 1.4-4.9 4.2-5.4 7.3 0 .1-.1.3.1.3.1.1.2.1.3.1 4.9-.5 9.9-1.1 14.9-1.7.4-.1.9-.1 1.1-.5s.1-.8-.1-1.1c-.4-1-1-2-1.9-2.7.8.5 1.5 1 2.3 1.6.1.1.3.2.5.1.1-.1.3-.2.3-.3.5-.8 1.2-1.3 2.1-1.6-.8.8-1.3 2-1.3 3.2 0 .2.1.5.2.6.1.1.4.1.6.1 4-.5 8-1 12.1-1.5.1 0 .9.3 1 .3.3-.3 0-1-.2-1.4-.8-1-2.2-2.1-3.4-2.6 2.2 1.1 4.3 2.2 6.5 3.3.4.2 1 .5 1.4.1.5-.4.5-.8.4-1.2zM15.7 21c-.1 0-.1 0 0 0-.1-.1-.1-.1 0 0-.1-.1-.1 0 0 0z"/><path d="M21.9 48.9l.1-.1v-.1c.4-.8.9-1.2 1.4-1.9.3-.5.4-1.4.9-1.9-.6.5-1.2 1-1.6 1.7s-.7 1.6-1 2.4c.1-.1.2-.1.2-.1z" fill="#fdfbf8"/><path class="st6" d="M23.2 31.7c-.2 0-.3-.1-.4-.1-1.2.1-.5 0 .3-.1-.1 0-.1 0-.2-.1-.1 0-.3.1-.4.1-.2 0-.7 0-.9.1-.1 0-.1.1.1.2 2.3 1.6 5.5 2.1 8.2 1.1.6-.2 1.2-.5 1.7-.8-.6.1-2.5.3-2.8.3-1.8.4-4.1-.6-5.6-.7zm-.8.1z"/><path class="st9" d="M39.4 33.6l.1.1.1.1.2.2c.1.1.3.3.5.4.2.1.5.3.7.5v.2l.1.1v1.2c0 .3 0 .6.1.9.2 2.4 1 4.7 1.8 7.1v.1c.1.4.3.8.4 1.2.5 1.6 1 3.2 1.4 4.9v.3c.8-.1 5.3-.4 6.4-.6-.2 0-6.4-11.7-7.3-15-1-.7-3.2-1.4-3.6-1.6-.5-.2-.9-.6-1.3-.9l.4.8c0-.1 0 0 0 0-.1-.1-.1-.1 0 0zM46.3 50s.1.1 0 0zm-4.1-15.5zm-.1.4z"/><path class="st10" d="M51.5 28.1c.1 0 .1-.1.1-.1.1 0 0 0-.1.1z"/><path class="st10" d="M51.5 27.9c.1 0 .2 0 0 0 .2 0 .1.1 0 0 0 .1-.1.1-.1.2 0 0-.6.5-.7.5-1.6 1.5-3.7 2.6-5.9 3.2-1.4.3-2.9.7-3.8.5h-.1c-.5-.1-1-.3-1.6-.3h-.5c.1.3 1 .8 1.3.8 1.7.7 3.6.7 5.3.2 1.3-.3 1.6-.7 2.3-1 2.3-1 4.5-3.5 4.2-4.3.3.1.3.2-.4.2 0-.1-.1 0-.1 0 .1.1.1 0 .1 0z"/><path class="st7" d="M51.7 28s.1-.1 0 0zM37.8 51.8c2.2-.3 4.7-.6 6.9-.9v-.4c-.3-1.6-.8-3.3-1.4-4.9-.1-.4-.3-.8-.4-1.2v-.1c-.8-2.3-1.6-4.7-1.8-7.1 0-.3-.1-.6-.1-.9v-1.2c0-.1 0-.1-.1-.1 0-.1-.1-.1-.1-.2-.1-.2-.4-.4-.7-.5-.1-.1-.3-.3-.5-.4l-.2-.2-.1-.1-.1-.1-.1-.1s0-.1-.1-.1c-.1-.1-.1-.2-.2-.3-.1-.1-.2-.3-.3-.5-.1-.1-.1-.1-.1-.2s-.1-.1-.1-.2c.1-.1.3-.1.4-.1.1 0 .3-.1.5 0 .5 0 1 .2 1.6.3h.1c.9.1 2.4-.2 3.8-.5 2.2-.5 4.2-1.6 5.9-3.2.1-.1.6-.5.7-.5.1-.1.2-.1.2-.1s-.1 0-.1.1l.1-.1s0-.1-.1-.1h-.1c-.3 0-1.2.1-1.2.1-4.2.5-8.4 1-12.5 1.6-4 .6-8 1.3-11.9 1.6-.4.1-1.2.1-1.6.2-.1 0-.5.1-1 .1-.8.1-1.5.1-.3.1.1 0 .2.1.4.1 1.4.1 3.8 1.1 5.6.8.3-.1 2.2-.1 2.8-.3h.1c.1 0 .1-.1.1-.1h.1c-1.4 1.4-3.6 2.5-5.5 2.6-.2 0-.5.1-.6.2-.1.1-.1.3-.1.5.1 3.4-1.8 6.6-3.6 9.5-1.9 2.9-3.8 6-4 9.4 6.6-.9 13.1-1.7 19.7-2.5zm-4-8.4c0-.3.2-.5.5-.5s.5.2.5.5v1c0 .3-.2.5-.5.5s-.5-.2-.5-.5v-1zm-12.1 5.5c.3-.8.5-1.6.9-2.4.4-.7 1-1.2 1.6-1.7-.5.4-.5 1.4-.9 1.9-.5.8-1 1.2-1.4 1.9v.1c0 .1-.1.1-.1.1.1.1 0 .1-.1.1 0 .1 0 .1 0 0 0 .1 0 .1 0 0z"/><path d="M34.3 44.7c.3 0 .5-.2.5-.5v-1c0-.3-.2-.5-.5-.5s-.5.2-.5.5v1c0 .3.2.5.5.5z" fill="#1e1e1b"/></g><g id="ZirkaAndry_x5F_work"><path d="M59.5 10.7C53 4.3 44.4.7 35.2.7s-17.8 3.6-24.3 10C4.5 17.2.9 25.8.9 35s3.6 17.8 10 24.3c6.4 6.4 15.1 10 24.3 10s17.8-3.6 24.3-10c6.4-6.4 10-15.1 10-24.3s-3.6-17.8-10-24.3zM35.2 2.9c12.3 0 23.1 7 28.5 17.3-.2-.3-.4-.7-.7-1-.3 0-3.2.2-3.2.3-.9.1-1.9.2-2.7.3-.3.1-.5-.1-.6-.4-.9-3.1-2.7-5.4-5.5-7.1-1.6-1-3.4-1.2-5.2-1.3-2.5-.2-4.5-1.3-5.6-3.7-.1-.2-.1-.4-.3-.7-.3-.6-.5-1.2-.8-1.8-.1 0-.3 0-.5-.1-.9-.1-1.9-.1-2.7-.1-2.1 0-4.1.3-6 .6 0 .4.1 1.7.1 1.7-.5 1.3-1.4 2.5-2.7 3.1-1.9 1-4 .8-6.1 1.3-2.7.7-4.9 2.7-6.3 5.1s-1.9 5.3-1.6 8.1c0 .1 0 .3-.1.5-.1.1-5.9 1-8.8 1.4C8 13 20.5 2.9 35.2 2.9zM46 38.4c-.3-1-.8-2.1-.8-3.1-.1-.5-.2-.6.2-.7.6-.1 1.5-.3 2.1-.7 2.5-1.5 4.3-3.2 5.3-5.1.1-.3.7-1.2.3-1.2-.3 0 .5.1.8.2.1 0 .1 0 .1.1.1.1.1.2.1.3l-6.9 13c.2-.3-1-2.3-1.2-2.8zm5.7-17.9c-.3-.1-.5-.3-.5-.5l-1.9-1.6c-.4-.3-.8-.5-1.2-.7-.8-.3-1.4-.5-1.4-.5.4.1 1 .6 1.4.8.9.6 2.1 1.5 2.1 2.9l-13.3 1.5c-1-.1.3-3.6.9-3.9.4-.2-.8.4-1.2.7-.5.3-.8.8-1.1 1.2-.1.2-.4.3-.9-.2-.6-.6-1.3-1.1-2.1-1.4.7.6 3.2 3.6 1.4 4.2-.8.3-1.8.3-2.6.5-1.6.2-3.3.3-4.9.5-2.6.3-5.1.6-7.7 1-.4.1-.6 0-.5-.5.5-3.4 2.5-5.6 5.3-7.2.1-.2-.1-.1-.1-.1-1.4.3-2.8 1-3.9 2-1.2 1.1-1.9 2.5-2.4 4-.1.3-.5 2.1-1 2.1-.1 0-1.2.1-1.3-.8-.2-2.7.3-5.3 1.9-7.5.9-1.4 2.1-2.5 3.6-3.2.6-.3 1.2-.5 1.9-.7 2.5-.5 3.7-.3 5.6-1.2.5-.2.8-.5 1-.6.7-.5 1.6-1.4 1.9-2.7.3-1.2.2-1.4.3-1.9 0-.7 5.9-.7 6.3-.8.2 0 .2-.1.2-.1v.1c.3 0 .9.2 1 .7.2.5.3 1 .5 1.4.5.8 1.5 2.4 2.4 2.9.1.1.1.1.2.1-.1 0 2.1 1 3 1.2 1.4.2 2.9.2 4.2.6 3.2 1 4.7 3.8 6.1 6.6.3.5-.1.8-.6.8 0 .1-2.2.7-2.6.3zM20.3 37.6c-.2-.1-2.9-4.9-2.8-5.2.1-.2.5-.3.7-.3.5-.1.9 0 1.3.3s.8.8 1.3 1c.6.3 1.2.6 1.9.9.5.1.9.2 1.4.3.3.1.3.2.3.4-.1 1.2-.3 2.3-.5 3.4-.3 1-.5 2-1.2 2.9-.1.1-.1.1-.2.1L21 39.2c0-.2-.8-1.5-.7-1.6 0 .1 0 .1 0 0 0 .1 0 .1 0 0zm-3.6 16.5c0 .4-4.7 1.2-6 1.6C6 50.1 3.1 42.9 3.1 35v-1c2.4-.3 11.4-1.4 11.6-1.4 1-.3 1.4.1 1.8 1 1.6 3 3.2 6 4.9 9 .2.4.1.7-.1 1-1.2 1.7-2.3 3.4-3.2 5.3-.8 1.7-1.3 3.4-1.4 5.2zM34.5 67h-1c-4.4-.1-8.4-1.6-12.3-3.5-.3-.1-.8-.3-1-.6-.2-.2-.5-.8-.3-1 .1-.1 11.4-1.4 13.6-1.7.1 0 .9-.2 1-.2v7zM18.1 54.3c.2-3.4 2.1-6.4 4-9.4 1.9-2.9 3.7-6 3.6-9.5 0-.1 0-.3.1-.5s.4-.2.6-.2c1.9-.1 4.1-1.2 5.5-2.6h-.1l-.1.1h-.1c-.5.3-1.1.5-1.7.8-2.7 1-5.8.5-8.2-1.1-.2-.1-.3-.2-.1-.2.2 0 .7 0 .9-.1.1 0 .3-.1.4-.1.1 0 .1 0 .2.1.4-.1.8-.1 1-.1.4-.1 1.2-.1 1.6-.2 4-.3 8-1 12-1.5 4.2-.5 8.4-1 12.5-1.6.1 0 1-.1 1.3-.2.1 0 .7-.2.7-.1-.5 1.1-1.8 2.6-4.2 4.3-.7.5-1.1.7-2.3 1-1.7.5-3.6.5-5.3-.1-.2-.1-1.2-.5-1.3-.8-.1 0-.3.1-.4.1 0 .1.1.1.1.2s.1.1.1.2c.5.3.8.7 1.3.9.5.2 2.7 1 3.6 1.6.9 3.4 7.1 15 7.3 15-1.1.2-5.5.5-6.4.6v.1c-2.2.3-4.7.6-6.9.9-6.6.7-13.1 1.5-19.7 2.4zm32.5 7.4c-1 2.2-4.6 3.3-6.7 3.7-.3.1-3.2.8-3.2.8-.5.1-4.6.7-5.1.5.1-.1-.1-4.8 0-7 .1-.1 1.6-.2 1.6-.2l4.9-.6c.8-.1 2.7-.3 2.9-.3-.1 0-.1 0-.2.1l6.5-.9c.5-.2-.5 3.6-.7 3.9zm1 .9c.4-1.2 1.4-3.8 1.5-4.8.1-.3.1-.3.3-.3.5-.1 2.9-.1 4.8-.2-1.9 2-4.1 3.8-6.6 5.3zM58 49.3c-1.8.2-3.6.5-5.4.7-.2 0-.3-.1-.3-.2-1-2.3-2.4-4.4-3.8-6.5-.3-.4-.3-.7 0-1.1 2-3.3 7.2-13 7.5-14.3.1-.3.3-.5.6-.5s6.8-.8 6.9-.8c.8-.1 1.7-.1 2.5-.1.8 2.7 1.2 5.6 1.2 8.5 0 4.9-1.1 9.6-3.2 13.9-1.8 0-4.9.2-6 .4z" fill="#1b1c17"/><path class="st10" d="M50.8 18.7l-2.1-.8.5.4 1.9 1.6c.1.3.3.4.5.5.3.1.7.2.8.1l1.2-.3c-.6-.6-1.7-1.1-2.8-1.5z"/><path fill="none" d="M53.6 20.5l.7-.2"/><path d="M37.5 5.9c.1.1.1.2.1.3.1.8.4 1.7.8 2.5s1 1.5 1.7 2c.4.3 3.2 1.4 3.6 1.3-1.2-1-4.4-3.2-4.9-4.7-.1-.3-.1-.8-.3-1.1-.2-.1-.7-.3-1-.3z" fill="#efab9d"/><path class="st9" d="M37.7 18.4l-.4 1.8c-.1.7-.3 2.1.4 2.1h-.1.1l-.8.1c-.8.1-.6-.9-.4-1.9.2-.8.6-1.5 1.2-2.1z"/><text transform="rotate(-6.148 280.3 -246.998)" class="st15 st16" font-size="4.114">КАЗИНО</text><text transform="rotate(-7.319 472.87 -133.842)" class="st15 st16" font-size="4.115">БЕЗ ПОШЛОСТИ</text></g></svg>