<svg version="1.1" id="Capa_1" xmlns="http://www.w3.org/2000/svg" x="0" y="0" viewBox="0 0 40 40" xml:space="preserve"><style>.st0{fill:#fff}</style><path class="st0" d="M28.1 30.1l9.5 9.5c.3.3.6.4 1 .4s.7-.1 1-.4c.5-.5.5-1.4 0-2l-9.5-9.5c2.5-3 4.1-6.8 4.1-11C34.2 7.7 26.5 0 17.1 0S0 7.7 0 17.1s7.7 17.1 17.1 17.1c4.2 0 8.1-1.6 11-4.1zm-25.3-13c0-7.9 6.4-14.3 14.3-14.3s14.3 6.4 14.3 14.3S25 31.4 17.1 31.4 2.8 25 2.8 17.1z"/><path class="st0" d="M15.1 18.1h-4.4V15h4.4v-4.3h3.2V15h4.4v3.1h-4.4v4.2h-3.2v-4.2z"/></svg>