<svg version="1.1" id="Layer_1" xmlns="http://www.w3.org/2000/svg" x="0" y="0" viewBox="0 0 20 20" xml:space="preserve"><style>.st0{fill:#fff}</style><path class="st0" d="M20.1 18.3v-10c0-.9-.7-1.6-1.7-1.6h-2.9c-.2 0-.4.2-.4.4v.8c0 .2.2.4.4.4h2.9v10H1.7v-10h2.9c.2 0 .4-.2.4-.4v-.8c0-.2-.2-.4-.4-.4H1.7C.8 6.7 0 7.4 0 8.4v10c0 .9.7 1.7 1.7 1.7h16.7c1-.1 1.7-.8 1.7-1.8z"/><path class="st0" d="M6.7 9.3c-.1-.1-.2-.1-.3-.1h-.8c-.2 0-.3.1-.4.2v.2c0 .1 0 .2.1.3l4.6 5c0 .1.1.1.2.1s.2 0 .3-.1l4.6-5c.1-.2.1-.3.1-.5-.1-.1-.3-.2-.4-.2h-.8c-.1 0-.2.1-.3.1L11 12.2V.4c-.1-.2-.3-.4-.5-.4h-.8c-.2 0-.4.2-.4.4v11.8L6.7 9.3z"/></svg>