<svg width="16" height="17" fill="none" xmlns="http://www.w3.org/2000/svg"><path d="M15.524 10.355c1.157-5.2-3.4-9.925-8.75-9.018C3.867-.466 0 1.57 0 5.027c0 .804.222 1.557.607 2.205-1.075 5.213 3.519 9.87 8.866 8.9 3.78 2 7.956-1.986 6.05-5.777zm-5.087 3.137c-1.404.577-3.714.58-5.112-.151-1.994-1.063-2.348-3.456-.628-3.456 1.296 0 .885 1.511 2.194 2.127.6.278 1.892.306 2.643-.2.741-.496.673-1.276.27-1.649-1.067-.986-4.122-.594-5.519-2.32-.607-.748-.721-2.068.025-3.026 1.3-1.673 5.115-1.775 6.755-.511 1.514 1.172 1.106 2.727-.117 2.727-1.47 0-.697-1.923-3.07-1.923-1.72 0-2.397 1.223-1.185 1.819 1.642.815 5.827.543 5.827 3.73-.003 1.327-.816 2.316-2.083 2.833z" fill="#525B5C"/></svg>