<svg viewBox="0 0 204 204" fill="none" xmlns="http://www.w3.org/2000/svg"><circle cx="102" cy="102" r="70.5" transform="rotate(21.6 102 102)" stroke="#FF671F" stroke-width="15"/><path d="M88 117.9l13.6 5.3-5.2 13.1-13.6-5.3 5.2-13.1zm-3.6-39.3c3.7-8.5 9.2-13.4 16.3-14.8 4.4-.8 9.3-.3 14.5 1.8a30.4 30.4 0 0115 11.6c3.3 5 3.7 10.8 1.1 17.3-1.5 3.9-3.8 6.8-6.8 8.7a36.5 36.5 0 01-9.1 3.7L111 108c-2.2.7-4 1.8-5.3 3.4-.9 1-1.8 2.7-2.7 5.1l-12.3-4.8c2.2-5 4-8.4 5.6-10a20 20 0 018.8-4.4l4.3-1.3c1.4-.4 2.7-1 3.7-1.6a9.8 9.8 0 004-4.8c1-2.3 1-4.7.4-7-.5-2.5-2.6-4.4-6.2-5.8-3.5-1.4-6.5-1.2-8.9.5-2.3 1.8-4 3.9-5 6.4l-13.1-5.2z" fill="#FF671F"/></svg>