<svg width="68" height="73" fill="none" xmlns="http://www.w3.org/2000/svg"><path d="M12.47 29.181c-3.161 0-4.742 0-5.552.518-.735.47-1.157 1.196-1.137 1.957.021.839-.866 3.08 1.137 5.07L30.075 56.62c1.242 1.234 1.863 1.852 2.607 2.081.68.21 1.432.21 2.112 0 .743-.23 1.364-.847 2.606-2.08l18.817-18.702c1.475-1.466 4.657-1.188 5.327-3.157.371-1.09.14-2.656.15-3.105.02-.761-.401-1.486-1.137-1.957-.81-.518-2.39-.518-5.551-.518H12.47z" fill="#000"/><path d="M21.738 17.579c0-2.128 2.117-3.852 4.73-3.852h14.54c2.612 0 4.73 1.724 4.73 3.852v22.685c0 2.127-2.118 3.852-4.73 3.852h-14.54c-2.613 0-4.73-1.725-4.73-3.852V17.579z" fill="#000"/><path d="M13.923 29.472c-2.933 0-4.4 0-5.15.498-.683.453-1.074 1.15-1.056 1.882.02.806 2.924-.267 4.783 1.648l17.758 22.353c1.153 1.187 1.729 1.78 2.418 2.002a3.244 3.244 0 0 0 1.96 0c.69-.221 1.267-.815 2.419-2.002L56.5 33.5c1.859-1.915 3.077-.842 3.097-1.648.017-.732-.373-1.43-1.056-1.882-.752-.498-2.218-.498-5.15-.498H13.922z" fill="#E83A03"/><path d="M22.522 18.528c0-2.045 1.965-3.703 4.389-3.703h13.491c2.424 0 4.389 1.658 4.389 3.703v16.324c0 2.046-1.965 3.704-4.389 3.704H26.911c-2.424 0-4.389-1.658-4.389-3.704V18.528z" fill="#E83A03"/><path d="M12.47 32.181c-3.161 0-4.742 0-5.552.518-.735.471-1.156 1.196-1.137 1.958.021.838 1.023 1.834 3.026 3.825l21.268 21.137c1.242 1.235 1.863 1.852 2.607 2.081.68.21 1.432.21 2.112 0 .744-.23 1.364-.846 2.607-2.08l21.267-21.138c2.004-1.991 3.006-2.987 3.027-3.825.02-.762-.402-1.487-1.138-1.958-.81-.518-2.39-.518-5.551-.518H12.47z" fill="#000"/><path d="M21.738 20.58c0-2.128 2.117-3.853 4.73-3.853h14.54c2.612 0 4.73 1.725 4.73 3.852v22.685c0 2.127-2.118 3.852-4.73 3.852h-14.54c-2.613 0-4.73-1.725-4.73-3.852V20.579z" fill="#000"/><path d="M13.923 32.472c-2.933 0-4.4 0-5.15.499-.683.452-1.074 1.15-1.056 1.881.02.807.949 1.764 2.808 3.678l19.733 20.324c1.153 1.187 1.729 1.78 2.418 2a3.243 3.243 0 0 0 1.96 0c.69-.22 1.267-.813 2.419-2L56.789 38.53c1.858-1.915 2.788-2.872 2.808-3.679.017-.732-.373-1.429-1.056-1.881-.752-.499-2.218-.499-5.15-.499H13.922z" fill="#FF4308"/><path d="M22.522 21.529c0-2.046 1.965-3.704 4.389-3.704h13.491c2.424 0 4.389 1.658 4.389 3.704v16.323c0 2.046-1.965 3.704-4.389 3.704H26.911c-2.424 0-4.389-1.658-4.389-3.703V21.527z" fill="#FF4308"/><path fill-rule="evenodd" clip-rule="evenodd" d="M41 19a2 2 0 1 0 4 0 2 2 0 0 0-4 0z" fill="#FEF0EF" filter="url(#a)"/><path opacity=".55" d="M10.142 32.726c4.5-.004 12 0 12 0s-12.31.853-10.783 3c1.34 1.885 18.283 20 21.783 21s9-3.5 9-3.5l-6 6.5s-2 2.5-4.5.5c-1.5-1.5-22.5-23-23.5-24.5s1-2.999 2-3z" fill="#fff"/><path opacity=".5" d="M40.642 17.727h-8c-3.5 0 8.5 1 9.5 2.5 2 1 1.5 9.5 2.5 12v-11c0-2-2-3.5-4-3.5z" fill="#fff"/><path opacity=".45" d="M28.568 16h9.495c3.39 0 4.408-1 0-1h-9.495c-4.069 0-2.713 1 0 1zm19.487 16h7.595c2.713 0 3.527-1 0-1h-7.595c-3.256 0-2.17 1 0 1zM9.027 32h3.798C4.5 31 12.763 29.5 11 29.5S8.473 30 8 31c-.473 1-.058 1 1.027 1z" fill="#fff"/><defs><filter id="a" x="40" y="16" width="6" height="6" filterUnits="userSpaceOnUse" color-interpolation-filters="sRGB"><feFlood flood-opacity="0" result="BackgroundImageFix"/><feBlend in="SourceGraphic" in2="BackgroundImageFix" result="shape"/><feGaussianBlur stdDeviation=".5" result="effect1_foregroundBlur"/></filter></defs></svg>