<svg width="22" height="28" viewBox="0 0 22 28" fill="none" xmlns="http://www.w3.org/2000/svg"><g filter="url(#filter0_d)"><path fill-rule="evenodd" clip-rule="evenodd" d="M21.446 13.364c-3.512 4.818-6.803 9.778-8.705 11.911-.18.199-.4.358-.643.466A2.402 2.402 0 0111 26c-.429.004-.85-.11-1.222-.328a1.817 1.817 0 01-.52-.397C7.444 23.23 3.935 18.096.275 13.077c.228.312-.272-.445-.272-.99a1.314 1.314 0 01.123-.655c.097-.204.244-.378.427-.505a1.88 1.88 0 01.658-.3c.261-.09.535-.136.81-.135H5.5V1.924a1.932 1.932 0 01.526-1.35A1.826 1.826 0 017.332 0h7.334a1.826 1.826 0 011.307.574 1.93 1.93 0 01.526 1.35v8.568h3.483c.235 0 .47.032.695.098.277.056.54.17.771.335.18.13.325.305.421.508.096.203.14.427.13.652a3.388 3.388 0 01-.553 1.279z" fill="#D72B4E"/></g><defs><filter id="filter0_d" x="0" y="0" width="22" height="28" filterUnits="userSpaceOnUse" color-interpolation-filters="sRGB"><feFlood flood-opacity="0" result="BackgroundImageFix"/><feColorMatrix in="SourceAlpha" values="0 0 0 0 0 0 0 0 0 0 0 0 0 0 0 0 0 0 127 0"/><feOffset dy="2"/><feColorMatrix values="0 0 0 0 0.631373 0 0 0 0 0.0117647 0 0 0 0 0.133333 0 0 0 0.75 0"/><feBlend in2="BackgroundImageFix" result="effect1_dropShadow"/><feBlend in="SourceGraphic" in2="effect1_dropShadow" result="shape"/></filter></defs></svg>