<svg width="80" height="58" fill="none" xmlns="http://www.w3.org/2000/svg"><path d="M71.57 25.176l-6.434 22.441H14.945L8.51 25.176l3.941-2.252 14.72 8.124 9.089-17.616h6.756l10.457 17.133 14.64-8.365 3.458 2.976z" fill="#FCE726"/><path d="M14.946 23.427l-6.435 1.75 6.435 22.44 1.126-1.568-1.126-22.622zm27.87-8.647l-6.555-1.347-9.13 18.842L42.816 14.78zM71.27 26.644l-3.62-3.62-14.176 8.345 17.796-4.725z" fill="#84FFFF"/><path d="M40.04 14.64a6.757 6.757 0 1 0 0-13.514 6.757 6.757 0 0 0 0 13.514z" fill="#FFCE17"/><path d="M37.23 7.943c0-3.208 2.926-5.854 6.792-6.576-.627-.08-1.254-.16-1.88-.16-4.807 0-8.778 2.967-8.778 6.736 0 3.689 3.866 6.736 8.777 6.736.627 0 1.254-.08 1.881-.16-3.866-.722-6.792-3.368-6.792-6.576z" fill="#84FFFF"/><path d="M7.062 25.417a5.39 5.39 0 1 0 0-10.778 5.39 5.39 0 0 0 0 10.778z" fill="#FFCE17"/><path d="M5.082 20.008c0-2.466 2.398-4.613 5.56-5.17-.545-.08-1.09-.159-1.745-.159-4.033 0-7.304 2.386-7.304 5.329 0 2.943 3.27 5.329 7.304 5.329.655 0 1.2-.08 1.745-.16-3.162-.636-5.56-2.704-5.56-5.17z" fill="#84FFFF"/><path d="M73.018 25.417a5.39 5.39 0 1 0 0-10.778 5.39 5.39 0 0 0 0 10.778z" fill="#FFCE17"/><path d="M71.212 20.027c0-2.512 2.262-4.619 5.386-5.186a12.491 12.491 0 0 0-1.832-.162c-3.985 0-7.217 2.431-7.217 5.43 0 2.998 3.232 5.429 7.217 5.429.647 0 1.185-.081 1.832-.162-3.124-.73-5.386-2.837-5.386-5.349z" fill="#84FFFF"/><path d="M66.422 51.72c0 2.252-2.091 4.102-4.584 4.102H18.322c-2.574 0-4.585-1.85-4.585-4.102 0-2.252 2.092-4.102 4.585-4.102h43.435c2.574 0 4.665 1.85 4.665 4.102z" fill="#E5722A"/><path d="M20.335 51.78c0-2.264 3.1-4.123 6.796-4.123h-6.677c-3.815 0-6.796 1.86-6.796 4.123s3.1 4.122 6.796 4.122h6.677c-3.815-.08-6.796-1.859-6.796-4.122z" fill="#FFCE17"/><path d="M16.976 51.78c0-2.264 2.94-4.123 4.927-4.123h-3.588c-2.05 0-4.657 1.86-4.657 4.123s2.671 4.122 4.657 4.122h3.588c-2.05-.08-4.927-1.859-4.927-4.122z" fill="#84FFFF"/><path d="M73.019 13.433c-3.62 0-6.596 2.976-6.596 6.595 0 .724.08 1.368.322 2.011l-13.03 7.159-8.688-15.122c1.77-1.448 2.976-3.7 2.976-6.193C48.003 3.539 44.464 0 40.121 0c-4.344 0-7.883 3.54-7.883 7.883 0 2.493 1.126 4.745 2.976 6.193l-8.848 15.122-13.11-7.159c.24-.643.321-1.367.321-2.01 0-3.62-2.976-6.596-6.595-6.596-3.62 0-6.596 2.976-6.596 6.595 0 3.62 2.976 6.596 6.596 6.596h.643l6.113 21.396c0 .08.08.24.16.321-.884.966-1.447 2.092-1.447 3.459 0 2.896 2.574 5.228 5.791 5.228h43.516c3.217 0 5.791-2.332 5.791-5.228 0-1.287-.563-2.493-1.448-3.459.08-.08.08-.16.161-.321l6.113-21.396h.644c3.62 0 6.595-2.976 6.595-6.596s-2.976-6.595-6.596-6.595zM40.04 2.333a5.561 5.561 0 0 1 5.55 5.55 5.561 5.561 0 0 1-5.55 5.55 5.561 5.561 0 0 1-5.55-5.55 5.561 5.561 0 0 1 5.55-5.55zM2.88 20.028a4.154 4.154 0 0 1 4.182-4.182 4.154 4.154 0 0 1 4.183 4.182 4.154 4.154 0 0 1-4.183 4.183c-2.333 0-4.183-1.93-4.183-4.183zm58.878 34.587H18.323c-1.93 0-3.459-1.287-3.459-2.895 0-1.61 1.528-2.896 3.459-2.896h43.435c1.85 0 3.458 1.287 3.458 2.896 0 1.528-1.528 2.895-3.458 2.895zm2.493-8.204H15.83L9.958 25.9c.884-.402 1.608-1.046 2.171-1.77l14.076 7.642c.161.08.403.16.564.16.402 0 .804-.24 1.045-.562l9.33-16.087c.885.321 1.85.563 2.896.563 1.046 0 2.011-.242 2.896-.563l9.33 16.087c.242.402.644.563 1.046.563.16 0 .402-.08.563-.161l14.076-7.641c.563.723 1.368 1.286 2.172 1.769L64.25 46.41zm8.767-22.2a4.154 4.154 0 0 1-4.182-4.183 4.154 4.154 0 0 1 4.183-4.182 4.154 4.154 0 0 1 4.182 4.182c0 2.253-1.85 4.183-4.182 4.183z" fill="#300F00"/></svg>