<svg width="168" height="94" fill="none" xmlns="http://www.w3.org/2000/svg"><path d="M141.534 88.173L30.122 57.84a2.186 2.186 0 0 0-2.686 1.53l-17.78 65.312a2.186 2.186 0 0 0 1.539 2.681l111.412 30.331a2.185 2.185 0 0 0 2.686-1.53l17.781-65.312a2.186 2.186 0 0 0-1.54-2.68z" fill="#F7434C"/><path d="M141.534 88.173L30.122 57.84a2.186 2.186 0 0 0-2.686 1.53l-2.292 8.42L140.78 99.273l2.293-8.42a2.186 2.186 0 0 0-1.54-2.68z" fill="#DB2E37"/><path d="M96.622 75.945L75.036 70.07a2.185 2.185 0 0 0-2.685 1.53L54.57 136.91a2.185 2.185 0 0 0 1.54 2.68l21.585 5.877a2.185 2.185 0 0 0 2.685-1.53l17.781-65.312a2.186 2.186 0 0 0-1.54-2.68z" fill="#FFDB57"/><path d="M96.622 75.945L75.036 70.07a2.185 2.185 0 0 0-2.685 1.53l-2.28 8.374L95.88 87l2.28-8.374a2.186 2.186 0 0 0-1.54-2.68z" fill="#F5BA3D"/><path d="M148.005 48.167c-.607-5.944-2.445-12.088-4.917-16.436-.907-1.595-2.415-2.69-4.341-3.17-6.383-1.58-18.879 3.539-37.14 15.212a2.177 2.177 0 0 0-.929 1.263l-3.03 11.134a2.185 2.185 0 0 0 1.539 2.68l32.497 8.847c7.241 1.972 11.185-.725 13.219-3.334 2.712-3.478 3.813-9.23 3.102-16.196z" fill="#FFDB57"/><path d="M148.216 52.164a2.205 2.205 0 0 0-.111-.684c-1.882-5.674-9.265-5.752-15.126-4.819-17.03 2.712-25.859 10.43-26.227 10.756a2.175 2.175 0 0 0-.67 2.128 2.19 2.19 0 0 0 1.557 1.606l24.046 6.546c4.607 1.255 8.408.776 11.296-1.423 3.431-2.612 5.241-7.492 5.235-14.11z" fill="#EF9325"/><path d="M87.046 39.809c-9.824-19.32-18-30.065-24.303-31.94-1.908-.563-3.759-.383-5.349.532-4.335 2.495-9.034 6.86-12.57 11.676-4.144 5.644-6.11 11.16-5.537 15.533.43 3.28 2.463 7.604 9.705 9.575l32.497 8.847a2.185 2.185 0 0 0 2.686-1.53l3.031-11.134a2.173 2.173 0 0 0-.16-1.559z" fill="#FFDB57"/><path d="M75.695 48.962c-.151-.468-3.85-11.596-17.155-22.566-4.58-3.776-10.983-7.45-15.482-3.514a2.18 2.18 0 0 0-.441.533c-3.361 5.702-4.274 10.826-2.64 14.816 1.374 3.36 4.407 5.7 9.015 6.954l24.046 6.546a2.19 2.19 0 0 0 2.156-.595 2.175 2.175 0 0 0 .5-2.174z" fill="#EF9325"/><path d="M103.931 41.425l-17.698-4.818a2.185 2.185 0 0 0-2.686 1.53L79.95 51.352a2.185 2.185 0 0 0 1.54 2.68l17.697 4.818a2.186 2.186 0 0 0 2.686-1.53l3.598-13.215a2.186 2.186 0 0 0-1.54-2.68z" fill="#F5BA3D"/><path d="M156.272 69.874L26.695 34.597a2.185 2.185 0 0 0-2.686 1.53l-5.654 20.771a2.185 2.185 0 0 0 1.539 2.68l129.577 35.277a2.186 2.186 0 0 0 2.686-1.53l5.654-20.771a2.185 2.185 0 0 0-1.539-2.68z" fill="#F7434C"/><path d="M107.712 56.653l-32.457-8.837-6.8 24.982 32.455 8.836 6.802-24.981z" fill="#FFDB57"/></svg>