<svg version="1.1" id="Layer_1" xmlns="http://www.w3.org/2000/svg" x="0" y="0" viewBox="0 0 34 35" xml:space="preserve"><style>.st1{fill:#ff9517}</style><path d="M28.3 6.2c-3-3-7-4.7-11.3-4.7S8.7 3.2 5.7 6.2 1 13.2 1 17.5s1.7 8.3 4.7 11.3 7 4.7 11.3 4.7c3.1 0 6-.9 8.6-2.5.4-.3.6-.9.3-1.3s-.9-.6-1.3-.3c-2.3 1.4-4.9 2.2-7.6 2.2-7.8 0-14.1-6.3-14.1-14.1S9.2 3.4 17 3.4s14.1 6.3 14.1 14.1c0 2.2-1.8 4.1-4.1 4.1s-4-1.9-4-4.1c0-3.3-2.7-6-6-6s-6 2.7-6 6 2.7 6 6 6c2.1 0 4-1.1 5-2.7 1.1 1.6 2.9 2.7 5 2.7 3.3 0 6-2.7 6-6 0-4.3-1.7-8.3-4.7-11.3zM17 21.6c-2.2 0-4.1-1.8-4.1-4.1 0-2.2 1.8-4.1 4.1-4.1 2.2 0 4.1 1.8 4.1 4.1 0 2.2-1.9 4.1-4.1 4.1z" fill="#ffc530"/><path class="st1" d="M31.1 17.5c0 2.2-1.8 4.1-4.1 4.1-2.2 0-4.1-1.8-4.1-4.1 0-3.3-2.7-6-6-6v1.9c2.2 0 4.1 1.8 4.1 4.1 0 2.2-1.8 4.1-4.1 4.1v1.9c2.1 0 4-1.1 5-2.7 1.1 1.6 2.9 2.7 5 2.7 3.3 0 6-2.7 6-6 0-4.3-1.7-8.3-4.7-11.3s-7-4.7-11.3-4.7v1.9c7.9 0 14.2 6.3 14.2 14.1zM25.9 29.7c-.3-.4-.9-.6-1.3-.3-2.3 1.4-4.9 2.2-7.6 2.2v1.9c3.1 0 6-.9 8.6-2.5.4-.3.6-.9.3-1.3z"/></svg>