<?xml version="1.0" encoding="utf-8"?>
<!-- Generator: Adobe Illustrator 19.2.1, SVG Export Plug-In . SVG Version: 6.00 Build 0)  -->
<svg version="1.1" id="chest-open" xmlns="http://www.w3.org/2000/svg" xmlns:xlink="http://www.w3.org/1999/xlink" x="0px" y="0px"
	 viewBox="0 0 150 146" style="enable-background:new 0 0 150 146;" xml:space="preserve">
<style type="text/css">
	.st0{fill:url(#SVGID_1_);}
	.st1{fill:url(#SVGID_2_);}
	.st2{fill:url(#SVGID_3_);}
	.st3{fill:#BC7B26;}
	.st4{fill:#753214;}
	.st5{fill:#4F2314;}
	.st6{opacity:0.45;}
	.st7{fill:#512516;}
	.st8{fill:url(#SVGID_4_);}
	.st9{fill:#FFFFC4;}
	.st10{fill:url(#SVGID_5_);}
	.st11{fill:url(#SVGID_6_);}
	.st12{fill:url(#SVGID_7_);}
	.st13{fill:url(#SVGID_8_);}
	.st14{fill:#E9B225;}
	.st15{opacity:0.5;fill:#512516;enable-background:new    ;}
	.st16{opacity:0.6;fill:#512516;enable-background:new    ;}
	.st17{opacity:0.35;fill:#512516;enable-background:new    ;}
	.st18{fill:url(#SVGID_9_);}
	.st19{fill:url(#SVGID_10_);}
	.st20{fill:url(#SVGID_11_);}
	.st21{fill:url(#SVGID_12_);}
	.st22{fill:#4E342E;}
	.st23{fill:url(#SVGID_13_);}
	.st24{fill:url(#SVGID_14_);}
	.st25{fill:url(#SVGID_15_);}
	.st26{fill:url(#SVGID_16_);}
	.st27{fill:url(#SVGID_17_);}
	.st28{fill:url(#SVGID_18_);}
	.st29{opacity:0.3;}
	.st30{opacity:0.42;fill:#512516;enable-background:new    ;}
	.st31{opacity:0.4;fill:#FFFFC4;enable-background:new    ;}
</style>
<linearGradient id="SVGID_1_" gradientUnits="userSpaceOnUse" x1="122.7442" y1="-16.9403" x2="147.6342" y2="-49.2003" gradientTransform="matrix(1 0 0 -1 0 19.4567)">
	<stop  offset="0" style="stop-color:#8C5002"/>
	<stop  offset="0.6" style="stop-color:#FEBD25"/>
	<stop  offset="1" style="stop-color:#8C5002"/>
</linearGradient>
<path class="st0" d="M135.1,15.1c0,0,20,22.9,12.1,41.2c-7,16.2-30.5,9.6-30.5,9.6L135.1,15.1z"/>
<linearGradient id="SVGID_2_" gradientUnits="userSpaceOnUse" x1="145.2031" y1="-54.9508" x2="127.0731" y2="-14.6908" gradientTransform="matrix(1 0 0 -1 0 19.4567)">
	<stop  offset="0" style="stop-color:#D3891C"/>
	<stop  offset="1" style="stop-color:#753214"/>
</linearGradient>
<path class="st1" d="M126.3,61.4c0.5,1.7,14.9-2.1,17.1-8.8c2.1-6.7-4.3-22.4-5.6-22.4S125.2,57.7,126.3,61.4z"/>
<linearGradient id="SVGID_3_" gradientUnits="userSpaceOnUse" x1="134.8302" y1="-40.5971" x2="135.5802" y2="-20.1571" gradientTransform="matrix(1 0 0 -1 0 19.4567)">
	<stop  offset="0" style="stop-color:#FDEC5D"/>
	<stop  offset="1" style="stop-color:#8C5002"/>
</linearGradient>
<path class="st2" d="M137.7,30.2c-0.1,0-0.4,0.3-0.7,0.9c2.3,4.4,5.9,15.2,4.2,20.5c-1.7,5.2-10.8,8.6-15,9.1c0,0.3,0,0.5,0.1,0.7
	c0.5,1.7,14.9-2.1,17.1-8.8C145.5,45.9,139,30.2,137.7,30.2z"/>
<path class="st3" d="M140.4,40.4c-2.5,6.3-4.3,12.6-5.6,17.4c-0.1,0-0.1,0.1-0.2,0.1c-0.2,0.1-0.3,0.2-0.5,0.2l5.6-20.2l0.3,0.9
	C140.1,39.3,140.3,39.8,140.4,40.4z"/>
<path class="st4" d="M135.7,33.5c-1,2.5-1.8,5.8-2.2,9.7c-0.4,4.4-1.6,9.2-4.7,9.4c-0.2,0-0.4-0.1-0.6-0.3c0.3-1,0.7-2,1-3.1
	c2.1-0.9,2.8-5.2,3.4-8.9C133.8,37.7,134.9,35.3,135.7,33.5z"/>
<path class="st4" d="M138,33.3c-2.4,6.2-3,16.1-5,22.4c-0.4,1.4-0.9,2.5-1.4,3.5c-0.4,0.1-0.8,0.3-1.3,0.4v-0.1
	c5.1-13.3,3.2-15.4,5.9-24.1c0.4-1.3,0.8-2.4,1.2-3.3C137.7,32.5,137.9,32.9,138,33.3z M139.7,54c-0.3,0.3-0.6,0.7-1,1
	c0.3-1.5,0.5-3,0.7-3.7c1.5-8.6-1.8-1.8-1.8,2.1c0,0.7,0.3-0.6,0.3-0.8c0.1-0.4,0.5-0.2,0.5,0.2c-0.3,2.5-1.8,3.2-1.3-0.1
	c0.3-2.2,1.6-7,2.7-6.8C141.3,46.3,140.7,50.1,139.7,54L139.7,54z"/>
<path class="st5" d="M140,38.7c-1.9,6.2-3.7,12.5-5.4,19.1c-0.2,0.1-0.3,0.2-0.5,0.2c-0.2,0.1-0.5,0.2-0.8,0.4
	c0.5-1.6,1.1-3.4,1.6-5.2c1.5-5,2.9-10.6,4.3-16.7c0.1,0.4,0.3,0.8,0.4,1.3C139.8,38.2,139.9,38.4,140,38.7z"/>
<g class="st6">
	<path class="st7" d="M116.7,65.9c0,0,2.1,0.6,5.2,1c2.9-12.6,9.8-40.1,15.2-39.3c4.6,0.7,12,12.4,11.3,25.1
		c4.2-17.5-13.3-37.6-13.3-37.6L116.7,65.9z"/>
</g>
<linearGradient id="SVGID_4_" gradientUnits="userSpaceOnUse" x1="76.701" y1="-52.5069" x2="103.661" y2="29.3131" gradientTransform="matrix(1 0 0 -1 0 19.4567)">
	<stop  offset="0" style="stop-color:#FFFDA6"/>
	<stop  offset="0.24" style="stop-color:#FDEC5D"/>
	<stop  offset="0.47" style="stop-color:#FEBD25"/>
	<stop  offset="1" style="stop-color:#8C5002"/>
</linearGradient>
<path class="st8" d="M116.7,65.9c1.7-1,19.9-49.4,18.4-50.8c-1.5-1.5-70.8-13-72.6-11.2c-1.9,1.9-19.4,44.8-18.8,46
	C44.2,51.1,115,66.9,116.7,65.9z"/>
<path class="st9" d="M111.1,60.4c1.3-0.7,14.7-39.7,13.6-40.8s-57-10.3-58.4-8.9s-15,34.5-14.5,35.5
	C52.2,47.1,109.8,61.2,111.1,60.4z"/>
<linearGradient id="SVGID_5_" gradientUnits="userSpaceOnUse" x1="84.1777" y1="3.5572" x2="99.5077" y2="-60.0028" gradientTransform="matrix(1 0 0 -1 0 19.4567)">
	<stop  offset="0" style="stop-color:#FEBD25"/>
	<stop  offset="1" style="stop-color:#8C5002"/>
</linearGradient>
<path class="st10" d="M110.5,58.8c1.3-0.7,15.4-38.1,14.2-39.3c-1.1-1.1-57-10.3-58.4-8.9s-15,34.5-14.5,35.5
	C52.2,47.1,109.2,59.6,110.5,58.8z"/>
<linearGradient id="SVGID_6_" gradientUnits="userSpaceOnUse" x1="65.0824" y1="7.7435" x2="65.4124" y2="-27.3265" gradientTransform="matrix(1 0 0 -1 0 19.4567)">
	<stop  offset="0" style="stop-color:#FEBD25"/>
	<stop  offset="1" style="stop-color:#8C5002"/>
</linearGradient>
<path class="st11" d="M52,46.2c0,0,21.1,3.2,25.8-11.5c4.7-14.7-11.5-24-11.5-24C65,12,53.9,38.9,52,45V46.2z"/>
<linearGradient id="SVGID_7_" gradientUnits="userSpaceOnUse" x1="60.2661" y1="-107.0369" x2="58.6461" y2="-15.5069" gradientTransform="matrix(1 0 0 -1 0 19.4567)">
	<stop  offset="0" style="stop-color:#EFA420"/>
	<stop  offset="1" style="stop-color:#753214"/>
</linearGradient>
<path class="st12" d="M9.5,114.3l65.1,20.3l29.1-14.8l9.6-45.1c0,0-32,15.5-34.3,16c-2.3,0.6-73.6-16-73.6-16L9.5,114.3z"/>
<linearGradient id="SVGID_8_" gradientUnits="userSpaceOnUse" x1="118.1783" y1="-137.3375" x2="86.8883" y2="-69.2175" gradientTransform="matrix(1 0 0 -1 0 19.4567)">
	<stop  offset="0" style="stop-color:#D3891C"/>
	<stop  offset="1" style="stop-color:#753214"/>
</linearGradient>
<path class="st13" d="M75,134.3l28.7-14.6l9.6-45.1c0,0-32,15.5-34.3,16c-0.3,0.1-2.4-0.2-5.5-0.8C73.6,103.1,74.4,122.4,75,134.3z"
	/>
<path class="st14" d="M74.4,120.6L12.8,104l1.5,2.2c24,6.2,48.3,12.4,60.3,16.9c0.3-0.1,0.5-0.3,0.8-0.4c0-0.9,0.1-1.8,0.2-2.7
	C75.6,120,74.4,120.6,74.4,120.6z"/>
<path class="st3" d="M108.9,105.4L75.6,120c0,0.9-0.1,1.8-0.2,2.7c19.4-10,29.4-14.2,33.5-14.2C108.9,108.5,108.9,105.4,108.9,105.4
	z"/>
<path class="st4" d="M74.4,119.1c-13.4-1.5-37.7-8.5-61.6-16.6l2.7,2.9l59.2,16.2l0.4-0.1l-0.3-2.5C74.6,119,74.5,119.1,74.4,119.1z
	"/>
<path class="st5" d="M108.9,104c-8.8,5.4-19,10.6-34.2,15l0.3,2.5l33.9-15.1V104z"/>
<path class="st3" d="M108.9,90.5l-32.7,14.3v2.5c10.9-5.8,21.9-10.6,32.7-14.5C108.9,92.8,108.9,90.5,108.9,90.5z"/>
<path class="st14" d="M76.2,104.9l-1.8,0.8L12.7,89.1l1.5,2.2c22.6,6.2,45.2,11.7,60.3,16.9c0.5-0.3,1-0.5,1.5-0.8
	C76.2,106.6,76.2,105.7,76.2,104.9z"/>
<path class="st4" d="M12.7,87.6l1,2.1l59.4,16.6v-2.2C60.4,103,36.6,95.3,12.7,87.6z"/>
<path class="st5" d="M108.9,91.4V89c-12.4,7-24,12.3-34.5,15.1c-0.4,0-0.8,0-1.3-0.1v2.2l1.5,0.4C74.6,106.6,108.9,91.4,108.9,91.4z
	"/>
<path class="st15" d="M90.9,107.8c6.7-3.2,5.7-5.7,17-9.9c0.4-0.1,0.3-0.7-0.1-0.7c-8.7-0.5-19,17.5-29,9
	C78.1,105.8,82.3,111.9,90.9,107.8z"/>
<path class="st15" d="M107.9,102.8c-3.6-2.4-7.6-0.2-10.3,2.3c-7.1,6.5-16.1,5.9-15.2,5.9c1.9,0,7.1,0.5,11.7-1.6
	c3.6-1.6,8.3-7.1,12.5-4.3C108,106.1,109.3,103.8,107.9,102.8z M77.8,128.5c4.8-3.9,9.6-7.6,15.4-10.2c12.7-5.8,3.3,4.6-2.9,4.7
	c-1,0,0.8-0.7,1.2-1c0.5-0.4,0.2-1.4-0.5-1.2c-3.8,1.1-4.6,4.9,0.5,3.4c3.4-1,10.5-4.7,10-7.6C99.7,108.1,74.2,131.4,77.8,128.5z"/>
<path class="st16" d="M108,85.5c-7.6,0.3-15.1,10.6-27.1,11c7.3,1.4,14.4-3.4,20.1-6.3c2.4-1.2,5.1-1.9,7.5-3.1
	C109.2,86.8,108.8,85.5,108,85.5z"/>
<path class="st15" d="M51.5,109.2c1.5,0,4.9,0.7,5.9,1.9c0.1,0.2,0.1,0.4,0.4,0.6c1.1,0.7,2.7-0.1,0.5-1.4c-9-5.3-14.1-1.4-2.5,3.2
	c9.9,4,15.9-3.5-1.1-8.2c-15.4-4.2-32.4-0.3-46.3-9.7c13.5,11.6,34,5.7,50.1,12.3C71,113,57.7,117,51.5,109.2z"/>
<path class="st15" d="M41.8,98.7c-9,1.9-19.2-0.6-27.1-4.9c-2.3-1.2-4.6-3.5-7.1-4.2c-0.6-0.1-1.1,0.5-0.8,1c1.3,2.4,4.8,4,7.2,5.2
	C30.5,104.3,43.4,98.4,41.8,98.7z"/>
<path class="st16" d="M30.3,87.1c-8,2.5-14.7-4.6-18.9-11.8c1.8,4.1,4.5,7.8,8.1,10.6C27.9,92.5,33,86.2,30.3,87.1z M68.7,97.3
	c-0.9-0.1-15.2,1.9-20.7-10.8C54.2,104.1,74.1,98.2,68.7,97.3z"/>
<path class="st15" d="M27.8,113.8c0.3,3,7,6.1,8.3,5.5c1.6-0.7-0.1-3.1-0.9-2.4c-0.5,0.4,0.1,0.7,0.1,1.2c-2.7-0.1-9.4-6.1-3.5-4.6
	c6.2,1.6,11.6,7.6,8.8,8.4c-0.6,0.2-11.8-1.9-26.8-13.5c-0.2-0.1-0.4,0.2-0.2,0.3c15.2,11.7,26.8,15.3,28.7,14
	C47.4,119.2,27,107.1,27.8,113.8z M71.5,128.8c-19.4-3.4-21.7-13.2-34.3-15.7c6.5,2.3,11.7,7.4,17.4,11.2c4.5,3,11.2,7,16.9,5.9
	C72.3,130.1,72.3,128.9,71.5,128.8z"/>
<path class="st15" d="M59.5,120.9c-0.7,2.1,7.7,5,10.2,5.5c-2.5-1-5.1-2.2-7.3-3.7C63.9,121.6,60,119.4,59.5,120.9z"/>
<path class="st17" d="M5.4,74.7l4,39.1c0.2,0.2,0.3,0.4,0.5,0.6l11.3,3.5c-0.1-0.4-0.3-0.8-0.3-1.1c-0.9-4.7-1.1-10.1-0.1-14.8
	c0.4-1.8,1.2-4.9,3.3-5.5c8.4-2.4,7.7,14.1,21.3,11c5.3-1.2,8.5-10.1,12.5-9.6c6,0.8,8.7,19.1,4.5,32.8l12.2,3.8l10.3-5.2
	c-0.4-13,1.2-34.8,19.5-39.7c1.7-18-24.6,0.9-25.4,1.1C76.7,91.3,5.4,74.7,5.4,74.7z"/>
<linearGradient id="SVGID_9_" gradientUnits="userSpaceOnUse" x1="57.2432" y1="-95.4434" x2="47.4532" y2="-72.8134" gradientTransform="matrix(1 0 0 -1 0 19.4567)">
	<stop  offset="0" style="stop-color:#FDEC5D"/>
	<stop  offset="1" style="stop-color:#8C5002"/>
</linearGradient>
<path class="st18" d="M3.8,72.1l9,36.5l-2.8,4.5c0,0,2.6,8.3,3.8,10l7.3-5.2c0,0-1.8-0.6-2.8-0.9c-1.4-9.1-5.1-34.4-3.5-35.8
	c1.8-1.8,14.4,3.3,14.4,3.3l9.9,23.7c0,0,7.2,0.9,9.5-5.6c2.1-5.9,2.5-13.3,8.3-12.1c5.5,1.2,19.6,9.8,19.6,9.8s3.1-2.4,7.2-5.3
	c0.5-8.7,0.5-17.5,0.7-26.3C52.1,67.5,3.8,72.1,3.8,72.1z"/>
<linearGradient id="SVGID_10_" gradientUnits="userSpaceOnUse" x1="114.4703" y1="-109.4704" x2="106.2003" y2="-87.9304" gradientTransform="matrix(1 0 0 -1 0 19.4567)">
	<stop  offset="0" style="stop-color:#FDEC5D"/>
	<stop  offset="1" style="stop-color:#8C5002"/>
</linearGradient>
<path class="st19" d="M110.3,111.4c2.7-10.1,3.7-26.7,1.6-35.9c-1-4.3-12.6-6.1-27.8-6.7C84,77.5,84,86.3,83.5,95
	c7.2-5,17.3-11.7,19.8-10.3c2.7,1.5,0.4,35.1,0.4,35.1l-2.6,1.3c0,0,7.5,3.8,8.6,3.8c0,0,3.6-8.5,2.5-12.3
	C112.1,112.1,111.3,111.7,110.3,111.4z"/>
<linearGradient id="SVGID_11_" gradientUnits="userSpaceOnUse" x1="59.2819" y1="-56.066" x2="59.9319" y2="-107.196" gradientTransform="matrix(1 0 0 -1 0 19.4567)">
	<stop  offset="0" style="stop-color:#FFFDA6"/>
	<stop  offset="0.24" style="stop-color:#FDEC5D"/>
	<stop  offset="0.47" style="stop-color:#FEBD25"/>
	<stop  offset="1" style="stop-color:#8C5002"/>
</linearGradient>
<path class="st20" d="M117.6,110.5c-0.3-0.4-1.5-1.1-3.1-1.9c1.5-15.1,4-40.6,2.3-42.8c-0.9-1.4-71.2-16.2-73.4-16.2
	c-2.1,0-40.9,15.1-42.1,17.9c-1,2.3,1.3,23,4.2,40.1c0,0-3.5,1.3-3.8,2.1c-0.2,0.7,0.7,8.1,1.5,9c0.7,0.9,10.6,4.4,10.6,4.4
	s-2.4-8.9-2.2-10.2c0.2-1.1,2.2-2.6,2.2-2.6s-4.1-28.1-3-29.2c1-1,14.4,0.5,14.6,4.1c0.4,5.6,3.5,20,12.5,22.6
	c9.5,2.7,8.3-17.7,13.7-17.7s11.5,2,12.5,4.2c1.3,2.9,2.2,9.4,3.5,32.7c-0.5,0.2-4.2,1.4-4.5,2.2s0.2,10.2,0.7,11.2
	c0.5,1,9.8,4.8,11.9,4.8s9.5-4.5,9.9-5.4c0.3-0.8,1.1-9.8,0.7-10.6c-0.3-0.8-4.4-2.2-4.4-2.2c0.8-10.8,2.5-29.8,3.4-31.9
	c1.3-2.9,20-12.6,21.9-10.8c1.4,1.4,1,16.1,0.7,23.3c-0.1,2.4-0.2,4-0.2,4s3.4,0.6,3.8,1.9c0.4,1.3-1.5,11-1.6,11.4
	c1.4-0.2,5.6-2.2,6.1-2.8C116.6,121.1,118.4,111.7,117.6,110.5z"/>
<path class="st9" d="M65,93.9c-0.9-2.1-9.2-4.8-14.6-4.8c-4.2,0-4.1,13.6-8.4,18.2c5.1-3.5,5.1-17.2,9.4-17.2c5.3,0,11.5,2,12.5,4.2
	c1.3,2.9,2.1,9.2,3.4,31.6C66.2,103.4,66.3,96.8,65,93.9z"/>
<linearGradient id="SVGID_12_" gradientUnits="userSpaceOnUse" x1="88.6479" y1="-64.7759" x2="104.9679" y2="-110.2459" gradientTransform="matrix(1 0 0 -1 0 19.4567)">
	<stop  offset="0" style="stop-color:#8C5002"/>
	<stop  offset="0.6" style="stop-color:#FEBD25"/>
	<stop  offset="1" style="stop-color:#8C5002"/>
</linearGradient>
<path class="st21" d="M85.5,139.8c0.3-0.8,1.1-9.8,0.7-10.6c-0.3-0.8-4.4-2.2-4.4-2.2c0.8-10.8,2.5-29.8,3.4-31.9
	c1.3-2.9,20-12.6,21.9-10.8c1.4,1.4,1,16.1,0.7,23.3c-0.1,2.4-0.2,4-0.2,4s3.4,0.6,3.8,1.9c0.4,1.3-1.5,11-1.6,11.4
	c1.4-0.2,5.6-2.2,6.1-2.8c0.7-1,2.5-10.4,1.7-11.6c-0.3-0.4-1.5-1.1-3.1-1.9c1.5-15.1,4-40.6,2.3-42.8c-0.2-0.3-4.5-1.4-10.9-2.9
	c-12.4,1.3-26.2,7.7-28.6,24.8c0,0-1.6,40.6-1.6,41.5s1.4,2.1,1.6,3.2s-1.6,12.7-1.6,12.7C77.7,145.1,85.2,140.6,85.5,139.8z"/>
<path class="st9" d="M47.9,94.7c-5.3,1.6-11.2,0.7-15.8-2.3c-2.3-1.5-4.2-3.5-6.5-5.1C26,90.5,27.1,95,29,99.1
	c3.6-1.7,8.2-1.5,11.6,0.6c1.7,1.1,3,2.5,4.2,4.2C46.1,101.1,46.9,97.5,47.9,94.7z"/>
<g class="st6">
	<path class="st7" d="M81.8,126.9c0.4-5.1,1-12,1.5-18.1c-3.9-7.5-4.7-19.8-4.8-26.9c-0.6,1.7-1.1,3.6-1.4,5.7
		c0,0-1.6,40.6-1.6,41.5s1.4,2.1,1.6,3.2S75.5,145,75.5,145c2.1,0,9.5-4.5,9.9-5.4c0.3-0.8,1.1-9.8,0.7-10.6
		C85.9,128.3,81.8,126.9,81.8,126.9z"/>
</g>
<path class="st22" d="M34.2,92.2c1.1,1.4-2,7-1.4,8s7,3.1,7.9,2.1s-3-7.5-1.6-9c3.5-3.5,2.1-6-1.8-7.1C33,85,31.2,88.5,34.2,92.2z"
	/>
<linearGradient id="SVGID_13_" gradientUnits="userSpaceOnUse" x1="42.6356" y1="-112.2637" x2="34.0856" y2="-67.1537" gradientTransform="matrix(1 0 0 -1 0 19.4567)">
	<stop  offset="0" style="stop-color:#FFFDA6"/>
	<stop  offset="0.24" style="stop-color:#FDEC5D"/>
	<stop  offset="0.47" style="stop-color:#FEBD25"/>
	<stop  offset="1" style="stop-color:#8C5002"/>
</linearGradient>
<path class="st23" d="M35.1,98.9c-0.6-1,2.5-6.6,1.4-8C35,89,34.7,87.2,35.4,86c-2.9,0.1-3.7,3.1-1.2,6.2c1.1,1.4-2,7-1.4,8
	s7,3.1,7.9,2.1c0.2-0.2,0.2-0.6,0-1.2C38.5,100.8,35.6,99.6,35.1,98.9z"/>
<linearGradient id="SVGID_14_" gradientUnits="userSpaceOnUse" x1="53.9832" y1="-50.3507" x2="127.5232" y2="-9.8807" gradientTransform="matrix(1 0 0 -1 0 19.4567)">
	<stop  offset="0" style="stop-color:#FFFDA6"/>
	<stop  offset="0.24" style="stop-color:#FDEC5D"/>
	<stop  offset="0.47" style="stop-color:#FEBD25"/>
	<stop  offset="1" style="stop-color:#8C5002"/>
</linearGradient>
<path class="st24" d="M1.2,67.5c0.3,2,74.7,20.2,76,20.2s39.6-19.8,39.6-21.9c-0.9-1.4-71.2-16.2-73.4-16.2
	C41.2,49.6,2.5,64.7,1.2,67.5z"/>
<linearGradient id="SVGID_15_" gradientUnits="userSpaceOnUse" x1="58.1344" y1="-61.8156" x2="59.3644" y2="-12.0656" gradientTransform="matrix(1 0 0 -1 0 19.4567)">
	<stop  offset="0" style="stop-color:#FFFDA6"/>
	<stop  offset="0.24" style="stop-color:#FDEC5D"/>
	<stop  offset="0.47" style="stop-color:#FEBD25"/>
	<stop  offset="1" style="stop-color:#8C5002"/>
</linearGradient>
<path class="st25" d="M11.1,66.8C10.6,68.4,75,82.3,76.5,81.9c1.4-0.3,29.4-14.5,29.4-15.7S48,52.9,45.4,52.9
	C42.8,53,11.9,64.5,11.1,66.8z"/>
<linearGradient id="SVGID_16_" gradientUnits="userSpaceOnUse" x1="11.14" y1="-44.7767" x2="45.39" y2="-44.7767" gradientTransform="matrix(1 0 0 -1 0 19.4567)">
	<stop  offset="0" style="stop-color:#FDEC5D"/>
	<stop  offset="1" style="stop-color:#8C5002"/>
</linearGradient>
<path class="st26" d="M11.1,66.8c-0.3,0.8,17.2,5,34.3,8.7V52.9C42.8,53,11.9,64.5,11.1,66.8z"/>
<linearGradient id="SVGID_17_" gradientUnits="userSpaceOnUse" x1="10.6131" y1="-82.4097" x2="-0.5469" y2="-113.1696" gradientTransform="matrix(1 0 0 -1 0 19.4567)">
	<stop  offset="0" style="stop-color:#FFFDA6"/>
	<stop  offset="0.24" style="stop-color:#FDEC5D"/>
	<stop  offset="0.47" style="stop-color:#FEBD25"/>
	<stop  offset="1" style="stop-color:#8C5002"/>
</linearGradient>
<path class="st27" d="M1.6,109.7c1.5,1.5,9.9,3.2,9.9,3.2c0.2-1.1,2.2-2.6,2.2-2.6l-8.4-2.8C5.4,107.6,1.9,108.9,1.6,109.7z"/>
<path class="st9" d="M11.5,112.9c0,0-8.4-1.8-9.9-3.2c1.5,1.5,10,4.6,10,4.6c0.2-1.1,2.1-3.9,2.1-3.9S11.7,111.8,11.5,112.9z"/>
<linearGradient id="SVGID_18_" gradientUnits="userSpaceOnUse" x1="68.6184" y1="-101.4779" x2="88.4984" y2="-128.6079" gradientTransform="matrix(1 0 0 -1 0 19.4567)">
	<stop  offset="0" style="stop-color:#FFFDA6"/>
	<stop  offset="0.24" style="stop-color:#FDEC5D"/>
	<stop  offset="0.47" style="stop-color:#FEBD25"/>
	<stop  offset="1" style="stop-color:#8C5002"/>
</linearGradient>
<path class="st28" d="M86.1,128.9c-0.8-0.8-4.3-2-4.3-2c-2.5,1.8-6.2,2.2-6.2,2.2s-5,0.3-8.1-2.2c-0.5,0.2-4.2,1.4-4.5,2.2
	c0,0,11.4,4.8,14.2,4.1c2.8-0.6,9-4.1,9-4.1S86.2,129,86.1,128.9z"/>
<path class="st9" d="M77.2,132.4c-2.8,0.6-14.2-3.2-14.2-3.2s11.4,5.9,14.2,5.2s9-5.3,9-5.3S80,131.7,77.2,132.4z"/>
<g class="st29">
	<path class="st9" d="M76.8,98.2c-4.4,23.6-11.6,0.7-11.6,0.7c0.7,4.2,1.3,11.3,2.1,24.4c4.2-11.6,8.5,2.1,8.5,2.1
		C76.2,118.2,76.3,110.2,76.8,98.2z M10.6,82.3c-0.3,1.9-0.6,2.9-0.6,2.9c0.2,9.1-6.9,2-8.3-5.1c0.7,7.5,2,17.2,3.5,26.1
		c1.8-10.6,6.8-1.4,8.2,1.3C12.5,101.5,10.5,86.6,10.6,82.3z"/>
</g>
<path class="st9" d="M41.6,105.6c-0.1,0.6-1.7,0.8-3.5,0.4c-1.8-0.4-3.1-1.3-2.9-2c0.1-0.6,1.7-0.8,3.5-0.4
	C40.5,104.1,41.8,104.9,41.6,105.6z"/>
<path class="st30" d="M107.8,105.7c0,0.6,0,1.3-0.1,1.9c-0.1,2.4-0.2,4-0.2,4s3.4,0.6,3.8,1.9c0.4,1.3-1.5,11-1.6,11.4
	c1.4-0.2,5.6-2.2,6.1-2.8c0.7-1,2.5-10.4,1.7-11.6c-0.3-0.4-1.5-1.1-3.1-1.9c0.3-3.5,0.8-7.6,1.1-11.7
	C112.8,100.4,110.2,103.3,107.8,105.7z"/>
<path class="st31" d="M116.6,110.5c-0.3-0.4-1.5-1.1-3.1-1.9l-6.9,3c0,0,3.4,0.6,3.8,1.9l6.4-2.1C116.7,111,116.7,110.7,116.6,110.5
	z"/>
<path class="st9" d="M35.5,77.4c-0.2,0.9,39,9.7,40.4,11.3c1.4,1.6-0.6,18.1,0,18.1s1.5-17,2.1-18.1c0.4-0.8,4.2-2.8,4-3.1
	c-0.1-0.3-3.1,1.1-4.6,1.5C73.6,87.9,35.7,76.5,35.5,77.4z"/>
</svg>
