<svg width="25" height="25" viewBox="0 0 25 25" fill="none" xmlns="http://www.w3.org/2000/svg">
<mask id="mask0" mask-type="alpha" maskUnits="userSpaceOnUse" x="0" y="0" width="25" height="25">
<rect width="25" height="25" fill="#C4C4C4"/>
</mask>
<g mask="url(#mask0)">
<path d="M18.0499 20.7072L19.8184 19.2233L19.6236 18.9911C19.828 18.7066 20.0127 18.4197 20.1893 18.102C22.7861 13.3798 20.979 7.19104 16.1424 4.27908C13.1164 2.44754 9.60592 2.34131 6.77589 3.67985L6.58109 3.4477L4.81261 4.93163C3.96998 5.63868 3.24682 6.50923 2.6732 7.53687C0.0764592 12.259 1.88353 18.4478 6.72015 21.3598C10.5026 23.6492 15.0227 23.2474 18.0499 20.7072Z" fill="#9E1E1E"/>
<path d="M19.4574 19.5119C23.7272 16.2913 24.3932 10.0197 20.9448 5.50378C17.4965 0.987882 11.2396 -0.0621861 6.96967 3.15839C2.69978 6.37897 2.03381 12.6506 5.48219 17.1665C8.93057 21.6824 15.1875 22.7325 19.4574 19.5119Z" fill="#E53838"/>
<path d="M17.7953 20.0785C22.4298 17.8056 24.1351 12.049 21.6043 7.22072C19.0735 2.39248 13.2649 0.320955 8.63041 2.59385C3.99591 4.86674 2.29053 10.6234 4.82134 15.4516C7.35214 20.2798 13.1608 22.3514 17.7953 20.0785Z" fill="#DB2626"/>
<path d="M12.816 18.2646C16.6201 18.7142 19.8805 15.9784 20.0983 12.154C20.316 8.3296 17.4087 4.86479 13.6046 4.41514C9.80044 3.96549 6.54005 6.70128 6.32229 10.5257C6.10452 14.3501 9.01184 17.8149 12.816 18.2646Z" fill="#9E1E1E"/>
<path d="M16.9329 16.5147C19.6453 14.6064 20.1789 10.7407 18.1248 7.88029C16.0707 5.01988 12.2066 4.24798 9.49425 6.1562C6.78187 8.06442 6.24825 11.9302 8.30238 14.7906C10.3565 17.651 14.2205 18.4229 16.9329 16.5147Z" fill="#DB2626"/>
<path d="M14.184 2.83246C14.2 2.72481 14.2925 2.66603 14.4002 2.68872C14.5079 2.7114 14.5717 2.80857 14.5556 2.91622C14.5396 3.02387 14.4471 3.08265 14.3394 3.05996C14.2422 3.02855 14.1679 2.94011 14.184 2.83246Z" fill="white"/>
<path d="M12.2213 20.0778C12.2373 19.9702 12.3298 19.9114 12.4375 19.9341C12.5452 19.9568 12.609 20.054 12.5929 20.1616C12.5769 20.2693 12.4844 20.328 12.3767 20.3053C12.2887 20.285 12.2157 20.1768 12.2213 20.0778Z" fill="white"/>
<path d="M12.3667 19.0892C12.3827 18.9815 12.4752 18.9227 12.5829 18.9454C12.6906 18.9681 12.7544 19.0653 12.7384 19.1729C12.7223 19.2806 12.6298 19.3393 12.5222 19.3167C12.4238 19.305 12.3507 19.1968 12.3667 19.0892Z" fill="white"/>
<path d="M12.2992 19.579C12.3152 19.4714 12.4077 19.4126 12.5154 19.4353C12.6231 19.458 12.6869 19.5551 12.6708 19.6628C12.6548 19.7704 12.5623 19.8292 12.4546 19.8065C12.3562 19.7949 12.2832 19.6867 12.2992 19.579Z" fill="white"/>
<path d="M11.3591 19.3884C11.3752 19.2807 11.4677 19.2219 11.5753 19.2446C11.683 19.2673 11.7468 19.3645 11.7308 19.4721C11.7148 19.5798 11.6223 19.6385 11.5146 19.6159C11.4162 19.6042 11.3431 19.496 11.3591 19.3884Z" fill="white"/>
<path d="M11.2917 19.8784C11.3077 19.7708 11.4002 19.712 11.5079 19.7347C11.6156 19.7574 11.6794 19.8545 11.6633 19.9622C11.6473 20.0698 11.5548 20.1286 11.4471 20.1059C11.3395 20.0832 11.2757 19.9861 11.2917 19.8784Z" fill="white"/>
<path d="M11.4266 18.8983C11.4426 18.7907 11.5351 18.7319 11.6428 18.7546C11.7504 18.7773 11.8143 18.8744 11.7982 18.9821C11.7822 19.0897 11.6897 19.1485 11.582 19.1258C11.494 19.1055 11.4105 19.006 11.4266 18.8983Z" fill="white"/>
<path d="M5.95871 14.1989C5.92499 14.0953 5.9607 13.99 6.06135 13.9621C6.162 13.9341 6.26854 13.9766 6.30227 14.0802C6.33599 14.1837 6.30028 14.2891 6.19963 14.317C6.10826 14.356 5.99244 14.3025 5.95871 14.1989Z" fill="white"/>
<path d="M5.58682 13.2486C5.55309 13.145 5.58881 13.0397 5.68945 13.0118C5.7901 12.9838 5.89665 13.0263 5.93037 13.1299C5.9641 13.2335 5.92838 13.3388 5.82774 13.3667C5.72709 13.3947 5.63094 13.3435 5.58682 13.2486Z" fill="white"/>
<path d="M5.29891 14.6272C5.40322 14.6062 5.46583 14.5025 5.43874 14.3957C5.41165 14.2888 5.30513 14.2192 5.20082 14.2402C5.09651 14.2613 5.03391 14.3649 5.06099 14.4718C5.08808 14.5787 5.1946 14.6482 5.29891 14.6272Z" fill="white"/>
<path d="M4.70776 13.5531C4.67404 13.4495 4.70975 13.3442 4.8104 13.3162C4.91105 13.2883 5.0176 13.3308 5.05132 13.4343C5.08505 13.5379 5.04933 13.6432 4.94868 13.6712C4.84804 13.6991 4.75189 13.6479 4.70776 13.5531Z" fill="white"/>
<path d="M21.3299 8.85561C21.2962 8.75204 21.3319 8.64671 21.4325 8.61878C21.5332 8.59084 21.6397 8.63331 21.6735 8.73688C21.7072 8.84045 21.6715 8.94578 21.5708 8.97371C21.4702 9.00165 21.3636 8.95918 21.3299 8.85561Z" fill="white"/>
<path d="M20.925 8.6593C21.0288 8.63601 21.0891 8.53089 21.0598 8.42449C21.0305 8.31809 20.9227 8.25072 20.819 8.274C20.7152 8.29729 20.6549 8.40241 20.6842 8.50881C20.7135 8.61521 20.8213 8.68258 20.925 8.6593Z" fill="white"/>
<path d="M20.0789 8.20983C20.0452 8.10626 20.0809 8.00093 20.1815 7.97299C20.2822 7.94506 20.3887 7.98753 20.4225 8.0911C20.4562 8.19467 20.4205 8.29999 20.3198 8.32793C20.2192 8.35587 20.123 8.30467 20.0789 8.20983Z" fill="white"/>
<path d="M19.2767 17.0776C19.3217 16.9834 19.2787 16.8687 19.1825 16.8175C19.0864 16.7663 18.9754 16.803 18.9304 16.8973C18.8854 16.9915 18.9284 17.1062 19.0245 17.1574C19.1207 17.2086 19.2317 17.1719 19.2767 17.0776Z" fill="white"/>
<path d="M20.5411 16.6196C20.586 16.5253 20.543 16.4107 20.4469 16.3595C20.3508 16.3083 20.2397 16.345 20.1947 16.4392C20.1497 16.5335 20.1927 16.6481 20.2889 16.6993C20.385 16.7505 20.5065 16.7051 20.5411 16.6196Z" fill="white"/>
<path d="M7.19229 5.92954C7.11695 5.86088 7.10403 5.73985 7.1583 5.65663C7.22185 5.58448 7.34105 5.57865 7.42679 5.63858C7.50212 5.70723 7.51504 5.82826 7.46078 5.91148C7.40651 5.99469 7.28731 6.00052 7.19229 5.92954Z" fill="white"/>
<path d="M6.41823 5.26059C6.34289 5.19193 6.32997 5.0709 6.38424 4.98769C6.44778 4.91553 6.56698 4.9097 6.65272 4.96963C6.72806 5.03829 6.74098 5.15932 6.68671 5.24253C6.62204 5.33447 6.50284 5.3403 6.41823 5.26059Z" fill="white"/>
<path d="M6.51766 5.94946C6.44233 5.88081 6.42941 5.75978 6.48367 5.67656C6.54722 5.6044 6.66642 5.59858 6.75216 5.6585C6.82749 5.72716 6.84041 5.84819 6.78615 5.93141C6.72148 6.02335 6.60228 6.02917 6.51766 5.94946Z" fill="white"/>
<path d="M6.60678 6.64723C6.53144 6.57858 6.51852 6.45755 6.57279 6.37433C6.63633 6.30217 6.75554 6.29635 6.84128 6.35627C6.91661 6.42493 6.92953 6.54596 6.87527 6.62917C6.821 6.71239 6.7018 6.71822 6.60678 6.64723Z" fill="white"/>
<path d="M5.83259 5.97816C5.75725 5.90951 5.74433 5.78848 5.7986 5.70526C5.86214 5.63311 5.98134 5.62728 6.06708 5.68721C6.14242 5.75586 6.15534 5.87689 6.10107 5.96011C6.02713 6.04099 5.90793 6.04682 5.83259 5.97816Z" fill="white"/>
<path d="M15.6789 16.6077C18.4832 15.4033 19.6524 12.0669 18.2905 9.1556C16.9285 6.24433 13.5512 4.86063 10.7469 6.06502C7.94259 7.26942 6.77335 10.6058 8.13529 13.5171C9.49723 16.4284 12.8746 17.8121 15.6789 16.6077Z" fill="#E6E6E6"/>
<path d="M14.3721 6.83834C14.3103 6.53228 13.9648 6.16281 13.9277 6.11859C13.8768 6.14245 13.4593 6.34207 13.315 6.61382C13.1615 6.87451 13.5416 7.15844 13.7589 6.99492C13.7451 7.063 13.7001 7.15727 13.5891 7.19393C13.5787 7.20266 13.588 7.21372 13.588 7.21372L13.7547 7.24338L13.9214 7.27304C13.9411 7.27537 13.9422 7.25559 13.9225 7.25326C13.8275 7.18228 13.8238 7.0723 13.8179 7.00189C14.0116 7.25384 14.4339 7.14441 14.3721 6.83834Z" fill="#DB2626"/>
<path d="M12.2127 16.0534C12.2323 16.0558 12.252 16.0581 12.2613 16.0691L12.2706 16.0802C12.229 16.1151 12.1862 16.1698 12.1828 16.2292C12.1645 16.3764 12.2759 16.509 12.4229 16.5364C12.5792 16.5748 12.7133 16.4811 12.7409 16.3449C12.7443 16.2856 12.728 16.2239 12.7013 16.1709C12.7013 16.1709 12.7024 16.1512 12.7117 16.1622C12.7313 16.1645 12.7406 16.1756 12.7603 16.1779C12.9166 16.2163 13.0507 16.1226 13.0783 15.9865C13.0966 15.8392 12.9852 15.7066 12.8382 15.6792C12.7502 15.6589 12.6496 15.6868 12.5872 15.7392C12.5998 15.6909 12.6274 15.5547 12.7581 15.5204C12.7685 15.5117 12.7592 15.5006 12.7592 15.5006L12.6029 15.4622L12.4466 15.4238C12.4269 15.4215 12.4258 15.4413 12.4455 15.4436C12.5498 15.5256 12.5419 15.6641 12.5292 15.7124C12.484 15.6374 12.4179 15.5798 12.3103 15.5571C12.1539 15.5187 12.0198 15.6124 11.9923 15.7485C11.945 15.8824 12.0459 16.0238 12.2127 16.0534Z" fill="#DB2626"/>
<path d="M8.19116 10.3101C7.8476 10.4288 7.9943 10.984 8.36343 10.938C8.71288 10.8896 9.08851 10.5556 9.13012 10.5207C9.13012 10.5207 9.13012 10.5207 9.14053 10.512C9.11382 10.459 8.84342 9.98887 8.52716 9.80211C8.20163 9.6043 7.89796 10.0663 8.19116 10.3101Z" fill="#DB2626"/>
<path d="M17.276 12.2004C17.3131 12.2446 17.5473 12.4814 17.7457 12.8236C17.7457 12.8236 17.755 12.8346 17.7654 12.8259C18.0567 12.5815 18.3215 12.4535 18.3724 12.4296C18.3724 12.4296 18.3828 12.4209 18.3735 12.4098C18.3364 12.3656 18.1022 12.1288 17.9038 11.7867C17.9038 11.7867 17.8945 11.7756 17.8841 11.7843C17.6021 12.0398 17.3373 12.1678 17.276 12.2004C17.276 12.2004 17.2667 12.1894 17.276 12.2004Z" fill="#DB2626"/>
<path d="M16.3141 18.8288L15.8491 18.9929C14.9399 19.3037 14.4959 20.3168 14.8584 21.2559C14.8759 21.2978 14.8933 21.3397 14.9107 21.3816C16.2669 21.2232 17.5301 20.785 18.6482 20.1105C18.6516 20.0512 18.6342 20.0093 18.6168 19.9674C18.2542 19.0282 17.2233 18.518 16.3141 18.8288Z" fill="#F2F2F2"/>
<path d="M9.98888 3.79071L10.4539 3.62659C11.3631 3.3158 11.8071 2.30271 11.4446 1.36357C11.4364 1.33273 11.4179 1.31062 11.4097 1.27979C10.0616 1.469 8.78807 1.91598 7.65953 2.59919C7.6584 2.61898 7.67695 2.64109 7.67583 2.66087C8.0488 3.59127 9.08894 4.11256 9.98888 3.79071Z" fill="#F2F2F2"/>
<path d="M8.44757 17.4608L8.0512 17.1152C7.2863 16.4571 6.17301 16.5247 5.56653 17.2597C5.54572 17.2771 5.53419 17.3056 5.51339 17.3231C6.38198 18.4216 7.44823 19.3543 8.67615 20.0571C8.69696 20.0397 8.72817 20.0135 8.7397 19.985C9.34617 19.25 9.22287 18.1101 8.44757 17.4608Z" fill="#F2F2F2"/>
<path d="M17.8647 5.16975L18.2611 5.51536C19.026 6.17341 20.1393 6.10583 20.7458 5.37086C20.7677 5.33362 20.7989 5.30743 20.8312 5.26146C19.9615 4.18272 18.8756 3.24771 17.6465 2.56468C17.6153 2.59086 17.5934 2.62811 17.5726 2.64556C16.9661 3.38053 17.0894 4.52042 17.8647 5.16975Z" fill="#F2F2F2"/>
<path d="M3.22056 11.316C3.24024 11.3183 3.25992 11.3206 3.28888 11.334C4.25792 11.5382 5.16549 10.9085 5.2994 9.94838L5.37733 9.4497C5.52164 8.48085 4.84308 7.52429 3.88331 7.33118C3.86363 7.32885 3.84395 7.32652 3.82427 7.3242C3.60071 7.94508 3.42465 8.60146 3.32619 9.28692C3.20804 9.97006 3.17902 10.6538 3.22056 11.316Z" fill="#F2F2F2"/>
<path d="M21.0949 12.632L21.017 13.1307C20.8726 14.0995 21.5512 15.0561 22.511 15.2492C22.5503 15.2539 22.5897 15.2585 22.6291 15.2632C22.8411 14.6708 22.9963 14.0319 23.103 13.3772C23.213 12.6633 23.2234 11.9574 23.1841 11.2557C23.1552 11.2423 23.1355 11.24 23.0961 11.2353C22.1364 11.0422 21.2288 11.6719 21.0949 12.632Z" fill="#F2F2F2"/>
<path d="M1.49368 12.765C2.34306 11.9392 3.24135 11.2985 3.24135 11.2985C3.1156 9.33174 3.81498 7.31314 3.81498 7.31314C3.81498 7.31314 2.9271 7.94513 2.07771 8.77089C2.07771 8.77089 1.33897 10.7848 1.474 12.7626C1.474 12.7626 1.48327 12.7737 1.49368 12.765Z" fill="#E6E6E6"/>
<path d="M3.75547 18.7984C3.75547 18.7984 4.9681 17.8563 5.52395 17.3145C6.92719 19.1136 8.68672 20.0485 8.68672 20.0485C8.13086 20.5903 6.92864 21.5237 6.92864 21.5237C6.92864 21.5237 5.32204 20.6865 3.75547 18.7984Z" fill="#E6E6E6"/>
<path d="M16.8799 21.5945C18.081 20.6809 18.6484 20.1106 18.6484 20.1106C18.6484 20.1106 16.715 21.1867 14.9016 21.3707C14.9016 21.3707 14.436 21.8932 13.2453 22.7981C13.2349 22.8069 13.2442 22.8179 13.2546 22.8092C13.5231 22.7911 15.2971 22.6025 16.8799 21.5945Z" fill="#E6E6E6"/>
</g>
</svg>
