<svg width="24" height="24" viewBox="0 0 24 24" fill="none" xmlns="http://www.w3.org/2000/svg">
<mask id="mask0" mask-type="alpha" maskUnits="userSpaceOnUse" x="0" y="0" width="24" height="24">
<rect width="24" height="24" fill="#C4C4C4"/>
</mask>
<g mask="url(#mask0)">
<path d="M12.0205 3C16.7259 3 20.5851 6.59509 21 11.1818H13.6606V8.72727C13.6606 8.39673 13.4605 8.09809 13.1546 7.97127C12.8479 7.84445 12.4953 7.91482 12.2608 8.14882L8.98059 11.4215C8.65995 11.7415 8.65995 12.2585 8.98059 12.5785L12.2608 15.8512C12.4953 16.0852 12.8479 16.1555 13.1546 16.0287C13.4605 15.9019 13.6606 15.6033 13.6606 15.2727V12.8182H21C20.5851 17.4049 16.7259 21 12.0205 21C7.03872 21 3 16.9705 3 12C3 7.02955 7.03872 3 12.0205 3Z" fill="#FFD600"/>
</g>
</svg>
