<svg width="47" height="49" viewBox="0 0 47 49" fill="none" xmlns="http://www.w3.org/2000/svg">
<g filter="url(#filter0_d)">
<path d="M40.3978 23.89C40.3978 22.447 40.2807 21.394 40.0273 20.302H23.5498V26.8149H33.2217C33.0268 28.4335 31.9738 30.871 29.6338 32.5089L29.601 32.727L34.8108 36.763L35.1718 36.799C38.4867 33.7375 40.3978 29.233 40.3978 23.89Z" fill="#4285F4"/>
<path d="M23.5501 41.05C28.2886 41.05 32.2665 39.4899 35.1721 36.799L29.6341 32.5089C28.1521 33.5424 26.1631 34.2639 23.5501 34.2639C18.9091 34.2639 14.9702 31.2025 13.566 26.971L13.3602 26.9885L7.94292 31.181L7.87207 31.3779C10.758 37.1109 16.6861 41.05 23.5501 41.05Z" fill="#34A853"/>
<path d="M13.5659 26.971C13.1954 25.879 12.981 24.709 12.981 23.5C12.981 22.2909 13.1954 21.121 13.5464 20.029L13.5366 19.7964L8.05142 15.5366L7.87196 15.6219C6.68251 18.001 6 20.6725 6 23.5C6 26.3275 6.68251 28.9989 7.87196 31.378L13.5659 26.971Z" fill="#FBBC05"/>
<path d="M23.5501 12.736C26.8456 12.736 29.0685 14.1594 30.3361 15.349L35.2891 10.513C32.2471 7.6855 28.2886 5.95 23.5501 5.95C16.6861 5.95 10.758 9.88897 7.87207 15.6219L13.5465 20.029C14.9702 15.7975 18.9091 12.736 23.5501 12.736Z" fill="#EB4335"/>
</g>
<defs>
<filter id="filter0_d" x="0" y="0.949997" width="46.3978" height="47.1" filterUnits="userSpaceOnUse" color-interpolation-filters="sRGB">
<feFlood flood-opacity="0" result="BackgroundImageFix"/>
<feColorMatrix in="SourceAlpha" type="matrix" values="0 0 0 0 0 0 0 0 0 0 0 0 0 0 0 0 0 0 127 0"/>
<feOffset dy="1"/>
<feGaussianBlur stdDeviation="3"/>
<feColorMatrix type="matrix" values="0 0 0 0 0 0 0 0 0 0 0 0 0 0 0 0 0 0 0.36 0"/>
<feBlend mode="normal" in2="BackgroundImageFix" result="effect1_dropShadow"/>
<feBlend mode="normal" in="SourceGraphic" in2="effect1_dropShadow" result="shape"/>
</filter>
</defs>
</svg>
