<svg width="13" height="14" viewBox="0 0 13 14" fill="none" xmlns="http://www.w3.org/2000/svg">
<path d="M5.72867 7.91846V13.2269H1.36167C0.794083 13.2269 0.333759 12.7669 0.333759 12.199V7.91846H5.72867Z" fill="url(#paint0_linear)"/>
<path d="M7.2729 7.91846H12.6659V12.199C12.6659 12.7669 12.2055 13.2269 11.638 13.2269H7.2729V7.91846ZM11.2645 12.1482C11.4776 12.1482 11.6505 11.9753 11.6505 11.7622V9.62039C11.6505 9.40731 11.4776 9.2344 11.2645 9.2344C11.0514 9.2344 10.8785 9.40737 10.8785 9.62039V11.7622C10.8785 11.9753 11.0514 12.1482 11.2645 12.1482Z" fill="url(#paint1_linear)"/>
<path d="M1.02746 3.8932H2.95813C2.69165 3.7653 2.46811 3.63316 2.33295 3.49813C1.53769 2.70301 1.53769 1.41321 2.33295 0.617955C2.73105 0.220377 3.25226 0.0216209 3.77344 0.0216209C4.29472 0.0216209 4.81603 0.220377 5.21361 0.617955C5.54382 0.94826 5.86149 1.76354 6.12084 2.60366C6.24197 2.57042 6.36665 2.54713 6.49781 2.54713C6.62851 2.54713 6.75322 2.57045 6.8738 2.60343C7.13416 1.75572 7.45483 0.929374 7.78813 0.596301C8.18574 0.198724 8.70647 0 9.22823 0C9.74948 0 10.2707 0.198756 10.6683 0.596301C11.4636 1.39185 11.4636 2.68139 10.6683 3.47648C10.5261 3.61936 10.2864 3.75908 9.99881 3.8932H11.9727C12.5402 3.8932 13.0001 4.35323 13.0001 4.92071V5.79506C13.0001 6.36261 12.5402 6.82241 11.9727 6.82241H7.27284V3.93397H5.7288V6.82241H1.02742C0.459938 6.82241 4.76837e-06 6.36254 4.76837e-06 5.79503V4.92068C3.71933e-05 4.35323 0.45997 3.8932 1.02746 3.8932ZM4.48566 1.34584C4.2957 1.15574 4.04243 1.05093 3.77344 1.05093C3.50409 1.05093 3.25119 1.15574 3.06064 1.34584C2.87067 1.53603 2.76612 1.7889 2.76612 2.05806C2.76612 2.32721 2.87067 2.58005 3.05969 2.76904C3.27235 2.96965 4.10515 3.28221 5.13468 3.57335C5.16379 3.47351 5.20309 3.37905 5.25278 3.28954C4.9723 2.32073 4.67771 1.54886 4.48566 1.34584ZM9.94049 1.32422C9.75046 1.13425 9.49716 1.02944 9.2282 1.02944C8.95882 1.02944 8.70595 1.13399 8.5165 1.3237C8.32292 1.52854 8.02489 2.31041 7.74241 3.28928C7.78917 3.37319 7.82629 3.46173 7.8555 3.55492C8.88992 3.26343 9.72786 2.94927 9.94052 2.74876C10.3331 2.35593 10.3331 1.71704 9.94049 1.32422Z" fill="url(#paint2_linear)"/>
<defs>
<linearGradient id="paint0_linear" x1="4.77036" y1="9.44975" x2="2.50976" y2="9.73932" gradientUnits="userSpaceOnUse">
<stop offset="0.0404352" stop-color="#FFC700"/>
<stop offset="0.40625" stop-color="#FFA800"/>
<stop offset="1" stop-color="#FFD600"/>
</linearGradient>
<linearGradient id="paint1_linear" x1="11.708" y1="9.44975" x2="9.44812" y2="9.73912" gradientUnits="userSpaceOnUse">
<stop offset="0.0404352" stop-color="#FFC700"/>
<stop offset="0.40625" stop-color="#FFA800"/>
<stop offset="1" stop-color="#FFD600"/>
</linearGradient>
<linearGradient id="paint2_linear" x1="10.6909" y1="1.968" x2="5.45606" y2="3.22522" gradientUnits="userSpaceOnUse">
<stop offset="0.0404352" stop-color="#FFC700"/>
<stop offset="0.40625" stop-color="#FFA800"/>
<stop offset="1" stop-color="#FFD600"/>
</linearGradient>
</defs>
</svg>
