<svg width="33" height="33" viewBox="0 0 33 33" fill="none" xmlns="http://www.w3.org/2000/svg">
<g filter="url(#filter0_d)">
<path d="M23.8527 12.5313C23.8527 12.5443 23.7439 12.1365 23.5494 11.6419C23.5073 11.534 23.4628 11.4279 23.4173 11.3228C23.2052 10.8355 23.2498 10.1167 23.5147 9.65782C24.0264 8.77088 24.5725 7.44772 23.8271 6.6938L23.3018 6.12501C22.6624 5.47327 21.3064 6.02912 20.4082 6.51646C19.9467 6.76762 19.2278 6.79076 18.7498 6.57531C18.6566 6.53339 18.5624 6.49289 18.4673 6.45434C17.9817 6.25671 17.5051 5.72169 17.3636 5.20926C17.0904 4.22058 16.5347 2.92587 15.4892 2.92587H14.9156C14.0116 2.92587 13.3889 4.2703 13.0551 5.24977C12.8842 5.75297 12.3764 6.28755 11.8946 6.49342C11.8108 6.52905 11.728 6.56574 11.6457 6.60385C11.1695 6.82417 10.4682 6.77498 10.018 6.50406C9.15526 5.98543 7.82148 5.4084 7.0633 6.18156L6.50483 6.66163C5.84795 7.33021 6.43714 8.77681 6.92556 9.69894C7.17355 10.1679 7.20053 10.8997 6.98847 11.3865C6.95584 11.4612 6.92408 11.5359 6.89336 11.6121C6.69409 12.1042 6.16495 12.5844 5.66 12.7241C4.68881 12.9931 3.36364 13.5575 3.36364 14.6503V15.234C3.36364 16.1696 4.72857 16.8044 5.69271 17.138C6.18775 17.3101 6.71411 17.8278 6.91755 18.3175C6.94783 18.3898 6.97864 18.4616 7.00988 18.5325C7.22568 19.0175 7.20436 19.7525 6.96062 20.224C6.47977 21.1514 5.90564 22.5961 6.5607 23.2637L7.08793 23.7105C7.85324 24.4895 9.14865 23.952 9.98069 23.4643C10.4336 23.1986 10.7148 22.8718 10.6461 22.7981C10.578 22.7238 10.8804 22.8969 11.3494 23.1326C11.5221 23.2198 11.6987 23.3014 11.878 23.377C12.3612 23.581 12.8667 24.116 13.0357 24.6197C13.3646 25.6026 13.9946 27 14.9151 27H15.4887C16.5725 27 17.1315 25.6792 17.3927 24.7325C17.5342 24.2201 17.546 23.7897 17.4893 23.7877C17.4325 23.7863 17.8002 23.687 18.2911 23.5048C18.4416 23.4488 18.5907 23.3886 18.7374 23.3245C19.2178 23.1153 19.9367 23.1433 20.3967 23.3963C21.2813 23.8836 22.5838 24.4162 23.2118 23.7751L23.8029 23.1755C24.563 22.4014 24.024 21.0941 23.5369 20.2534C23.2714 19.795 22.9884 19.4725 22.9657 19.4923C22.9434 19.5125 23.1455 19.1593 23.3646 18.6757C23.4186 18.5567 23.4706 18.4357 23.5194 18.3137C23.7173 17.821 24.2384 17.3 24.732 17.1236C25.6947 16.7789 27 16.1465 27 15.2335V14.6497C27 12.9289 23.8517 12.5047 23.8517 12.5071C23.8527 12.5077 23.8527 12.5178 23.8527 12.5313ZM15.1438 21.2797C11.7498 21.2797 8.98967 18.386 8.98967 14.9294C8.98967 11.4723 11.7499 8.66107 15.1438 8.66107C18.5415 8.66107 21.4157 11.4723 21.4157 14.9294C21.4157 18.386 18.5415 21.2797 15.1438 21.2797Z" fill="#506C72"/>
<path d="M22.8043 11.5758C22.8043 11.5888 22.6938 11.1822 22.4963 10.6892C22.4535 10.5816 22.4084 10.4759 22.3622 10.3711C22.1469 9.88523 22.1921 9.16871 22.4611 8.71122C22.9807 7.82701 23.5352 6.50793 22.7783 5.75633L22.2449 5.18929C21.5957 4.53956 20.2189 5.0937 19.3068 5.57954C18.8382 5.82992 18.1082 5.85298 17.6229 5.6382C17.5283 5.59641 17.4326 5.55604 17.336 5.5176C16.843 5.32058 16.359 4.78721 16.2153 4.27636C15.938 3.29072 15.3737 2 14.3122 2H13.7297C12.8118 2 12.1795 3.34028 11.8406 4.31674C11.6671 4.81839 11.1514 5.35133 10.6622 5.55657C10.5771 5.59208 10.493 5.62866 10.4094 5.66665C9.92596 5.88629 9.21382 5.83726 8.75676 5.56717C7.88072 5.05014 6.52642 4.47489 5.75659 5.24566L5.18953 5.72426C4.52253 6.39078 5.12078 7.83293 5.61672 8.75222C5.86853 9.21977 5.89592 9.94929 5.6806 10.4346C5.64747 10.5091 5.61522 10.5836 5.58403 10.6595C5.3817 11.1501 4.84441 11.6287 4.33169 11.7681C3.34556 12.0362 2 12.5989 2 13.6883V14.2703C2 15.203 3.38594 15.8358 4.36491 16.1684C4.86756 16.34 5.40202 16.856 5.60859 17.3443C5.63934 17.4164 5.67062 17.4879 5.70234 17.5586C5.92146 18.0421 5.89981 18.7748 5.65233 19.2449C5.16408 20.1695 4.58111 21.6097 5.24625 22.2752L5.78159 22.7207C6.55867 23.4973 7.87401 22.9614 8.71886 22.4752C9.17875 22.2104 9.46422 21.8845 9.39451 21.811C9.32533 21.737 9.84616 21.811 10.3077 21.8453C10.4673 21.8571 10.9514 22.1119 11.1335 22.1873C11.6242 22.3906 11.6492 23.1249 11.8208 23.6271C12.1548 24.6069 12.7945 26 13.7292 26H14.3116C15.4121 26 15.9797 24.6833 16.2449 23.7395C16.3886 23.2287 16.4006 22.7996 16.343 22.7976C16.2853 22.7962 16.6587 22.6972 17.1571 22.5155C17.31 22.4598 17.4613 22.3997 17.6103 22.3358C18.0981 22.1272 18.8281 22.1551 19.2951 22.4074C20.1933 22.8932 21.5158 23.4242 22.1536 22.7851L22.7538 22.1873C23.5255 21.4156 22.9782 20.1123 22.4837 19.2742C22.2141 18.8172 21.9267 18.4957 21.9036 18.5154C21.881 18.5356 22.0862 18.1834 22.3087 17.7014C22.3635 17.5827 22.4163 17.462 22.4659 17.3405C22.6668 16.8493 23.1959 16.3299 23.6971 16.154C24.6746 15.8104 26 15.1799 26 14.2697V13.6878C26 11.9723 22.8032 11.5493 22.8032 11.5517C22.8032 11.5517 22.8043 11.5624 22.8043 11.5758ZM13.9614 20.2973C10.5152 20.2973 7.71259 17.4126 7.71259 13.9666C7.71259 10.5201 10.5153 7.71754 13.9614 7.71754C17.4114 7.71754 20.3298 10.5201 20.3298 13.9666C20.3298 17.4126 17.4114 20.2973 13.9614 20.2973Z" fill="url(#paint0_linear)"/>
<path d="M20.4615 13.9995C20.4615 17.5679 17.5686 20.4607 14 20.4607C10.4314 20.4607 7.53846 17.5679 7.53846 13.9995C7.53846 10.431 10.4314 7.53822 14 7.53822C17.5686 7.53822 20.4615 10.431 20.4615 13.9995Z" fill="url(#paint1_linear)"/>
<g filter="url(#filter1_i)">
<path d="M15.3844 11.524V19H12.6124V11.524H15.3844ZM13.9984 7.394C14.4464 7.394 14.8151 7.53866 15.1044 7.828C15.4031 8.108 15.5524 8.458 15.5524 8.878C15.5524 9.298 15.4031 9.65266 15.1044 9.942C14.8151 10.222 14.4464 10.362 13.9984 10.362C13.5504 10.362 13.1771 10.222 12.8784 9.942C12.5891 9.65266 12.4444 9.298 12.4444 8.878C12.4444 8.458 12.5891 8.108 12.8784 7.828C13.1771 7.53866 13.5504 7.394 13.9984 7.394Z" fill="#5E6B7A"/>
</g>
</g>
<defs>
<filter id="filter0_d" x="0" y="0" width="33" height="33" filterUnits="userSpaceOnUse" color-interpolation-filters="sRGB">
<feFlood flood-opacity="0" result="BackgroundImageFix"/>
<feColorMatrix in="SourceAlpha" type="matrix" values="0 0 0 0 0 0 0 0 0 0 0 0 0 0 0 0 0 0 127 0"/>
<feOffset dx="2" dy="2"/>
<feGaussianBlur stdDeviation="2"/>
<feColorMatrix type="matrix" values="0 0 0 0 0 0 0 0 0 0 0 0 0 0 0 0 0 0 0.25 0"/>
<feBlend mode="normal" in2="BackgroundImageFix" result="effect1_dropShadow"/>
<feBlend mode="normal" in="SourceGraphic" in2="effect1_dropShadow" result="shape"/>
</filter>
<filter id="filter1_i" x="12.4444" y="6.394" width="4.108" height="12.606" filterUnits="userSpaceOnUse" color-interpolation-filters="sRGB">
<feFlood flood-opacity="0" result="BackgroundImageFix"/>
<feBlend mode="normal" in="SourceGraphic" in2="BackgroundImageFix" result="shape"/>
<feColorMatrix in="SourceAlpha" type="matrix" values="0 0 0 0 0 0 0 0 0 0 0 0 0 0 0 0 0 0 127 0" result="hardAlpha"/>
<feOffset dx="1" dy="-1"/>
<feGaussianBlur stdDeviation="0.5"/>
<feComposite in2="hardAlpha" operator="arithmetic" k2="-1" k3="1"/>
<feColorMatrix type="matrix" values="0 0 0 0 0 0 0 0 0 0 0 0 0 0 0 0 0 0 0.16 0"/>
<feBlend mode="normal" in2="shape" result="effect1_innerShadow"/>
</filter>
<linearGradient id="paint0_linear" x1="6.61539" y1="3.38455" x2="19.9992" y2="24.1534" gradientUnits="userSpaceOnUse">
<stop stop-color="#F0FDF6"/>
<stop offset="1" stop-color="#BED0EE"/>
</linearGradient>
<linearGradient id="paint1_linear" x1="6.61539" y1="3.38455" x2="19.9992" y2="24.1534" gradientUnits="userSpaceOnUse">
<stop stop-color="#F0FDF6"/>
<stop offset="1" stop-color="#BED0EE"/>
</linearGradient>
</defs>
</svg>
