<svg width="25" height="27" viewBox="0 0 25 27" fill="none" xmlns="http://www.w3.org/2000/svg">
<g filter="url(#filter0_d)">
<mask id="mask0" mask-type="alpha" maskUnits="userSpaceOnUse" x="0" y="0" width="25" height="24">
<rect x="0.0332031" width="24" height="24" fill="#C4C4C4"/>
</mask>
<g mask="url(#mask0)">
<path d="M12.0332 3.0002C7.06316 3.0002 3.03856 7.02955 3.04516 12.0002C3.05177 16.9709 7.08668 21.0002 12.0571 21.0002C17.028 21.0002 21.0518 16.9709 21.0452 12.0002C21.0386 7.02955 17.004 3.0002 12.0332 3.0002ZM12.0368 5.69131C13.6813 5.69131 15.0158 7.02441 15.0179 8.66825C15.0201 10.3125 13.6892 11.6452 12.0447 11.6452C10.4009 11.6452 9.06651 10.3125 9.06432 8.66825C9.06214 7.02441 10.393 5.69131 12.0368 5.69131ZM12.052 18.6471C10.4118 18.6471 8.90877 18.0498 7.74876 17.061C7.46617 16.8202 7.30283 16.4672 7.30234 16.0968C7.30012 14.4296 8.6476 13.0953 10.3151 13.0953H13.7789C15.4468 13.0953 16.7927 14.4296 16.7949 16.0968C16.7954 16.4676 16.6338 16.8198 16.3515 17.0606C15.1945 18.0498 13.6926 18.6471 12.052 18.6471Z" fill="#FFD600"/>
</g>
</g>
<defs>
<filter id="filter0_d" x="0.045166" y="3.0002" width="24" height="24" filterUnits="userSpaceOnUse" color-interpolation-filters="sRGB">
<feFlood flood-opacity="0" result="BackgroundImageFix"/>
<feColorMatrix in="SourceAlpha" type="matrix" values="0 0 0 0 0 0 0 0 0 0 0 0 0 0 0 0 0 0 127 0"/>
<feOffset dy="3"/>
<feGaussianBlur stdDeviation="1.5"/>
<feColorMatrix type="matrix" values="0 0 0 0 0 0 0 0 0 0 0 0 0 0 0 0 0 0 0.25 0"/>
<feBlend mode="normal" in2="BackgroundImageFix" result="effect1_dropShadow"/>
<feBlend mode="normal" in="SourceGraphic" in2="effect1_dropShadow" result="shape"/>
</filter>
</defs>
</svg>
