<svg width="24" height="24" viewBox="0 0 24 24" fill="none" xmlns="http://www.w3.org/2000/svg">
<mask id="mask0" mask-type="alpha" maskUnits="userSpaceOnUse" x="0" y="0" width="24" height="24">
<rect width="24" height="24" fill="#C4C4C4"/>
</mask>
<g mask="url(#mask0)">
<path d="M11.9998 2.99982C7.02889 2.99982 3 7.02942 3 11.9996C3 16.9699 7.02924 21.0002 11.9998 21.0002C16.9704 21.0002 21 16.9702 21 11.9996C21 7.02906 16.9704 2.99982 11.9998 2.99982ZM13.5205 4.36009C13.5482 4.36507 14.9238 4.62397 16.3758 5.55855L15.6076 6.61476C14.8335 6.0518 14.0525 5.7353 13.3053 5.58451L13.5205 4.36009ZM10.7768 4.25874L10.955 5.44617C9.86678 5.61047 9.00296 6.0134 8.31838 6.52408L7.60322 5.51908C7.6274 5.50236 8.9201 4.60512 10.7768 4.25874ZM5.47516 16.127C5.45986 16.1053 4.72194 15.041 4.32613 13.4602L5.60496 13.2678C5.73654 14.1398 6.02246 14.8663 6.39338 15.4741L5.47516 16.127ZM5.53739 10.4388L4.51959 10.2599C4.52421 10.2333 4.77493 8.89823 5.67537 7.47075L6.57084 8.12261C6.00433 8.90179 5.68782 9.68701 5.53739 10.4388ZM10.4176 19.7039C10.3906 19.6986 9.04919 19.4475 7.61816 18.5414L8.3952 17.4731C9.14699 18.02 9.90412 18.3326 10.6317 18.4888L10.4176 19.7039ZM13.6272 19.5034L13.4625 18.4055C14.7406 18.0773 15.5991 17.4816 15.6172 17.4692L16.3619 18.5165C15.6123 18.9809 14.7122 19.3398 13.6272 19.5034ZM11.9998 16.8045C9.3465 16.8045 7.19532 14.653 7.19532 11.9996C7.19532 9.34597 9.34579 7.19443 11.9998 7.19443C14.6535 7.19443 16.8047 9.34597 16.8047 11.9996C16.805 14.653 14.6535 16.8045 11.9998 16.8045ZM18.3865 7.42985C18.99 8.25668 19.4651 9.29511 19.6611 10.596L18.4711 10.7745C18.1934 9.2215 17.4391 8.13293 17.4256 8.11408L18.3865 7.42985ZM17.5785 15.4435C18.3282 14.2625 18.5369 13.1519 18.5405 13.1295L19.7752 13.3468C19.5882 14.2497 19.2023 15.1928 18.5216 16.1292L17.5785 15.4435Z" fill="#FFD600"/>
<path d="M11.9997 15.4634C13.9129 15.4634 15.4638 13.9125 15.4638 11.9993C15.4638 10.0861 13.9129 8.53514 11.9997 8.53514C10.0865 8.53514 8.53552 10.0861 8.53552 11.9993C8.53552 13.9125 10.0865 15.4634 11.9997 15.4634Z" fill="#FFD600"/>
</g>
</svg>
