<?xml version="1.0" encoding="utf-8"?>
<!-- Generator: Adobe Illustrator 19.2.1, SVG Export Plug-In . SVG Version: 6.00 Build 0)  -->
<svg version="1.1" id="Layer_1" xmlns="http://www.w3.org/2000/svg" xmlns:xlink="http://www.w3.org/1999/xlink" x="0px" y="0px"
	 viewBox="0 0 54 54" style="enable-background:new 0 0 54 54;" xml:space="preserve">
<style type="text/css">
	.st0{fill:url(#SVGID_1_);}
</style>
<linearGradient id="SVGID_1_" gradientUnits="userSpaceOnUse" x1="6.209" y1="46.3697" x2="45.7204" y2="13.3601" gradientTransform="matrix(1 0 0 -1 0 56)">
	<stop  offset="4.043520e-002" style="stop-color:#FFC700"/>
	<stop  offset="0.599" style="stop-color:#FFDE30"/>
	<stop  offset="1" style="stop-color:#FFD028"/>
</linearGradient>
<path class="st0" d="M24.9,1.4c1.2-1.1,3-1.1,4.2,0l2.6,2.5c0.8,0.7,1.8,1,2.8,0.8L38,3.7c1.6-0.4,3.2,0.5,3.6,2.1l1,3.5
	c0.3,1,1.1,1.8,2.1,2.1l3.5,1c1.6,0.4,2.5,2.1,2.1,3.6l-0.9,3.5c-0.3,1,0,2.1,0.8,2.8l2.5,2.6c1.1,1.2,1.1,3,0,4.2l-2.5,2.6
	c-0.7,0.8-1,1.8-0.8,2.8l0.9,3.5c0.4,1.6-0.5,3.2-2.1,3.6l-3.5,1c-1,0.3-1.8,1.1-2.1,2.1l-1,3.5c-0.4,1.6-2.1,2.5-3.6,2.1l-3.5-0.9
	c-1-0.3-2.1,0-2.8,0.8l-2.6,2.5c-1.2,1.1-3,1.1-4.2,0l-2.6-2.5c-0.8-0.7-1.8-1-2.8-0.8L16,50.3c-1.6,0.4-3.2-0.5-3.6-2.1l-1-3.5
	c-0.3-1-1.1-1.8-2.1-2.1l-3.5-1c-1.6-0.4-2.5-2.1-2.1-3.6l0.9-3.5c0.3-1,0-2.1-0.8-2.8l-2.5-2.6c-1.1-1.2-1.1-3,0-4.2l2.5-2.6
	c0.7-0.8,1-1.8,0.8-2.8L3.7,16c-0.4-1.6,0.5-3.2,2.1-3.6l3.5-1c1-0.3,1.8-1.1,2.1-2.1l1-3.5c0.4-1.6,2.1-2.5,3.6-2.1l3.5,0.9
	c1,0.3,2.1,0,2.8-0.8L24.9,1.4z"/>
</svg>
