<svg width="54" height="54" viewBox="0 0 54 54" fill="none" xmlns="http://www.w3.org/2000/svg">
<path d="M24.5928 1.0571C25.7592 -0.0857365 27.6254 -0.0857379 28.7919 1.0571L31.3613 3.57461C32.1113 4.3094 33.1908 4.59866 34.2077 4.33729L37.6916 3.44179C39.2732 3.03528 40.8894 3.9684 41.3282 5.54134L42.2946 9.00629C42.5767 10.0176 43.367 10.8079 44.3783 11.09L47.8433 12.0564C49.4162 12.4952 50.3493 14.1114 49.9428 15.693L49.0473 19.1769C48.786 20.1938 49.0752 21.2733 49.81 22.0233L52.3275 24.5928C53.4704 25.7592 53.4704 27.6254 52.3275 28.7919L49.81 31.3613C49.0752 32.1113 48.786 33.1908 49.0473 34.2077L49.9428 37.6916C50.3493 39.2732 49.4162 40.8894 47.8433 41.3282L44.3783 42.2946C43.367 42.5767 42.5767 43.367 42.2946 44.3783L41.3282 47.8433C40.8894 49.4162 39.2732 50.3493 37.6916 49.9428L34.2077 49.0473C33.1908 48.786 32.1113 49.0752 31.3613 49.81L28.7919 52.3275C27.6254 53.4704 25.7592 53.4704 24.5928 52.3275L22.0233 49.81C21.2733 49.0752 20.1938 48.786 19.1769 49.0473L15.693 49.9428C14.1114 50.3493 12.4952 49.4162 12.0564 47.8433L11.09 44.3783C10.8079 43.367 10.0176 42.5767 9.00629 42.2946L5.54134 41.3282C3.96841 40.8894 3.03528 39.2732 3.44179 37.6917L4.33729 34.2077C4.59866 33.1908 4.3094 32.1113 3.57461 31.3613L1.0571 28.7919C-0.0857365 27.6254 -0.0857379 25.7592 1.0571 24.5928L3.57461 22.0233C4.3094 21.2733 4.59866 20.1938 4.33729 19.1769L3.44179 15.693C3.03528 14.1114 3.9684 12.4952 5.54134 12.0564L9.00629 11.09C10.0176 10.8079 10.8079 10.0176 11.09 9.00629L12.0564 5.54134C12.4952 3.96841 14.1114 3.03528 15.693 3.44179L19.1769 4.33729C20.1938 4.59866 21.2733 4.3094 22.0233 3.57461L24.5928 1.0571Z" fill="url(#paint0_linear)"/>
<path d="M24.5928 1.0571C25.7592 -0.0857365 27.6254 -0.0857379 28.7919 1.0571L31.3613 3.57461C32.1113 4.3094 33.1908 4.59866 34.2077 4.33729L37.6916 3.44179C39.2732 3.03528 40.8894 3.9684 41.3282 5.54134L42.2946 9.00629C42.5767 10.0176 43.367 10.8079 44.3783 11.09L47.8433 12.0564C49.4162 12.4952 50.3493 14.1114 49.9428 15.693L49.0473 19.1769C48.786 20.1938 49.0752 21.2733 49.81 22.0233L52.3275 24.5928C53.4704 25.7592 53.4704 27.6254 52.3275 28.7919L49.81 31.3613C49.0752 32.1113 48.786 33.1908 49.0473 34.2077L49.9428 37.6916C50.3493 39.2732 49.4162 40.8894 47.8433 41.3282L44.3783 42.2946C43.367 42.5767 42.5767 43.367 42.2946 44.3783L41.3282 47.8433C40.8894 49.4162 39.2732 50.3493 37.6916 49.9428L34.2077 49.0473C33.1908 48.786 32.1113 49.0752 31.3613 49.81L28.7919 52.3275C27.6254 53.4704 25.7592 53.4704 24.5928 52.3275L22.0233 49.81C21.2733 49.0752 20.1938 48.786 19.1769 49.0473L15.693 49.9428C14.1114 50.3493 12.4952 49.4162 12.0564 47.8433L11.09 44.3783C10.8079 43.367 10.0176 42.5767 9.00629 42.2946L5.54134 41.3282C3.96841 40.8894 3.03528 39.2732 3.44179 37.6917L4.33729 34.2077C4.59866 33.1908 4.3094 32.1113 3.57461 31.3613L1.0571 28.7919C-0.0857365 27.6254 -0.0857379 25.7592 1.0571 24.5928L3.57461 22.0233C4.3094 21.2733 4.59866 20.1938 4.33729 19.1769L3.44179 15.693C3.03528 14.1114 3.9684 12.4952 5.54134 12.0564L9.00629 11.09C10.0176 10.8079 10.8079 10.0176 11.09 9.00629L12.0564 5.54134C12.4952 3.96841 14.1114 3.03528 15.693 3.44179L19.1769 4.33729C20.1938 4.59866 21.2733 4.3094 22.0233 3.57461L24.5928 1.0571Z" fill="url(#paint1_linear)"/>
<defs>
<linearGradient id="paint0_linear" x1="3" y1="12.8077" x2="42.5" y2="45.8077" gradientUnits="userSpaceOnUse">
<stop offset="0.0404352" stop-color="#FFC700"/>
<stop offset="0.598958" stop-color="#FFDE30"/>
<stop offset="1" stop-color="#FFD028"/>
</linearGradient>
<linearGradient id="paint1_linear" x1="26.6923" y1="-1" x2="26.6923" y2="54.3846" gradientUnits="userSpaceOnUse">
<stop stop-color="#D57F00"/>
<stop offset="1" stop-color="#E65454"/>
</linearGradient>
</defs>
</svg>
