<svg width="56" height="56" viewBox="0 0 56 56" fill="none" xmlns="http://www.w3.org/2000/svg">
<path d="M25.5928 2.24942C26.7592 1.10659 28.6254 1.10658 29.7919 2.24942L32.3613 4.76693C33.1113 5.50173 34.1908 5.79099 35.2077 5.52961L38.6916 4.63412C40.2732 4.2276 41.8894 5.16073 42.3282 6.73366L43.2946 10.1986C43.5767 11.2099 44.367 12.0002 45.3783 12.2823L48.8433 13.2488C50.4162 13.6875 51.3493 15.3037 50.9428 16.8853L50.0473 20.3693C49.786 21.3861 50.0752 22.4657 50.81 23.2156L53.3275 25.7851C54.4704 26.9515 54.4704 28.8178 53.3275 29.9842L50.81 32.5536C50.0752 33.3036 49.786 34.3831 50.0473 35.4L50.9428 38.884C51.3493 40.4655 50.4162 42.0818 48.8433 42.5205L45.3783 43.487C44.367 43.769 43.5767 44.5593 43.2946 45.5706L42.3282 49.0356C41.8894 50.6085 40.2732 51.5417 38.6917 51.1351L35.2077 50.2396C34.1908 49.9783 33.1113 50.2675 32.3613 51.0023L29.7919 53.5198C28.6254 54.6627 26.7592 54.6627 25.5928 53.5198L23.0233 51.0023C22.2733 50.2675 21.1938 49.9783 20.1769 50.2396L16.693 51.1351C15.1114 51.5417 13.4952 50.6085 13.0564 49.0356L12.09 45.5706C11.8079 44.5593 11.0176 43.769 10.0063 43.487L6.54134 42.5205C4.96841 42.0818 4.03528 40.4655 4.44179 38.884L5.33729 35.4C5.59866 34.3831 5.3094 33.3036 4.57461 32.5536L2.0571 29.9842C0.914263 28.8178 0.914262 26.9515 2.0571 25.7851L4.57461 23.2156C5.3094 22.4657 5.59866 21.3861 5.33729 20.3693L4.44179 16.8853C4.03528 15.3037 4.9684 13.6875 6.54134 13.2488L10.0063 12.2823C11.0176 12.0002 11.8079 11.2099 12.09 10.1986L13.0564 6.73367C13.4952 5.16073 15.1114 4.2276 16.693 4.63412L20.1769 5.52961C21.1938 5.79099 22.2733 5.50173 23.0233 4.76693L25.5928 2.24942Z" fill="url(#paint0_linear)"/>
<path d="M25.5928 2.24942C26.7592 1.10659 28.6254 1.10658 29.7919 2.24942L32.3613 4.76693C33.1113 5.50173 34.1908 5.79099 35.2077 5.52961L38.6916 4.63412C40.2732 4.2276 41.8894 5.16073 42.3282 6.73366L43.2946 10.1986C43.5767 11.2099 44.367 12.0002 45.3783 12.2823L48.8433 13.2488C50.4162 13.6875 51.3493 15.3037 50.9428 16.8853L50.0473 20.3693C49.786 21.3861 50.0752 22.4657 50.81 23.2156L53.3275 25.7851C54.4704 26.9515 54.4704 28.8178 53.3275 29.9842L50.81 32.5536C50.0752 33.3036 49.786 34.3831 50.0473 35.4L50.9428 38.884C51.3493 40.4655 50.4162 42.0818 48.8433 42.5205L45.3783 43.487C44.367 43.769 43.5767 44.5593 43.2946 45.5706L42.3282 49.0356C41.8894 50.6085 40.2732 51.5417 38.6917 51.1351L35.2077 50.2396C34.1908 49.9783 33.1113 50.2675 32.3613 51.0023L29.7919 53.5198C28.6254 54.6627 26.7592 54.6627 25.5928 53.5198L23.0233 51.0023C22.2733 50.2675 21.1938 49.9783 20.1769 50.2396L16.693 51.1351C15.1114 51.5417 13.4952 50.6085 13.0564 49.0356L12.09 45.5706C11.8079 44.5593 11.0176 43.769 10.0063 43.487L6.54134 42.5205C4.96841 42.0818 4.03528 40.4655 4.44179 38.884L5.33729 35.4C5.59866 34.3831 5.3094 33.3036 4.57461 32.5536L2.0571 29.9842C0.914263 28.8178 0.914262 26.9515 2.0571 25.7851L4.57461 23.2156C5.3094 22.4657 5.59866 21.3861 5.33729 20.3693L4.44179 16.8853C4.03528 15.3037 4.9684 13.6875 6.54134 13.2488L10.0063 12.2823C11.0176 12.0002 11.8079 11.2099 12.09 10.1986L13.0564 6.73367C13.4952 5.16073 15.1114 4.2276 16.693 4.63412L20.1769 5.52961C21.1938 5.79099 22.2733 5.50173 23.0233 4.76693L25.5928 2.24942Z" fill="url(#paint1_linear)"/>
<defs>
<linearGradient id="paint0_linear" x1="4" y1="14" x2="43.5" y2="47" gradientUnits="userSpaceOnUse">
<stop offset="0.0404352" stop-color="#FFC700"/>
<stop offset="0.598958" stop-color="#FFDE30"/>
<stop offset="1" stop-color="#FFD028"/>
</linearGradient>
<linearGradient id="paint1_linear" x1="10.6509" y1="3.38745" x2="41.5365" y2="51.3156" gradientUnits="userSpaceOnUse">
<stop stop-color="#F0FDF6"/>
<stop offset="1" stop-color="#BED0EE"/>
</linearGradient>
</defs>
</svg>
