<svg width="185" height="24" fill="none" xmlns="http://www.w3.org/2000/svg"><path d="M15.53 1.047v18.096h-5.357V5.05H6.04v14.092H.683V1.047H15.53zm10.093-.52c2.704 0 4.784.84 6.24 2.522 1.474 1.664 2.21 4.004 2.21 7.02 0 1.958-.329 3.657-.988 5.096-.658 1.439-1.62 2.548-2.886 3.328-1.265.78-2.79 1.17-4.576 1.17-2.704 0-4.792-.84-6.266-2.522-1.456-1.699-2.184-4.056-2.184-7.072 0-1.959.33-3.649.988-5.07.659-1.439 1.621-2.54 2.886-3.302 1.266-.78 2.791-1.17 4.576-1.17zm0 3.796c-1.022 0-1.759.442-2.21 1.326-.45.867-.676 2.34-.676 4.42s.226 3.57.676 4.472c.451.884 1.188 1.326 2.21 1.326 1.04 0 1.777-.442 2.21-1.326.451-.884.676-2.375.676-4.472 0-2.08-.225-3.553-.676-4.42-.45-.884-1.187-1.326-2.21-1.326zm14.792 15.34c-1.474 0-2.739-.217-3.796-.65a8.177 8.177 0 01-2.782-1.95l2.782-2.704c.589.52 1.144.901 1.664 1.144.52.242 1.092.364 1.716.364.78 0 1.395-.182 1.846-.546.45-.364.676-.902.676-1.612 0-.71-.234-1.257-.702-1.638-.468-.399-1.162-.598-2.08-.598h-2.002l.598-3.666h1.508c.745 0 1.308-.156 1.69-.468.381-.33.572-.78.572-1.352 0-.52-.156-.936-.468-1.248-.312-.312-.806-.468-1.482-.468-1.075 0-2.184.45-3.328 1.352l-2.392-2.6C36.185 1.359 38.36.527 40.96.527c1.317 0 2.47.208 3.458.624 1.005.399 1.776.97 2.314 1.716a4.01 4.01 0 01.832 2.496c0 1.04-.356 1.933-1.066 2.678-.694.745-1.777 1.265-3.25 1.56 1.577.173 2.773.632 3.588 1.378.832.745 1.248 1.768 1.248 3.068 0 1.144-.321 2.14-.962 2.99-.642.85-1.543 1.5-2.704 1.95-1.144.45-2.479.676-4.004.676zm24.875-4.524v8.554h-3.562l-.52-4.55H52.16l-.52 4.55h-3.562v-8.554h1.378c.45-.59.832-1.473 1.144-2.652.312-1.196.624-3.025.936-5.486l.728-5.954h11.362v14.092h1.664zm-6.812-10.27h-1.742l-.13 1.482c-.243 2.513-.598 4.437-1.066 5.772-.468 1.335-1.11 2.34-1.924 3.016h4.862V4.869zm14.315-3.822c2.48 0 4.403.52 5.772 1.56 1.387 1.023 2.08 2.53 2.08 4.524 0 2.063-.658 3.64-1.976 4.732-1.3 1.092-3.059 1.638-5.278 1.638h-1.768v5.642h-5.356V1.047h6.526zm.078 8.684c1.543 0 2.314-.867 2.314-2.6 0-1.577-.823-2.366-2.47-2.366h-1.092V9.73h1.248zm17.232 9.412l-.702-3.51h-4.29l-.676 3.51h-5.59l5.278-18.096h6.396l5.252 18.096h-5.668zm-4.238-7.254h2.782L87.243 4.79l-1.378 7.098zm20.997-2.34c1.196.243 2.167.693 2.912 1.352.746.641 1.118 1.603 1.118 2.886 0 1.993-.728 3.388-2.184 4.186-1.438.78-3.484 1.17-6.136 1.17h-6.344V1.047h5.642c2.687 0 4.732.364 6.136 1.092 1.422.71 2.132 1.907 2.132 3.588 0 1.075-.312 1.924-.936 2.548-.624.607-1.404 1.031-2.34 1.274zm-5.278-4.836V8.04h.91c.815 0 1.387-.13 1.716-.39.33-.277.494-.737.494-1.378 0-.537-.182-.927-.546-1.17-.346-.26-.944-.39-1.794-.39h-.78zm1.04 10.66c.902 0 1.586-.139 2.054-.416.468-.277.702-.789.702-1.534 0-.694-.216-1.196-.65-1.508-.416-.33-1.048-.494-1.898-.494h-1.248v3.952h1.04zm24.52-14.326v18.096h-5.356V4.999h-2.574l-.598 5.096c-.242 2.028-.572 3.675-.988 4.94-.398 1.265-1.014 2.288-1.846 3.068-.814.78-1.941 1.3-3.38 1.56l-1.248-3.64c.607-.26 1.058-.615 1.352-1.066.312-.468.538-1.066.676-1.794.156-.728.33-1.89.52-3.484l1.04-8.632h12.402zm15.843 0v18.096h-5.356V12.98h-1.222l-2.704 6.162h-5.824l3.848-7.098c-1.006-.45-1.76-1.075-2.262-1.872-.503-.815-.754-1.872-.754-3.172 0-2.028.641-3.527 1.924-4.498 1.282-.97 3.215-1.456 5.798-1.456h6.552zm-5.356 8.346v-4.68h-.936c-.763 0-1.361.217-1.794.65-.416.416-.624 1.014-.624 1.794 0 .71.199 1.265.598 1.664.416.381.953.572 1.612.572h1.144zm19.483-8.346l-.546 3.718h-5.98v3.38h5.252v3.614h-5.252v3.64h6.396v3.744h-11.752V1.047h11.882zm20.684 18.096h-5.278l-.13-6.422a72.822 72.822 0 01-.026-2.262c0-1.768.069-3.475.208-5.122l-2.132 11.986h-5.07l-2.288-11.986c.225 2.41.338 4.472.338 6.188v1.17l-.13 6.448h-5.278l1.3-18.096h6.604l2.08 11.726 1.872-11.726h6.63l1.3 18.096zm6.214-18.096l-.676 11.076h-4.056l-.676-11.076h5.408zm-2.704 13.26a2.54 2.54 0 011.898.806c.52.52.78 1.144.78 1.872 0 .728-.26 1.36-.78 1.898-.52.52-1.152.78-1.898.78-.745 0-1.378-.26-1.898-.78-.52-.537-.78-1.17-.78-1.898s.26-1.352.78-1.872a2.542 2.542 0 011.898-.806z" fill="url(#paint0_linear)"/><defs><linearGradient id="paint0_linear" x1="32.362" y1="4.085" x2="82.684" y2="41.935" gradientUnits="userSpaceOnUse"><stop offset=".04" stop-color="#FFC700"/><stop offset=".406" stop-color="#FFA800"/><stop offset="1" stop-color="#FFD600"/></linearGradient></defs></svg>