<svg width="30" height="30" viewBox="0 0 30 30" fill="none" xmlns="http://www.w3.org/2000/svg">
<circle cx="15" cy="15" r="15" fill="#535353"/>
<g clip-path="url(#clip0_1_2005)">
<path d="M16.874 19.9619C16.874 21.5322 16.8701 23.0986 16.8779 24.6689C16.8779 24.8408 16.8311 24.8877 16.6592 24.8838C15.3232 24.876 13.9912 24.876 12.6553 24.8838C12.4717 24.8838 12.4131 24.8408 12.4131 24.6494C12.4209 21.5361 12.417 18.4268 12.417 15.3135C12.417 15.001 12.4521 15.04 12.1318 15.0361C11.5654 15.0361 10.999 15.0322 10.4326 15.04C10.2959 15.04 10.2568 14.9971 10.2568 14.8604C10.2607 13.8721 10.2607 12.8799 10.2568 11.8916C10.2568 11.7549 10.2959 11.7119 10.4326 11.7158C11.0264 11.7236 11.6162 11.7119 12.21 11.7236C12.3701 11.7275 12.4209 11.6846 12.4209 11.5166C12.4131 10.6846 12.4209 9.84864 12.417 9.01661C12.4131 8.3252 12.5186 7.65723 12.8662 7.04786C13.2412 6.38379 13.8037 5.92676 14.499 5.62989C15.085 5.37989 15.7021 5.2627 16.335 5.22754C17.5889 5.15723 18.8467 5.21582 20.1006 5.19239C20.2412 5.18848 20.2764 5.23926 20.2764 5.37207C20.2725 6.39942 20.2725 7.43067 20.2764 8.45801C20.2764 8.61426 20.2178 8.6377 20.0811 8.6377C19.3584 8.63379 18.6357 8.63379 17.9131 8.63379C17.3115 8.63379 16.8779 9.06739 16.8779 9.66114C16.8779 10.2744 16.8857 10.8838 16.874 11.4971C16.8701 11.6729 16.9287 11.7158 17.0967 11.7158C18.085 11.708 19.0771 11.7158 20.0654 11.708C20.2295 11.708 20.2842 11.7549 20.2646 11.9189C20.2061 12.4229 20.1553 12.9268 20.1006 13.4307C20.0498 13.915 19.9639 14.3955 19.8857 14.876C19.8623 15.0127 19.8193 15.0439 19.6943 15.0439C18.8467 15.04 18.0029 15.04 17.1553 15.0439C16.8232 15.0439 16.8701 15.001 16.8701 15.3369C16.874 16.876 16.874 18.4189 16.874 19.9619Z" fill="#A7A7A7"/>
</g>
<defs>
<clipPath id="clip0_1_2005">
<rect width="20" height="20" fill="white" transform="translate(4.99902 5.00098)"/>
</clipPath>
</defs>
</svg>
