<svg width="30" height="30" viewBox="0 0 30 30" fill="none" xmlns="http://www.w3.org/2000/svg">
<circle cx="15" cy="15" r="15" fill="#535353"/>
<g clip-path="url(#clip0_1_2015)">
<path d="M24.7275 15.04C24.7275 16.4385 24.7314 17.8369 24.7275 19.2393C24.7197 21.2705 23.7744 22.7744 22.0869 23.8369C21.0986 24.4541 20.001 24.7275 18.8369 24.7275C16.29 24.7275 13.7471 24.7393 11.2002 24.7236C9.43066 24.7119 7.90723 24.0869 6.7002 22.7744C5.9541 21.9619 5.50879 21.0049 5.37988 19.8994C5.35254 19.665 5.34863 19.4346 5.34863 19.2002C5.34863 16.415 5.34473 13.6299 5.34863 10.8447C5.36035 8.80958 6.30566 7.30567 7.99316 6.24317C8.98926 5.62208 10.0908 5.35255 11.2627 5.35255C13.8018 5.35255 16.3408 5.34083 18.8799 5.35645C20.6572 5.36817 22.1846 5.99708 23.3916 7.31739C24.1299 8.12598 24.5713 9.08302 24.6963 10.1768C24.7471 10.6065 24.7236 11.0361 24.7275 11.4619C24.7314 12.6572 24.7275 13.8486 24.7275 15.04ZM6.79785 15.04C6.79785 16.4736 6.79395 17.9033 6.79785 19.3369C6.80176 20.3213 7.16113 21.169 7.83301 21.8721C8.73535 22.8135 9.86035 23.2705 11.1533 23.2783C13.7197 23.294 16.2822 23.2822 18.8486 23.2822C19.6768 23.2822 20.4658 23.1025 21.1846 22.6885C22.5283 21.919 23.2861 20.7861 23.2861 19.2002C23.2861 16.3799 23.2861 13.5635 23.2861 10.7432C23.2861 9.76661 22.9307 8.92286 22.2627 8.22364C21.3682 7.27833 20.2393 6.81348 18.9502 6.80567C16.3564 6.78614 13.7666 6.79786 11.1729 6.79786C10.3643 6.79786 9.59863 6.98926 8.89551 7.3877C7.55566 8.16114 6.79395 9.29395 6.79785 10.8799C6.79785 12.2666 6.79785 13.6533 6.79785 15.04Z" fill="#A7A7A7"/>
<path d="M15.0518 19.1807C12.5283 19.1807 10.5049 17.165 10.5088 14.6494C10.5127 12.2002 12.5635 10.1924 15.0674 10.1963C17.583 10.1963 19.6143 12.2158 19.6104 14.708C19.6064 17.1768 17.5635 19.1807 15.0518 19.1807ZM15.0518 17.7354C16.7666 17.7354 18.165 16.3721 18.165 14.6963C18.165 13.0127 16.7783 11.6416 15.0674 11.6416C13.3525 11.6416 11.9541 13.0049 11.9541 14.6807C11.9541 16.3643 13.3408 17.7354 15.0518 17.7354Z" fill="#A7A7A7"/>
<path d="M19.1807 9.8291C19.1807 9.27441 19.6064 8.8291 20.1377 8.8291C20.6689 8.8291 21.0947 9.27832 21.0947 9.8291C21.0947 10.3721 20.6689 10.8174 20.1455 10.8213C19.6143 10.8252 19.1807 10.3838 19.1807 9.8291Z" fill="#A7A7A7"/>
</g>
<defs>
<clipPath id="clip0_1_2015">
<rect width="20" height="20" fill="white" transform="translate(5.00098 5.00098)"/>
</clipPath>
</defs>
</svg>
