<svg width="30" height="30" viewBox="0 0 30 30" fill="none" xmlns="http://www.w3.org/2000/svg">
<circle cx="15" cy="15" r="15" fill="#535353"/>
<g clip-path="url(#clip0_1_2022)">
<path d="M5.04004 7.07128C5.1377 7.07128 5.10645 6.99315 5.11426 6.94237C5.23145 6.13378 5.64941 5.54394 6.43066 5.29003C7.05957 5.0869 7.71582 5.11034 8.30176 5.44628C8.66895 5.66112 8.9502 5.99315 9.09863 6.40331C9.20801 6.708 9.29004 7.0244 9.25488 7.34862C9.17285 8.16503 8.80566 8.84472 7.90723 9.16112C7.22754 9.3955 6.56738 9.30956 5.94629 8.93847C5.90723 8.79784 5.80957 8.72753 5.66895 8.70409C5.66504 8.6494 5.65723 8.59472 5.58301 8.59472C5.30176 8.28222 5.16895 7.90331 5.11426 7.49315C5.10645 7.44628 5.12598 7.37987 5.04004 7.38378C5.04004 7.27831 5.04004 7.17675 5.04004 7.07128Z" fill="#A7A7A7"/>
<path d="M15.79 13.4424C15.958 13.3408 16.0244 13.1924 16.1104 13.0713C16.5361 12.4853 17.0635 12.0322 17.7197 11.708C18.6182 11.2666 19.5713 11.2197 20.5322 11.3096C21.2705 11.376 21.9697 11.626 22.6064 12.0322C23.3643 12.5166 23.9072 13.1885 24.2783 13.9931C24.5049 14.4814 24.6533 15.001 24.7432 15.54C24.8252 16.0439 24.8877 16.54 24.8877 17.0517C24.8838 19.5908 24.8838 22.1299 24.8916 24.6689C24.8916 24.8486 24.8408 24.8955 24.665 24.8916C23.4658 24.8838 22.2705 24.8838 21.0713 24.8916C20.8955 24.8916 20.8564 24.8408 20.8564 24.6728C20.8604 22.2783 20.8721 19.8799 20.8525 17.4853C20.8486 16.9424 20.7744 16.4033 20.4932 15.9072C20.2432 15.4697 19.8955 15.1572 19.4385 14.9775C18.8252 14.7353 18.1924 14.6885 17.5518 14.8681C16.9033 15.0478 16.4541 15.4736 16.1338 16.0517C15.9541 16.376 15.8916 16.7158 15.8408 17.0791C15.79 17.4697 15.7979 17.8525 15.7979 18.2392C15.79 20.376 15.79 22.5088 15.7979 24.6455C15.7979 24.8408 15.751 24.8955 15.5518 24.8916C14.3682 24.8799 13.1807 24.8838 11.9971 24.8916C11.833 24.8916 11.7744 24.8408 11.7783 24.6885C11.7822 24.5791 11.79 24.4697 11.79 24.3603C11.79 20.2392 11.7939 16.1181 11.7861 11.9971C11.7861 11.8252 11.8213 11.7627 12.0088 11.7627C13.2002 11.7705 14.3916 11.7705 15.583 11.7627C15.7432 11.7627 15.7979 11.8017 15.7939 11.9697C15.7822 12.4463 15.79 12.9267 15.79 13.4424Z" fill="#A7A7A7"/>
<path d="M9.25879 11.8799C9.25879 12.0166 9.2627 12.1533 9.2627 12.29C9.2627 16.4033 9.2627 20.5166 9.2627 24.6338C9.2627 24.8838 9.2627 24.8838 9.00879 24.8838C7.7666 24.8838 6.52051 24.8838 5.27832 24.8838C5.27441 24.7861 5.27051 24.6885 5.27051 24.5908C5.27051 21.5127 5.27051 18.4385 5.27051 15.3604C5.27051 14.2627 5.27441 13.1611 5.2666 12.0635C5.2666 11.9229 5.30176 11.8721 5.4502 11.8721C6.71973 11.8799 7.98926 11.876 9.25879 11.8799Z" fill="#A7A7A7"/>
<path d="M9.25879 11.8799C7.98926 11.8799 6.72363 11.8799 5.4541 11.872C5.30566 11.872 5.27051 11.9189 5.27051 12.0634C5.27441 13.1611 5.27051 14.2588 5.27051 15.3603C5.27051 18.4384 5.27051 21.5127 5.27051 24.5908C5.27051 24.6884 5.27441 24.7861 5.27832 24.8838C5.21191 24.8877 5.16113 24.872 5.16113 24.7939C5.16113 24.7431 5.16113 24.6884 5.16113 24.6377C5.16113 20.4658 5.16113 16.2978 5.16113 12.1259C5.16113 11.8291 5.18848 11.8017 5.48145 11.8017C6.67285 11.8017 7.86426 11.8017 9.05176 11.8056C9.12207 11.8017 9.22754 11.747 9.25879 11.8799Z" fill="#E0E0E0"/>
<path d="M5.66895 8.70801C5.80957 8.73145 5.90723 8.80176 5.94629 8.94238C5.8252 8.89551 5.73535 8.81738 5.66895 8.70801Z" fill="#E0E0E0"/>
<path d="M5.58301 8.59863C5.65723 8.59863 5.66113 8.65332 5.66895 8.70801C5.58691 8.71191 5.58691 8.65723 5.58301 8.59863Z" fill="#E0E0E0"/>
</g>
<defs>
<clipPath id="clip0_1_2022">
<rect width="20" height="20" fill="white" transform="translate(5.00098 5.00098)"/>
</clipPath>
</defs>
</svg>
