<svg width="30" height="30" viewBox="0 0 30 30" fill="none" xmlns="http://www.w3.org/2000/svg">
<circle cx="15" cy="15" r="15" fill="#535353"/>
<g clip-path="url(#clip0_1_2010)">
<path d="M5.13574 21.4619C7.32324 21.6611 9.28027 21.1143 11.0537 19.7861C10.7803 19.7236 10.5303 19.7236 10.292 19.665C8.89746 19.333 7.93262 18.4932 7.36621 17.1846C7.33887 17.1182 7.26855 17.0361 7.33105 16.9697C7.37793 16.9189 7.46777 16.9619 7.53418 16.9697C8.02637 17.0205 8.51855 17.0049 9.00293 16.8916C9.01074 16.8057 8.94824 16.8135 8.90137 16.7978C7.70215 16.4775 6.83105 15.7627 6.26855 14.6572C6.01074 14.1494 5.87012 13.6182 5.85449 13.0478C5.84668 12.8252 5.8584 12.8213 6.06543 12.9189C6.55762 13.1533 7.07324 13.2861 7.66309 13.3135C7.39355 13.0947 7.15137 12.9033 6.94434 12.6728C6.31543 11.9736 5.96387 11.1572 5.88965 10.2158C5.83105 9.45019 5.99121 8.73535 6.32324 8.04785C6.39746 7.8955 6.46387 7.90722 6.55762 8.0205C7.20996 8.81738 7.97168 9.49316 8.81152 10.0791C9.43652 10.5166 10.1006 10.8799 10.7998 11.1885C11.7217 11.5908 12.6787 11.8603 13.6709 12.0205C13.9834 12.0713 14.3037 12.083 14.6201 12.1143C14.7803 12.1299 14.8232 12.083 14.792 11.9189C14.6318 11.0752 14.7412 10.2549 15.1084 9.48535C15.7373 8.17285 16.792 7.37597 18.2256 7.16503C19.499 6.97753 20.6436 7.34082 21.5928 8.23535C21.7373 8.37207 21.8662 8.40722 22.0615 8.35644C22.8271 8.16113 23.5576 7.88378 24.2451 7.49316C24.2646 7.48144 24.2881 7.47753 24.3584 7.45019C24.0381 8.3916 23.4717 9.08691 22.6787 9.61816C22.8623 9.65332 23.4053 9.55566 23.7803 9.43847C24.1396 9.32519 24.499 9.22363 24.8428 9.07128C24.8896 9.12207 24.8467 9.14941 24.8271 9.17675C24.3701 9.82128 23.8467 10.4033 23.2217 10.8877C23.1357 10.9541 23.0537 11.0283 22.9639 11.0908C22.8975 11.1377 22.8936 11.1963 22.8975 11.2627C22.9248 11.9736 22.874 12.6807 22.7725 13.3799C22.667 14.0947 22.4873 14.79 22.249 15.4736C22.0537 16.0322 21.8232 16.5752 21.5498 17.1025C20.874 18.3994 19.9951 19.54 18.8975 20.5127C17.7295 21.5439 16.4014 22.2861 14.917 22.7471C13.9912 23.0361 13.042 23.2041 12.0693 23.2549C11.3193 23.2939 10.5732 23.2822 9.83105 23.1885C8.76855 23.0596 7.74512 22.7705 6.76074 22.3486C6.25684 22.1338 5.78027 21.876 5.30371 21.6064C5.2373 21.5791 5.1709 21.5478 5.13574 21.4619Z" fill="#A7A7A7"/>
</g>
<defs>
<clipPath id="clip0_1_2010">
<rect width="20" height="20" fill="white" transform="translate(4.99902 5.00098)"/>
</clipPath>
</defs>
</svg>
