<svg width="30" height="32" viewBox="0 0 30 32" fill="none" xmlns="http://www.w3.org/2000/svg">
<g clip-path="url(#clip0_4_1677)">
<ellipse cx="15" cy="16.7325" rx="15" ry="15.2674" fill="#0819A8"/>
<path d="M25.0391 7.33984C25.7734 8.10547 26.3477 9.03125 26.7617 10.1172C27.1758 11.1953 27.3828 12.3906 27.3828 13.7031C27.3828 15.0234 27.1719 16.2227 26.75 17.3008C26.3281 18.3789 25.7422 19.2969 24.9922 20.0547C24.2656 20.8047 23.4219 21.3828 22.4609 21.7891C21.5 22.1953 20.4766 22.3984 19.3906 22.3984C18.2344 22.3984 17.1641 22.1836 16.1797 21.7539C15.2031 21.3164 14.3633 20.7109 13.6602 19.9375C12.957 19.1797 12.4023 18.2617 11.9961 17.1836C11.5977 16.0977 11.3984 14.9375 11.3984 13.7031C11.3984 12.3516 11.6094 11.1484 12.0312 10.0938C12.4531 9.03125 13.0352 8.11328 13.7773 7.33984C14.5117 6.57422 15.3633 5.98828 16.332 5.58203C17.3086 5.17578 18.3281 4.97266 19.3906 4.97266C20.4922 4.97266 21.5312 5.17969 22.5078 5.59375C23.4844 6.00781 24.3281 6.58984 25.0391 7.33984ZM23.293 19.1289C23.7305 18.418 24.0469 17.6133 24.2422 16.7148C24.4453 15.8164 24.5469 14.8125 24.5469 13.7031C24.5469 12.5625 24.4336 11.5156 24.207 10.5625C23.9883 9.60938 23.6641 8.79688 23.2344 8.125C22.8047 7.46094 22.2656 6.94531 21.6172 6.57812C20.9688 6.20312 20.2266 6.01562 19.3906 6.01562C18.4531 6.01562 17.6562 6.23047 17 6.66016C16.3438 7.08984 15.8086 7.66406 15.3945 8.38281C15.0039 9.07031 14.7109 9.875 14.5156 10.7969C14.3281 11.7188 14.2344 12.6875 14.2344 13.7031C14.2344 14.8281 14.3359 15.8438 14.5391 16.75C14.7422 17.6562 15.0625 18.4609 15.5 19.1641C15.9219 19.8516 16.4531 20.3906 17.0938 20.7812C17.7344 21.1641 18.5 21.3555 19.3906 21.3555C20.2266 21.3555 20.9805 21.1602 21.6523 20.7695C22.3242 20.3789 22.8711 19.832 23.293 19.1289Z" fill="#9A8F8F"/>
<path d="M17.0454 14.9717H16.2368C16.1665 14.6904 16.0376 14.3584 15.8501 13.9756C15.6704 13.585 15.4673 13.2178 15.2407 12.874C15.0063 12.5146 14.7485 12.2021 14.4673 11.9365C14.1938 11.6631 13.9282 11.5068 13.6704 11.4678C13.4282 11.4365 13.1235 11.4131 12.7563 11.3975C12.3892 11.3818 12.0493 11.374 11.7368 11.374H11.0571V24.6748C11.0571 24.9326 11.1118 25.1709 11.2212 25.3896C11.3306 25.6006 11.522 25.7646 11.7954 25.8818C11.936 25.9365 12.229 26.0107 12.6743 26.1045C13.1274 26.1982 13.479 26.249 13.729 26.2568V27.0889H5.87744V26.2568C6.09619 26.2412 6.42822 26.21 6.87354 26.1631C7.32666 26.1162 7.63916 26.0576 7.81104 25.9873C8.06885 25.8857 8.25635 25.7412 8.37354 25.5537C8.49854 25.3584 8.56104 25.1006 8.56104 24.7803V11.374H7.88135C7.63916 11.374 7.33838 11.3818 6.979 11.3975C6.61963 11.4053 6.27588 11.4287 5.94775 11.4678C5.68994 11.499 5.42041 11.6553 5.13916 11.9365C4.86572 12.21 4.61182 12.5225 4.37744 12.874C4.14307 13.2256 3.93604 13.6006 3.75635 13.999C3.57666 14.3896 3.45166 14.7139 3.38135 14.9717H2.56104V10.46H17.0454V14.9717Z" fill="white"/>
</g>
<defs>
<clipPath id="clip0_4_1677">
<rect width="30" height="32" fill="white"/>
</clipPath>
</defs>
</svg>
