<svg version="1.1" id="Layer_1" xmlns="http://www.w3.org/2000/svg" x="0" y="0" viewBox="0 0 275 137" xml:space="preserve"><style>.st2{fill:#1d1d1b}</style><g id="Layer_2_1_"><path d="M265 101l-106.6 7.7c-1.8.1-3.3-1.2-3.4-3l-1-14.4c-.1-1.8 1.2-3.3 3-3.4l106.6-7.7c1.8-.1 3.3 1.2 3.4 3l1 14.4c.1 1.7-1.3 3.3-3 3.4z" fill="#020202"/><path d="M174.2 103.4l-1.2-3-4.7.3-.7 3.1-2.9.2 3.6-13.3 3.3-.2 5.5 12.6-2.9.3zm-2-5.3c-1.1-2.7-1.7-4.2-1.8-4.6l-.3-.9c-.1.8-.6 2.7-1.3 5.7l3.4-.2zm14.7-4.6c.1 1.4-.2 2.5-1.1 3.3-.8.8-2 1.3-3.6 1.4l-1.2.1.3 4.6-2.7.2-1-12.9 4.1-.3c1.5-.1 2.8.1 3.6.7 1 .6 1.5 1.6 1.6 2.9zm-6 2.5l.9-.1c.8-.1 1.4-.3 1.8-.6.4-.4.6-.9.5-1.5s-.3-1.1-.6-1.4c-.4-.3-.9-.4-1.7-.3l-1.2.1.3 3.8zm17.3-3.3c.1 1.4-.2 2.5-1.1 3.3-.8.8-2 1.3-3.6 1.4l-1.2.1.3 4.6-2.7.2-1-12.9 4.1-.3c1.5-.1 2.8.1 3.6.7 1.1.5 1.5 1.5 1.6 2.9zm-6 2.4l.9-.1c.8-.1 1.4-.3 1.8-.6.4-.4.6-.9.5-1.5s-.3-1.1-.6-1.4c-.4-.3-.9-.4-1.7-.3l-1.2.1.3 3.8zm11.5 1.1l.4 4.9-2.7.2-1-12.9 3.7-.3c1.7-.1 3.1.1 3.9.7.9.6 1.4 1.5 1.5 2.8.1.7-.1 1.4-.5 2.1s-.9 1.1-1.7 1.5c2.2 2.7 3.5 4.5 4.2 5.3l-3 .2-3.4-4.7-1.4.2zm-.2-2.2l.9-.1c.9-.1 1.5-.3 1.9-.6.4-.3.6-.8.5-1.4s-.3-1-.7-1.3c-.4-.2-1.1-.3-2-.2l-.8.1.2 3.5zm20.9-.9c.2 2.1-.2 3.8-1.2 5s-2.4 1.9-4.4 2.1-3.5-.3-4.7-1.4c-1.1-1.1-1.8-2.7-1.9-4.8-.2-2.1.2-3.8 1.2-5s2.5-1.9 4.4-2c2-.2 3.5.3 4.7 1.4 1.1 1 1.7 2.6 1.9 4.7zm-9.4.7c.1 1.4.5 2.5 1.1 3.2s1.4 1 2.5.9c2.2-.2 3.1-1.7 2.9-4.6s-1.4-4.3-3.6-4.1c-1.1.1-1.9.5-2.4 1.3-.4.8-.6 1.9-.5 3.3zm18.9-7.9l2.7-.2-3.4 13.2-3 .2-5.2-12.5 2.7-.2 3 7.5c.2.5.3 1 .5 1.5.2.6.3 1 .4 1.2 0-.5.2-1.5.5-2.9l1.8-7.8zm12.7 12l-7.4.6-1-12.9 7.4-.6.2 2.2-4.7.3.2 2.8 4.3-.3.2 2.2-4.3.3.2 3.3 4.7-.3.2 2.4zm12.9-7.5c.2 2.1-.3 3.8-1.4 5s-2.8 1.9-5.1 2.1l-3.6.3-1-12.9 4-.3c2.1-.2 3.8.3 5 1.3s2 2.5 2.1 4.5zm-2.8.3c-.2-2.8-1.5-4.1-4-3.9l-1.4.1.6 8.4 1.2-.1c2.6-.2 3.8-1.7 3.6-4.5z" fill="#fcfcfc"/></g><g id="vegas_slots_online"><path class="st2" d="M8.9 40.3h8.8l-2.9 34.3s3.3.1 5.1-3.7c1.8-3.8 2.9-30.7 2.9-30.7h6.6l-1.5 24.1s-.2 6.6-4.4 10.2c-4.2 3.7-8 3.7-8 3.7H7.4l2.9-34.3H8.1l.8-3.6zm34.6 9.5l-.2 2.9h-5.8s-.6-.1-1.5.7c-.8.8-.7 1.5-.7 1.5l-.7 8H41l-.4 2.9H34l-.3 6.6s.1 1.6.7 2.2c.7.6 2.2.7 2.2.7H41l-.2 2.9h-6.6s-3.9-.1-4.9-1.5c-1.1-1.5-.7-4.4-.7-4.4l.7-15.3s0-3.2 2.2-5.1c2.2-1.9 4.6-2.2 4.6-2.2l7.4.1zm16.7 0l-.2 2.9h-8.7s-1.4-.1-2.2.7c-.9.9-.7 2.9-.7 2.9l-.7 13.9s-.3 3.3.7 4.4 2.8.6 3.7 0c.7-.5.7-1.5.7-1.5l.7-10.2h5.1l-.7 13.9s-.2 6-2.2 8c-1.9 2-5.8 2.2-5.8 2.2h-5.1v-2.9h5.1s1.1-.2 1.6-1.5c.5-1.2.6-4.3.6-4.3H47s-1.4.1-2.9-1.5c-1.5-1.5-1.5-5.1-1.5-5.1l.7-15.3s.1-2.4 2.2-4.4c2.4-2.2 3.9-2.2 3.9-2.2h10.8z"/><path d="M75.4 54.9s-.8-2.3-2.2-3.7c-1.4-1.4-2.5-1.5-5.1-1.5s-3.6-.1-5.8 2.2c-2.3 2.3-2.2 5.8-2.2 5.8l-1.5 20.5h5.1l.7-10.2h5.1l-.7 7.3s0 1.5.7 2.2 1.5.7 1.5.7h3.7v-2.9H74l1.4-20.4zm-5.9 10.2h-4.4l.7-11s.5-1.5 2.2-1.5 2.2 1.4 2.2 2.2c0 .9-.7 10.3-.7 10.3z"/><path class="st2" d="M89.2 49.8v2.9h-4.4s-.8.1-1.5.7c-.7.7-.7 1.3-.7 2.2s.4 2.1 2.2 4.4c1.8 2.3 5.8 6.7 5.8 10.2 0 2.2-1.5 4.5-2.9 5.8-2.3 2.3-4.4 2.2-4.4 2.2h-6.6v-2.9h5.1s2.5.3 2.9-1.5c.8-3.3-.9-4.7-1.5-5.8-.6-1.1-3.4-4.4-4.4-5.8-.8-1.2-1.5-2.1-1.5-4.4 0-2.3.8-4.7 3.7-6.6 2.7-1.8 4.4-1.5 4.4-1.5l3.8.1zm18.3-9.5V44h-5.8s-1.4.3-2.3 1.2-1 1.7-1 2.9.5 2.7 2.9 5.8 7.7 7.9 7.7 13.5c0 3.2-2 5.9-3.8 7.7-3.1 3.1-5.7 3.1-5.7 3.1h-8.8v-3.7h6.6s3.4-.2 4-2.4c1.2-4.5-1.1-6.2-1.9-7.7-.8-1.5-4.5-5.9-5.8-7.7-1.1-1.6-2.2-2.5-2.2-5.5 0-3.1.6-6.3 4.4-8.8 3.6-2.3 6.4-2.2 6.4-2.2l5.3.1zm10.2 9.5l-1.5 25.6h6.6v2.9h-9.5s-.8.1-1.5-.7c-.8-1-.7-2.2-.7-2.2l1.5-22.6h-1.5v-2.9l6.6-.1z"/><path d="M135.5 49.8h-2.9c-3.6 0-6.7 2.9-6.9 6.6l-.8 15.3c-.2 3.6 2.6 6.6 6.2 6.6h2.9c3.6 0 6.7-2.9 6.9-6.6l.8-15.3c.2-3.7-2.6-6.6-6.2-6.6zm1.2 7.3l-1.5 15.3c-.2 2-.9 2.9-2.2 2.9h-1c-1.3 0-2-1.2-1.9-2.9l.7-14.6c.3-3.9 1.1-5.1 2.7-5.1h1c1.3 0 2.3.9 2.2 4.4z"/><path class="st2" d="M143.6 49.8H156l-.3 2.9H152l-2.2 25.6h-5.1l2.2-25.6h-3.7l.4-2.9zm24.5 0v2.9h-4.4s-.8.1-1.5.7c-.7.7-.7 1.3-.7 2.2s.4 2.1 2.2 4.4c1.8 2.3 5.8 6.7 5.8 10.2 0 2.2-1.5 4.5-2.9 5.8-2.3 2.3-4.4 2.2-4.4 2.2h-6.6v-2.9h5.1s2.7-.2 2.9-1.5c.6-3.4-.9-4.7-1.5-5.8-.6-1.1-3.4-4.4-4.4-5.8-.8-1.2-1.5-2.1-1.5-4.4 0-2.3.8-4.7 3.7-6.6 2.7-1.8 4.4-1.5 4.4-1.5l3.8.1z"/><path d="M186 40.3h-3.9c-4.9 0-9 3.9-9.3 8.8l-1.1 20.5c-.2 4.9 3.5 8.8 8.4 8.8h3.9c4.9 0 9-3.9 9.3-8.8l1.1-20.5c.3-4.9-3.5-8.8-8.4-8.8zm1.7 9.7l-2 20.5c-.2 2.6-1.2 3.9-2.9 3.9h-1.4c-1.7 0-2.7-1.6-2.6-3.9l1-19.5c.4-5.2 1.5-6.8 3.6-6.8h1.4c1.7 0 3 1.1 2.9 5.8z"/><path class="st2" d="M195.5 49.8h8.8s4-.4 5.4 1.5c1.5 1.8 1.5 5.1 1.5 5.1l-1.5 19h1.5v2.9h-3.7s-1.6.1-2.2-.7c-.8-1.1-.7-3.7-.7-3.7l1.5-18.3s-.3-.9-.7-1.5c-.8-1-3.7-.7-3.7-.7l-1.5 24.9h-5.1l1.5-25.6h-1.5l.4-2.9zm39.5 0h8.8s4-.4 5.4 1.5c1.5 1.8 1.5 5.1 1.5 5.1l-1.5 19h1.5v2.9H247s-1.6.1-2.2-.7c-.8-1.1-.7-3.7-.7-3.7l1.5-18.3s-.3-.9-.7-1.5c-.8-1-3.7-.7-3.7-.7l-1.5 24.9h-5.1l1.5-25.6h-1.5l.4-2.9zm-15 0l-1.5 25.6h6.6v2.9h-9.5s-.8.1-1.5-.7c-.8-1-.7-2.2-.7-2.2l1.5-22.6h-1.5v-2.9l6.6-.1zm8.7 0h5.1l-2.1 28.5h-5.1l2.1-28.5zm38.3 0l-.2 2.9H261s-.6-.1-1.5.7c-.8.8-.7 1.5-.7 1.5l-.7 8h6.6l-.4 2.9h-6.6l-.3 6.6s.1 1.6.7 2.2c.7.6 2.2.7 2.2.7h4.4l-.2 2.9h-6.6s-3.9-.1-4.9-1.5c-1.1-1.5-.7-4.4-.7-4.4L253 57s0-3.2 2.2-5.1c2.2-1.9 4.6-2.2 4.6-2.2l7.2.1z"/></g></svg>