<svg xmlns="http://www.w3.org/2000/svg" viewBox="0 0 275 137"><path d="M-2.4 0h278.5v137H-2.4V0z" fill="#080808"/><path d="M116.2 56.4c-2.6 0-4.5 1-5.9 2.9s-2.1 4.6-2.1 8c0 7.1 2.7 10.7 8 10.7 2.2 0 5-.6 8.2-1.7V82c-2.6 1.1-5.6 1.6-8.8 1.6-4.7 0-8.2-1.4-10.7-4.2-2.5-2.8-3.7-6.9-3.7-12.1 0-3.3.6-6.2 1.8-8.7 1.2-2.5 2.9-4.4 5.2-5.8 2.3-1.3 4.9-2 8-2s6.2.8 9.4 2.3l-2.2 5.5c-1.2-.6-2.4-1.1-3.6-1.5-1.2-.5-2.4-.7-3.6-.7zm28.2 26.8l-1.3-3.3h-.2c-1.1 1.4-2.3 2.4-3.5 2.9s-2.7.8-4.6.8c-2.3 0-4.2-.7-5.5-2s-2-3.3-2-5.7c0-2.6.9-4.5 2.7-5.7s4.6-1.9 8.2-2l4.2-.1V67c0-2.5-1.3-3.7-3.8-3.7-2 0-4.3.6-6.9 1.8l-2.2-4.5c2.8-1.5 5.9-2.2 9.4-2.2 3.3 0 5.8.7 7.5 2.1 1.8 1.4 2.6 3.6 2.6 6.5v16.3l-4.6-.1zm-2-11.3l-2.6.1c-1.9.1-3.4.4-4.3 1.1-.9.6-1.4 1.6-1.4 2.9 0 1.9 1.1 2.8 3.2 2.8 1.5 0 2.8-.4 3.7-1.3s1.4-2.1 1.4-3.5v-2.1zm22 6.4c1.2 0 2.6-.3 4.2-.8v5c-1.7.7-3.7 1.1-6.1 1.1-2.7 0-4.6-.7-5.8-2s-1.8-3.4-1.8-6.1V63.7h-3.2v-2.8l3.7-2.2 1.9-5.2h4.3v5.2h6.8v5h-6.8v11.8c0 .9.3 1.6.8 2.1s1.2.7 2 .7zm22.9 4.9l-1.3-3.3h-.2c-1.1 1.4-2.3 2.4-3.5 2.9s-2.7.8-4.6.8c-2.3 0-4.2-.7-5.5-2s-2-3.3-2-5.7c0-2.6.9-4.5 2.7-5.7s4.6-1.9 8.2-2l4.2-.1V67c0-2.5-1.3-3.7-3.8-3.7-2 0-4.2.6-6.9 1.8l-2.2-4.5c2.8-1.5 5.9-2.2 9.4-2.2 3.3 0 5.8.7 7.5 2.1s2.6 3.6 2.6 6.5v16.3l-4.6-.1zm-2-11.3l-2.6.1c-1.9.1-3.4.4-4.3 1.1-.9.6-1.4 1.6-1.4 2.9 0 1.9 1.1 2.8 3.2 2.8 1.5 0 2.8-.4 3.7-1.3s1.4-2.1 1.4-3.5v-2.1zm18.4 11.3H197v-34h6.7v34zm27.4-12.3c0 4-1 7.1-3.1 9.3-2.1 2.2-5 3.4-8.8 3.4-2.3 0-4.4-.5-6.2-1.5s-3.2-2.5-4.1-4.4c-1-1.9-1.4-4.2-1.4-6.7 0-4 1-7.1 3.1-9.3 2.1-2.2 5-3.3 8.8-3.3 2.3 0 4.4.5 6.2 1.5s3.2 2.5 4.1 4.4c1 1.8 1.4 4 1.4 6.6zm-16.9 0c0 2.4.4 4.2 1.2 5.5.8 1.2 2.1 1.9 3.9 1.9 1.8 0 3.1-.6 3.8-1.8.8-1.2 1.2-3.1 1.2-5.5s-.4-4.2-1.2-5.4c-.8-1.2-2.1-1.8-3.9-1.8-1.8 0-3.1.6-3.8 1.8-.8 1.1-1.2 2.9-1.2 5.3zm41.9-12.2v3.4l-3.8 1c.7 1.1 1.1 2.3 1.1 3.7 0 2.6-.9 4.7-2.7 6.1-1.8 1.5-4.4 2.2-7.6 2.2l-1.2-.1-1-.1c-.7.5-1 1.1-1 1.7 0 1 1.2 1.4 3.7 1.4h4.2c2.7 0 4.7.6 6.1 1.7 1.4 1.2 2.1 2.8 2.1 5.1 0 2.9-1.2 5.1-3.6 6.6-2.4 1.6-5.8 2.4-10.3 2.4-3.4 0-6-.6-7.8-1.8-1.8-1.2-2.7-2.9-2.7-5 0-1.5.5-2.7 1.4-3.7s2.3-1.7 4-2.1c-.7-.3-1.3-.8-1.8-1.4-.5-.7-.8-1.4-.8-2.1 0-.9.3-1.7.8-2.3.5-.6 1.3-1.2 2.3-1.8-1.3-.6-2.3-1.4-3.1-2.7-.8-1.2-1.1-2.7-1.1-4.3 0-2.7.9-4.7 2.6-6.2 1.7-1.5 4.2-2.2 7.4-2.2.7 0 1.5.1 2.4.2s1.5.2 1.8.3h8.6zm-18.8 27.9c0 .9.4 1.6 1.3 2.2.9.5 2.1.8 3.7.8 2.4 0 4.3-.3 5.6-1 1.4-.7 2-1.6 2-2.7 0-.9-.4-1.6-1.2-1.9s-2-.5-3.7-.5h-3.5c-1.2 0-2.2.3-3.1.9-.7.5-1.1 1.3-1.1 2.2zm2.4-19.9c0 1.3.3 2.4.9 3.1.6.8 1.5 1.2 2.8 1.2s2.2-.4 2.8-1.2c.6-.8.9-1.8.9-3.1 0-2.9-1.2-4.4-3.6-4.4-2.6 0-3.8 1.5-3.8 4.4z" fill="#77ad1b"/><path d="M39.9 74.3c0 2.9-1 5.2-3.1 6.8-2.1 1.7-5 2.5-8.7 2.5-3.4 0-6.4-.6-9.1-1.9v-6.3c2.2 1 4 1.6 5.5 2s2.9.6 4.1.6c1.5 0 2.6-.3 3.4-.9.8-.6 1.2-1.4 1.2-2.5 0-.6-.2-1.2-.5-1.7s-.9-1-1.5-1.4c-.7-.5-2.1-1.2-4.1-2.2-2-.9-3.4-1.8-4.4-2.6-1-.8-1.8-1.8-2.3-3s-.9-2.4-.9-3.9c0-2.8 1-5.1 2.9-6.7s4.6-2.4 7.9-2.4c1.7 0 3.2.2 4.8.6 1.5.4 3.1.9 4.7 1.7l-2.2 5.3c-1.7-.7-3.1-1.2-4.2-1.5-1.1-.3-2.2-.4-3.3-.4-1.3 0-2.3.3-3 .9s-1 1.4-1 2.3c0 .6.1 1.1.4 1.6.3.4.7.9 1.3 1.3.6.4 2 1.2 4.3 2.2 3 1.4 5 2.9 6.1 4.3 1.1 1.5 1.7 3.2 1.7 5.3zm10.6 8.9h-6.7v-34h6.7v34zm27.8-12.3c0 4-1 7.1-3.1 9.3-2.1 2.2-5 3.4-8.8 3.4-2.3 0-4.4-.5-6.2-1.5s-3.2-2.5-4.1-4.4c-1-1.9-1.4-4.2-1.4-6.7 0-4 1-7.1 3.1-9.3 2.1-2.2 5-3.3 8.8-3.3 2.3 0 4.4.5 6.2 1.5 1.8 1 3.2 2.5 4.1 4.4.9 1.8 1.4 4 1.4 6.6zm-16.9 0c0 2.4.4 4.2 1.2 5.5.8 1.2 2.1 1.9 3.9 1.9 1.8 0 3.1-.6 3.8-1.8.8-1.2 1.2-3.1 1.2-5.5s-.4-4.2-1.2-5.4c-.8-1.2-2.1-1.8-3.9-1.8s-3.1.6-3.8 1.8c-.8 1.1-1.2 2.9-1.2 5.3zm31.4 7.4c1.2 0 2.6-.3 4.2-.8v5c-1.7.7-3.7 1.1-6.1 1.1-2.7 0-4.6-.7-5.8-2-1.2-1.3-1.8-3.4-1.8-6.1V63.7H80v-2.8l3.7-2.2 1.9-5.2h4.3v5.2h6.8v5h-6.8v11.8c0 .9.3 1.6.8 2.1s1.2.7 2.1.7zm118.4-25.9c0-.5.1-1 .4-1.2.3-.3.7-.4 1.3-.4.5 0 1 .1 1.2.4.3.3.4.7.4 1.2s-.1.9-.4 1.2c-.3.3-.7.4-1.2.4s-1-.1-1.3-.4c-.2-.3-.4-.7-.4-1.2zm9.5 1.5c-3.4 0-5.1-1.9-5.1-5.6 0-1.8.5-3.3 1.4-4.2.9-1 2.2-1.5 4-1.5 1.3 0 2.4.2 3.4.7l-.9 2.3c-.5-.2-.9-.3-1.3-.5-.4-.1-.8-.2-1.2-.2-1.5 0-2.3 1.1-2.3 3.3 0 2.1.8 3.2 2.3 3.2.6 0 1.1-.1 1.6-.2.5-.2 1-.4 1.5-.7V53c-.5.3-1 .5-1.5.6-.5.3-1.1.3-1.9.3zm14.7-5.6c0 1.8-.5 3.2-1.4 4.2s-2.2 1.5-3.9 1.5c-1 0-2-.2-2.8-.7s-1.4-1.1-1.8-2-.6-1.9-.6-3c0-1.8.5-3.2 1.4-4.1.9-1 2.2-1.5 3.9-1.5 1 0 2 .2 2.8.7s1.4 1.1 1.8 2c.4.8.6 1.8.6 2.9zm-7.5 0c0 1.1.2 1.9.5 2.4.4.6.9.8 1.7.8s1.4-.3 1.7-.8.5-1.4.5-2.4c0-1.1-.2-1.9-.5-2.4s-.9-.8-1.7-.8-1.4.3-1.7.8-.5 1.3-.5 2.4zm18.7 5.4h-3v-6.3c0-.8-.1-1.4-.4-1.8-.3-.4-.7-.6-1.2-.6-.8 0-1.3.3-1.7.8-.3.6-.5 1.5-.5 2.8v5.1h-3V42.9h2.3l.4 1.4h.2c.3-.5.7-.9 1.3-1.2s1.2-.4 1.9-.4c1.6 0 2.7.5 3.3 1.6h.3c.3-.5.7-.9 1.3-1.2s1.2-.4 1.9-.4c1.2 0 2.2.3 2.8.9.6.6.9 1.6.9 3v7.1h-3v-6.3c0-.8-.1-1.4-.4-1.8-.3-.4-.7-.6-1.2-.6-.7 0-1.3.3-1.6.8-.4.5-.5 1.3-.5 2.5l-.1 5.4z" fill="#fff"/></svg>