<svg id="svg2" xmlns="http://www.w3.org/2000/svg" xmlns:xlink="http://www.w3.org/1999/xlink" viewBox="0 0 275 137" enable-background="new 0 0 275 137"><style>.st1{fill:#2b2b2b}.st2{fill:#ca262b}.st5{fill:#997504}.st6{fill:#fff}.st7{fill:#89a8a3}.st10{fill:#c0ddd8}</style><g id="g12"><defs><path id="SVGID_1_" d="M-1.2 41.8h277.3v53.3H-1.2z"/></defs><clipPath id="SVGID_2_"><use xlink:href="#SVGID_1_" overflow="visible"/></clipPath><g id="g14" clip-path="url(#SVGID_2_)"><g id="g20" transform="translate(107.266 27.445)"><path id="path22" class="st1" d="M34.6 31.1v3.1h-3.8v-3.3c0-3.2-1.3-5.2-4.2-5.2-2.9 0-4.2 2-4.2 5.2V50c0 3.2 1.3 5.2 4.2 5.2 2.9 0 4.2-2 4.2-5.2v-7.2h-3.7v-3.6h7.5v10.6c0 5.5-2.6 9.1-8.1 9.1s-8.1-3.6-8.1-9.1V31.1c0-5.5 2.6-9.1 8.1-9.1 5.5.1 8.1 3.7 8.1 9.1"/></g><g id="g24" transform="translate(113.527 14.966)"><path id="path26" class="st1" d="M36.7 60.2h8l-4.1-20.8-3.9 20.8zm-.5 3.5L34.8 71h-3.7L38 34.9h5.8L50.7 71h-4l-1.4-7.3h-9.1z"/></g><g id="g28" transform="translate(136.363 6.969)"><path id="path30" class="st1" d="M44.3 78.9h-3.9l-6-28.7V79h-3.5V42.9h5.6l5.9 28.8 5.7-28.8h5.6V79H50V50l-5.7 28.9z"/></g><g id="g32" transform="translate(152.823 9.673)"><path id="path34" class="st1" d="M49.8 72.6c2.9 0 4.3-1.5 4.3-4.9v-3.2c0-4-1.6-5.4-5-5.4h-3.5v13.4h4.2zm-1.2-17.1c3.2 0 4.8-1 4.8-4.8v-2.1c0-3.2-1.1-4.7-4-4.7h-4v11.6h3.2zm1-15.3c5.6 0 7.8 2.7 7.8 8v1.7c0 3.8-1.1 6.2-4.2 7.2 3.5 1 4.8 3.8 4.8 7.7v3c0 5.4-2.6 8.4-8.2 8.4h-8.3v-36h8.1z"/></g><g id="g36" transform="translate(161.75 6.93)"><path id="path38" class="st1" d="M52.7 79V42.9h4v32.4H67V79H52.7z"/></g><g id="g40" transform="translate(184.393 21.998)"><path id="path42" class="st1" d="M60.3 43.8v3.6h-8.8v12.8h10.8v3.7H47.5v-36h14.8v3.7H51.5v12.3h8.8z"/></g><g id="g44" transform="translate(193.936 21.225)"><path id="path46" class="st1" d="M63.5 45.6c3.2 0 5.1-1 5.1-4.9v-3.5c0-3.2-1.2-4.9-4.2-4.9h-3.9v13.3h3zm1-17c5.7 0 8 2.9 8 8.2v2.9c0 4-1.4 6.4-4.5 7.4 3.3 1 4.5 3.7 4.5 7.5v5.6c0 1.6.1 3.1.7 4.3h-4.1c-.5-1-.7-2-.7-4.4v-5.7c0-4.1-1.9-5.4-5.3-5.4h-2.8v15.4h-4V28.6h8.2z"/></g></g></g><g id="g48" transform="translate(11.118 14.72)"><path id="path50" class="st2" d="M2.5 60.8h8L6.5 40l-4 20.8zM2 64.3L.6 71.6h-3.7l6.9-36.1h5.8l6.9 36.1h-4l-1.4-7.3H2z"/></g><g id="g52" transform="translate(33.22 21.133)"><path id="path54" class="st2" d="M9.9 45.9v3.7H1.6v15.6h-4V29.1h14.3v3.7H1.6v13.1h8.3z"/></g><g id="g56" transform="translate(46.357 21.133)"><path id="path58" class="st2" d="M14.3 45.9v3.7H6v15.6H2V29.1h14.3v3.7H6v13.1h8.3z"/></g><defs><path id="SVGID_3_" d="M-1.2 41.8h277.3v53.3H-1.2z"/></defs><clipPath id="SVGID_4_"><use xlink:href="#SVGID_3_" overflow="visible"/></clipPath><g clip-path="url(#SVGID_4_)"><g id="g68" transform="translate(85.43 26.775)"><path id="path70" d="M27.3 32.7c.1.8.1 1.6 0 2.4-.1.8-.3 1.7-.5 2.6-.3.9-.6 1.8-1.1 2.8-.2.4-.4.8-.6 1.1-.1.1-.2.3-.3.4-.1.1-.1.2-.2.3-.1.1-.1.2-.2.3-.1.2-.3.4-.5.6-.1.2-.3.4-.4.5 0 0 0 .1-.1.1 0 0 0 .1-.1.1 0 0 0 .1-.1.1v.1c-.2.2-.3.4-.5.6-.2.2-.3.4-.5.5l-.5.5c-.2.2-.4.3-.6.5l-.1.1c-.8.7-1.7 1.4-2.6 2-1.5 1.5-2.4 2.1-3.4 2.7-1 .6-2 1.1-3 1.5s-2.1.9-3.1 1.2c-.3.1-.7.2-1 .3-.3.1-.7.2-1 .3-.3.1-.7.2-1 .2-.3.1-.7.1-1 .2-1.3.3-2.7.4-3.9.5H.8c-1.3.1-2.6 0-3.8-.1-1.2-.1-2.4-.4-3.4-.7-1.1-.3-2.1-.7-3-1.2h-.1c-.2-.1-.3-.2-.5-.3-.2-.1-.3-.2-.5-.3-.2-.1-.3-.2-.4-.3s-.3-.2-.4-.3h-.5l-.1-.1-.1-.1-.1-.1-.4-.4c-.1-.1-.2-.2-.2-.3 0-.1-.1-.1-.1-.2-.1-.1-.1-.2-.2-.3l-.1-.1-.3-.3c0-.1-.1-.1-.1-.2-.1-.1-.2-.3-.3-.4l2.5 3.9c.1.1.2.3.3.4 0 .1.1.1.1.2.1.1.1.2.2.2l.1.1.1.1c0 .1.1.1.1.2l.1.1v.1l.1.1.1.1.1.1.1.1.1.1.1.1.1.1.1.1h.2c.1.1.3.2.4.3 0 0 .1.1.2.1.1.1.2.2.3.2.1.1.2.1.3.2 0 0 .1 0 .1.1.1 0 .1.1.2.1.1.1.2.1.3.2.9.5 1.9.9 3 1.3 1.1.3 2.2.6 3.4.8 1.2.2 2.5.2 3.7.2 1 0 2-.1 3-.3.3 0 .7-.1 1-.2 1 .5 1.4.4 1.7.4.3-.1.7-.1 1-.2.3-.1.7-.2 1-.3.3-.1.7-.2 1-.3 1-.3 2-.7 3-1.1 1-.4 2-.9 2.9-1.5.9-.5 1.8-1.1 2.7-1.8.9-.6 1.7-1.3 2.5-2 .1-.1.3-.2.4-.4l.2-.2.1-.1c.1-.1.2-.3.4-.4l.3-.3.2-.2c.1-.1.1-.2.2-.2.1-.1.2-.2.2-.3 0 0 0-.1.1-.1 0 0 0-.1.1-.1.1-.2.2-.3.4-.5.1-.2.3-.4.4-.6.1-.1.1-.2.2-.3.1-.1.1-.2.2-.3v-.1c.1-.1.2-.3.2-.4 0 0 0-.1.1-.1.2-.3.4-.7.5-1 .5-.9.8-1.9 1-2.8.2-.9.4-1.8.5-2.7.1-.9 0-1.7-.1-2.5l-.8-2.2c.6-1.8.4-2.6.1-3.3" fill="#b2222d"/></g><g id="g72" transform="translate(86.5 23.899)"><path id="path74" class="st5" d="M27.7 39.4c0-.2-.1-.4-.1-.5 0-.2-.1-.4-.1-.5-.1-.2-.1-.3-.2-.5l-1.5-4.3c.1.2.1.3.2.5 0 .2.1.3.1.5s.1.3.1.5.1.4.1.5l1.5 4.4c-.1-.3-.1-.5-.1-.6"/></g><g id="g76" transform="translate(79.485 23.812)"><path id="path78" class="st6" d="M25.3 39.6C24.2 53.2 12.5 53.1 7.7 52.9c-4.7-.2-9.5-3.7-10.3-8.2-.9-4.5 1.5-10.3 5.6-12.1 22.9-10.1 22.6 3.4 22.3 7"/></g><g id="g80" transform="translate(83.785 20.167)"><path id="path82" class="st7" d="M26.8 48.1c-.1.2-.2.4-.4.6-.1.2-.3.4-.4.6-.1.2-.3.4-.4.6-.1.2-.3.4-.4.6 0 0 0 .1-.1.1 0 0 0 .1-.1.1l-.1.1v.1c-.2.2-.3.4-.5.6-.2.2-.3.4-.5.5l-.5.5c-.2.2-.4.3-.6.5l-.1.1c.6 1.5 1.3 3.1 1.9 4.6.1-.1.3-.2.4-.4l.2-.2.1-.1c.1-.1.2-.3.4-.4l.3-.3.2-.2c.1-.1.1-.2.2-.2.1-.1.2-.2.2-.3 0 0 0-.1.1-.1 0 0 0-.1.1-.1.1-.2.3-.4.4-.6s.3-.4.4-.6c.1-.2.2-.4.4-.6l.3-.6-1.5-4.9z"/></g><g id="g84" transform="translate(57.824 11.386)"><path id="path86" class="st7" d="M18.1 68.6c-.2-.1-.3-.2-.5-.3-.2-.1-.3-.2-.5-.3-.2-.1-.3-.2-.4-.3-.1-.1-.3-.2-.4-.3h-.4l-.1-.1h-.1l-.1-.1-.1-.1-.4-.4c-.1-.1-.2-.2-.2-.3 0-.1-.1-.1-.1-.2-.1-.1-.1-.2-.2-.3l-.1-.1-.3-.3c0-.1-.1-.1-.1-.2-.1-.1-.2-.3-.3-.4l2.5 3.9c.1.1.2.3.3.4 0 .1.1.1.1.2.1.1.1.2.2.2l.1.1.1.1c0 .1.1.1.1.2l.1.1v.1l.1.1.1.1.1.1.1.1.1.1.1.1.1.1h.1l.1.1h.1c.1.1.3.2.4.3.1.1.3.2.5.3.2.1.3.2.5.3.2.1.3.2.5.3l-2.1-3.6z"/></g><g id="g88" transform="translate(71.63 11.031)"><path id="path90" class="st7" d="M22.7 69.4c-.3.1-.7.2-1 .3-.3.1-.7.2-1 .3-.3.1-.7.2-1 .2-.3.1-.7.1-1 .2-1.3.2-2.7.4-3.9.5l2.5 4.3c1.2 0 2.6-.2 3.9-.4.3-.1.6-.1 1-.2.3-.1.7-.1 1-.2.3-.1.7-.2 1-.3.3-.1.7-.2 1-.3-.9-1.4-1.7-2.9-2.5-4.4"/></g><g id="g92" transform="translate(86.5 23.899)"><path id="path94" class="st7" d="M27.7 39.4c0-.2-.1-.4-.1-.5 0-.2-.1-.4-.1-.5-.1-.2-.1-.3-.2-.5l-1.5-4.3c.1.2.1.3.2.5 0 .2.1.3.1.5s.1.3.1.5.1.4.1.5l1.5 4.4c-.1-.3-.1-.5-.1-.6"/></g><g id="g96" transform="translate(74.16 24.096)"><path id="path98" class="st2" d="M23.6 38.9c.7 3.6-2 6.5-5.9 6.5-4 0-7.8-2.8-8.5-6.4-.7-3.6 2-6.5 5.9-6.5 4 0 7.8 2.9 8.5 6.4"/></g><g id="g100" transform="translate(76.657 20.474)"><path id="path102" d="M24.4 47.4l-.2-.1-.1.1-.1.1-.1.1-.1.1-.1.1-.1.1.2.1.1-.1.1-.1.1-.1.1-.1s0-.1.2-.2M4 39v.1l.1-.1.1-.1.1-.1.1-.1.1-.1.1-.1-.1-.1-.1.1-.1.1-.1.1-.1.1c-.1.1-.1.2-.1.2M2.8 51.9l.3-.1-.1-.1-.1-.1-.1-.1-.1-.1-.1-.1-.1-.1-.2.2.1.1.1.1.1.1.1.1s0 .1.1.1m1.4.8l.3-.2h-.1s-.1 0-.1-.1c0 0-.1 0-.1-.1 0 0-.1 0-.1-.1 0 0-.1 0-.1-.1l-.1-.1-.2.2h.1l.1.1s.1 0 .1.1c0 0 .1 0 .1.1 0 .2 0 .2.1.2m1-14.8l.1.1.1-.1.1-.1.1-.1.1-.1.1-.1.1-.1-.1-.1-.1.1-.1.1-.1.1-.1.1-.2.2m20.4 8l.1-.1-.2-.1-.1.1c0 .1-.1.1-.1.1 0 .1-.1.1-.1.2l-.1.1c0 .1-.1.1-.1.2l-.1.1.2.1.1-.1c0-.1.1-.1.1-.2s.1-.1.1-.2.1-.1.1-.2c0 .1.1 0 .1 0m-2-11.8l-.3.1h.1s.1 0 .1.1c0 0 .1 0 .1.1 0 0 .1 0 .1.1 0 0 .1 0 .1.1h.1l.2-.1H24s-.1 0-.1-.1c0 0-.1 0-.1-.1 0 0-.1 0-.1-.1 0 0-.1 0-.1-.1m-3.8-1l-.1.1h.6l.1-.1h-.6m3 15.8l-.2-.1-.1.1c-.1 0-.1.1-.2.1s-.1.1-.2.1-.1.1-.2.1-.1.1-.2.1l-.1.1.2.2.1-.1c.1 0 .1-.1.2-.1s.1-.1.2-.1.1-.1.2-.1.1-.1.2-.1l.1-.2m-20-8.7l.1.1H3l.1-.1.1-.1.1-.1.1-.1.1-.1h-.2l-.1.1-.1.1-.1.1-.1.1h-.1M1.7 50.9l.3-.1-.1-.1-.1-.1-.1-.1-.1-.1-.1-.1-.1-.1-.2.2.1.1.1.1.1.1.1.1s.1 0 .1.1M6 53.2h-.3c-.1 0-.1 0-.2-.1-.1 0-.1 0-.2-.1-.1 0-.1 0-.2-.1H5v.2h.1c.1 0 .1 0 .2.1.1 0 .1 0 .2.1.1 0 .1 0 .2.1H6v-.2m.5-16.3l.1.1.1-.1.1-.1.1-.1.1-.1.1-.1.1-.1-.1-.1-.1.1-.1.1-.1.1-.1.1s0 .1-.2.2m20.1 7.3l.1-.1h-.3l-.1.1c0 .1-.1.1-.1.2s-.1.1-.1.2-.1.1-.1.2-.1.1-.1.2l.1-.1.3.1.1-.1c0-.1.1-.1.1-.2s.1-.1.1-.2.1-.1.1-.2c-.1 0-.1 0-.1-.1m-1.8-9.3l-.3.1.1.1.1.1.1.1.1.1.1.1.1.1.2-.1-.1-.1-.1-.1-.1-.1-.1-.1c0-.2 0-.2-.1-.2m-3.3-1.5l-.2.1h1.2l.2-.1h-1.2m-3.4-.4l-.1.1h1l.1-.1h-1m2.8 17.3l-.2-.2-.1.1c-.1 0-.1.1-.2.1s-.1.1-.2.1-.1.1-.2.1-.1.1-.2.1l-.1.1.1.2.1-.1c.1 0 .1-.1.2-.1s.1-.1.2-.1.1-.1.2-.1.1-.1.2-.1l.2-.1m-19-8.7H2l.1-.1.1-.1.1-.1.1-.1.1-.1-.1-.1h-.2l-.1.1-.1.1-.1.1.1.1c-.1.1-.1.1-.1.2m-1 8.1l.3-.1v-.1s0-.1-.1-.1c0 0 0-.1-.1-.1 0 0 0-.1-.1-.1 0 0 0-.1-.1-.1V49l-.2.1v.1s0 .1.1.1c0 0 0 .1.1.1 0 0 0 .1.1.1v.2m7 3.8h-1l-.1.2h1l.1-.2M8 35.9h.2l.1-.1.1-.1.1-.1.1-.1.1-.1-.1-.1-.1.1-.1.1-.1.1-.1.1c0 .1 0 .1-.2.2m19.3 6.7l-.2-.1v.2c0 .1 0 .1-.1.2 0 .1 0 .1-.1.2 0 .1 0 .1-.1.2v.1h.3v-.1c0-.1 0-.1.1-.2 0-.1 0-.1.1-.2 0-.1 0-.1.1-.2-.1 0-.1-.1-.1-.1m-1.4-6.8l-.3.1.1.1.1.1.1.1.1.1.1.1.1.1.2-.1-.1-.1-.1-.1-.1-.1c-.1-.2-.1-.2-.2-.3.1 0 0 0 0 0m-9.5-2.7l-.1.1h1l.1-.1h-1m2.4 18.4l-.1-.2-.1.1c-.1 0-.1.1-.2.1s-.1.1-.2.1-.1.1-.2.1-.1.1-.2.1l-.1.1.1.2.1-.1c.1 0 .1-.1.2-.1s.1-.1.2-.1.1-.1.2-.1.1-.1.2-.1l.1-.1M1.1 42.9l.2.1v-.1s0-.1.1-.1c0 0 0-.1.1-.1 0 0 0-.1.1-.1 0 0 0-.1.1-.1v-.1h-.2v.1s0 .1-.1.1c0 0 0 .1-.1.1 0 0 0 .1-.1.1l-.1.1m-.7 5.5h.3v-.6l-.2.1v.4l-.1.1m9.5 5.2h-1l-.1.2h1l.1-.2m-.3-18.5l.1.1h.1c.1 0 .1 0 .2-.1.1 0 .1 0 .2-.1s.1 0 .2-.1c.1 0 .1 0 .2-.1h.1v-.1h-.1c-.1 0-.1 0-.2.1-.1 0-.1 0-.2.1-.1 0-.1 0-.2.1-.1 0-.1 0-.2.1h-.2m18 5.9l-.3-.1v.6h.3V41m-.9-4.2l-.2.1v.1s0 .1.1.1c0 0 0 .1.1.1 0 0 0 .1.1.1 0 0 0 .1.1.1v.1l.3-.1v-.1s0-.1-.1-.1c0 0 0-.1-.1-.1 0 0 0-.1-.1-.1l-.2-.2m-12-3.4v.1h1v-.1h-1m1.9 19.1l-.1-.2-.1.1c-.1 0-.1.1-.2.1s-.1 0-.2.1c-.1 0-.1 0-.2.1-.1 0-.1 0-.2.1h-.1v.2h.1c.1 0 .1 0 .2-.1.1 0 .1 0 .2-.1.1 0 .1 0 .2-.1.1 0 .1-.1.2-.1l.2-.1m-16-8.2l.2.1v-.6H.6v.5m-.4 2.8h.2v-.6l-.2.1v.5m11.9 6.6v-.2h-1v.2h1m-.8-19.3v.1h.1c.1 0 .1 0 .2-.1.1 0 .1 0 .2-.1.1 0 .1 0 .2-.1.1 0 .1 0 .2-.1h.1V34h-.1c-.1 0-.1 0-.2.1-.1 0-.1 0-.2.1-.1 0-.1 0-.2.1-.1 0-.1 0-.2.1h-.1m16.3 5.1h-.3v.6h.3v-.6M13 33.8v.1h1v-.1h-1m1.3 19.4V53h-.1c-.1 0-.1 0-.2.1h-.7v.2h.7c.1 0 .1 0 .2-.1h.1m13-15.1H27v.6l.3-.1v-.5m-27 7.6h.2v-.6l-.2.1v.5M6.2 39c-1 .9-1.8 1.9-2.4 2.9-.6 1-1 2-1.1 3-.1 1 0 2 .4 2.9.4.9 1.1 1.7 2.1 2.4s2.3 1.1 3.7 1.2c1.4.2 3 0 4.6-.3 1.6-.4 3.2-1 4.7-1.8s2.8-1.8 3.9-3 1.8-2.4 2.3-3.6c.4-1.1.5-2.3.3-3.3s-.6-1.8-1.4-2.6c-.7-.7-1.6-1.3-2.8-1.6-1.1-.4-2.3-.5-3.6-.5-1.2 0-2.5.2-3.8.6-1.3.3-2.5.8-3.7 1.5-1.1.5-2.2 1.3-3.2 2.2M1.1 54.1c-.2-.1-.3-.3-.5-.4-.2-.1-.3-.3-.4-.4-.2-.2-.3-.3-.5-.4-.1-.1-.2-.3-.4-.4L-4 55.6c-.4-.5-.7-1-.9-1.5-.3-.5-.5-1-.6-1.6-.2-.5-.3-1.1-.3-1.6-.1-.5-.1-1.1 0-1.7l3.6-.9v-1.1c0-.4.1-.7.2-1.1.1-.4.2-.7.3-1.1.1-.4.2-.7.4-1.1l-3.4.9c.2-.5.5-1.1.8-1.6.3-.5.6-1 1-1.6.3-.5.7-1 1.1-1.5.4-.5.8-1 1.3-1.5l2 1c.1-.2.3-.3.4-.5.1-.2.3-.3.5-.5l.5-.5c.1-.1.3-.3.5-.4.2-.2.3-.3.5-.4.2-.1.4-.3.5-.4.2-.1.4-.3.5-.4.2-.1.4-.3.6-.4l-2.1-.9c.6-.4 1.2-.8 1.7-1.2.6-.4 1.2-.7 1.8-1l1.8-.9c.6-.3 1.2-.5 1.9-.8l-.1 2c.4-.2.9-.3 1.3-.5.4-.1.9-.3 1.3-.4.4-.1.9-.2 1.3-.3.4-.1.9-.2 1.3-.3l-.1-1.9c.6-.1 1.3-.2 1.9-.3.6-.1 1.3-.1 1.9-.2h1.9c.6 0 1.3.1 1.9.1L21 31.6c.2 0 .4.1.6.1s.4.1.6.1c.2 0 .4.1.6.1.2 0 .4.1.6.2.2.1.4.1.6.2.2.1.4.1.6.2.2.1.4.1.5.2.2.1.4.2.5.2l2.2-2.2c.6.2 1.1.5 1.6.8.5.3 1 .6 1.4.9.4.3.8.7 1.2 1.1.4.4.7.8 1 1.3l-4 1c.2.3.4.6.5 1 .2.3.3.7.4 1.1.1.4.2.7.2 1.1 0 .4.1.8.1 1.2l4.3-1c.1.6.1 1.2 0 1.9-.1.6-.2 1.3-.3 2-.2.7-.4 1.4-.7 2.1-.3.7-.7 1.4-1.1 2.1l-3.9-1.6c-.1.2-.3.4-.4.7-.1.2-.3.4-.5.7-.2.2-.3.4-.5.7-.2.2-.4.4-.6.7-.2.2-.4.4-.6.7l-.6.6c-.2.2-.4.4-.7.6-.2.2-.5.4-.7.6l3.8 1.9c-.7.7-1.5 1.3-2.4 1.9-.8.6-1.7 1.1-2.6 1.7-.9.5-1.8 1-2.7 1.4-.9.4-1.9.8-2.9 1.1l-.3-4.1c-.6.2-1.2.4-1.9.6-.6.2-1.2.3-1.9.5-.6.1-1.2.2-1.9.3-.6.1-1.2.1-1.8.1l-.1 4.1c-.9.1-1.8.1-2.7 0-.9 0-1.7-.1-2.5-.3-.8-.1-1.6-.3-2.3-.6-.7-.2-1.4-.5-2.1-.9L3 55.4l-.6-.3-.6-.3-.6-.3c.2-.2.1-.3-.1-.4" fill="#b51c27"/></g><g id="g104" transform="translate(66.296 32.477)"><path id="path106" class="st6" d="M20.9 19.4c.4-.2.8-.3 1.3-.4.4-.1.9-.3 1.3-.4.4-.1.9-.2 1.3-.3.4-.1.9-.2 1.3-.3l.1 1.9c-.4.1-.9.2-1.3.3-.4.1-.9.2-1.3.3-.4.1-.9.3-1.3.4-.4.1-.9.3-1.3.5l-.1-2z"/></g><g id="g108" transform="translate(59.343 28.406)"><path id="path110" class="st6" d="M18.6 28.9c.2-.1.3-.3.5-.4.2-.1.4-.3.5-.4.2-.1.4-.3.5-.4.2-.1.4-.3.5-.4l2.1.9c-.2.1-.4.3-.6.4-.2.1-.4.3-.5.4-.2.1-.4.3-.5.4-.2.1-.3.3-.5.4l-.5.5-.5.5-.5.5c-.1.2-.3.3-.4.5l-2-1 .4-.4c.1-.1.3-.3.5-.4s.3-.3.5-.4c.2-.4.4-.6.5-.7"/></g><g id="g112" transform="translate(74.283 32.255)"><path id="path114" class="st6" d="M23.6 19.9l2.2-2.1c.2 0 .4.1.6.1.2 0 .4.1.6.1.2 0 .4.1.6.1.2 0 .4.1.6.1.2.1.4.1.6.2.2.1.4.1.6.2.2.1.4.1.6.2.2.1.4.1.6.2l-2.2 2.2c-.2-.1-.3-.2-.5-.2-.2-.1-.4-.2-.5-.2-.2-.1-.4-.1-.6-.2-.2-.1-.4-.1-.6-.2-.2-.1-.4-.1-.6-.2-.2 0-.4-.1-.6-.1-.2 0-.4-.1-.6-.1s-.6-.1-.8-.1"/></g><g id="g116" transform="translate(54.826 22.497)"><path id="path118" class="st6" d="M17.1 42.7l3.4-.9c-.2.4-.3.7-.4 1.1-.1.4-.2.7-.3 1.1-.1.4-.1.7-.2 1.1v1.1l-3.6.9c0-.4.1-.7.1-1.1.1-.4.1-.7.2-1.1.1-.4.2-.7.3-1.1.2-.4.4-.8.5-1.1"/></g><g id="g120" transform="translate(61.935 27.181)"><path id="path122" class="st6" d="M19.5 31.7c1.2-1.1 2.6-2 4-2.8 1.4-.8 3-1.4 4.5-1.8 1.5-.4 3.1-.7 4.6-.7 1.5 0 3 .2 4.4.6 1.4.5 2.5 1.1 3.4 2 .9.9 1.4 2 1.7 3.1.2 1.2.1 2.6-.4 4s-1.4 2.9-2.8 4.4c-1.4 1.5-3 2.7-4.8 3.7-1.8 1-3.8 1.7-5.7 2.2-1.9.4-3.8.6-5.6.4-1.7-.2-3.3-.7-4.5-1.5-1.2-.8-2.1-1.8-2.6-2.9-.5-1.1-.6-2.3-.5-3.5.2-1.2.6-2.5 1.3-3.7.8-1.2 1.7-2.3 3-3.5"/></g><g id="g124" transform="translate(80.332 29.038)"><path id="path126" class="st6" d="M25.6 27.4l4-1c.2.3.4.6.6 1 .2.3.3.7.4 1 .1.4.2.7.3 1.1.1.4.1.8.2 1.2l-4.3 1c0-.4 0-.8-.1-1.2 0-.4-.1-.8-.2-1.1-.1-.4-.2-.7-.4-1-.1-.4-.3-.7-.5-1"/></g><g id="g128" transform="translate(57.906 16.707)"><path id="path130" class="st6" d="M18.1 56.2c.1.2.2.3.4.4l.4.4.4.4c.2.1.3.3.5.4.2.1.4.2.5.4l.6.3.6.3.6.3-3.4 3.3-.6-.3c-.2-.1-.4-.2-.6-.4-.2-.1-.4-.3-.6-.4-.2-.1-.4-.3-.5-.4-.2-.1-.3-.3-.5-.4l-.4-.4-.4-.4c-.1-.1-.2-.3-.4-.4l3.4-3.1z"/></g><g id="g132" transform="translate(78.529 19.737)"><path id="path134" class="st6" d="M25 49.1c.2-.2.4-.4.6-.7.2-.2.3-.4.5-.7.2-.2.3-.4.5-.7.1-.2.3-.4.4-.7l3.9 1.6c-.1.2-.3.5-.4.7-.2.2-.3.5-.5.7-.2.2-.4.5-.5.7-.2.2-.4.5-.6.7-.2.2-.4.5-.6.7-.2.2-.4.4-.6.7-.2.2-.4.4-.7.6-.2.2-.4.4-.7.6l-3.8-1.9c.2-.2.5-.4.7-.6.2-.2.5-.4.7-.6l.6-.6c.1 0 .3-.3.5-.5"/></g><g id="g136" transform="translate(65.782 13.761)"><path id="path138" class="st6" d="M20.8 63.1c.6 0 1.2-.1 1.8-.1.6-.1 1.2-.2 1.9-.3.6-.1 1.2-.3 1.9-.5.6-.2 1.2-.4 1.9-.6l.3 4.1c-.7.2-1.3.4-2 .6-.7.2-1.3.3-2 .5-.7.1-1.3.2-1.9.3-.6.1-1.3.1-1.9.2v-4.2z"/></g><g id="g140" transform="translate(74.628 29.659)"><path id="path142" d="M23.7 26l-6.9 3.7-6.6-1.8 1 5.7-5.6 4.9 7.5-.1 3.1 4.9 3.7-5.8 7.6-1.9-5.3-3.4 1.5-6.2z" fill="#b8242a"/></g><g id="g144" transform="translate(74.628 29.659)"><path id="path146" class="st2" d="M23.7 26l-6.9 3.7-5.9-1.7c-.2.1-.4.3-.6.4l.9 5.2-5.6 4.9 5.3-.1c1.5-1 3.1-2.2 4.5-2.9 3.2-1.5 5.4-2.7 7.1-3.3l-.3-.2 1.5-6m3.2 9.1c.1.2 0 .2.1.4l.4-.1-.5-.3"/></g><g id="g148" transform="translate(60.336 29.608)"><path id="path150" class="st5" d="M18.9 26.1c.1 0 .1 0 0 0 .1 0 .1 0 0 0"/></g><g id="g152" transform="translate(53.501 19.553)"><path id="path154" class="st5" d="M16.7 49.5c0-.1 0-.3.1-.4-.1.2-.1.3-.1.4"/></g><g id="g156" transform="translate(53.454 19.111)"><path id="path158" class="st5" d="M16.7 50.6v-.4.4"/></g><g id="g160" transform="translate(55.23 13.44)"><path id="path162" class="st5" d="M17.2 63.8c.1 0 .1.1 0 0 .1.1.1 0 0 0"/></g><g id="g164" transform="translate(53.61 20.23)"><path id="path166" class="st5" d="M16.7 48c0 .1 0 .2-.1.3.1-.1.1-.3.1-.3 0-.1 0-.1 0 0"/></g><g id="g168" transform="translate(83.744 20.1)"><path id="path170" class="st5" d="M26.7 48.3c-.1.1-.1.2-.2.3.1-.1.2-.2.2-.3"/></g><g id="g172" transform="translate(80.913 16.573)"><path id="path174" class="st5" d="M25.8 56.5l-.1.1.1-.1"/></g><g id="g176" transform="translate(57.388 11.635)"><path id="path178" class="st5" d="M18 68s-.1 0-.1-.1c0 .1 0 .1.1.1"/></g><g id="g180" transform="translate(63.657 10.692)"><path id="path182" class="st2" d="M20.1 70.2c-.9 0-1.7-.1-2.6-.3-.8-.1-1.6-.3-2.3-.6-.7-.2-1.4-.5-2.1-.9l-.6-.3c-.2-.1-.4-.2-.6-.4-.2-.1-.4-.3-.6-.4-.2-.1-.4-.3-.5-.4-.2-.1-.3-.3-.5-.4l-.4-.4-.4-.4c-.1-.1-.2-.3-.4-.4-.4-.5-.7-1-.9-1.5-.3-.5-.5-1-.6-1.6-.2-.5-.3-1.1-.3-1.6-.1-.5-.1-1.1 0-1.7 0-.4.1-.7.1-1.1.1-.4.1-.7.2-1.1.1-.4.2-.7.3-1.1.1-.4.3-.7.4-1.1.2-.5.5-1.1.8-1.6.3-.5.6-1 1-1.6.3-.5.7-1 1.1-1.5.4-.5.8-1 1.3-1.5l-.3-.1.3.1.4-.4c.1-.1.3-.3.5-.4.2-.1.3-.3.5-.4.2-.1.3-.3.5-.4.2-.1.3-.3.5-.4.2-.1.4-.3.5-.4.2-.1.4-.3.5-.4.2-.1.4-.3.5-.4.6-.4 1.1-.8 1.7-1.1.6-.4 1.2-.7 1.8-1l1.8-.9c.6-.3 1.2-.5 1.9-.8.4-.2.8-.3 1.3-.4.4-.1.9-.3 1.3-.4.4-.1.9-.2 1.3-.3.4-.1.9-.2 1.3-.3.6-.1 1.3-.2 1.9-.3.6-.1 1.3-.1 1.9-.2h1.9c.6 0 1.3.1 1.9.1.2 0 .4.1.6.1.2 0 .4.1.6.1.2 0 .4.1.6.1.2 0 .4.1.6.1.2.1.4.1.6.2.2.1.4.1.6.2.2.1.4.1.6.2.2.1.4.1.6.2l.6-.6c-.1-.1-.3-.1-.4-.2-.1-.1-.3-.1-.5-.2-.2 0-.3-.1-.5-.1s-.3-.1-.5-.1h-.4c-.2 0-.3-.1-.5-.1h-.5c-.2 0-.3-.1-.5-.1h-.5c-1.5-.2-3-.2-4.5-.1-1.3.1-2.6.3-3.9.5-.2 0-.4.1-.6.1-.2 0-.3.1-.5.1h-.2c-.4.1-.7.2-1.1.3h-.2c-.1 0-.1 0-.2.1-.4.1-.7.2-1.1.3 0 0-.1 0-.1.1-.2.1-.3.1-.5.2s-.4.1-.6.2c-1.2.5-2.4 1-3.6 1.6-1.4.7-2.7 1.5-4 2.4-.1.1-.2.1-.3.2 0 0-.1 0-.1.1-.1.1-.3.2-.4.3-.1.1-.3.2-.4.3-.1.1-.3.2-.4.3h-.4c-.1.1-.3.2-.4.4-.1.1-.3.2-.4.4l-.4.4-.4.4c-1.4 1.4-2.6 3-3.5 4.5-.4.7-.7 1.4-1 2v.1c-.1.3-.3.7-.4 1-.2.5-.3 1.1-.4 1.6 0-.2.1-.3.1-.5 0 .2-.1.4-.1.5 0 .1-.1.3-.1.4v.2c0 .1 0 .3-.1.4v.7c-.1 1.2 0 2.3.3 3.4-.6 1.6 0 2.8.9 4 0-.1-.1-.1-.1-.2l.2.2.1.1v.1l.1.1.1.1-.1-.1c0 .1.1.1.2.2l.1.1v.1l.3.3.4.4.1.1.1.1h.1l.1.1h.4c.1.1.3.2.4.3.1.1.2.2.3.2h.1s.1 0 .1.1c.1 0 .1.1.2.1h-.1c.1 0 .1.1.2.1h.3c.1.1.2.1.4.2 1.6.9 3.4 1.5 5.5 1.8 1.6.2 3.3.3 5 .2v-1.1c-1.2.5-2.1.5-2.9.4"/></g><g id="g184" transform="translate(77.667 15.015)"><path id="path186" class="st2" d="M24.7 60.1c-.9.7-1.8 1.3-2.6 1.7-.9.5-1.8 1-2.7 1.4-.9.4-1.9.8-2.9 1.1-.7.2-1.3.4-2 .6-.7.2-1.3.3-2 .5-.7.1-1.3.2-1.9.3-.6.1-1.3.1-1.9.2V67h.1c.2 0 .5 0 .7-.1h.3c.2 0 .5 0 .7-.1h.4c.2 0 .4-.1.7-.1.1 0 .2 0 .3-.1.2 0 .4-.1.6-.1.2 0 .4-.1.6-.1.1 0 .3-.1.4-.1.2 0 .4-.1.7-.2.1 0 .2 0 .3-.1h.1c.2-.1.5-.1.7-.2.1 0 .2-.1.3-.1.3-.1.5-.2.8-.2h.1c1.8-.6 3.6-1.4 5.4-2.3 2.3-1.2 4.4-2.7 6.2-4.3l-1.1-.6c-.7.6-1.5 1.2-2.3 1.8"/></g><g id="g188" transform="translate(85.34 27.32)"><path id="path190" class="st2" d="M27.3 31.4c0-.1-.1-.3-.1-.4v-.2c0-.1 0-.2-.1-.3v-.2c0-.1-.1-.3-.1-.4v-.1c-.2-.5-.4-1-.7-1.4v-.1c-.3-.1-.3-.3-.4-.4l-.1-.1c-.4-.6-.8-1.1-1.3-1.6-1.2-1.2-2.7-2.2-4.5-2.9l-.6.7c.6.2 1.1.5 1.6.8.5.3 1 .6 1.4 1 .4.3.8.7 1.2 1.1.4.4.7.8 1 1.3.2.3.4.6.6 1 .2.3.3.7.4 1 .1.4.2.7.3 1.1.1.4.1.8.2 1.2.1.6.1 1.2 0 1.9-.1.6-.2 1.3-.3 2-.2.7-.4 1.4-.7 2.1-.3.7-.7 1.4-1.1 2.1-.1.2-.3.5-.4.7-.2.2-.3.5-.5.7-.2.2-.4.5-.5.7-.2.2-.4.5-.6.7-.2.2-.4.5-.6.7-.2.2-.4.4-.6.7-.2.2-.4.4-.7.6-.2.2-.4.4-.7.6l1.1.6.4-.4.1-.1.1-.1.1-.1.2-.2-.1.1.2-.2.1-.1.1-.1.1-.1.4-.4c.2-.2.3-.4.5-.6 0 0 0-.1.1-.1 0 0 0-.1.1-.1 0 0 0-.1.1-.1 0 0 0-.1.1-.1.1-.1.2-.3.3-.4 0 0 0 .1-.1.1l.1-.1.1-.1.1-.1.1-.1c0-.1.1-.1.1-.2l.1-.1s0-.1.1-.1c0 0 0-.1.1-.1.1-.1.1-.2.2-.3l.1-.1s0-.1.1-.1c.1-.1.2-.2.2-.4 0 0 0-.1.1-.1.9-1.6 1.6-3.2 1.9-4.7.3-1.4.4-2.8.2-4.1v-.1c0-.1 0-.3-.1-.4.5-.8.5-.9.5-1"/></g><g id="g192" transform="translate(66.306 32.83)"><path id="path194" class="st10" d="M20.9 18.6c.4-.2.8-.3 1.3-.4.4-.1.8-.3 1.3-.4.4-.1.9-.2 1.3-.3.4-.1.9-.2 1.3-.3v.5c-.4.1-.9.2-1.3.3-.4.1-.9.2-1.3.3-.4.1-.9.3-1.3.4-.4.1-.8.3-1.3.4v-.5z"/></g><g id="g196" transform="translate(59.053 28.594)"><path id="path198" class="st10" d="M18.5 28.4c.1 0 .1 0 0 0 .1 0 .1 0 0 0l.1-.1h.4c.1-.1.3-.2.4-.3.1-.1.3-.2.4-.3.1-.1.3-.2.4-.3.1-.1.3-.2.4-.3l.4-.1c-.2.1-.4.3-.5.4-.2.1-.4.3-.5.4-.2.1-.4.3-.5.4-.2.1-.3.3-.5.4-.2.1-.3.3-.5.4-.2.1-.3.3-.5.4-.2.1-.3.3-.5.4l-.4.4-.4-.2.4-.4.4-.4c.1-.1.3-.2.4-.4.1-.1.3-.2.4-.4.1.1.1.1.2 0-.1.1 0 .1 0 0 0 .1 0 .1 0 0 0 .1 0 .1 0 0"/></g><g id="g200" transform="translate(76.367 34.233)"><path id="path202" class="st10" d="M24.3 15.3c.2 0 .3 0 .5.1.2 0 .3 0 .5.1.2 0 .3.1.5.1s.3.1.5.1h.4c.2 0 .3.1.5.1s.3.1.5.1.3.1.5.2c.1.1.3.1.4.2l-.6.6c-.2-.1-.4-.1-.6-.2-.2-.1-.4-.1-.6-.2-.2-.1-.4-.1-.6-.2-.2-.1-.4-.1-.6-.2-.2 0-.4-.1-.6-.1-.2 0-.4-.1-.6-.1-.2 0-.4-.1-.6-.1-.2 0-.4-.1-.6-.1l1.1-.4z"/></g><g id="g204" transform="translate(54.273 22.355)"><path id="path206" class="st10" d="M16.9 43l.7-.2c-.2.4-.3.7-.4 1.1-.1.4-.2.7-.3 1.1-.1.4-.2.7-.2 1.1-.1.4-.1.7-.1 1.1l-.8.2c0-.4.1-.7.1-1.1.1-.4.1-.7.2-1.1.1-.4.2-.7.3-1.1.2-.4.4-.7.5-1.1"/></g><g id="g208" transform="translate(83.32 29.804)"><path id="path210" class="st10" d="M26.6 25.6l1.2-.3c.2.3.4.6.6 1 .2.3.3.7.5 1 .1.4.2.7.3 1.1.1.4.2.8.2 1.2l-1.3.3c0-.4-.1-.8-.2-1.2-.1-.4-.2-.8-.3-1.1-.1-.4-.3-.7-.4-1-.2-.3-.4-.7-.6-1"/></g><g id="g212" transform="translate(55.462 14.387)"><path id="path214" class="st10" d="M17.3 61.6c.1.1.2.3.4.4l.4.4.4.4c.1.1.3.3.5.4.2.1.3.3.5.4.2.1.4.3.6.4.2.1.4.2.6.4l.6.3-.8.8c-.2-.1-.3-.2-.5-.3-.2-.1-.3-.2-.5-.3-.2-.1-.3-.2-.4-.3-.1-.1-.3-.2-.4-.3h-.5l-.1-.1-.1-.1-.1-.1-.4-.4c-.1-.1-.2-.2-.3-.4-.1-.1-.2-.2-.3-.4-.1-.1-.2-.3-.3-.4l.7-.8z"/></g><g id="g216" transform="translate(82.893 20.538)"><path id="path218" class="st10" d="M26.5 47.2l1.2.5c-.1.2-.2.4-.4.6-.1.2-.3.4-.4.6-.1.2-.3.4-.4.6-.1.2-.3.4-.4.6 0 0 0 .1-.1.1 0 0 0 .1-.1.1s0 .1-.1.1 0 .1-.1.1c-.2.2-.3.4-.5.6-.2.2-.4.4-.5.6-.2.2-.4.4-.6.5-.2.2-.4.4-.6.5l-1.1-.6c.2-.2.5-.4.7-.6.2-.2.4-.4.7-.6.2-.2.4-.4.6-.7.2-.2.4-.4.6-.7.2-.2.4-.5.6-.7.2-.2.4-.5.5-.7.2-.2.3-.5.5-.7-.4.3-.3.1-.1-.2"/></g><g id="g220" transform="translate(65.698 10.7)"><path id="path222" class="st10" d="M20.7 70.2c.6 0 1.3-.1 1.9-.2.6-.1 1.3-.2 1.9-.3.7-.1 1.3-.3 2-.5s1.3-.4 2-.6l.1 1.1c-.7.2-1.3.4-2 .6-.7.2-1.3.3-2 .4-.7.1-1.3.2-2 .3-.6.1-1.3.1-1.9.2v-1z"/></g><g id="g10" transform="matrix(1.33333 0 0 -1.33333 0 53.333)"><g id="g224"><defs><path id="SVGID_5_" d="M70.1 49.4h42.7v32.7H70.1z"/></defs><clipPath id="SVGID_6_"><use xlink:href="#SVGID_5_" overflow="visible"/></clipPath><g id="g288" clip-path="url(#SVGID_6_)"><g id="g286"><g id="g284"><defs><path id="SVGID_7_" d="M78 57.3l.2-.2c-.1.1-.2.1-.2.2l-.2.2c0-.1.1-.2.2-.2m9.2-5.4v.1-.1zm5.2-1.5c.3-.1.6-.1.9-.2-.4.1-.6.2-.9.2zm20.1 7.9c0-.1 0-.2-.1-.2 0-.1 0-.2-.1-.3v-.2c0-.1-.1-.3-.1-.4v-.1c-.2-.5-.4-.9-.7-1.4v-.1c-.1-.1-.1-.2-.2-.3l-.1-.1c-.4-.6-.8-1.1-1.3-1.6-1.2-1.2-2.7-2.1-4.4-2.8l-.5.2.3-.3c-.1-.1-.3-.1-.4-.2-.1-.1-.3-.1-.5-.2-.2 0-.3-.1-.5-.1s-.3-.1-.5-.1h-.4c-.2 0-.3-.1-.5-.1h-.5c-.2 0-.3-.1-.5-.1h-.5c-1.5-.2-3-.2-4.5-.1-1.3.1-2.6.3-3.9.5-.2 0-.4.1-.6.1-.2 0-.3.1-.5.1h-.2c-.4.1-.7.2-1.1.3H90c-.1 0-.1 0-.2.1-.4.1-.7.2-1.1.3-.1 0-.1 0-.2.1-.2.1-.3.1-.5.2s-.4.1-.6.2c-1.2.5-2.4 1-3.6 1.6-1.4.7-2.7 1.5-4 2.4-.1.1-.2.1-.3.2 0 0-.1 0-.1.1-.1.1-.3.2-.4.3-.1.1-.3.2-.4.3-.1.1-.3.2-.4.3h-.4c-.1.1-.3.2-.4.4-.1.1-.3.2-.4.4l-.4.4-.4.4c-1.4 1.4-2.6 3-3.5 4.5-.4.7-.7 1.4-1 2v.1c-.1.3-.3.7-.4 1-.2.5-.3 1.1-.4 1.6 0 .1-.1.3-.1.4v.2c0 .1 0 .3-.1.4v.7c-.1 1.2 0 2.3.3 3.4.3 1.3.9 2.5 1.8 3.6 0 0 0 .1.1.1v-.1l.1.1v.1l.1.1.1.1-.1-.1.2.2.1.1v.1l.3.3.4.4.1.1.1.1h.1l.1.1h.4c.1.1.3.2.4.3.1.1.2.2.3.2h.1s.1 0 .1.1c.1 0 .1.1.2.1h-.1c.1 0 .1.1.2.1h.3c.1.1.2.1.4.2 1.6.9 3.4 1.5 5.5 1.8 1.6.2 3.3.3 5 .2h.1c.2 0 .5 0 .7-.1h.3c.2 0 .5 0 .7-.1h.4c.2 0 .4-.1.7-.1.1 0 .2 0 .3-.1.2 0 .4-.1.6-.1.2 0 .4-.1.6-.1.1 0 .3-.1.4-.1.2 0 .4-.1.7-.2.1 0 .2 0 .3-.1h.1c.2-.1.5-.1.7-.2.1 0 .2-.1.3-.1.3-.1.5-.2.8-.2h.1c1.8-.6 3.6-1.4 5.4-2.3 2.3-1.2 4.4-2.7 6.2-4.3l.4-.4.1-.1.1-.1.1-.1.2-.2-.1.1.2-.2.1-.1.1-.1.1-.1.4-.4c.2-.2.3-.4.5-.6 0 0 0-.1.1-.1 0 0 0-.1.1-.1 0 0 0-.1.1-.1 0 0 0-.1.1-.1.1-.1.2-.3.3-.4 0 0 0 .1-.1.1l.1-.1.1-.1.1-.1.1-.1c0-.1.1-.1.1-.2l.1-.1s0-.1.1-.1c0 0 0-.1.1-.1 0 0 0 .1-.1.1v-.1c.1-.1.1-.2.2-.3l.1-.1s0-.1.1-.1c.1-.1.2-.2.2-.4 0 0 0-.1.1-.1.9-1.6 1.6-3.2 1.9-4.7.3-1.4.4-2.8.2-4.1v-.1c0-.1 0-.3-.1-.4v-.2c-.3 0-.3-.1-.4-.3"/></defs><clipPath id="SVGID_8_"><use xlink:href="#SVGID_7_" overflow="visible"/></clipPath><g id="g282" clip-path="url(#SVGID_8_)"><g id="g280"><defs><filter id="Adobe_OpacityMaskFilter" filterUnits="userSpaceOnUse" x="70.1" y="49.4" width="42.7" height="32.7"><feColorMatrix values="1 0 0 0 0 0 1 0 0 0 0 0 1 0 0 0 0 0 1 0"/></filter></defs><mask maskUnits="userSpaceOnUse" x="70.1" y="49.4" width="42.7" height="32.7" id="mask250"><g id="g260" filter="url(#Adobe_OpacityMaskFilter)"><defs><path id="SVGID_9_" d="M-32769.2-32726.2h65535v65535h-65535z"/></defs><clipPath id="SVGID_10_"><use xlink:href="#SVGID_9_" overflow="visible"/></clipPath><g id="g258"><g id="g256"><g id="g254"><linearGradient id="path252_1_" gradientUnits="userSpaceOnUse" x1="-2262.683" y1="107.84" x2="2449.565" y2="107.84" gradientTransform="matrix(-13.6605 14.1766 -10.8884 -11.8778 2448.99 -2.45)"><stop offset="0" stop-color="#fff" stop-opacity=".7"/><stop offset=".401" stop-color="#fff" stop-opacity=".7"/><stop offset=".996" stop-color="#fff" stop-opacity="0"/><stop offset="1" stop-color="#fff" stop-opacity="0"/></linearGradient><path id="path252" d="M-32769.2 32808.8h65535v-65535h-65535v65535z" clip-path="url(#SVGID_10_)" fill="url(#path252_1_)"/></g></g></g></g></mask><g id="g278" mask="url(#mask250)"><g id="g276"><linearGradient id="path274_1_" gradientUnits="userSpaceOnUse" x1="90.286" y1="102.887" x2="91.286" y2="102.887" gradientTransform="matrix(-18.214 -18.9022 -14.5179 15.8371 3236.042 149.544)"><stop offset="0" stop-color="#feffd0"/><stop offset=".401" stop-color="#feffd0"/><stop offset=".996" stop-color="#b3c3b9"/><stop offset="1" stop-color="#b3c3b9"/></linearGradient><path id="path274" d="M78 57.3l.2-.2c-.1.1-.2.1-.2.2l-.2.2c0-.1.1-.2.2-.2m9.2-5.4v.1-.1zm5.2-1.5c.3-.1.6-.1.9-.2-.4.1-.6.2-.9.2zm20.1 7.9c0-.1 0-.2-.1-.2 0-.1 0-.2-.1-.3v-.2c0-.1-.1-.3-.1-.4v-.1c-.2-.5-.4-.9-.7-1.4v-.1c-.1-.1-.1-.2-.2-.3l-.1-.1c-.4-.6-.8-1.1-1.3-1.6-1.2-1.2-2.7-2.1-4.4-2.8l-.5.2.3-.3c-.1-.1-.3-.1-.4-.2-.1-.1-.3-.1-.5-.2-.2 0-.3-.1-.5-.1s-.3-.1-.5-.1h-.4c-.2 0-.3-.1-.5-.1h-.5c-.2 0-.3-.1-.5-.1h-.5c-1.5-.2-3-.2-4.5-.1-1.3.1-2.6.3-3.9.5-.2 0-.4.1-.6.1-.2 0-.3.1-.5.1h-.2c-.4.1-.7.2-1.1.3H90c-.1 0-.1 0-.2.1-.4.1-.7.2-1.1.3-.1 0-.1 0-.2.1-.2.1-.3.1-.5.2s-.4.1-.6.2c-1.2.5-2.4 1-3.6 1.6-1.4.7-2.7 1.5-4 2.4-.1.1-.2.1-.3.2 0 0-.1 0-.1.1-.1.1-.3.2-.4.3-.1.1-.3.2-.4.3-.1.1-.3.2-.4.3h-.4c-.1.1-.3.2-.4.4-.1.1-.3.2-.4.4l-.4.4-.4.4c-1.4 1.4-2.6 3-3.5 4.5-.4.7-.7 1.4-1 2v.1c-.1.3-.3.7-.4 1-.2.5-.3 1.1-.4 1.6 0 .1-.1.3-.1.4v.2c0 .1 0 .3-.1.4v.7c-.1 1.2 0 2.3.3 3.4.3 1.3.9 2.5 1.8 3.6 0 0 0 .1.1.1v-.1l.1.1v.1l.1.1.1.1-.1-.1.2.2.1.1v.1l.3.3.4.4.1.1.1.1h.1l.1.1h.4c.1.1.3.2.4.3.1.1.2.2.3.2h.1s.1 0 .1.1c.1 0 .1.1.2.1h-.1c.1 0 .1.1.2.1h.3c.1.1.2.1.4.2 1.6.9 3.4 1.5 5.5 1.8 1.6.2 3.3.3 5 .2h.1c.2 0 .5 0 .7-.1h.3c.2 0 .5 0 .7-.1h.4c.2 0 .4-.1.7-.1.1 0 .2 0 .3-.1.2 0 .4-.1.6-.1.2 0 .4-.1.6-.1.1 0 .3-.1.4-.1.2 0 .4-.1.7-.2.1 0 .2 0 .3-.1h.1c.2-.1.5-.1.7-.2.1 0 .2-.1.3-.1.3-.1.5-.2.8-.2h.1c1.8-.6 3.6-1.4 5.4-2.3 2.3-1.2 4.4-2.7 6.2-4.3l.4-.4.1-.1.1-.1.1-.1.2-.2-.1.1.2-.2.1-.1.1-.1.1-.1.4-.4c.2-.2.3-.4.5-.6 0 0 0-.1.1-.1 0 0 0-.1.1-.1 0 0 0-.1.1-.1 0 0 0-.1.1-.1.1-.1.2-.3.3-.4 0 0 0 .1-.1.1l.1-.1.1-.1.1-.1.1-.1c0-.1.1-.1.1-.2l.1-.1s0-.1.1-.1c0 0 0-.1.1-.1 0 0 0 .1-.1.1v-.1c.1-.1.1-.2.2-.3l.1-.1s0-.1.1-.1c.1-.1.2-.2.2-.4 0 0 0-.1.1-.1.9-1.6 1.6-3.2 1.9-4.7.3-1.4.4-2.8.2-4.1v-.1c0-.1 0-.3-.1-.4v-.2c-.3 0-.3-.1-.4-.3" fill="url(#path274_1_)"/></g></g></g></g></g></g></g></g><g id="g60"><g id="g62"><g id="g290"><defs><path id="SVGID_11_" d="M71.6 59.5h42.7v26.9H71.6z"/></defs><clipPath id="SVGID_12_"><use xlink:href="#SVGID_11_" overflow="visible"/></clipPath><g id="g354" clip-path="url(#SVGID_12_)"><g id="g352"><g id="g350"><defs><path id="SVGID_13_" d="M112.7 59.5c.1.8.1 1.6 0 2.4-.1.8-.2 1.7-.5 2.6-.3.9-.6 1.8-1.1 2.8-.2.4-.4.8-.6 1.1-.1.1-.2.3-.3.4-.1.1-.1.2-.2.3-.1.1-.1.2-.2.3-.1.2-.3.4-.5.6-.1.2-.3.4-.4.5 0 0 0 .1-.1.1 0 0 0 .1-.1.1 0 0 0 .1-.1.1v.1c-.2.2-.3.4-.5.6-.2.2-.3.4-.5.5l-.5.5c-.2.2-.4.3-.6.5l-.1.1c-.8.7-1.7 1.4-2.6 2-.9.7-1.9 1.3-2.8 1.8-1 .5-2 1.1-3 1.5-1 .5-2.1.9-3.1 1.2-.3.1-.7.2-1 .3-.3.1-.7.2-1 .3-.3.1-.7.2-1 .2-.3.1-.7.1-1 .2-1.3.2-2.7.4-3.9.5h-.2c-1.3.1-2.6 0-3.8-.1-1.2-.1-2.4-.4-3.4-.7-1.1-.3-2.1-.7-3-1.2h-.1c-.2-.1-.3-.2-.5-.3-.2-.1-.3-.2-.5-.3-.2-.1-.3-.2-.4-.3-.1-.1-.3-.2-.4-.3h-.4l-.1-.1h-.1l-.1-.1-.1-.1-.4-.4c-.1-.1-.2-.2-.2-.3 0-.1-.1-.1-.1-.2-.1-.1-.1-.2-.2-.3l-.1-.1-.3-.3c0-.1-.1-.1-.1-.2-.1-.1-.2-.3-.3-.4l2.5 3.9c.1.1.2.3.3.4 0 .1.1.1.1.2.1.1.1.2.2.2l.1.1.1.1c0 .1.1.1.1.2l.1.1v.1l.1.1.1.1.1.1.1.1.1.1.1.1.1.1.1.1h.2c.1.1.3.2.4.3 0 0 .1.1.2.1.1.1.2.2.3.2s.2.1.3.2c0 0 .1 0 .1.1.1 0 .1.1.2.1.1.1.2.1.3.2.9.5 1.9.9 3 1.3 1.1.3 2.2.6 3.4.8 1.2.2 2.5.2 3.7.2 1 0 2-.1 3-.3.3 0 .7-.1 1-.2.3-.1.6-.1 1-.2.3-.1.7-.1 1-.2.3-.1.7-.2 1-.3.3-.1.7-.2 1-.3 1-.3 2-.7 3-1.1s2-.9 2.9-1.5c.9-.5 1.8-1.1 2.7-1.8.9-.6 1.7-1.3 2.5-2 .1-.1.3-.2.4-.4l.2-.2.1-.1c.1-.1.2-.3.4-.4l.3-.3.2-.2c.1-.1.1-.2.2-.2.1-.1.2-.2.2-.3 0 0 0-.1.1-.1 0 0 0-.1.1-.1.1-.2.2-.3.4-.5.1-.2.3-.4.4-.6.1-.1.1-.2.2-.3.1-.1.1-.2.2-.3V73c.1-.1.2-.3.2-.4 0 0 0-.1.1-.1.2-.3.4-.7.5-1 .5-.9.8-1.9 1-2.8.2-.9.4-1.8.5-2.7.1-.9 0-1.7-.1-2.5l-.8-2.2c.8-.3.5-1.1.2-1.8"/></defs><clipPath id="SVGID_14_"><use xlink:href="#SVGID_13_" overflow="visible"/></clipPath><g id="g348" clip-path="url(#SVGID_14_)"><g id="g346"><defs><filter id="Adobe_OpacityMaskFilter_1_" filterUnits="userSpaceOnUse" x="71.6" y="59.5" width="42.7" height="26.9"><feColorMatrix values="1 0 0 0 0 0 1 0 0 0 0 0 1 0 0 0 0 0 1 0"/></filter></defs><mask maskUnits="userSpaceOnUse" x="71.6" y="59.5" width="42.7" height="26.9" id="mask316"><g id="g326" filter="url(#Adobe_OpacityMaskFilter_1_)"><defs><path id="SVGID_15_" d="M-32769.2-32726.2h65535v65535h-65535z"/></defs><clipPath id="SVGID_16_"><use xlink:href="#SVGID_15_" overflow="visible"/></clipPath><g id="g324"><g id="g322"><g id="g320"><radialGradient id="path318_1_" cx="77.913" cy="109.133" r="4717.645" gradientTransform="matrix(11.4638 6.7338 -5.2913 6.0867 -317.4 -1147.581)" gradientUnits="userSpaceOnUse"><stop offset="0" stop-color="#fff" stop-opacity=".7"/><stop offset=".401" stop-color="#fff" stop-opacity=".7"/><stop offset=".996" stop-color="#fff" stop-opacity="0"/><stop offset="1" stop-color="#fff" stop-opacity="0"/></radialGradient><path id="path318" d="M-32769.2 32808.8h65535v-65535h-65535v65535z" clip-path="url(#SVGID_16_)" fill="url(#path318_1_)"/></g></g></g></g></mask><g id="g344" mask="url(#mask316)"><g id="g342"><radialGradient id="path340_1_" cx="83.904" cy="103.934" r="1" gradientTransform="matrix(15.2851 -8.9784 -7.055 -8.1156 -452.479 1676.386)" gradientUnits="userSpaceOnUse"><stop offset="0" stop-color="#feffd0"/><stop offset=".401" stop-color="#feffd0"/><stop offset=".996" stop-color="#b3c3b9"/><stop offset="1" stop-color="#b3c3b9"/></radialGradient><path id="path340" d="M112.7 59.5c.1.8.1 1.6 0 2.4-.1.8-.2 1.7-.5 2.6-.3.9-.6 1.8-1.1 2.8-.2.4-.4.8-.6 1.1-.1.1-.2.3-.3.4-.1.1-.1.2-.2.3-.1.1-.1.2-.2.3-.1.2-.3.4-.5.6-.1.2-.3.4-.4.5 0 0 0 .1-.1.1 0 0 0 .1-.1.1 0 0 0 .1-.1.1v.1c-.2.2-.3.4-.5.6-.2.2-.3.4-.5.5l-.5.5c-.2.2-.4.3-.6.5l-.1.1c-.8.7-1.7 1.4-2.6 2-.9.7-1.9 1.3-2.8 1.8-1 .5-2 1.1-3 1.5-1 .5-2.1.9-3.1 1.2-.3.1-.7.2-1 .3-.3.1-.7.2-1 .3-.3.1-.7.2-1 .2-.3.1-.7.1-1 .2-1.3.2-2.7.4-3.9.5h-.2c-1.3.1-2.6 0-3.8-.1-1.2-.1-2.4-.4-3.4-.7-1.1-.3-2.1-.7-3-1.2h-.1c-.2-.1-.3-.2-.5-.3-.2-.1-.3-.2-.5-.3-.2-.1-.3-.2-.4-.3-.1-.1-.3-.2-.4-.3h-.4l-.1-.1h-.1l-.1-.1-.1-.1-.4-.4c-.1-.1-.2-.2-.2-.3 0-.1-.1-.1-.1-.2-.1-.1-.1-.2-.2-.3l-.1-.1-.3-.3c0-.1-.1-.1-.1-.2-.1-.1-.2-.3-.3-.4l2.5 3.9c.1.1.2.3.3.4 0 .1.1.1.1.2.1.1.1.2.2.2l.1.1.1.1c0 .1.1.1.1.2l.1.1v.1l.1.1.1.1.1.1.1.1.1.1.1.1.1.1.1.1h.2c.1.1.3.2.4.3 0 0 .1.1.2.1.1.1.2.2.3.2s.2.1.3.2c0 0 .1 0 .1.1.1 0 .1.1.2.1.1.1.2.1.3.2.9.5 1.9.9 3 1.3 1.1.3 2.2.6 3.4.8 1.2.2 2.5.2 3.7.2 1 0 2-.1 3-.3.3 0 .7-.1 1-.2.3-.1.6-.1 1-.2.3-.1.7-.1 1-.2.3-.1.7-.2 1-.3.3-.1.7-.2 1-.3 1-.3 2-.7 3-1.1s2-.9 2.9-1.5c.9-.5 1.8-1.1 2.7-1.8.9-.6 1.7-1.3 2.5-2 .1-.1.3-.2.4-.4l.2-.2.1-.1c.1-.1.2-.3.4-.4l.3-.3.2-.2c.1-.1.1-.2.2-.2.1-.1.2-.2.2-.3 0 0 0-.1.1-.1 0 0 0-.1.1-.1.1-.2.2-.3.4-.5.1-.2.3-.4.4-.6.1-.1.1-.2.2-.3.1-.1.1-.2.2-.3V73c.1-.1.2-.3.2-.4 0 0 0-.1.1-.1.2-.3.4-.7.5-1 .5-.9.8-1.9 1-2.8.2-.9.4-1.8.5-2.7.1-.9 0-1.7-.1-2.5l-.8-2.2c.8-.3.5-1.1.2-1.8" fill="url(#path340_1_)"/></g></g></g></g></g></g></g></g></g></g></g></g></svg>