<svg xmlns="http://www.w3.org/2000/svg" viewBox="0 0 275 137"><path fill="#f05354" d="M0 0h275v137.5H0z"/><path d="M40.2 67.3s.9 1 .9.7c0-.4-.1-.7-.1-1.1l.3-.1c.2.2.8.9.9.6 0-.3 0-.6-.1-.9l.4-.2c.3.3.7.7.7.5 0-.3 0-.5-.1-.8.2-.1.3-.1.5-.2.3.3.6.6.6.4s0-.4-.1-.7c.2-.1.4-.2.5-.3.3.2.6.5.6.3v-.6c.3-.2.5-.3.8-.5.2-.2.3-.4.4-.7 0-.2.1-.4.3-.6.1-.2.3-.3.6-.3 0 .3-.1.5-.3.8l-.3.9c0 .3 0 .6.1 1 .1.1.1.3.1.4s0 .3-.1.4c-.3-.2-.6-.3-.5-.1 0 .2.1.4.2.6-.1.1-.2.3-.4.4-.3-.2-.7-.4-.7-.2.1.2.1.5.2.7l-.4.4c-.3-.2-.7-.4-.7-.2s.1.4.2.6c-.2.1-.3.3-.5.4-.3-.2-.7-.4-.6-.2 0 .2.1.4.2.6l-.4.4c-.3-.2-.7-.4-.6-.2.1.2.1.5.2.7-.1.1-.1.2-.2.3-.1.4-.2.8.2.9.3.1.6.3.8.5s.4.5.6.8c.4.6.7.5 1.1 0 1.3-1.8 2.9-3.3 4.7-4.5.4-.3.9-.6 1.6-.9 2.6-1.4 4.7-1.9 4.5-1.7-1.3.9-2.8 1.8-4.2 2.5-.1.1-.2.1-.3.2 2.4 1.2 5.1 1.8 7.9 1.7v-.1c1.1-2.8 5.4-4.3 2.8-2.4-1 .7-1.7 1.7-2 2.9-.1.2-.1.4-.1.5-.1 1 .1 2.1.7 3 .1.1.1.1.1.2s0 .2-.1.3c-.3.6-.4 1.2-.4 1.9 0 .3-.1.4-.4.4-3.4.1-3.3 1.1-6.6-1.1-.2-.2-.5-.4-.8-.4-.3-.1-.6 0-.9.1-.5.3-1.1.6-1.6.9-.3.2-.6.3-.9.4-.3.1-.7 0-1 0s-.7-.1-1-.3c-.3-.2-.5-.5-.7-.8 0-.1-.1-.1-.1-.1-.1-.1-.1-.2-.2-.3-.1-.1-.2-.1-.3-.1h-.3c-.1 0-.2.1-.3.2s-.3.2-.4.3c-.2.1-.3.1-.5 0-.3-.1-.5-.1-.8 0s-.5.2-.7.4c-.2.1-.3.3-.4.4-.1.2-.2.4-.2.6s0 .4.1.6.2.4.3.5c0-.3.1-.7.3-.9.4-.4.6 0 .9.1.2.1.3 0 .5 0 .2-.1.3-.2.3-.3.2-.3.4-.5.7-.2.3 0 .5.2.8.3.1.4.3.7.5 1 .2-.1.4-.1.6-.1h1l-1.8.6c-.1.1-.2.1-.2.2-.2.3-.6.6-.9.8-.4.2-.8.2-1.2.2h-.3c-.1 0-.2.1-.3.1l-.2.2c0 .1-.1.2-.1.3v.1c0 .3-.2.6-.4.8-1 1.1-.9 2.3.5 3.3-.2-.3-.4-.6-.4-1 0-.3-.1-.8.4-.8h.3c.1 0 .2-.1.3-.2s.2-.2.2-.3c0-.1.1-.2.1-.3v-.2l.1-.1c.6-.4 1.3-.7 2-.9h.2c.1-.1.3-.2.4-.3l1.5-.8-1.2 1.3c.1.2.2.4.2.6s0 .4-.1.6c0 .2-.1.3-.2.5-.1.1-.1.3-.1.5s.1.3.2.4c.2.3.4.6.5.9.1.2.2.4.4.5s.4.2.6.2c.2 0 .4 0 .6-.1.2-.1.4-.3.5-.4-.2 0-.3 0-.5-.1s-.3-.2-.4-.3c-.3-.6-.2-1.2-.4-1.9 0-.3 0-.7.2-.9 0-.1 0-.1.1-.2 0-.1 0-.2.1-.3h.1c.1-.1.1-.2.2-.3l.6-.9-.3 1.1c.5 0 .9-.2 1.3-.4s.8-.5 1.1-.9c.2-.5.6-.8 1-1l1.2-.7-1 1.1c.6 0 1.2.2 1.7.6.8.7 1.6 1.3 2.5 2 2.3 1.8 4.3.8 5.9.5 1.9-.4.7-.1 1.6-2 .2-.3.5-1.1.6-1.2.3-.5.4-1.1.4-1.6-.4-4.4 1.9-13.4 1.3-6.8-.2 2.3-1.3 6.7.2 8.3l.4.4c.2.3.4.6.4 1 .9-1 1.7-2 2.5-3.1 1.3-1.3 1.6-2 1.1-.7-1.5 3.4-6.8 7.7-7.8 8.1-2 .9-3.7 2.4-4.9 4.3-.9 1.1-1.6 2.3-2.1 3.6 3-1.4 5.8-3.1 8.6-4.8 2.6-1.7 4.2-2.8 2.7-1-2.4 2.9-9.4 6-13 7.4-.1.1-.2.1-.3.2-.3.1-.7.2-1.1.3-.3.1-.5.2-.8.2l-1.8.3C30.5 98 16.3 70.3 26 51.6c10.2-19.2 36-22.7 52.7-10.5.9.7 1.9 1.7 2.8 2.5 1.2.9 1.4-.1 0-1.9l-.3-.4c0-.2.1-.3.2-.4.2-.2.4-.3.7-.4-.6-.3-1.2-.4-1.9-.3-.8-.9-1.7-1.8-2.7-2.6-.1-.3-.1-.5 0-.8.2-.2.3-.4.5-.6-.7-.1-1.3 0-1.9.3-1-.7-2-1.4-3.1-2-.1-.2-.1-.5-.1-.7.1-.2.2-.5.4-.7-.6 0-1.3.2-1.8.6-1.3-.7-2.6-1.3-4-1.7-.1-.2-.2-.4-.1-.7.1-.3.2-.5.3-.8-.6.1-1.2.4-1.7.9-1.5-.5-3-.8-4.5-1.1-.2-.2-.3-.4-.3-.7 0-.3.1-.5.2-.8-.6.2-1.2.6-1.5 1.2-1.6-.2-3.3-.4-4.9-.4-.2-.2-.3-.4-.3-.6 0-.3 0-.5.1-.8-.6.3-1.1.8-1.3 1.4-2.1 0-4.1.3-6.2.7-.1-.1-.2-.3-.3-.4-.1-.3-.1-.6-.1-.9-.5.4-.9 1-1.1 1.7-2.1.5-4.2 1.3-6.1 2.2-.1-.1-.2-.2-.3-.4-.1-.3-.2-.7-.3-1.1-.3-.1-.9 1.4-1 2.2-2.1 1.1-4 2.4-5.8 3.9-.2 0-.4-.1-.5-.3-.2-.3-.4-.5-.5-.8-.3 0-.4 1.4-.3 2.2-2 1.5-3.8 3.2-5.5 5-.1 0-.2-.1-.3-.1-.2-.2-.4-.5-.6-.8-.3.1-.2 1.4 0 2.1-1.2 1.6-2.3 3.3-3.3 5.1-.3.1-.6.1-.9 0-.4-.2-.7-.4-1-.7-.3.2.3 2.1.8 3-.4.9-.8 1.8-1.2 2.8-.3.8-.6 1.6-.8 2.4-.1.2-.3.4-.6.5-.4.1-.7.1-.9.1-.4-.1-.8-.2-1.2-.4-.3.3 1.1 2.2 1.7 2.7-.4 1.9-.7 3.9-.9 5.8-.3.3-.6.5-1 .6-.4 0-.8-.1-1.2-.2-.2.3 1.3 1.9 2.1 2.4-.1 1.5.1 4.1.3 5.8-.1.2-.2.3-.4.4-.2.1-.3.2-.5.2-.5 0-1-.1-1.4-.3-.2.4 2.1 2.3 2.6 2.5.3 1.8.8 3.6 1.4 5.4 0 .2-.1.4-.3.6-.1.2-.3.3-.5.4-.5.2-.9.3-1.4.3-.1.5 2.3 1.5 3.3 1.7.7 1.4 1.5 2.8 2.3 4.1 0 .2 0 .5-.1.7l-.3.6c-.4.3-.9.6-1.3.8 0 .5 2.3.7 3.5.6.9 1.2 1.8 2.4 2.9 3.4 0 .4-.1.7-.3 1-.4.4-.8.7-1.2 1 .1.5 2.5.3 3.7 0 1.2 1 2.4 1.9 3.7 2.7 0 .1-.1.3-.1.4-.3.4-.6.9-1 1.2.2.4 1.9 0 3.1-.5 1.1.6 2.1 1.1 3.2 1.6 0 .2 0 .4-.1.6-.2.5-.5.9-.8 1.4.2.4 2.2-.4 3.3-1.1l.4.1c.9.3 1.8.6 2.7.8v.5c-.1.5-.3 1-.5 1.5.3.3 1.9-.7 2.8-1.6 1.3.2 2.6.4 3.9.5.2.2.3.5.3.8 0 .5-.1 1.1-.2 1.6.4.3 1.8-1.3 2.5-2.3 1.3 0 2.5-.1 3.7-.2.2.2.3.5.4.7 0 .5 0 1.1-.1 1.6.4.2 1.7-1.5 2.3-2.6 1-.1 2-.3 2.9-.5.2.2.3.4.4.6.1.5.2 1.1.2 1.6.4.2 1.4-1.6 1.9-2.8l1.8-.6c.2.2.3.4.4.7.1.5.2 1.1.2 1.6.5.2 1.8-2.3 2.1-3.3.4-.2.8-.4 1.2-.5l.5-.3c.2.1.4.3.5.6.2.5.3 1 .4 1.6.5.1 1.3-2.1 1.6-3.3.5-.2.9-.5 1.1-.6 1.8-1.2.8 2.8 1 2.5.5-.4.8-.8 1.1-1.4.3-.5.5-1.1.5-1.7-.4-1.6-1.4-3-1.3-3.1.1 0 3.1 2.8 2.5 4.4.6-.3 1.1-.8 1.5-1.3.4-.7-.8-2.3-1.3-3.1-.4-.6-.7-1.4-.7-2.2.1-.1.2.7.7 1.4.7 1 3.6 2.4 4.5 1.3-.8-.9-1.5-1.9-2.1-3l-.6-1.2c.6.5 1.2 1 1.7 1.6.5.3 1.1.4 1.7.4s1.1-.2 1.6-.5c.4-.2.5-.4.1-.7-.6-.4-1.2-.9-1.7-1.5-.9-.8-1.6-1.8-2.3-2.9.6.7 1.2 1.4 2 1.9h.4c1.3 0 2.5-.5 3.5-1.4.3-.3-.5-.5-1-.6-.4-.1-.8-.1-1.3-.2-.9-.1-1.1-.3-1-.3s.5.1.9.1c.7-.1 1.4-.4 2-.9-1.1 0-2.1-.4-3-1-.4-.4.1-.1.3 0 1.9.5 4.9-.9 6.3-2.1 0-.1-.1-.2-.2-.2.3.1.2.1.1.1-1.4-.1-2.7-.4-4-.8-1-.3-2-.8-2.8-1.6-.3-.3.2-.1.8.3.8.5 1.8.7 2.8.6.9-.1 1.8-.4 2.5-1.1 1-1.1 0-.2-1.5-.6-1.4-.4-3.3-.9-3.4-1.3 0 0 3.9 1.6 5.5-2.1.2-.4-.2 0-.8-.1-1.2-.1-2.4-.5-3.6-.9 2.1.4 4-1.7 4.4-3-.9.2-1.9.2-2.9.4-1 .3-2.1.3-3.1.1-.4-.1.2-.1.9-.2 3-.1 5.3-2.8 4.5-5.7-1.1.8-2.4 1.4-3.7 1.6-1 .4-2.1.4-3.1.2-.2-.1.1 0 .8-.1 1-.1 1.9-.5 2.6-1.2.7-.6 1.3-1.5 1.6-2.4-.6.1-4.9 1.7-6 1.5-.2-.1.3-.3 1-.5l.3-.1c.8-.3 1.4-.9 1.9-1.5.5-.7.9-1.4 1.1-2.3s.1-1.8-.1-2.7c-.7.7-1.5 1.3-2.3 1.8l.5-2.2c-1 .7-1.9 1.5-2.9 2.1l-.2.1c-1 .6-2.5 1.6-2.8 1.7s7.3-4.4 2.7-11c-.5 1.8-1.2 3.5-2.1 5.1-.7 1-1.5 1.8-2.5 2.6-.3.2 0-.1.4-.6s.8-1 1.1-1.5c1.1-1.6 1.3-2.1.8-3.8-.4-1.4-.2-1.2-.9.1-.9 2-2.3 3.8-4 5.2-.3.2-.6.3-1 .3 0 0 3-2.6 3.2-5 .1-1.6-.3-3.1-1.1-4.5-.6-1-1.4-1.7-2.3-2.2.1 4.1 0 7-3.8 9.8-.2.2 0-.1.3-.6.9-1.2 2.2-3 1.9-4.5-.2-.9-.6-1.7-1.2-2.3-.1.3-.1.6-.1.8-.4 2.3-1.9 4.8-4.3 5.5-.3 0 .1 0 .5-.3 2.5-1.3 2.6-6 .9-7.3-.8 2.3-1.4 5.3-4 5.6-1.7.2-.3-1.2 0-2 0-.1.2-.4.3-.4-1.1.6-2.1 1.4-3.1 2.2-.1.1-.2.1-.3.1s-.2 0-.3-.1c-.8-.5 1.6-3 .5-2.2-.2.1-2.4 1.8-3 2.2-.2.1-.3.1-.5.1-.3-.1.7-1.5 1.3-2.1.1-.1.3-.2.4-.4h-.6c-.2.1-.4.1-.5.3-.8.4-2.2 1.8-3.1 2.2-.2.1-.2.3-.2-.1.3-.4 1.5-2.5.4-1.7-.8.6-1.5 1.3-2.2 2-.1.1-.3.2-.4.3-.2.1-.5.4-.6.1.2-.6.4-1.1.7-1.6-.9.6-1.7 1.3-2.4 2.2-.2.2-.5.5-.6.3.1-.6.3-1.1.4-1.6-.2 0-1.9 2-2.5 2.5-.2.1-.4.3-.5.4-.9.4-1.6 1-2.3 1.8-.1.1-.2.1-.3.1-.4.1-.8.4-1.2.7-.6.7-1.2 1.5-1.7 2.3-.2.2-.3.5-.3.7-.1.3 0 .5 0 .8.1.3.2.5.3.7.2.2.4.4.6.5 0 .5.1.5.3.6zm-.4-1.6c-.1.2-.1.1-.2-.1-.4-.7.2-.8.3-.4v.3s0 .1-.1.2zm4.4-3.4c-.4.3-.9.3-1 0 0-.2.1-.4.2-.6.1-.2.3-.3.5-.4.4-.3.9-.3 1 0 0 .2-.1.4-.2.6-.2.1-.3.3-.5.4zm5.5-.1c.1 1.1-.5-2.2-1.7-1.8-.1 0-.6.1-.6.2-.6.3 2-2.2 2.3 1.6zm-1.3 5.1c-.9.7-1.7 1.5-2.4 2.3l-1.1 1.2v-.2c.6-.9 1.3-1.7 2.1-2.4.6-.5 1-.8 1.3-1.1 1.6-1.1 2.2-1.4.1.2zm12-8.9c-2-.4-4-.5-6-.3l-3.4.4s7.6-2.7 10.7.1c.8.9-.4 0-1.3-.2zm8.2 5.9c-.5-.6-1.2-1-2-1.2-.9-.2-1.7-.1-2.5.3-.6.3-1 .4-.2-.2.6-.5 1.4-.7 2.1-.7.8 0 1.5.3 2.1.9.5.4.8.9 1.1 1.4-.3-.2-.5-.4-.6-.5zM63.7 102c-5 1.7-10.3 2.3-15.5 1.6-2.1-.3-4.2-.7-6.3-1.3-8.4-2.2-15.7-7.7-20.2-15.4-2.9-5.2-4.4-11.2-4.1-17.2.2-7.9 2.5-15.6 6.7-22.3C28 41.5 34 37 40 34c1.4-.7 2.8-1.3 4.3-1.7 1.6-.5 3.3-.8 4.9-1.1 1.9-.3 3.9-.4 5.8-.3 0 .1-1.9.2-3.7.4-2.5.2-4.9.7-7.3 1.4-.2.1-.4.1-.6.2-5 1.8-9.5 4.6-13.4 8.3-4.5 4.4-7.9 10-9.7 16.2-10.6 32.5 20.7 55.9 53 40.2-3 1.8-6.3 3.2-9.6 4.4zm12.4-8.8c5-9.1 7-14.2 1.7-23.3-.8-1.6-1.9-2.9-3.3-3.9l.1-.2c.1.1.2.1.3.2 2.3 1.5 4.3 4.5 5.5 7.9.7 1.8 1.1 3.7 1.1 5.7 0 1.9-.3 3.9-1.1 5.7-1 2.8-2.5 5.4-4.3 7.9zm42.2-18.4c.4 0 .7-.1.9-.3.2-.2.3-.4.3-.7 0-.3-.2-.5-.6-.7s-.9-.4-1.5-.7c-.6-.3-1.3-.6-2-.9-.7-.4-1.4-.8-2-1.4s-1.1-1.3-1.5-2.1c-.4-.8-.6-1.9-.6-3.1 0-.9.2-1.9.6-2.7.4-.9 1-1.7 1.7-2.4.8-.7 1.7-1.3 2.7-1.7 1.1-.4 2.3-.6 3.6-.6 1.4 0 2.6.2 3.6.6 1 .4 1.9.8 2.6 1.2.8.5 1.5 1.2 2.1 1.8l-2.9 4.9-1.2-.9c-.4-.2-.8-.4-1.3-.6s-1-.3-1.5-.3c-.4 0-.7.1-.9.3-.2.2-.3.4-.3.7 0 .3.2.5.6.8.4.2.9.4 1.5.7.6.2 1.3.5 2 .9s1.4.8 2 1.4c.6.5 1.1 1.2 1.5 2.1.4.8.6 1.9.6 3.1 0 .9-.2 1.9-.6 2.8s-1 1.7-1.7 2.4c-.8.7-1.7 1.2-2.8 1.6-1.1.4-2.3.6-3.6.6-1.7 0-3.1-.2-4.4-.6-1.2-.4-2.2-.9-2.9-1.4-.9-.6-1.6-1.2-2.2-2l2.9-4.9c.4.4.9.8 1.4 1.1.5.3 1 .5 1.7.7.7.2 1.4.3 2.2.3zm12.2-18.1h7.4V81h-7.4V56.7zm9.8 15.6c0-1.3.2-2.5.7-3.6s1.1-2.1 1.9-2.9c.8-.8 1.8-1.5 2.9-2 1.1-.5 2.4-.7 3.8-.7s2.6.2 3.8.7 2.2 1.1 3 2c.8.8 1.5 1.8 1.9 2.9.5 1.1.7 2.3.7 3.6 0 1.3-.2 2.5-.7 3.6s-1.1 2.1-1.9 2.9c-.8.8-1.8 1.5-3 2-1.1.5-2.4.7-3.8.7s-2.7-.2-3.8-.7-2.1-1.1-2.9-2c-.8-.8-1.5-1.8-1.9-2.9s-.7-2.3-.7-3.6zm11.4 0c0-.7-.2-1.3-.6-1.8-.4-.5-.8-.7-1.4-.7-.5 0-1 .2-1.4.7-.4.4-.6 1-.6 1.8 0 .7.2 1.3.6 1.8.4.4.9.7 1.4.7s1-.2 1.4-.7c.4-.4.6-1 .6-1.8zm8.9-2.1v-6.6h2.1V58h7.4v5.6h2.8v6.6h-2.8V73c0 .7.1 1.2.4 1.5.3.3.7.5 1.1.5h.4c.1 0 .3 0 .4-.1.1 0 .3-.1.4-.1v6.6c-.2.1-.5.1-.8.2-.2 0-.5.1-.9.1-.3 0-.7.1-1.1.1-2.3 0-4.1-.7-5.4-2.2-1.3-1.5-1.9-3.7-1.9-6.5v-2.8l-2.1-.1zm14.7 2.1c0-1.3.2-2.5.7-3.6s1.1-2.1 1.9-2.9c.8-.8 1.8-1.5 2.9-2 1.1-.5 2.4-.7 3.8-.7s2.6.2 3.8.7 2.2 1.1 3 2c.8.8 1.5 1.8 1.9 2.9.5 1.1.7 2.3.7 3.6 0 1.3-.2 2.5-.7 3.6s-1.1 2.1-1.9 2.9c-.8.8-1.8 1.5-3 2-1.1.5-2.4.7-3.8.7s-2.7-.2-3.8-.7-2.1-1.1-2.9-2c-.8-.8-1.5-1.8-1.9-2.9-.5-1.1-.7-2.3-.7-3.6zm11.3 0c0-.7-.2-1.3-.6-1.8-.4-.5-.8-.7-1.4-.7-.5 0-1 .2-1.4.7-.4.4-.6 1-.6 1.8 0 .7.2 1.3.6 1.8.4.4.9.7 1.4.7s1-.2 1.4-.7c.4-.4.6-1 .6-1.8zm18.1 2.5h5.8V81h-14.7v-6.2l5.5-4.9h-5.2v-6.2h14.1v6.2l-5.5 4.9zm16-11.2V81h-7.4V63.6h7.4zm-7.4-8.2h7.4v6.2h-7.4v-6.2zm10.4 1.3h7.4V81h-7.4V56.7zm10.5 0h7.4V81h-7.4V56.7zm17.6 6.4c1.3 0 2.5.2 3.6.7 1.1.5 2.1 1.1 2.9 2 .8.8 1.5 1.8 1.9 2.9s.7 2.3.7 3.6V81h-7.1l-.6-2c-.3.5-.6.9-1 1.2-.3.3-.7.6-1.3.8-.5.3-1.1.4-1.8.4-.8 0-1.6-.1-2.3-.4s-1.3-.6-1.7-1.1c-.5-.5-.8-1.1-1.1-1.7-.2-.7-.4-1.4-.4-2.2s.1-1.5.4-2.2c.3-.7.7-1.2 1.3-1.7s1.3-.9 2.3-1.1c.9-.3 2.1-.4 3.4-.4h2.5c-.1-.3-.2-.6-.5-.9-.2-.2-.5-.4-.9-.6-.3-.2-.8-.3-1.4-.3-.4 0-.8.1-1.1.2s-.6.3-.9.5c-.3.2-.6.4-.8.7l-2.6-4.4c.4-.5 1-.9 1.7-1.3.6-.3 1.2-.6 2-.9.8-.3 1.7-.5 2.8-.5zm.1 13.2c.4 0 .7-.2 1-.7.3-.4.5-1.2.5-2.1-.9 0-1.5.2-1.9.5-.4.4-.6.8-.6 1.3 0 .2.1.5.3.7.3.2.5.3.7.3z" fill="#fff"/></svg>