<svg width="476" height="60" fill="none" xmlns="http://www.w3.org/2000/svg"><path d="M23.484 59.05L18.5 54.5l-5.443-37.38c-.655-2.579-1.29-4.705-1.902-6.378A35.662 35.662 0 009 5.958h8.335L21 3l4.703 2.958c-.212 1.72-.307 3.223-.286 4.512a21.8 21.8 0 00.476 4.071l4.183 21.17 5.578-22.052c.317-1.266.613-2.646.888-4.139.274-1.492.454-2.68.538-3.562L42 3l4.303 2.958c.106 1.109.275 2.409.507 3.902.254 1.492.518 2.759.793 3.8l5.514 23.034 4.881-24.595c.212-.995.296-1.945.254-2.85-.043-.927-.212-2.024-.507-3.29h8.018l3.93-3.459 4.089 3.458a34.898 34.898 0 00-2.187 4.818c-.613 1.673-1.247 3.788-1.902 6.343L59.266 59.05H49.029L44.5 54.5l-3.3-22.59-7.479 27.14H23.484z" fill="url(#paint0_linear)"/><path d="M79.106 47.889v-30.77c0-2.442-.137-4.5-.412-6.174a23.864 23.864 0 00-1.331-4.987h8.272L90.5 2.5l3.439 3.458a25.332 25.332 0 00-1.363 4.987c-.254 1.674-.38 3.732-.38 6.174v9.567h14.547V17.12c0-2.442-.137-4.5-.412-6.174A23.876 23.876 0 00105 5.958h8.272L119 3l2.575 2.958a25.35 25.35 0 00-1.362 4.987c-.254 1.674-.381 3.732-.381 6.174v30.77c0 2.442.127 4.5.381 6.174a25.35 25.35 0 001.362 4.987H105L102 55c.275-1.674 4.743-4.669 4.743-7.111V37.305H92.196v10.584c0 2.442.126 4.5.38 6.174a25.333 25.333 0 001.363 4.987H77.363S73.99 54.563 74 54.5c.254-1.674 5.106-4.169 5.106-6.611z" fill="url(#paint1_linear)"/><path d="M155.171 60c-7.818 0-14.22-2.556-19.207-7.667-4.965-5.111-7.448-11.681-7.448-19.71 0-8.051 2.483-14.633 7.448-19.744 4.987-5.134 11.389-7.7 19.207-7.7 7.838 0 14.241 2.566 19.206 7.7 4.965 5.111 7.448 11.693 7.448 19.744 0 8.029-2.483 14.599-7.448 19.71C169.412 57.444 163.009 60 155.171 60zm7.416-10.38c1.5-1.493 2.726-3.767 3.676-6.82.951-3.053 1.427-6.23 1.427-9.532 0-5.677-1.86-10.166-5.579-13.468-3.718-3.325-8.504-4.739-14.357-4.241-1.5 1.493-2.725 3.777-3.676 6.853-.951 3.053-1.426 6.242-1.426 9.566 0 5.654 1.859 10.133 5.578 13.434 3.74 3.303 8.525 4.705 14.357 4.207z" fill="url(#paint2_linear)"/><path d="M222.202 59.05l-10.427-41.93c-.655-2.579-1.289-4.705-1.901-6.378a35.57 35.57 0 00-2.156-4.784L206 1l10.054 4.958 7.776-1.794.591 1.794c-.211 1.72-.306 3.223-.285 4.512a21.78 21.78 0 00.475 4.071l4.184 21.17 5.578-22.052c.317-1.266.612-2.646.887-4.139.275-1.492.454-2.68.539-3.562h4.596l3.988-1.794.639 1.794a66.3 66.3 0 00.507 3.902c.253 1.492.518 2.759.792 3.8l5.515 23.034 4.881-24.595c.211-.995.296-1.945.253-2.85-.042-.927-.211-2.024-.507-3.29h8.019L273 1.5V5c-.845 1.538-2.074 4.102-2.687 5.776-.613 1.673-1.246 3.788-1.901 6.343L257.984 59.05h-10.237l-7.828-27.14-7.48 27.14h-10.237z" fill="url(#paint3_linear)"/><path d="M274.327 59.05C274.961 57.4 276 55.5 276.5 54c.275-1.674 1.483-3.669 1.483-6.111v-30.77c0-2.442-.137-4.5-.412-6.174a23.876 23.876 0 00-1.331-4.987L277 1l14.072 4.958L306.919 4v1.958l-2.44 5.768-2.441 5.8c-1.183-.61-3.116-1.153-5.799-1.628a53.941 53.941 0 00-5.167-.61v12.077l14.77-2.266v2.266l-2.98 5.8-3.01 5.836c-1.268-.633-3.128-1.188-5.578-1.662a26.654 26.654 0 00-3.202-.475v12.823c3.318-.181 16.312-6.978 18.7-7.453v2.636l-2.726 7.09-2.757 7.09H274.327z" fill="url(#paint4_linear)"/><path d="M339.278 47.889l13.375-34.569a65.918 65.918 0 001.585-4.478c.443-1.425.686-2.386.729-2.884L358 1.5l7.996 4.458c.042.498.285 1.46.729 2.884a65.918 65.918 0 001.585 4.478l13.406 34.569c1.162 2.895 7.96 5.437 8.784 7.111l-3.238 4.05H371.447c.085-.746.043-1.572-.126-2.476-.17-.928-.508-2.149-1.015-3.664l-2.44-7.26h-15.815l-2.25 7.26c-.486 1.515 1.347 1.163 1.199 2.09-.148.905-2.33 3.304-2.245 4.05h-15.086s.803-3.2.757-3.11c.845-1.674 3.711-5.224 4.852-8.051zm20.411-26.563l-4.722 15.063h9.825l-5.103-15.063z" fill="url(#paint5_linear)"/><path d="M391.287 47.889v-30.77c0-2.442-.137-4.5-.412-6.174a23.814 23.814 0 00-1.331-4.987L393 2.5l4.816 3.458h8.938c6.106 0 10.818 1.369 14.135 4.105 3.317 2.737 4.976 6.627 4.976 11.67 0 4.817-1.838 8.651-5.515 11.5a16.292 16.292 0 01-4.342 2.443l7.924 12.213c1.606 2.465 11.336 5.19 12.752 6.864 0 0-3.407 4.233-3.339 4.297h-13.597c-.866 0-2.345-1.255-4.437-3.765-2.07-2.51-4.183-5.575-6.339-9.194l-4.595-7.972v9.77c0 2.442 4.869 5.437 5.123 7.111l-3.38 4.05h-16.576a25.354 25.354 0 001.363-4.987c.254-1.673.38-3.732.38-6.174zm13.09-18.184h.412c2.409 0 4.384-.712 5.927-2.137 1.542-1.425 2.313-3.257 2.313-5.495 0-1.99-.729-3.62-2.187-4.886-1.458-1.266-3.327-1.9-5.609-1.9h-.856v14.418z" fill="url(#paint6_linear)"/><path d="M435.468 59.05a23.815 23.815 0 001.331-4.987c.275-1.673.412-3.732.412-6.174v-30.77c0-2.442-.137-4.5-.412-6.174a23.814 23.814 0 00-1.331-4.987L440 2.5l10.301 3.458h15.847V14l-4.881 3.527c-1.183-.611-3.117-1.154-5.8-1.629a53.96 53.96 0 00-5.166-.61v12.077h14.769L464 35l-4.92 4c-1.268-.633-3.127-1.187-5.578-1.661a26.668 26.668 0 00-3.201-.475v12.823c3.317-.181 6.17-.509 8.557-.984A34.921 34.921 0 00469 44.87l-2.726 7.09L468.5 55l-4.983 4.05h-28.049z" fill="url(#paint7_linear)"/><path d="M18.799 55.064L16 52 8.145 13.762c-.67-2.54-1.317-4.634-1.943-6.282A34.511 34.511 0 004 2.768h8.517L18 1l3.066 1.768c-.216 1.693-.313 3.174-.292 4.444.022 1.27.184 2.607.486 4.01l4.274 20.852 5.7-21.72c.323-1.248.626-2.607.906-4.077.281-1.47.465-2.64.55-3.51L39.5 1l2.614 1.768c.108 1.091.28 2.372.518 3.843.26 1.47.53 2.718.81 3.742l5.635 22.69 4.986-24.227c.216-.98.303-1.916.26-2.807-.044-.913-.216-1.994-.519-3.241h8.193L67.5 1l2.69 1.768a33.796 33.796 0 00-2.234 4.745c-.627 1.648-1.274 3.731-1.944 6.249L55.36 55.064h-10.46L42.5 52l-5.6-23.669-7.642 26.733H18.8zM75.63 44.07V13.762c0-2.406-.14-4.433-.42-6.082a22.83 22.83 0 00-1.36-4.912H82.3L88.5 1l2.285 1.768a24.257 24.257 0 00-1.392 4.912c-.26 1.649-.389 3.676-.389 6.082v9.423h14.864v-9.423c0-2.406-.141-4.433-.421-6.082a22.864 22.864 0 00-1.36-4.912h8.452L117 1l2.023 1.768a24.26 24.26 0 00-1.393 4.912c-.259 1.649-.388 3.676-.388 6.082V44.07c0 2.406.129 4.433.388 6.082a24.259 24.259 0 001.393 4.912h-16.936L100.5 52c.281-1.648 3.368-5.524 3.368-7.93V33.644H89.004V44.07c0 2.406.13 4.433.389 6.082.28 1.648.745 3.285 1.392 4.912H73.85S71.99 52.062 72 52c.26-1.648 3.63-5.524 3.63-7.93zM153.348 56c-7.987 0-14.529-2.518-19.624-7.553-5.073-5.034-7.609-11.506-7.609-19.414 0-7.93 2.536-14.414 7.609-19.448 5.095-5.057 11.637-7.586 19.624-7.586 8.01 0 14.551 2.529 19.624 7.586 5.073 5.034 7.61 11.517 7.61 19.448 0 7.908-2.537 14.38-7.61 19.414C167.899 53.482 161.358 56 153.348 56zm7.578-10.226c1.533-1.47 2.785-3.71 3.756-6.717.972-3.007 1.457-6.137 1.457-9.39 0-5.59-1.899-10.013-5.699-13.265-3.8-3.275-8.689-4.668-14.669-4.177-1.533 1.47-2.785 3.72-3.757 6.75-.971 3.007-1.457 6.148-1.457 9.423 0 5.57 1.9 9.98 5.699 13.232 3.822 3.253 8.711 4.634 14.67 4.144zM221.837 55.064l-10.654-41.302c-.669-2.54-1.316-4.634-1.943-6.282a34.498 34.498 0 00-2.202-4.712h8.517L223.5 1l.604 1.768c-.216 1.693-.313 3.174-.291 4.444.021 1.27.183 2.607.485 4.01l4.275 20.852 5.699-21.72c.324-1.248.626-2.607.907-4.077.281-1.47.464-2.64.55-3.51h4.696L244.5 1l.653 1.768c.108 1.091.28 2.372.518 3.843.259 1.47.529 2.718.809 3.742l5.635 22.69 4.987-24.227c.216-.98.302-1.916.259-2.807-.043-.913-.216-1.994-.518-3.241h8.193L273 1l.228 1.768a33.839 33.839 0 00-2.234 4.745c-.626 1.648-1.274 3.731-1.943 6.249l-10.654 41.302h-10.459l-7.999-26.733-7.642 26.733h-10.46zM276 55.064c.648-1.627 1.241-3.416 1.5-5.065.281-1.648 1.331-3.523 1.331-5.93V13.763c0-2.406-.141-4.433-.421-6.082a22.867 22.867 0 00-1.361-4.912L277 1l15.204 1.768 16.192-1.93v1.93l-2.494 5.68-2.493 5.715c-1.209-.602-3.184-1.136-5.926-1.604a57.066 57.066 0 00-5.279-.602v11.896l15.091-2.231v2.231l-3.044 5.714-3.077 5.748c-1.295-.624-3.195-1.17-5.699-1.637a28.152 28.152 0 00-3.271-.468v12.63c3.39-.177 16.667-6.873 19.106-7.34v2.596l-2.785 6.984-2.817 6.984H276zM341.458 44.07l13.666-34.05a63.207 63.207 0 001.619-4.412c.453-1.403.701-2.35.745-2.84h11.269c.043.49.291 1.437.745 2.84a63.207 63.207 0 001.619 4.411l13.698 34.05c1.187 2.852 5.339 6.282 6.181 7.931l-.515 3.064h-16.158c.086-.736.043-1.549-.13-2.44-.173-.913-.518-2.116-1.036-3.609l-2.494-7.15h-16.159l-2.299 7.15c-.496 1.493-.82 2.696-.971 3.61-.151.89-.184 1.703-.097 2.439h-15.414s.82-3.152.773-3.064c.864-1.648 3.793-5.145 4.958-7.93zm20.855-26.165l-4.825 14.837h10.038l-5.213-14.837zM394.598 44.07V13.762c0-2.406-.14-4.433-.421-6.082a22.806 22.806 0 00-1.36-4.912L394 1l7.269 1.768h9.132c6.239 0 11.053 1.348 14.442 4.043 3.39 2.696 5.084 6.527 5.084 11.495 0 4.745-1.878 8.521-5.634 11.328a16.843 16.843 0 01-4.437 2.406l8.096 12.03c1.641 2.428 9.602 6.282 11.048 7.93 0 0-1.5 3-1.43 3.064h-13.892c-.886 0-2.397-1.237-4.534-3.71-2.116-2.472-4.274-5.49-6.476-9.055l-4.696-7.853v9.624c0 2.406 2.269 6.282 2.528 7.93l-.747 3.064h-16.936a24.19 24.19 0 001.392-4.912c.26-1.649.389-3.676.389-6.082zm13.374-17.911h.421c2.461 0 4.48-.702 6.056-2.105 1.575-1.404 2.363-3.208 2.363-5.414 0-1.96-.744-3.564-2.234-4.812-1.49-1.247-3.4-1.87-5.732-1.87h-.874v14.201zM439.739 55.064a22.805 22.805 0 001.36-4.912c.281-1.649.421-3.676.421-6.082V13.762c0-2.406-.14-4.433-.421-6.082a22.806 22.806 0 00-1.36-4.912L441.52 1l13.374 1.768h16.192l-2.494 5.68L468 12l-1.901 2.163c-1.209-.602-3.185-1.136-5.926-1.604a57.066 57.066 0 00-5.279-.602v11.896h15.091l-3.044 5.714-3.077 5.748c-1.295-.624-3.195-1.17-5.699-1.637a28.152 28.152 0 00-3.271-.468v12.63c3.39-.177 6.304-.5 8.744-.968A36.523 36.523 0 00474 41.096l-2.785 6.984L470 52l-1.602 3.064h-28.659z" fill="#B11414"/><path d="M15.934 51.951L5.17 11.516c-.676-2.487-1.33-4.537-1.962-6.15A33.318 33.318 0 00.983.751h17.241c-.218 1.658-.317 3.108-.295 4.352.022 1.243.186 2.551.49 3.925l4.32 20.414L28.495 8.18c.327-1.222.633-2.552.916-3.992.284-1.439.469-2.584.556-3.435h9.52c.11 1.07.284 2.323.524 3.763.261 1.44.534 2.66.818 3.664l5.692 22.213L51.56 6.674c.218-.96.305-1.876.262-2.748-.044-.894-.218-1.952-.524-3.174h16.554a32.627 32.627 0 00-2.257 4.646c-.633 1.614-1.287 3.653-1.963 6.118L52.869 51.95H42.302l-8.08-26.172L26.5 51.951H15.933z" fill="url(#paint8_linear)"/><path d="M73.348 41.188V11.516c0-2.356-.142-4.34-.425-5.954a21.818 21.818 0 00-1.374-4.81h17.11a23.182 23.182 0 00-1.407 4.81c-.262 1.613-.393 3.598-.393 5.954v9.225h15.016v-9.225c0-2.356-.141-4.34-.425-5.954a21.844 21.844 0 00-1.374-4.81h17.11a23.232 23.232 0 00-1.407 4.81c-.261 1.613-.392 3.598-.392 5.954v29.672c0 2.355.131 4.34.392 5.954a23.234 23.234 0 001.407 4.81h-17.11a21.846 21.846 0 001.374-4.81c.284-1.614.425-3.599.425-5.954V30.981H86.859v10.207c0 2.355.131 4.34.393 5.954a23.184 23.184 0 001.407 4.81h-17.11a23.19 23.19 0 001.407-4.81c.261-1.614.392-3.599.392-5.954z" fill="url(#paint9_linear)"/><path d="M151.864 52.867c-8.07 0-14.678-2.464-19.825-7.393-5.126-4.93-7.688-11.265-7.688-19.008 0-7.764 2.562-14.11 7.688-19.04C137.186 2.476 143.794 0 151.864 0c8.091 0 14.7 2.475 19.825 7.426 5.125 4.93 7.688 11.276 7.688 19.04 0 7.743-2.563 14.079-7.688 19.008-5.125 4.929-11.734 7.393-19.825 7.393zm7.655-10.01c1.549-1.44 2.814-3.632 3.795-6.576a28.89 28.89 0 001.472-9.193c0-5.474-1.919-9.804-5.758-12.988-3.838-3.206-8.778-4.57-14.82-4.09-1.548 1.44-2.813 3.643-3.794 6.61-.982 2.944-1.473 6.019-1.473 9.225 0 5.452 1.92 9.77 5.758 12.955 3.861 3.184 8.801 4.536 14.82 4.056z" fill="url(#paint10_linear)"/><path d="M221.056 51.951l-10.764-40.435c-.676-2.487-1.33-4.537-1.962-6.15a33.331 33.331 0 00-2.225-4.614h17.241c-.218 1.658-.317 3.108-.295 4.352.022 1.243.186 2.551.491 3.925l4.318 20.414 5.758-21.264c.327-1.222.633-2.552.916-3.992.284-1.439.469-2.584.556-3.435h9.52a60.85 60.85 0 00.524 3.763c.262 1.44.534 2.66.818 3.664l5.692 22.213 5.038-23.718c.218-.96.305-1.876.262-2.748-.044-.894-.218-1.952-.524-3.174h16.554a32.614 32.614 0 00-2.257 4.646c-.633 1.614-1.287 3.653-1.963 6.118L257.991 51.95h-10.567l-8.081-26.172-7.72 26.172h-10.567z" fill="url(#paint11_linear)"/><path d="M276.834 51.951a21.738 21.738 0 001.374-4.809c.284-1.614.426-3.599.426-5.954V11.516c0-2.356-.142-4.34-.426-5.954a21.736 21.736 0 00-1.374-4.81h31.668l-2.519 5.562-2.519 5.594c-1.221-.589-3.217-1.112-5.986-1.57a59.453 59.453 0 00-5.333-.589v11.646h15.245l-3.075 5.595-3.108 5.627c-1.309-.611-3.228-1.145-5.758-1.603a29.276 29.276 0 00-3.304-.458v12.366c3.424-.175 6.369-.49 8.833-.949a37.657 37.657 0 0010.469-3.697l-2.814 6.838-2.846 6.837h-28.953z" fill="url(#paint12_linear)"/><path d="M341.904 41.188L355.71 7.852a61.057 61.057 0 001.636-4.319c.458-1.374.709-2.3.752-2.78h11.385c.044.48.294 1.406.752 2.78a61.057 61.057 0 001.636 4.319l13.838 33.336c1.2 2.792 2.225 4.994 3.076 6.608.872 1.614 1.755 3 2.65 4.155H375.11c.087-.72.043-1.516-.131-2.388-.174-.894-.523-2.072-1.047-3.533l-2.519-7.001h-16.325l-2.322 7c-.502 1.462-.829 2.64-.982 3.534-.152.872-.185 1.668-.098 2.388h-15.572c.938-1.221 1.843-2.639 2.715-4.253.872-1.614 1.898-3.784 3.075-6.51zm21.069-25.616l-4.875 14.526h10.142l-5.267-14.526z" fill="url(#paint13_linear)"/><path d="M395.589 41.188V11.516c0-2.356-.141-4.34-.425-5.954a21.844 21.844 0 00-1.374-4.81h17.764c6.303 0 11.167 1.32 14.591 3.959 3.424 2.639 5.136 6.39 5.136 11.254 0 4.645-1.897 8.342-5.692 11.09a17.208 17.208 0 01-4.482 2.356l8.179 11.777c1.657 2.377 3.217 4.373 4.678 5.987 1.461 1.614 3.14 3.206 5.038 4.776h-14.035c-.894 0-2.421-1.21-4.58-3.631-2.137-2.421-4.318-5.376-6.543-8.866l-4.743-7.688v9.422c0 2.355.13 4.34.392 5.954a23.234 23.234 0 001.407 4.81h-17.11a23.234 23.234 0 001.407-4.81c.261-1.614.392-3.599.392-5.954zm13.512-17.535h.425c2.486 0 4.525-.687 6.118-2.061 1.592-1.374 2.388-3.14 2.388-5.3 0-1.92-.753-3.49-2.258-4.71-1.504-1.222-3.435-1.833-5.79-1.833h-.883v13.904z" fill="url(#paint14_linear)"/><path d="M441.194 51.951a21.846 21.846 0 001.374-4.809c.283-1.614.425-3.599.425-5.954V11.516c0-2.356-.142-4.34-.425-5.954a21.844 21.844 0 00-1.374-4.81h31.668l-2.519 5.562-2.519 5.594c-1.222-.589-3.217-1.112-5.987-1.57a59.453 59.453 0 00-5.333-.589v11.646h15.245l-3.075 5.595-3.108 5.627c-1.308-.611-3.227-1.145-5.757-1.603a29.324 29.324 0 00-3.305-.458v12.366c3.425-.175 6.369-.49 8.833-.949a37.645 37.645 0 0010.469-3.697l-2.813 6.838-2.847 6.837H441.194z" fill="url(#paint15_linear)"/><path opacity=".5" fill-rule="evenodd" clip-rule="evenodd" d="M151.864 51.115c-8.07 0-14.678-2.465-19.825-7.394-4.904-4.715-7.462-10.718-7.674-18.008-.01.33-.014.664-.014 1 0 7.743 2.562 14.08 7.688 19.008 5.147 4.93 11.755 7.394 19.825 7.394 8.091 0 14.7-2.465 19.825-7.394s7.688-11.265 7.688-19.007c0-.337-.005-.67-.014-1.002-.213 7.29-2.771 13.294-7.674 18.01-5.125 4.928-11.734 7.393-19.825 7.393zM138.96 25.013c-.012-.303-.019-.61-.019-.92 0-3.207.491-6.282 1.473-9.226.981-2.966 2.246-5.17 3.794-6.609 6.042-.48 10.982.884 14.82 4.09 3.839 3.184 5.758 7.513 5.758 12.987 0 .36-.006.718-.019 1.074-.206-5.038-2.119-9.059-5.739-12.061-3.838-3.206-8.778-4.57-14.82-4.09-1.548 1.44-2.813 3.643-3.794 6.609a28.784 28.784 0 00-1.454 8.146zM5.17 9.763L15.934 50.2H26.5l7.721-26.172 8.08 26.172H52.87L63.632 9.763c.676-2.464 1.33-4.504 1.963-6.117.353-.903.744-1.785 1.173-2.646h1.084a32.627 32.627 0 00-2.257 4.646c-.633 1.613-1.287 3.653-1.963 6.117L52.869 52.2H42.302l-8.08-26.172L26.5 52.199H15.933L5.17 11.763c-.676-2.486-1.33-4.536-1.962-6.15A33.318 33.318 0 00.983 1h1.073c.417.847.801 1.718 1.152 2.613.632 1.614 1.286 3.664 1.962 6.15zM18.01 1a24.724 24.724 0 00-.08 2.351c.003.2.01.403.02.608.041-.9.132-1.886.274-2.959h-.213zm33.77 2.612c.051-.492.065-.972.042-1.439A12.305 12.305 0 0051.703 1h-.405c.244.975.404 1.845.481 2.612zm21.568 6.151v2c0-2.355-.142-4.34-.425-5.954A21.818 21.818 0 0071.549 1h.717c.285.933.504 1.869.657 2.81.283 1.613.425 3.598.425 5.953zM87.936 1a22.479 22.479 0 00-.684 2.81c-.262 1.613-.393 3.598-.393 5.953v2c0-2.355.131-4.34.393-5.954A23.182 23.182 0 0188.659 1h-.723zm13.939 10.763v-2c0-2.355-.141-4.34-.425-5.954A21.015 21.015 0 00100.793 1h-.717a21.845 21.845 0 011.374 4.81c.284 1.613.425 3.598.425 5.953zM116.463 1a22.46 22.46 0 00-.684 2.81c-.261 1.613-.392 3.598-.392 5.953v2c0-2.355.131-4.34.392-5.954A23.232 23.232 0 01117.186 1h-.723zm0 49.199h-15.67a23.044 23.044 0 01-.717 2h17.11a24.518 24.518 0 01-.723-2zm-14.588-18.97v-2H86.859v2h15.016zm-13.939 18.97H72.271c-.208.668-.449 1.335-.722 2h17.11a24.255 24.255 0 01-.723-2zM210.292 9.763L221.056 50.2h10.567l7.72-26.172 8.081 26.172h10.567l10.763-40.436c.676-2.464 1.33-4.504 1.963-6.117.353-.903.744-1.785 1.173-2.646h1.084a32.614 32.614 0 00-2.257 4.646c-.633 1.613-1.287 3.653-1.963 6.117L257.991 52.2h-10.567l-8.081-26.172-7.72 26.172h-10.567l-10.764-40.436c-.676-2.486-1.33-4.536-1.962-6.15A33.331 33.331 0 00206.105 1h1.073c.417.847.801 1.718 1.152 2.613.632 1.614 1.286 3.664 1.962 6.15zM223.133 1a24.836 24.836 0 00-.082 2.351c.004.2.011.404.022.608.041-.9.132-1.886.273-2.959h-.213zm33.768 2.612c.052-.492.066-.972.043-1.439A12.398 12.398 0 00256.826 1h-.406c.244.975.404 1.845.481 2.612zm20.65 46.587a22.4 22.4 0 01-.717 2h28.953l2.846-6.838 2.814-6.837c-.345.183-.693.36-1.042.532l-1.772 4.305-2.846 6.838H277.551zm14.594-19.396c1.091.087 2.192.24 3.304.458 2.53.458 4.449.993 5.758 1.603l3.108-5.627 3.075-5.594h-1.099l-1.976 3.594-3.108 5.627c-1.309-.61-3.228-1.145-5.758-1.603a29.298 29.298 0 00-3.304-.458v2zm0-20.806c1.723.109 3.501.305 5.333.588 2.769.458 4.765.982 5.986 1.57l2.519-5.593L308.502 1h-.905l-1.614 3.562-2.519 5.594c-1.221-.59-3.217-1.113-5.986-1.57a59.442 59.442 0 00-5.333-.59v2zM277.551 1h-.717a21.736 21.736 0 011.374 4.81c.284 1.613.426 3.598.426 5.953v-2c0-2.355-.142-4.34-.426-5.954A21.015 21.015 0 00277.551 1zm59.958 49.199a28.157 28.157 0 01-1.395 2h15.572c-.087-.72-.054-1.516.098-2.389.153-.894.48-2.071.982-3.533l2.322-7h16.325l2.519 7c.524 1.462.873 2.64 1.047 3.533.174.873.218 1.669.131 2.389H391.435a25.626 25.626 0 01-1.393-2H375.11c.087-.72.043-1.516-.131-2.389-.174-.894-.523-2.071-1.047-3.533l-2.519-7h-16.325l-2.322 7c-.502 1.462-.829 2.64-.982 3.533-.152.873-.185 1.669-.098 2.389h-14.177zm20.589-21.854l4.875-14.525 5.267 14.525h-.725l-4.542-12.525-4.204 12.525h-.671zm37.491-16.582v-2c0-2.355-.141-4.34-.425-5.954A21.015 21.015 0 00394.507 1h-.717a21.845 21.845 0 011.374 4.81c.284 1.613.425 3.598.425 5.953zM394.513 50.2c-.209.668-.45 1.335-.723 2h17.11a24.518 24.518 0 01-.723-2h-15.664zm14.588-18.185l4.743 7.688c2.225 3.49 4.406 6.445 6.543 8.865 2.159 2.421 3.686 3.632 4.58 3.632h14.035a53.736 53.736 0 01-2.286-2h-11.749c-.894 0-2.421-1.21-4.58-3.632-2.137-2.42-4.318-5.376-6.543-8.865l-4.743-7.688v2zM422.2 29.23a16.83 16.83 0 003.389-1.928c3.795-2.748 5.692-6.445 5.692-11.09 0-.356-.009-.705-.027-1.048-.245 4.201-2.133 7.58-5.665 10.138a17.208 17.208 0 01-4.482 2.355l1.093 1.573zm-4.234-13.646c-.214-1.492-.944-2.744-2.192-3.756-1.504-1.222-3.435-1.832-5.79-1.832h-.883v-2h.883c2.355 0 4.286.61 5.79 1.832 1.505 1.221 2.258 2.791 2.258 4.71 0 .36-.022.708-.066 1.046zm23.945 34.614a23.044 23.044 0 01-.717 2H470.146l2.847-6.838 2.813-6.837c-.345.183-.692.36-1.042.532l-1.771 4.305-2.847 6.838h-28.235zm14.593-19.396c1.091.087 2.192.24 3.305.458 2.53.458 4.449.993 5.757 1.603l3.108-5.627 3.075-5.594h-1.099l-1.976 3.594-3.108 5.627c-1.308-.61-3.227-1.145-5.757-1.603a29.347 29.347 0 00-3.305-.458v2zm0-20.806c1.723.109 3.501.305 5.333.588 2.77.458 4.765.982 5.987 1.57l2.519-5.593L472.862 1h-.906l-1.613 3.562-2.519 5.594c-1.222-.59-3.217-1.113-5.987-1.57a59.442 59.442 0 00-5.333-.59v2zM441.911 1h-.717a21.845 21.845 0 011.374 4.81c.283 1.613.425 3.598.425 5.953v-2c0-2.355-.142-4.34-.425-5.954A21.328 21.328 0 00441.911 1z" fill="#000"/><path opacity=".65" fill-rule="evenodd" clip-rule="evenodd" d="M124.366 27.49c.217-7.3 2.775-13.305 7.673-18.015 5.147-4.95 11.755-7.426 19.825-7.426 8.091 0 14.7 2.475 19.825 7.426 4.898 4.71 7.455 10.715 7.673 18.014.01-.338.015-.679.015-1.023 0-7.764-2.563-14.11-7.688-19.04C166.564 2.476 159.955 0 151.864 0c-8.07 0-14.678 2.475-19.825 7.426-5.126 4.93-7.688 11.276-7.688 19.04 0 .344.005.685.015 1.023zm35.153 15.366c1.549-1.439 2.814-3.63 3.795-6.575a28.705 28.705 0 001.452-8.093 28.89 28.89 0 01-1.452 10.142c-.981 2.944-2.246 5.136-3.795 6.575-6.019.48-10.959-.872-14.82-4.056-3.838-3.185-5.758-7.503-5.758-12.955 0-.37.007-.74.02-1.106.211 5.01 2.124 9.013 5.738 12.012 3.861 3.184 8.801 4.536 14.82 4.056zM2.079 2.801h15.928c.05-.643.122-1.326.217-2.049H.983c.388.667.754 1.35 1.097 2.05zm15.873 2.933c-.023.5-.03.972-.023 1.418.022 1.244.186 2.552.49 3.926l4.32 20.414 5.757-21.265c.327-1.22.633-2.551.916-3.99.284-1.44.469-2.585.556-3.436h9.52a60.88 60.88 0 00.524 3.762c.261 1.44.534 2.661.818 3.664l5.692 22.214L51.56 8.723c.218-.96.305-1.876.262-2.748-.01-.189-.024-.384-.045-.587-.045.42-.117.848-.217 1.286l-5.038 23.718L40.83 8.18c-.284-1.004-.557-2.225-.818-3.664a60.878 60.878 0 01-.524-3.763h-9.52c-.087.851-.272 1.996-.556 3.436a61.167 61.167 0 01-.916 3.99l-5.758 21.265L18.42 9.03a20.337 20.337 0 01-.468-3.295zM51.71 2.8H66.745A32.43 32.43 0 0167.852.752H51.298c.186.744.324 1.427.413 2.05zm20.57 0h15.641c.212-.685.458-1.368.738-2.049h-17.11c.28.681.524 1.364.732 2.05zm14.58 17.94v2.049h15.015v-2.049H86.859zm13.948-17.94h15.64c.212-.685.458-1.368.738-2.049h-17.11c.28.681.524 1.364.732 2.05zm14.579 38.387v2.049c0 2.355.131 4.34.392 5.954.163.924.386 1.844.669 2.76h.738a23.232 23.232 0 01-1.407-4.809c-.261-1.614-.392-3.599-.392-5.954zm-14.579 10.763a21.22 21.22 0 00.642-2.76c.284-1.614.425-3.599.425-5.954v-2.049c0 2.355-.141 4.34-.425 5.954a21.845 21.845 0 01-1.374 4.81h.732zm-27.46-10.763c0 2.355-.13 4.34-.392 5.954a23.188 23.188 0 01-1.407 4.81h.738a22.49 22.49 0 00.669-2.761c.261-1.614.392-3.599.392-5.954v-2.049zm14.573 10.763h.738a23.182 23.182 0 01-1.407-4.809c-.262-1.614-.393-3.599-.393-5.954v2.049c0 2.355.131 4.34.393 5.954.162.924.385 1.844.669 2.76zm119.281-49.15h15.927c.049-.643.122-1.326.217-2.049h-17.241c.388.667.754 1.35 1.097 2.05zm15.872 2.933c-.023.5-.031.972-.023 1.418a19.75 19.75 0 00.491 3.926l4.318 20.414 5.758-21.265c.327-1.22.633-2.551.916-3.99.284-1.44.469-2.585.556-3.436h9.52c.109 1.069.284 2.323.524 3.762.262 1.44.534 2.661.818 3.664l5.692 22.214 5.038-23.718c.218-.96.305-1.876.262-2.748a10.628 10.628 0 00-.045-.587c-.045.42-.117.848-.217 1.286l-5.038 23.718-5.692-22.213c-.284-1.004-.556-2.225-.818-3.664a60.85 60.85 0 01-.524-3.763h-9.52c-.087.851-.272 1.996-.556 3.436a60.907 60.907 0 01-.916 3.99l-5.758 21.265-4.318-20.414a20.392 20.392 0 01-.468-3.295zM256.833 2.8h15.033c.345-.696.714-1.379 1.108-2.049H256.42c.186.744.324 1.427.413 2.05zm20.001 49.15a21.736 21.736 0 001.374-4.809c.284-1.614.426-3.599.426-5.954v2.049c0 2.355-.142 4.34-.426 5.954a20.897 20.897 0 01-.642 2.76h-.732zM310.38 40.87l1.067-2.593a37.657 37.657 0 01-10.469 3.697c-2.464.458-5.409.774-8.833.949v2.049c3.424-.175 6.369-.491 8.833-.949a37.681 37.681 0 009.402-3.153zm-4.116-17.425l1.126-2.049h-15.245v2.05h14.119zm1.31-20.643l.928-2.049h-31.668c.28.681.524 1.364.732 2.05H307.574zm48.136 5.05l-13.806 33.337c-1.177 2.726-2.202 4.896-3.075 6.51-.872 1.614-1.777 3.032-2.715 4.253h1.426c.438-.689.867-1.423 1.289-2.204.873-1.614 1.898-3.784 3.075-6.51L355.71 9.9a61.059 61.059 0 001.636-4.318c.458-1.374.709-2.3.752-2.78h11.385c.044.48.294 1.406.752 2.78a61.059 61.059 0 001.636 4.318l13.838 33.337c1.2 2.791 2.225 4.994 3.076 6.608a36.42 36.42 0 001.226 2.106h1.424c-.895-1.156-1.778-2.54-2.65-4.155-.851-1.614-1.876-3.816-3.076-6.608L371.871 7.852a61.057 61.057 0 01-1.636-4.319c-.458-1.374-.708-2.3-.752-2.78h-11.385c-.043.48-.294 1.406-.752 2.78a61.057 61.057 0 01-1.636 4.319zm3.076 22.247h8.711l.743 2.049h-10.142l.688-2.05zM394.522 2.8h17.032c6.303 0 11.167 1.32 14.591 3.959 3.168 2.441 4.871 5.835 5.108 10.18.019-.32.028-.645.028-.975 0-4.864-1.712-8.615-5.136-11.254-3.424-2.64-8.288-3.959-14.591-3.959H393.79c.28.681.524 1.364.732 2.05zm27.704 28.22c-.365.157-.738.303-1.119.438l8.179 11.778c1.657 2.377 3.217 4.373 4.678 5.987a44.597 44.597 0 002.699 2.727h2.339c-1.898-1.57-3.577-3.162-5.038-4.776-1.461-1.614-3.021-3.61-4.678-5.987l-7.06-10.166zm-13.125 10.167v2.049c0 2.355.13 4.34.392 5.954.162.924.385 1.844.669 2.76h.738a23.232 23.232 0 01-1.407-4.809c-.262-1.614-.392-3.599-.392-5.954zm-14.573 10.763a22.38 22.38 0 00.669-2.76c.261-1.614.392-3.599.392-5.954v-2.049c0 2.355-.131 4.34-.392 5.954a23.232 23.232 0 01-1.407 4.81h.738zm14.573-28.298h.425c2.486 0 4.525-.687 6.118-2.061 1.32-1.14 2.093-2.55 2.318-4.23.047.316.07.642.07.979 0 2.159-.796 3.926-2.388 5.3-1.593 1.374-3.632 2.06-6.118 2.06h-.425v-2.048zm33.467 23.49a21.845 21.845 0 01-1.374 4.808h.732a21.22 21.22 0 00.642-2.76c.283-1.614.425-3.599.425-5.954v-2.049c0 2.355-.142 4.34-.425 5.954zM441.926 2.8h30.008l.928-2.049h-31.668c.28.681.524 1.364.732 2.05zm14.578 18.594v2.05h14.119l1.126-2.05h-15.245zm0 21.527v2.049c3.425-.175 6.369-.491 8.833-.949a37.654 37.654 0 009.402-3.153l1.067-2.593a37.645 37.645 0 01-10.469 3.697c-2.464.458-5.408.774-8.833.949z" fill="#fff"/><defs><linearGradient id="paint0_linear" x1="239.299" y1=".596" x2="239.299" y2="59.117" gradientUnits="userSpaceOnUse"><stop stop-color="#6B0A8D"/><stop offset=".903" stop-color="#C91360"/><stop offset="1" stop-color="#830076"/></linearGradient><linearGradient id="paint1_linear" x1="239.299" y1=".596" x2="239.299" y2="59.117" gradientUnits="userSpaceOnUse"><stop stop-color="#6B0A8D"/><stop offset=".903" stop-color="#C91360"/><stop offset="1" stop-color="#830076"/></linearGradient><linearGradient id="paint2_linear" x1="239.299" y1=".596" x2="239.299" y2="59.117" gradientUnits="userSpaceOnUse"><stop stop-color="#6B0A8D"/><stop offset=".903" stop-color="#C91360"/><stop offset="1" stop-color="#830076"/></linearGradient><linearGradient id="paint3_linear" x1="239.299" y1=".596" x2="239.299" y2="59.117" gradientUnits="userSpaceOnUse"><stop stop-color="#6B0A8D"/><stop offset=".903" stop-color="#C91360"/><stop offset="1" stop-color="#830076"/></linearGradient><linearGradient id="paint4_linear" x1="239.299" y1=".596" x2="239.299" y2="59.117" gradientUnits="userSpaceOnUse"><stop stop-color="#6B0A8D"/><stop offset=".903" stop-color="#C91360"/><stop offset="1" stop-color="#830076"/></linearGradient><linearGradient id="paint5_linear" x1="239.299" y1=".596" x2="239.299" y2="59.117" gradientUnits="userSpaceOnUse"><stop stop-color="#6B0A8D"/><stop offset=".903" stop-color="#C91360"/><stop offset="1" stop-color="#830076"/></linearGradient><linearGradient id="paint6_linear" x1="239.299" y1=".596" x2="239.299" y2="59.117" gradientUnits="userSpaceOnUse"><stop stop-color="#6B0A8D"/><stop offset=".903" stop-color="#C91360"/><stop offset="1" stop-color="#830076"/></linearGradient><linearGradient id="paint7_linear" x1="239.299" y1=".596" x2="239.299" y2="59.117" gradientUnits="userSpaceOnUse"><stop stop-color="#6B0A8D"/><stop offset=".903" stop-color="#C91360"/><stop offset="1" stop-color="#830076"/></linearGradient><linearGradient id="paint8_linear" x1="239.258" y1=".632" x2="239.258" y2="51.951" gradientUnits="userSpaceOnUse"><stop stop-color="#F0CD5A"/><stop offset="1" stop-color="#DA7741"/></linearGradient><linearGradient id="paint9_linear" x1="239.258" y1=".632" x2="239.258" y2="51.951" gradientUnits="userSpaceOnUse"><stop stop-color="#F0CD5A"/><stop offset="1" stop-color="#DA7741"/></linearGradient><linearGradient id="paint10_linear" x1="239.258" y1=".632" x2="239.258" y2="51.951" gradientUnits="userSpaceOnUse"><stop stop-color="#F0CD5A"/><stop offset="1" stop-color="#DA7741"/></linearGradient><linearGradient id="paint11_linear" x1="239.258" y1=".632" x2="239.258" y2="51.951" gradientUnits="userSpaceOnUse"><stop stop-color="#F0CD5A"/><stop offset="1" stop-color="#DA7741"/></linearGradient><linearGradient id="paint12_linear" x1="239.258" y1=".632" x2="239.258" y2="51.951" gradientUnits="userSpaceOnUse"><stop stop-color="#F0CD5A"/><stop offset="1" stop-color="#DA7741"/></linearGradient><linearGradient id="paint13_linear" x1="239.258" y1=".632" x2="239.258" y2="51.951" gradientUnits="userSpaceOnUse"><stop stop-color="#F0CD5A"/><stop offset="1" stop-color="#DA7741"/></linearGradient><linearGradient id="paint14_linear" x1="239.258" y1=".632" x2="239.258" y2="51.951" gradientUnits="userSpaceOnUse"><stop stop-color="#F0CD5A"/><stop offset="1" stop-color="#DA7741"/></linearGradient><linearGradient id="paint15_linear" x1="239.258" y1=".632" x2="239.258" y2="51.951" gradientUnits="userSpaceOnUse"><stop stop-color="#F0CD5A"/><stop offset="1" stop-color="#DA7741"/></linearGradient></defs></svg>