<svg id="Слой_1" xmlns="http://www.w3.org/2000/svg" xmlns:xlink="http://www.w3.org/1999/xlink" viewBox="0 0 1210.77 1210.77"><defs><style>.cls-1{fill:url(#linear-gradient)}.cls-2{fill:url(#linear-gradient-2)}.cls-3{fill:url(#linear-gradient-3)}.cls-4{fill:url(#linear-gradient-4)}.cls-5{fill:url(#linear-gradient-5)}.cls-6{fill:url(#linear-gradient-6)}.cls-7{fill:url(#linear-gradient-7)}.cls-8{fill:url(#linear-gradient-8)}.cls-9{fill:url(#linear-gradient-9)}.cls-10{fill:url(#linear-gradient-10)}.cls-11{fill:url(#linear-gradient-11)}.cls-12{fill:url(#linear-gradient-12)}.cls-13{fill:url(#linear-gradient-13)}.cls-14{fill:url(#linear-gradient-14)}.cls-15{fill:url(#linear-gradient-15)}.cls-16{fill:url(#linear-gradient-16)}</style><linearGradient id="linear-gradient" x1="606.25" y1="1205.26" x2="606.25" y2="607.02" gradientUnits="userSpaceOnUse"><stop offset=".11" stop-color="#fff" stop-opacity="0"/><stop offset="1" stop-color="#00e0ff" stop-opacity=".57"/></linearGradient><linearGradient id="linear-gradient-2" x1="638.02" y1="1225.01" x2="638.02" y2="626.77" gradientTransform="rotate(-22.5 572.49 696.76)" xlink:href="#linear-gradient"/><linearGradient id="linear-gradient-3" x1="659.83" y1="1255.42" x2="659.83" y2="657.17" gradientTransform="rotate(-45 572.49 696.767)" xlink:href="#linear-gradient"/><linearGradient id="linear-gradient-4" x1="668.33" y1="1291.85" x2="668.33" y2="693.61" gradientTransform="rotate(-67.5 572.492 696.767)" xlink:href="#linear-gradient"/><linearGradient id="linear-gradient-5" x1="662.25" y1="1328.77" x2="662.25" y2="730.52" gradientTransform="rotate(-90 572.49 696.77)" xlink:href="#linear-gradient"/><linearGradient id="linear-gradient-6" x1="642.5" y1="1360.55" x2="642.5" y2="762.3" gradientTransform="matrix(-.38 -.92 .92 -.38 147.84 1492.33)" xlink:href="#linear-gradient"/><linearGradient id="linear-gradient-7" x1="612.09" y1="1382.35" x2="612.09" y2="784.1" gradientTransform="rotate(-135 572.491 696.774)" xlink:href="#linear-gradient"/><linearGradient id="linear-gradient-8" x1="575.66" y1="1390.86" x2="575.66" y2="792.61" gradientTransform="rotate(-157.5 572.49 696.773)" xlink:href="#linear-gradient"/><linearGradient id="linear-gradient-9" x1="538.74" y1="1384.77" x2="538.74" y2="786.52" gradientTransform="rotate(180 572.495 696.77)" xlink:href="#linear-gradient"/><linearGradient id="linear-gradient-10" x1="506.96" y1="1365.02" x2="506.96" y2="766.78" gradientTransform="rotate(157.5 572.493 696.771)" xlink:href="#linear-gradient"/><linearGradient id="linear-gradient-11" x1="485.16" y1="1334.62" x2="485.16" y2="736.37" gradientTransform="rotate(135 572.494 696.772)" xlink:href="#linear-gradient"/><linearGradient id="linear-gradient-12" x1="476.65" y1="1298.18" x2="476.65" y2="699.93" gradientTransform="rotate(112.5 572.493 696.772)" xlink:href="#linear-gradient"/><linearGradient id="linear-gradient-13" x1="482.74" y1="1261.26" x2="482.74" y2="663.02" gradientTransform="rotate(90 572.49 696.77)" xlink:href="#linear-gradient"/><linearGradient id="linear-gradient-14" x1="502.49" y1="1229.49" x2="502.49" y2="631.24" gradientTransform="matrix(.38 .92 -.92 .38 997.14 -98.79)" xlink:href="#linear-gradient"/><linearGradient id="linear-gradient-15" x1="532.89" y1="1207.68" x2="532.89" y2="609.44" gradientTransform="rotate(45 572.488 696.772)" xlink:href="#linear-gradient"/><linearGradient id="linear-gradient-16" x1="569.33" y1="1199.18" x2="569.33" y2="600.93" gradientTransform="rotate(22.5 572.48 696.77)" xlink:href="#linear-gradient"/></defs><path class="cls-1" d="M606.25 607.02l56.14 598.24H550.1l56.15-598.24z"/><path class="cls-2" d="M606.25 607.02l280.81 531.22-103.75 42.97-177.06-574.19z"/><path class="cls-3" d="M606.25 607.02l462.72 383.32-79.4 79.4-383.32-462.72z"/><path class="cls-4" d="M606.25 607.02l574.19 177.07-42.97 103.74-531.22-280.81z"/><path class="cls-5" d="M606.25 607.02l598.24-56.15v112.29l-598.24-56.14z"/><path class="cls-6" d="M606.25 607.02l531.22-280.81 42.97 103.74-574.19 177.07z"/><path class="cls-7" d="M606.25 607.02l383.32-462.73 79.4 79.4-462.72 383.33z"/><path class="cls-8" d="M606.25 607.02l177.06-574.2L887.06 75.8 606.25 607.02z"/><path class="cls-9" d="M606.25 607.02L550.1 8.77h112.29l-56.14 598.25z"/><path class="cls-10" d="M606.25 607.02L325.44 75.8l103.74-42.98 177.07 574.2z"/><path class="cls-11" d="M606.25 607.02L143.52 223.69l79.4-79.4 383.33 462.73z"/><path class="cls-12" d="M606.25 607.02L32.05 429.95l42.98-103.74 531.22 280.81z"/><path class="cls-13" d="M606.25 607.02L8 663.16V550.87l598.25 56.15z"/><path class="cls-14" d="M606.25 607.02L75.03 887.83 32.05 784.09l574.2-177.07z"/><path class="cls-15" d="M606.25 607.02l-383.33 462.72-79.4-79.4 462.73-383.32z"/><path class="cls-16" d="M606.25 607.02l-177.07 574.19-103.74-42.97 280.81-531.22z"/></svg>