<svg id="Layer_1" xmlns="http://www.w3.org/2000/svg" viewBox="0 0 450.1 72.8"><style>.st0{fill:url(#SVGID_1_)}</style><radialGradient id="SVGID_1_" cx="225.243" cy="36.736" r="161.668" fx="224.667" fy="40.14" gradientUnits="userSpaceOnUse"><stop offset="0" stop-color="#c11616"/><stop offset="1" stop-color="#c11616" stop-opacity=".9"/></radialGradient><path class="st0" d="M21.4 6.6c7.3 2.4 14.8 4.3 22.4 5.7 2.3.4 4.7.8 7 .4 3.2-.6 5.8-2.7 8.7-4.2C70.6 2.7 86 7.7 91.6 18.9c10-4.6 21.7-9.2 31.5-4.4 4.9 2.4 9.6 7.2 14.9 5.8 2.5-.7 4.3-2.6 6.4-4.2 6.1-4.5 14.6-5.4 21.5-2.2 2.1 1 4.1 2.3 6.4 2.2 4.3-.2 7.5-5.4 11.8-4.8 4.4.6 7.2 7.2 11.5 6 1.5-.4 2.5-1.7 3.6-2.8 3.2-3.1 8.3-4.7 12.3-2.6s5.4 8.3 2 11.2c3.6 2.6 8.8 1.5 12.6-.9s6.9-5.8 10.8-7.9c5.6-3.1 12.8-3.2 18.5-.3 1.8.9 3.4 2.1 5.3 2.6 2.9.7 6-.2 8.9-1 6.3-1.7 12.8-2.4 19.3-2.2 5.3.2 12.5 3.9 10.3 8.7l10.3-.3c-4.3-1.3-4.6-8-1.5-11.3 3.1-3.3 8-4.1 12.4-4.7 6.6-.9 13.3-1.8 19.7-.4s12.7 5.7 14.6 12c6.8 2.7 15 1.3 20.6-3.5 1.5-1.3 2.9-2.8 4.7-3.7 4.2-2.1 10 1 10.7 5.7l53.1-14.4c1.2-.3 2.6-.7 3.8 0 1 .6 1.4 1.8 1.8 2.9 4.6 15.5.3 33.3-11 44.9-11.7 12-29 16.7-45.6 19.3-29.1 4.4-58.5 4.4-87.7 4.4H130.8c-24.3 0-48.8-.1-72.7-4.7-11.8-2.3-23.5-5.7-34.5-10.8-8.5-3.9-15.5-12.8-19.5-21.3-4.6-9.8-6-21.1-3.3-31.6C1.3 2.9 2.2.9 4 .5c1-.2 1.9.2 2.9.6 4.7 2.1 9.5 3.9 14.5 5.5z"/></svg>