<svg id="Layer_1" xmlns="http://www.w3.org/2000/svg" viewBox="0 0 200 60"><style>.st0{enable-background:new}.st1{fill:#f78d1e}</style><g class="st0"><path class="st1" d="M26.6 30L25 40.9l-.6-4.4c-1.5 1.8-3.2 3.1-5 4.1-1.8.9-3.7 1.4-5.7 1.4-1.3 0-2.6-.3-3.8-.8-1.2-.5-2.3-1.3-3.3-2.3-1.2-1.2-2.1-2.5-2.7-4-.6-1.5-.9-3-.9-4.5 0-2.1.5-4.1 1.4-5.8.9-1.8 2.2-3.2 3.8-4.3 1.1-.7 2.3-1.3 3.6-1.7s2.7-.5 4.2-.5c1.4 0 2.6.2 3.8.6 1.2.4 2.3 1.1 3.3 1.9L24 18l1.6 8.5c-.7-1-1.5-1.8-2.4-2.3s-1.9-.8-3-.8c-1.2 0-2.2.4-3 1.1-.8.7-1.1 1.7-1.1 2.9 0 1.3.5 2.3 1.4 3.2s2.1 1.3 3.5 1.3c.9 0 1.8-.2 2.7-.5.8-.3 1.8-.7 2.9-1.4zm20.6-4.7l-2.3 1 .5 13 1.8 1.4-6.8.9 1.2-4.7c-1 1.6-2.1 2.8-3.3 3.5-1.3.8-2.6 1.2-4.1 1.2-1.8 0-3.3-.7-4.5-2.2s-1.8-3.2-1.8-5.4c0-2.7.6-5 1.9-6.7 1.3-1.8 2.9-2.6 4.9-2.6 1.5 0 2.8.4 3.9 1.2 1.1.8 2.1 2 2.9 3.5l-1-4.8 6.7.7zm-10.9 3.3c-.3.3-.5.6-.6 1s-.2.8-.2 1.2c0 .9.3 1.7.9 2.3.6.6 1.3.9 2.2.9.3 0 .6-.1 1-.2s.7-.3 1-.6c-.7-1.2-1.4-2.2-2.1-3-.7-.7-1.4-1.3-2.2-1.6zm28.5-3.8l-3 5.6c-.8-.7-1.6-1.3-2.3-1.6-.7-.3-1.5-.5-2.2-.5-.6 0-1.1.1-1.5.4-.4.3-.5.7-.5 1.2 0 .9 1.4 1.5 4.2 1.7h.7c2.3.2 4 .6 5 1.3 1 .7 1.5 1.7 1.5 3.1 0 1.7-.8 3.1-2.5 4.2s-3.9 1.6-6.6 1.6c-1.2 0-2.5-.2-3.7-.6-1.3-.4-2.6-1-4-1.8l-2.6 2.3 2-6.3c1 .9 2 1.6 3 2s1.8.7 2.6.7c.7 0 1.2-.2 1.6-.5s.6-.8.6-1.4c0-.6-.2-1.1-.6-1.4-.4-.3-1.4-.6-3-.8-1.8-.3-3-.7-3.8-1.4-.8-.6-1.2-1.5-1.2-2.6 0-1.6.7-2.9 2-3.9s3.2-1.4 5.4-1.4c1.3 0 2.4.2 3.3.5.9.3 1.8.8 2.6 1.5l3-1.9z"/><path class="st1" d="M82.1 41.2l-16.1.5 3.5-1.4 1-13.3-4.3-1.7 15.5-.6-5 1.8 1.9 13.6 3.5 1.1zm-1.7-20c0 .7-.5 1.3-1.6 1.8s-2.5.7-4.3.7-3.2-.2-4.3-.7c-1.1-.5-1.6-1-1.6-1.8 0-.7.6-1.3 1.7-1.8s2.5-.7 4.3-.7c1.8 0 3.2.2 4.3.7s1.5 1.1 1.5 1.8z"/><path class="st1" d="M100.4 41.1l-8.7.6c.6-.7 1-1.3 1.3-2 .3-.7.4-1.4.4-2.1 0-.9-.2-1.7-.7-2.3-.4-.6-1-.9-1.7-.9-.8 0-1.4.3-1.9 1-.5.6-.8 1.4-.8 2.4 0 .7.1 1.3.3 1.8.2.5.5 1 .9 1.4L81 42l1.9-2 .8-13-2.6-1.3 8.1-.9-1.9 3.8c1.3-1.2 2.6-2.2 3.8-2.8 1.2-.6 2.4-.9 3.5-.9 1.7 0 3.1.6 4.1 1.7s1.5 2.7 1.5 4.6c0 1.5-.3 3-.8 4.5s-1.3 2.9-2.3 4.4l3.3 1zm19.5-7.9c0 .9-.1 1.6-.3 2.4-.2.7-.5 1.4-1 2.1-.9 1.3-2 2.3-3.4 3-1.4.7-2.8 1.1-4.4 1.1-2.6 0-4.8-.8-6.5-2.4-1.7-1.6-2.5-3.6-2.5-6 0-2.6.9-4.6 2.6-6.3 1.7-1.6 4-2.4 6.7-2.4 2.6 0 4.7.8 6.3 2.4 1.7 1.6 2.5 3.6 2.5 6.1zm-14.5-2.5c.3.4.7.7 1.1.9.4.2.9.3 1.4.3.9 0 1.7-.3 2.4-.9.7-.6 1-1.3 1-2.1 0-.3-.1-.6-.2-.9s-.3-.5-.5-.7c-1.3.4-2.3.8-3.2 1.4-.8.5-1.5 1.2-2 2zm34.7-12l2.6 8.3c-1.4-1.2-2.7-2.2-3.9-2.9-1.1-.7-2.1-1-2.8-1-.6 0-1 .1-1.3.4-.3.3-.5.7-.5 1.2 0 .7.3 1.3 1 1.8s1.7 1 3.1 1.4c3.1.9 5.2 1.9 6.3 2.8 1.1.9 1.6 2 1.6 3.4 0 2.3-1.1 4.1-3.3 5.6-2.2 1.5-5.1 2.2-8.6 2.2-1.8 0-3.5-.3-5.3-1s-3.4-1.6-4.9-2.8V42l-2.8-8.3c1.3 1 2.6 1.9 3.8 2.4 1.3.6 2.4.8 3.4.8 1.1 0 2-.2 2.6-.7s.9-1.1.9-1.9c0-.8-.2-1.4-.7-1.9s-1.6-1-3.3-1.5c-2.5-.8-4.3-1.7-5.5-2.8-1.2-1.1-1.8-2.4-1.8-3.8 0-1.8.8-3.3 2.4-4.5 1.6-1.2 3.7-1.8 6.3-1.8 1.7 0 3.4.3 5 .9 1.6.6 3.3 1.6 5 2.8l.7-3z"/><path class="st1" d="M159.1 41.2l-13 .6 3.6-2-.2-17.8-3.2-.6 12.2-3.4-2.8 22 3.4 1.2zm18.6-8c0 .9-.1 1.6-.3 2.4-.2.7-.5 1.4-1 2.1-.9 1.3-2 2.3-3.4 3-1.4.7-2.8 1.1-4.4 1.1-2.6 0-4.8-.8-6.5-2.4-1.7-1.6-2.5-3.6-2.5-6 0-2.6.9-4.6 2.6-6.3 1.7-1.6 4-2.4 6.7-2.4 2.6 0 4.7.8 6.3 2.4 1.7 1.6 2.5 3.6 2.5 6.1zm-14.5-2.5c.3.4.7.7 1.1.9.4.2.9.3 1.4.3.9 0 1.7-.3 2.4-.9.7-.6 1-1.3 1-2.1 0-.3-.1-.6-.2-.9s-.3-.5-.5-.7c-1.3.4-2.3.8-3.2 1.4-.8.5-1.5 1.2-2 2zm34.5 11.1l-2.3-2.6c-1.1.9-2.3 1.5-3.4 2s-2.4.6-3.6.6c-2 0-3.5-.6-4.7-1.7-1.2-1.1-1.8-2.7-1.8-4.6 0-.6 0-1.3.1-2 .1-.8.3-1.8.5-3.1l-1.8.2-1.7 2.8-.6-9.5 2.1 2.1 3-.1.9-3c.3-1 .6-1.9 1-2.8l-4-1.5L195 18l-3.9 2.4c-.2 1-.4 1.9-.6 2.7-.2.9-.3 1.7-.4 2.5l3.6-.2 2.4-3-.4 8.8-2.2-2.6-3.9.5c-.1.8-.2 1.6-.2 2.3-.1.7-.1 1.3-.1 1.8 0 1.2.2 2 .5 2.5.4.5 1 .8 1.8.8s1.6-.2 2.4-.7 1.7-1.1 2.4-2l1.3 8z"/></g></svg>