<svg width="340" height="77" viewBox="0 0 340 77" fill="none" xmlns="http://www.w3.org/2000/svg"><path d="M107.497 54.672c-.397.238-.753.515-1.15.753a10.014 10.014 0 01-3.727 1.586c-.872.159-1.744.238-2.616.238-2.26-.04-4.084-.912-5.63-2.537-.714-.754-1.19-1.626-1.467-2.657-.08-.356-.159-.713-.159-1.07-.119-1.467.08-2.894.555-4.322a7.954 7.954 0 011.11-2.061c.952-1.23 2.22-2.022 3.727-2.419 1.784-.475 3.608-.555 5.432-.356 1.467.158 2.854.515 4.242 1.07.674.278 1.348.595 1.943.991.317.199.634.436.951.674 1.071.952 1.626 2.18 1.705 3.568.04.674.04 1.309-.119 1.943-.04.08 0 .198 0 .278.079 0 .119.04.159 0 .079-.04.158-.08.237-.159 1.388-1.03 2.776-2.022 4.203-3.053a15.42 15.42 0 001.903-1.705c.317-.356.595-.713.833-1.11.277-.475.555-.911.872-1.348.158-.237.357-.436.555-.674.436-.436 1.031-.674 1.625-.792.119-.04.278 0 .436 0 .199.04.357.237.357.396v.595a161.827 161.827 0 01-.515 4.36c-.04.318-.119.635-.04.952 0 .04.079.08.119.04a.56.56 0 00.159-.12c.198-.197.396-.396.594-.633 1.428-1.507 2.855-3.053 4.282-4.56.476-.515.952-.99 1.467-1.387a8.78 8.78 0 011.269-.833 5.132 5.132 0 011.506-.476c.912-.119 1.745.12 2.419.793.436.397.713.912.951 1.467.198.436.317.912.436 1.388.238 1.03.397 2.101.476 3.172.04.634.119 1.308.278 1.942.119.595.317 1.19.634 1.705.515.912 1.229 1.546 2.22 1.903.436.159.912.238 1.348.238.555-.04 1.11-.04 1.665-.159 1.269-.198 2.538-.475 3.727-.951.079-.04.198-.08.278-.12.079-.039.158-.158.118-.237-.039-.159-.079-.278-.118-.436-.397-1.428-.476-2.855-.318-4.322.08-.674.159-1.348.357-2.022.714-2.497 2.141-4.4 4.52-5.51a6.189 6.189 0 012.379-.595 8.1 8.1 0 012.18.158c1.546.397 2.696 1.309 3.291 2.815.476 1.19.238 2.34-.476 3.41-.238.357-.555.674-.872.991a16 16 0 01-3.727 2.775c-.951.516-1.903.991-2.815 1.507-.198.119-.436.238-.634.357-.04.04-.079.119-.159.158.238.555.635.912 1.15 1.19.595.317 1.229.436 1.903.475h1.388c.991-.04 1.982-.158 2.973-.317.912-.158 1.824-.238 2.736-.396.713-.12 1.427-.238 2.141-.357 1.07-.159 2.14-.357 3.251-.555 1.07-.159 2.101-.357 3.171-.516.991-.158 2.022-.317 3.013-.475a72 72 0 002.855-.516c2.379-.436 4.718-.99 7.057-1.467 1.388-.277 2.775-.555 4.163-.753a49.378 49.378 0 013.489-.357c3.33-.198 6.66-.277 9.99-.198 2.062.04 4.124.04 6.185.159.476.04.912.04 1.388.04.674.039 1.348.039 2.022.079.119 0 .238 0 .357.04 1.506.079 3.013.118 4.519.197l3.767.238c.158 0 .357.04.515.04 1.467.08 2.894.198 4.361.278 1.11.079 2.181.118 3.291.198l3.211.238c.119 0 .238.04.357.04 1.11.079 2.22.118 3.33.198l3.489.237h.238c1.427.08 2.855.12 4.282.199l5.154.237h.238c1.744.08 3.489.12 5.233.199l5.471.238h.278c1.903.079 3.845.119 5.748.198.555 0 1.11.04 1.665.08.199 0 .397.039.595.039 2.22.08 4.441.119 6.621.198.793.04 1.546.04 2.339.08 2.101.039 4.163.079 6.264.079 9.476.04 18.951.04 28.466.04 8.207 0 16.374.039 24.581.079 1.348 0 2.735 0 4.083.04.397 0 .833.039 1.229.078.08 0 .199.04.318.08a.893.893 0 01-.119.198c-.04.04-.119.04-.199.08-.515.039-1.03.118-1.506.158-1.031.08-2.101.158-3.132.238-.159 0-.278.04-.436.04-1.031.079-2.022.118-3.053.198-1.031.079-2.022.158-3.053.238-.793.04-1.586.119-2.418.158-.833.04-1.705.12-2.537.159l-1.904.119c-1.11.079-2.22.119-3.33.198-1.229.08-2.458.159-3.727.238-.118 0-.237.04-.356.04-1.269.079-2.538.118-3.806.198-1.269.079-2.577.158-3.846.238h-.278c-1.427.079-2.854.119-4.281.198-1.586.079-3.172.158-4.718.238-.238 0-.436.04-.674.04-1.269.039-2.538.118-3.806.118-3.053.08-6.106.198-9.198.198-2.855 0-5.749 0-8.603-.04-2.379-.039-4.758-.078-7.137-.158-1.982-.04-3.925-.158-5.907-.198-1.744-.08-3.489-.119-5.233-.198-1.547-.08-3.053-.159-4.599-.238-.317 0-.635-.04-.952-.04-.594-.04-1.229-.08-1.823-.08-.159 0-.278-.039-.437-.039-1.308-.079-2.616-.119-3.925-.198l-3.568-.238c-.158 0-.277 0-.436-.04-1.11-.079-2.22-.118-3.33-.198l-2.855-.238c-.832-.079-1.704-.118-2.537-.198l-2.617-.238c-.713-.079-1.387-.119-2.101-.198-.951-.08-1.943-.159-2.894-.277-.793-.08-1.546-.12-2.339-.199a34.831 34.831 0 01-2.022-.198c-.952-.08-1.903-.159-2.815-.238l-2.379-.238c-.594-.04-1.229-.119-1.824-.158-.832-.08-1.704-.12-2.537-.199-.951-.079-1.943-.158-2.894-.237-.119 0-.238-.04-.357-.04-1.11-.08-2.18-.119-3.29-.198-1.269-.08-2.578-.159-3.846-.238h-.278c-1.744-.08-3.489-.119-5.233-.198-.991-.04-1.943-.04-2.934-.04-2.22-.04-4.44 0-6.621.08a54.82 54.82 0 00-2.537.197c-2.062.238-4.084.674-6.066 1.15-1.665.397-3.33.833-4.995 1.269-2.577.674-5.115 1.348-7.692 1.943-1.387.317-2.735.634-4.123.951a38.07 38.07 0 01-4.163.714c-.991.119-1.982.158-2.973.119a6.37 6.37 0 01-2.577-.674 5.132 5.132 0 01-1.903-1.546c-.04-.08-.119-.16-.159-.238-.119-.159-.198-.199-.357-.12-.674.318-1.387.595-2.061.913-.793.356-1.626.674-2.419.99-.753.318-1.506.477-2.299.635-.833.159-1.665.119-2.458 0a16.59 16.59 0 01-1.348-.317c-.912-.278-1.626-.833-2.22-1.586-.357-.436-.595-.951-.833-1.467-.476-1.19-.872-2.379-1.15-3.608-.198-.872-.356-1.705-.555-2.577a7.78 7.78 0 00-.317-1.03 6.125 6.125 0 00-.238-.516c-.158-.277-.396-.317-.674-.119-.158.12-.317.238-.436.397-.238.238-.476.475-.674.753a41.694 41.694 0 00-2.022 2.577 133.368 133.368 0 00-3.449 4.797c-.436.634-.912 1.269-1.348 1.903a21.93 21.93 0 01-.833.991c-.713.754-1.665 1.07-2.695 1.07a1.27 1.27 0 01-.556-.118c-.396-.159-.634-.436-.674-.872-.039-.397 0-.833.04-1.23.159-1.506.516-2.973.833-4.44.198-.912.436-1.824.674-2.775v-.08c0-.039-.04-.079-.08-.118h-.079c-.04 0-.04 0-.079.04-1.229.911-2.419 1.863-3.648 2.775a166.29 166.29 0 01-3.171 2.3.872.872 0 00-.397.515c-.476 1.229-1.189 2.299-2.022 3.25-.832.912-1.665 1.824-2.656 2.617-1.11.912-2.3 1.705-3.608 2.3-1.625.753-3.29 1.15-5.075 1.03a9.865 9.865 0 01-4.242-1.189 7.257 7.257 0 01-1.427-1.03 4.569 4.569 0 00-.674-.556c-.555-.436-1.15-.595-1.863-.476-.516.08-.992.238-1.467.397-.714.277-1.428.595-2.141.912-1.546.674-3.053 1.387-4.6 2.061a830.099 830.099 0 00-16.135 7.097c-1.745.793-3.489 1.626-5.233 2.418-.952.436-1.864.952-2.736 1.547l-.357.237c-.476.357-.99.516-1.546.555-.476.04-.912.04-1.388 0-.317-.04-.555-.198-.674-.475-.079-.199-.198-.397-.277-.595a13.547 13.547 0 00-.833-1.705 1.921 1.921 0 01-.277-1.03c0-.238.04-.437.119-.635.158-.357.317-.753.515-1.11.952-1.665 1.903-3.33 3.013-4.916a51.149 51.149 0 011.745-2.34c2.379-2.893 4.797-5.748 7.176-8.642 3.37-4.044 6.74-8.127 10.15-12.132 1.387-1.665 2.854-3.25 4.28-4.876 3.49-3.886 6.939-7.731 10.428-11.617l4.044-4.4c.198-.198.396-.436.555-.674.04-.04.08-.12.08-.199 0-.079-.12-.079-.239-.079-.08 0-.198.04-.277.04-.436.08-.873.198-1.269.277-3.29.714-6.581 1.467-9.872 2.18-4.44.992-8.88 1.983-13.281 3.054a290.14 290.14 0 00-8.405 2.14c-.793.238-1.586.476-2.38.754-.713.277-1.426.515-2.14.634a3.91 3.91 0 01-.952.12c-.317.039-.634-.08-.911-.239-.318-.238-.476-.555-.437-.951.04-.198.08-.436.16-.635.356-.99.832-1.903 1.387-2.815.594-.911 1.427-1.506 2.458-1.823a29.337 29.337 0 012.537-.595l4.163-.832c1.15-.238 2.3-.437 3.45-.635 1.228-.238 2.418-.436 3.647-.674 1.189-.198 2.378-.436 3.568-.634 1.229-.238 2.418-.436 3.647-.674 1.23-.238 2.458-.436 3.648-.634 1.189-.199 2.378-.437 3.608-.635 1.308-.238 2.616-.476 3.964-.674l2.141-.357c.396-.079.753-.119 1.15-.158a59.825 59.825 0 012.775-.278h.278c.832-.04 1.506.357 2.061.952.278.317.396.634.396 1.07 0 .436-.118.833-.277 1.19-.198.436-.476.792-.753 1.15-.635.792-1.269 1.585-1.943 2.378-4.797 5.788-9.634 11.616-14.431 17.405-3.172 3.806-6.343 7.651-9.396 11.537-1.983 2.537-3.886 5.154-5.749 7.81a235.544 235.544 0 00-4.44 6.502 31.334 31.334 0 00-1.824 3.172c-.08.158-.159.277-.159.475 0 .08.08.16.159.12.08-.04.119-.04.198-.08 4.361-1.586 8.762-3.053 13.163-4.52a335.866 335.866 0 008.206-2.854c.238-.08.516-.198.754-.278 1.823-.594 3.568-1.308 5.273-2.061 1.07-.476 2.18-.991 3.25-1.467.278-.119.516-.238.794-.357a1.99 1.99 0 011.07-.08c.397.08.793.239 1.15.437.515.277.951.674 1.348 1.11l.357.476c.158.198.317.396.475.555.635.753 1.467 1.11 2.419 1.11.753 0 1.467-.119 2.141-.357 1.784-.595 3.449-1.467 4.797-2.775.436-.436.872-.872 1.268-1.308.08-.08.159-.12.119-.238-.079.119-.119.119-.158.079zm-6.74 1.982c.476 0 .912-.04 1.388-.119a11.948 11.948 0 003.925-1.546 27.969 27.969 0 002.22-1.546c.238-.198.436-.396.515-.674.119-.277.198-.555.317-.833.119-.436.199-.872.238-1.268.079-.873.079-1.745-.079-2.617-.278-1.388-1.427-2.894-3.093-3.29a6.896 6.896 0 00-1.784-.238c-.991-.04-1.982.079-2.973.277-1.586.357-2.894 1.23-3.846 2.537a8.003 8.003 0 00-.713 1.27c-.436.911-.674 1.862-.793 2.854a5.343 5.343 0 00.238 2.497c.356.992.99 1.705 1.982 2.141.713.397 1.546.595 2.458.555zm49.518-7.096c.079-.04.159-.04.198-.08 1.071-.674 2.141-1.348 3.172-2.061.872-.595 1.625-1.309 2.339-2.062a7.302 7.302 0 001.11-1.546c.238-.396.397-.833.476-1.308.119-.595 0-1.15-.317-1.665-.238-.437-.595-.675-1.11-.754-.278-.04-.516-.08-.793-.04-1.031.16-1.943.556-2.736 1.23a7.09 7.09 0 00-1.546 1.903c-.317.594-.595 1.189-.753 1.784-.317 1.03-.476 2.061-.397 3.171.04.397.119.833.238 1.19 0 .158.079.198.119.238zM11.157 44.76c.04-.237.079-.436.119-.594.119-.952.238-1.864.356-2.815.12-.872.238-1.784.357-2.657.12-.872.238-1.784.357-2.656l.357-2.616a64.83 64.83 0 01.396-2.736c.12-.833.238-1.665.357-2.537.12-.833.238-1.666.357-2.538.119-.872.238-1.784.396-2.656.12-.833.238-1.625.357-2.458.12-.833.238-1.665.357-2.537.119-.833.238-1.626.357-2.459.08-.515.158-1.07.238-1.585v-.08c.04-.356-.04-.436-.317-.317-.476.12-.952.278-1.388.397-1.507.436-3.053.872-4.56 1.308-.515.159-1.03.317-1.506.555-.912.396-1.824.793-2.736 1.15-.317.119-.673.238-1.03.357-.317.118-.635.04-.912-.12-.714-.396-1.348-.872-1.864-1.506-.277-.317-.436-.713-.396-1.15.04-.951.278-1.863.833-2.696.277-.396.634-.713 1.15-.872l2.378-.713a234.736 234.736 0 017.572-1.903c1.07-.278 2.181-.516 3.251-.754.16-.04.318-.079.516-.158.119-.278.159-.555.198-.833.159-1.19.357-2.339.595-3.528.08-.397.198-.793.317-1.19.119-.436.436-.753.912-.872.08-.04.198-.08.277-.08.476-.079.952-.197 1.428-.277.238-.04.475-.04.713-.04.516.04.952.199 1.348.516a7.27 7.27 0 011.348 1.546.55.55 0 01.08.436c-.08.476-.16.912-.238 1.348-.08.397-.159.793-.199 1.23-.04.118.08.237.238.198.159-.04.278-.04.436-.08.159-.04.317-.08.516-.119 2.22-.475 4.48-.951 6.7-1.387 1.467-.278 2.973-.516 4.44-.793a80.644 80.644 0 013.251-.516c.833-.119 1.626-.238 2.458-.356.833-.12 1.666-.238 2.538-.357l2.616-.357c.873-.119 1.785-.238 2.657-.357l2.616-.357c1.07-.119 2.102-.277 3.172-.396.595-.08 1.15-.12 1.744-.198.476-.04.912-.12 1.388-.159.833-.08 1.705-.159 2.537-.238h.08C62.18.118 63.688 0 65.195 0c.554 0 1.11.08 1.625.277.991.357 1.982.793 2.973 1.23.159.079.357.198.516.277.079.04.119.159.198.238.159.317 0 .674-.357.713-.317.08-.674.12-.991.16-1.229.158-2.458.277-3.687.435-1.03.12-2.022.238-3.053.357-.951.119-1.942.238-2.894.357-.872.119-1.784.238-2.656.357-.833.119-1.626.237-2.458.356-.793.12-1.586.238-2.38.357-1.347.198-2.695.436-4.043.674a99.32 99.32 0 00-3.648.674c-1.625.317-3.25.595-4.876.952-1.744.357-3.529.713-5.273 1.11-3.568.793-7.097 1.586-10.585 2.617-.318.079-.635.198-.992.317-.119.04-.238.079-.356.158-.04.238-.12.436-.159.635-.396 2.14-.833 4.242-1.229 6.383-.357 1.942-.753 3.845-1.11 5.788-.317 1.824-.635 3.687-.952 5.51-.277 1.706-.515 3.41-.713 5.115-.159 1.269-.357 2.498-.516 3.767l-.357 2.735c-.04.397-.118.833-.158 1.23 0 .078.04.118.08.197.198-.04.356-.04.515-.079 2.933-.714 5.867-1.308 8.84-1.903 1.864-.357 3.767-.753 5.63-1.11.754-.159 1.547-.238 2.3-.397.595-.119 1.15-.079 1.744-.079h.159c.476.04.555.357.436.714-.04.158-.159.317-.277.436-.238.277-.476.555-.793.753-.595.436-1.19.833-1.784 1.269a5.258 5.258 0 01-1.666.753 162.87 162.87 0 01-4.202 1.15c-3.172.872-6.304 1.744-9.476 2.617-.674.198-1.308.396-1.942.594-.159.04-.238.159-.278.317-.079.714-.198 1.388-.277 2.102-.12 1.03-.278 2.022-.397 3.052l-.357 2.736c-.118.951-.237 1.943-.396 2.894l-.357 2.736-.357 2.973c-.118.952-.237 1.864-.356 2.815l-.238 2.022c-.08.714-.159 1.467-.199 2.18-.118 1.23-.198 2.419-.317 3.648-.04.357-.079.714-.158 1.07l-.12.476a.478.478 0 01-.197.198c-.08.04-.199.04-.278.08-.634.04-1.269-.08-1.863-.278a2.02 2.02 0 01-1.031-.872 4.925 4.925 0 01-.515-2.26c0-.357 0-.674.04-1.03.039-.952.078-1.943.118-2.895.04-.912 0-1.784-.159-2.696a39.927 39.927 0 00-.475-2.894 10.825 10.825 0 00-.555-2.022 43.531 43.531 0 00-2.617-6.105c-.04-.08-.08-.12-.119-.199-.515-.872-.872-1.823-1.11-2.854-.238-1.11-.515-2.22-.714-3.33-.04-.199-.04-.397-.079-.595-.04-.317.04-.595.159-.833.158-.317.356-.555.713-.713.635-.238 1.269-.516 1.903-.793 1.546-.595 3.093-1.15 4.639-1.745.04.04.238-.04.476-.119zm-4.044 8.762c.04 0 .04-.04 0 0l.119 1.309c.079.872.158 1.744.317 2.616.158.753.317 1.467.476 2.22.356 1.586.753 3.172.99 4.758 0 .08.04.119.08.198 0 0 .04.04.08.04 0 0 .039 0 .039-.04.04-.08.04-.198.04-.277.079-.635.119-1.309.158-1.943l.238-2.379c.08-.793.119-1.586.198-2.379.04-.634.12-1.268.199-1.903.079-.713.158-1.466.198-2.18.08-.833.158-1.705.238-2.537.04-.278.04-.595.04-.873 0-.079-.08-.119-.16-.119-.871.317-1.744.635-2.537 1.031-.119.08-.237.12-.396.198-.278.159-.397.437-.397.754.08.475.08.99.08 1.506zm34.017 7.493c.435 0 .792 0 1.188.159.159.04.318.119.476.198.198.119.357.278.436.476.12.277.238.595.238.912 0 .198 0 .396-.119.555-.158.238-.277.515-.436.753-.317.476-.674.912-.991 1.348-.238.317-.555.515-.991.595a5.878 5.878 0 01-1.665 0c-.238-.04-.436-.12-.595-.278-.476-.396-.833-.872-1.15-1.427-.04-.119-.119-.238-.119-.357-.04-.476 0-.912.12-1.387.079-.238.197-.437.396-.595.436-.436.951-.674 1.546-.793.595-.08 1.15-.198 1.665-.159zm265.708 4.639c-.159-.238-.317-.436-.476-.674-1.189-1.665-2.379-3.37-3.608-5.035-.079-.08-.158-.159-.238-.278h-.079c-.039 0-.04.04-.04.04 0 .159-.039.357-.039.515v4.798c0 .158 0 .356-.04.515 0 .04-.079.08-.079.08-.198 0-.436.039-.634.039-.119 0-.199-.119-.238-.238v-7.572c0-.12.079-.199.158-.199.278-.04.516-.04.793 0 .238.16.317.397.476.595 1.229 1.705 2.418 3.41 3.647 5.114.119.16.238.318.357.437h.08c.039 0 .039-.04.039-.04 0-.159.04-.317.04-.515v-5.353c0-.198.079-.277.317-.277h.436c.079 0 .198.08.198.158 0 .12.04.238.04.357v7.255c0 .08-.079.199-.159.199-.277.119-.594.119-.951.079z" fill="#474A51"/><path d="M177.393 60.619c.198.159.317.317.476.436.753.753.991 1.665.713 2.656-.277 1.031-1.03 1.626-2.022 1.903-.119.04-.237.04-.356.04h-2.538c-.079 0-.198-.08-.198-.198v-7.652c0-.08.119-.159.198-.198h2.419c.674 0 1.149.277 1.506.832.357.516.357 1.11.119 1.665-.119.199-.198.357-.317.516zm-2.973 2.3v.673c.039.397-.08.754.079 1.15.039.12.158.12 1.189.12h.278c.357 0 .674-.12.951-.358.555-.436.754-.99.714-1.665-.079-.872-.793-1.625-1.665-1.665-.397-.04-.833 0-1.229 0-.238 0-.317.08-.317.278v1.466zm.911-2.657h.793c.238 0 .397-.119.555-.317.199-.278.199-.793-.039-1.07a.772.772 0 00-.635-.318h-1.387c-.08 0-.198.08-.198.199v1.308c0 .158.079.238.198.238.277-.04.476-.04.713-.04zm29.458 5.392c-.199-.555-.397-1.07-.595-1.626l-.476-1.308c-.039-.119-.119-.238-.198-.396-.714-.04-1.388-.04-2.062 0-.079.119-.158.238-.198.396-.277.754-.595 1.546-.872 2.34-.04.158-.119.316-.198.475-.04.04-.08.119-.159.119-.277.04-.555.08-.832 0-.04-.198.039-.357.118-.515.635-1.705 1.269-3.41 1.864-5.115.238-.674.476-1.308.713-1.982.04-.08.08-.198.119-.278.04-.04.08-.079.119-.079h.635c.039 0 .119.08.158.12.04.078.08.158.119.277l2.617 7.255c.04.08.04.158.04.198 0 .08-.04.159-.119.159-.199 0-.437 0-.793-.04zm-1.626-4.242c-.039-.357-.119-.674-.515-1.665-.04-.08-.04-.199-.198-.199l-.119.238a7.847 7.847 0 00-.318.873c-.317.872-.356.793.595.793.198 0 .397.04.555-.04zm16.136-.872v2.497c0 .833-.317 1.507-.951 2.062-.635.555-1.348.753-2.181.674a2.606 2.606 0 01-1.903-1.07 2.406 2.406 0 01-.515-1.27c0-.158-.04-.356-.04-.515V58.24c0-.119 0-.238.04-.357 0-.119.079-.198.158-.198h.635c.039 0 .079.04.119.08.039.079.039.158.039.198v4.678c0 .277 0 .595.079.872.159.753.873 1.348 1.666 1.388.753.04 1.506-.555 1.704-1.309.08-.277.08-.555.08-.872v-4.44c0-.635 0-.635.674-.595h.158c.08 0 .159.119.159.198v.436c.079.714.079 1.467.079 2.22zm-32.47 1.11v-3.33c0-.16 0-.358.039-.516 0-.04.08-.119.159-.119.079-.04.198-.04.278-.04h3.488c.08 0 .199 0 .278.04.04 0 .079.04.119.08.04.197.04.396 0 .594 0 .08-.079.119-.159.158-.158.04-.277.04-.436.04h-2.537c-.079 0-.198.08-.198.159v2.26c0 .118.079.238.198.238.158 0 .357.04.515.04h2.022c.159 0 .278 0 .436.039.08 0 .119.08.119.158v.159c0 .476-.039.555-.515.555h-2.022c-.198 0-.397 0-.595.04-.119 0-.198.119-.198.238v.356c0 1.745 0 1.983.079 2.022.635.159 1.309.04 1.943.08h1.031c.238 0 .277.118.277.317v.357c0 .079-.079.158-.198.158h-3.806c-.079 0-.159 0-.198-.04-.04-.04-.119-.079-.159-.158-.039-.159-.039-.357-.039-.516.079-1.11.079-2.26.079-3.37zm83.97 2.299c.199.159.357.317.516.476.079.079.079.198 0 .238-1.308 1.11-2.736 1.427-4.361.872-1.229-.436-2.696-1.784-2.696-3.806 0-1.824 1.15-3.41 2.854-3.965.912-.277 1.824-.277 2.736.04.595.198 1.11.515 1.546.951-.158.278-.396.436-.634.595-.159-.08-.278-.198-.436-.278-.238-.158-.476-.317-.754-.436-.872-.356-1.704-.317-2.537.12-1.11.594-1.705 1.545-1.744 2.814-.04 1.031.356 1.903 1.149 2.577 1.031.833 2.141.952 3.331.397.198-.08.356-.238.555-.357.158-.04.277-.12.475-.238zm61.571.04c.198.04.317.198.476.317.079.08.119.159.198.198-.317.357-.634.595-1.11.833a4.501 4.501 0 01-1.626.436c-.555.04-1.11-.04-1.665-.238a4.075 4.075 0 01-1.427-.872c-1.744-1.586-1.784-4.322-.04-5.987.873-.832 1.864-1.19 3.053-1.15 1.071.04 2.022.476 2.815 1.19-.238.357-.238.357-.674.634-.159-.119-.357-.238-.515-.357-.318-.198-.635-.357-.992-.436-1.704-.476-3.29.634-3.766 2.101-.396 1.348-.119 2.538.952 3.49.872.753 2.18 1.07 3.409.435.278-.198.595-.396.912-.594zm-89.323-2.736c.159-.04.198-.158.278-.238.515-.872 1.03-1.784 1.546-2.656.119-.198.238-.436.357-.634.317-.08.674-.08 1.03-.04 0 .08 0 .159-.039.238-.119.198-.238.436-.357.634-.674 1.19-1.388 2.379-2.062 3.608a1.336 1.336 0 00-.198.674v2.26c0 .158 0 .277-.039.436 0 .04-.08.119-.119.159a2.16 2.16 0 01-.714 0c-.04 0-.079-.04-.079-.08-.04-.079-.04-.198-.04-.277v-2.379c.04-.317-.079-.595-.238-.872-.634-1.031-1.229-2.102-1.824-3.132-.198-.318-.356-.635-.515-.952-.079-.119 0-.238.159-.238h.594c.159 0 .278.08.357.238.119.159.198.317.278.516.475.832.951 1.665 1.467 2.537 0-.04.079.08.158.198zm-13.757.833v-3.331c0-.119-.119-.198-.238-.198h-1.467c-.079 0-.198-.08-.198-.198v-.515c0-.08.079-.12.158-.159.119-.04.238-.04.357-.04h3.767c.118 0 .237 0 .356.04.04 0 .119.08.159.119.04.198.04.396 0 .555 0 .04-.04.08-.079.08-.08.039-.199.039-.278.039h-1.15c-.277 0-.317.08-.317.357v6.621c0 .079-.119.158-.198.198h-.595c-.119 0-.198-.08-.198-.159v-.515c-.079-.952-.079-1.943-.079-2.894zm50.39-.436v-3.291c0-.198 0-.397.04-.595 0-.04.079-.119.119-.158.158-.04.277-.04.436-.04.317 0 .396.08.396.396v6.582c0 .119.119.198.238.238h2.339c.199 0 .278.079.278.317v.357c0 .079-.079.158-.198.158h-3.291c-.079 0-.158 0-.198-.04-.04-.04-.119-.079-.159-.118-.039-.199-.039-.397-.039-.595.039-.991.039-2.101.039-3.211zm12.172 0v-3.251c0-.199 0-.397.039-.595 0-.04.079-.159.119-.159h.634c.08 0 .159.08.199.199v7.215c0 .159 0 .317-.04.516 0 .04-.04.079-.079.079-.238.08-.476.04-.714 0-.04 0-.119-.08-.119-.159-.039-.198-.039-.396-.039-.594V61.65zm25.69.079v3.33c0 .159 0 .278-.039.436 0 .08-.04.12-.159.159a2.16 2.16 0 01-.714 0c-.039 0-.079-.08-.079-.08-.04-.158-.04-.277-.04-.435v-7.256c0-.079.08-.198.199-.198h.515c.198 0 .317.08.317.317v3.727z" fill="#474A51"/></svg>