<svg width="166" height="97" fill="none" xmlns="http://www.w3.org/2000/svg"><path d="M138.133.743H27.741C9.247.743 0 9.991 0 28.485v21.104c0 18.516 9.247 27.774 27.741 27.774h52.585V31.416H43.307v9.253h27.775v27.417H27.775c-12.326 0-18.492-6.166-18.497-18.497V28.485c0-12.326 6.165-18.492 18.497-18.497l133.169.041c-4.536-6.19-12.14-9.286-22.811-9.286z" fill="#FFCC34"/><path d="M10.036 93.001a5.996 5.996 0 01-.258 1.924c-.157.48-.446.908-.833 1.233-.437.34-.953.567-1.5.658-.738.134-1.489.195-2.24.183a16.202 16.202 0 01-2.082-.108 4.838 4.838 0 01-1.357-.35 1.666 1.666 0 01-.741-.608 1.757 1.757 0 01-.225-.916h1.316a.683.683 0 00.141.441c.13.14.303.234.492.267.308.076.623.12.94.133h1.508c.556.005 1.112-.02 1.666-.075a2.408 2.408 0 001.083-.341c.29-.198.5-.493.59-.833.134-.471.196-.96.184-1.45-.087.133-.19.253-.308.359a2.266 2.266 0 01-.616.358c-.334.127-.68.219-1.033.275-.518.076-1.042.112-1.566.108a10.68 10.68 0 01-2.24-.2 3.331 3.331 0 01-1.5-.666 2.632 2.632 0 01-.832-1.283 6.58 6.58 0 01-.267-2.023 6.754 6.754 0 01.267-2.05c.145-.5.434-.946.833-1.282a3.331 3.331 0 011.499-.666 10.738 10.738 0 012.24-.192 10.51 10.51 0 011.566.092c.35.05.696.132 1.033.242.221.07.43.177.616.316.116.085.22.186.308.3v-.733h1.316v6.887zm-4.839-5.938c-.516 0-.958 0-1.332.05a3.986 3.986 0 00-.95.167 1.798 1.798 0 00-.641.341 1.6 1.6 0 00-.375.567c-.098.268-.16.548-.183.832 0 .325-.042.7-.042 1.133 0 .433 0 .833.042 1.124.022.285.084.566.183.833.083.211.211.402.375.558.186.16.405.276.641.342.31.093.628.151.95.175.374 0 .832.05 1.332.05h1.174c.308-.013.612-.06.908-.142.24-.056.468-.161.667-.308a1.6 1.6 0 00.44-.541c.129-.263.213-.544.25-.833.058-.403.086-.81.084-1.216a8.476 8.476 0 00-.083-1.224 2.699 2.699 0 00-.25-.833 1.6 1.6 0 00-.441-.542 1.956 1.956 0 00-.667-.3 4.025 4.025 0 00-.908-.133 7.741 7.741 0 00-1.174-.083v-.017zm14.491 5.938c-.082.15-.186.288-.308.408a1.974 1.974 0 01-.55.442c-.29.145-.603.243-.924.291a8.183 8.183 0 01-1.508.109c-.71.007-1.42-.035-2.124-.126a5.101 5.101 0 01-1.44-.39 1.666 1.666 0 01-1.075-1.666 3.234 3.234 0 01.142-1.008 1.824 1.824 0 011.074-1.141c.269-.11.548-.19.833-.242a6.933 6.933 0 011.074-.1h1.25c.526-.007 1.051.021 1.574.084.35.035.695.102 1.032.2.215.053.42.14.608.258.113.066.214.15.3.25.002-.44-.02-.88-.066-1.316a3.546 3.546 0 00-.217-.908 1.54 1.54 0 00-.383-.575 1.398 1.398 0 00-.575-.333 3.966 3.966 0 00-.79-.141h-2.542a3.873 3.873 0 00-.95.174.983.983 0 00-.5.367c-.1.183-.15.39-.14.6H12.2a2.257 2.257 0 01.225-1.058c.166-.308.425-.556.74-.708.43-.209.892-.341 1.367-.392.69-.09 1.386-.132 2.082-.124a8.971 8.971 0 012.048.2c.51.105.983.347 1.366.699.366.375.624.84.75 1.35a8.62 8.62 0 01.225 2.148v3.74h-1.316V93zm-3.073.15c.49.007.98-.02 1.466-.083.323-.033.64-.115.94-.242.209-.082.389-.224.517-.408a1.04 1.04 0 00.15-.566.892.892 0 00-.175-.558 1.233 1.233 0 00-.583-.367 4.53 4.53 0 00-1.091-.208c-.45 0-1-.066-1.666-.066h-1.599c-.32.007-.636.06-.94.158a.724.724 0 00-.442.358 1.532 1.532 0 00-.117.65c-.006.225.034.448.117.658a.9.9 0 00.491.4c.348.11.71.175 1.075.19.471.079 1.104.118 1.898.118l-.041-.034zm14.516.966h-1.324V89.67a6.193 6.193 0 00-.092-1.208 1.522 1.522 0 00-.375-.833 1.665 1.665 0 00-.832-.433 5.497 5.497 0 00-1.366-.133 6.442 6.442 0 00-1.524.15 2.51 2.51 0 00-.941.433c-.22.176-.388.41-.483.675a2.84 2.84 0 00-.134.833v4.905h-1.29v-7.92h1.315v1.249s0-.058.067-.133c.05-.104.114-.2.192-.283.12-.126.25-.24.391-.342a2.69 2.69 0 01.625-.35c.305-.114.62-.2.94-.258.433-.071.87-.105 1.308-.1a7.33 7.33 0 011.291.092c.323.045.637.138.933.275.24.105.455.258.633.45.165.184.297.395.391.624a2.49 2.49 0 01.367-.433c.202-.196.436-.357.691-.475a5.1 5.1 0 011.108-.383 7.572 7.572 0 011.665-.15c.455-.005.909.028 1.358.1.332.061.654.168.957.317.246.128.462.307.633.524.162.215.284.458.359.717.092.297.15.605.175.916 0 .333.041.7.041 1.099v4.464h-1.357V89.67a6.917 6.917 0 00-.092-1.208 1.599 1.599 0 00-.383-.833 1.665 1.665 0 00-.833-.433 5.545 5.545 0 00-1.366-.133 6.39 6.39 0 00-1.524.15c-.342.08-.665.227-.95.433a1.576 1.576 0 00-.474.675 2.59 2.59 0 00-.133.833l.033 4.963zm13.642.159a8.162 8.162 0 01-1.574-.134 7.503 7.503 0 01-1.033-.291 1.14 1.14 0 01-.6-.492c-.141-.224-.241-.4-.316-.524v1.282h-1.274v-10.56h1.316v3.381a1.65 1.65 0 01.3-.308c.189-.133.396-.24.616-.316.337-.11.682-.19 1.032-.242.522-.07 1.048-.1 1.574-.091a11.36 11.36 0 012.24.191 3.476 3.476 0 011.5.675 2.7 2.7 0 01.832 1.282 7.694 7.694 0 010 4.015 2.615 2.615 0 01-.832 1.265 3.331 3.331 0 01-1.5.667c-.75.148-1.516.215-2.281.2zm0-1.108h1.332a4.41 4.41 0 00.95-.175 1.66 1.66 0 00.64-.341c.169-.15.298-.339.376-.55.1-.268.161-.548.183-.833 0-.308.041-.683.041-1.108 0-.424 0-.832-.041-1.115a3.031 3.031 0 00-.183-.833 1.468 1.468 0 00-.375-.558 1.666 1.666 0 00-.641-.35 4.403 4.403 0 00-.95-.175h-2.507c-.306.016-.61.064-.907.142-.24.062-.466.17-.667.316a1.6 1.6 0 00-.441.541 2.7 2.7 0 00-.25.833 8.114 8.114 0 00-.083 1.2c-.002.398.026.796.083 1.19.036.29.12.572.25.833.105.209.256.39.441.533.2.147.426.252.667.308.298.071.601.116.907.134.361.005.753.008 1.175.008zm6.862-9.611h1.324v10.56h-1.324v-10.56zm5.248 1.324h-1.324v-1.324h1.324v1.324zm-1.324 1.316h1.324v7.92h-1.324v-7.92zm11.442 7.92V89.72a5.826 5.826 0 00-.108-1.24 1.508 1.508 0 00-.441-.834 1.957 1.957 0 00-.933-.45 7.497 7.497 0 00-1.6-.133 7.86 7.86 0 00-1.756.159c-.385.072-.75.222-1.075.441a1.558 1.558 0 00-.541.7 2.55 2.55 0 00-.142.899v4.839h-1.324v-7.92h1.324v1.324a1.6 1.6 0 01.408-.583 2.84 2.84 0 01.608-.417c.232-.117.475-.212.725-.283.258-.068.519-.12.783-.158.266 0 .516-.067.766-.083.25-.017.466 0 .666 0a8.841 8.841 0 011.516.108c.374.06.738.169 1.083.325.27.123.51.302.708.525.184.215.325.464.416.732.104.302.171.615.2.933 0 .342.05.708.05 1.116v4.397H67zm12.551-1.116a6.025 6.025 0 01-.259 1.924c-.157.48-.445.908-.832 1.233a3.33 3.33 0 01-1.5.658c-.738.134-1.489.195-2.24.183a16.31 16.31 0 01-2.082-.108 4.838 4.838 0 01-1.357-.35 1.665 1.665 0 01-.742-.608 1.757 1.757 0 01-.224-.916h1.307a.683.683 0 00.142.441c.13.14.303.234.491.267.311.076.63.121.95.133h1.499c.556.005 1.112-.02 1.665-.075a2.407 2.407 0 001.083-.283c.291-.197.501-.493.591-.833.138-.47.2-.96.184-1.45-.087.133-.19.254-.309.359a2.34 2.34 0 01-.608.358 5.448 5.448 0 01-1.04.275 10.09 10.09 0 01-1.566.108 10.735 10.735 0 01-2.24-.2 3.332 3.332 0 01-1.5-.666 2.69 2.69 0 01-.833-1.282 6.603 6.603 0 01-.258-2.024 6.778 6.778 0 01.258-2.049 2.69 2.69 0 01.833-1.282 3.332 3.332 0 011.5-.667 10.827 10.827 0 012.24-.191c.523-.01 1.046.021 1.565.091a6.48 6.48 0 011.041.242c.219.072.424.179.608.316.117.085.22.186.309.3v-.733h1.315l.009 6.83zm-4.84-5.938c-.515 0-.957 0-1.332.05-.322.017-.64.073-.949.167-.233.066-.45.183-.633.341-.17.157-.3.351-.383.567a2.86 2.86 0 00-.175.832c-.036.377-.052.755-.05 1.133-.003.375.014.75.05 1.124.016.285.075.566.175.833.083.213.214.404.383.558.19.162.415.276.658.333.31.093.627.152.95.175.374 0 .832.05 1.332.05h1.174c.307-.012.612-.06.908-.141a1.77 1.77 0 00.666-.308c.188-.144.339-.33.442-.542a2.72 2.72 0 00.25-.833c.061-.402.09-.809.083-1.216a7.372 7.372 0 00-.084-1.224 2.696 2.696 0 00-.25-.833 1.507 1.507 0 00-.44-.541 1.89 1.89 0 00-.667-.3 4.025 4.025 0 00-.908-.133 8.682 8.682 0 00-1.2-.075v-.017zm14.526-1.083c.75-.01 1.501.054 2.24.192.547.102 1.06.333 1.499.675.395.339.684.784.833 1.282a7.93 7.93 0 010 4.015 2.582 2.582 0 01-.833 1.266 3.33 3.33 0 01-1.499.666c-.738.145-1.489.212-2.24.2a9.199 9.199 0 01-1.574-.117 4.255 4.255 0 01-1.033-.275 2.19 2.19 0 01-.616-.35 1.382 1.382 0 01-.3-.366v3.598h-1.316V86.197h1.316v.733c.082-.116.183-.217.3-.3.184-.126.386-.225.6-.291.336-.11.681-.191 1.032-.242a10.446 10.446 0 011.59-.116zm0 1.1h-1.175c-.306.016-.61.064-.907.142a1.89 1.89 0 00-.667.3 1.507 1.507 0 00-.441.54 2.659 2.659 0 00-.25.834c-.061.394-.09.792-.083 1.19a7.12 7.12 0 00.066 1.25c.037.29.122.57.25.833.103.212.254.398.442.541.2.142.427.244.666.3.297.078.601.125.908.141h2.506c.322-.023.64-.082.95-.174.236-.066.455-.182.641-.342.166-.152.294-.34.375-.55.1-.267.163-.547.183-.832v-2.232a3.105 3.105 0 00-.183-.833 1.564 1.564 0 00-.375-.558 1.798 1.798 0 00-.641-.342 3.913 3.913 0 00-.95-.183c-.358-.008-.799-.025-1.315-.025zm14.275 5.921c-.084.152-.19.29-.316.408a1.765 1.765 0 01-.55.442 2.97 2.97 0 01-.916.291 8.187 8.187 0 01-1.508.109c-.71.007-1.42-.035-2.123-.126a5.101 5.101 0 01-1.441-.39 1.666 1.666 0 01-1.075-1.666 3.234 3.234 0 01.142-1.008c.081-.263.224-.503.416-.7.187-.191.41-.342.658-.441.269-.11.548-.19.833-.242a6.933 6.933 0 011.075-.1h1.249c.526-.007 1.052.021 1.574.084.349.036.695.103 1.033.2.214.053.42.14.608.258.11.069.211.153.299.25.003-.44-.02-.88-.066-1.316a3.547 3.547 0 00-.217-.908 1.529 1.529 0 00-.383-.575 1.397 1.397 0 00-.575-.333 3.96 3.96 0 00-.832-.141h-2.549a3.88 3.88 0 00-.94.174.95.95 0 00-.5.367c-.106.181-.155.39-.142.6h-1.241a2.257 2.257 0 01.225-1.058c.166-.308.426-.556.741-.708.43-.209.891-.341 1.366-.392.69-.09 1.386-.132 2.082-.124a8.976 8.976 0 012.049.2c.51.105.982.347 1.365.699.366.375.624.84.75 1.35.165.703.241 1.425.225 2.148v3.74h-1.316V93zm-3.073.15c.49.007.98-.02 1.466-.083.324-.033.641-.115.941-.242.207-.08.385-.222.508-.408a.987.987 0 00.158-.566.889.889 0 00-.175-.558 1.223 1.223 0 00-.591-.367 4.378 4.378 0 00-1.083-.208c-.45 0-.999-.066-1.665-.066h-1.6a3.33 3.33 0 00-.932.158.775.775 0 00-.45.358c-.082.206-.12.428-.108.65-.006.225.033.448.116.658a.9.9 0 00.492.4c.348.11.709.175 1.074.19.466.079 1.083.118 1.849.118v-.034zm12.975-4.372c.006-.28-.02-.559-.075-.833a.836.836 0 00-.342-.525 1.933 1.933 0 00-.833-.274 10.718 10.718 0 00-1.432-.075 5.774 5.774 0 00-1.449.15 2.27 2.27 0 00-.875.441 1.368 1.368 0 00-.424.675 3.088 3.088 0 00-.117.833v4.896h-1.266v-7.92h1.316v1.258a1.817 1.817 0 01.816-.95c.309-.17.639-.296.983-.374a6.3 6.3 0 011.499-.15 6.232 6.232 0 011.666.183c.375.09.722.273 1.007.533.236.228.406.516.492.833.088.396.13.801.125 1.207l-1.091.092zm9.686 1.824a7.342 7.342 0 01-.167 1.666c-.087.403-.28.777-.558 1.082-.278.284-.63.486-1.016.583a6.042 6.042 0 01-1.566.167 7.102 7.102 0 01-1.515-.133 2.203 2.203 0 01-.983-.467 1.846 1.846 0 01-.55-.883 4.877 4.877 0 01-.158-1.366V87.28h-1.666v-1.1h1.666v-2.148h1.316v2.148h4.997v1.1h-4.997v3.964c-.011.342.023.683.1 1.016.045.205.156.39.316.525a1.1 1.1 0 00.583.191h1.624a2.33 2.33 0 00.575-.091c.152-.043.294-.117.416-.217.12-.118.214-.26.275-.416.082-.217.135-.444.158-.675V90.57l1.15.033zm9.677 3.514V89.72a5.807 5.807 0 00-.109-1.24 1.507 1.507 0 00-.441-.834 1.957 1.957 0 00-.933-.45 7.5 7.5 0 00-1.599-.133 7.857 7.857 0 00-1.757.159c-.385.07-.751.22-1.074.441a1.554 1.554 0 00-.542.7 2.575 2.575 0 00-.15.899v4.839h-1.316v-7.92h1.316v1.324c.097-.221.239-.42.417-.583a2.6 2.6 0 01.608-.417c.231-.117.474-.212.724-.283a6.87 6.87 0 01.783-.158c.267 0 .516-.067.766-.083.25-.017.467 0 .667 0a8.834 8.834 0 011.515.108c.374.06.738.169 1.083.325.27.123.511.302.708.525.182.217.323.465.416.732.105.302.172.615.2.933 0 .342.05.708.05 1.116v4.397h-1.332zm7.712.159a12.138 12.138 0 01-2.24-.183 3.541 3.541 0 01-1.499-.633 2.497 2.497 0 01-.833-1.2 5.743 5.743 0 01-.258-1.882 7.455 7.455 0 01.258-2.149 2.8 2.8 0 01.833-1.349 3.329 3.329 0 011.499-.7 10.738 10.738 0 012.24-.2 8.503 8.503 0 011.666.134c.412.075.81.21 1.183.4.316.154.599.369.832.633.197.237.359.5.483.783.123.307.204.629.242.957.041.388.061.777.058 1.166l-.108.433h-7.812c-.014.493.047.984.183 1.458.089.34.299.637.592.833.33.192.701.306 1.082.333.554.051 1.11.074 1.666.066h1.499c.324-.018.644-.083.949-.191a.911.911 0 00.492-.383c.101-.196.15-.413.141-.633h1.275c.009.375-.065.748-.217 1.09a1.75 1.75 0 01-.741.734 4.241 4.241 0 01-1.358.4c-.699.078-1.403.106-2.107.083zm0-7.196h-1.182a4.6 4.6 0 00-.908.125 2.06 2.06 0 00-.658.267 1.669 1.669 0 00-.45.408 1.71 1.71 0 00-.241.666c-.062.343-.09.692-.084 1.04h6.605a3.672 3.672 0 00-.175-1.265 1.663 1.663 0 00-.542-.75 2.14 2.14 0 00-.957-.408 7.626 7.626 0 00-1.408-.083zm12.984 1.7a3.756 3.756 0 00-.075-.834.834.834 0 00-.341-.524 1.938 1.938 0 00-.792-.275 10.619 10.619 0 00-1.432-.075 5.77 5.77 0 00-1.449.15 2.17 2.17 0 00-.833.441c-.21.175-.361.41-.433.675a3.168 3.168 0 00-.117.833v4.897h-1.315v-7.92h1.315v1.257c.153-.407.45-.745.833-.95a3.6 3.6 0 01.975-.374c.494-.11 1-.16 1.507-.15a6.167 6.167 0 011.666.183c.375.09.722.273 1.007.533.239.226.409.515.492.833.088.396.13.801.125 1.207l-1.133.092zm4.954 1.723a10.947 10.947 0 01-1.216-.117 3.811 3.811 0 01-.833-.241 1.44 1.44 0 01-.533-.425 1.59 1.59 0 01-.283-.658 3.819 3.819 0 01-.083-.833c-.016-.37.073-.736.258-1.057.204-.306.494-.543.833-.683a4.885 4.885 0 011.499-.383 17.179 17.179 0 012.24-.117 13.96 13.96 0 012.157.133c.472.061.928.205 1.349.425.302.161.546.411.7.716.139.326.207.678.2 1.033h-1.324a1.122 1.122 0 00-.142-.608.967.967 0 00-.491-.367 3.834 3.834 0 00-.941-.183c-.4 0-.9-.05-1.508-.05h-1.665a4.892 4.892 0 00-1.083.142c-.229.042-.437.16-.591.333a1.003 1.003 0 00-.184.625 4.373 4.373 0 000 .458.774.774 0 00.142.366.67.67 0 00.325.225c.189.058.385.095.583.108.301.03.604.043.908.042h2.981c.408.02.814.067 1.216.141.294.055.576.162.833.317.203.127.386.284.541.466.135.175.232.377.283.592.056.257.084.52.084.783.001.28-.027.558-.084.832a1.667 1.667 0 01-.291.625c-.153.19-.343.35-.558.466a3.458 3.458 0 01-.891.317 9.23 9.23 0 01-1.283.175c-.5 0-1.074.058-1.74.058a14.403 14.403 0 01-2.074-.125 4.102 4.102 0 01-1.366-.391 1.665 1.665 0 01-.733-.708 2.262 2.262 0 01-.225-1.058h1.316c-.008.233.041.465.142.675.116.182.289.322.491.4.305.111.625.178.949.2.4.033.9.05 1.5.05.549 0 1.024 0 1.407-.042a7.83 7.83 0 00.974-.117c.213-.043.42-.11.617-.2a1.02 1.02 0 00.349-.283.827.827 0 00.142-.366c.013-.15.013-.3 0-.45a1.988 1.988 0 000-.408 1 1 0 00-.133-.35.738.738 0 00-.325-.267 2.5 2.5 0 00-.583-.141 7.88 7.88 0 00-.916-.083h-1.308c-.474 0-1.157.008-1.632.008zM138.132 40.67H98.823v-9.887h-9.244v46.58h9.244V49.88h39.309c15.347 0 24.319-6.385 26.917-19.155h-9.777c-2.432 6.663-8.128 9.944-17.14 9.944z" fill="#fff"/></svg>