<svg xmlns="http://www.w3.org/2000/svg" id="svg2" width="336.3" height="337.7" viewBox="0 0 336.3 337.7"><style id="style3">.st0{fill:#ffd608}</style><path id="path4" class="st0" d="M309.908 286.597l-59.1-58.994c13.308-19.635 21.013-43.285 21.013-68.767 0-67.982-55.248-123.136-123.367-123.136C80.248 35.613 25 90.766 25 158.748c0 67.983 55.248 123.136 123.367 123.136 25.128 0 48.506-7.505 68.03-20.42l59.276 59.167c9.457 9.425 24.779 9.425 34.235 0 9.456-9.337 9.456-24.61 0-34.034zM54.244 158.748c0-51.75 42.202-93.9 94.123-93.9 51.92 0 94.21 42.15 94.21 93.988 0 51.837-42.202 93.988-94.21 93.988-52.009 0-94.123-42.238-94.123-94.076z" fill="#ffd608"/></svg>