<svg xmlns="http://www.w3.org/2000/svg" viewBox="0 0 34 34"><path d="M4.9 5C8.3 1.7 12.3 0 17 0s8.7 1.7 12 5c3.3 3.3 5 7.3 5 12s-1.7 8.7-5 12.1c-3.3 3.3-7.3 4.9-12 4.9s-8.7-1.6-12.1-4.9C1.6 25.7 0 21.7 0 17S1.6 8.3 4.9 5zM24 12.2c-.4-.5-.9-.7-1.5-.7s-1.1.2-1.6.7c-.4.4-.6.9-.6 1.5s.2 1.1.6 1.6c.5.4 1 .6 1.6.6.6 0 1.1-.2 1.5-.6.5-.5.7-1 .7-1.6 0-.6-.3-1.1-.7-1.5zM8.1 27c.6.6 1.4 1 2.3 1 .9 0 1.7-.3 2.3-1 .6-.6 1-1.4 1-2.3 0-1.1-1-2.8-2.9-5.3-.1-.1-.2-.2-.4-.2s-.3.1-.4.2c-1.9 2.5-2.9 4.3-2.9 5.3 0 .9.3 1.7 1 2.3zm1.8-11.7c.5.4 1 .6 1.6.6.6 0 1.1-.2 1.5-.6.5-.5.7-1 .7-1.6 0-.6-.2-1.1-.7-1.5-.4-.5-.9-.7-1.5-.7s-1.1.2-1.6.7c-.4.4-.6.9-.6 1.5s.2 1.1.6 1.6zm13.3 11.2c.3.4.6.5 1 .4.5-.1.7-.3.8-.7.1-.4.1-.7-.1-1.1-2.1-2.5-4.7-3.7-7.9-3.7-.7 0-1.1.4-1.1 1.1 0 .7.4 1.1 1.1 1.1 2.5 0 4.6.9 6.2 2.9z" fill="#fff"/></svg>