<svg id="Capa_1" xmlns="http://www.w3.org/2000/svg" viewBox="0 0 27.3 40"><style>.st0{fill:#00190d}.st1{fill:#0bff00}</style><path class="st0" d="M0 0h28v40H0z"/><path class="st1" d="M21.2 18.7c-1.1-.6-2.3-1.1-3.4-1.5-.7-.3-1.3-.6-1.9-1.1-1.1-.9-.9-2.3.4-2.9.4-.2.8-.2 1.1-.2 1.5-.1 3 .2 4.3.9.7.3.9.2 1.1-.5.2-.8.4-1.5.7-2.3.2-.5 0-.8-.5-1.1-.9-.4-1.8-.7-2.7-.8-1.2-.2-1.2-.2-1.2-1.4 0-1.8 0-1.8-1.8-1.8h-.7c-.8 0-1 .2-1 1v1.1c0 1.1 0 1.1-1.1 1.5-2.5.9-4.1 2.7-4.3 5.4-.2 2.5 1.1 4.1 3.2 5.3 1.2.7 2.6 1.2 3.9 1.8.5.2 1 .5 1.5.9 1.3 1 1 2.8-.5 3.4-.8.4-1.7.4-2.5.3-1.3-.2-2.6-.5-3.9-1.2-.7-.4-.9-.3-1.2.5-.2.7-.4 1.3-.6 2-.2.9-.2 1.1.7 1.5 1.1.5 2.3.8 3.5 1 .9.2 1 .2 1 1.2V33c0 .6.3.9.8.9H18c.5 0 .8-.3.8-.8v-1.8c0-.6.2-.9.8-1.1 1.4-.4 2.5-1.1 3.4-2.2 2.6-2.9 1.7-7.3-1.8-9.3z"/></svg>