<svg id="Слой_1" xmlns="http://www.w3.org/2000/svg" width="100" height="100.1" viewBox="0 0 100 100.1"><style>.st0{fill:#ffd608}</style><path class="st0" d="M100 56.3V43.8l-14.9-6.2c-.4-1.2-.9-2.3-1.4-3.4l6-15-8.8-8.8-14.9 6c-1.1-.5-2.3-1-3.5-1.4L56.2.1H43.7l-6.2 14.8c-1.2.4-2.4.9-3.6 1.5l-14.9-6-8.8 8.8 6 14.8c-.6 1.2-1.1 2.4-1.5 3.7L0 44v12.5l14.7 6.1c.5 1.3.9 2.5 1.5 3.7l-5.9 14.8 8.8 8.8 14.8-6.1c1.2.6 2.4 1 3.6 1.4l6.3 14.8h12.5l6.2-14.9c1.2-.4 2.4-.9 3.5-1.4l15 6 8.8-8.8L83.6 66c.5-1.1 1-2.3 1.4-3.4l15-6.3zM49.9 68.9c-10.4 0-18.8-8.4-18.8-18.8s8.4-18.8 18.8-18.8 18.8 8.4 18.8 18.8-8.4 18.8-18.8 18.8z"/></svg>