<svg id="Слой_1" xmlns="http://www.w3.org/2000/svg" viewBox="0 0 1010 530"><path fill="#c9c9c9" d="M0 0h1010v530H0z"/><path d="M137.5 238.2c6.5 5.9 9.7 14.5 9.7 25.8 0 7.3-1.6 13.6-4.8 19-3.2 5.4-7.7 9.7-13.7 12.7-6 3-13.1 4.5-21.4 4.5l-6.2-.1c-3.9-.1-6.7-.2-8.4-.2-6.9 0-12 .1-15.4.3v-2c2.2-.1 3.8-.4 4.9-.8 1-.4 1.7-1.2 2.1-2.3.4-1.1.5-3 .5-5.5V240c0-2.5-.2-4.4-.5-5.5-.4-1.1-1.1-1.9-2.1-2.3-1-.4-2.6-.7-4.9-.8v-2c2.8.2 6.8.3 12.1.3h3.1l4-.1c5.5-.1 9.4-.2 11.7-.2 13.1 0 22.8 2.9 29.3 8.8zm-33.9-6.3c-1 .5-1.8 1.3-2.1 2.5s-.6 3-.6 5.4v50c0 2.4.2 4.2.6 5.4s1.1 2 2.1 2.5 2.6.7 4.8.7c8.1 0 13.8-2.8 17.2-8.5 3.4-5.6 5.1-14.2 5.1-25.5 0-11.4-1.8-19.8-5.2-25.2-3.5-5.4-9.2-8-17.1-8-2.3 0-3.8.2-4.8.7zm91.6 17.9c1.5 1.8 2.3 4 2.3 6.5s-.7 4.5-2.1 6.1c-1.4 1.6-3.3 2.3-5.6 2.3s-4.1-.6-5.4-1.8c-1.3-1.2-2-2.7-2-4.7 0-3.2 1.5-5.8 4.4-7.8-.3-.1-.7-.1-1.2-.1-.7 0-1.2.1-1.6.2-2.5.4-4.7 1.9-6.4 4.6-1.8 2.7-2.6 5.4-2.6 8.2v26.5c0 3.1.8 5.2 2.2 6.4 1.5 1.2 3.9 1.8 7.1 1.8v2.1c-.9 0-1.7 0-2.3-.1-6.8-.2-11.3-.3-13.6-.3-1.8 0-5.9.1-12.3.3-.5.1-1.2.1-2 .1V298c2.4 0 4.1-.5 5-1.6.9-1 1.4-2.9 1.4-5.6v-31.5c0-3.1-.5-5.3-1.4-6.7-.9-1.4-2.6-2.1-5-2.1v-2.1c2.1.2 4.2.3 6.2.3 5.9 0 10.8-.5 14.6-1.4v9.3c1.3-2.9 3.1-5.2 5.5-7 2.4-1.8 5.1-2.6 8.1-2.6s5.2 1 6.7 2.8zm18.9 38.4c1.5 1.4 2.3 3.2 2.3 5.7 0 2.4-.8 4.3-2.3 5.6-1.5 1.4-3.6 2.1-6.2 2.1s-4.7-.7-6.2-2.1c-1.5-1.4-2.3-3.2-2.3-5.6 0-2.4.8-4.3 2.3-5.7 1.5-1.4 3.6-2 6.2-2s4.7.7 6.2 2zm76.6-56.8c-2.2.3-3.8.9-4.8 1.7-1 .8-1.7 2.1-2.1 3.8-.4 1.7-.6 4.3-.6 7.7v55.8l-2.4-.1-2.7.1-43.4-55v38.4c0 3.9.2 6.8.6 8.7.4 1.8 1.3 3.2 2.6 4 1.3.8 3.5 1.4 6.5 1.8v2c-2.6-.2-6.2-.3-10.8-.3-3.7 0-6.6.1-8.7.3v-2c2.2-.3 3.8-.9 4.9-1.7 1-.8 1.7-2.1 2.1-3.8.4-1.7.5-4.3.5-7.7v-45c0-2.5-.2-4.4-.5-5.5-.4-1.1-1.1-1.9-2.1-2.3-1-.4-2.6-.7-4.9-.8v-2c2.1.2 5 .3 8.7.3 3.3 0 6.2-.1 8.6-.3l38.7 47.7v-31.3c0-3.9-.2-6.8-.6-8.6-.4-1.8-1.3-3.2-2.6-4-1.3-.8-3.5-1.4-6.5-1.8v-2c2.6.2 6.2.3 10.8.3 3.7 0 6.6-.1 8.7-.3v1.9zm7 66.2c-2.1-2.2-3.1-5.1-3.1-8.7 0-3 .8-5.5 2.4-7.5 1.6-2 3.5-3.5 5.7-4.5 2.2-1.1 5.1-2.2 8.5-3.4 3.7-1.3 6.4-2.4 8-3.5 1.7-1 2.6-2.4 2.6-4.2V258c0-2.8-.6-5-2-6.5-1.3-1.6-3.3-2.3-6-2.3-3.2 0-5.6.8-7.3 2.4 1.9.7 3.3 1.7 4.4 3 1 1.3 1.6 2.9 1.6 4.7 0 2.3-.8 4.1-2.3 5.4-1.5 1.3-3.4 2-5.6 2-2.3 0-4.1-.7-5.4-2.2-1.3-1.5-1.9-3.3-1.9-5.5 0-1.9.5-3.5 1.4-4.8s2.3-2.5 4.1-3.7c1.8-1.1 4-1.9 6.6-2.5 2.6-.6 5.5-.9 8.6-.9 3.3 0 6.1.3 8.5 1 2.4.7 4.4 1.8 6 3.4 1.5 1.5 2.5 3.3 3 5.4.5 2.1.8 5 .8 8.7v27.2c0 1.6.2 2.7.5 3.4.3.7.9 1 1.8 1 1 0 2.2-.6 3.6-1.7l1 1.7c-3 2.5-6.7 3.7-11 3.7-3.7 0-6.2-.7-7.7-2.2-1.5-1.5-2.2-3.4-2.3-5.9-3.3 5.4-8.2 8.1-14.7 8.1-4.6 0-7.7-1.1-9.8-3.3zm24-7.2v-20.5c-.8 1.3-2.5 2.8-5.1 4.4-2.6 1.7-4.6 3.3-5.9 5-1.3 1.7-2 4.1-2 7.2 0 2.7.6 4.8 1.7 6 1.1 1.3 2.6 2 4.5 2 2.6 0 4.9-1.4 6.8-4.1zm44.4-41.9h11.8v2h-11.8v40.4c0 2 .3 3.4 1 4.2.7.8 1.8 1.2 3.3 1.2 2.9 0 5.1-2 6.8-6l1.7.9c-2.5 6.9-7.1 10.3-13.7 10.3-4.4 0-7.7-1.1-10-3.4-1.4-1.4-2.4-3.2-2.9-5.2s-.8-5-.8-8.7v-33.8h-8.4v-2h8.4v-13.2c5.5 0 10.3-1.1 14.4-3.2v16.5zm18.6 49.1c-2.1-2.2-3.1-5.1-3.1-8.7 0-3 .8-5.5 2.3-7.5 1.6-2 3.5-3.5 5.7-4.5 2.2-1.1 5.1-2.2 8.5-3.4 3.7-1.3 6.3-2.4 8-3.5 1.7-1 2.5-2.4 2.5-4.2V258c0-2.8-.6-5-1.9-6.5-1.3-1.6-3.3-2.3-6.1-2.3-3.2 0-5.6.8-7.3 2.4 1.9.7 3.3 1.7 4.4 3 1 1.3 1.5 2.9 1.5 4.7 0 2.3-.8 4.1-2.3 5.4-1.5 1.3-3.4 2-5.6 2-2.3 0-4.1-.7-5.4-2.2-1.3-1.5-1.9-3.3-1.9-5.5 0-1.9.5-3.5 1.3-4.8.9-1.3 2.3-2.5 4.2-3.7 1.8-1.1 4-1.9 6.7-2.5 2.6-.6 5.5-.9 8.6-.9 3.3 0 6.1.3 8.5 1 2.4.7 4.4 1.8 6 3.4 1.5 1.5 2.5 3.3 3 5.4.5 2.1.8 5 .8 8.7v27.2c0 1.6.2 2.7.5 3.4.3.7.9 1 1.8 1 1 0 2.2-.6 3.6-1.7l1 1.7c-3 2.5-6.7 3.7-11 3.7-3.7 0-6.2-.7-7.7-2.2-1.5-1.5-2.2-3.4-2.3-5.9-3.3 5.4-8.2 8.1-14.7 8.1-4.4 0-7.5-1.1-9.6-3.3zm24-7.2v-20.5c-.8 1.3-2.5 2.8-5.1 4.4-2.6 1.7-4.6 3.3-5.9 5-1.3 1.7-2 4.1-2 7.2 0 2.7.6 4.8 1.7 6 1.1 1.3 2.6 2 4.5 2 2.6 0 4.9-1.4 6.8-4.1zm44.5.5c0 2.7.5 4.6 1.4 5.6.9 1 2.6 1.6 5 1.6v2.1c-6.9-.3-11.4-.4-13.4-.4-2.3 0-6.9.1-13.8.4v-2.1c2.3 0 4-.5 5-1.6 1-1 1.5-2.9 1.5-5.6v-57c0-3.1-.5-5.3-1.5-6.7-1-1.4-2.6-2.1-5-2.1V223c2.1.2 4.2.3 6.2.3 5.8 0 10.7-.5 14.6-1.4v69zm31.5 0c0 2.7.5 4.6 1.5 5.6s2.6 1.6 4.9 1.6v2.1c-6.7-.3-11.1-.4-13.3-.4-2.1 0-6.7.1-13.9.4v-2.1c2.4 0 4.1-.5 5-1.6.9-1 1.4-2.9 1.4-5.6v-31.5c0-3.1-.5-5.3-1.4-6.7-.9-1.4-2.6-2.1-5-2.1v-2.1c2.1.2 4.2.3 6.2.3 5.9 0 10.8-.5 14.6-1.4v43.5zm-1.2-66.2c1.6 1.4 2.5 3.2 2.5 5.7 0 2.4-.8 4.3-2.5 5.6-1.6 1.4-3.8 2.1-6.6 2.1s-5-.7-6.7-2.1c-1.6-1.4-2.5-3.2-2.5-5.6 0-2.4.8-4.3 2.5-5.7 1.6-1.4 3.8-2 6.7-2 2.8 0 5 .7 6.6 2zm54.5 60.7l1.8.6c-1.3 4.3-3.7 8-7.1 11-3.4 3-7.7 4.6-12.9 4.6-7.1 0-12.7-2.2-16.8-6.8-4.2-4.5-6.2-11.2-6.2-20 0-9 2.2-15.9 6.7-20.7 4.5-4.8 10.4-7.1 17.8-7.1 12.5 0 18.8 7.4 18.8 22.2H512c-.1 1-.1 2.6-.1 4.7 0 4.4.6 8.1 1.9 11 1.2 2.9 2.8 5.1 4.8 6.4 2 1.3 4.1 2 6.3 2 5.4.1 9.8-2.6 13.1-7.9zm-23.4-31.8c-1.6 3-2.6 7.5-3 13.8h15.7c.1-5.3-.4-9.6-1.6-13-1.2-3.4-2.9-5.2-5.2-5.2-2.3 0-4.3 1.5-5.9 4.4zm108.3-9c0 3.1.1 5.7.3 7.6h-2.3c-1.3-7.5-3.3-12.8-6-15.9-2.7-3.1-6.4-4.6-11.2-4.6h-3.3c-2.1 0-3.6.2-4.5.5-.9.3-1.6 1-1.9 2-.3 1-.5 2.5-.5 4.6V264h3.5c3.5 0 6.2-1.3 8-3.9 1.8-2.6 3.1-5.7 3.9-9.3h2.3c-.2 2.8-.3 5.9-.3 9.4v4.8c0 3.4.2 8.1.6 14.2h-2.3c-1.4-8.8-5.5-13.2-12.2-13.2h-3.5v23c0 2.7.3 4.6.9 5.9.6 1.2 1.6 2 3 2.4 1.4.4 3.7.6 6.8.7v2.2c-8.2-.2-14.3-.3-18.3-.3-3.3 0-7.5.1-12.6.2l-3.2.1v-2c2.2-.1 3.8-.4 4.8-.8s1.7-1.2 2.1-2.3c.4-1.1.6-3 .6-5.5V240c0-2.5-.2-4.4-.6-5.5-.4-1.1-1.1-1.9-2.1-2.3-1-.4-2.7-.7-4.8-.8v-2c7.2.2 18.1.3 32.6.3 9.8 0 16.8-.1 20.9-.3-.5 5.6-.7 10.7-.7 15.2zm25 46.3c0 2.7.5 4.6 1.4 5.6.9 1 2.6 1.6 5 1.6v2.1c-6.9-.3-11.4-.4-13.4-.4-2.3 0-6.9.1-13.8.4v-2.1c2.3 0 4-.5 5-1.6 1-1 1.5-2.9 1.5-5.6v-57c0-3.1-.5-5.3-1.5-6.7-1-1.4-2.6-2.1-5-2.1V223c2.1.2 4.2.3 6.2.3 5.8 0 10.7-.5 14.6-1.4v69zm60.5-1.6c0 3.1.5 5.3 1.5 6.7 1 1.4 2.6 2.1 4.9 2.1v2.1c-2.1-.2-4.1-.3-6.2-.3-5.8 0-10.7.5-14.6 1.4v-9c-3.1 6.2-8.4 9.3-16.1 9.3-5 0-8.6-1.3-10.9-3.9-1.1-1.3-1.8-2.9-2.3-5-.5-2-.8-4.7-.8-8v-25.3c0-3.1-.5-5.3-1.5-6.7-1-1.4-2.6-2.1-5-2.1v-2.1c2.1.2 4.1.3 6.2.3 5.8 0 10.7-.5 14.6-1.4v41.4c0 2.8.4 4.9 1.2 6.3.8 1.4 2.4 2.1 4.8 2.1 2.7 0 5-1.1 6.9-3.3 1.9-2.2 2.8-5 2.8-8.2v-26.2c0-3.1-.5-5.3-1.5-6.7-1-1.4-2.6-2.1-4.9-2.1v-2.1c2.1.2 4.2.3 6.2.3 5.8 0 10.7-.5 14.6-1.4v41.8zm59-38.3c1.1 1.3 1.9 2.9 2.4 4.9.5 2 .7 4.7.7 8.1v26.9c0 2.7.5 4.6 1.5 5.6s2.6 1.6 4.9 1.6v2.1c-6.7-.3-11.1-.4-13.2-.4-2 0-6.3.1-13 .4v-2.1c2 0 3.4-.5 4.2-1.6.8-1 1.2-2.9 1.2-5.6v-31.1c0-2.7-.5-4.8-1.3-6.2-.9-1.4-2.5-2.1-4.9-2.1-2.7 0-5.1 1.1-7 3.4-1.9 2.2-2.9 5-2.9 8.2v27.8c0 2.7.4 4.6 1.2 5.6.8 1 2.2 1.6 4.2 1.6v2.1c-6.1-.3-10.3-.4-12.4-.4-2 0-6.6.1-13.8.4v-2.1c2.4 0 4.1-.5 5-1.6.9-1 1.4-2.9 1.4-5.6v-31.5c0-3.1-.5-5.3-1.4-6.7-.9-1.4-2.6-2.1-5-2.1v-2.1c2.1.2 4.2.3 6.2.3 5.9 0 10.8-.5 14.6-1.4v9c3-6.2 8.5-9.3 16.4-9.3 5.1 0 8.7 1.3 11 3.9zm63.8 44.9c.9 1.4 2.6 2.1 5 2.1v2.1c-2.1-.2-4.1-.3-6.2-.3-5.9 0-10.8.5-14.6 1.4v-8.6c-2.3 6-6.6 9-13 9-6.3 0-11.2-2.3-15-6.9-3.7-4.6-5.5-11.5-5.5-20.6 0-5.9 1-10.8 2.9-14.9 1.9-4 4.5-7.1 7.9-9.1 3.4-2 7.2-3 11.5-3 4.9 0 8.6 1.3 11.1 3.8v-17c0-3.1-.5-5.3-1.5-6.7-1-1.4-2.6-2.1-5-2.1V223c2.1.2 4.2.3 6.2.3 5.8 0 10.7-.5 14.6-1.4v67.3c.2 3 .7 5.3 1.6 6.7zm-18.9-1c1.7-1.6 2.7-3.8 3-6.5v-35c-1.7-2.3-4.1-3.4-7.3-3.4-3.5 0-6.3 2-8.2 6.1-1.9 4.1-2.9 10.1-2.8 18.2-.1 8.1.7 14 2.3 17.6 1.6 3.6 4 5.4 7 5.4 2.4 0 4.3-.8 6-2.4zm69.3-45.1c1.5 1.8 2.3 4 2.3 6.5s-.7 4.5-2.2 6.1c-1.4 1.6-3.3 2.3-5.7 2.3-2.3 0-4.1-.6-5.4-1.8-1.3-1.2-2-2.7-2-4.7 0-3.2 1.5-5.8 4.4-7.8-.3-.1-.7-.1-1.2-.1-.7 0-1.2.1-1.6.2-2.5.4-4.7 1.9-6.5 4.6-1.8 2.7-2.6 5.4-2.6 8.2v26.5c0 3.1.8 5.2 2.2 6.4 1.5 1.2 3.9 1.8 7.1 1.8v2.1c-.9 0-1.7 0-2.3-.1-6.8-.2-11.3-.3-13.6-.3-1.8 0-5.9.1-12.3.3-.5.1-1.2.1-2 .1V298c2.4 0 4.1-.5 5-1.6.9-1 1.4-2.9 1.4-5.6v-31.5c0-3.1-.5-5.3-1.4-6.7-.9-1.4-2.6-2.1-5-2.1v-2.1c2.1.2 4.2.3 6.2.3 5.9 0 10.8-.5 14.6-1.4v9.3c1.3-2.9 3.1-5.2 5.5-7 2.4-1.8 5.1-2.6 8.1-2.6s5.5 1 7 2.8zm9.1 47.8c-2.1-2.2-3.1-5.1-3.1-8.7 0-3 .8-5.5 2.3-7.5 1.6-2 3.5-3.5 5.7-4.5 2.2-1.1 5.1-2.2 8.5-3.4 3.7-1.3 6.3-2.4 8-3.5 1.7-1 2.5-2.4 2.5-4.2V258c0-2.8-.6-5-1.9-6.5-1.3-1.6-3.3-2.3-6.1-2.3-3.2 0-5.6.8-7.3 2.4 1.9.7 3.3 1.7 4.4 3 1 1.3 1.5 2.9 1.5 4.7 0 2.3-.8 4.1-2.3 5.4-1.5 1.3-3.4 2-5.6 2-2.3 0-4.1-.7-5.4-2.2-1.3-1.5-1.9-3.3-1.9-5.5 0-1.9.5-3.5 1.3-4.8.9-1.3 2.3-2.5 4.2-3.7 1.8-1.1 4-1.9 6.7-2.5 2.6-.6 5.5-.9 8.6-.9 3.3 0 6.1.3 8.5 1 2.4.7 4.4 1.8 6 3.4 1.5 1.5 2.5 3.3 3 5.4.5 2.1.8 5 .8 8.7v27.2c0 1.6.2 2.7.5 3.4.3.7.9 1 1.8 1 1 0 2.2-.6 3.6-1.7l1 1.7c-3 2.5-6.7 3.7-11 3.7-3.7 0-6.2-.7-7.7-2.2-1.5-1.5-2.2-3.4-2.3-5.9-3.3 5.4-8.2 8.1-14.7 8.1-4.3 0-7.5-1.1-9.6-3.3zm24.1-7.2v-20.5c-.8 1.3-2.5 2.8-5.1 4.4-2.6 1.7-4.6 3.3-5.9 5-1.3 1.7-2 4.1-2 7.2 0 2.7.6 4.8 1.7 6 1.1 1.3 2.6 2 4.5 2 2.6 0 4.9-1.4 6.8-4.1z" fill="#fff"/></svg>