<svg xmlns="http://www.w3.org/2000/svg" viewBox="0 0 186.9 59.4"><path d="M78.7 41.2c-.4.2-.8.4-1.3.5-.5.1-1 .2-1.5.2-1.4 0-2.7-.5-3.7-1.6-.9-1.1-1.4-2.5-1.4-3.9v-2.2c0-1.4.5-2.8 1.4-3.9.9-1 2.3-1.6 3.7-1.6 1.4 0 2.8.5 3.8 1.6s1.5 2.5 1.5 3.9v2.2c0 .7-.1 1.3-.3 1.9-.2.5-.4 1-.8 1.5l1.9 1.8-1.4 1.3-1.9-1.7zm-2.8-10.7c-.9 0-1.7.4-2.2 1-.6.8-.9 1.7-.8 2.7v2.2c0 1 .3 2 .8 2.7.5.7 1.4 1 2.2 1 .9.1 1.8-.3 2.4-1 .6-.8.9-1.8.9-2.8v-2.2c0-1-.3-2-.9-2.7-.6-.6-1.5-.9-2.4-.9zM88.2 42c-1.3 0-2.5-.4-3.4-1.2-.9-.9-1.4-2.1-1.3-3.3V29h2v8.5c0 .8.2 1.6.8 2.1.5.5 1.3.8 2 .8.8 0 1.5-.2 2.1-.8.6-.6.9-1.3.8-2.1V29h2v8.5c.1 1.3-.4 2.5-1.4 3.3-1.1.8-2.3 1.2-3.6 1.2zm14.7-.2l-1.1-3.2h-4.5l-1.1 3.2h-2L98.8 29h1.7l4.6 12.8h-2.2zm-1.7-4.9L99.6 32l-1.7 4.8 3.3.1zm7.1 4.9V30.6h-4.1V29h10.2v1.6h-4.1v11.2zm10.6 0V30.6h-4V29H125v1.6h-4.1v11.2zm15 0c-.3-.3-.5-.6-.5-1-.1-.4-.1-.8-.1-1.2v-1.1c0-.6-.2-1.1-.6-1.5-.4-.4-.9-.6-1.5-.6h-2.8v5.4h-2V29h4.4c1.2-.1 2.3.3 3.2 1 .8.7 1.2 1.7 1.1 2.8 0 .6-.2 1.2-.5 1.8-.3.4-.7.8-1.2 1 .5.2.9.5 1.2 1 .3.6.5 1.3.5 1.9v1.2c0 .3 0 .7.1 1 .1.3.2.5.4.7h.1v.4h-1.8zm-3.1-7c.7.1 1.4-.1 2-.5.4-.4.6-1 .6-1.5 0-.6-.2-1.1-.6-1.5-.5-.4-1.2-.6-1.8-.5h-2.4v4.1h2.2zm11.5 7.2c-1.4 0-2.7-.5-3.7-1.6-.9-1.1-1.4-2.5-1.4-3.9v-2.3c0-1.4.5-2.8 1.4-3.9.9-1 2.3-1.6 3.7-1.6 1.4 0 2.8.5 3.8 1.6s1.5 2.5 1.5 3.9v2.2c0 1.4-.5 2.8-1.5 3.9-1 1.2-2.4 1.7-3.8 1.7zm0-11.5c-.9 0-1.7.4-2.2 1-.6.8-.9 1.7-.9 2.7v2.2c0 1 .3 2 .9 2.7.5.7 1.4 1 2.2 1 .9.1 1.8-.3 2.4-1 .6-.8.9-1.8.9-2.8v-2.2c0-1-.3-1.9-.9-2.7-.6-.6-1.5-.9-2.4-.9zm15.2 11.3l-5.8-9.3v9.3h-2V29h1.9l5.9 9.2V29h2v12.8zm4.8-12.8h2v12.8h-2zm9.3 13c-1.4 0-2.7-.5-3.6-1.6-.9-1.1-1.4-2.5-1.4-3.9v-2.2c0-1.4.4-2.8 1.4-3.9.9-1 2.2-1.6 3.6-1.6 1.3 0 2.5.4 3.4 1.2.9.8 1.3 1.9 1.3 3.1l-.1.2h-1.9v-.2c0-.7-.2-1.5-.7-2-.6-.5-1.3-.8-2.1-.7-.8 0-1.6.4-2.1 1.1-.6.8-.9 1.8-.8 2.8v2.3c0 1 .3 2 .8 2.8.5.7 1.3 1.1 2.1 1.1.8.1 1.5-.2 2.1-.7.5-.5.8-1.3.7-2v-.2h1.9v.2c.1 1.1-.4 2.3-1.2 3.1-.9.7-2.2 1.1-3.4 1.1zm10.8 0c-1.2 0-2.3-.3-3.3-1-.9-.6-1.5-1.7-1.4-2.8v-.1l.1-.1h1.8c0 .7.3 1.3.8 1.7.6.4 1.2.6 1.9.6.6 0 1.3-.1 1.8-.5.4-.3.7-.8.6-1.3 0-.5-.2-1-.6-1.3-.6-.5-1.3-.8-2.1-.9-1.1-.2-2.1-.7-3-1.4-.7-.6-1.1-1.5-1.1-2.4 0-1 .4-1.9 1.2-2.6.9-.7 2-1.1 3.1-1 1.2 0 2.4.4 3.2 1.2.8.7 1.2 1.7 1.2 2.7l-.1.2h-1.9v-.2c0-.6-.2-1.2-.7-1.6-.5-.4-1.1-.7-1.8-.7-.6 0-1.2.1-1.7.5-.4.4-.6.9-.6 1.4 0 .5.2 1 .6 1.3.7.4 1.4.8 2.2.9 1.1.2 2.1.7 2.9 1.5.7.6 1 1.5 1 2.5s-.4 1.9-1.2 2.5c-.6.6-1.7.9-2.9.9z" fill="#fff"/><path d="M84.5 57.9c-.3.4-.7.8-1.2 1-.7.3-1.5.5-2.3.5-1.1 0-2.1-.4-2.8-1.1-.8-.8-1.2-1.9-1.1-3v-2.1c-.1-1.1.3-2.2 1.1-3 1.5-1.4 3.8-1.5 5.4-.3.6.6 1 1.4.9 2.3h-1.3c0-.6-.2-1.1-.6-1.5-.4-.4-1.1-.7-1.7-.6-.7 0-1.4.3-1.8.9-.5.6-.7 1.4-.7 2.2v2.1c0 .8.2 1.6.7 2.2.5.6 1.2.9 1.9.9.5 0 1-.1 1.4-.2.3-.1.6-.3.8-.5v-2.2h-2.3v-1h3.6v3.4zm7.5-1.2h-3.7l-.9 2.6H86l3.6-10h1.2l3.5 10h-1.4l-.9-2.6zm-3.3-1.1h3l-1.5-4.3-1.5 4.3zm12 1.8l3.2-8.1h1.7v10h-1.3v-7.5l-3 7.5h-.9l-3.2-7.7v7.7h-1.4v-9.9h1.8l3.1 8zm8.7 1.9H108v-9.9h1.4v9.9zm10 0H118l-4.8-7.6v7.6h-1.3v-9.9h1.3L118 57v-7.6h1.3l.1 9.9zm9.5-1.4c-.3.4-.7.8-1.2 1-.7.3-1.5.5-2.3.5-1.1 0-2.1-.4-2.8-1.1-.8-.8-1.2-1.9-1.1-3v-2c-.1-1.1.3-2.2 1.1-3 1.5-1.4 3.8-1.5 5.4-.3.6.6 1 1.4.9 2.3h-1.3c0-.6-.2-1.1-.6-1.5-.4-.4-1.1-.7-1.7-.6-.7 0-1.4.3-1.8.9-.5.6-.7 1.4-.7 2.2v2.1c0 .8.2 1.6.7 2.2.5.6 1.2.9 1.9.9.5 0 1-.1 1.4-.2.3-.1.6-.3.8-.5v-2.2h-2.3v-1h3.6v3.3zM40.4 6.7h5.4v5.4h-5.4zm6.7 0h5.4v5.4h-5.4zm6.8 0h5.4v5.4h-5.4zm-20.2 0h5.4v5.4h-5.4zM26.9 0h5.4v5.4h-5.4zM13.5 0h5.4v5.4h-5.4zM0 0h5.4v5.4H0zm20.2 6.7h5.4v5.4h-5.4zm-13.5 0h5.4v5.4H6.7zm33.7 47.2h5.4v5.4h-5.4zm6.7 0h5.4v5.4h-5.4zm6.8 0h5.4v5.4h-5.4zm6.7 0H66v5.4h-5.4zm-26.9 0h5.4v5.4h-5.4zm-6.8 0h5.4v5.4h-5.4zm13.5-40.4h5.4v5.4h-5.4zm6.7 0h5.4v5.4h-5.4zm6.8 0h5.4v5.4h-5.4zm6.7 0H66v5.4h-5.4zm-26.9 0h5.4v5.4h-5.4zm6.7 33.6h5.4v5.4h-5.4zm6.7 0h5.4v5.4h-5.4zm-13.4 0h5.4v5.4h-5.4zm-6.8-33.6h5.4v5.4h-5.4zm-13.4 0h5.4v5.4h-5.4zm40.4 6.7h5.4v5.4h-5.4zm6.7 0H66v5.4h-5.4zm-33.7 0h5.4v5.4h-5.4zm-6.7 0h5.4v5.4h-5.4zm33.7 6.7h5.4v5.4h-5.4zm6.7 0H66v5.4h-5.4zm-33.7 0h5.4v5.4h-5.4zm-6.7 0h5.4v5.4h-5.4zm-6.7 0h5.4v5.4h-5.4zm-6.8-6.7h5.4v5.4H6.7zm47.2 13.5h5.4v5.4h-5.4zm6.7 0H66v5.4h-5.4zm-33.7 0h5.4v5.4h-5.4zm-6.7 0h5.4v5.4h-5.4zm33.7 6.7h5.4v5.4h-5.4zm6.7 0H66v5.4h-5.4zm-33.7 0h5.4v5.4h-5.4zm-6.7 0h5.4v5.4h-5.4zm33.7 6.7h5.4v5.4h-5.4zm6.7 0H66v5.4h-5.4zm6.7 6.8h5.4v5.4h-5.4zm0-6.8h5.4v5.4h-5.4zm-40.4 0h5.4v5.4h-5.4zm-6.7 0h5.4v5.4h-5.4z" fill="#00a6e9"/></svg>