<svg id="ShopBag" xmlns="http://www.w3.org/2000/svg" viewBox="0 0 20 20"><style>.st0{fill:#191919}</style><path class="st0" d="M1.7 2.1h2.2c.2 0 .4.1.5.3l.7 1.4c.1.2.2.3.4.3h11.7c.4 0 .6.4.5.7l-3 6.5c-.1.2-.3.3-.5.3H7.6c-.3 0-.5.2-.5.5v.4c0 .3.2.5.5.5h6.7c.3 0 .5.2.5.5v.2c0 .3-.2.5-.5.5H6.4c-.2 0-.3-.1-.4-.2l-.9-1.1c-.1.1-.1 0-.1-.1L3 3.6c0-.3-.2-.4-.5-.4h-.9c-.3 0-.5-.2-.5-.5 0-.4.3-.6.6-.6z"/><circle class="st0" cx="7.5" cy="16.1" r="1.3"/><circle class="st0" cx="13.2" cy="16.1" r="1.3"/></svg>