<svg xmlns="http://www.w3.org/2000/svg" viewBox="0 0 200 60"><path d="M199.7 60H0V0h200c0 20-.3 40-.3 60zM95.1 12.9h-2.7v37.2c0 1.9.7 3.7 1.1 5.5 0 .1.2.2.2.2.1 0 .3-.1.3-.2.1-.3.2-.6.2-.8.3-1.4.8-2.7.8-4.1.1-12.5 0-25 0-37.4.1-.2.1-.3.1-.4zm-4.4 30.9c.1 0 .1 0 0 0 .1-10.1.1-20.2.1-30.3-.3.2-.5.4-.8.5-.5.2-.6.5-.6 1v20.5c0 1.4 0 2.8.4 4.2.4 1.4.6 2.8.9 4.1zm4.1 13.8s.1 0 .1.1l.6-.9c1-1.8 1.9-3.6 2.9-5.5 3.1-6.1 6.2-12.2 9.4-18.3 2-3.9 4.2-7.6 6.3-11.4.6-1 .4-1.8-.3-2.6l-.6-.6c-1.5-1.2-2.9-2.3-4.4-3.5-.1-.1-.3-.2-.5-.4.5-.3.9-.5 1.3-.7 1.4-.6 2.8-1.1 4.2-1.6 1.4-.6 1.5-.8.6-2l-6.3-8.7h-.1l-.1.1c.2.5.4 1 .7 1.4 1.8 2.5 3.5 4.9 5.3 7.4.2.3.4.7.6 1.1-.9.3-1.7.6-2.5 1-1.2.5-2.4.9-3.6 1.5-.9.4-.9.9-.1 1.5 1.1.8 2.2 1.6 3.2 2.4.7.6 1.4 1.3 2 2 .4.4.4.9.1 1.4-.4.7-.8 1.4-1.2 2.2-2.7 4.9-5.5 9.8-8.1 14.8-3 5.7-5.8 11.5-8.7 17.2-.2.5-.5 1.3-.8 2.1zm-2.1 0c.1 0 .1-.1.2-.1-.4-.9-.7-1.8-1.1-2.7l-3.3-6.6c-3.3-6.6-6.6-13.2-10.3-19.7L74 21c-.2-.4-.2-.8.1-1.2.2-.3.4-.6.6-.8.9-.8 1.9-1.6 2.8-2.4.7-.5 1.4-1 2.1-1.6.5-.4.5-.7 0-1.1-.3-.2-.6-.4-.9-.5-1.4-.6-2.8-1.1-4.2-1.6-.4-.2-.8-.4-1.3-.6.5-.8 1-1.5 1.5-2.2 1.5-2 3.1-4 4.6-6.1.3-.4.6-.9.5-1.5-.1.1-.1.1-.2.1-2.1 2.9-4.3 5.9-6.4 8.8-.8 1.2-.7 1.4.6 1.9 1.4.5 2.8 1.1 4.2 1.6.5.2.9.5 1.5.7-.2.2-.3.3-.5.4-.7.6-1.5 1.1-2.2 1.7-1 .8-1.9 1.6-2.8 2.5-.7.7-.9 1.5-.3 2.4.2.3.3.6.5.9 2.5 4.6 5.1 9.1 7.6 13.8 3.1 5.9 6.1 12 9.1 17.9.6 1.2 1.2 2.4 1.8 3.5zm4-44.2v29.8c.5-2 1-3.9 1.3-5.9.2-1 0-2 0-2.9V14.8c0-.3-.1-.6-.4-.7-.2-.3-.5-.5-.9-.7zm4.9-1c0 .4.1.9 0 1.3s-.2.8-.5 1.1c-.2.2-.3.4-.3.7v9.7h.1c1.5-5.6 3.1-11.3 4.6-17-.9.7-1.8 1.3-2.6 1.9.1.2.3.5.4.7.2.2.3.5.5.7.3.6.2 1-.5 1-.5 0-1.1 0-1.7-.1zm-9.5.3c-.5.2-.7.5-.7 1v31.9c0 1.2.3 2.5.5 3.7h.2V12.7zm10.8-2.8c.9-.8 1.8-1.5 2.7-2.2.1-.1.1-.2.1-.3.3-1.8.7-3.6 1-5.4.1-.5 0-1-.5-1.3-.1.1-.2.2-.2.3-.9 1.1-1.7 2.2-2.7 3.2-.9.9-1.3 1.8-1.1 3 .1.8.1 1.7.7 2.7zm-7.4 2.7v36.3c.3-1 .6-2.1.6-3.1V13.6c.1-.5-.1-.8-.6-1zM81.7 1c-.5.4-.4 1.1-.3 1.7L82 6c0 .5.1 1 .4 1.4.7.9 1.6 1.5 2.6 2.1.2-.4.4-.7.4-1.1.1-1.1.2-2.1.3-3.2 0-.1-.1-.3-.2-.4C84.2 3.6 83 2.3 81.7 1zm3 8.7c-.7-.6-1.4-1.1-2.2-1.7 1.4 5.4 2.8 10.7 4.2 16v-8.3c0-.4.1-.8-.3-1.1-.2-.1-.2-.4-.2-.7V12c-.3 0-.5.1-.8.1-.2 0-.5.1-.7.1-.8 0-1-.3-.7-1 .2-.5.5-1 .7-1.5zM89 35.8V14.6c-.9.3-.9.3-.9 1.2v16.4l.9 3.6zm6.5-25.6c.3-.2.5-.3.8-.5 1.4-.7 2.8-1.5 4.3-2.1.9-.4 1.2-.2 1.1.8-.1.8-.2 1.6-.3 2.3-.1 1.1.1 1.4 1.2 1.5h.5c.7 0 .9-.2.5-.9-.1-.2-.2-.3-.3-.5-.7-1-1.2-2-1.2-3.2 0-.8-.1-1.6-.1-2.5-2.4 1.4-4.8 2.7-7.1 4.1.2.5.4.8.6 1zm-3.2-.1c.3-.2.6-.5.9-.8C90.8 7.9 88.4 6.5 86 5c0 .6-.1.9-.1 1.3 0 1.5-.3 2.8-1.2 4-.2.3-.4.7-.5 1.1-.1.3 0 .6.4.6.3 0 .7-.1 1-.1.6 0 .7-.3.7-.8-.1-.8-.2-1.7-.3-2.5-.1-1.2.1-1.4 1.2-1 .2.1.5.2.7.3 1.5.6 2.9 1.4 4.4 2.2zm6.1 25.1c.6-1.8.8-3.7.8-5.5-.1-4.8 0-9.5 0-14.3 0-.6-.3-.8-.8-.9v20.7zM99.6 15v15.3h.1c.3-1.3.7-2.5.7-3.8.1-3.6 0-7.3 0-10.9v-.5c-.2-.1-.5-.1-.8-.1zm-12.5.1v.6c0 3.3-.1 6.6 0 9.9 0 1.4.4 2.8.6 4.2h.1V15.1h-.7z"/><path d="M93.1 43.5c0-.5.3-.8.8-.8.4 0 .7.3.7.8s-.3.8-.8.8c-.4 0-.7-.4-.7-.8zm.7-21.7c.4 0 .8.4.8.8s-.4.8-.8.8-.8-.4-.8-.8c0-.5.4-.8.8-.8zm0 6.9c.4 0 .8.3.8.7 0 .5-.3.9-.8.9-.4 0-.7-.4-.8-.8.1-.4.4-.8.8-.8zm0 8.5c-.4 0-.8-.4-.8-.8s.4-.8.8-.8.8.4.8.8c-.1.5-.4.8-.8.8zm0-22.3c.4 0 .8.4.8.8s-.4.8-.8.8-.8-.4-.8-.9c.1-.4.4-.7.8-.7z"/></svg>