<svg xmlns="http://www.w3.org/2000/svg" viewBox="0 0 226 118"><style>.st1{fill:#fff}</style><path fill="#020202" d="M0 0h226v118H0z" id="Cover"/><g id="Layer_1"><path class="st1" d="M173.2 48.5c0-.4.1-.8.4-1 .2-.2.6-.3 1-.3s.8.1 1 .3c.2.2.4.6.4 1s-.1.7-.4 1-.6.4-1 .4-.8-.1-1-.3-.4-.6-.4-1.1zm8.5 1.3c-2.7 0-4.1-1.5-4.1-4.5 0-1.5.4-2.6 1.1-3.4.7-.8 1.8-1.2 3.2-1.2 1 0 1.9.2 2.7.6l-.7 1.8c-.4-.2-.7-.3-1-.4-.3-.1-.6-.1-1-.1-1.2 0-1.9.9-1.9 2.6 0 1.7.6 2.6 1.9 2.6.5 0 .9-.1 1.3-.2s.8-.3 1.2-.6v2c-.4.2-.8.4-1.2.5s-.9.3-1.5.3zm12.6-4.5c0 1.4-.4 2.5-1.1 3.3-.8.8-1.8 1.2-3.1 1.2-.8 0-1.6-.2-2.2-.6s-1.1-.9-1.5-1.6-.5-1.5-.5-2.4c0-1.4.4-2.5 1.1-3.3.7-.8 1.8-1.2 3.1-1.2.8 0 1.6.2 2.2.5.6.4 1.1.9 1.5 1.6.3.8.5 1.6.5 2.5zm-6 0c0 .9.1 1.5.4 2 .3.4.7.7 1.4.7.6 0 1.1-.2 1.4-.7.3-.4.4-1.1.4-2 0-.9-.1-1.5-.4-1.9-.3-.4-.7-.6-1.4-.6-.6 0-1.1.2-1.4.6s-.4 1-.4 1.9zm15.8 4.4h-2.4v-5.1c0-.6-.1-1.1-.3-1.4-.2-.3-.5-.5-1-.5-.6 0-1.1.2-1.3.7-.3.4-.4 1.2-.4 2.2v4.1h-2.4V41h1.8l.3 1.1h.1c.2-.4.6-.7 1-.9s1-.3 1.5-.3c1.3 0 2.2.4 2.7 1.3h.2c.2-.4.6-.7 1-.9.5-.2 1-.3 1.5-.3 1 0 1.7.3 2.2.8s.8 1.3.8 2.4v5.7H207v-5.1c0-.6-.1-1.1-.3-1.4-.2-.3-.5-.5-1-.5-.6 0-1 .2-1.3.6-.3.4-.4 1.1-.4 2v4.2z" id="Layer_2"/><path class="st1" d="M33.3 65.8c0 2.2-.8 4-2.4 5.3-1.6 1.3-3.8 1.9-6.7 1.9-2.6 0-5-.5-7-1.5v-4.9c1.7.7 3.1 1.3 4.2 1.6 1.2.3 2.2.5 3.2.5 1.1 0 2-.2 2.6-.7.6-.4.9-1.1.9-2 0-.5-.1-.9-.4-1.3-.3-.4-.7-.7-1.2-1.1-.5-.3-1.6-.9-3.2-1.7-1.5-.7-2.6-1.4-3.4-2s-1.4-1.4-1.8-2.3c-.4-.9-.7-1.9-.7-3 0-2.2.7-3.9 2.2-5.1s3.5-1.9 6.1-1.9c1.3 0 2.5.2 3.7.5 1.2.3 2.4.7 3.6 1.3l-1.7 4.1c-1.3-.5-2.4-.9-3.3-1.1-.9-.2-1.7-.3-2.5-.3-1 0-1.7.2-2.3.7s-.8 1.1-.8 1.8c0 .5.1.9.3 1.2.2.3.6.7 1 1 .5.3 1.6.9 3.3 1.7 2.3 1.1 3.9 2.2 4.7 3.3 1.2 1.1 1.6 2.4 1.6 4zm9.2 6.9h-5.1V46.5h5.1v26.2zM65 63.2c0 3.1-.8 5.5-2.4 7.2S58.7 73 55.8 73c-1.8 0-3.4-.4-4.8-1.2-1.4-.8-2.4-1.9-3.2-3.4s-1.1-3.2-1.1-5.2c0-3.1.8-5.5 2.4-7.2 1.6-1.7 3.9-2.6 6.8-2.6 1.8 0 3.4.4 4.8 1.2 1.4.8 2.4 1.9 3.2 3.4s1.1 3.2 1.1 5.2zm-13 0c0 1.9.3 3.3.9 4.2.6 1 1.6 1.4 3 1.4s2.4-.5 3-1.4.9-2.4.9-4.2c0-1.9-.3-3.3-.9-4.2s-1.6-1.4-3-1.4-2.4.5-3 1.4c-.6.9-.9 2.3-.9 4.2zm25.2 5.7c.9 0 2-.2 3.2-.6v3.8c-1.3.6-2.9.9-4.7.9-2.1 0-3.6-.5-4.5-1.6-.9-1-1.4-2.6-1.4-4.7v-9.1h-2.5v-2.2l2.8-1.7 1.5-4h3.3v4h5.3v3.9h-5.3v9.1c0 .7.2 1.3.6 1.6.5.4 1 .6 1.7.6z"/><path d="M95.1 52c-2 0-3.5.7-4.6 2.2-1.1 1.5-1.6 3.5-1.6 6.2 0 5.5 2.1 8.2 6.2 8.2 1.7 0 3.8-.4 6.3-1.3v4.4c-2 .8-4.3 1.3-6.8 1.3-3.6 0-6.3-1.1-8.2-3.3s-2.8-5.3-2.8-9.4c0-2.6.5-4.8 1.4-6.7s2.3-3.4 4-4.4c1.7-1 3.8-1.5 6.1-1.5 2.4 0 4.8.6 7.2 1.7l-1.7 4.2c-.9-.4-1.8-.8-2.8-1.1S96 52 95.1 52zm23.1 20.7l-1-2.6h-.2c-.9 1.1-1.8 1.8-2.7 2.3-.9.4-2.1.6-3.6.6-1.8 0-3.2-.5-4.3-1.5S105 68.9 105 67c0-2 .7-3.5 2.1-4.4 1.4-.9 3.5-1.5 6.3-1.6l3.3-.1v-.8c0-1.9-1-2.9-2.9-2.9-1.5 0-3.3.5-5.3 1.4l-1.7-3.5c2.2-1.1 4.6-1.7 7.2-1.7 2.5 0 4.5.6 5.8 1.7 1.3 1.1 2 2.8 2 5v12.5h-3.6zm-1.5-8.8l-2 .1c-1.5 0-2.6.3-3.3.8-.7.5-1.1 1.2-1.1 2.3 0 1.4.8 2.2 2.5 2.2 1.2 0 2.1-.3 2.9-1 .7-.7 1.1-1.6 1.1-2.7v-1.7zm18.3 5c.9 0 2-.2 3.2-.6v3.8c-1.3.6-2.9.9-4.7.9-2.1 0-3.6-.5-4.5-1.6-.9-1-1.4-2.6-1.4-4.7v-9.1h-2.5v-2.2l2.8-1.7 1.5-4h3.3v4h5.3v3.9h-5.3v9.1c0 .7.2 1.3.6 1.6.5.4 1 .6 1.7.6zm19 3.8l-1-2.6h-.1c-.9 1.1-1.8 1.8-2.7 2.3-.9.4-2.1.6-3.6.6-1.8 0-3.2-.5-4.3-1.5s-1.6-2.5-1.6-4.4c0-2 .7-3.5 2.1-4.4s3.5-1.5 6.3-1.6l3.3-.1v-.8c0-1.9-1-2.9-2.9-2.9-1.5 0-3.3.5-5.3 1.4l-1.7-3.5c2.2-1.1 4.6-1.7 7.2-1.7 2.5 0 4.5.6 5.8 1.7 1.3 1.1 2 2.8 2 5v12.5H154zm-1.5-8.8l-2 .1c-1.5 0-2.6.3-3.3.8-.7.5-1.1 1.2-1.1 2.3 0 1.4.8 2.2 2.5 2.2 1.2 0 2.1-.3 2.9-1 .7-.7 1.1-1.6 1.1-2.7v-1.7zm15.5 8.8h-5.1V46.5h5.1v26.2zm22.5-9.5c0 3.1-.8 5.5-2.4 7.2s-3.9 2.6-6.8 2.6c-1.8 0-3.4-.4-4.8-1.2-1.4-.8-2.4-1.9-3.2-3.4-.7-1.5-1.1-3.2-1.1-5.2 0-3.1.8-5.5 2.4-7.2 1.6-1.7 3.9-2.6 6.8-2.6 1.8 0 3.4.4 4.8 1.2 1.4.8 2.4 1.9 3.2 3.4.7 1.5 1.1 3.2 1.1 5.2zm-13 0c0 1.9.3 3.3.9 4.2.6 1 1.6 1.4 3 1.4s2.4-.5 3-1.4.9-2.4.9-4.2c0-1.9-.3-3.3-.9-4.2-.6-.9-1.6-1.4-3-1.4s-2.4.5-3 1.4c-.6.9-.9 2.3-.9 4.2zm33.6-9.4v2.6l-2.9.8c.5.8.8 1.8.8 2.8 0 2-.7 3.6-2.1 4.7-1.4 1.1-3.4 1.7-5.9 1.7l-.9-.1-.8-.1c-.5.4-.8.9-.8 1.3 0 .7.9 1.1 2.8 1.1h3.2c2.1 0 3.6.4 4.7 1.3s1.6 2.2 1.6 3.9c0 2.2-.9 3.9-2.8 5.1-1.8 1.2-4.5 1.8-7.9 1.8-2.6 0-4.6-.5-6-1.4-1.4-.9-2.1-2.2-2.1-3.8 0-1.1.4-2.1 1.1-2.8.7-.8 1.7-1.3 3.1-1.6-.5-.2-1-.6-1.4-1.1-.4-.5-.6-1.1-.6-1.6 0-.7.2-1.3.6-1.8.4-.5 1-.9 1.8-1.4-1-.4-1.8-1.1-2.3-2.1-.6-.9-.9-2.1-.9-3.3 0-2.1.7-3.6 2-4.8 1.3-1.1 3.2-1.7 5.7-1.7.5 0 1.2 0 1.9.1s1.2.2 1.4.2h6.7zm-14.5 21.5c0 .7.3 1.3 1 1.7s1.6.6 2.9.6c1.8 0 3.3-.3 4.3-.8s1.6-1.2 1.6-2.1c0-.7-.3-1.2-.9-1.5-.6-.3-1.6-.4-2.9-.4h-2.7c-.9 0-1.7.2-2.4.7-.6.5-.9 1.1-.9 1.8zm1.9-15.3c0 1 .2 1.8.7 2.4.5.6 1.2.9 2.1.9 1 0 1.7-.3 2.1-.9.4-.6.7-1.4.7-2.4 0-2.3-.9-3.4-2.8-3.4s-2.8 1.1-2.8 3.4z" fill="#68b04a"/></g></svg>